<svg width="3074" height="421" viewBox="0 0 3074 421" fill="none" xmlns="http://www.w3.org/2000/svg">
<path d="M360.836 360.496C360.836 376.896 354.836 391.096 342.836 403.096C331.236 414.696 317.236 420.496 300.836 420.496H0.835938V0.496065H300.836C317.236 0.496065 331.236 6.49607 342.836 18.4961C354.836 30.0961 360.836 44.0961 360.836 60.4961V126.496C360.836 142.896 354.836 157.096 342.836 169.096C331.236 180.696 317.236 186.496 300.836 186.496C317.236 186.496 331.236 192.496 342.836 204.496C354.836 216.096 360.836 230.096 360.836 246.496V360.496ZM270.836 144.496V84.4961H90.8359V144.496H270.836ZM270.836 336.496V228.496H90.8359V336.496H270.836ZM756.93 360.496C756.93 376.896 750.93 391.096 738.93 403.096C727.33 414.696 713.33 420.496 696.93 420.496H456.93C440.53 420.496 426.33 414.696 414.33 403.096C402.73 391.096 396.93 376.896 396.93 360.496V0.496065H486.93V336.496H666.93V0.496065H756.93V360.496ZM1123.02 420.496H853.023C836.623 420.496 822.423 414.696 810.423 403.096C798.823 391.096 793.023 376.896 793.023 360.496V60.4961C793.023 44.0961 798.823 30.0961 810.423 18.4961C822.423 6.49607 836.623 0.496065 853.023 0.496065H1123.02V84.4961H883.023V336.496H1123.02V420.496ZM1519.23 360.496C1519.23 376.896 1513.23 391.096 1501.23 403.096C1489.63 414.696 1475.63 420.496 1459.23 420.496H1219.23C1202.83 420.496 1188.63 414.696 1176.63 403.096C1165.03 391.096 1159.23 376.896 1159.23 360.496V60.4961C1159.23 44.0961 1165.03 30.0961 1176.63 18.4961C1188.63 6.49607 1202.83 0.496065 1219.23 0.496065H1459.23C1475.63 0.496065 1489.63 6.49607 1501.23 18.4961C1513.23 30.0961 1519.23 44.0961 1519.23 60.4961V360.496ZM1429.23 336.496V84.4961H1249.23V336.496H1429.23ZM1915.33 420.496H1825.33L1645.33 168.496V420.496H1555.33V0.496065H1645.33L1825.33 252.496V0.496065H1915.33V420.496ZM2281.42 420.496H2011.42C1995.02 420.496 1980.82 414.696 1968.82 403.096C1957.22 391.096 1951.42 376.896 1951.42 360.496V60.4961C1951.42 44.0961 1957.22 30.0961 1968.82 18.4961C1980.82 6.49607 1995.02 0.496065 2011.42 0.496065H2281.42V84.4961H2041.42V144.496H2281.42V228.496H2041.42V336.496H2281.42V420.496ZM2677.63 420.496H2587.63V228.496H2407.63V420.496H2317.63V0.496065H2617.63C2634.03 0.496065 2648.03 6.49607 2659.63 18.4961C2671.63 30.0961 2677.63 44.0961 2677.63 60.4961V126.496C2677.63 142.896 2671.63 157.096 2659.63 169.096C2648.03 180.696 2634.03 186.496 2617.63 186.496C2634.03 186.496 2648.03 192.496 2659.63 204.496C2671.63 216.096 2677.63 230.096 2677.63 246.496V420.496ZM2587.63 144.496V84.4961H2407.63V144.496H2587.63ZM3073.73 360.496C3073.73 376.896 3067.73 391.096 3055.73 403.096C3044.13 414.696 3030.13 420.496 3013.73 420.496H2773.73C2757.33 420.496 2743.13 414.696 2731.13 403.096C2719.53 391.096 2713.73 376.896 2713.73 360.496V60.4961C2713.73 44.0961 2719.53 30.0961 2731.13 18.4961C2743.13 6.49607 2757.33 0.496065 2773.73 0.496065H3013.73C3030.13 0.496065 3044.13 6.49607 3055.73 18.4961C3067.73 30.0961 3073.73 44.0961 3073.73 60.4961V360.496ZM2983.73 336.496V84.4961H2803.73V336.496H2983.73Z" fill="#FD8A42"/>
</svg>
