<svg width="1913" height="669" viewBox="0 0 1913 669" fill="none" xmlns="http://www.w3.org/2000/svg">
<path d="M38.8578 209.118L37.6578 209.718C39.6578 208.518 46.2578 206.318 57.4578 203.118C68.6578 199.518 80.6578 195.318 93.4578 190.518C98.2578 188.918 103.058 187.118 107.858 185.118C112.658 183.118 117.258 181.118 121.658 179.118C126.058 176.718 130.458 174.118 134.858 171.318C139.258 168.518 143.458 165.718 147.458 162.918C155.458 157.318 162.858 152.118 169.658 147.318C176.858 142.118 183.258 139.318 188.858 138.918C190.458 138.518 192.058 138.318 193.658 138.318C195.658 138.318 197.658 138.318 199.658 138.318C204.858 138.318 210.458 138.518 216.458 138.918C222.858 139.318 229.458 139.918 236.258 140.718C237.858 141.118 239.458 141.518 241.058 141.918C242.658 141.918 244.258 141.918 245.858 141.918L382.658 155.718C384.258 156.118 389.258 156.918 397.658 158.118C406.058 159.318 415.258 161.318 425.258 164.118C435.658 166.918 445.258 170.518 454.058 174.918C462.858 179.318 467.458 184.918 467.858 191.718C467.858 191.718 467.858 191.918 467.858 192.318C467.858 195.118 467.058 197.918 465.458 200.718C464.258 203.518 462.458 206.318 460.058 209.118C458.458 211.518 456.458 213.918 454.058 216.318C451.658 218.718 449.258 221.118 446.858 223.518C444.858 225.518 442.858 227.518 440.858 229.518C439.258 231.518 437.658 233.518 436.058 235.518C432.858 239.918 429.858 243.918 427.058 247.518C424.658 250.718 422.058 254.118 419.258 257.718C419.258 258.118 419.058 258.518 418.658 258.918C418.258 259.318 418.058 259.518 418.058 259.518C415.258 263.118 412.458 266.718 409.658 270.318C406.858 273.918 403.858 277.718 400.658 281.718C402.258 277.718 403.458 273.918 404.258 270.318C405.058 266.718 405.458 263.118 405.458 259.518C405.458 254.318 404.658 249.318 403.058 244.518C401.858 239.318 399.658 234.118 396.458 228.918C390.458 218.518 382.258 211.918 371.858 209.118C361.458 206.318 350.458 204.518 338.858 203.718C336.858 203.318 334.858 203.118 332.858 203.118C330.858 203.118 328.858 202.918 326.858 202.518L202.658 188.118C195.458 187.718 188.458 187.318 181.658 186.918C174.858 186.118 168.058 185.718 161.258 185.718C153.658 185.718 146.458 186.318 139.658 187.518C132.858 188.318 126.058 190.118 119.258 192.918C110.858 196.518 103.258 207.118 96.4578 224.718C90.0578 242.318 85.4578 261.318 82.6578 281.718C81.8578 286.518 81.2578 291.318 80.8578 296.118C80.4578 300.918 80.2578 305.518 80.2578 309.918L79.0578 339.318L340.058 348.318C343.258 348.718 346.458 348.918 349.658 348.918C352.858 348.918 355.858 348.918 358.658 348.918C361.058 348.918 363.258 348.918 365.258 348.918C367.658 348.918 370.058 348.918 372.458 348.918C376.858 348.918 381.458 348.718 386.258 348.318C391.058 347.518 396.258 346.718 401.858 345.918C405.458 345.118 408.858 344.518 412.058 344.118C415.258 343.318 418.258 342.718 421.058 342.318C424.258 341.518 427.258 340.718 430.058 339.918C433.258 339.118 436.658 338.118 440.258 336.918L441.458 341.718C438.658 343.318 434.858 345.518 430.058 348.318C425.258 350.718 419.858 353.118 413.858 355.518C409.058 357.918 403.858 360.118 398.258 362.118C393.058 364.118 387.658 365.918 382.058 367.518C381.258 367.518 380.258 367.718 379.058 368.118C378.258 368.118 377.458 368.318 376.658 368.718C355.058 373.518 332.258 376.718 308.258 378.318C284.658 379.918 258.658 380.918 230.258 381.318L97.0578 382.518C101.458 389.718 107.658 398.118 115.658 407.718C124.058 417.318 133.458 427.318 143.858 437.718C152.258 445.718 161.058 453.518 170.258 461.118C179.858 468.718 189.658 475.718 199.658 482.118C208.858 487.718 217.658 493.118 226.058 498.318C234.858 503.118 243.658 507.518 252.458 511.518C264.858 517.518 277.258 522.318 289.658 525.918C302.458 529.118 315.858 530.718 329.858 530.718C335.458 530.718 341.258 530.518 347.258 530.118C353.258 529.318 359.458 528.318 365.858 527.118C369.058 526.318 372.458 525.318 376.058 524.118C380.058 522.918 383.858 521.518 387.458 519.918C390.258 518.318 393.058 516.918 395.858 515.718C399.058 514.118 402.058 512.518 404.858 510.918C413.658 506.118 421.258 501.918 427.658 498.318C434.058 494.318 437.258 493.118 437.258 494.718C437.258 496.318 436.658 498.118 435.458 500.118C434.258 502.118 432.658 504.118 430.658 506.118C429.058 507.718 427.258 509.318 425.258 510.918C423.258 512.518 421.258 513.918 419.258 515.118C418.858 515.518 418.258 515.918 417.458 516.318C417.058 516.718 416.458 517.118 415.658 517.518L341.858 563.118C337.458 566.318 333.058 568.918 328.658 570.918C324.658 572.918 320.658 574.518 316.658 575.718C308.658 578.518 300.658 580.518 292.658 581.718C284.658 582.918 275.458 583.718 265.058 584.118C263.858 584.118 262.658 584.118 261.458 584.118C260.258 584.118 259.058 584.118 257.858 584.118C247.458 584.118 236.258 583.118 224.258 581.118C212.658 578.718 200.858 574.918 188.858 569.718C179.658 566.118 170.458 561.718 161.258 556.518C152.458 550.918 143.858 544.718 135.458 537.918L65.2578 480.318C42.8578 462.718 26.4578 443.318 16.0578 422.118C5.65781 400.518 0.457813 375.718 0.457813 347.718C0.457813 344.518 0.457813 341.318 0.457813 338.118C0.457813 334.918 0.657813 331.718 1.05781 328.518C1.45781 323.718 1.85781 318.718 2.25781 313.518C3.05781 308.318 4.05781 303.318 5.25781 298.518C8.45781 279.718 12.8578 262.118 18.4578 245.718C24.4578 229.318 30.4578 217.918 36.4578 211.518C36.8578 211.118 37.2578 210.918 37.6578 210.918C38.0578 210.518 38.4578 210.118 38.8578 209.718V209.118ZM602.178 585.918V489.318V182.118H501.378L563.778 140.718H684.378V237.918V545.118L602.178 585.918ZM641.778 9.91794L642.378 8.71796L672.978 42.318C673.378 43.1179 673.778 43.9179 674.178 44.718C674.978 45.118 675.578 45.5179 675.978 45.9179C676.378 46.3179 676.578 46.7179 676.578 47.1179C676.978 47.1179 677.178 47.1179 677.178 47.1179C679.178 49.1179 680.978 51.1179 682.578 53.118C684.178 55.118 685.178 56.7179 685.578 57.9179C685.978 59.1179 685.378 60.7179 683.778 62.7179C682.178 64.3179 680.378 66.1179 678.378 68.1179C677.978 68.5179 677.578 68.9179 677.178 69.3179C676.778 69.7179 676.378 70.118 675.978 70.5179C675.178 71.3179 674.378 72.1179 673.578 72.918C673.178 73.3179 672.578 73.7179 671.778 74.1179L635.178 107.118C634.778 107.918 634.378 108.518 633.978 108.918C633.978 108.918 633.778 109.118 633.378 109.518C632.978 109.518 632.578 109.718 632.178 110.118C632.178 110.118 631.978 110.318 631.578 110.718C630.378 111.918 629.178 112.918 627.978 113.718C626.778 114.118 625.578 114.518 624.378 114.918C623.578 114.918 622.778 114.718 621.978 114.318C621.178 113.918 620.378 113.318 619.578 112.518C619.178 112.118 618.778 111.718 618.378 111.318C617.978 110.918 617.578 110.518 617.178 110.118C616.378 109.718 615.778 109.318 615.378 108.918C614.978 108.118 614.578 107.518 614.178 107.118L580.578 71.7179C580.178 71.7179 579.578 71.5179 578.778 71.1179C578.378 70.318 577.778 69.7179 576.978 69.3179C576.578 68.9179 576.178 68.5179 575.778 68.1179C575.378 67.7179 574.778 67.318 573.978 66.918C572.378 65.318 570.978 63.718 569.778 62.118C568.578 60.5179 567.978 58.7179 567.978 56.7179C567.978 55.9179 567.978 55.3179 567.978 54.9179C567.978 54.1179 568.178 53.518 568.578 53.118C568.978 52.3179 570.378 50.7179 572.778 48.3179C575.578 45.918 578.578 43.118 581.778 39.918C582.178 39.918 582.378 39.918 582.378 39.918C582.778 39.518 582.978 39.1179 582.978 38.7179C584.178 37.9179 585.378 36.9179 586.578 35.7179C587.778 34.5179 588.978 33.5179 590.178 32.7179L615.378 10.5179C615.778 10.5179 616.178 10.3179 616.578 9.91794C617.378 9.11795 618.178 8.51795 618.978 8.11793C618.978 7.71794 619.178 7.51794 619.578 7.51794C619.978 7.11794 620.178 6.71795 620.178 6.31795C621.778 5.11795 623.378 3.91794 624.978 2.71793C626.978 1.51794 628.578 0.917952 629.778 0.917952C629.778 0.917952 629.978 0.917952 630.378 0.917952C631.178 0.917952 631.978 1.31795 632.778 2.11794C633.978 2.51793 635.178 3.31793 636.378 4.51794C636.778 4.91794 637.378 5.51794 638.178 6.31795C638.978 7.11794 639.778 7.91794 640.578 8.71796C640.578 9.11795 640.578 9.51795 640.578 9.91794C640.978 9.91794 641.378 10.1179 641.778 10.5179V9.91794ZM883.719 182.718L883.119 250.518V557.718L804.519 584.718L803.319 488.118L801.519 180.918L716.319 181.518C719.119 179.518 721.719 177.718 724.119 176.118C726.919 174.118 729.519 172.118 731.919 170.118C733.119 169.318 734.319 168.518 735.519 167.718C737.119 166.918 738.519 165.918 739.719 164.718C741.719 163.518 743.719 162.318 745.719 161.118C748.119 159.518 750.519 158.118 752.919 156.918C756.119 154.918 759.119 153.118 761.919 151.518C765.119 149.918 768.119 148.518 770.919 147.318C773.319 146.118 775.719 144.918 778.119 143.718C780.919 142.518 783.719 141.318 786.519 140.118C787.719 139.718 788.919 139.318 790.119 138.918C791.719 138.118 793.119 137.518 794.319 137.118C797.119 137.118 799.719 137.118 802.119 137.118C804.519 137.118 806.919 137.118 809.319 137.118C810.519 137.518 811.719 137.718 812.919 137.718C814.519 137.718 815.919 137.718 817.119 137.718C817.919 137.718 818.719 137.718 819.519 137.718C820.719 137.718 821.719 137.718 822.519 137.718C827.319 137.718 832.119 137.718 836.919 137.718C842.119 137.718 847.519 137.518 853.119 137.118C865.919 136.718 877.519 136.118 887.919 135.318C898.319 134.118 908.519 132.918 918.519 131.718C928.119 130.918 938.119 130.118 948.519 129.318C959.319 128.118 970.919 127.318 983.319 126.918C983.719 126.918 983.919 126.918 983.919 126.918C984.319 126.918 984.719 126.918 985.119 126.918C985.519 126.918 985.919 126.918 986.319 126.918C995.119 126.918 1005.72 127.918 1018.12 129.918C1030.92 131.918 1043.92 135.118 1057.12 139.518C1078.32 146.318 1097.92 157.118 1115.92 171.918C1134.32 186.318 1145.12 205.918 1148.32 230.718C1148.72 232.318 1148.92 233.918 1148.92 235.518C1148.92 237.118 1148.92 238.718 1148.92 240.318C1148.92 265.518 1137.72 286.118 1115.32 302.118C1093.32 318.118 1069.12 332.318 1042.72 344.718C1039.12 346.718 1035.32 348.518 1031.32 350.118C1027.72 351.718 1024.12 353.318 1020.52 354.918L1010.32 359.118C1015.52 366.318 1020.32 372.918 1024.72 378.918C1029.52 384.518 1034.12 389.918 1038.52 395.118C1039.72 396.318 1040.72 397.718 1041.52 399.318C1042.72 400.518 1043.92 401.718 1045.12 402.918C1049.92 408.518 1054.92 414.318 1060.12 420.318C1065.32 425.918 1070.92 432.118 1076.92 438.918C1082.52 445.318 1087.72 451.118 1092.52 456.318C1097.32 461.118 1102.12 465.918 1106.92 470.718C1107.32 470.718 1107.52 470.918 1107.52 471.318C1107.92 471.318 1108.12 471.318 1108.12 471.318C1112.92 476.518 1117.92 481.718 1123.12 486.918C1128.32 492.118 1133.92 497.918 1139.92 504.318L1150.12 514.518C1150.92 516.118 1151.72 517.318 1152.52 518.118C1153.72 518.918 1154.72 519.918 1155.52 521.118C1161.12 526.318 1166.92 530.518 1172.92 533.718C1178.92 536.918 1186.12 538.718 1194.52 539.118C1194.92 539.118 1195.32 539.118 1195.72 539.118C1196.12 539.118 1196.52 539.118 1196.92 539.118C1197.32 539.118 1197.72 539.118 1198.12 539.118C1198.52 539.118 1198.92 539.118 1199.32 539.118C1200.12 539.118 1200.92 539.118 1201.72 539.118C1202.52 539.118 1203.32 539.118 1204.12 539.118C1210.12 538.718 1215.92 537.718 1221.52 536.118C1227.52 534.118 1232.92 532.118 1237.72 530.118C1242.52 528.118 1246.52 526.318 1249.72 524.718C1252.92 522.718 1254.72 521.718 1255.12 521.718L1259.32 528.918L1219.12 548.118C1215.52 550.118 1212.12 551.918 1208.92 553.518C1205.72 555.118 1202.52 556.918 1199.32 558.918C1195.32 560.918 1191.32 563.118 1187.32 565.518C1183.72 567.918 1180.12 570.118 1176.52 572.118C1169.32 575.718 1161.92 578.718 1154.32 581.118C1146.72 583.518 1138.32 584.718 1129.12 584.718C1128.72 584.718 1128.12 584.718 1127.32 584.718C1126.92 584.718 1126.52 584.718 1126.12 584.718C1125.32 584.718 1124.72 584.718 1124.32 584.718C1123.92 584.718 1123.32 584.718 1122.52 584.718C1108.92 583.918 1096.72 579.718 1085.92 572.118C1075.52 564.518 1066.12 556.318 1057.72 547.518C1056.52 545.918 1055.32 544.518 1054.12 543.318C1053.32 542.118 1052.32 540.918 1051.12 539.718C1045.92 533.718 1040.92 528.318 1036.12 523.518C1031.32 518.718 1026.72 513.918 1022.32 509.118C1022.32 509.118 1022.12 509.118 1021.72 509.118C1021.72 509.118 1021.72 508.918 1021.72 508.518C1016.92 503.718 1011.92 498.718 1006.72 493.518C1001.92 488.318 996.519 482.518 990.519 476.118C988.119 473.318 983.519 468.118 976.719 460.518C970.319 452.918 963.319 444.718 955.719 435.918C955.319 435.518 954.719 434.918 953.919 434.118C953.519 433.318 953.119 432.718 952.719 432.318C944.319 422.318 936.719 413.118 929.919 404.718C923.519 395.918 920.119 390.318 919.719 387.918C919.719 387.918 919.719 387.718 919.719 387.318C920.119 386.118 920.919 385.118 922.119 384.318C923.319 383.518 924.719 382.918 926.319 382.518C927.119 382.118 927.919 381.718 928.719 381.318C929.919 380.918 930.919 380.518 931.719 380.118L954.519 371.118C956.919 370.718 959.319 370.118 961.719 369.318C964.519 368.118 967.119 366.918 969.519 365.718C984.719 358.918 999.519 350.518 1013.92 340.518C1028.32 330.118 1040.12 319.518 1049.32 308.718C1055.32 302.318 1059.92 295.918 1063.12 289.518C1066.72 282.718 1068.52 276.518 1068.52 270.918C1068.52 269.718 1068.52 268.518 1068.52 267.318C1068.52 266.118 1068.32 265.118 1067.92 264.318C1060.72 235.118 1044.12 214.118 1018.12 201.318C992.119 188.118 963.719 180.718 932.919 179.118C931.719 179.118 930.519 179.118 929.319 179.118C928.519 179.118 927.719 178.918 926.919 178.518C925.719 178.518 924.519 178.518 923.319 178.518C922.519 178.518 921.719 178.518 920.919 178.518C918.519 178.518 916.119 178.718 913.719 179.118C911.719 179.118 909.519 179.118 907.119 179.118C903.519 179.518 899.719 180.118 895.719 180.918C892.119 181.718 888.119 182.518 883.719 183.318V182.718ZM1216.24 666.918V668.118C1222.64 662.918 1228.24 657.918 1233.04 653.118C1237.84 648.718 1242.44 644.118 1246.84 639.318C1250.04 636.118 1253.24 632.718 1256.44 629.118C1259.64 625.918 1262.64 622.718 1265.44 619.518C1269.84 614.318 1274.04 608.918 1278.04 603.318C1282.04 598.118 1286.44 592.318 1291.24 585.918C1295.24 581.118 1298.64 576.718 1301.44 572.718C1304.24 568.318 1306.84 564.118 1309.24 560.118C1309.64 559.318 1310.04 558.518 1310.44 557.718C1310.84 556.918 1311.44 556.118 1312.24 555.318C1315.44 549.718 1319.04 543.318 1323.04 536.118C1327.44 528.518 1333.04 518.718 1339.84 506.718L1384.24 430.518H1346.44L1400.44 405.318L1524.04 193.518C1518.84 193.518 1514.04 193.518 1509.64 193.518C1505.24 193.118 1500.84 192.718 1496.44 192.318C1494.84 192.318 1493.04 192.318 1491.04 192.318C1489.44 192.318 1487.64 192.318 1485.64 192.318C1483.24 192.318 1480.84 192.318 1478.44 192.318C1476.04 192.318 1473.44 192.318 1470.64 192.318C1465.04 192.318 1459.84 192.518 1455.04 192.918C1450.64 193.318 1446.24 193.718 1441.84 194.118C1437.84 194.118 1433.64 194.518 1429.24 195.318C1425.24 195.718 1420.84 196.118 1416.04 196.518C1418.04 194.518 1419.84 192.718 1421.44 191.118C1423.04 189.518 1424.64 187.918 1426.24 186.318C1428.24 184.318 1430.24 182.518 1432.24 180.918C1434.64 178.918 1437.04 177.118 1439.44 175.518C1441.44 174.318 1443.44 173.118 1445.44 171.918C1447.84 170.318 1450.44 168.718 1453.24 167.118C1457.24 164.718 1460.84 162.718 1464.04 161.118C1467.24 159.118 1470.44 157.318 1473.64 155.718C1479.24 152.918 1485.24 150.918 1491.64 149.718C1498.44 148.518 1508.04 147.918 1520.44 147.918L1602.04 148.518L1643.44 227.718L1801.24 534.918H1853.44C1857.04 535.318 1860.24 535.518 1863.04 535.518C1865.84 535.518 1868.64 535.518 1871.44 535.518C1873.84 535.118 1876.24 534.918 1878.64 534.918C1881.44 534.518 1884.24 534.118 1887.04 533.718C1889.44 533.318 1891.64 532.918 1893.64 532.518C1895.64 532.118 1897.84 531.518 1900.24 530.718C1902.24 530.318 1904.24 529.918 1906.24 529.518C1908.24 528.718 1910.44 527.918 1912.84 527.118C1908.04 532.718 1902.84 537.918 1897.24 542.718C1891.64 547.118 1885.84 551.318 1879.84 555.318C1871.44 560.918 1863.24 565.718 1855.24 569.718C1847.64 573.318 1841.44 576.318 1836.64 578.718C1832.24 580.718 1826.04 582.118 1818.04 582.918C1810.44 583.718 1802.04 584.118 1792.84 584.118C1791.64 584.118 1790.44 584.118 1789.24 584.118C1788.44 584.118 1787.44 584.118 1786.24 584.118C1779.44 584.118 1772.64 583.918 1765.84 583.518C1759.04 583.118 1753.04 582.718 1747.84 582.318C1743.04 581.918 1739.04 581.518 1735.84 581.118C1732.64 580.718 1730.84 580.518 1730.44 580.518L1650.04 429.318L1429.24 426.318L1363.24 532.518C1360.84 536.918 1358.24 541.118 1355.44 545.118C1353.04 548.718 1350.44 552.518 1347.64 556.518C1342.04 564.118 1335.84 571.718 1329.04 579.318C1322.24 586.918 1314.64 594.718 1306.24 602.718C1300.64 607.918 1295.24 612.718 1290.04 617.118C1285.24 621.518 1280.44 625.718 1275.64 629.718C1270.04 634.518 1264.24 638.918 1258.24 642.918C1252.24 647.318 1245.64 651.518 1238.44 655.518C1235.24 657.118 1231.84 658.918 1228.24 660.918C1224.64 662.918 1220.84 664.918 1216.84 666.918H1216.24ZM1450.84 393.918L1633.24 394.518L1549.84 236.118L1450.84 393.918Z" fill="#C5C29E"/>
</svg>
