<svg width="261" height="176" viewBox="0 0 261 176" fill="none" xmlns="http://www.w3.org/2000/svg">
<path d="M54.877 127.657C54.9149 127.685 54.9339 127.714 54.9623 127.742C55.0002 127.78 55.1991 127.95 55.1991 127.95C55.976 128.614 57.7097 129.731 60.6656 129.731C62.1245 129.731 64.0098 129.438 66.2551 128.462C66.2077 128.329 66.1793 128.197 66.2551 128.045L66.3025 127.95L66.3309 128.045C66.3688 128.159 66.3688 128.282 66.3878 128.396C68.7562 127.344 71.5131 125.544 74.5826 122.541C75.5584 121.584 76.5911 120.4 77.6332 119.054C77.6237 118.95 77.6237 118.846 77.6143 118.742C77.6048 118.581 77.5764 118.41 77.5669 118.249C77.5953 118.221 77.6143 118.183 77.6427 118.145C77.6616 118.344 77.69 118.533 77.6995 118.732C77.709 118.808 77.709 118.884 77.709 118.96C78.1069 118.448 78.5048 117.908 78.9027 117.349C78.9785 118.05 79.149 119.045 79.4806 120.106C80.5132 122.863 81.8585 124.492 81.8585 124.492L88.225 130.868C88.3481 131.01 88.4808 131.153 88.6513 131.304L88.7839 131.427C88.8881 131.522 89.7029 132.233 89.9018 132.365C90.4608 132.744 91.1429 133.076 92.005 133.36C92.2987 133.455 95.1693 133.9 96.7893 133.701C97.0641 133.692 99.3946 133.417 100.257 133.284L101.507 133.104C101.507 133.104 105.647 132.27 105.78 132.233C106.945 131.939 107.116 131.892 107.675 131.721L108.253 131.55C108.253 131.55 112.497 130.414 112.829 130.347C118.465 129.04 124.993 127.988 133.519 127.638C133.529 127.6 137.622 127.515 139.744 127.515C139.943 127.515 140.151 127.515 140.36 127.515C140.36 127.496 140.483 127.515 140.483 127.515C142.093 127.534 145.608 127.704 146.025 127.789C148.696 128.045 151.169 128.49 152.344 129.258C152.344 129.258 155.878 133.436 156.768 134.146C157.649 134.857 158.748 135.217 159.715 135.331C159.809 135.34 160.008 135.34 160.008 135.34C160.88 135.34 161.78 134.819 162.661 133.966C167.227 128.879 170.43 119.831 171.074 117.482C171.5 116.089 171.604 115.085 171.557 114.507C171.443 113.238 169.908 109.742 169.908 109.742C170.287 110.111 177.668 116.203 177.81 116.345C178.738 117.254 179.932 117.728 181.249 117.728C181.324 117.728 181.4 117.728 181.476 117.728C184.555 117.605 188.326 115.009 192.702 110.026C193.764 108.823 194.787 107.383 195.734 105.772C195.734 105.772 196.862 103.754 197.288 102.883C197.582 102.835 198.254 102.712 198.254 102.712C203.588 101.632 209.831 98.0699 214.369 93.3993C219.172 88.4539 222.071 81.6896 221.929 75.7401C221.91 75.1243 221.854 74.5369 221.778 73.9684C221.787 73.9684 221.768 73.8737 221.768 73.8737C221.427 71.6284 220.565 69.8 219.229 68.5494C219.191 68.5115 218.339 67.6873 218.339 67.6873L212.645 61.9935C212.541 61.8798 212.437 61.7567 212.323 61.6524C212.294 61.624 212.257 61.5956 212.219 61.5672L212.086 61.4061L212.067 61.4156C209.689 59.4071 206.26 59.104 202.366 59.445C201.191 59.5872 197.563 60.0798 195.118 60.5061C194.72 60.5724 194.313 60.6482 193.906 60.7145L190.741 57.4271C190.533 57.1429 189.785 56.4987 189.642 56.385C189.595 56.3471 189.548 56.3092 189.491 56.2808C189.273 56.1387 188.989 55.9587 188.714 55.826C188.259 55.5797 187.729 55.3808 187.075 55.125C186.412 54.8597 184.754 54.4618 183.996 54.3576C183.077 54.225 182.3 54.2155 181.874 54.2439C181.845 54.2439 181.817 54.2534 181.789 54.2534C181.144 54.3386 180.709 54.4618 180.387 54.6608C180.33 54.6892 180.282 54.7271 180.235 54.765C180.169 54.8029 180.102 54.8408 180.036 54.8787C179.932 54.9544 179.818 55.0492 179.685 55.1629L179.581 55.2576C179.231 55.5892 179.003 55.9492 178.852 56.4039L177.459 55.0113C176.701 54.2439 175.593 53.8839 174.475 54.045C173.812 54.1965 173.328 54.3955 173.139 54.4902C172.618 54.746 172.248 55.0492 172.002 55.2671C171.557 55.6745 171.206 56.0724 170.884 56.546C170.572 57.0008 170.316 57.4555 170.06 58.0334C169.795 58.6398 169.511 59.3977 169.359 60.4303C169.349 60.4872 169.34 60.5535 169.331 60.6103C169.274 61.1124 169.245 61.8988 169.416 62.7609C169.416 62.7609 163.769 56.9818 163.201 56.5366C162.831 56.2429 162.339 56.0345 161.846 55.9302C160.378 55.6555 159.26 56.4797 158.89 56.7545C158.834 56.8018 158.777 56.8587 158.72 56.8966C156.759 58.3177 155.006 62.4483 154.911 62.6567C154.911 62.6567 154.447 63.8314 154.39 64.002C154.153 64.6841 153.756 65.8304 153.49 67.0431C153.348 67.6778 153.234 68.3031 153.168 68.8715C152.818 68.5494 152.41 68.2936 151.965 68.1231C151.776 67.9526 151.548 67.8294 151.283 67.7631C151.198 67.7347 151.046 67.6968 150.961 67.6873C150.866 67.6683 150.771 67.6589 150.677 67.6683H150.572C148.791 67.5736 147.247 68.2462 146.091 68.8526C146.063 68.8715 146.034 68.881 146.006 68.8999C145.049 69.4778 144.177 70.1221 143.259 70.9558C143.154 71.0126 143.06 71.0789 142.965 71.1547C142.88 71.221 142.804 71.2968 142.719 71.3631C142.595 71.4389 142.482 71.5242 142.377 71.6284L141.686 72.3295C141.657 72.3579 141.638 72.3863 141.61 72.4147L141.004 73.1158C140.985 73.1347 140.966 73.1632 140.947 73.1821L138.588 70.8231C139.09 70.1979 139.744 69.3736 140.89 67.7441C141.222 67.2515 142.207 65.6409 142.254 65.442C148.024 56.205 146.47 51.487 144.073 49.1375C144.064 49.128 137.659 42.6479 137.659 42.6479L136.902 42.0037C135.992 41.2837 134.827 41.1132 133.652 41.5679C130.744 42.6858 127.551 47.868 125.173 52.5481C125.097 51.9702 124.974 51.4112 124.794 50.9091C124.775 50.8049 124.756 50.7007 124.718 50.6059C124.699 50.5396 124.671 50.4828 124.642 50.4259L124.358 49.8386C124.339 49.8007 124.32 49.7628 124.301 49.7249C124.216 49.5733 124.112 49.4312 124.027 49.2986L123.979 49.2322C123.733 48.8249 123.468 48.5406 123.278 48.3322L123.25 48.3038C122.994 47.9722 116.845 42.0037 116.845 42.0037C116.675 41.7763 116.504 41.5774 116.381 41.4353L116.353 41.4068C115.718 40.6395 114.828 40.1658 114.013 40.1658H114.003C113.103 40.1374 112.421 40.4689 111.957 40.7247C111.398 41.0563 110.848 41.5016 110.299 42.0795C109.702 42.6763 109.124 43.3395 108.48 44.1827C108.357 44.3437 108.272 44.5237 108.215 44.7037C108.12 44.8459 108.016 45.0069 107.902 45.168C107.845 45.2153 107.788 45.2627 107.732 45.3195C107.646 45.4048 107.58 45.4995 107.514 45.6038L107.211 46.0964C107.182 46.1343 107.154 46.1627 107.125 46.2006C107.012 46.3522 106.898 46.5511 106.547 47.1575L106.159 47.7164C106.093 47.8206 106.026 47.9249 105.979 48.0385L105.951 48.0954C105.259 49.2607 103.705 52.3112 103.705 52.2639C103.241 53.2586 98.1346 65.982 98.0209 66.3325L96.1546 64.4662C94.4872 63.0451 92.905 62.9598 92.2798 63.0451C90.3945 63.0925 88.6039 64.7978 88.4997 64.9304C87.7323 63.822 86.8513 62.8083 85.8565 61.8988L79.9069 55.9492C79.6417 55.665 79.4427 55.4566 79.0732 55.1155C78.7037 54.7744 77.0648 53.4576 75.4732 52.8702C74.81 52.586 74.0047 52.406 73.2089 52.2923C72.6215 52.2449 71.551 52.0933 70.111 52.1881C64.3793 52.6144 57.6623 56.2997 51.9117 62.2209C49.3159 64.8925 46.7011 68.3599 44.5505 71.9316C44.5505 71.9316 42.3526 75.6358 42.2389 75.8727C41.3105 77.7864 40.6568 79.3685 40.041 81.197C39.7378 82.1444 39.4441 83.0918 39.2073 84.1623C39.2168 84.1528 39.1315 84.5034 39.122 84.5602C38.942 85.5265 38.7904 86.5971 38.7147 87.8476C38.7052 87.9992 38.7147 88.1413 38.7336 88.2929C38.7241 88.7666 38.7241 89.0319 38.7336 89.3445L38.7431 89.6098C38.7431 89.6666 38.7525 89.714 38.7525 89.7613C38.762 89.8656 38.781 90.0171 38.8283 90.1877C38.9231 91.154 39.122 92.0635 39.4062 92.8688C39.7947 93.9961 40.3726 95.0762 41.0073 95.8909C41.1968 96.1372 41.3863 96.3551 41.5663 96.5541L41.7842 96.8004C41.8221 96.8383 41.8505 96.8762 41.8884 96.9141C41.8884 96.9141 42.4852 97.4541 42.7031 97.6815L45.4885 100.467L48.4159 103.394C48.4253 103.413 48.4443 103.432 48.4632 103.442L48.6811 103.688C48.719 103.726 48.7475 103.764 48.7854 103.802L49.278 104.275C49.3254 104.323 49.3822 104.37 49.4296 104.408C49.4959 104.455 50.2254 104.995 50.4054 105.09L50.5191 105.175C50.5475 105.194 50.5759 105.213 50.6043 105.232L51.0496 105.516C51.1064 105.554 51.1728 105.592 51.2391 105.621L51.618 105.801C51.7317 105.857 52.5559 106.284 52.698 106.341C53.0959 106.492 53.7686 106.729 54.536 106.909C54.4886 107.278 54.4412 107.695 54.3844 108.216C54.3749 108.264 54.3654 108.311 54.3654 108.349L54.3465 108.51L53.8728 108.036C53.7023 107.837 53.4939 107.648 53.2665 107.487C52.5086 106.985 51.4949 106.89 50.5475 107.165C50.5285 107.174 50.4717 107.203 50.3391 107.241C49.8559 107.411 49.4011 107.657 49.0032 108.008C48.5864 108.377 48.1601 108.908 47.7716 109.476C47.5916 109.751 46.8053 111.077 46.559 111.655C46.5211 111.75 46.4832 111.835 46.4643 111.94C45.0906 115.208 45.5642 118.154 47.7811 120.513L47.7716 120.532L48.018 120.779C48.0369 120.798 48.0464 120.817 48.0653 120.826C48.0748 120.836 48.1032 120.854 48.1127 120.873L51.0401 123.801M39.2262 84.1433C39.2073 84.2191 39.1505 84.4844 39.141 84.5413C38.942 85.5265 38.7904 86.5971 38.7147 87.8476M105.951 48.1049C105.259 49.2701 103.857 51.866 103.705 52.2733C103.241 53.2681 100.854 57.9482 98.0209 66.342M161.846 55.9492C160.378 55.6934 159.26 56.4987 158.89 56.7734Z" fill="#151411"/>
<path d="M211.53 62.9104C207.059 58.7324 196.372 62.7493 187.239 63.403C188.859 60.6367 189.703 58.6566 189.125 58.0882C187.827 56.8282 182.247 55.265 181.157 56.6577C180.939 56.9324 180.854 57.2829 181.081 57.5008C181.546 57.0366 182.019 57.9745 181.669 58.6282C181.375 59.1872 181.129 59.7746 180.845 60.3335C180.466 61.082 180.068 61.8304 179.67 62.5788C179.641 62.6357 179.613 62.6925 179.575 62.7493C178.325 62.342 177.169 61.7451 176.174 60.8925C174.156 59.1682 174.658 57.804 175.018 57.4724C175.445 57.084 175.757 56.9229 176.079 57.2261C176.392 57.5198 176.183 57.9272 176.183 57.9272C176.183 57.9272 177.235 57.2924 176.572 56.4587C175.937 55.6629 174.45 55.5587 173.123 57.0935C171.797 58.6282 170.243 62.5504 172.896 64.7673C174.232 65.8852 175.653 66.7094 177.131 67.3063C176.951 67.6379 176.78 67.96 176.6 68.2915C176.013 69.381 175.435 70.48 174.867 71.579C174.27 72.7253 173.682 73.8716 173.095 75.018C172.508 76.1833 171.939 77.3485 171.371 78.5138C170.821 79.6602 170.291 80.816 169.779 81.9718C169.296 83.0707 168.822 84.1792 168.386 85.2971C168.188 86.1024 159.604 93.9941 158.155 92.6677C156.705 91.3414 171.721 74.2601 169.372 71.9769C167.572 70.2337 162.92 71.7779 160.087 71.9484C162.75 66.2357 164.654 60.3146 162.437 58.1545C159.614 55.4071 153.285 69.8832 156.061 72.5832C156.601 73.1137 157.302 73.379 158.06 73.4832C155.426 78.5991 151.94 84.3497 151.883 84.4445C150.879 85.7992 149.609 87.4098 148.378 88.6793C145.924 91.2088 142.722 92.6299 142.04 91.9572C139.7 89.6835 143.357 83.175 143.357 83.175C149.808 80.1339 155.36 73.0569 152.404 70.1863C150.727 68.5568 146.947 69.9589 143.347 73.6916C137.426 79.8307 136.09 90.3277 139.074 93.2362C142.068 96.1446 146.53 93.113 149.941 89.0772C151.514 87.2108 153.787 83.5823 153.787 83.5823V83.5255C154.943 81.6497 157.264 77.7749 159.339 73.5495C161.177 73.4737 162.967 72.839 163.214 73.0379C163.725 73.4548 151.447 90.6214 155.853 94.9036C157.738 96.7415 164.559 90.5646 167.553 87.6845C167.468 87.9214 167.382 88.1677 167.306 88.4045C167.013 89.314 166.757 90.2424 166.558 91.1804C166.397 91.9572 166.274 92.7435 166.255 93.5299C166.236 94.1457 166.274 94.7709 166.463 95.3678C166.596 95.7657 166.795 96.1446 167.098 96.4289C168.491 97.7836 170.897 97.092 173.133 95.9078C171.039 100.702 169.893 105.713 172.489 108.243C175.132 110.81 180.001 107.627 184.918 102.018C186.68 100.01 188.329 97.3099 189.646 94.4204C194.676 93.9846 201.621 90.4982 206.651 85.3255C213.984 77.7559 215.585 66.6999 211.53 62.9104ZM150.595 73.8622C149.78 78.4759 143.859 82.2181 143.859 82.2181C146.976 76.5338 150.595 73.8622 150.595 73.8622ZM158.107 71.5979C156.904 70.5274 159.244 64.1988 160.798 65.7715C161.338 66.3115 160.343 68.86 158.846 71.9106C158.553 71.8537 158.297 71.759 158.107 71.5979ZM188.376 92.9804C188.045 92.8762 187.742 92.7341 187.533 92.5162C184.956 89.873 188.386 83.7434 189.381 84.776C190.356 85.7992 189.703 89.314 188.376 92.9804ZM190.205 93.0941C192.763 86.8982 193.71 80.1812 190.982 77.5191C187.533 74.1653 178.808 87.6371 184.435 93.113C185.25 93.8993 186.425 94.3162 187.827 94.4299C186.68 97.2531 185.212 99.991 183.857 101.545C181.119 104.7 176.468 108.101 174.8 106.395C173.133 104.69 174.383 101.052 176.998 97.8594C179.101 95.292 181.138 92.3172 181.792 89.0014C182.01 87.8929 182.057 86.7371 181.811 85.6287C181.697 85.0887 181.025 82.6255 180.144 83.0707C180.475 83.4781 180.115 84.0181 179.831 84.3308C179.518 84.6718 176.278 89.2193 173.796 94.3825C172.242 95.4815 170.603 96.211 169.656 95.3109C167.06 92.8477 177.245 78.8265 183.914 68.6894C194.307 69.0021 205.259 62.8536 208.991 66.5484C214.126 71.6169 209.029 80.4844 205.846 83.7908C200.806 89.0298 194.089 92.6677 190.205 93.0941Z" fill="white"/>
<path d="M129.016 93.5127C133.118 89.0221 141.465 75.1809 136.017 69.7334C131.261 64.9681 121.532 84.92 121.532 84.92C121.532 84.92 122.915 75.0103 127.936 65.9912C127.936 65.9912 142.886 49.9141 136.33 43.5003C131.83 39.095 118.358 68.9944 117.411 83.7736C115.308 86.8716 112.124 91.0969 111.044 90.159C108.695 88.1032 117.818 73.665 115.611 71.5145C115.251 71.1639 114.152 70.8134 112.589 70.7471C112.532 70.7471 112.494 70.7566 112.437 70.7566C110.817 70.6808 109.159 71.0029 108.704 71.8934C108.543 72.2061 108.524 72.5661 108.79 72.7366C109.159 72.1966 109.765 72.9356 109.585 73.7219C109.443 74.3377 108.543 77.9851 108.543 77.9851C107.719 81.0925 106.734 85.0431 106.573 88.2737C104.858 90.7274 102.518 93.5317 101.409 92.4517C96.6725 87.8474 106.573 65.1386 106.573 65.1386C106.573 65.1386 122.138 49.2983 115.004 42.3729C111.148 38.6023 97.4114 66.9197 96.5967 83.8968C95.1093 86.3505 90.6376 93.437 89.3397 92.1675C87.6344 90.5095 96.7672 74.5556 94.1808 72.8029C93.4135 72.2913 92.324 72.1208 91.4334 72.1587C91.3197 72.1587 91.2061 72.1492 91.0829 72.1492C89.5102 72.1019 87.9471 72.4334 87.5113 73.2956C87.3502 73.6082 87.3313 73.9682 87.5965 74.1387C87.966 73.5987 88.506 74.3945 88.3923 75.124C88.2881 75.7967 87.7576 78.4778 87.5207 79.4536C86.1849 84.9105 84.0628 92.6885 86.1281 94.697C88.7808 97.2833 94.7682 88.5485 96.5493 85.7821C96.5967 89.5811 97.4114 92.6506 99.3062 94.4222C101.021 96.0233 104.233 92.679 106.563 89.6758C106.629 91.3243 106.989 92.6885 107.814 93.4938C109.718 95.3412 114.569 89.1832 117.344 85.2894C117.335 87.8379 117.799 89.799 118.87 90.8411C120.518 91.8643 128.751 70.6618 131.546 73.4661C133.497 75.4272 128.722 87.4684 124.27 93.7306C119.287 91.258 112.579 97.3875 116.037 100.969C116.132 101.073 116.245 101.168 116.359 101.253C117.875 102.399 119.931 101.338 121.304 100.467C122.441 99.7465 123.483 98.8939 124.488 98.0128C125.066 97.5012 126.032 96.6296 126.591 96.0896C126.591 96.0896 126.904 96.2223 127.169 96.5444C127.387 96.8191 127.548 97.2644 127.548 97.2644C127.548 97.2644 127.775 96.7623 127.188 95.9096L126.989 95.6633C127.084 95.5496 127.33 95.3033 127.434 95.1991C127.965 94.6496 128.495 94.0812 129.016 93.5127ZM136.15 49.7057C136.235 54.4805 128.997 63.7365 128.997 63.7365C131.934 57.8342 136.15 49.7057 136.15 49.7057ZM114.341 50.4636C113.545 55.9963 108.183 62.107 108.183 62.107C110.893 55.191 114.341 50.4636 114.341 50.4636ZM119.144 97.4065C118.69 96.9612 119.031 96.3265 119.703 95.7201C121.522 94.0622 123.682 94.6496 123.682 94.6496C121.949 96.9233 120.111 98.3444 119.144 97.4065Z" fill="white"/>
<path d="M53.7938 63.6992C45.8641 71.8562 36.8829 88.5302 43.8557 95.3135C47.4084 98.7619 52.9506 98.6956 58.398 96.2798C57.6686 103.65 56.7685 110.311 56.7685 110.311C58.4833 108.558 60.937 101.339 62.8697 93.7408C64.4613 92.6324 65.9866 91.3439 67.3982 89.8944C68.9993 88.246 69.6624 86.6923 69.833 85.3375C70.2119 83.2438 69.7951 81.9364 69.1603 81.1974C68.7056 80.6574 68.0993 80.2974 67.6445 80.7806C67.4835 80.9511 67.4835 81.2069 67.4835 81.2069C67.4835 81.2069 67.8814 80.9322 68.3361 81.5385C68.8477 82.2206 68.4498 83.3385 68.2129 83.8691C67.4456 85.1954 66.0245 86.607 64.2245 87.9333C65.7308 80.8848 66.4792 74.6889 65.4182 73.6562C64.6034 72.8699 63.2202 73.0026 61.7897 73.4952C59.8286 74.0447 58.0286 74.9542 57.4885 75.7594C57.2233 76.1573 57.1285 76.6405 57.4507 77.0384C57.8391 76.4321 58.7107 77.0858 58.9191 78.0616C59.1844 79.2553 59.2886 81.9743 59.2886 83.1206C59.2507 85.4322 59.0802 88.1891 58.8528 91.0597C53.5285 93.4945 47.5031 94.5366 44.6704 91.7987C41.3356 88.5681 46.3757 73.9594 53.1874 66.9582C60.5012 59.436 67.5024 56.3002 71.9172 60.5918C81.4858 69.8857 74.1625 101.235 63.3339 112.376C58.2465 117.615 53.5948 118.013 51.9748 116.44C51.1411 115.635 50.7621 114.716 50.6674 113.769C50.6105 112.954 50.6579 111.58 51.5011 110.424C51.9748 109.771 52.5716 110.254 52.5716 110.254C52.5716 110.254 52.9979 109.704 52.42 109.316C51.9369 108.994 51.179 109.268 50.7526 109.647C50.1653 110.168 49.3126 111.438 48.8484 112.546L48.8674 112.565C47.8726 114.782 47.6736 117.217 49.8811 119.358C51.5484 120.978 57.6307 122.911 66.5455 114.176C77.3078 103.622 92.1249 69.6109 77.8289 56.556C72.2677 51.4496 61.8465 55.4191 53.7938 63.6992Z" fill="white"/>
<path d="M152.239 103.049C121.592 100.103 98.5796 111.329 88.6131 110.363C85.392 110.05 85.6478 108.032 85.7331 107.199C85.7709 106.772 86.0741 106.166 86.491 106.204C86.7941 106.232 86.8699 106.498 86.9647 106.498C87.1257 106.498 87.1825 106.289 87.1825 106.128C87.1825 105.891 86.6899 105.332 85.9036 105.332C81.7351 105.332 81.1098 114.569 81.2424 116.796C81.3182 118.037 81.8961 124.147 87.2299 124.659C99.3185 125.824 112.402 115.735 146.555 119.022C152.164 119.837 156.162 121.135 155.925 123.588C155.821 124.668 155.29 124.829 154.939 124.801C154.513 124.763 154.144 124.337 154.144 124.337C153.803 124.308 154.182 126.165 155.925 126.355C160.548 126.658 163.665 116.331 163.94 113.499C164.47 107.824 160.112 103.807 152.239 103.049ZM101.336 119.534C101.289 119.638 101.185 119.714 101.033 119.742C100.38 119.856 99.1291 120.377 98.1722 120.831C98.049 120.888 97.9069 120.945 97.7554 120.945C97.6132 120.945 97.4711 120.898 97.3196 120.765C97.2059 120.68 97.1111 120.547 97.0164 120.415C96.9785 120.367 96.9501 120.32 96.9122 120.282C96.6753 119.979 96.6659 119.704 96.7322 119.316C97.0543 117.487 97.9354 114.768 98.6838 112.921C98.4375 112.807 98.2385 112.599 98.0869 112.286L98.0775 112.277C98.0206 112.144 98.0206 112.021 98.0775 111.926C98.1343 111.822 98.2385 111.765 98.3901 111.756C99.0438 111.67 99.8207 111.405 100.512 111.159C100.986 110.998 101.384 110.846 101.706 110.789C102.341 110.657 102.805 110.846 103.118 111.377C103.193 111.509 103.203 111.651 103.146 111.756C103.108 111.822 103.013 111.936 102.805 111.936C102.123 112.059 101.45 112.314 100.796 112.57C100.616 112.637 100.446 112.703 100.275 112.769C99.9343 113.584 99.5554 114.673 99.1859 115.782C99.3849 115.725 99.5649 115.678 99.707 115.64C100.446 115.469 100.92 115.64 101.204 116.161C101.232 116.218 101.318 116.379 101.242 116.53C101.194 116.635 101.09 116.701 100.939 116.729C100.114 116.881 99.0627 117.326 98.6364 117.516C98.4469 118.141 98.2764 118.738 98.1438 119.259C98.6743 119.012 99.3091 118.766 99.7733 118.652C100.503 118.482 101.005 118.652 101.308 119.145C101.318 119.211 101.412 119.372 101.336 119.534ZM108.347 112.892C108.148 113.271 107.921 113.821 107.656 114.541C107.637 114.598 107.57 114.778 107.39 114.835C107.267 114.872 107.134 114.844 107.002 114.74C106.737 114.55 106.32 114.086 106.557 113.177C106.623 112.921 106.765 112.608 106.907 112.286C107.059 111.954 107.362 111.263 107.286 111.121C107.21 111.102 106.793 111.244 106.13 111.822C105.164 112.646 104.179 113.953 104.292 114.872C104.349 115.412 105.42 115.82 106.197 116.123C106.5 116.237 106.774 116.35 106.992 116.455C107.277 116.597 107.466 116.815 107.551 117.089C107.665 117.478 107.551 117.97 107.22 118.51C106.869 119.069 106.168 119.477 105.353 119.6C105.202 119.619 105.022 119.638 104.813 119.638C104.008 119.638 102.824 119.391 101.535 118.264C101.384 118.141 101.318 117.999 101.336 117.857C101.346 117.781 101.384 117.648 101.564 117.554C102.066 117.307 102.729 117.336 103.222 117.62C103.686 117.885 104.775 118.501 105.628 118.359C105.931 118.311 106.168 118.198 106.301 118.056C106.329 117.999 106.348 117.923 106.339 117.857C106.32 117.79 106.282 117.743 106.215 117.696C106.017 117.582 105.723 117.459 105.382 117.307C104.349 116.881 102.938 116.293 102.748 115.109C102.416 113.044 104.501 110.998 105.562 110.325C106.395 109.804 107.059 109.728 107.589 110.069C107.997 110.334 108.357 110.78 108.546 111.216C108.726 111.708 108.66 112.258 108.347 112.892ZM113.169 117.762C113.046 118.217 112.677 118.539 112.298 118.539C112.25 118.539 112.212 118.539 112.165 118.529C111.995 118.491 111.843 118.387 111.748 118.217C111.616 117.999 111.587 117.705 111.672 117.43C111.824 116.919 112.25 116.597 112.667 116.682C112.838 116.72 112.989 116.824 113.084 116.976C113.217 117.175 113.245 117.468 113.169 117.762ZM115.13 110.031C115.092 110.098 114.998 110.211 114.789 110.221C114.192 110.24 113.472 110.448 112.724 110.675C112.743 111.073 112.648 111.547 112.43 112.116C112.307 112.428 112.175 112.76 112.042 113.11C111.473 114.541 110.772 116.322 110.185 118.463C110.147 118.605 110.071 118.7 109.958 118.747C109.92 118.757 109.891 118.766 109.853 118.766C109.768 118.766 109.683 118.728 109.598 118.662C109.465 118.577 109.029 118.188 109.152 117.212C109.304 116.142 110.223 113.309 111.208 111.13C111.095 111.159 110.981 111.187 110.858 111.206H110.848C109.929 111.367 109.181 111.092 108.916 110.505C108.83 110.334 108.878 110.202 108.916 110.145C108.953 110.079 109.048 109.974 109.247 109.974C109.939 109.937 110.962 109.643 111.871 109.387C112.544 109.198 113.122 109.037 113.472 108.999C114.278 108.904 114.818 109.112 115.111 109.643C115.187 109.785 115.187 109.927 115.13 110.031ZM127.958 110.988C127.57 111.945 126.148 113.868 124.112 115.469C124.301 115.431 124.472 115.403 124.633 115.384C125.646 115.28 126.025 115.782 126.158 116.085C126.186 116.151 126.253 116.312 126.167 116.464C126.111 116.568 125.997 116.625 125.845 116.635C125.049 116.672 123.297 117.156 122.539 117.449C122.397 117.506 122.236 117.554 122.075 117.554C121.914 117.554 121.753 117.506 121.592 117.355C121.412 117.184 121.25 116.966 121.146 116.729C120.938 116.322 121.08 116.104 121.393 115.867C124.32 113.773 126.868 110.818 126.963 109.425C126.973 109.217 126.935 109.065 126.831 108.97C126.755 108.894 126.67 108.866 126.575 108.885C126.148 108.951 125.514 109.785 125.078 110.581C124.699 111.282 124.311 111.718 123.572 111.746C123.477 111.746 123.316 111.746 123.221 111.623C123.117 111.49 123.155 111.339 123.183 111.244C123.363 110.552 124.102 108.913 125.239 108.212C125.997 107.739 126.925 107.777 127.541 108.307C128.271 108.932 128.413 109.832 127.958 110.988ZM134.58 113.158C133.604 115.431 132.212 116.71 130.753 116.71C130.525 116.71 130.307 116.682 130.08 116.616C128.991 116.312 128.299 115.375 128.223 114.096C128.034 111.036 130.45 108.298 131.861 107.625C132.61 107.265 133.377 107.303 133.86 107.729C134.353 107.9 134.713 108.25 134.95 108.762C135.528 110.041 135.111 111.926 134.58 113.158ZM138.057 116.54C137.792 116.54 137.517 116.492 137.252 116.407C136.181 116.047 135.547 115.071 135.547 113.792C135.528 110.732 138.095 108.137 139.535 107.54C140.302 107.227 141.06 107.303 141.525 107.758C142.008 107.957 142.349 108.326 142.557 108.847C143.059 110.145 142.538 112.002 141.941 113.205C140.871 115.346 139.469 116.54 138.057 116.54ZM150.942 109.273C150.828 109.406 150.657 109.387 150.591 109.387C149.795 109.311 149.113 109.378 148.459 109.434C148.147 109.463 147.853 109.491 147.569 109.501C147.521 109.501 147.474 109.501 147.436 109.501C147.057 109.965 146.688 110.448 146.309 110.931C146.318 110.931 146.328 110.931 146.337 110.931C146.915 110.931 147.446 111.149 147.758 111.424C148.308 111.926 148.999 113.091 147.446 115.195C146.64 116.293 145.589 116.758 144.641 116.758C144.12 116.758 143.628 116.616 143.239 116.36C142.254 115.725 142.226 114.569 142.614 113.773C142.898 113.177 143.429 112.845 144.054 112.845C144.158 112.826 144.3 112.911 144.357 113.025C144.424 113.148 144.395 113.3 144.3 113.432C143.846 114.001 143.609 114.692 143.675 115.185C143.694 115.308 143.741 115.479 143.874 115.573C143.997 115.668 144.168 115.697 144.386 115.659C144.982 115.564 145.788 114.977 146.299 114.266C146.887 113.432 147.076 112.674 147.01 112.296C147 112.22 146.962 112.125 146.896 112.087C146.574 111.869 145.778 112.116 145.153 112.807C145.077 112.883 144.973 112.997 144.812 112.978C144.641 112.968 144.547 112.836 144.509 112.779C144.31 112.504 144.054 111.907 144.594 110.988C144.954 110.382 145.475 109.633 146.11 108.8C146.044 108.686 145.996 108.563 145.968 108.421C145.93 108.25 145.996 108.146 146.034 108.099C146.091 108.032 146.205 107.957 146.404 107.975C147.171 108.07 147.938 108.004 148.62 107.957C149.066 107.919 149.454 107.89 149.757 107.909C150.411 107.957 150.856 108.317 151.008 108.932C151.017 108.98 151.055 109.141 150.942 109.273Z" fill="white"/>
<path d="M141.05 108.48C141.012 108.47 140.974 108.461 140.917 108.461C140.358 108.461 138.975 109.295 137.857 111.18C136.929 112.734 136.787 114.249 137.042 114.998C137.099 115.168 137.213 115.396 137.421 115.481C138.113 115.765 139.572 114.685 140.557 112.696C141.438 110.924 141.561 109.427 141.296 108.783C141.249 108.669 141.173 108.527 141.05 108.48Z" fill="white"/>
<path d="M133.431 108.486C133.403 108.477 133.365 108.477 133.327 108.477C132.787 108.477 131.423 109.386 130.39 111.366C129.556 112.977 129.49 114.492 129.784 115.231C129.85 115.402 129.983 115.62 130.182 115.686C130.892 115.932 132.285 114.777 133.156 112.73C133.943 110.911 133.971 109.405 133.677 108.78C133.64 108.657 133.554 108.524 133.431 108.486Z" fill="white"/>
</svg>
