<svg width="261" height="176" viewBox="0 0 261 176" fill="none" xmlns="http://www.w3.org/2000/svg">
<path fill-rule="evenodd" clip-rule="evenodd" d="M76.6289 73.9758C78.8477 57.4937 97.4736 30.1637 137.516 49.105C144.46 49.8112 159.045 55.0586 165.691 67.5701C166.23 60.8005 163.455 45.239 147.567 35.7109C159.312 37.7672 181.629 50.7577 176.787 81.6273C175.848 86.59 172.468 94.9315 172.103 96.3492C171.439 98.9337 168.865 115.018 154.51 124.824C160.799 125.245 175.576 121.957 184.371 105.439C183.738 123.258 158.931 147.635 126.123 131.434C125.876 131.313 125.606 131.246 125.331 131.238C116.723 130.986 97.2305 122.939 93.116 105.439C91.9746 113.872 91.3423 129.045 106.273 140.288C96.9065 138.026 80.0191 126.605 81.9457 103.035C82.726 97.2353 83.9245 89.3615 89.7021 80.7601C90.6311 79.3772 91.2223 77.7946 91.6654 76.1888C93.3033 70.252 98.8106 61.121 109.596 54.4676C102.91 53.8374 87.3244 55.2857 76.6289 73.9758ZM102.457 90.3102C102.459 68.8974 121.936 61.6519 130.526 61.7991C141.735 61.9911 158.657 70.5021 158.657 90.3102C158.657 105.566 144.854 117.965 130.526 118.11C117.153 118.245 102.456 106.631 102.457 90.3102Z" fill="white"/>
<path fill-rule="evenodd" clip-rule="evenodd" d="M110.426 72.8259V106.635H123.15C124.817 106.635 126.539 106.526 127.958 105.651C128.742 105.167 129.506 104.511 130.008 103.666C130.505 102.83 130.526 101.816 130.526 100.843V90.3138V78.3217C130.323 76.8308 128.526 73.5346 124.784 73.1254C121.042 72.7161 113.804 72.8259 110.426 72.8259ZM119.151 100.65V78.7101C121.665 78.7101 121.728 79.8696 121.728 80.4703V99.33C121.728 100.937 119.779 100.839 119.151 100.65Z" fill="white"/>
<path d="M133.516 94.3957H141.734C141.734 94.3957 141.747 95.6722 141.734 97.3335C141.711 100.294 141.742 101.41 143.214 101.481C145.062 101.571 145.059 98.5508 144.706 96.4243C144.587 95.7135 144.227 95.0695 143.67 94.6119C141.222 92.6005 136.244 89.8076 134.899 88.0835C133.314 86.0516 132.367 79.7124 134.159 75.9346C135.592 72.9123 140.792 72.0752 143.213 72.0346C145.918 71.9649 151.588 72.9486 152.425 77.7233L152.659 83.2046H144.33V78.6775C144.1 78.1947 143.005 77.5755 142.174 78.2797C141.771 78.6207 141.646 79.1756 141.605 79.7018C141.545 80.4613 141.551 81.375 141.726 82.1884C142.11 83.9664 144.081 84.775 145.587 85.7946L150.322 88.9988C151.111 89.5965 152.794 91.5126 153.213 94.3957C153.631 97.2786 153.154 100.976 152.863 102.464C152.634 103.632 151.387 106.035 146.28 107.052C139.896 108.324 133.613 104.858 133.787 101.043L133.516 94.3957Z" fill="white"/>
</svg>
