<svg width="261" height="176" viewBox="0 0 261 176" fill="none" xmlns="http://www.w3.org/2000/svg">
<path d="M106.856 100.44C109.121 103.276 113.257 104.711 119.618 104.711C119.688 104.711 119.642 104.711 119.618 104.711V97.4749C119.595 97.4751 119.507 97.4749 119.483 97.4749C117.994 97.4749 117.057 96.902 116.187 96.2255C115.862 95.9724 115.579 95.6629 115.397 95.2909C114.743 93.9509 114.617 92.3098 114.434 88.2946C114.434 83.9558 115.066 81.6158 115.863 80.7697C117.3 79.8576 117.375 79.8498 119.555 79.6651C119.578 79.6651 119.601 79.6651 119.625 79.6653V75.903V72.4297C119.648 72.4297 119.601 72.4297 119.625 72.4297C113.264 72.4297 109.194 73.5601 106.929 76.3952C104.679 79.2303 103.555 83.1932 103.555 88.2838C103.555 93.3744 104.606 97.6054 106.856 100.44Z" fill="white"/>
<path d="M136.825 88.2897C136.825 83.199 135.692 79.2362 133.427 76.4011C131.186 73.5764 127.338 72.4401 121.016 72.4297V76.1373L121.027 79.7343C122.854 79.9963 124.511 80.9041 124.991 82.7035C125.315 83.9157 125.432 85.5744 125.553 88.2946C125.553 92.555 125.038 95.3583 124.014 96.2041C122.761 97.0216 122.651 97.1833 120.916 97.1941L120.947 104.431C127.27 104.42 131.186 103.003 133.427 100.178C135.692 97.3431 136.825 93.3803 136.825 88.2897Z" fill="white"/>
<path d="M56.1386 78.6615V73.7656H35.939C34.69 73.7656 33.4237 73.8554 32.2624 74.315C32.1664 74.353 32.0743 74.392 31.9887 74.4315C30.3144 75.2048 29.5271 76.0337 28.3625 77.4735C28.1846 77.6935 28.0183 77.934 27.8679 78.1739C27.2417 79.1719 27.0441 80.3612 27.0437 81.5394L27.0392 95.0958C27.0391 95.4201 27.0554 95.7441 27.1022 96.0651C27.1853 96.6356 27.3521 97.5904 27.6105 98.2444C28.0069 99.2476 28.8768 100.195 29.7979 100.982C31.6843 102.594 34.221 103.788 36.6026 103.093C37.5445 102.817 38.3222 102.169 39.0176 101.477L51.5266 89.0234V103.378H56.6582V81.5136H35.9435V86.8845H47.0541L37.5181 96.4287C36.6473 97.3003 35.4843 98.0915 34.2952 97.7691C33.6411 97.5918 32.9666 96.9762 32.5173 96.4929C32.155 96.1032 31.9887 95.5806 31.9887 95.0485V82.4173C31.9887 81.3575 32.4365 80.347 33.2215 79.6351C33.9124 79.0085 34.8118 78.6615 35.7445 78.6615H56.1386Z" fill="white"/>
<path d="M85.1436 97.2695C84.8366 97.2695 84.5414 97.2516 84.2578 97.2159V104.642C88.8203 104.62 91.5213 103.5 93.088 101.251L94.2999 104.496H100.206V87.1476L85.1963 87.08V93.398H89.4082C89.4127 93.3438 89.417 93.289 89.4209 93.2336L89.4082 93.398C89.2698 95.0445 88.795 96.189 88.1041 96.7197C87.406 97.2523 86.7106 97.2695 85.1436 97.2695Z" fill="white"/>
<path d="M97.1749 75.7015C95.0184 73.211 91.2523 72.5078 85.3878 72.5078C85.1198 72.5078 84.8556 72.5103 84.5951 72.5154L84.5796 79.6977C85.1341 79.6977 84.9326 79.6783 85.5393 79.7288C87.1749 79.8649 87.3499 79.9365 88.2045 80.435C88.9492 80.9049 89.3752 82.2039 89.5614 84.3185H100.202C100.046 81.4051 99.3469 78.1763 97.1749 75.7015Z" fill="white"/>
<path d="M170.004 100.441C172.269 103.276 176.406 104.711 182.767 104.711C182.836 104.712 182.79 104.711 182.767 104.711V97.4749C182.743 97.4751 182.655 97.4749 182.632 97.4749C181.462 97.4749 180.633 97.1213 179.909 96.6417C179.175 96.1546 178.561 95.4728 178.277 94.6381C177.851 93.3849 177.737 91.6872 177.583 88.2946C177.583 83.9558 178.215 81.6158 179.011 80.7696C180.449 79.8576 180.524 79.8498 182.703 79.6651C182.726 79.6651 182.75 79.6651 182.773 79.6653V75.903V72.4297C182.797 72.4297 182.75 72.4297 182.773 72.4297C176.412 72.4297 172.343 73.5601 170.078 76.3952C167.828 79.2303 166.703 83.1932 166.703 88.2838C166.703 93.3744 167.755 97.6054 170.004 100.441Z" fill="white"/>
<path d="M199.973 88.2897C199.973 83.199 198.841 79.2362 196.576 76.4011C194.334 73.5764 190.486 72.4401 184.164 72.4297V76.1373L184.175 79.7343V79.7343C186.004 79.9965 187.654 80.9026 188.135 82.6865C188.462 83.9002 188.58 85.5616 188.701 88.2946C188.701 92.555 188.187 95.3583 187.163 96.2041C185.91 97.0216 185.8 97.1833 184.064 97.1941L184.096 104.431C190.418 104.42 194.334 103.003 196.576 100.178C198.841 97.3432 199.973 93.3803 199.973 88.2897Z" fill="white"/>
<path d="M146.463 80.2683V104.437H156.073L156.069 80.1486L156.065 72.7209L146.463 72.7191V80.2683Z" fill="white"/>
<path d="M136.828 72.7188V79.9443H145.073V72.7191L136.828 72.7188Z" fill="white"/>
<path d="M157.48 72.7191V79.9454H165.685V72.7188L157.48 72.7191Z" fill="white"/>
<path d="M70.4073 99.8654C72.5173 102.763 76.9291 104.435 82.7936 104.435C82.8398 104.435 82.8858 104.434 82.9317 104.434V96.9443V96.9443C80.8018 96.6758 79.6998 94.2904 79.3513 92.172C79.1985 91.2432 79.0781 90.1102 79.05 88.7767C79.0207 87.3878 79.0588 86.1416 79.1253 85.0837C79.2787 82.6398 80.4209 79.7741 82.8592 79.5469V79.5469V72.2578C76.9804 72.3717 72.6417 73.5445 70.547 76.2292C68.3594 79.033 67.2656 82.9723 67.2656 88.0473C67.2656 93.0283 68.3129 96.9676 70.4073 99.8654Z" fill="white"/>
<path d="M223.18 72.7188V85.3122H214.819V92.5487H223.18V104.437H233.816V72.7188H223.18Z" fill="white"/>
<path fill-rule="evenodd" clip-rule="evenodd" d="M203.133 104.437V72.7189H213.429V85.3122V92.4719L213.424 104.437H203.133Z" fill="white"/>
</svg>
