<svg width="261" height="176" viewBox="0 0 261 176" fill="none" xmlns="http://www.w3.org/2000/svg">
<path d="M27.3372 100.455L34.7588 76.5392C35.3259 74.7121 35.3357 73.5055 34.7881 72.9195C34.2601 72.3335 32.8325 71.9887 30.5053 71.8853L30.9747 70.3599H50.1006L49.6313 71.8853C47.8126 71.9543 46.5219 72.2904 45.7592 72.8936C45.0356 73.4797 44.3902 74.6949 43.8231 76.5392L40.743 86.4673H54.6474L57.7275 76.5392C58.2947 74.7121 58.324 73.5055 57.8156 72.9195C57.3266 72.3335 55.9773 71.9887 53.7674 71.8853L54.2368 70.3599H72.3947L71.9253 71.8853C70.3804 71.9543 69.2755 72.2818 68.6106 72.8678C67.9652 73.4538 67.359 74.6776 66.7918 76.5392L59.3703 100.455C58.8031 102.282 58.7836 103.488 59.3116 104.074C59.8592 104.66 61.2966 105.005 63.6237 105.109L63.1544 106.634H44.0284L44.4978 105.109C46.3165 105.04 47.5974 104.712 48.3406 104.126C49.0837 103.523 49.7388 102.299 50.306 100.455L53.8848 88.8977H39.9803L36.4015 100.455C35.8344 102.282 35.7953 103.488 36.2842 104.074C36.7926 104.66 38.1518 105.005 40.3616 105.109L39.8923 106.634H21.7344L22.2037 105.109C23.7487 105.04 24.8438 104.712 25.4892 104.126C26.1345 103.54 26.7505 102.316 27.3372 100.455Z" fill="white"/>
<path d="M85.9765 107.358C81.6741 107.358 78.1931 106.203 75.5335 103.893C72.8738 101.566 71.544 98.5242 71.544 94.7667C71.544 93.9221 71.6418 92.9224 71.8373 91.7675C72.0329 90.6127 72.2871 89.5268 72.6 88.5099C74.2819 83.0976 77.4989 78.5989 82.251 75.0137C87.0032 71.4286 92.1367 69.636 97.6515 69.636C101.954 69.636 105.425 70.7994 108.065 73.1263C110.705 75.436 112.035 78.4696 112.055 82.2272C112.055 83.1062 111.957 84.1232 111.761 85.278C111.566 86.4329 111.312 87.5101 110.999 88.5099C109.336 93.9049 106.119 98.395 101.348 101.98C96.5955 105.565 91.4718 107.358 85.9765 107.358ZM86.5632 105.341C89.4184 105.341 92.1562 103.824 94.7768 100.791C97.3973 97.7572 99.5094 93.6636 101.113 88.5099C101.719 86.5449 102.179 84.7178 102.492 83.0287C102.824 81.3395 102.99 79.8572 102.99 78.5817C102.99 76.3237 102.482 74.6087 101.465 73.4366C100.468 72.2473 98.9911 71.6526 97.0355 71.6526C94.1803 71.6526 91.4326 73.1694 88.7926 76.203C86.1916 79.2367 84.0893 83.3389 82.4857 88.5099C81.8794 90.4921 81.4101 92.3277 81.0776 94.0169C80.7647 95.6888 80.6083 97.1626 80.6083 98.438C80.6083 100.696 81.107 102.411 82.1043 103.583C83.1213 104.755 84.6075 105.341 86.5632 105.341Z" fill="white"/>
<path d="M140.773 80.2622C140.753 77.6251 140.098 75.5308 138.808 73.9795C137.517 72.4283 135.767 71.6526 133.557 71.6526C131.875 71.6526 130.467 71.9801 129.333 72.6351C128.237 73.2729 127.504 74.195 127.132 75.4016C126.663 76.9011 126.829 78.2542 127.631 79.4607C128.413 80.6673 130.144 82.2186 132.823 84.1146C136.519 86.7173 139.062 89.2424 140.45 91.69C141.33 93.224 141.761 94.7925 141.741 96.3955C141.741 97.3435 141.594 98.2915 141.301 99.2395C140.48 101.842 138.935 103.85 136.666 105.264C134.437 106.66 131.64 107.358 128.277 107.358C124.893 107.358 121.803 106.849 119.007 105.832C118.068 105.488 117.305 105.427 116.719 105.651C116.152 105.876 115.653 106.436 115.223 107.332L115.076 107.616L113.14 107.358L115.604 95.0252L117.393 95.2838C117.335 98.2312 118.205 100.644 120.004 102.523C121.823 104.402 124.179 105.341 127.074 105.341C128.795 105.341 130.242 104.936 131.415 104.126C132.608 103.299 133.439 102.135 133.909 100.636C134.476 98.8086 134.261 97.1453 133.263 95.6457C132.286 94.1462 130.115 92.2157 126.751 89.8543C123.661 87.6997 121.549 85.5883 120.415 83.5199C119.711 82.2272 119.359 80.9172 119.359 79.59C119.378 78.7971 119.506 77.9956 119.74 77.1855C120.483 74.7724 121.989 72.9109 124.258 71.6009C126.526 70.2909 129.381 69.636 132.823 69.636C135.444 69.636 137.8 70.041 139.893 70.8511C140.597 71.1269 141.242 71.1442 141.829 70.9028C142.435 70.6615 142.924 70.2048 143.296 69.5325L143.354 69.4033L144.968 69.636L142.562 80.5208L140.773 80.2622Z" fill="white"/>
<path d="M181.665 99.0068C179.69 101.61 177.187 103.652 174.155 105.134C171.163 106.617 168.005 107.358 164.68 107.358C159.85 107.358 155.949 106.1 152.976 103.583C150.003 101.067 148.517 97.7658 148.517 93.6808C148.517 92.7845 148.615 91.7331 148.811 90.5265C149.006 89.32 149.27 88.191 149.603 87.1396C151.265 81.779 154.237 77.5216 158.52 74.3674C162.803 71.2131 167.76 69.636 173.393 69.636C176.58 69.636 179.396 70.0669 181.841 70.9287C182.428 71.1355 182.975 71.1355 183.484 70.9287C184.012 70.7046 184.432 70.2996 184.745 69.7135L184.95 69.3516L187.004 69.636L183.982 82.3306L181.929 82.0462C182.183 78.754 181.616 76.203 180.228 74.3932C178.839 72.5662 176.766 71.6526 174.009 71.6526C170.997 71.6526 168.112 73.0143 165.355 75.7377C162.617 78.461 160.583 81.9686 159.254 86.2605C158.726 87.9497 158.325 89.544 158.051 91.0436C157.797 92.5432 157.669 93.8962 157.669 95.1028C157.65 98.0675 158.471 100.317 160.134 101.851C161.796 103.385 164.221 104.152 167.408 104.152C169.56 104.152 171.701 103.575 173.833 102.42C175.984 101.265 177.881 99.6618 179.524 97.6107L181.665 99.0068Z" fill="white"/>
<path d="M202.375 107.358C198.073 107.358 194.592 106.203 191.932 103.893C189.272 101.566 187.942 98.5242 187.942 94.7667C187.942 93.9221 188.04 92.9224 188.236 91.7675C188.431 90.6127 188.686 89.5268 188.999 88.5099C190.68 83.0976 193.897 78.5989 198.649 75.0137C203.402 71.4286 208.535 69.636 214.05 69.636C218.352 69.636 221.824 70.7994 224.464 73.1263C227.104 75.436 228.434 78.4696 228.453 82.2272C228.453 83.1062 228.355 84.1232 228.16 85.278C227.964 86.4329 227.71 87.5101 227.397 88.5099C225.735 93.9049 222.518 98.395 217.746 101.98C212.994 105.565 207.87 107.358 202.375 107.358ZM202.962 105.341C205.817 105.341 208.555 103.824 211.175 100.791C213.796 97.7572 215.908 93.6636 217.511 88.5099C218.118 86.5449 218.577 84.7178 218.89 83.0287C219.223 81.3395 219.389 79.8572 219.389 78.5817C219.389 76.3237 218.88 74.6087 217.863 73.4366C216.866 72.2473 215.39 71.6526 213.434 71.6526C210.579 71.6526 207.831 73.1694 205.191 76.203C202.59 79.2367 200.488 83.3389 198.884 88.5099C198.278 90.4921 197.809 92.3277 197.476 94.0169C197.163 95.6888 197.007 97.1626 197.007 98.438C197.007 100.696 197.505 102.411 198.503 103.583C199.52 104.755 201.006 105.341 202.962 105.341Z" fill="white"/>
</svg>
