<svg width="261" height="177" viewBox="0 0 261 177" fill="none" xmlns="http://www.w3.org/2000/svg">
<path d="M36.3174 125.777C27.7093 124.944 30.9735 114.735 36.3171 109.684C36.9594 111.012 39.2081 113.343 42.6278 111.286C56.3334 103.042 69.5803 73.879 70.3673 61.7511C49.7594 60.0922 47.4742 71.3381 48.9076 77.1682C47.2254 78.8847 39.2541 80.5185 39.2541 73.0572C38.8231 63.267 49.5835 54.9217 57.9118 53.5175C61.761 52.8685 71.7273 54.2074 77.085 54.9985C87.0052 56.2481 98.0938 52.793 102.583 42.9453C108.818 42.9453 106.815 50.0432 104.452 53.5175C99.8756 60.2442 86.4524 61.7851 78.797 61.7511C79.4134 64.957 58.0728 127.879 36.3174 125.777Z" fill="white"/>
<path d="M71.3002 109.609C63.6885 107.854 76.2311 82.3428 83.6424 69.4713C85.2812 68.9562 88.8253 68.9936 89.8933 73.2651C85.6735 81.7003 77.8749 98.6045 80.4384 98.7379C83.0016 98.8714 95.0399 76.8803 100.739 65.8678C102.741 65.2298 106.879 65.0571 107.413 69.4713C103.13 77.8734 95.2324 94.7002 97.9023 94.789C100.572 94.8782 106.579 85.8161 109.248 81.2741C113.104 73.5287 118.575 59.4379 115.051 55.2042C120.757 54.5581 124.121 58.0346 124.605 59.5514C124.776 61.2902 124.246 66.5811 120.757 73.8327C117.268 81.0847 105.124 100.159 94.6741 104.534C93.4486 105.047 90.4153 105.97 88.0893 105.56C85.7632 105.149 86.4696 99.1403 87.1486 96.0673C84.4756 100.493 76.8213 110.882 71.3002 109.609Z" fill="white"/>
<path fill-rule="evenodd" clip-rule="evenodd" d="M195.707 62.4142C196.661 60.9691 197.376 59.378 198.046 57.7812C197.375 59.3811 196.662 60.9662 195.707 62.4142Z" fill="white"/>
<path fill-rule="evenodd" clip-rule="evenodd" d="M152.327 53.8571L147.81 62.544C147.81 54.5346 135.95 51.0229 125.196 71.8162C115.049 91.4345 118.356 100.724 127.476 97.3503C130.571 96.205 134.716 92.973 137.78 88.5957C137.606 90.682 138.014 94.1877 141.303 94.1147C146.642 93.9967 150.695 88.5634 154.029 84.0932C155.044 82.7324 155.993 81.4608 156.891 80.4554C155.945 83.6431 155.087 90.0549 159.214 90.2043C163.342 90.3533 166.17 87.3517 167.068 85.8322C164.65 79.9294 174.042 57.7472 181.529 56.1429C181.826 56.7363 182.242 58.3852 181.529 60.2336C180.816 62.0819 176.681 72.2006 174.702 77.0288C174.108 79.9634 173.567 85.2951 175.844 85.8322C182.154 87.3204 187.794 79.566 192.27 73.4112C192.854 72.6085 193.419 71.8326 193.962 71.1085C193.064 74.9264 193.364 82.304 198.935 81.2708C204.507 80.2377 208.505 76.2052 210.158 74.3181C202.51 89.8279 193.347 94.2513 185.554 95.5994L58.7305 123.317C61.3862 138.988 77.7191 142.706 86.9676 137.42C87.0984 137.328 87.2427 137.228 87.3984 137.12L87.4 137.119C89.1807 135.88 92.4288 133.622 93.545 131.854C94.7594 129.932 97.7616 129.367 99.1107 129.324L110.731 130.37C118.682 130.864 118.988 126.135 118.894 125.594C118.818 125.161 118.459 125.048 118.289 125.045C117.893 125.062 117.517 125.079 117.16 125.096L117.157 125.096C113.272 125.275 111.608 125.352 110.929 123.317C110.692 119.405 113.675 117.964 115.196 117.733C117.886 117.224 134.485 113.451 158.182 108.064L158.183 108.063L158.186 108.063L160.37 107.566C166.384 106.199 171.462 105.121 175.814 104.197C192.089 100.741 198.22 99.4393 205.198 93.2462C206.318 92.2523 209.183 88.913 212.669 84.5296C216.156 80.1464 225.668 54.091 229.988 41.6111C229.332 38.1535 225.025 37.6844 222.954 37.8821L221.678 42.3608C214.269 33.8699 202.313 47.6078 198.045 57.7836C197.376 59.3804 196.66 60.9715 195.707 62.4166L188.517 73.3109C187.612 74.3611 185.867 75.1295 185.469 75.1295C185.288 75.1295 185.466 74.0192 185.554 73.4844C185.579 73.334 185.542 73.5841 185.554 73.4844C185.554 73.2624 186.113 71.9459 186.937 70.0037C189.845 63.1528 196.056 48.5192 192.69 46.7109C186.431 43.3478 180.273 49.8469 177.977 53.5168C176.762 49.9002 172.566 49.4966 170.62 49.7469C158.826 74.5521 149.591 86.2543 149.013 83.1664C148.164 78.6307 153.403 68.7304 156.558 62.7677C157.873 60.283 158.826 58.482 158.826 58.0377C158.826 53.8757 154.221 53.538 152.327 53.8571ZM133.545 75.1295C136.372 68.3031 140.159 65.7203 142.319 65.0717C142.841 64.9152 143.379 65.1752 143.503 65.7057C143.85 67.1882 143.687 70.3533 141.303 75.6022C137.578 83.8051 133.117 87.7997 131.761 87.0864C130.406 86.3731 129.479 84.9465 133.545 75.1295ZM208.534 56.9838C212.406 49.1653 216.236 47.6369 217.667 47.85C219.098 48.0631 218.856 53.561 215.475 60.2336C210.357 70.3347 206.569 71.1085 205.731 69.8244C204.661 68.1837 204.661 64.8025 208.534 56.9838Z" fill="white"/>
<path d="M132.089 121.978L128.149 122.887L128.908 126.173L131.563 125.56L131.689 126.104L129.033 126.717L129.917 130.546L129.361 130.674L127.465 122.46L131.961 121.422L132.089 121.978Z" fill="white"/>
<path d="M145.433 126.961L144.828 127.101L142.986 124.196L139.75 124.943L139.344 128.367L138.738 128.507L139.748 119.635L140.637 119.43L145.433 126.961ZM142.684 123.732L140.289 119.952L139.794 124.399L142.684 123.732Z" fill="white"/>
<path d="M154.989 124.807C153.84 125.072 152.682 124.845 151.754 124.266C150.83 123.699 150.121 122.769 149.856 121.62C149.59 120.472 149.82 119.326 150.4 118.398C150.982 117.483 151.924 116.772 153.072 116.506C154.246 116.235 155.451 116.439 156.444 117.133L156.094 117.591C155.234 117.022 154.204 116.843 153.204 117.074C152.216 117.303 151.395 117.921 150.902 118.712C150.395 119.505 150.196 120.501 150.424 121.489C150.652 122.478 151.268 123.285 152.071 123.776C152.861 124.27 153.87 124.467 154.858 124.239C155.858 124.008 156.706 123.396 157.229 122.507L157.732 122.769C157.138 123.804 156.162 124.536 154.989 124.807Z" fill="white"/>
<path d="M166.827 113.942L164.579 114.461L166.349 122.132L165.781 122.263L164.011 114.592L161.762 115.111L161.637 114.568L166.701 113.398L166.827 113.942Z" fill="white"/>
<path d="M177.919 119.527C176.783 119.789 175.652 119.569 174.737 118.986C173.812 118.419 173.118 117.499 172.856 116.363C172.594 115.227 172.811 114.083 173.394 113.168C173.964 112.256 174.881 111.55 176.017 111.288C177.153 111.025 178.299 111.255 179.212 111.825C180.124 112.395 180.833 113.325 181.095 114.461C181.357 115.598 181.125 116.731 180.555 117.643C179.988 118.568 179.056 119.264 177.919 119.527ZM176.148 111.856C175.16 112.084 174.362 112.685 173.868 113.475C173.374 114.266 173.184 115.247 173.412 116.235C173.64 117.223 174.241 118.021 175.031 118.515C175.822 119.009 176.802 119.199 177.791 118.971C178.779 118.743 179.577 118.142 180.071 117.352C180.565 116.561 180.755 115.58 180.527 114.592C180.299 113.604 179.698 112.806 178.908 112.312C178.117 111.818 177.136 111.628 176.148 111.856Z" fill="white"/>
<path d="M192.468 116.103L191.702 116.28L188.154 113.872L187.833 113.947L188.54 117.01L187.96 117.144L186.066 108.942L188.154 108.46C188.883 108.292 189.593 108.44 190.181 108.786C190.768 109.132 191.215 109.718 191.378 110.422C191.541 111.126 191.395 111.849 191.019 112.417C190.643 112.986 190.069 113.431 189.34 113.599L188.92 113.696L192.468 116.103ZM188.282 109.016L186.775 109.364L187.705 113.391L189.212 113.043C189.768 112.915 190.245 112.557 190.533 112.113C190.82 111.67 190.938 111.109 190.81 110.553C190.681 109.997 190.342 109.542 189.877 109.273C189.411 109.003 188.838 108.888 188.282 109.016Z" fill="white"/>
<path d="M201.677 105.328L200.305 111.109L201.004 114.136L200.423 114.27L199.73 111.268L195.945 106.651L196.575 106.506L199.852 110.498L201.047 105.473L201.677 105.328Z" fill="white"/>
</svg>
