<svg width="261" height="176" viewBox="0 0 261 176" fill="none" xmlns="http://www.w3.org/2000/svg">
<path d="M135.345 89.5547H126.542L120.78 114.431H129.475L135.345 89.5547Z" fill="white"/>
<path d="M127.378 83.5508C126.364 79.8928 130.909 74.9769 134.574 75.9955C137.158 76.7139 138.057 77.8748 137.931 80.3725C137.77 83.5738 134.205 87.4299 130.718 86.8019C128.732 86.4442 128.025 85.8839 127.378 83.5508Z" fill="white"/>
<path d="M36.1583 76.579H45.6021L43.4525 100.074L52.359 76.579H60.421L58.9621 100.074L67.1008 76.579H76.6984L60.8816 114.431H52.0519L53.2804 90.4761L45.1417 114.431H35.3906L36.1583 76.579Z" fill="white"/>
<path d="M76.0837 89.5547H84.8872L79.0166 114.431H70.3222L76.0837 89.5547Z" fill="white"/>
<path d="M90.8481 75.9955H100.137L91.3836 114.431H82.9078L90.8481 75.9955Z" fill="white"/>
<path d="M84.2932 75.9955C80.6286 74.9769 76.0837 79.8928 77.0978 83.5508C77.7446 85.8839 78.4521 86.4442 80.438 86.8019C83.9245 87.4299 87.4899 83.5738 87.6511 80.3725C87.7769 77.8748 86.8776 76.7139 84.2932 75.9955Z" fill="white"/>
<path d="M51.4421 65.5887L48.2575 78.9821H50.2284L51.4421 75.2478H61.7771L61.5351 78.9821H65.0619L66.2721 75.2478H78.5124L77.3367 78.2214C77.3367 78.2214 79.4952 74.37 83.778 74.6015C88.4596 74.8546 88.9892 79.0167 88.9892 79.0167L89.9228 74.9712H113.712L112.605 79.0167H127.128C127.128 79.0167 129.211 74.6617 132.964 74.6617C139.475 74.6617 139.091 79.0167 139.091 79.0167H142.791L146.041 65.7737L51.4421 65.5887Z" fill="white"/>
<path d="M102.733 75.9955H111.986L103.121 114.431H94.7506L102.733 75.9955Z" fill="white"/>
<path d="M114.194 89.3359H123.648L115.337 100.531L118.507 114.431H108.026L106.284 101.816L114.194 89.3359Z" fill="white"/>
<path d="M138.014 89.5547H146.525L145.654 94.2147C145.654 94.2147 148.269 89.861 151.017 89.1529C153.155 88.6017 155.269 88.9956 156.866 90.5203V90.5203C158.672 92.2437 157.679 95.2324 157.154 97.6723L153.542 114.431H144.865L147.692 101.335C147.967 100.06 148.017 98.2287 146.728 98.0381V98.0381C146.428 97.9937 146.117 98.1252 145.827 98.332C144.806 99.0602 144.422 100.357 144.122 101.574L140.962 114.431H132.616L138.014 89.5547Z" fill="white"/>
<path d="M179.454 90.2924L174.617 97.0281C174.617 97.0281 173.911 95.8472 173.19 95.4113C172.293 94.8684 171.316 94.4965 170.54 94.977C169.882 95.3848 169.557 95.9511 169.615 96.7231V96.7231C169.763 98.6903 172.853 98.7888 174.283 100.148C174.871 100.707 175.422 101.363 175.737 102.065C177.307 105.561 175.381 109.596 172.637 112.271C170.161 114.686 165.194 114.905 161.017 113.937C158.805 113.425 156.588 111.803 156.588 111.803L161.281 105.073C161.281 105.073 163.248 107.837 164.956 107.552C166.078 107.365 167.485 107.015 167.387 105.881V105.881C167.322 105.13 166.746 104.473 166.007 104.32C165.341 104.182 164.515 103.932 163.716 103.478C162.466 102.766 161.286 101.592 160.882 100.557C160.114 98.5842 160.882 95.8192 160.882 95.8192C160.882 95.8192 162.503 91.247 165.531 89.8863C168.153 88.7082 171.789 87.823 174.617 88.3366C176.622 88.7006 179.454 90.2924 179.454 90.2924Z" fill="white"/>
<path d="M149.315 65.3858L146.245 78.9218C146.245 78.9218 151.696 78.8046 155.83 81.2297C158.203 82.6223 160.819 85.4379 161.856 86.6096C162.15 86.9428 162.572 87.14 163.017 87.14V87.14C163.259 87.14 163.494 87.0829 163.711 86.9762C165.046 86.321 170.195 83.9439 173.807 84.3782C178.546 84.9483 180.424 86.7704 181.078 87.6747C181.292 87.9708 181.626 88.194 181.992 88.194V88.194C182.186 88.194 182.374 88.1309 182.533 88.0187C183.602 87.2626 188.057 84.3303 192.502 84.5873C198.2 84.9167 201.719 88.0921 201.719 88.0921C201.719 88.0921 207.607 87.0194 208.843 82.564C209.616 79.783 208.508 77.7383 207.261 76.4133C205.858 74.923 203.829 74.2876 201.861 73.7254L182.901 68.3087L161.321 61.6575C161.292 61.6485 161.263 61.6395 161.233 61.6312C161.086 61.5904 160.605 61.4672 160.274 61.5083V61.5083C159.495 61.6045 158.861 62.1561 158.199 62.5779C157.249 63.1841 155.78 64.0564 154.587 64.4788C152.618 65.1761 149.315 65.3858 149.315 65.3858Z" fill="white"/>
<path fill-rule="evenodd" clip-rule="evenodd" d="M196.201 88.3366C189.21 85.1802 179.941 93.0002 178.626 100.557C177.479 107.142 178.563 112.335 184.975 114.221C192.68 116.486 201.877 105.558 201.525 97.3443C201.302 92.1533 200.936 90.4748 196.201 88.3366ZM186.429 101.841C187.131 98.7247 190.078 94.152 192.716 95.952C194.797 97.3718 192.274 103.125 192.274 103.125C192.274 103.125 190.002 108.436 187.359 107.154C185.156 106.085 185.891 104.229 186.429 101.841Z" fill="white"/>
<path d="M206.413 89.5627H215.057L213.985 94.2997C213.985 94.2997 215.655 91.2394 217.443 90.0813C218.702 89.2659 219.54 88.7959 221.039 88.7328C222.728 88.6617 224.264 89.4094 225.465 90.6C226.883 92.0068 226.329 95.0604 226.329 95.0604L221.972 114.424H213.224L216.105 101.432C216.393 100.13 216.596 98.2784 215.299 97.9649V97.9649V97.9649C213.131 97.4408 212.617 101.139 212.101 103.309L209.455 114.424H200.984L206.413 89.5627Z" fill="white"/>
</svg>
