<svg width="723" height="237" viewBox="0 0 723 237" fill="none" xmlns="http://www.w3.org/2000/svg">
<path d="M481.886 120.397C484.026 120.268 485.956 119.818 487.741 120.108C490.781 120.59 492.535 122.729 492.695 125.801C492.792 127.457 492.663 129.146 492.39 130.786C492.149 132.137 492.535 132.877 493.837 133.086C494.963 133.263 496.089 133.392 497.231 133.424C498.583 133.472 499.21 132.829 499.773 131.462C500.754 129.114 502.121 126.862 503.617 124.804C506.03 121.491 508.748 118.371 511.258 115.122C513.043 112.806 515.713 111.616 518.239 112.276C520.973 112.983 523.53 114.334 523.595 117.406C523.643 119.545 522.855 121.925 521.793 123.823C520.442 126.251 518.431 128.31 516.646 130.609C516.903 130.77 517.177 131.027 517.515 131.156C524.608 133.794 526.892 138.071 524.882 145.421C524.206 147.898 523.08 150.262 522.179 152.674C521.874 153.51 521.649 154.363 521.246 155.617C522.163 155.263 522.726 155.135 523.209 154.845C524.576 154.025 525.895 153.108 527.278 152.288C532.281 149.329 535.594 145.389 538.039 139.792C544.361 125.415 563.116 111.825 580.504 113.675C584.477 114.093 588.128 115.251 591.216 117.792C595.881 121.619 596.412 127.232 593.372 132.362C592.937 133.086 591.168 133.826 590.557 133.504C586.31 131.349 582.305 132.603 578.429 134.212C572.204 136.801 566.461 140.259 561.62 145.019C560.51 146.112 559.658 147.479 558.692 148.718C558.805 148.879 558.918 149.039 559.03 149.2C560.188 148.75 561.411 148.38 562.521 147.817C566.944 145.598 571.287 143.202 575.759 141.079C578.22 139.921 580.809 138.94 583.463 138.313C587.404 137.38 590.621 138.908 591.972 142.655C594.305 149.2 598.615 149.152 602.958 145.694C607.575 142.028 611.741 137.718 615.73 133.359C619.43 129.323 622.888 125.013 626.008 120.51C628.678 116.666 630.721 112.372 633.327 107.757C631.718 107.757 630.625 107.724 629.547 107.757C619.108 108.191 608.669 108.641 598.229 109.059C596.717 109.124 595.173 109.172 593.661 108.995C589.672 108.512 587.517 106.148 587.629 102.578C587.742 99.217 590.332 96.7725 594.192 96.5956C597.843 96.4348 601.511 96.3383 605.162 96.3544C615.617 96.3865 626.057 96.4348 636.512 96.6117C638.378 96.6439 639.375 96.0006 640.276 94.4406C645.375 85.5954 650.409 76.7181 655.798 68.0498C657.776 64.8816 660.302 61.8421 663.213 59.5263C667.46 56.133 673.958 56.8888 677.995 60.4751C680.344 62.5658 680.665 65.6053 678.687 68.7735C676.097 72.9066 673.363 76.9432 670.757 81.0602C667.781 85.7562 664.854 90.4844 661.926 95.2125C661.653 95.6467 661.46 96.1292 661.058 96.9494C668.022 97.255 674.682 97.8018 681.357 97.7857C690.107 97.7535 698.841 97.2067 707.592 97.0298C709.377 96.9977 711.227 97.448 712.932 97.9948C714.38 98.4611 715.264 99.619 715.119 101.356C714.975 103.028 713.913 103.881 712.482 104.058C708.332 104.556 704.166 105.039 699.983 105.216C685.668 105.827 671.336 106.309 657.004 106.776C655.621 106.824 654.865 107.242 654.173 108.48C645.503 124.048 637.187 139.808 630.85 156.518C627.858 164.43 625.397 172.503 624.287 180.93C624.191 181.67 624.191 182.426 624.094 183.905C625.928 182.426 627.504 181.477 628.646 180.174C636.946 170.734 645.101 161.181 653.401 151.741C656.007 148.766 657.696 145.373 659.24 141.77C663.149 132.603 669.213 125.077 677.143 119.062C677.995 118.419 678.928 117.872 679.877 117.422C685.233 114.833 687.904 115.621 690.735 120.413C692.777 120.285 694.756 119.834 696.622 120.14C699.678 120.638 701.238 122.6 701.431 125.672C701.528 127.329 701.495 129.049 701.19 130.674C700.868 132.314 701.512 132.893 702.943 133.166C707.125 133.954 710.921 132.732 714.621 130.995C715.795 130.448 716.889 129.58 718.111 129.371C719.173 129.194 720.653 129.403 721.377 130.079C722.004 130.658 722.197 132.218 721.923 133.15C721.618 134.212 720.749 135.305 719.816 135.965C713.977 140.146 707.399 141.642 700.337 140.838C698.471 140.628 697.908 141.207 697.265 142.8C694.032 150.76 689.995 158.254 683.271 163.915C678.896 167.598 674.022 170.075 668.103 169.866C662.875 169.673 658.967 167.325 656.377 162.5C653.176 166.585 650.168 170.589 646.983 174.449C640.549 182.281 634.115 190.145 626.024 196.385C622.421 199.167 618.481 200.76 613.896 199.344C608.604 197.704 606.513 193.507 605.806 188.473C604.776 181.091 605.999 173.886 608.009 166.81C609.425 161.841 611.114 156.952 612.674 152.031C612.867 151.403 613.012 150.744 613.156 150.23C609.955 152.481 606.835 154.893 603.505 156.936C599.999 159.075 596.106 160.088 591.94 159.75C587.887 159.428 584.879 157.37 582.788 154.057C581.935 152.722 581.147 152.449 579.844 153.092C574.987 155.456 570.161 157.885 565.271 160.152C558.306 163.369 551.116 165.218 543.363 163.304C539.76 162.404 537.299 160.265 535.498 156.839C533.825 157.997 532.265 159.139 530.656 160.216C526.667 162.902 522.63 165.475 517.836 166.569C510.614 168.225 506.062 163.755 507.88 156.502C508.941 152.24 510.518 148.107 511.804 144.086C508.491 142.864 505.177 141.609 501.848 140.436C501.397 140.275 500.818 140.58 500.288 140.596C497.248 140.709 494.207 140.95 491.167 140.821C489.752 140.757 489.141 141.095 488.626 142.349C486.068 148.83 482.916 155.006 478.235 160.233C473.2 165.829 467.329 169.962 459.319 169.898C454.365 169.866 448.172 166.81 446.998 160.056C446.901 159.541 446.676 159.043 446.419 158.271C444.505 160.297 442.671 162.195 440.902 164.141C424.318 182.185 407.059 199.505 387.387 214.236C376.98 222.02 366.058 228.968 353.528 232.876C342.799 236.221 331.877 237.732 320.666 235.143C305.192 231.573 295.847 221.666 291.343 206.823C285.279 186.832 285.906 166.714 290.362 146.531C295.38 123.742 304.774 102.771 317.24 83.167C330.558 62.212 346.852 43.9105 366.782 28.9542C380.615 18.5651 395.67 10.8939 412.897 8.04738C421.23 6.66432 429.529 6.26226 437.733 9.01231C446.387 11.9071 451.55 18.0183 454.477 26.4132C458.724 38.5713 458.225 50.7776 455.072 63.0483C451.373 77.4739 444.762 90.5005 436.285 102.659C435.207 104.202 434.082 105.183 432.135 103.961C429.706 102.449 429.208 101.227 430.462 98.9597C436.285 88.442 440.837 77.4418 443.218 65.6053C445.454 54.5087 445.47 43.5567 441.432 32.7817C438.36 24.5959 433.631 21.685 425.01 22.9555C417.385 24.0813 410.678 27.6033 404.228 31.5112C380.92 45.6152 362.069 64.4635 346.338 86.5764C335.142 102.305 326.119 119.191 319.813 137.444C314.103 153.993 310.79 170.959 312.044 188.569C312.495 194.986 313.733 201.226 317.143 206.855C322.403 215.523 330.172 218.723 340.032 217.758C346.418 217.131 352.321 214.848 358.192 212.58C378.524 204.748 396.459 192.944 413.155 179.113C425.508 168.885 436.896 157.643 447.802 145.919C448.606 145.051 449.298 143.99 449.781 142.896C453.689 133.938 459.271 126.235 466.943 120.14C468.359 119.014 469.919 117.985 471.576 117.245C476.626 114.961 479.184 115.862 481.838 120.478L481.886 120.397ZM670.162 158.624C670.371 158.817 670.596 159.01 670.805 159.203C671.947 158.673 673.154 158.238 674.215 157.595C680.392 153.768 684.252 147.978 687.357 141.626C689.769 136.704 689.737 136.688 685.491 133.231C685.378 133.15 685.217 133.134 684.719 132.957C677.915 140.371 671.867 148.284 670.146 158.608L670.162 158.624ZM476.24 132.941C470.981 137.38 463.968 148.01 462.182 154.395C461.78 155.858 461.716 157.418 461.474 159.075C469.404 157.483 478.171 145.244 480.423 136.367C479.071 135.257 477.72 134.163 476.24 132.941Z" fill="white"/>
<path d="M97.2104 148.649C102.953 147.089 108.116 145.577 113.328 144.307C128.544 140.608 144.002 138.662 159.62 137.874C163.127 137.697 166.633 137.456 170.124 137.472C171.7 137.472 172.038 136.539 172.456 135.494C176.912 124.301 180.434 112.85 182.316 100.885C184.44 87.36 184.166 73.9636 180.161 60.8567C173.727 39.8213 159.958 25.4438 139.53 17.4188C126.099 12.1439 112.089 10.7608 97.7895 11.581C80.8037 12.546 64.4613 16.5504 48.9392 23.2245C33.3528 29.9147 19.6162 39.4835 9.73996 53.7001C8.2923 55.7908 7.35937 58.2675 6.37818 60.6476C5.50959 62.7383 4.3193 63.462 2.11565 62.7544C0.201526 62.1433 -0.120175 60.8888 0.426716 58.9911C2.38909 52.1562 6.34601 46.5114 10.9303 41.2526C22.1254 28.3547 36.2481 19.7186 51.8506 13.2536C64.7669 7.89823 78.0692 3.90986 91.9989 2.17299C109.676 -0.0463399 127.209 0.50045 144.131 6.46692C175.287 17.4671 194.718 38.985 201.377 71.6317C205.157 90.2066 203.018 108.444 198.015 126.472C197.099 129.769 196.037 133.001 195.04 136.282C195.04 136.33 195.088 136.411 195.377 137.022C200.364 137.022 205.608 137.054 210.851 136.957C211.35 136.957 211.961 136.153 212.299 135.59C213.2 134.111 213.731 132.31 214.873 131.071C217.848 127.903 223.928 127.919 227.194 130.83C229.092 132.535 228.625 134.545 227.853 136.507C226.373 140.254 224.749 143.953 223.301 147.716C221.226 153.088 222.207 154.262 227.934 153.425C232.823 152.718 237.038 150.418 240.995 147.684C244.694 145.143 248.185 142.281 251.788 139.595C252.817 138.823 253.895 137.842 255.085 137.633C256.243 137.424 257.868 137.713 258.736 138.437C260.039 139.53 259.525 141.058 258.431 142.264C252.495 148.81 245.772 154.374 238.051 158.684C232.679 161.676 227.097 164.04 220.856 164.297C219.344 164.361 217.784 164.297 216.32 163.975C209.886 162.544 207.393 157.366 208.02 150.466C208.213 148.376 208.712 146.317 209.018 144.532C203.404 144.532 197.935 144.5 192.466 144.596C191.935 144.596 191.244 145.417 190.938 146.012C183.796 160.067 175.159 173.126 164.896 185.091C148.683 203.988 129.75 219.266 106.298 228.336C87.8972 235.46 68.8686 237.953 49.3253 234.656C41.331 233.305 33.8836 230.298 28.7364 223.479C25.2138 218.815 24.4578 213.46 25.5194 207.847C27.1601 199.179 31.8569 192.087 37.4223 185.525C46.9125 174.332 58.2364 165.455 71.6513 159.36C74.4179 158.105 77.2167 156.867 79.9029 155.436C80.7554 154.985 81.5436 154.069 81.9296 153.184C89.184 136.925 96.4062 120.65 103.596 104.359C109.178 91.6861 114.791 79.0134 120.244 66.2924C124.217 57.0291 137.455 57.399 142.168 63.3816C144.002 65.6974 143.728 68.1741 142.249 70.4095C140.286 73.3847 138.083 76.2312 135.831 78.9973C127.515 89.2416 120.984 100.58 115.081 112.303C109.081 124.204 103.339 136.218 97.2587 148.617L97.2104 148.649ZM168.29 145.545C167.036 145.545 166.65 145.513 166.28 145.545C155.294 146.623 144.259 147.362 133.337 148.858C119.89 150.708 106.813 154.31 94.106 159.102C93.0444 159.504 91.9345 160.55 91.452 161.579C88.2189 168.301 85.3236 175.185 81.9779 181.859C80.2246 185.365 77.9566 188.661 75.6243 191.813C74.1927 193.759 71.6835 194.081 69.8337 193.116C67.6622 191.974 67.0671 190.012 67.7426 187.873C69.1742 183.386 70.8149 178.98 72.4395 174.557C73.292 172.258 74.2732 170.022 75.383 167.304C74.0801 167.899 73.3081 168.205 72.5681 168.575C62.4989 173.608 53.7808 180.443 46.1404 188.661C41.5562 193.599 37.4062 198.857 35.4439 205.467C33.3528 212.527 35.5886 217.754 42.1835 220.97C52.0115 225.763 62.4346 226.261 73.0024 224.637C89.2483 222.128 103.146 214.361 116.11 204.727C132.34 192.666 145.996 178.063 157.722 161.643C161.325 156.594 164.542 151.254 168.29 145.513V145.545Z" fill="white"/>
<path d="M236.957 109.196C236.555 110.402 236.362 111.737 235.702 112.782C233.547 116.191 230.459 118.475 226.454 119.247C222.304 120.051 219.617 117.414 220.164 113.248C220.727 108.922 224.845 104.419 229.011 103.583C233.097 102.763 236.668 105.32 236.957 109.212V109.196Z" fill="white"/>
</svg>
