<svg width="212" height="199" viewBox="0 0 212 199" fill="none" xmlns="http://www.w3.org/2000/svg">
<path d="M79.7589 169.663C87.6898 172.644 105.068 178.082 111.134 175.99C120.345 172.814 169.178 135.398 143.555 111.508C142.422 109.623 136.652 106.984 122.638 111.508C120.982 104.154 124.05 89.552 149.568 89.9704C146.255 72.6556 135.869 38.9464 119.811 34.9826C117.9 34.5107 115.857 34.8128 114.178 35.8413C112.292 36.9964 110.347 38.8601 110.013 41.4572C109.502 45.4261 107.036 45.7686 105.867 45.4437C99.1694 42.6798 84.4053 33.365 89.6018 23.9166C94.864 14.349 117.454 17.7115 130.743 21.2265C143.606 25.6845 172.776 44.9973 186.554 86.5844C193.865 85.3793 209.01 88.0206 211.1 108.227C203.3 108.009 187.471 108.836 186.554 113.888C185.407 120.202 179.746 180.734 111.134 190.75C107.077 191.113 97.6712 192.89 94.5894 191.256C90.5911 189.136 78.99 175.99 79.7589 169.663Z" fill="white"/>
<path d="M43.7782 0.632812C40.3608 1.29512 33.2455 7.79932 33.2455 21.2265C25.1454 17.5712 6.87572 14.7817 0.117188 33.3894C9.83776 31.2628 25.8268 33.0145 27.6139 46.4183C29.5107 60.6443 28.8252 83.523 28.8252 93.3139C25.9603 92.7211 18.1299 94.846 14.5734 108.361C19.5435 106.526 29.4296 107.522 31.375 111.508V169.663C29.873 172.533 23.2345 174.933 14.1772 168.045C13.3268 176.815 17.3026 194.698 38.7341 189.596C39.1544 193.112 42.5184 198.112 45.6861 198.429C49.9997 198.859 52.5216 193.264 53.2779 189.596C61.4725 191.08 80.7495 188.468 74.772 168.045C70.6625 173.026 63.7053 171.656 60.8878 169.663L60.2651 111.508C61.3444 109.161 65.6697 105.245 74.3371 108.361C74.3371 96.4785 64.9558 93.3786 60.2651 93.3139V46.4183C60.8463 40.2365 66.666 28.9761 85.2958 33.3894C77.2262 14.929 61.9255 17.589 55.2839 21.2265C54.0884 6.58471 47.1153 1.39663 43.7782 0.632812Z" fill="white"/>
</svg>
