<svg width="1317" height="1353" viewBox="0 0 1317 1353" fill="none" xmlns="http://www.w3.org/2000/svg">
<path d="M849.455 657.409C852.839 657.205 855.892 656.493 858.717 656.951C863.525 657.714 866.299 661.097 866.553 665.956C866.706 668.576 866.502 671.247 866.07 673.842C865.688 675.979 866.299 677.149 868.359 677.48C870.14 677.76 871.922 677.963 873.728 678.014C875.865 678.09 876.857 677.073 877.748 674.911C879.3 671.197 881.463 667.635 883.829 664.379C887.645 659.139 891.945 654.204 895.914 649.065C898.738 645.402 902.962 643.52 906.957 644.562C911.282 645.682 915.327 647.819 915.429 652.677C915.505 656.061 914.259 659.826 912.579 662.827C910.442 666.668 907.262 669.925 904.438 673.562C904.845 673.817 905.277 674.224 905.812 674.427C917.032 678.599 920.645 685.366 917.464 696.991C916.396 700.909 914.615 704.648 913.19 708.464C912.707 709.787 912.35 711.135 911.714 713.119C913.165 712.559 914.055 712.356 914.818 711.898C916.981 710.601 919.067 709.151 921.255 707.853C929.168 703.173 934.41 696.94 938.277 688.088C948.276 665.346 977.942 643.85 1005.45 646.776C1011.73 647.437 1017.51 649.269 1022.39 653.288C1029.77 659.342 1030.61 668.22 1025.8 676.335C1025.11 677.48 1022.32 678.65 1021.35 678.141C1014.63 674.732 1008.3 676.717 1002.16 679.26C992.318 683.356 983.235 688.825 975.576 696.355C973.821 698.085 972.472 700.247 970.946 702.206C971.124 702.46 971.302 702.715 971.48 702.969C973.312 702.257 975.246 701.672 977.001 700.781C983.998 697.271 990.867 693.481 997.941 690.123C1001.83 688.291 1005.93 686.739 1010.13 685.747C1016.36 684.272 1021.45 686.688 1023.59 692.616C1027.28 702.969 1034.1 702.893 1040.96 697.423C1048.27 691.624 1054.86 684.806 1061.17 677.912C1067.02 671.527 1072.49 664.71 1077.42 657.587C1081.65 651.507 1084.88 644.715 1089 637.414C1086.46 637.414 1084.73 637.363 1083.02 637.414C1066.51 638.101 1050 638.813 1033.48 639.475C1031.09 639.577 1028.65 639.653 1026.26 639.373C1019.95 638.61 1016.54 634.87 1016.72 629.223C1016.9 623.907 1020.99 620.04 1027.1 619.76C1032.87 619.506 1038.67 619.353 1044.45 619.378C1060.99 619.429 1077.5 619.506 1094.04 619.786C1096.99 619.836 1098.57 618.819 1099.99 616.351C1108.06 602.36 1116.02 588.318 1124.55 574.607C1127.67 569.596 1131.67 564.788 1136.27 561.125C1142.99 555.757 1153.27 556.953 1159.66 562.625C1163.37 565.932 1163.88 570.74 1160.75 575.752C1156.65 582.289 1152.33 588.674 1148.21 595.187C1143.5 602.615 1138.87 610.093 1134.24 617.572C1133.81 618.259 1133.5 619.022 1132.86 620.32C1143.88 620.803 1154.42 621.668 1164.97 621.643C1178.81 621.592 1192.63 620.727 1206.47 620.447C1209.3 620.396 1212.22 621.108 1214.92 621.973C1217.21 622.711 1218.61 624.543 1218.38 627.29C1218.15 629.935 1216.47 631.284 1214.21 631.563C1207.64 632.352 1201.05 633.115 1194.44 633.395C1171.79 634.362 1149.12 635.125 1126.45 635.863C1124.27 635.939 1123.07 636.6 1121.98 638.559C1108.26 663.183 1095.11 688.113 1085.08 714.544C1080.35 727.059 1076.46 739.829 1074.7 753.159C1074.55 754.329 1074.55 755.525 1074.4 757.865C1077.3 755.525 1079.79 754.024 1081.6 751.963C1094.73 737.031 1107.63 721.921 1120.75 706.988C1124.88 702.282 1127.55 696.915 1129.99 691.216C1136.17 676.717 1145.76 664.811 1158.31 655.297C1159.66 654.28 1161.13 653.415 1162.63 652.703C1171.11 648.607 1175.33 649.854 1179.81 657.434C1183.04 657.231 1186.17 656.519 1189.12 657.002C1193.95 657.79 1196.42 660.894 1196.73 665.753C1196.88 668.373 1196.83 671.095 1196.35 673.664C1195.84 676.259 1196.85 677.175 1199.12 677.607C1205.73 678.853 1211.74 676.92 1217.59 674.173C1219.45 673.308 1221.18 671.934 1223.11 671.604C1224.79 671.324 1227.13 671.654 1228.28 672.723C1229.27 673.639 1229.57 676.106 1229.14 677.582C1228.66 679.26 1227.28 680.99 1225.81 682.033C1216.57 688.647 1206.17 691.013 1195 689.741C1192.05 689.41 1191.15 690.326 1190.14 692.845C1185.02 705.437 1178.64 717.291 1168 726.245C1161.08 732.071 1153.37 735.988 1144.01 735.657C1135.74 735.352 1129.56 731.638 1125.46 724.007C1120.4 730.468 1115.64 736.802 1110.6 742.907C1100.43 755.296 1090.25 767.735 1077.45 777.605C1071.75 782.006 1065.52 784.525 1058.27 782.286C1049.9 779.691 1046.59 773.052 1045.47 765.09C1043.84 753.413 1045.77 742.017 1048.95 730.824C1051.19 722.964 1053.86 715.23 1056.33 707.446C1056.64 706.454 1056.87 705.411 1057.1 704.597C1052.03 708.158 1047.1 711.974 1041.83 715.205C1036.28 718.588 1030.13 720.191 1023.54 719.657C1017.12 719.148 1012.37 715.892 1009.06 710.651C1007.71 708.54 1006.46 708.108 1004.4 709.125C996.719 712.865 989.086 716.706 981.352 720.293C970.335 725.38 958.962 728.306 946.698 725.279C940.999 723.854 937.106 720.471 934.257 715.052C931.611 716.884 929.143 718.69 926.599 720.394C920.289 724.643 913.902 728.713 906.32 730.443C894.897 733.063 887.696 725.991 890.571 714.518C892.25 707.777 894.744 701.239 896.779 694.88C891.538 692.946 886.297 690.962 881.03 689.105C880.318 688.851 879.402 689.334 878.562 689.359C873.753 689.538 868.945 689.919 864.136 689.716C861.897 689.614 860.93 690.148 860.116 692.132C856.071 702.384 851.084 712.152 843.68 720.42C835.716 729.272 826.429 735.81 813.759 735.708C805.922 735.657 796.127 730.824 794.269 720.14C794.117 719.326 793.761 718.537 793.354 717.316C790.326 720.522 787.425 723.523 784.627 726.601C758.395 755.143 731.094 782.54 699.978 805.842C683.516 818.154 666.24 829.143 646.42 835.325C629.45 840.616 612.174 843.007 594.44 838.912C569.964 833.264 555.182 817.594 548.057 794.115C538.465 762.495 539.458 730.671 546.505 698.746C554.444 662.7 569.302 629.528 589.021 598.519C610.088 565.373 635.861 536.424 667.385 512.766C689.266 496.333 713.081 484.199 740.33 479.696C753.51 477.509 766.638 476.873 779.614 481.223C793.303 485.802 801.47 495.468 806.1 508.747C812.817 527.978 812.029 547.286 807.042 566.696C801.19 589.514 790.733 610.119 777.324 629.35C775.62 631.792 773.839 633.344 770.76 631.411C766.918 629.02 766.129 627.086 768.114 623.5C777.324 606.863 784.525 589.463 788.29 570.74C791.827 553.188 791.852 535.864 785.466 518.821C780.607 505.872 773.126 501.268 759.489 503.278C747.429 505.058 736.819 510.629 726.617 516.811C689.75 539.12 659.93 568.934 635.047 603.912C617.339 628.791 603.065 655.501 593.092 684.374C584.059 710.55 578.818 737.387 580.803 765.242C581.515 775.392 583.474 785.262 588.868 794.166C597.188 807.877 609.477 812.939 625.073 811.413C635.174 810.421 644.512 806.809 653.799 803.222C685.959 790.833 714.328 772.161 740.737 750.284C760.278 734.106 778.291 716.324 795.542 697.78C796.814 696.406 797.908 694.727 798.671 692.997C804.854 678.828 813.682 666.643 825.819 657.002C828.058 655.221 830.526 653.593 833.146 652.423C841.135 648.811 845.181 650.235 849.379 657.536L849.455 657.409ZM1147.27 717.876C1147.6 718.181 1147.95 718.486 1148.28 718.792C1150.09 717.952 1152 717.265 1153.68 716.248C1163.45 710.194 1169.55 701.036 1174.46 690.988C1178.28 683.203 1178.23 683.178 1171.51 677.709C1171.33 677.581 1171.08 677.556 1170.29 677.276C1159.53 689.003 1149.96 701.519 1147.24 717.85L1147.27 717.876ZM840.525 677.251C832.205 684.272 821.112 701.087 818.288 711.186C817.652 713.501 817.55 715.968 817.168 718.588C829.712 716.07 843.578 696.711 847.14 682.669C845.003 680.914 842.866 679.184 840.525 677.251Z" fill="white"/>
<path d="M240.986 697.347C250.069 694.88 258.236 692.488 266.48 690.479C290.549 684.628 315 681.55 339.705 680.303C345.251 680.024 350.798 679.642 356.319 679.667C358.812 679.667 359.347 678.192 360.008 676.539C367.056 658.833 372.628 640.721 375.605 621.795C378.963 600.401 378.531 579.211 372.195 558.479C362.018 525.206 340.239 502.464 307.926 489.77C286.682 481.426 264.521 479.238 241.902 480.536C215.034 482.062 189.184 488.396 164.631 498.953C139.977 509.535 118.249 524.671 102.627 547.159C100.337 550.466 98.8613 554.383 97.3092 558.148C95.9353 561.455 94.0525 562.6 90.5668 561.481C87.5391 560.514 87.0303 558.53 87.8953 555.528C90.9994 544.717 97.2584 535.788 104.51 527.47C122.218 507.068 144.557 493.408 169.237 483.181C189.667 474.71 210.709 468.402 232.742 465.654C260.704 462.144 288.437 463.009 315.203 472.446C364.486 489.846 395.221 523.883 405.755 575.523C411.734 604.904 408.35 633.751 400.437 662.268C398.987 667.482 397.308 672.596 395.73 677.785C395.73 677.861 395.807 677.989 396.265 678.955C404.152 678.955 412.446 679.006 420.741 678.853C421.529 678.853 422.496 677.582 423.031 676.691C424.455 674.351 425.295 671.502 427.101 669.543C431.808 664.532 441.426 664.557 446.591 669.161C449.593 671.858 448.855 675.038 447.634 678.141C445.293 684.068 442.723 689.919 440.434 695.872C437.151 704.368 438.703 706.225 447.761 704.902C455.496 703.783 462.162 700.145 468.421 695.821C474.273 691.802 479.794 687.274 485.493 683.025C487.121 681.804 488.826 680.253 490.709 679.922C492.541 679.591 495.111 680.049 496.485 681.194C498.545 682.924 497.731 685.34 496.001 687.248C486.613 697.601 475.977 706.403 463.765 713.221C455.267 717.952 446.438 721.692 436.566 722.099C434.175 722.2 431.707 722.099 429.391 721.59C419.214 719.326 415.27 711.135 416.263 700.222C416.568 696.915 417.357 693.659 417.84 690.835C408.961 690.835 400.31 690.784 391.659 690.937C390.82 690.937 389.726 692.234 389.242 693.175C377.946 715.408 364.283 736.064 348.05 754.991C322.404 784.881 292.457 809.047 255.361 823.394C226.254 834.664 196.155 838.607 165.242 833.392C152.597 831.255 140.817 826.498 132.675 815.712C127.103 808.335 125.907 799.864 127.586 790.986C130.182 777.274 137.611 766.056 146.414 755.677C161.426 737.972 179.337 723.93 200.557 714.289C204.933 712.305 209.36 710.346 213.609 708.082C214.958 707.37 216.204 705.92 216.815 704.521C228.29 678.803 239.714 653.059 251.087 627.29C259.915 607.244 268.795 587.199 277.42 567.077C283.705 552.425 304.644 553.01 312.099 562.473C315 566.136 314.567 570.053 312.226 573.589C309.122 578.295 305.637 582.798 302.075 587.173C288.92 603.378 278.591 621.312 269.253 639.856C259.763 658.681 250.68 677.683 241.062 697.296L240.986 697.347ZM353.419 692.438C351.434 692.438 350.823 692.387 350.238 692.438C332.861 694.142 315.407 695.312 298.131 697.678C276.861 700.603 256.175 706.301 236.075 713.882C234.396 714.518 232.641 716.172 231.877 717.8C226.763 728.433 222.184 739.321 216.891 749.877C214.118 755.423 210.531 760.638 206.841 765.624C204.577 768.702 200.608 769.211 197.682 767.684C194.247 765.878 193.306 762.775 194.374 759.391C196.639 752.294 199.234 745.324 201.804 738.328C203.152 734.691 204.704 731.155 206.46 726.856C204.399 727.797 203.178 728.28 202.007 728.865C186.08 736.828 172.29 747.639 160.204 760.638C152.953 768.447 146.389 776.766 143.285 787.221C139.977 798.388 143.514 806.656 153.945 811.744C169.491 819.324 185.978 820.113 202.694 817.544C228.392 813.575 250.374 801.288 270.881 786.051C296.553 766.972 318.155 743.874 336.702 717.901C342.402 709.914 347.49 701.468 353.419 692.387V692.438Z" fill="white"/>
<path d="M248.924 871.473C253.962 868.98 259.025 866.462 264.292 863.867C317.391 966.078 397.155 1038.45 506.331 1075.74C615.202 1112.91 722.902 1106.73 826.684 1056.82C930.695 1006.83 1001.48 925.758 1042.24 817.696C1047.61 819.604 1053 821.512 1058.37 823.42C1009.24 968.342 868.054 1100.47 678.606 1115.02C470.736 1131 313.04 1005.69 248.899 871.448L248.924 871.473Z" fill="white"/>
<path d="M300.548 430.168C295.866 426.784 291.388 423.528 286.402 419.942C320.826 372.499 362.654 333.298 412.472 302.874C500.479 249.123 596.068 228.085 698.222 241.008C911.18 267.973 1041.17 432.076 1071.8 576.769C1066.36 578.092 1060.91 579.389 1055.21 580.763C1027.81 471.861 968.249 385.218 874.237 323.886C780.276 262.605 676.875 242.229 566.656 262.402C456.132 282.625 368.099 340.167 300.573 430.168H300.548Z" fill="white"/>
<path d="M669.192 312.897C667.512 324.293 665.833 335.664 664.078 347.518C661.126 347.289 658.2 347.086 654.816 346.832C656.317 337.725 657.768 329.101 659.193 320.503C660.617 311.956 662.195 303.434 663.416 294.861C663.798 292.266 664.841 291.707 667.182 291.859C675.552 292.47 675.476 292.444 676.443 300.712C677.613 310.836 678.962 320.961 680.336 332.128C681.455 328.287 682.244 325.362 683.134 322.436C685.755 313.914 688.452 305.443 690.971 296.896C691.531 295.039 692.421 294.301 694.304 294.53C697.153 294.886 699.978 295.192 703.311 295.573C702.725 313.965 702.115 332.23 701.504 351.054C698.273 350.8 695.245 350.596 691.658 350.317C692.294 337.979 692.904 325.896 693.515 313.813C689.673 325.234 685.831 336.682 681.913 348.307C679.7 348.154 677.639 348.307 675.73 347.747C674.865 347.518 673.924 346.018 673.771 345C672.27 334.29 670.922 323.555 669.548 312.846C669.421 312.846 669.293 312.846 669.166 312.846L669.192 312.897Z" fill="white"/>
<path d="M419.29 364.053C421.224 362.731 423.107 361.637 424.735 360.288C426.796 358.559 428.425 358.991 430.435 360.467C439.212 367.03 448.092 373.44 456.946 379.901C457.328 380.181 457.76 380.385 459.185 381.173C452.086 370.693 445.573 361.077 438.882 351.207C441.782 349.35 444.199 347.824 447.049 345.992C457.175 361.637 467.174 377.027 477.351 392.748C474.833 394.35 472.619 395.953 470.176 397.2C469.413 397.581 467.887 397.225 467.098 396.665C458.524 390.636 450.051 384.48 441.528 378.35C440.815 377.841 440.052 377.358 438.907 377.281C445.039 386.541 451.196 395.8 457.582 405.416C454.809 407.222 452.341 408.825 449.517 410.682C439.416 395.088 429.442 379.698 419.29 364.053Z" fill="white"/>
<path d="M773.584 312.642C779.911 314.576 783.083 318.561 783.1 324.598C783.1 334.469 783.1 344.364 783.1 355.048C787.323 343.372 791.293 332.357 795.414 320.961C798.595 322.207 801.343 323.25 804.497 324.471C797.78 341.744 791.165 358.813 784.397 376.213C781.624 375.195 778.953 374.483 776.586 373.211C775.696 372.728 775.085 370.896 775.085 369.701C774.984 359.347 775.085 348.968 775.085 338.615C775.085 337.699 775.009 336.758 774.5 335.74C770.531 346.348 766.562 356.956 762.466 367.869C759.285 366.648 756.537 365.58 753.459 364.409C760.201 347.035 766.867 329.915 773.584 312.642Z" fill="white"/>
<path d="M325.1 894.393C339.298 882.004 352.986 870.074 366.776 858.042C372.323 862.188 376.877 866.894 379.803 872.974C382.449 878.494 381.966 883.989 379.014 889.229C374.129 897.903 366.827 904.136 357.998 908.384C350.085 912.2 342.224 911.793 335.507 905.611C331.817 902.228 328.688 898.285 325.126 894.393H325.1ZM367.845 871.727C358.354 880.02 348.813 888.339 339.323 896.657C341.766 900.702 345.226 901.541 348.686 900.193C358.176 896.53 365.784 890.425 370.593 881.318C372.577 877.527 371.636 874.856 367.845 871.727Z" fill="white"/>
<path d="M924.207 936.621C913.572 927.972 903.42 919.704 893.268 911.462C890.088 908.893 886.984 906.247 883.676 903.805C881.793 902.406 881.106 901.058 882.684 899.099C885.381 895.716 887.747 892.002 890.826 889.051C897.466 882.691 905.913 881.75 914.106 886.075C921.306 889.89 927.565 894.927 932.323 901.643C937.641 909.122 938.404 917.058 933.417 924.919C930.797 929.015 927.413 932.627 924.232 936.646L924.207 936.621ZM924.105 922.299C927.54 918.585 928.023 915.583 925.479 911.513C920.721 903.856 913.979 898.31 905.837 894.622C900.901 892.383 897.39 893.808 894.744 898.438C904.438 906.324 914.182 914.235 924.105 922.299Z" fill="white"/>
<path d="M585.866 352.911C584.415 349.401 583.067 346.094 581.668 342.787C580.701 340.472 579.861 338.055 578.64 335.868C577.088 333.095 574.722 332.103 571.49 333.68C572.814 340.625 574.162 347.544 575.587 355.048C572.127 355.76 568.794 356.447 565.155 357.185C563.501 349.426 561.898 342.075 560.372 334.723C558.438 325.311 556.632 315.873 554.596 306.486C554.062 304.07 554.647 302.849 557.039 302.34C561.491 301.373 565.893 300.101 570.371 299.313C576.376 298.27 582.66 300.992 585.204 305.367C588.919 311.727 588.715 319.104 584.67 324.395C584.034 325.234 583.271 325.998 582.533 326.862C592.125 331.899 591.412 342.914 597.468 350.647C593.219 351.512 589.835 352.174 585.815 352.988L585.866 352.911ZM569.506 324.649C573.679 324.471 575.714 323.148 576.706 320.121C577.877 316.534 576.757 311.396 574.238 309.386C571.796 307.453 569.251 307.555 566.478 309.056C567.496 314.372 568.514 319.536 569.506 324.649Z" fill="white"/>
<path d="M589.504 1052.77C590.624 1045.29 591.718 1038.17 592.761 1031.05C594.16 1021.53 595.61 1011.99 596.908 1002.48C597.29 999.632 598.358 998.105 601.513 998.64C605.177 999.25 608.968 999.352 612.555 1000.19C621.079 1002.2 625.964 1007.7 627.262 1016.45C628.661 1025.93 626.956 1035.02 622.962 1043.51C618.382 1053.2 609.477 1056.97 598.078 1054.78C595.28 1054.25 592.532 1053.48 589.504 1052.77ZM607.136 1008.38C605.253 1020.92 603.371 1033.54 601.488 1046.13C605.762 1047.18 608.739 1046.13 610.647 1043.08C616.296 1034.08 617.644 1024.23 615.532 1013.95C614.718 1009.93 611.64 1008.18 607.136 1008.38Z" fill="white"/>
<path d="M568.87 1021.23C574.696 1029.95 569.71 1039.21 570.982 1048.7C567.369 1047.74 564.265 1047.1 561.313 1046.03C560.626 1045.78 560.016 1044.12 560.067 1043.13C560.296 1038.58 560.779 1034.02 561.11 1029.45C561.441 1024.48 560.245 1022.86 555.64 1021.99C553.731 1028.76 551.848 1035.58 549.813 1042.83C546.455 1041.96 543.147 1041.1 539.432 1040.13C541.086 1033.87 542.587 1027.84 544.267 1021.86C547.192 1011.33 550.297 1000.83 553.095 990.27C553.782 987.676 554.953 986.836 557.37 987.497C561.898 988.719 566.504 989.685 570.88 991.237C577.444 993.577 580.93 998.131 580.803 1004.01C580.65 1010.98 578.207 1016.73 571.363 1019.75C570.524 1020.13 569.71 1020.59 568.895 1021.03C568.819 1021.05 568.844 1021.25 568.844 1021.2L568.87 1021.23ZM557.955 1013.57C559.456 1013.88 560.474 1014.23 561.517 1014.31C565.41 1014.51 568.565 1011.36 569.481 1006.53C570.295 1002.18 568.946 999.25 565.308 998.207C564.366 997.927 562.356 998.461 562.153 999.047C560.601 1003.75 559.354 1008.56 557.955 1013.57Z" fill="white"/>
<path d="M837.446 396.996C838.21 389.492 842.917 381.275 849.481 374.254C852.941 370.54 857.19 367.284 861.693 364.944C867.393 361.967 873.448 362.527 878.588 366.902C883.753 371.303 884.897 377.154 883.015 383.336C879.325 395.343 872.227 405.085 861.77 412.081C856.427 415.642 850.422 416.1 844.698 412.615C839.838 409.664 837.166 405.289 837.472 396.996H837.446ZM847.42 400.786C848.056 401.804 848.692 404.093 849.71 404.297C851.618 404.628 854.29 404.424 855.689 403.254C863.602 396.716 869.784 388.805 872.812 378.833C873.245 377.383 872.787 374.89 871.769 374.025C870.726 373.135 868.461 373.415 866.782 373.644C865.688 373.796 864.568 374.61 863.703 375.399C857.266 381.351 852.025 388.194 848.641 396.335C848.132 397.53 847.929 398.853 847.42 400.812V400.786Z" fill="white"/>
<path d="M605.864 294.047C609.477 293.742 612.683 293.462 616.372 293.157C616.804 298.677 617.262 303.917 617.619 309.157C618.102 316.484 618.458 323.835 618.993 331.162C619.12 332.942 619.298 335.003 620.29 336.351C621.333 337.776 623.343 339.302 624.946 339.302C626.244 339.302 628.254 337.292 628.661 335.817C629.373 333.222 629.348 330.348 629.195 327.6C628.61 316.534 627.872 305.469 627.185 294.403C627.16 293.945 627.287 293.462 627.363 292.673C630.798 292.393 634.182 292.114 638.1 291.783C638.787 305.825 639.805 319.384 639.932 332.968C639.983 339.404 637.413 345.356 630.671 348.002C624.641 350.368 618.789 350.011 613.777 345.509C609.401 341.591 608.51 336.046 608.001 330.704C606.958 319.307 606.475 307.86 605.762 296.464C605.711 295.777 605.839 295.064 605.889 294.072L605.864 294.047Z" fill="white"/>
<path d="M476.054 951.629C479.132 953.283 482.058 954.86 485.468 956.717C481.677 963.712 477.987 970.53 474.298 977.373C471.805 982.028 469.133 986.633 466.92 991.44C464.833 995.994 465.469 999.148 468.039 1000.5C470.634 1001.84 473.509 1000.55 476.028 996.146C481.371 986.734 486.46 977.169 491.65 967.655C492.617 965.875 493.584 964.069 494.729 961.881C497.935 963.534 500.962 965.112 504.372 966.867C500.097 974.804 496.052 982.537 491.752 990.168C488.979 995.078 486.358 1000.19 482.847 1004.54C475.036 1014.23 460.864 1012.5 456.234 1001.44C455.191 998.945 454.885 995.714 455.419 993.043C456.183 989.202 457.684 985.411 459.465 981.926C464.426 972.311 469.718 962.848 474.883 953.334C475.163 952.825 475.519 952.367 476.003 951.655L476.054 951.629Z" fill="white"/>
<path d="M766.206 986.607C769.717 985.259 772.821 984.063 776.281 982.715C777.426 985.666 778.546 988.413 779.563 991.186C783.176 1001.01 787.222 1010.7 790.224 1020.69C793.811 1032.65 787.629 1041.45 776.001 1042.19C771.193 1042.5 767.274 1040.74 764.272 1037.03C763.28 1035.8 762.262 1034.53 761.677 1033.13C756.385 1020.36 751.194 1007.57 745.775 994.264C749.464 992.89 752.645 991.72 756.232 990.397C759.769 999.606 763.102 1008.46 766.562 1017.26C768.038 1021.08 769.615 1024.84 771.371 1028.53C772.668 1031.25 774.856 1033.16 778.062 1031.94C781.192 1030.74 781.319 1027.84 780.428 1025.2C777.833 1017.57 775.034 1010.01 772.261 1002.46C770.353 997.266 768.317 992.127 766.206 986.582V986.607Z" fill="white"/>
<path d="M856.07 927.87C859.353 924.436 862.253 921.409 865.281 918.229C880.75 928.913 896.194 939.546 911.536 950.128C911.409 950.561 911.409 950.714 911.358 950.79C904.997 958.472 904.87 958.625 897.085 952.749C894.337 950.663 892.683 950.714 890.622 953.41C889.553 954.809 887.925 955.75 886.526 956.946C889.121 961.016 891.385 964.527 893.548 967.885C891.08 970.454 888.765 972.845 886.144 975.567C875.992 959.439 865.968 943.489 856.096 927.844L856.07 927.87ZM870.166 932.551C869.962 932.754 869.759 932.958 869.555 933.161C873.499 938.859 877.468 944.557 881.106 949.823C883.015 948.119 884.668 946.618 886.628 944.863C881.106 940.742 875.636 936.646 870.166 932.525V932.551Z" fill="white"/>
<path d="M913.623 858.855C916.192 855.04 918.482 851.656 920.899 848.095C938.353 855.32 955.629 862.493 973.286 869.819C971.277 872.898 969.445 875.67 967.562 878.545C964.229 877.197 961.074 876.052 958.046 874.627C956.112 873.711 954.968 874.042 953.95 875.899C952.856 877.883 951.533 879.766 950.057 882.081C952.601 884.497 955.222 886.812 957.537 889.382C958.173 890.094 958.504 891.849 958.072 892.638C956.799 895.054 955.069 897.217 953.365 899.71C940.032 885.998 926.929 872.567 913.623 858.881V858.855ZM947.894 869.769C940.465 866.309 933.595 863.078 926.7 859.873C926.624 860 926.548 860.127 926.471 860.255C932.094 865.47 937.717 870.71 943.569 876.128C945.07 873.915 946.342 872.083 947.894 869.794V869.769Z" fill="white"/>
<path d="M671.914 1059.67C671.38 1059.92 671.253 1060 671.151 1060C664.994 1060.2 661.389 1057.39 660.338 1051.55C660.083 1050.13 659.854 1048.73 659.473 1046.57C656.725 1046.57 653.875 1046.41 651.051 1046.67C650.262 1046.74 649.244 1047.99 648.965 1048.91C648.201 1051.42 647.998 1054.12 647.133 1056.61C646.802 1057.58 645.377 1058.7 644.309 1058.83C641.815 1059.16 639.271 1058.93 636.167 1058.93C637.897 1051.78 639.5 1045.09 641.179 1038.45C643.851 1027.87 646.7 1017.31 649.27 1006.7C649.855 1004.26 650.771 1003.04 653.366 1003.55C654.079 1003.68 654.816 1003.65 655.529 1003.68C663.264 1004.08 663.213 1004.08 664.383 1011.59C666.876 1027.61 669.395 1043.64 671.914 1059.69V1059.67ZM658.658 1037.99C657.793 1030.41 656.928 1023.09 656.089 1015.76C654.791 1019.35 654.13 1022.96 653.417 1026.57C652.679 1030.26 651.916 1033.95 651.076 1038.12C653.163 1038.12 654.816 1038.12 656.47 1038.12C657.055 1038.12 657.615 1038.07 658.658 1038.02V1037.99Z" fill="white"/>
<path d="M722.189 1035.07C723.436 1041.81 724.657 1048.37 725.955 1055.32C722.215 1055.98 718.882 1056.56 715.218 1057.22C711.885 1039.11 708.628 1021.43 705.321 1003.42C712.572 1000.6 719.823 998.385 727.482 999.886C735.471 1001.44 740.33 1010.09 739.211 1019.37C738.244 1027.33 733.435 1031.76 726.209 1034.08C724.963 1034.48 723.691 1034.71 722.215 1035.09L722.189 1035.07ZM720.637 1025.71C725.573 1025.78 728.219 1023.54 728.601 1019.17C729.084 1013.75 726.387 1008.94 722.367 1008.31C721.35 1008.15 720.128 1008.26 719.238 1008.74C718.526 1009.12 717.661 1010.32 717.762 1011C718.577 1015.94 719.645 1020.85 720.612 1025.71H720.637Z" fill="white"/>
<path d="M360.975 932.398C373.722 918.661 386.24 905.179 399.012 891.442C404.966 896.962 410.767 902.33 416.873 907.977C414.762 910.317 412.777 912.505 410.487 915.023C407.129 912.022 403.872 909.096 400.488 906.044C397.74 909.071 395.018 912.022 392.092 915.252C395.196 918.178 398.046 920.874 401.226 923.876C399.216 926.115 397.257 928.277 395.145 930.643C391.965 927.717 388.962 924.97 385.706 921.994C382.373 925.631 379.141 929.116 375.681 932.881C379.218 936.188 382.525 939.292 386.087 942.624C383.95 944.965 381.889 947.203 379.625 949.696C373.366 943.896 367.31 938.3 361.001 932.449L360.975 932.398Z" fill="white"/>
<path d="M537.295 990.703C532.944 988.998 529.001 987.472 524.752 985.818C523.225 989.66 521.749 993.399 520.146 997.444C524.014 999.097 527.703 1000.7 531.723 1002.4C530.629 1005.13 529.637 1007.64 528.466 1010.57C524.574 1009.07 520.808 1007.64 516.686 1006.07C514.803 1010.62 513.022 1014.92 511.063 1019.65C515.414 1021.53 519.663 1023.37 524.243 1025.32C523.123 1028.2 522.055 1030.95 520.884 1034C512.921 1030.79 505.262 1027.69 497.401 1024.54C504.372 1007.21 511.191 990.27 518.162 972.921C525.719 975.923 532.944 978.798 540.679 981.876C539.56 984.776 538.491 987.497 537.27 990.652L537.295 990.703Z" fill="white"/>
<path d="M728.321 300.686C736.361 302.62 743.918 304.426 751.856 306.334C751.067 309.513 750.329 312.337 749.541 315.542C745.215 314.474 741.17 313.482 736.794 312.413C735.725 316.458 734.707 320.35 733.588 324.624C737.659 325.692 741.653 326.735 745.902 327.829C745.19 330.78 744.554 333.4 743.816 336.427C739.745 335.511 735.852 334.647 731.603 333.68C730.357 338.539 729.186 343.143 727.94 347.976C732.57 349.197 736.946 350.342 741.806 351.614C741.119 354.59 740.457 357.414 739.694 360.695C731.527 358.711 723.563 356.803 715.142 354.768C719.518 336.733 723.818 319.027 728.296 300.661L728.321 300.686Z" fill="white"/>
<path d="M916.37 412.641C914.335 410.326 912.834 407.807 910.62 406.434C908.992 405.416 905.964 405.06 904.387 405.925C902.809 406.79 901.614 409.512 901.486 411.521C901.308 414.065 902.377 416.685 902.911 419.28C904.947 429.048 901.766 436.858 894.21 440.521C886.933 444.057 878.104 441.666 871.972 434.34C870.37 432.432 869.097 430.219 867.418 427.777C870.013 425.741 872.43 423.859 874.898 421.926C876.679 424.368 878.231 426.784 880.114 428.921C882.277 431.414 885.05 433.068 888.409 431.465C891.589 429.964 892.81 427.115 892.276 423.681C891.818 420.73 891.106 417.805 890.546 414.854C889.019 406.866 892.225 400.023 899.146 396.36C905.252 393.129 912.681 394.503 918.355 399.947C924.741 406.052 924.334 408.291 916.37 412.641Z" fill="white"/>
<path d="M844.367 950.586C841.644 952.291 838.973 953.486 836.886 955.369C833.273 958.599 834.495 963.713 839.176 964.883C841.644 965.519 844.418 965.315 847.013 965.01C858.182 963.687 867.342 969.919 868.588 979.891C869.657 988.566 861.108 999.581 852.381 1000.57C851.618 1000.65 850.447 999.886 849.99 999.148C848.768 997.24 847.852 995.154 846.86 993.272C849.99 991.415 853.272 990.041 855.765 987.777C857.292 986.404 858.666 983.427 858.208 981.672C857.699 979.688 855.282 977.449 853.246 976.813C850.524 975.974 847.318 976.305 844.367 976.559C832.917 977.475 824.114 969.69 824.725 959.108C825.183 951.477 832.154 945.422 838.795 943.285C839.405 943.082 840.677 943.718 841.034 944.328C842.331 946.465 843.4 948.729 844.341 950.586H844.367Z" fill="white"/>
<path d="M485.9 376.162C489.36 375.119 492.439 374.483 495.238 373.237C497.833 372.066 499.919 370.031 499.563 366.775C499.181 363.417 497.146 361.306 493.889 360.543C490.862 359.831 487.732 359.5 484.679 358.762C474.731 356.346 469.057 348.078 471.067 339.047C472.67 331.797 481.219 325.692 490.022 325.743C490.811 328.465 491.65 331.289 492.465 334.061C489.844 334.85 487.35 335.333 485.137 336.351C482.593 337.521 480.837 339.531 481.32 342.634C481.778 345.611 483.661 347.289 486.587 347.824C490.022 348.434 493.533 348.765 496.866 349.655C504.041 351.589 508.544 356.32 509.791 363.646C511.012 371.023 507.832 376.645 501.573 380.309C498.622 382.038 495.212 383.081 491.956 384.251C489.259 385.193 487.605 384.251 487.172 381.224C486.918 379.444 486.333 377.739 485.926 376.111L485.9 376.162Z" fill="white"/>
<path d="M465.597 946.338C463.434 948.577 461.449 950.637 459.49 952.672C451.374 945.804 445.293 946.084 438.602 954.326C435.396 958.269 432.673 962.848 430.765 967.528C428.221 973.735 430.638 978.492 436.643 981.469C437.279 981.774 437.915 982.13 438.907 982.639C437.533 985.259 436.235 987.777 434.963 990.194C426.491 988.998 418.96 980.96 418.451 972.819C417.56 958.447 431.325 940.487 445.471 937.613C452.57 936.163 461.45 939.953 465.597 946.313V946.338Z" fill="white"/>
<path d="M813.606 391.629C810.375 389.873 807.347 388.22 804.09 386.465C811.443 373.033 818.644 359.881 825.997 346.45C823.096 344.822 820.399 343.321 817.499 341.693C819.127 338.64 820.628 335.842 822.206 332.866C831.314 337.852 840.041 342.66 849.048 347.595C847.42 350.571 845.944 353.293 844.29 356.346C841.415 354.794 838.693 353.344 835.589 351.69C828.312 364.918 821.01 378.172 813.581 391.654L813.606 391.629Z" fill="white"/>
<path d="M506.229 317.247C515.898 313.965 525.337 310.785 535.056 307.478C536.176 310.556 537.244 313.431 538.44 316.687C535.285 317.908 532.334 319.027 529.102 320.248C533.962 334.621 538.745 348.816 543.63 363.29C540.272 364.511 537.142 365.605 533.453 366.953C528.543 352.504 523.683 338.259 518.696 323.632C515.669 324.649 512.794 325.616 509.486 326.71C508.417 323.606 507.4 320.732 506.204 317.247H506.229Z" fill="white"/>
<path d="M838.566 1011.59C831.162 1015.89 824.114 1019.98 816.685 1024.31C807.347 1008.2 798.111 992.331 788.723 976.152C791.878 974.295 794.829 972.565 798.086 970.657C805.871 984.012 813.53 997.189 821.443 1010.8C825.488 1008.48 829.305 1006.32 833.63 1003.85C835.156 1006.27 836.734 1008.71 838.566 1011.59Z" fill="white"/>
<path d="M437.151 420.73C434.302 423.07 431.63 425.258 428.628 427.726C416.797 413.328 405.093 399.082 393.16 384.557C396.061 382.191 398.732 380.029 401.709 377.612C413.566 392.01 425.27 406.281 437.151 420.73Z" fill="white"/>
<path d="M462.035 640.365C461.399 642.273 461.093 644.384 460.05 646.038C456.641 651.431 451.756 655.043 445.42 656.264C438.856 657.536 434.607 653.364 435.472 646.776C436.363 639.933 442.876 632.81 449.466 631.487C455.928 630.19 461.577 634.235 462.035 640.391V640.365Z" fill="white"/>
<path d="M947.894 869.794C946.342 872.083 945.07 873.915 943.569 876.128C937.743 870.71 932.094 865.495 926.471 860.255C926.548 860.127 926.624 860 926.7 859.873C933.595 863.104 940.49 866.309 947.894 869.769V869.794Z" fill="white"/>
</svg>
