<svg width="1005" height="2496" viewBox="0 0 1005 2496" fill="none" xmlns="http://www.w3.org/2000/svg">
<path d="M569.136 409.019L569.136 400.877M569.136 409.019L570.983 489.149M569.136 409.019L560.22 409.019M627.708 53.0379C627.87 58.4933 626.588 66.9687 626.588 66.9687C626.588 66.9687 614.344 79.7881 608.562 89.4375C603.044 98.6442 599.64 104.761 598.372 115.419C597.561 122.241 597.237 127.615 597.243 132.409M627.708 53.0379C627.659 51.4195 627.465 49.4419 627.252 47.6641C626.872 44.4948 625.882 41.4444 624.32 38.6603C620.195 31.3047 610.932 16.343 600.646 9.94249C589.587 3.06124 570.733 1.19085 564.277 0.73949C562.779 0.634735 561.286 0.728841 559.802 0.966026L554.99 1.73573C546.063 3.16348 538.695 9.48674 535.93 18.0941L527.963 42.8955L527.721 43.6755M627.708 53.0379C627.708 53.0379 619.485 61.1718 614.902 66.9687C609.69 73.5621 606.651 77.335 603.03 84.92C599.062 93.231 597.418 98.366 596.218 107.497C594.949 117.151 597.243 132.409 597.243 132.409M435.674 352.968C435.674 352.968 435.953 343.685 437.45 337.208C438.879 331.028 439.87 327.609 441.484 321.475C442.658 317.017 443.95 312.324 445.325 307.486M435.674 352.968L435.671 356.726C435.666 363.829 439.089 370.497 444.864 374.631L469.104 391.987M435.674 352.968C435.674 352.968 438.837 358.566 441.484 361.685C447.373 368.621 454.665 369.753 460.624 376.628C466.086 382.93 469.104 391.987 469.104 391.987M469.104 391.987L469.104 400.877M469.104 400.877L468.955 409.019M469.104 400.877L528.632 400.877M597.243 132.409C597.253 141.937 598.566 149.17 599.945 160.918C601.985 178.302 608.63 202.934 611.927 214.503C613.144 218.771 613.368 223.256 612.508 227.61V227.61M612.508 227.61L612.284 228.741C611.561 232.398 610.462 235.97 609.003 239.4L596.811 268.075L583.089 304.372C583.089 304.372 581.666 308.768 579.775 315.113M612.508 227.61C612.508 227.61 613.853 231.601 613.818 234.241C613.773 237.779 611.197 242.914 611.197 242.914L579.775 315.113M579.775 315.113C577.087 324.128 573.453 337.077 571.612 346.936C569.711 357.12 569.136 371.723 569.136 371.723L569.136 400.877M452.94 1314.45C452.94 1314.45 452.467 1322.68 447.498 1329.37M452.94 1314.45L453.38 1287.88M452.94 1314.45L452.94 1317.98M810.292 1341.59C810.292 1341.59 794.049 1334.45 783.443 1343.82C763.519 1361.43 771.154 1393.75 753.398 1418.88C732.289 1448.75 715.751 1468.95 679.673 1475C648.667 1480.2 623.013 1476.77 602.164 1453.24C594.548 1444.65 588.509 1433.61 586.094 1428.9M584.953 1426.61C584.953 1426.61 585.353 1427.46 586.094 1428.9M584.953 1426.61L584.846 1419.12M584.953 1426.61L584.953 1442M581.24 1161.53L580.666 1121.12M581.24 1161.53L455.567 1161.53M581.24 1161.53L581.306 1166.28M586.094 1428.9C586.094 1428.9 592.967 1450.15 602.164 1460.49C614.534 1474.4 625.932 1479.05 644.085 1483.18C663.857 1487.68 676.715 1486.01 695.865 1479.35C718.028 1471.63 729.052 1461.53 744.129 1443.55C756.834 1428.4 761.584 1418.49 769.16 1400.23C775.815 1384.18 776.936 1363.18 787.428 1348.92C791.561 1343.31 799.76 1341.59 805.088 1341.59C820.952 1341.59 826.097 1347.63 834.165 1356.16C842.234 1364.68 848.865 1383.03 854.214 1406.75C868.368 1469.5 844.446 1526.34 820.619 1583.03C805.962 1617.91 794.021 1624.49 790.032 1660.35C788.645 1672.82 793.263 1692.26 796.431 1703.64C798.14 1709.78 800.565 1715.67 803.352 1721.4L871.561 1861.71C871.561 1861.71 918.93 1971.8 906.948 2043.45C902.943 2067.4 899.98 2087.41 888.408 2110.34C877.43 2132.1 864.485 2148.19 843.266 2166.81C814.282 2192.25 796.369 2196.41 755.622 2212.31C712.348 2229.2 636.615 2236.36 636.615 2236.36C636.615 2236.36 566.928 2241.7 520.364 2240.62C480.319 2239.7 421.112 2233.9 405.637 2232.33C403.068 2232.07 400.556 2231.78 398.002 2231.39C374.334 2227.85 247.179 2206.2 198.187 2143.31C167.883 2104.41 153.058 2084.51 148.468 2024.59C143.136 1954.98 158.16 1888.58 184.058 1823.75C194.055 1798.72 212.691 1762.91 216.871 1754.95C217.441 1753.87 217.932 1752.77 218.36 1751.62L245.602 1678.56C245.602 1678.56 259.035 1639.37 257.35 1611.26C256.279 1593.4 247.954 1566.64 243.609 1553.69C241.91 1548.63 239.828 1543.81 237.512 1539C224.261 1511.47 177.743 1411.73 179.395 1371.54C180.547 1343.5 180.86 1322.35 198.643 1300.64C212.612 1283.59 226.321 1275.24 249.971 1271.52C258.743 1270.14 276.757 1268.84 276.757 1268.84M447.498 1329.37C445.226 1332.43 442.295 1334.88 438.575 1335.53C425.117 1337.87 386.626 1315.16 365.558 1301.88C356.014 1295.86 346.199 1290.3 335.944 1285.6L331.42 1283.52L317.196 1277C313.397 1275.26 309.471 1273.81 305.395 1272.89C298.562 1271.34 287.082 1269.1 276.757 1268.84M447.498 1329.37C447.498 1329.37 441.115 1329.43 435.936 1329.37C424.967 1329.23 410.756 1321.88 400.395 1315.45C390.9 1309.56 381.559 1303.37 371.648 1298.21L333.825 1278.51C330.74 1276.91 327.602 1275.42 324.344 1274.2C318.03 1271.84 306.8 1268.05 298.298 1267.44C289.889 1266.85 276.757 1268.84 276.757 1268.84M452.94 1406.55L439.335 1399.16L404.599 1377.8C402.394 1376.44 399.855 1375.72 397.266 1375.72L391.697 1375.72C389.801 1375.72 387.94 1376.23 386.306 1377.19L385.29 1377.79C382.02 1379.71 379.657 1382.86 378.727 1386.54V1386.54C377.858 1389.98 378.075 1393.6 379.35 1396.91L385.236 1412.19C385.416 1412.66 385.583 1413.12 385.74 1413.6C386.723 1416.57 390.558 1428.34 392.463 1436.51C398.514 1462.47 396.385 1492.66 395.576 1520.37C394.999 1540.13 392.657 1543.81 390.201 1558.39C383.403 1598.75 369.049 1617.85 357.202 1657.03C353.288 1669.97 349.643 1676.93 347.619 1690.3C345.285 1705.72 345.752 1718.9 349.975 1733.91C355.758 1754.46 368.035 1765.6 384.534 1776.28C397.892 1784.92 419.755 1785.86 419.755 1785.86L418.469 1781.91M452.94 1406.55L452.812 1412.89M452.94 1406.55L452.94 1388.3M584.953 1466.77C584.953 1466.77 595.325 1479.23 604.601 1485.76C623.044 1498.77 634.924 1504.81 660.107 1504.17C677.796 1503.71 693.68 1504.48 712.251 1494.3C745.959 1475.82 768.908 1448.89 783.443 1413.2C787.787 1402.54 790.484 1387.95 791.84 1379.05C792.637 1373.82 794.137 1368.58 797.738 1364.7C799.534 1362.77 801.677 1360.94 803.891 1360.12C812.618 1356.88 821.814 1367.38 827.748 1376.24C832.464 1383.28 835.304 1391.34 837.198 1399.6C838.682 1406.07 840.317 1413.93 841.11 1420.2C843.652 1440.28 843.066 1451.88 841.11 1472.03C839.817 1485.35 835.987 1502.13 832.536 1515.4C828.635 1530.39 823.016 1544.86 816.632 1558.97L783.634 1631.94C780.979 1637.82 779.064 1644 778.22 1650.39C777.242 1657.79 776.142 1668.02 776.292 1675.75C776.676 1695.51 786.592 1722.66 789.335 1729.81C789.797 1731.01 790.314 1732.17 790.879 1733.33L846.434 1847.43C848.799 1852.29 850.439 1857.49 850.658 1862.89C850.999 1871.32 850.489 1884.08 845.022 1889.92C839.652 1895.66 828.662 1895.62 821.696 1894.91C817.532 1894.48 813.671 1892.84 810.121 1890.62C792.992 1879.92 738.498 1846.39 705.389 1831.89C667.232 1815.19 617.263 1806.09 617.263 1806.09L616.044 1803.23M584.953 1466.77L584.953 1447.75M584.953 1466.77L584.953 1470.46M452.812 1412.89L404.153 1382.62C402.23 1381.42 400.046 1380.71 397.787 1380.54L394.639 1380.31C392.632 1380.16 390.637 1380.72 388.996 1381.88L388.102 1382.51C386.411 1383.71 385.121 1385.4 384.402 1387.34V1387.34C383.335 1390.23 383.376 1393.4 384.469 1396.28C387.647 1404.64 394.374 1423.06 397.307 1436.51C404.285 1468.53 400.219 1520.37 400.219 1520.37C400.219 1520.37 398.207 1543.67 395.576 1558.39C388.253 1599.38 372.699 1619.28 360.902 1659.21C357.329 1671.3 353.793 1677.79 352.165 1690.3C349.962 1707.22 348.891 1720.72 355.008 1736.65C361.514 1753.6 369.679 1760.9 384.534 1769.88C396.84 1777.32 418.469 1781.91 418.469 1781.91M452.812 1412.89L452.789 1414.05M418.469 1781.91L419.573 1768.12C419.693 1766.63 420.11 1765.17 420.887 1763.88C421.949 1762.13 423.616 1759.62 425.264 1758.1C426.526 1756.93 428.381 1755.79 429.965 1754.91C431.97 1753.81 434.249 1753.35 436.538 1753.36L457.169 1753.47M584.953 1472.4C584.953 1472.4 595.998 1484.8 604.601 1490.88C623.187 1504.02 637.378 1507.46 660.107 1508.66C680.78 1509.74 693.148 1506.22 712.251 1498.25C752.62 1481.39 772.078 1449.24 787.428 1414.67C792.179 1403.97 794.204 1394.48 795.041 1387.66C795.919 1380.51 797.052 1373.05 801.316 1367.24C802.26 1365.95 803.165 1364.9 803.891 1364.39C811.522 1359.06 820.873 1372.25 825.844 1380.73C828.331 1384.98 830.075 1389.59 831.394 1394.32C833.335 1401.3 836.118 1412.05 837.284 1420.2C840.108 1439.93 839.225 1451.4 837.284 1471.24C835.643 1488.02 829.42 1510.77 825.062 1525.25C822.229 1534.66 818.742 1543.84 814.898 1552.88C812.67 1558.12 810.26 1563.73 808.601 1567.4C797.213 1592.59 785.277 1612.32 776.058 1640.79C771.83 1653.85 772.136 1662.03 772.449 1675.75C772.783 1690.41 778.248 1709.8 781.984 1721.45C784.164 1728.25 787.01 1734.81 790.134 1741.23L842.527 1848.92C844.182 1852.32 845.384 1855.93 845.798 1859.69C846.603 1867.01 847.25 1879.51 843.266 1885.3C838.998 1891.49 828.678 1891.11 821.648 1889.98C816.888 1889.22 812.535 1887.07 808.479 1884.46C791.227 1873.37 740.789 1841.81 703.386 1827.07C670.09 1813.95 616.044 1803.23 616.044 1803.23M584.953 1472.4L584.953 1470.46M584.953 1472.4L584.953 1474.39M616.044 1803.23L616.989 1775.51C617.169 1770.24 616.425 1764.76 613.133 1760.64C612.598 1759.97 612.036 1759.35 611.462 1758.86C609.624 1757.26 606.677 1755.99 604.427 1755.18C602.37 1754.44 600.186 1754.18 598 1754.17L578.893 1754.07M569.136 400.877L544.651 400.877M468.955 409.019L467.464 490.568M468.955 409.019L476.357 409.019M467.464 490.568L570.983 489.149M467.464 490.568L467.36 496.207M570.983 489.149L571.119 495.026M467.36 496.207L571.119 495.026M467.36 496.207L466.022 569.359M571.119 495.026L572.832 569.359M466.022 569.359L572.832 569.359M466.022 569.359L465.91 575.484M572.832 569.359L572.95 574.488M465.91 575.484L572.95 574.488M465.91 575.484L464.65 644.387M572.95 574.488L573.475 597.266L574.124 644.387M464.65 644.387L464.547 650.021M464.65 644.387L544.651 644.387L547.498 644.387M574.124 644.387L574.201 650.021M574.124 644.387L547.498 644.387M464.547 650.021L463.355 715.179M464.547 650.021L489.981 650.021M574.201 650.021L575.098 715.179M574.201 650.021L565.181 650.021M463.355 715.179L575.098 715.179M463.355 715.179L463.241 721.389M575.098 715.179L575.183 721.389M463.241 721.389L463.127 727.6L462.169 782.44M463.241 721.389L528.632 721.389M575.183 721.389L576.023 782.44M575.183 721.389L528.632 721.389M462.169 782.44L576.023 782.44M462.169 782.44L462.045 789.494M576.023 782.44L576.121 789.494M462.045 789.494L576.121 789.494M462.045 789.494L461.052 846.303M576.121 789.494L576.902 846.303M461.052 846.303L576.902 846.303M461.052 846.303L460.952 852.036M576.902 846.303L576.981 852.036M460.952 852.036L576.981 852.036M460.952 852.036L459.994 906.816M576.981 852.036L577.735 906.816M459.994 906.816L459.904 911.945M459.994 906.816L568.305 906.816M577.735 906.816L577.805 911.945M577.735 906.816L568.305 906.816M459.904 911.945L577.805 911.945M459.904 911.945L459.027 962.09M577.805 911.945L578.495 962.09M459.027 962.09L578.495 962.09M459.027 962.09L458.915 968.523M578.495 962.09L578.584 968.523M458.915 968.523L458.074 1016.64M458.915 968.523L468.21 968.523M578.584 968.523L579.246 1016.64M578.584 968.523L468.21 968.523M458.074 1016.64L579.246 1016.64M458.074 1016.64L458.074 1021.16M579.246 1016.64L579.246 1021.16M458.074 1021.16L457.255 1067.03M458.074 1021.16L485.6 1021.16M579.246 1021.16L579.897 1067.03M579.246 1021.16L508.021 1021.16M457.255 1067.03L579.897 1067.03M457.255 1067.03L457.162 1072.2M579.897 1067.03L579.971 1072.2M457.162 1072.2L579.971 1072.2M457.162 1072.2L456.393 1115.25M579.971 1072.2L580.582 1115.25M456.393 1115.25L456.289 1121.12M456.393 1115.25L528.632 1115.25M580.582 1115.25L580.666 1121.12M580.582 1115.25L528.632 1115.25M456.289 1121.12L580.666 1121.12M456.289 1121.12L455.567 1161.53M455.567 1161.53L455.482 1166.28M455.482 1166.28L581.306 1166.28M455.482 1166.28L454.819 1203.44M581.306 1166.28L581.827 1203.44M454.819 1203.44L581.827 1203.44M454.819 1203.44L454.819 1208.04M581.827 1203.44L581.827 1208.04M454.819 1208.04L454.28 1233.63L454.117 1243.43M454.819 1208.04L581.827 1208.04M581.827 1208.04L582.333 1243.43M454.117 1243.43L454.032 1248.6M454.117 1243.43L550.38 1243.43M582.333 1243.43L582.407 1248.6M582.333 1243.43L572.862 1243.43M454.032 1248.6L582.407 1248.6M454.032 1248.6L453.486 1281.53M582.407 1248.6L582.878 1281.53M453.486 1281.53L582.878 1281.53M453.486 1281.53L453.38 1287.88M582.878 1281.53L582.969 1287.88M453.38 1287.88L485.6 1287.88M582.969 1287.88L583.4 1317.98M582.969 1287.88L485.6 1287.88M452.94 1317.98L583.4 1317.98M452.94 1317.98L452.94 1322.21M583.4 1317.98L583.46 1322.21M452.94 1322.21L452.94 1351.36M452.94 1322.21L508.021 1322.21M583.46 1322.21L583.877 1351.36M583.46 1322.21L508.021 1322.21M452.94 1351.36L583.877 1351.36M452.94 1351.36L452.94 1355.87M583.877 1351.36L583.942 1355.87M452.94 1355.87L583.942 1355.87M452.94 1355.87L452.94 1383.21M583.942 1355.87L584.333 1383.21M452.94 1383.21L584.333 1383.21M452.94 1383.21L452.94 1388.3M584.333 1383.21L584.406 1388.3M452.94 1388.3L584.406 1388.3M584.406 1388.3L584.774 1414.05M452.789 1414.05L584.774 1414.05M452.789 1414.05L452.687 1419.12M584.774 1414.05L584.846 1419.12M452.687 1419.12L584.846 1419.12M452.687 1419.12L452.225 1442M452.225 1442L584.953 1442M452.225 1442L452.109 1447.75M584.953 1442L584.953 1447.75M452.109 1447.75L584.953 1447.75M452.109 1447.75L451.651 1470.46M451.651 1470.46L584.953 1470.46M451.651 1470.46L451.572 1474.39M451.572 1474.39L451.193 1493.18C451.193 1493.18 451.243 1493.93 451.397 1495.12M451.572 1474.39L584.953 1474.39M584.953 1474.39L584.953 1492.87C584.953 1493.08 584.952 1493.28 584.944 1493.49C584.931 1493.81 584.903 1494.38 584.841 1495.12M451.397 1495.12L584.841 1495.12M451.397 1495.12C451.536 1496.2 451.761 1497.65 452.109 1499.22M584.841 1495.12C584.751 1496.2 584.591 1497.64 584.305 1499.22M452.109 1499.22C452.829 1502.48 454.08 1506.31 456.206 1508.66C457.284 1509.84 458.875 1510.95 460.47 1511.88M452.109 1499.22L584.305 1499.22M584.305 1499.22C583.719 1502.47 582.605 1506.27 580.493 1508.66C579.484 1509.79 577.863 1510.92 576.231 1511.88M700.571 1896.17C701.074 1884.61 708.51 1873.87 720.061 1874.47C731.039 1875.04 738.79 1882.98 739.266 1893.96M700.574 1896.16C701.077 1884.61 708.514 1873.87 720.064 1874.47C731.043 1875.03 738.793 1882.98 739.269 1893.96M749.415 2011.16C749.918 1999.61 757.354 1988.87 768.905 1989.47C779.884 1990.04 787.634 1997.98 788.11 2008.96M448.144 297.751L445.329 297.751M448.144 297.751C447.175 301.041 446.232 304.295 445.325 307.486M448.144 297.751C452.003 284.651 456.272 270.982 460.302 258.423M445.329 297.751L442.798 307.486M445.329 297.751L443.983 296.651C443.205 296.015 442.28 295.585 441.293 295.399L431.877 293.629M442.798 307.486L445.325 307.486M442.798 307.486L442.417 307.579C440.372 308.076 438.216 307.465 436.735 305.969L431.877 301.061M431.877 293.629L431.877 290.091C431.877 289.091 431.138 288.244 430.146 288.11L417.24 286.354C416.907 286.309 416.574 286.434 416.353 286.687L411.652 292.062C411.099 292.693 411.519 293.702 412.355 293.775C414.88 293.998 419.197 294.525 422.33 295.682C426.357 297.169 431.877 301.131 431.877 301.131L431.877 293.629ZM454.953 244.777L464.091 246.718M454.953 244.777L450.66 229.179C450.381 228.163 449.589 227.368 448.574 227.085L438.288 224.215C437.251 223.925 436.143 224.21 435.401 224.99C432.989 227.528 427.62 233.484 425.385 238.452C422.475 244.922 422.983 254.919 423.321 258.806C423.41 259.824 424.046 260.695 424.969 261.132L436.621 266.652C437.756 267.189 439.105 266.964 440.003 266.086L452.582 253.79M454.953 244.777L452.582 253.79M464.091 246.718C471.063 225.358 476.537 209.528 476.537 209.528L477.269 207.147M464.091 246.718C462.867 250.468 461.597 254.388 460.302 258.423M452.582 253.79L460.302 258.423M469.633 203.553L477.269 207.147M469.633 203.553L470.285 194.877M469.633 203.553L458.338 214.498C457.511 215.3 456.297 215.557 455.215 215.16L441.696 210.188C440.602 209.786 439.841 208.787 439.771 207.624C439.595 204.681 439.363 198.944 439.903 194.877C440.897 187.385 446.78 178.229 449.185 174.743C449.807 173.842 450.884 173.396 451.968 173.548L463.102 175.112C464.294 175.279 465.271 176.144 465.583 177.307L470.285 194.877M477.269 207.147L481.043 194.877M481.043 194.877L470.285 194.877M481.043 194.877L492.746 156.824M495.865 146.683L504.353 119.083L508.288 106.384M495.865 146.683L486.981 144.852M495.865 146.683L492.746 156.824M486.981 144.852L485.844 134.426C485.74 133.471 485.185 132.624 484.352 132.147L472.984 125.639C472.039 125.098 470.878 125.11 469.97 125.71C467.103 127.603 460.844 132.054 458.096 136.49C454.515 142.272 455.381 151.657 455.896 155.306C456.031 156.266 456.665 157.062 457.548 157.462L468.845 162.583C469.961 163.089 471.273 162.865 472.158 162.018L483.398 151.259M486.981 144.852L483.398 151.259M492.746 156.824L483.398 151.259M512.224 93.6852L505.179 91.6237M512.224 93.6852L508.288 106.384M512.224 93.6852L524.094 55.3809M505.179 91.6237L501.007 103.443M505.179 91.6237L498.922 89.1208M501.007 103.443L508.288 106.384M501.007 103.443L496.002 100.245L489.605 96.9076M489.605 96.9076L476.458 93.8909C475.951 93.7746 475.618 93.2892 475.692 92.7744L476.54 86.8595C476.615 86.3339 477.088 85.9589 477.617 86.0051L497.675 87.7603C498.38 87.822 498.922 88.4127 498.922 89.1208V89.1208M489.605 96.9076C489.605 96.9076 493.805 96.3527 496.002 94.5437C497.601 93.2265 498.922 89.1208 498.922 89.1208M527.721 43.6755L519.724 42.8955M527.721 43.6755L524.094 55.3809M519.724 42.8955L512.866 24.7181C512.471 23.6724 511.528 22.9327 510.418 22.7987L500.345 21.5821C499.445 21.4734 498.548 21.7731 497.92 22.4265C495.501 24.9411 489.394 31.6708 487.393 37.4752C485.144 44.0016 486.43 54.1621 487.084 58.2129C487.259 59.2984 488.047 60.1676 489.098 60.4912L502.611 64.651C503.681 64.9805 504.846 64.6863 505.632 63.8881L516.31 53.0379M519.724 42.8955L516.31 53.0379M524.094 55.3809L516.31 53.0379M433.064 1777.58L433.064 1953.92C433.064 1958.95 435.16 1963.74 438.847 1967.15V1967.15C442.18 1970.24 446.554 1971.95 451.096 1971.95L557.064 1971.95M601.292 1777.58L604.203 1777.58L606.947 1783.76C608.084 1786.32 608.671 1789.08 608.671 1791.88L608.671 1971.95C608.671 1971.95 608.069 1978.15 605.599 1980.89C602.129 1984.74 592.753 1984.24 592.753 1984.24L576.546 1984.24M601.292 1777.58L430.749 1777.58L428.881 1784.99C428.437 1786.75 428.212 1788.56 428.212 1790.37L428.212 1960.82C428.212 1965.36 428.935 1969.94 431.227 1973.86C432.779 1976.51 434.842 1979.35 437.202 1980.89C441.281 1983.55 449.21 1984.24 449.21 1984.24L463.554 1984.24M601.292 1777.58L601.292 1957.71C601.292 1960.38 600.539 1963 599.12 1965.27V1965.27C596.516 1969.43 591.955 1971.95 587.049 1971.95L557.064 1971.95M463.554 1984.24L463.554 1941.9L473.942 1941.9L473.942 1984.24M463.554 1984.24L473.942 1984.24M473.942 1984.24L513.97 1984.24M513.97 1940.14L513.97 1984.24M513.97 1940.14L525.117 1940.14M513.97 1940.14L495.424 1940.14C494.843 1940.14 494.385 1939.65 494.427 1939.07L495.893 1918.81M513.97 1984.24L525.117 1984.24M525.117 1940.14L525.117 1984.24M525.117 1940.14L543.482 1940.14C544.019 1940.14 544.46 1939.72 544.481 1939.18L545.269 1919.22M525.117 1984.24L565.145 1984.24M565.145 1937.34L565.145 1984.24M565.145 1937.34L576.546 1937.34M565.145 1937.34L548.412 1937.34C547.86 1937.34 547.412 1936.89 547.412 1936.34L547.412 1916.87M565.145 1984.24L576.546 1984.24M576.546 1937.34L576.546 1984.24M576.546 1937.34L596.365 1936.47C596.899 1936.45 597.321 1936.01 597.321 1935.47L597.321 1916.87M445.539 1918.81L445.676 1916.77C445.711 1916.25 446.148 1915.84 446.674 1915.84L493.298 1915.84C493.87 1915.84 494.325 1916.32 494.297 1916.89L494.201 1918.81M445.539 1918.81L467.005 1918.81M445.539 1918.81L445.325 1921.99M467.005 1918.81L467.005 1903.53C467.005 1902.98 467.453 1902.53 468.005 1902.53L471.598 1902.53C472.15 1902.53 472.598 1902.98 472.598 1903.53L472.598 1918.81M467.005 1918.81L467.005 1921.99M472.598 1918.81L494.201 1918.81M472.598 1918.81L472.598 1921.99M494.201 1918.81L494.201 1921.99M445.325 1921.99L444.102 1940.15C444.064 1940.73 444.513 1941.21 445.086 1941.22L492.093 1941.89C492.628 1941.89 493.075 1941.48 493.106 1940.94L494.201 1921.99M445.325 1921.99L467.005 1921.99M467.005 1921.99L467.005 1927.04L472.598 1927.04L472.598 1921.99M472.598 1921.99L494.201 1921.99M496.108 1915.84L496.323 1912.87C496.361 1912.35 496.796 1911.94 497.32 1911.94L544.516 1911.94C545.084 1911.94 545.538 1912.41 545.516 1912.98L545.403 1915.84M496.108 1915.84L518.495 1915.84M496.108 1915.84L495.893 1918.81M518.495 1915.84L518.495 1903.53C518.495 1902.98 518.943 1902.53 519.495 1902.53L522.43 1902.53C522.982 1902.53 523.43 1902.98 523.43 1903.53L523.43 1915.84M518.495 1915.84L518.495 1918.81M523.43 1915.84L545.403 1915.84M523.43 1915.84L523.43 1919.22M545.403 1915.84L545.269 1919.22M495.893 1918.81L518.495 1918.81M518.495 1918.81L518.495 1922.6L523.43 1922.6L523.43 1919.22M523.43 1919.22L545.269 1919.22M547.412 1913.4L547.412 1910C547.412 1909.44 547.878 1908.99 548.442 1909L596.351 1910.43C596.891 1910.44 597.321 1910.89 597.321 1911.43L597.321 1913.4M547.412 1913.4L570.15 1913.4M547.412 1913.4L547.412 1916.87M570.15 1913.4L570.15 1904.35C570.15 1903.8 570.597 1903.35 571.15 1903.35L573.756 1903.35C574.308 1903.35 574.756 1903.8 574.756 1904.35L574.756 1913.4M570.15 1913.4L570.15 1916.87M574.756 1913.4L597.321 1913.4M574.756 1913.4L574.756 1916.87M597.321 1913.4L597.321 1916.87M547.412 1916.87L570.15 1916.87M570.15 1916.87L570.15 1918.81L574.756 1918.81L574.756 1916.87M574.756 1916.87L597.321 1916.87M714.906 1741.31L680.528 1697.2C680.391 1697.03 680.316 1696.81 680.316 1696.59L680.316 1692.22C680.316 1691.67 680.764 1691.22 681.316 1691.22L684.712 1691.22C685.026 1691.22 685.322 1691.37 685.511 1691.62L720.779 1738.54M714.906 1741.31L713.048 1743.77C712.442 1744.57 712.526 1745.7 713.245 1746.41L729.826 1762.63L734.166 1762.63C735.632 1762.63 736.884 1761.57 737.125 1760.12L737.599 1757.28L726.085 1739.45C725.717 1738.88 725.084 1738.54 724.405 1738.54L720.779 1738.54M714.906 1741.31L720.779 1738.54M546.915 53.7871C546.1 52.6318 545.625 51.2411 545.655 49.7313C545.677 48.6468 545.97 47.6341 546.465 46.735M546.915 53.7871C548.409 55.9062 551.046 57.2338 553.809 57.0533C556.597 56.8712 559.041 55.3197 560.22 53.0379M546.915 53.7871C546.915 53.7871 548.999 61.6785 552.992 62.0714C557.488 62.5139 560.22 53.0379 560.22 53.0379M560.22 53.0379C560.728 52.0543 561.001 50.9351 560.965 49.7313C560.932 48.6256 560.67 47.619 560.22 46.735M560.22 53.0379L560.22 265.959L560.22 409.019M560.22 46.735C559.208 44.748 557.247 43.3799 554.808 42.8955C551.496 42.2376 548.005 43.9363 546.465 46.735M560.22 46.735C560.22 46.735 564.398 50.5141 565.277 53.7871C567.312 61.3583 560.347 69.6652 552.517 69.2841C544.79 68.9079 538.526 60.3032 541.183 53.0379C542.286 50.0217 546.465 46.735 546.465 46.735M531.121 105.498C530.306 104.342 529.831 102.952 529.861 101.442C529.883 100.357 530.176 99.3446 530.671 98.4455M531.121 105.498C532.615 107.617 535.252 108.944 538.015 108.764C540.803 108.582 543.247 107.03 544.426 104.748M531.121 105.498C531.121 105.498 533.205 113.389 537.198 113.782C541.695 114.224 544.426 104.748 544.426 104.748M544.426 104.748C544.934 103.765 545.207 102.646 545.171 101.442C545.138 100.336 544.876 99.3295 544.426 98.4455M544.426 104.748L544.651 400.877M544.426 98.4455C543.414 96.4585 541.453 95.0904 539.014 94.606C535.702 93.9482 532.211 95.6468 530.671 98.4455M544.426 98.4455C544.426 98.4455 548.604 102.225 549.484 105.498C551.518 113.069 544.553 121.376 536.723 120.995C528.996 120.618 522.732 112.014 525.389 104.748C526.492 101.732 530.671 98.4455 530.671 98.4455M515.327 158.726C514.513 157.57 514.038 156.18 514.068 154.67C514.089 153.585 514.383 152.573 514.877 151.674M515.327 158.726C516.821 160.845 519.458 162.172 522.222 161.992C525.009 161.81 527.453 160.258 528.632 157.976M515.327 158.726C515.327 158.726 517.411 166.617 521.405 167.01C525.901 167.452 528.632 157.976 528.632 157.976M528.632 157.976C529.14 156.993 529.413 155.874 529.377 154.67C529.344 153.564 529.082 152.558 528.632 151.674M528.632 157.976L528.632 400.877M528.632 151.674C527.62 149.686 525.659 148.318 523.22 147.834C519.908 147.176 516.417 148.875 514.877 151.674M528.632 151.674C528.632 151.674 532.81 155.453 533.69 158.726C535.724 166.297 528.759 174.604 520.929 174.223C513.202 173.846 506.938 165.242 509.595 157.976C510.698 154.96 514.877 151.674 514.877 151.674M499.019 208.751C498.204 207.596 497.73 206.205 497.759 204.695C497.781 203.611 498.074 202.598 498.569 201.699M499.019 208.751C500.513 210.87 503.15 212.198 505.913 212.017C508.701 211.835 511.145 210.284 512.324 208.002M499.019 208.751C499.019 208.751 501.103 216.642 505.096 217.035C509.593 217.478 512.324 208.002 512.324 208.002M512.324 208.002C512.832 207.018 513.105 205.899 513.069 204.695C513.036 203.589 512.774 202.583 512.324 201.699M512.324 208.002L510.345 288.026L510.344 409.019M512.324 201.699C511.312 199.712 509.351 198.344 506.912 197.859C503.6 197.201 500.109 198.9 498.569 201.699M512.324 201.699C512.324 201.699 516.502 205.478 517.382 208.751C519.416 216.322 512.451 224.629 504.621 224.248C496.894 223.872 490.63 215.267 493.287 208.002C494.39 204.986 498.569 201.699 498.569 201.699M484.042 260.592C483.228 259.437 482.753 258.046 482.783 256.536C482.804 255.452 483.098 254.439 483.592 253.54M484.042 260.592C485.536 262.711 488.173 264.039 490.937 263.858C493.725 263.676 496.168 262.125 497.347 259.843M484.042 260.592C484.042 260.592 486.126 268.483 490.12 268.876C494.616 269.319 497.347 259.843 497.347 259.843M497.347 259.843C497.855 258.859 498.128 257.74 498.092 256.536M498.092 256.536C498.06 255.431 497.797 254.424 497.347 253.54M498.092 256.536L494.905 301.061L493.861 409.019M497.347 253.54C496.335 251.553 494.374 250.185 491.935 249.7C488.624 249.043 485.133 250.741 483.592 253.54M497.347 253.54C497.347 253.54 501.526 257.319 502.405 260.592C504.439 268.163 497.475 276.47 489.644 276.089C481.917 275.713 475.653 267.108 478.31 259.843C479.413 256.827 483.592 253.54 483.592 253.54M465.11 314.935C464.295 313.78 463.821 312.389 463.85 310.879C463.872 309.795 464.165 308.782 464.66 307.883M465.11 314.935C466.604 317.054 469.241 318.382 472.004 318.201C474.792 318.019 477.236 316.467 478.415 314.186M465.11 314.935C465.11 314.935 467.194 322.826 471.187 323.219C475.684 323.662 478.415 314.186 478.415 314.186M478.415 314.186C478.923 313.202 479.196 312.083 479.16 310.879M479.16 310.879C479.127 309.773 478.865 308.767 478.415 307.883M479.16 310.879L476.357 409.019M478.415 307.883C477.403 305.896 475.442 304.528 473.003 304.043C469.691 303.385 466.2 305.084 464.66 307.883M478.415 307.883C478.415 307.883 482.593 311.662 483.473 314.935C485.507 322.506 478.542 330.813 470.712 330.432C462.985 330.056 456.721 321.451 459.378 314.186C460.481 311.169 464.66 307.883 464.66 307.883M476.357 409.019L468.21 968.523M476.357 409.019L493.861 409.019M468.21 968.523L460.47 1511.88M460.47 1511.88C460.8 1512.08 461.13 1512.26 461.456 1512.44C464.482 1514.08 467.935 1514.65 471.378 1514.65L528.632 1514.65M460.47 1511.88L457.169 1753.47M457.169 1753.47L457.169 1969.41M457.169 1753.47L482.093 1753.59M493.861 409.019L489.981 650.021M493.861 409.019L510.344 409.019M489.981 650.021L485.6 1021.16M489.981 650.021L510.344 650.021M485.6 1021.16L485.6 1287.88M485.6 1021.16L508.021 1021.16M485.6 1287.88L482.093 1753.59M482.093 1753.59L482.093 1969.41M482.093 1753.59L508.021 1753.72M510.344 409.019L510.344 650.021M510.344 409.019L528.632 409.019M510.344 650.021L508.021 1021.16M510.344 650.021L565.181 650.021M508.021 1021.16L508.021 1322.21M508.021 1322.21L508.021 1753.72M508.021 1753.72L508.021 1969.41M508.021 1753.72L578.893 1754.07M528.632 400.877L528.632 409.019M528.632 400.877L544.651 400.877M528.632 409.019L528.632 721.389M528.632 409.019L560.22 409.019M528.632 721.389L528.632 1115.25M528.632 1115.25L528.632 1514.65M528.632 1514.65L528.632 1753.34L531.947 1969.41M528.632 1514.65L554.026 1514.65M544.651 400.877L547.498 644.387M554.026 1514.65L567.941 1514.65C569.801 1514.65 571.648 1514.29 573.313 1513.46C574.193 1513.02 575.214 1512.48 576.231 1511.88M554.026 1514.65L550.38 1243.43M554.026 1514.65L557.064 1971.95M550.38 1243.43L549.256 943.39L549.256 792.535L547.498 644.387M550.38 1243.43L572.862 1243.43M560.22 409.019L565.181 650.021M565.181 650.021L568.305 906.816M576.231 1511.88L572.862 1243.43M576.231 1511.88L578.893 1754.07M572.862 1243.43L568.305 906.816M578.893 1754.07L581.451 1969.41M454.618 1534.11L576.641 1534.11L577.886 1534.35C596.137 1537.82 595.107 1564.29 576.641 1566.33V1566.33L454.618 1566.33V1566.33C440.514 1561.24 439.371 1541.73 452.783 1535.03L454.618 1534.11ZM456.206 1539.91L576.641 1539.91L592.818 1542.69C601.216 1544.14 601.832 1555.96 593.63 1558.28L576.641 1563.06L456.206 1563.06L454.19 1561.92C445.126 1556.76 446.356 1543.33 456.206 1539.91V1539.91ZM720.061 1861.71C702.956 1861.55 689.201 1876.9 690.425 1893.96C691.563 1909.83 704.154 1922.02 720.061 1921.91C736.968 1921.8 750.295 1906.8 749.234 1889.92C748.24 1874.1 735.909 1861.86 720.061 1861.71ZM720.061 1880.25C709.485 1880.18 699.711 1889.04 700.571 1899.78C701.369 1909.76 710.054 1916.49 720.061 1916.42C729.983 1916.35 738.473 1909.67 739.266 1899.78C740.12 1889.12 730.557 1880.33 720.061 1880.25ZM720.064 1861.71C702.96 1861.54 689.204 1876.9 690.428 1893.96C691.566 1909.83 704.157 1922.02 720.064 1921.91C736.971 1921.79 750.298 1906.79 749.238 1889.92C748.244 1874.1 735.912 1861.86 720.064 1861.71ZM720.064 1880.25C709.488 1880.17 699.715 1889.04 700.574 1899.78C701.372 1909.76 710.058 1916.49 720.064 1916.42C729.986 1916.34 738.477 1909.67 739.269 1899.78C740.123 1889.12 730.561 1880.33 720.064 1880.25ZM768.905 1976.71C751.8 1976.54 738.045 1991.9 739.269 2008.96C740.407 2024.83 752.998 2037.02 768.905 2036.91C785.812 2036.79 799.139 2021.79 798.079 2004.92C797.085 1989.1 784.753 1976.86 768.905 1976.71ZM768.905 1995.25C758.329 1995.17 748.555 2004.04 749.415 2014.78C750.213 2024.76 758.899 2031.49 768.905 2031.42C778.827 2031.34 787.318 2024.67 788.11 2014.78C788.964 2004.12 779.402 1995.33 768.905 1995.25ZM598.025 1865.1C599.935 1861.35 600.387 1857.24 600.11 1853.36C599.355 1842.8 589.884 1835.82 579.82 1832.51L470.441 1796.55C461.983 1793.77 452.48 1793.27 445.27 1798.49C441.707 1801.08 438.434 1804.46 437.202 1808.62C436.739 1810.19 436.448 1811.82 436.288 1813.47C435.043 1826.29 446.172 1835.93 458.396 1840L563.624 1875.05C573.668 1878.4 585.191 1878.45 593.013 1871.32C595.073 1869.44 596.885 1867.34 598.025 1865.1ZM553.809 39.9132C545.04 39.5397 538.043 46.6199 537.501 55.3809C536.908 64.9691 545.255 73.8772 554.808 72.8622C563.5 71.9385 569.349 64.1037 568.786 55.3809C568.244 46.9902 562.21 40.2709 553.809 39.9132ZM538.015 91.6237C529.246 91.2502 522.249 98.3304 521.708 107.091C521.115 116.68 529.461 125.588 539.014 124.573C547.706 123.649 553.555 115.814 552.992 107.091C552.45 98.7007 546.416 91.9815 538.015 91.6237ZM522.222 144.852C513.452 144.478 506.455 151.558 505.914 160.319C505.321 169.908 513.667 178.816 523.22 177.801C531.912 176.877 537.761 169.042 537.198 160.319C536.657 151.929 530.622 145.209 522.222 144.852ZM505.913 194.877C497.144 194.503 490.147 201.584 489.605 210.345C489.012 219.933 497.359 228.841 506.912 227.826C515.604 226.902 521.453 219.068 520.89 210.345C520.349 201.954 514.314 195.235 505.913 194.877ZM490.937 246.718C482.167 246.345 475.17 253.425 474.629 262.186C474.036 271.774 482.383 280.682 491.935 279.667C500.627 278.743 506.477 270.909 505.914 262.186C505.372 253.795 499.337 247.076 490.937 246.718ZM472.004 301.061C463.235 300.687 456.238 307.768 455.696 316.529C455.103 326.117 463.45 335.025 473.003 334.01C481.695 333.086 487.545 325.251 486.981 316.529C486.44 308.138 480.405 301.419 472.004 301.061Z" stroke="#838C94"/>
<circle cx="830.098" cy="1874.42" r="6.16828" stroke="#838C94"/>
<circle cx="639.184" cy="1790.75" r="6.16828" stroke="#838C94"/>
<circle cx="530.582" cy="1800.4" r="6.16828" stroke="#838C94"/>
<circle cx="460.262" cy="1853.85" r="6.16828" stroke="#838C94"/>
<circle cx="557.825" cy="1883.5" r="6.16828" stroke="#838C94"/>
<circle cx="457.423" cy="1966.17" r="3.40002" stroke="#838C94"/>
<circle cx="481.744" cy="1966.17" r="3.40002" stroke="#838C94"/>
<circle cx="507.111" cy="1966.17" r="3.40002" stroke="#838C94"/>
<circle cx="532.478" cy="1966.17" r="3.40002" stroke="#838C94"/>
<circle cx="557.822" cy="1966.17" r="3.40002" stroke="#838C94"/>
<circle cx="583.181" cy="1966.17" r="3.40002" stroke="#838C94"/>
<circle cx="764.965" cy="1714.38" r="6.16828" stroke="#838C94"/>
<circle cx="785.739" cy="1579.61" r="6.16828" stroke="#838C94"/>
<circle cx="674.801" cy="1682.28" r="7.83958" stroke="#838C94"/>
<circle cx="602.331" cy="1549.24" r="4.19834" stroke="#838C94"/>
<circle cx="435.956" cy="1549.24" r="4.19834" stroke="#838C94"/>
<circle cx="809.895" cy="1382.52" r="6.16828" stroke="#838C94"/>
<circle cx="620.09" cy="1514.47" r="6.16828" stroke="#838C94"/>
<circle cx="518.789" cy="1458.23" r="6.76558" stroke="#838C94"/>
<circle cx="518.789" cy="1400.5" r="6.76558" stroke="#838C94"/>
<circle cx="518.789" cy="1336.78" r="6.76558" stroke="#838C94"/>
<circle cx="518.789" cy="1264.7" r="6.76558" stroke="#838C94"/>
<circle cx="550.25" cy="1139.68" r="6.76558" stroke="#838C94"/>
<circle cx="488" cy="1139.68" r="6.76558" stroke="#838C94"/>
<circle cx="518.984" cy="991.43" r="6.76558" stroke="#838C94"/>
<circle cx="518.43" cy="877.852" r="6.76558" stroke="#838C94"/>
<circle cx="518.43" cy="751.25" r="6.76558" stroke="#838C94"/>
<circle cx="518.43" cy="608.75" r="6.76558" stroke="#838C94"/>
<circle cx="398.848" cy="1397.12" r="6.16828" stroke="#838C94"/>
<circle cx="399.817" cy="1595.9" r="6.16828" stroke="#838C94"/>
<circle cx="403.028" cy="1764.18" r="6.16828" stroke="#838C94"/>
<circle cx="461.13" cy="1808.58" r="5.29387" stroke="#838C94"/>
<circle cx="485.153" cy="1816.82" r="5.29387" stroke="#838C94"/>
<circle cx="510.263" cy="1823.81" r="5.29387" stroke="#838C94"/>
<circle cx="534.685" cy="1832.04" r="5.29387" stroke="#838C94"/>
<circle cx="558.692" cy="1839.46" r="5.29387" stroke="#838C94"/>
<circle cx="583.942" cy="1847" r="5.29387" stroke="#838C94"/>
<circle cx="576.81" cy="1868.26" r="5.29387" stroke="#838C94"/>
<circle cx="552.536" cy="1861.03" r="5.29387" stroke="#838C94"/>
<circle cx="527.856" cy="1853.35" r="5.29387" stroke="#838C94"/>
<circle cx="504.958" cy="1844.75" r="5.29387" stroke="#838C94"/>
<circle cx="479.849" cy="1837.34" r="5.29387" stroke="#838C94"/>
<circle cx="454.966" cy="1829.1" r="5.29387" stroke="#838C94"/>
<path d="M443.797 1937.72C439.033 1937.72 434.523 1941.88 434.523 1946.65C434.523 1951.41 438.386 1955.27 443.15 1955.27C447.914 1955.27 451.776 1951.41 451.776 1946.65C451.776 1941.88 450.755 1941.41 450.755 1941.41" stroke="#838C94"/>
<path d="M488.816 1942.07C487.356 1943.62 486.461 1945.7 486.461 1947.99C486.461 1952.76 490.323 1956.62 495.087 1956.62C499.852 1956.62 503.714 1952.76 503.714 1947.99C503.714 1946.04 503.063 1944.23 501.967 1942.79L499.371 1940.31" stroke="#838C94"/>
<path d="M544.797 1939.47C549.562 1939.47 554.433 1943.21 554.433 1947.98C554.433 1952.74 550.57 1956.6 545.806 1956.6C541.042 1956.6 537.18 1952.74 537.18 1947.98C537.18 1945.1 539.227 1941.89 541.393 1940.32" stroke="#838C94"/>
<path d="M601.015 1952.37C599.432 1954.25 596.438 1956.62 593.79 1956.62C589.026 1956.62 585.164 1952.76 585.164 1947.99C585.164 1943.23 589.026 1939.37 593.79 1939.37C596.209 1939.37 598.395 1940.36 599.961 1941.97L601.015 1943.4" stroke="#838C94"/>
<path d="M348.754 2136.89C248.306 2136.89 191.988 2136.89 91.5402 2136.89M906.126 1675.06C805.671 1674.15 795.926 1675.97 695.471 1675.06M352.749 1989.65C250.527 1989.65 193.215 1989.65 90.9921 1989.65M460.876 1097.79L345.55 1097.79M402.933 2405.61C402.933 2323.74 402.933 2277.84 402.933 2195.98M595.244 2348.87C594.744 2236.79 595.744 2104.7 595.244 1992.63M539.42 701.972L240.877 701.972M439.084 245.961L164.95 245.961M617.532 1549.15L906.126 1549.15" stroke="#838C94" stroke-dasharray="10 10"/>
<path d="M1002.06 1545.16C1004.19 1547.3 1004.19 1550.77 1002.06 1552.9L971.326 1583.63C969.188 1585.77 965.721 1585.77 963.583 1583.63L932.853 1552.9C930.716 1550.77 930.716 1547.3 932.853 1545.16L963.583 1514.43C965.721 1512.29 969.188 1512.29 971.326 1514.43L1002.06 1545.16Z" fill="#20262B" stroke="#838C94"/>
<path d="M148.665 240.88C150.803 243.018 150.803 246.485 148.665 248.623L117.935 279.353C115.797 281.491 112.331 281.491 110.193 279.353L79.4629 248.623C77.3249 246.485 77.3249 243.018 79.4629 240.88L110.193 210.15C112.331 208.012 115.797 208.012 117.935 210.15L148.665 240.88Z" fill="#20262B" stroke="#838C94"/>
<path d="M224.649 698.099C226.787 700.237 226.787 703.703 224.649 705.841L193.919 736.571C191.781 738.709 188.315 738.709 186.177 736.571L155.447 705.841C153.309 703.703 153.309 700.237 155.447 698.099L186.177 667.369C188.315 665.231 191.782 665.231 193.92 667.369L224.649 698.099Z" fill="#20262B" stroke="#838C94"/>
<path d="M328.978 1093.76C331.116 1095.89 331.116 1099.36 328.978 1101.5L298.248 1132.23C296.11 1134.37 292.643 1134.37 290.505 1132.23L259.775 1101.5C257.637 1099.36 257.637 1095.89 259.775 1093.76L290.505 1063.03C292.643 1060.89 296.11 1060.89 298.248 1063.03L328.978 1093.76Z" fill="#20262B" stroke="#838C94"/>
<path d="M71.3761 1984.9C73.514 1987.04 73.514 1990.51 71.3761 1992.65L40.6461 2023.38C38.5081 2025.51 35.0417 2025.51 32.9038 2023.38L2.17379 1992.65C0.0358152 1990.51 0.0358174 1987.04 2.1738 1984.9L32.9038 1954.17C35.0418 1952.04 38.5081 1952.04 40.6461 1954.17L71.3761 1984.9Z" fill="#20262B" stroke="#838C94"/>
<path d="M71.3761 2132.15C73.514 2134.28 73.514 2137.75 71.3761 2139.89L40.6461 2170.62C38.5081 2172.76 35.0417 2172.76 32.9038 2170.62L2.17379 2139.89C0.0358152 2137.75 0.0358174 2134.28 2.1738 2132.15L32.9038 2101.42C35.0418 2099.28 38.5081 2099.28 40.6461 2101.42L71.3761 2132.15Z" fill="#20262B" stroke="#838C94"/>
<path d="M435.899 2454.94C438.037 2457.08 438.037 2460.55 435.899 2462.69L405.17 2493.41C403.032 2495.55 399.565 2495.55 397.427 2493.41L366.697 2462.69C364.559 2460.55 364.559 2457.08 366.697 2454.94L397.427 2424.21C399.565 2422.07 403.032 2422.07 405.17 2424.21L435.899 2454.94Z" fill="#20262B" stroke="#838C94"/>
<path d="M629.423 2402.81C631.561 2404.95 631.561 2408.41 629.423 2410.55L598.693 2441.28C596.555 2443.42 593.089 2443.42 590.951 2441.28L560.221 2410.55C558.083 2408.41 558.083 2404.95 560.221 2402.81L590.951 2372.08C593.089 2369.94 596.555 2369.94 598.693 2372.08L629.423 2402.81Z" fill="#20262B" stroke="#838C94"/>
<path d="M990.439 1671.49C992.577 1673.63 992.577 1677.09 990.439 1679.23L959.709 1709.96C957.571 1712.1 954.104 1712.1 951.966 1709.96L921.236 1679.23C919.098 1677.09 919.098 1673.63 921.236 1671.49L951.966 1640.76C954.104 1638.62 957.571 1638.62 959.709 1640.76L990.439 1671.49Z" fill="#20262B" stroke="#838C94"/>
<path d="M963.928 1560.14C965.351 1560.14 966.436 1559.54 967.183 1558.35C967.93 1557.14 968.303 1555.64 968.303 1553.84C968.303 1552.02 967.813 1550.6 966.833 1549.57C965.853 1548.54 964.78 1548.03 963.613 1548.03C962.446 1548.03 961.443 1548.39 960.603 1549.11C959.763 1549.81 959.121 1550.64 958.678 1551.6C958.725 1557.29 960.475 1560.14 963.928 1560.14ZM967.463 1539.35C967.463 1538.95 967.218 1538.65 966.728 1538.44C966.261 1538.21 965.701 1538.09 965.048 1538.09C962.855 1538.09 961.151 1539.48 959.938 1542.25C959.681 1542.86 959.436 1543.75 959.203 1544.91C958.993 1546.06 958.806 1547.48 958.643 1549.18C960.043 1547.39 961.956 1546.49 964.383 1546.49C966.25 1546.49 967.848 1547.25 969.178 1548.76C970.531 1550.28 971.208 1552.02 971.208 1553.98C971.208 1556.41 970.531 1558.33 969.178 1559.75C967.848 1561.18 966.016 1561.89 963.683 1561.89C961.373 1561.89 959.483 1560.91 958.013 1558.95C956.543 1556.97 955.808 1554.67 955.808 1552.05C955.808 1549.42 956.135 1546.93 956.788 1544.6C957.465 1542.27 958.491 1540.35 959.868 1538.86C961.268 1537.34 962.831 1536.58 964.558 1536.58C966.285 1536.58 967.626 1536.91 968.583 1537.56C969.563 1538.19 970.053 1539.13 970.053 1540.36C970.053 1540.9 969.901 1541.32 969.598 1541.62C969.295 1541.93 968.875 1542.08 968.338 1542.08C967.195 1542.08 966.623 1541.68 966.623 1540.89C966.623 1540.56 966.763 1540.25 967.043 1539.94C967.323 1539.62 967.463 1539.42 967.463 1539.35ZM978.561 1559.65C978.561 1560.23 978.374 1560.7 978.001 1561.05C977.628 1561.38 977.138 1561.54 976.531 1561.54C975.948 1561.54 975.481 1561.35 975.131 1560.98C974.781 1560.61 974.606 1560.14 974.606 1559.58C974.606 1559 974.781 1558.52 975.131 1558.14C975.481 1557.75 975.936 1557.55 976.496 1557.55C977.056 1557.55 977.534 1557.75 977.931 1558.14C978.351 1558.54 978.561 1559.04 978.561 1559.65Z" fill="white"/>
<path d="M946.226 1664.4C949.259 1664.71 951.744 1664.86 953.681 1664.86C955.641 1664.86 957.601 1664.82 959.561 1664.75C959.748 1664.96 959.841 1665.29 959.841 1665.73L959.701 1666.75L951.651 1689.36C951.558 1689.45 951.009 1689.5 950.006 1689.5C949.003 1689.5 948.466 1689.45 948.396 1689.36L957.391 1667.76L957.426 1667.2C957.333 1667.04 956.994 1666.96 956.411 1666.96H948.816C948.046 1666.96 947.439 1667.16 946.996 1667.55C946.553 1667.95 946.261 1668.73 946.121 1669.9C946.074 1669.95 945.876 1669.97 945.526 1669.97C945.199 1669.97 944.978 1669.89 944.861 1669.72L946.226 1664.4ZM964.603 1687.47C964.603 1688.05 964.416 1688.52 964.043 1688.87C963.67 1689.2 963.18 1689.36 962.573 1689.36C961.99 1689.36 961.523 1689.17 961.173 1688.8C960.823 1688.43 960.648 1687.96 960.648 1687.4C960.648 1686.82 960.823 1686.34 961.173 1685.96C961.523 1685.57 961.978 1685.37 962.538 1685.37C963.098 1685.37 963.576 1685.57 963.973 1685.96C964.393 1686.36 964.603 1686.86 964.603 1687.47Z" fill="white"/>
<path d="M585.94 2395.8C587.154 2394.75 588.729 2394.22 590.665 2394.22C592.602 2394.22 594.165 2394.74 595.355 2395.76C596.545 2396.79 597.14 2398.23 597.14 2400.07C597.14 2402.15 595.74 2404.02 592.94 2405.7C594.387 2406.38 595.67 2407.33 596.79 2408.54C597.91 2409.73 598.47 2411.21 598.47 2412.98C598.47 2414.76 597.689 2416.3 596.125 2417.6C594.585 2418.89 592.812 2419.53 590.805 2419.53C588.822 2419.53 587.037 2418.92 585.45 2417.71C583.887 2416.5 583.105 2415.03 583.105 2413.3C583.105 2411.57 583.607 2410.08 584.61 2408.82C585.614 2407.56 586.769 2406.63 588.075 2406.02C587.142 2405.46 586.255 2404.65 585.415 2403.6C584.575 2402.53 584.155 2401.38 584.155 2400.14C584.155 2398.3 584.75 2396.85 585.94 2395.8ZM590.945 2417.71C592.299 2417.71 593.395 2417.29 594.235 2416.45C595.099 2415.61 595.53 2414.49 595.53 2413.09C595.53 2411.67 595.087 2410.51 594.2 2409.62C593.337 2408.71 591.879 2407.91 589.825 2407.21C588.519 2407.86 587.562 2408.64 586.955 2409.55C586.349 2410.46 586.045 2411.63 586.045 2413.05C586.045 2414.45 586.524 2415.59 587.48 2416.45C588.46 2417.29 589.615 2417.71 590.945 2417.71ZM590.56 2396.04C589.557 2396.04 588.729 2396.34 588.075 2396.92C587.422 2397.5 587.095 2398.34 587.095 2399.44C587.095 2400.54 587.445 2401.59 588.145 2402.59C588.845 2403.59 589.837 2404.29 591.12 2404.69C593.174 2403.52 594.2 2401.7 594.2 2399.23C594.2 2398.27 593.839 2397.5 593.115 2396.92C592.415 2396.34 591.564 2396.04 590.56 2396.04ZM605.928 2417.29C605.928 2417.87 605.742 2418.34 605.368 2418.69C604.995 2419.02 604.505 2419.18 603.898 2419.18C603.315 2419.18 602.848 2418.99 602.498 2418.62C602.148 2418.25 601.973 2417.78 601.973 2417.22C601.973 2416.64 602.148 2416.16 602.498 2415.78C602.848 2415.39 603.303 2415.19 603.863 2415.19C604.423 2415.19 604.902 2415.39 605.298 2415.78C605.718 2416.18 605.928 2416.68 605.928 2417.29Z" fill="white"/>
<path d="M396.802 2448.11C395.495 2448.11 394.492 2448.68 393.792 2449.82C393.115 2450.94 392.777 2452.4 392.777 2454.2C392.777 2455.99 393.197 2457.42 394.037 2458.47C394.877 2459.52 395.834 2460.04 396.907 2460.04C397.98 2460.04 398.937 2459.7 399.777 2459.03C400.617 2458.35 401.259 2457.56 401.702 2456.65C401.655 2450.95 400.022 2448.11 396.802 2448.11ZM393.442 2468.9C393.442 2469.29 393.687 2469.61 394.177 2469.84C394.69 2470.05 395.309 2470.16 396.032 2470.16C399.835 2470.16 401.737 2466.46 401.737 2459.06C400.337 2460.74 398.424 2461.58 395.997 2461.58C394.317 2461.58 392.87 2460.86 391.657 2459.41C390.467 2457.94 389.872 2456.23 389.872 2454.27C389.872 2452.28 390.502 2450.48 391.762 2448.84C393.045 2447.19 394.749 2446.36 396.872 2446.36C399.859 2446.36 401.924 2447.44 403.067 2449.61C404.07 2451.6 404.572 2454.22 404.572 2457.49C404.572 2461.03 404.012 2464.2 402.892 2466.97C402.309 2468.4 401.445 2469.54 400.302 2470.4C399.182 2471.24 397.875 2471.66 396.382 2471.66C394.889 2471.66 393.617 2471.36 392.567 2470.75C391.54 2470.15 391.027 2469.25 391.027 2468.06C391.027 2467.47 391.167 2467.02 391.447 2466.69C391.727 2466.34 392.1 2466.17 392.567 2466.17C393.71 2466.17 394.282 2466.56 394.282 2467.36C394.282 2467.68 394.142 2468.01 393.862 2468.34C393.582 2468.64 393.442 2468.83 393.442 2468.9ZM412.358 2469.42C412.358 2470.01 412.171 2470.47 411.798 2470.82C411.425 2471.15 410.935 2471.31 410.328 2471.31C409.745 2471.31 409.278 2471.13 408.928 2470.75C408.578 2470.38 408.403 2469.91 408.403 2469.35C408.403 2468.77 408.578 2468.29 408.928 2467.92C409.278 2467.52 409.733 2467.32 410.293 2467.32C410.853 2467.32 411.331 2467.52 411.728 2467.92C412.148 2468.31 412.358 2468.82 412.358 2469.42Z" fill="white"/>
<path d="M33.6734 2148.24L27.0934 2148.52C27.0001 2148.45 26.9534 2148.25 26.9534 2147.92C26.9534 2147.59 27.0468 2147.37 27.2334 2147.26C28.9368 2147.26 30.1384 2147.05 30.8384 2146.63C31.5618 2146.21 31.9351 2145.35 31.9584 2144.07L32.0634 2130.63C32.0868 2129.25 31.7484 2128.4 31.0484 2128.08C30.3484 2127.75 28.8784 2127.59 26.6384 2127.59C26.5684 2127.52 26.5334 2127.33 26.5334 2127.03C26.5334 2126.7 26.6151 2126.47 26.7784 2126.33C29.7651 2126.14 31.9001 2125.33 33.1834 2123.91C33.2768 2123.82 33.4751 2123.77 33.7784 2123.77C34.0818 2123.77 34.3034 2123.82 34.4434 2123.91L35.1784 2144.07C35.2251 2145.38 35.5868 2146.24 36.2634 2146.66C36.9634 2147.06 38.1534 2147.26 39.8334 2147.26C40.0201 2147.4 40.1134 2147.62 40.1134 2147.92C40.1134 2148.22 40.0668 2148.42 39.9734 2148.52L33.6734 2148.24ZM45.8482 2146.63C45.8482 2147.21 45.6616 2147.68 45.2882 2148.03C44.9149 2148.35 44.4249 2148.52 43.8182 2148.52C43.2349 2148.52 42.7682 2148.33 42.4182 2147.96C42.0682 2147.58 41.8932 2147.12 41.8932 2146.56C41.8932 2145.97 42.0682 2145.49 42.4182 2145.12C42.7682 2144.72 43.2232 2144.53 43.7832 2144.53C44.3432 2144.53 44.8216 2144.72 45.2182 2145.12C45.6382 2145.52 45.8482 2146.02 45.8482 2146.63Z" fill="white"/>
<path d="M25.0684 2001.27C24.9518 2001.25 24.8934 2001.13 24.8934 2000.92C24.8934 2000.43 24.9868 1999.89 25.1734 1999.28C25.3834 1998.67 25.8851 1997.87 26.6784 1996.86C27.4951 1995.84 28.4051 1994.75 29.4084 1993.61C30.4118 1992.47 31.4034 1991.28 32.3834 1990.04C33.3868 1988.78 34.2151 1987.46 34.8684 1986.08C35.5451 1984.71 35.8834 1983.39 35.8834 1982.13C35.8834 1980.85 35.4868 1979.87 34.6934 1979.19C33.9234 1978.49 33.0018 1978.14 31.9284 1978.14C30.8551 1978.14 29.9918 1978.29 29.3384 1978.59C28.6851 1978.9 28.3584 1979.29 28.3584 1979.78C28.3584 1979.92 28.4984 1980.16 28.7784 1980.48C29.0584 1980.79 29.1984 1981.13 29.1984 1981.5C29.1984 1982.29 28.6268 1982.69 27.4834 1982.69C26.9468 1982.69 26.5268 1982.54 26.2234 1982.23C25.9201 1981.93 25.7684 1981.51 25.7684 1980.97C25.7684 1979.97 26.1068 1979.11 26.7834 1978.38C28.0668 1977.01 29.9451 1976.32 32.4184 1976.32C34.2618 1976.32 35.8018 1976.8 37.0384 1977.75C38.2751 1978.71 38.8934 1980.15 38.8934 1982.06C38.8934 1983.51 38.4851 1985.01 37.6684 1986.57C36.7118 1988.42 35.7901 1989.93 34.9034 1991.12C34.0168 1992.31 33.3401 1993.2 32.8734 1993.78C32.4301 1994.34 31.7301 1995.21 30.7734 1996.37C29.8401 1997.54 29.2334 1998.29 28.9534 1998.61C28.6968 1998.94 28.5684 1999.2 28.5684 1999.38C28.5684 1999.41 29.0701 1999.42 30.0734 1999.42H32.5584C33.6551 1999.42 34.4718 1999.42 35.0084 1999.42C35.5684 1999.4 36.1168 1999.31 36.6534 1999.17C37.2134 1999.03 37.5868 1998.88 37.7734 1998.72C37.9834 1998.56 38.1818 1998.26 38.3684 1997.84C38.5551 1997.4 38.6718 1996.95 38.7184 1996.48C38.7651 1995.99 38.8001 1995.3 38.8234 1994.41C38.8934 1994.34 39.1034 1994.31 39.4534 1994.31C39.8268 1994.31 40.2001 1994.46 40.5734 1994.76L39.5584 2001.62C37.7151 2001.41 34.9618 2001.31 31.2984 2001.31L25.0684 2001.27ZM47.6637 1999.38C47.6637 1999.97 47.477 2000.43 47.1037 2000.78C46.7303 2001.11 46.2403 2001.27 45.6337 2001.27C45.0503 2001.27 44.5837 2001.09 44.2337 2000.71C43.8837 2000.34 43.7087 1999.87 43.7087 1999.31C43.7087 1998.73 43.8837 1998.25 44.2337 1997.88C44.5837 1997.48 45.0387 1997.28 45.5987 1997.28C46.1587 1997.28 46.637 1997.48 47.0337 1997.88C47.4537 1998.28 47.6637 1998.78 47.6637 1999.38Z" fill="white"/>
<path d="M287.16 1098.15C287.067 1098.15 286.938 1097.99 286.775 1097.66C286.612 1097.34 286.53 1097.1 286.53 1096.96C286.53 1096.82 286.542 1096.74 286.565 1096.72C288.385 1096.21 289.89 1095.47 291.08 1094.51C292.27 1093.56 292.865 1092.43 292.865 1091.12C292.865 1089.79 292.538 1088.77 291.885 1088.07C291.255 1087.35 290.462 1086.99 289.505 1086.99C288.572 1086.99 287.802 1087.16 287.195 1087.51C286.612 1087.84 286.32 1088.23 286.32 1088.67C286.32 1088.88 286.448 1089.14 286.705 1089.44C286.985 1089.74 287.125 1090.13 287.125 1090.59C287.125 1091.39 286.553 1091.78 285.41 1091.78C284.873 1091.78 284.453 1091.63 284.15 1091.33C283.847 1091.03 283.695 1090.61 283.695 1090.07C283.695 1088.67 284.337 1087.5 285.62 1086.57C286.927 1085.64 288.385 1085.17 289.995 1085.17C291.605 1085.17 292.97 1085.71 294.09 1086.78C295.233 1087.83 295.805 1089.26 295.805 1091.08C295.805 1092.39 295.338 1093.5 294.405 1094.41C293.472 1095.3 292.34 1095.96 291.01 1096.4C292.76 1096.61 294.218 1097.33 295.385 1098.54C296.575 1099.73 297.17 1101.28 297.17 1103.19C297.17 1105.08 296.377 1106.78 294.79 1108.27C293.227 1109.74 291.407 1110.48 289.33 1110.48C287.86 1110.48 286.53 1110.11 285.34 1109.39C284.173 1108.64 283.59 1107.57 283.59 1106.17C283.59 1105.63 283.742 1105.21 284.045 1104.91C284.372 1104.61 284.792 1104.45 285.305 1104.45C286.448 1104.45 287.02 1104.85 287.02 1105.64C287.02 1106.02 286.88 1106.37 286.6 1106.69C286.32 1107 286.18 1107.22 286.18 1107.36C286.18 1107.73 286.507 1108.06 287.16 1108.34C287.837 1108.6 288.502 1108.72 289.155 1108.72C290.672 1108.72 291.897 1108.21 292.83 1107.18C293.763 1106.16 294.23 1104.83 294.23 1103.19C294.23 1101.54 293.81 1100.17 292.97 1099.1C292.153 1098 291.092 1097.45 289.785 1097.45C288.922 1097.45 288.058 1097.69 287.195 1098.15H287.16ZM304.671 1108.23C304.671 1108.82 304.485 1109.28 304.111 1109.63C303.738 1109.96 303.248 1110.12 302.641 1110.12C302.058 1110.12 301.591 1109.94 301.241 1109.56C300.891 1109.19 300.716 1108.72 300.716 1108.16C300.716 1107.58 300.891 1107.1 301.241 1106.73C301.591 1106.33 302.046 1106.13 302.606 1106.13C303.166 1106.13 303.645 1106.33 304.041 1106.73C304.461 1107.13 304.671 1107.63 304.671 1108.23Z" fill="white"/>
<path d="M189.192 714.329L184.747 714.469C184.677 714.399 184.642 714.212 184.642 713.909C184.642 713.582 184.712 713.349 184.852 713.209C185.785 713.209 186.462 713.08 186.882 712.824C187.302 712.544 187.524 712.077 187.547 711.424L187.477 707.714H177.712C177.595 707.644 177.537 707.34 177.537 706.804C177.537 706.244 177.595 705.905 177.712 705.789L188.317 689.864C188.41 689.77 188.609 689.724 188.912 689.724C189.215 689.724 189.437 689.77 189.577 689.864L190.137 705.789H193.567C193.684 706.139 193.742 706.5 193.742 706.874C193.742 707.247 193.649 707.527 193.462 707.714H190.207L190.347 711.424C190.37 712.077 190.58 712.544 190.977 712.824C191.397 713.08 192.074 713.209 193.007 713.209C193.124 713.325 193.182 713.559 193.182 713.909C193.182 714.235 193.159 714.422 193.112 714.469L189.192 714.329ZM187.547 693.749C182.834 701.705 180.477 705.707 180.477 705.754C180.477 705.777 180.512 705.789 180.582 705.789H187.232C187.395 705.789 187.477 705.707 187.477 705.544L187.722 693.784C187.722 693.714 187.699 693.679 187.652 693.679C187.605 693.679 187.57 693.702 187.547 693.749ZM200.527 712.579C200.527 713.162 200.34 713.629 199.967 713.979C199.594 714.305 199.104 714.469 198.497 714.469C197.914 714.469 197.447 714.282 197.097 713.909C196.747 713.535 196.572 713.069 196.572 712.509C196.572 711.925 196.747 711.447 197.097 711.074C197.447 710.677 197.902 710.479 198.462 710.479C199.022 710.479 199.5 710.677 199.897 711.074C200.317 711.47 200.527 711.972 200.527 712.579Z" fill="white"/>
<path d="M108.678 245.275C107.861 245.275 107.114 245.403 106.438 245.66C105.784 245.893 105.446 246.01 105.423 246.01C105.306 246.01 105.178 245.823 105.038 245.45C104.898 245.077 104.828 244.75 104.828 244.47L105.108 234.775C105.108 234.355 105.318 234.145 105.738 234.145H111.233C112.399 234.145 113.181 234.052 113.578 233.865C113.974 233.655 114.324 233.13 114.628 232.29C114.674 232.243 114.838 232.22 115.118 232.22C115.421 232.22 115.678 232.302 115.888 232.465L114.698 236.07H107.453C107.196 236.07 107.068 236.268 107.068 236.665L106.543 243.98C107.476 243.77 108.304 243.665 109.028 243.665C111.338 243.665 113.239 244.377 114.733 245.8C116.226 247.2 116.973 248.868 116.973 250.805C116.973 253.138 116.296 255.11 114.943 256.72C113.613 258.307 111.758 259.1 109.378 259.1C107.931 259.1 106.613 258.727 105.423 257.98C104.256 257.233 103.673 256.172 103.673 254.795C103.673 254.258 103.824 253.838 104.128 253.535C104.431 253.232 104.851 253.08 105.388 253.08C106.531 253.08 107.103 253.477 107.103 254.27C107.103 254.643 106.963 254.993 106.682 255.32C106.403 255.623 106.263 255.845 106.263 255.985C106.263 256.358 106.589 256.685 107.243 256.965C107.919 257.222 108.573 257.35 109.203 257.35C110.719 257.35 111.909 256.755 112.773 255.565C113.636 254.352 114.068 252.87 114.068 251.12C114.068 249.347 113.566 247.935 112.563 246.885C111.559 245.812 110.264 245.275 108.678 245.275ZM124.107 256.86C124.107 257.443 123.92 257.91 123.547 258.26C123.174 258.587 122.684 258.75 122.077 258.75C121.494 258.75 121.027 258.563 120.677 258.19C120.327 257.817 120.152 257.35 120.152 256.79C120.152 256.207 120.327 255.728 120.677 255.355C121.027 254.958 121.482 254.76 122.042 254.76C122.602 254.76 123.08 254.958 123.477 255.355C123.897 255.752 124.107 256.253 124.107 256.86Z" fill="white"/>
<circle cx="87.1875" cy="2136.72" r="5" transform="rotate(-90 87.1875 2136.72)" fill="#838C94"/>
<circle cx="87.1875" cy="1989.65" r="5" transform="rotate(-90 87.1875 1989.65)" fill="#838C94"/>
<circle cx="356.281" cy="1989.9" r="5" transform="rotate(-90 356.281 1989.9)" fill="#838C94"/>
<path d="M352.797 2131.91C355.558 2131.91 357.797 2134.15 357.797 2136.91C357.797 2139.68 355.558 2141.91 352.797 2141.91C350.035 2141.91 347.797 2139.68 347.797 2136.91C347.797 2134.15 350.035 2131.91 352.797 2131.91Z" fill="#838C94"/>
<path d="M402.523 2191.97C405.285 2191.97 407.523 2194.21 407.523 2196.97C407.523 2199.73 405.285 2201.97 402.523 2201.97C399.762 2201.97 397.523 2199.73 397.523 2196.97C397.523 2194.21 399.762 2191.97 402.523 2191.97Z" fill="#838C94"/>
<path d="M402.617 2398.99C405.379 2398.99 407.617 2401.23 407.617 2403.99C407.617 2406.75 405.379 2408.99 402.617 2408.99C399.856 2408.99 397.617 2406.75 397.617 2403.99C397.617 2401.23 399.856 2398.99 402.617 2398.99Z" fill="#838C94"/>
<path d="M596.094 2344.56C598.855 2344.56 601.094 2346.8 601.094 2349.56C601.094 2352.32 598.855 2354.56 596.094 2354.56C593.332 2354.56 591.094 2352.32 591.094 2349.56C591.094 2346.8 593.332 2344.56 596.094 2344.56Z" fill="#838C94"/>
<path d="M594.625 1988.05C597.386 1988.05 599.625 1990.29 599.625 1993.05C599.625 1995.81 597.386 1998.05 594.625 1998.05C591.864 1998.05 589.625 1995.81 589.625 1993.05C589.625 1990.29 591.864 1988.05 594.625 1988.05Z" fill="#838C94"/>
<path d="M906.836 1670.3C909.597 1670.3 911.836 1672.54 911.836 1675.3C911.836 1678.06 909.597 1680.3 906.836 1680.3C904.075 1680.3 901.836 1678.06 901.836 1675.3C901.836 1672.54 904.075 1670.3 906.836 1670.3Z" fill="#838C94"/>
<path d="M695.367 1670.3C698.129 1670.3 700.367 1672.54 700.367 1675.3C700.367 1678.06 698.129 1680.3 695.367 1680.3C692.606 1680.3 690.367 1678.06 690.367 1675.3C690.367 1672.54 692.606 1670.3 695.367 1670.3Z" fill="#838C94"/>
<path d="M905.836 1544.04C908.597 1544.04 910.836 1546.28 910.836 1549.04C910.836 1551.8 908.597 1554.04 905.836 1554.04C903.075 1554.04 900.836 1551.8 900.836 1549.04C900.836 1546.28 903.075 1544.04 905.836 1544.04Z" fill="#838C94"/>
<path d="M617.5 1544.03C620.261 1544.03 622.5 1546.27 622.5 1549.03C622.5 1551.79 620.261 1554.03 617.5 1554.03C614.739 1554.03 612.5 1551.79 612.5 1549.03C612.5 1546.27 614.739 1544.03 617.5 1544.03Z" fill="#838C94"/>
<path d="M345.125 1092.62C347.886 1092.62 350.125 1094.86 350.125 1097.62C350.125 1100.39 347.886 1102.62 345.125 1102.62C342.364 1102.62 340.125 1100.39 340.125 1097.62C340.125 1094.86 342.364 1092.62 345.125 1092.62Z" fill="#838C94"/>
<path d="M459.961 1092.62C462.722 1092.62 464.961 1094.86 464.961 1097.62C464.961 1100.39 462.722 1102.62 459.961 1102.62C457.2 1102.62 454.961 1100.39 454.961 1097.62C454.961 1094.86 457.2 1092.62 459.961 1092.62Z" fill="#838C94"/>
<path d="M240.266 696.969C243.027 696.969 245.266 699.207 245.266 701.969C245.266 704.73 243.027 706.969 240.266 706.969C237.504 706.969 235.266 704.73 235.266 701.969C235.266 699.207 237.504 696.969 240.266 696.969Z" fill="#838C94"/>
<path d="M538.742 696.969C541.504 696.969 543.742 699.207 543.742 701.969C543.742 704.73 541.504 706.969 538.742 706.969C535.981 706.969 533.742 704.73 533.742 701.969C533.742 699.207 535.981 696.969 538.742 696.969Z" fill="#838C94"/>
<path d="M438.562 240.938C441.324 240.938 443.562 243.176 443.562 245.938C443.562 248.699 441.324 250.938 438.562 250.938C435.801 250.938 433.562 248.699 433.562 245.938C433.562 243.176 435.801 240.938 438.562 240.938Z" fill="#838C94"/>
<path d="M164.969 240.938C167.73 240.938 169.969 243.176 169.969 245.938C169.969 248.699 167.73 250.938 164.969 250.938C162.207 250.938 159.969 248.699 159.969 245.938C159.969 243.176 162.207 240.938 164.969 240.938Z" fill="#838C94"/>
</svg>
