<svg width="2496" height="1005" viewBox="0 0 2496 1005" fill="none" xmlns="http://www.w3.org/2000/svg">
<path d="M2087.16 569.081L2095.3 569.081M2087.16 569.081L2007.03 570.929M2087.16 569.081L2087.16 560.165M2443.14 627.653C2437.69 627.815 2429.21 626.533 2429.21 626.533C2429.21 626.533 2416.39 614.289 2406.74 608.507C2397.54 602.99 2391.42 599.585 2380.76 598.318C2373.94 597.507 2368.56 597.183 2363.77 597.188M2443.14 627.653C2444.76 627.605 2446.74 627.411 2448.52 627.197C2451.68 626.817 2454.74 625.827 2457.52 624.265C2464.88 620.14 2479.84 610.877 2486.24 600.591C2493.12 589.533 2494.99 570.678 2495.44 564.223C2495.54 562.725 2495.45 561.231 2495.21 559.748L2494.44 554.935C2493.02 546.008 2486.69 538.641 2478.09 535.875L2453.28 527.908L2452.5 527.666M2443.14 627.653C2443.14 627.653 2435.01 619.43 2429.21 614.848C2422.62 609.635 2418.84 606.596 2411.26 602.975C2402.95 599.008 2397.81 597.363 2388.68 596.163C2379.03 594.895 2363.77 597.188 2363.77 597.188M2143.21 435.619C2143.21 435.619 2152.49 435.898 2158.97 437.395C2165.15 438.824 2168.57 439.815 2174.71 441.43C2179.16 442.603 2183.86 443.895 2188.69 445.27M2143.21 435.619L2139.45 435.616C2132.35 435.611 2125.68 439.034 2121.55 444.809L2104.19 469.05M2143.21 435.619C2143.21 435.619 2137.61 438.782 2134.49 441.43C2127.56 447.318 2126.43 454.611 2119.55 460.569C2113.25 466.031 2104.19 469.05 2104.19 469.05M2104.19 469.05L2095.3 469.05M2095.3 469.05L2087.16 468.901M2095.3 469.05L2095.3 528.577M2363.77 597.188C2354.24 597.198 2347.01 598.511 2335.26 599.89C2317.88 601.931 2293.25 608.575 2281.68 611.873C2277.41 613.089 2272.92 613.314 2268.57 612.453V612.453M2268.57 612.453L2267.44 612.229C2263.78 611.507 2260.21 610.407 2256.78 608.949L2228.1 596.756L2191.81 583.034C2191.81 583.034 2187.41 581.611 2181.07 579.72M2268.57 612.453C2268.57 612.453 2264.58 613.798 2261.94 613.764C2258.4 613.718 2253.27 611.142 2253.27 611.142L2181.07 579.72M2181.07 579.72C2172.05 577.032 2159.1 573.398 2149.24 571.558C2139.06 569.656 2124.46 569.081 2124.46 569.081L2095.3 569.081M1181.73 452.885C1181.73 452.885 1173.5 452.412 1166.81 447.443M1181.73 452.885L1208.3 453.326M1181.73 452.885L1178.2 452.885M1154.59 810.237C1154.59 810.237 1161.73 793.994 1152.36 783.389C1134.75 763.464 1102.43 771.099 1077.3 753.344C1047.43 732.234 1027.23 715.697 1021.18 679.618C1015.98 648.613 1019.41 622.958 1042.94 602.109C1051.53 594.493 1062.57 588.454 1067.28 586.039M1069.57 584.899C1069.57 584.899 1068.72 585.299 1067.28 586.039M1069.57 584.899L1077.06 584.792M1069.57 584.899L1054.18 584.899M1334.65 581.185L1375.06 580.611M1334.65 581.185L1334.65 455.512M1334.65 581.185L1329.9 581.252M1067.28 586.039C1067.28 586.039 1046.03 592.912 1035.69 602.109C1021.78 614.479 1017.13 625.878 1013 644.03C1008.5 663.802 1010.17 676.66 1016.83 695.81C1024.55 717.973 1034.65 728.997 1052.63 744.074C1067.78 756.779 1077.69 761.529 1095.95 769.105C1112 775.761 1133 776.882 1147.26 787.374C1152.87 791.506 1154.59 799.705 1154.59 805.033C1154.59 820.898 1148.55 826.042 1140.02 834.111C1131.5 842.179 1113.15 848.81 1089.43 854.16C1026.68 868.313 969.838 844.391 913.148 820.565C878.273 805.907 871.694 793.967 835.832 789.977C823.363 788.59 803.922 793.208 792.542 796.376C786.402 798.086 780.51 800.511 774.779 803.297L634.471 871.506C634.471 871.506 524.379 918.875 452.731 906.893C428.782 902.889 408.77 899.926 385.837 888.354C364.081 877.375 347.991 864.43 329.366 843.211C303.926 814.228 299.767 796.314 283.867 755.567C266.98 712.293 259.815 636.56 259.815 636.56C259.815 636.56 254.479 566.873 255.556 520.309C256.482 480.264 262.278 421.057 263.849 405.582C264.11 403.013 264.403 400.501 264.785 397.948C268.326 374.279 289.981 247.124 352.87 198.132C391.768 167.829 411.67 153.003 471.59 148.413C541.197 143.082 607.604 158.105 672.434 184.003C697.458 194 733.274 212.636 741.23 216.816C742.314 217.386 743.411 217.878 744.558 218.306L817.616 245.548C817.616 245.548 856.812 258.98 884.916 257.295C902.777 256.224 929.536 247.899 942.485 243.554C947.549 241.855 952.367 239.774 957.179 237.457C984.709 224.206 1084.45 177.689 1124.64 179.34C1152.68 180.492 1173.83 180.806 1195.54 198.589C1212.59 212.557 1220.94 226.266 1224.66 249.916C1226.04 258.689 1227.34 276.702 1227.34 276.702M1166.81 447.443C1163.75 445.172 1161.3 442.24 1160.65 438.52C1158.31 425.062 1181.02 386.572 1194.3 365.503C1200.32 355.96 1205.88 346.144 1210.58 335.889L1212.66 331.365L1219.18 317.141C1220.92 313.342 1222.37 309.416 1223.29 305.34C1224.84 298.507 1227.08 287.027 1227.34 276.702M1166.81 447.443C1166.81 447.443 1166.75 441.06 1166.81 435.881C1166.95 424.912 1174.3 410.701 1180.73 400.34C1186.62 390.845 1192.81 381.505 1197.97 371.593L1217.67 333.77C1219.27 330.686 1220.76 327.547 1221.98 324.29C1224.34 317.975 1228.13 306.745 1228.74 298.243C1229.33 289.834 1227.34 276.702 1227.34 276.702M1089.63 452.885L1097.02 439.281L1118.38 404.545C1119.74 402.339 1120.46 399.8 1120.46 397.211L1120.46 391.642C1120.46 389.746 1119.95 387.885 1118.99 386.251L1118.39 385.235C1116.47 381.966 1113.32 379.602 1109.64 378.672V378.672C1106.2 377.803 1102.58 378.021 1099.27 379.295L1083.99 385.182C1083.52 385.361 1083.06 385.528 1082.58 385.685C1079.61 386.669 1067.84 390.504 1059.67 392.409C1033.71 398.459 1003.52 396.33 975.812 395.521C956.053 394.944 952.365 392.602 937.787 390.147C897.427 383.348 878.329 368.995 839.153 357.147C826.209 353.233 819.25 349.589 805.88 347.565C790.463 345.231 777.282 345.697 762.272 349.92C741.717 355.703 730.582 367.98 719.903 384.479C711.257 397.837 710.32 419.7 710.32 419.7L714.273 418.414M1089.63 452.885L1083.29 452.757M1089.63 452.885L1107.88 452.885M1029.41 584.899C1029.41 584.899 1016.95 595.27 1010.41 604.546C997.411 622.99 991.366 634.87 992.013 660.052C992.468 677.741 991.695 693.625 1001.88 712.196C1020.35 745.904 1047.29 768.853 1082.98 783.389C1093.64 787.732 1108.23 790.43 1117.13 791.786C1122.36 792.582 1127.6 794.082 1131.48 797.684C1133.41 799.479 1135.24 801.622 1136.06 803.836C1139.3 812.564 1128.8 821.759 1119.94 827.694C1112.9 832.41 1104.84 835.249 1096.58 837.144C1090.11 838.628 1082.25 840.262 1075.98 841.056C1055.9 843.598 1044.3 843.012 1024.15 841.056C1010.82 839.762 994.05 835.933 980.78 832.481C965.785 828.581 951.324 822.961 937.207 816.577L864.236 783.58C858.363 780.924 852.179 779.01 845.789 778.165C838.392 777.187 828.155 776.088 820.426 776.238C800.668 776.621 773.519 786.537 766.369 789.28C765.165 789.742 764.005 790.26 762.845 790.824L648.746 846.379C643.889 848.744 638.693 850.384 633.294 850.603C624.861 850.944 612.098 850.434 606.258 844.967C600.522 839.597 600.558 828.608 601.271 821.641C601.697 817.477 603.344 813.616 605.562 810.066C616.263 792.937 649.793 738.444 664.287 705.335C680.991 667.177 690.09 617.208 690.09 617.208L692.954 615.989M1029.41 584.899L1048.43 584.899M1029.41 584.899L1025.72 584.899M1083.29 452.757L1113.56 404.099C1114.76 402.176 1115.47 399.991 1115.64 397.733L1115.87 394.585C1116.02 392.578 1115.46 390.582 1114.3 388.941L1113.67 388.047C1112.47 386.356 1110.78 385.066 1108.84 384.347V384.347C1105.95 383.28 1102.78 383.321 1099.9 384.414C1091.54 387.592 1073.12 394.319 1059.67 397.252C1027.65 404.231 975.812 400.164 975.812 400.164C975.812 400.164 952.514 398.152 937.787 395.521C896.801 388.198 876.899 372.644 836.97 360.847C824.875 357.274 818.386 353.738 805.88 352.11C788.955 349.907 775.463 348.836 759.528 354.953C742.578 361.46 735.282 369.624 726.3 384.479C718.86 396.785 714.273 418.414 714.273 418.414M1083.29 452.757L1082.13 452.734M714.273 418.414L728.056 419.518C729.552 419.638 731.011 420.055 732.295 420.833C734.048 421.895 736.561 423.561 738.084 425.21C739.25 426.471 740.394 428.326 741.268 429.911C742.373 431.916 742.829 434.194 742.817 436.484L742.714 457.114M1023.78 584.899C1023.78 584.899 1011.38 595.943 1005.3 604.546C992.161 623.133 988.721 637.323 987.524 660.052C986.437 680.725 989.958 693.093 997.934 712.196C1014.79 752.566 1046.94 772.023 1081.51 787.374C1092.21 792.124 1101.7 794.15 1108.52 794.987C1115.67 795.864 1123.13 796.998 1128.94 801.261C1130.23 802.205 1131.28 803.11 1131.79 803.836C1137.12 811.467 1123.93 820.819 1115.45 825.79C1111.2 828.276 1106.59 830.02 1101.85 831.339C1094.88 833.28 1084.13 836.064 1075.98 837.229C1056.25 840.053 1044.78 839.17 1024.94 837.229C1008.16 835.588 985.406 829.365 970.933 825.007C961.524 822.174 952.342 818.687 943.298 814.843C938.056 812.616 932.451 810.205 928.781 808.546C903.588 797.158 883.861 785.223 855.39 776.004C842.33 771.775 834.149 772.081 820.426 772.394C805.774 772.728 786.378 778.193 774.727 781.929C767.926 784.109 761.369 786.955 754.947 790.08L647.262 842.472C643.861 844.127 640.25 845.329 636.49 845.743C629.173 846.548 616.667 847.195 610.882 843.211C604.687 838.944 605.072 828.624 606.199 821.594C606.962 816.833 609.111 812.48 611.718 808.425C622.808 791.172 654.374 740.735 669.109 703.331C682.226 670.035 692.954 615.989 692.954 615.989M1023.78 584.899L1025.72 584.899M1023.78 584.899L1021.79 584.899M692.954 615.989L720.672 616.935C725.943 617.114 731.421 616.37 735.541 613.079C736.211 612.544 736.826 611.981 737.324 611.407C738.921 609.569 740.189 606.622 740.998 604.372C741.738 602.315 742.001 600.131 742.012 597.945L742.107 578.838M2095.3 569.081L2095.3 544.596M2087.16 468.901L2005.61 467.409M2087.16 468.901L2087.16 476.302M2005.61 467.409L2007.03 570.929M2005.61 467.409L1999.97 467.306M2007.03 570.929L2001.15 571.064M1999.97 467.306L2001.15 571.064M1999.97 467.306L1926.82 465.968M2001.15 571.064L1926.82 572.777M1926.82 465.968L1926.82 572.777M1926.82 465.968L1920.7 465.855M1926.82 572.777L1921.69 572.896M1920.7 465.855L1921.69 572.896M1920.7 465.855L1851.79 464.595M1921.69 572.896L1898.91 573.421L1851.79 574.069M1851.79 464.595L1846.16 464.492M1851.79 464.595L1851.79 544.596L1851.79 547.443M1851.79 574.069L1846.16 574.147M1851.79 574.069L1851.79 547.443M1846.16 464.492L1781 463.3M1846.16 464.492L1846.16 489.926M1846.16 574.147L1781 575.043M1846.16 574.147L1846.16 565.126M1781 463.3L1781 575.043M1781 463.3L1774.79 463.186M1781 575.043L1774.79 575.129M1774.79 463.186L1768.58 463.073L1713.74 462.114M1774.79 463.186L1774.79 528.577M1774.79 575.129L1713.74 575.969M1774.79 575.129L1774.79 528.577M1713.74 462.114L1713.74 575.969M1713.74 462.114L1706.69 461.991M1713.74 575.969L1706.69 576.066M1706.69 461.991L1706.69 576.066M1706.69 461.991L1649.88 460.997M1706.69 576.066L1649.88 576.848M1649.88 460.997L1649.88 576.848M1649.88 460.997L1644.14 460.897M1649.88 576.848L1644.14 576.926M1644.14 460.897L1644.14 576.926M1644.14 460.897L1589.36 459.939M1644.14 576.926L1589.36 577.68M1589.36 459.939L1584.23 459.85M1589.36 459.939L1589.36 568.25M1589.36 577.68L1584.23 577.751M1589.36 577.68L1589.36 568.25M1584.23 459.85L1584.23 577.751M1584.23 459.85L1534.09 458.973M1584.23 577.751L1534.09 578.441M1534.09 458.973L1534.09 578.441M1534.09 458.973L1527.66 458.86M1534.09 578.441L1527.66 578.529M1527.66 458.86L1479.54 458.019M1527.66 458.86L1527.66 468.155M1527.66 578.529L1479.54 579.191M1527.66 578.529L1527.66 468.155M1479.54 458.019L1479.54 579.191M1479.54 458.019L1475.02 458.019M1479.54 579.191L1475.02 579.191M1475.02 458.019L1429.15 457.2M1475.02 458.019L1475.02 485.546M1475.02 579.191L1429.15 579.843M1475.02 579.191L1475.02 507.966M1429.15 457.2L1429.15 579.843M1429.15 457.2L1423.98 457.108M1429.15 579.843L1423.98 579.916M1423.98 457.108L1423.98 579.916M1423.98 457.108L1380.93 456.339M1423.98 579.916L1380.93 580.528M1380.93 456.339L1375.06 456.234M1380.93 456.339L1380.93 528.577M1380.93 580.528L1375.06 580.611M1380.93 580.528L1380.93 528.577M1375.06 456.234L1375.06 580.611M1375.06 456.234L1334.65 455.512M1334.65 455.512L1329.9 455.428M1329.9 455.428L1329.9 581.252M1329.9 455.428L1292.74 454.764M1329.9 581.252L1292.74 581.772M1292.74 454.764L1292.74 581.772M1292.74 454.764L1288.14 454.764M1292.74 581.772L1288.14 581.772M1288.14 454.764L1262.55 454.225L1252.75 454.062M1288.14 454.764L1288.14 581.772M1288.14 581.772L1252.75 582.279M1252.75 454.062L1247.58 453.977M1252.75 454.062L1252.75 550.326M1252.75 582.279L1247.58 582.352M1252.75 582.279L1252.75 572.808M1247.58 453.977L1247.58 582.352M1247.58 453.977L1214.65 453.431M1247.58 582.352L1214.65 582.823M1214.65 453.431L1214.65 582.823M1214.65 453.431L1208.3 453.326M1214.65 582.823L1208.3 582.914M1208.3 453.326L1208.3 485.545M1208.3 582.914L1178.2 583.345M1208.3 582.914L1208.3 485.545M1178.2 452.885L1178.2 583.345M1178.2 452.885L1173.97 452.885M1178.2 583.345L1173.97 583.405M1173.97 452.885L1144.82 452.885M1173.97 452.885L1173.97 507.966M1173.97 583.405L1144.82 583.822M1173.97 583.405L1173.97 507.966M1144.82 452.885L1144.82 583.822M1144.82 452.885L1140.31 452.885M1144.82 583.822L1140.31 583.887M1140.31 452.885L1140.31 583.887M1140.31 452.885L1112.97 452.885M1140.31 583.887L1112.97 584.278M1112.97 452.885L1112.97 584.278M1112.97 452.885L1107.88 452.885M1112.97 584.278L1107.88 584.351M1107.88 452.885L1107.88 584.351M1107.88 584.351L1082.13 584.719M1082.13 452.734L1082.13 584.719M1082.13 452.734L1077.06 452.632M1082.13 584.719L1077.06 584.792M1077.06 452.632L1077.06 584.792M1077.06 452.632L1054.18 452.17M1054.18 452.17L1054.18 584.899M1054.18 452.17L1048.43 452.054M1054.18 584.899L1048.43 584.899M1048.43 452.054L1048.43 584.899M1048.43 452.054L1025.72 451.596M1025.72 451.596L1025.72 584.899M1025.72 451.596L1021.79 451.517M1021.79 451.517L1003 451.138C1003 451.138 1002.25 451.189 1001.06 451.342M1021.79 451.517L1021.79 584.899M1021.79 584.899L1003.31 584.899C1003.1 584.899 1002.9 584.897 1002.69 584.889C1002.37 584.876 1001.8 584.848 1001.06 584.787M1001.06 451.342L1001.06 584.787M1001.06 451.342C999.98 451.482 998.535 451.706 996.957 452.054M1001.06 584.787C999.981 584.697 998.536 584.536 996.957 584.251M996.957 452.054C993.695 452.775 989.869 454.025 987.524 456.151C986.336 457.229 985.227 458.82 984.295 460.415M996.957 452.054L996.957 584.251M996.957 584.251C993.715 583.664 989.907 582.55 987.524 580.439C986.386 579.43 985.259 577.809 984.295 576.176M600.014 700.516C611.569 701.019 622.309 708.455 621.711 720.006C621.143 730.985 613.198 738.735 602.216 739.211M600.015 700.519C611.57 701.023 622.311 708.459 621.713 720.01C621.145 730.988 613.2 738.739 602.217 739.214M485.015 749.36C496.57 749.864 507.311 757.3 506.713 768.851C506.145 779.829 498.2 787.58 487.217 788.055M2198.43 448.09L2198.43 445.274M2198.43 448.09C2195.14 447.12 2191.88 446.177 2188.69 445.27M2198.43 448.09C2211.53 451.949 2225.2 456.218 2237.76 460.247M2198.43 445.274L2188.69 442.743M2198.43 445.274L2199.53 443.928C2200.16 443.15 2200.6 442.226 2200.78 441.239L2202.55 431.822M2188.69 442.743L2188.69 445.27M2188.69 442.743L2188.6 442.362C2188.1 440.317 2188.71 438.161 2190.21 436.68L2195.12 431.822M2202.55 431.822L2206.09 431.822C2207.09 431.822 2207.94 431.083 2208.07 430.092L2209.83 417.186C2209.87 416.853 2209.75 416.519 2209.49 416.298L2204.12 411.597C2203.49 411.045 2202.48 411.465 2202.4 412.3C2202.18 414.826 2201.65 419.142 2200.5 422.275C2199.01 426.302 2195.05 431.822 2195.05 431.822L2202.55 431.822ZM2251.4 454.899L2249.46 464.036M2251.4 454.899L2267 450.606C2268.02 450.326 2268.81 449.534 2269.09 448.52L2271.97 438.233C2272.25 437.197 2271.97 436.088 2271.19 435.347C2268.65 432.934 2262.7 427.565 2257.73 425.33C2251.26 422.42 2241.26 422.928 2237.37 423.266C2236.36 423.355 2235.48 423.991 2235.05 424.914L2229.53 436.567C2228.99 437.701 2229.22 439.05 2230.09 439.948L2242.39 452.527M2251.4 454.899L2242.39 452.527M2249.46 464.036C2270.82 471.008 2286.65 476.482 2286.65 476.482L2289.03 477.214M2249.46 464.036C2245.71 462.812 2241.79 461.542 2237.76 460.247M2242.39 452.527L2237.76 460.247M2292.63 469.578L2289.03 477.214M2292.63 469.578L2301.3 470.23M2292.63 469.578L2281.68 458.284C2280.88 457.456 2280.62 456.242 2281.02 455.161L2285.99 441.642C2286.39 440.548 2287.39 439.786 2288.56 439.716C2291.5 439.54 2297.24 439.309 2301.3 439.848C2308.79 440.842 2317.95 446.725 2321.44 449.131C2322.34 449.753 2322.78 450.829 2322.63 451.913L2321.07 463.047C2320.9 464.24 2320.04 465.217 2318.87 465.528L2301.3 470.23M2289.03 477.214L2301.3 480.988M2301.3 480.988L2301.3 470.23M2301.3 480.988L2339.36 492.691M2349.5 495.81L2377.1 504.298L2389.8 508.234M2349.5 495.81L2351.33 486.927M2349.5 495.81L2339.36 492.691M2351.33 486.927L2361.75 485.789C2362.71 485.685 2363.56 485.131 2364.03 484.298L2370.54 472.929C2371.08 471.984 2371.07 470.824 2370.47 469.915C2368.58 467.049 2364.13 460.789 2359.69 458.041C2353.91 454.46 2344.52 455.327 2340.87 455.841C2339.91 455.977 2339.12 456.611 2338.72 457.493L2333.6 468.79C2333.09 469.906 2333.31 471.218 2334.16 472.103L2344.92 483.343M2351.33 486.927L2344.92 483.343M2339.36 492.691L2344.92 483.343M2402.49 512.169L2404.56 505.124M2402.49 512.169L2389.8 508.234M2402.49 512.169L2440.8 524.039M2404.56 505.124L2392.74 500.953M2404.56 505.124L2407.06 498.867M2392.74 500.953L2389.8 508.234M2392.74 500.953L2395.93 495.947L2399.27 489.551M2399.27 489.551L2402.29 476.404C2402.41 475.897 2402.89 475.563 2403.41 475.637L2409.32 476.485C2409.85 476.56 2410.22 477.033 2410.17 477.562L2408.42 497.62C2408.36 498.326 2407.77 498.867 2407.06 498.867V498.867M2399.27 489.551C2399.27 489.551 2399.83 493.75 2401.64 495.947C2402.95 497.546 2407.06 498.867 2407.06 498.867M2452.5 527.666L2453.28 519.669M2452.5 527.666L2440.8 524.039M2453.28 519.669L2471.46 512.811C2472.51 512.416 2473.25 511.473 2473.38 510.364L2474.6 500.29C2474.71 499.39 2474.41 498.494 2473.75 497.865C2471.24 495.446 2464.51 489.339 2458.7 487.338C2452.18 485.089 2442.02 486.375 2437.97 487.029C2436.88 487.204 2436.01 487.993 2435.69 489.044L2431.53 502.556C2431.2 503.627 2431.49 504.791 2432.29 505.577L2443.14 516.255M2453.28 519.669L2443.14 516.255M2440.8 524.039L2443.14 516.255M718.595 433.009L542.258 433.009C537.234 433.009 532.438 435.106 529.025 438.793V438.793C525.94 442.126 524.227 446.5 524.227 451.041L524.227 557.009M718.595 601.237L718.595 604.148L712.42 606.892C709.863 608.029 707.096 608.616 704.298 608.616L524.227 608.616C524.227 608.616 518.032 608.014 515.29 605.544C511.438 602.074 511.939 592.698 511.939 592.698L511.939 576.491M718.595 601.237L718.595 430.694L711.192 428.826C709.432 428.382 707.624 428.157 705.809 428.157L535.356 428.157C530.815 428.157 526.243 428.88 522.324 431.172C519.67 432.724 516.828 434.787 515.29 437.147C512.632 441.227 511.939 449.156 511.939 449.156L511.939 463.5M718.595 601.237L538.469 601.237C535.796 601.237 533.176 600.484 530.91 599.065V599.065C526.752 596.461 524.227 591.901 524.227 586.994L524.227 557.009M511.939 463.5L554.28 463.5L554.28 473.887L511.939 473.887M511.939 463.5L511.939 473.887M511.939 473.887L511.939 513.915M556.037 513.915L511.939 513.915M556.037 513.915L556.037 525.062M556.037 513.915L556.037 495.369C556.037 494.789 556.53 494.33 557.109 494.372L577.366 495.838M511.939 513.915L511.939 525.062M556.037 525.062L511.939 525.062M556.037 525.062L556.037 543.427C556.037 543.964 556.461 544.405 556.998 544.427L576.962 545.215M511.939 525.062L511.939 565.09M558.841 565.09L511.939 565.09M558.841 565.09L558.841 576.491M558.841 565.09L558.841 548.357C558.841 547.805 559.289 547.357 559.841 547.357L579.309 547.357M511.939 565.09L511.939 576.491M558.841 576.491L511.939 576.491M558.841 576.491L559.706 596.31C559.729 596.845 560.17 597.266 560.705 597.266L579.309 597.266M577.366 445.484L579.409 445.621C579.934 445.657 580.342 446.093 580.342 446.619L580.342 493.243C580.342 493.815 579.864 494.271 579.292 494.242L577.366 494.146M577.366 445.484L577.366 466.95M577.366 445.484L574.193 445.27M577.366 466.95L592.652 466.95C593.204 466.95 593.652 467.398 593.652 467.95L593.652 471.543C593.652 472.096 593.204 472.543 592.652 472.543L577.366 472.543M577.366 466.95L574.193 466.95M577.366 472.543L577.366 494.146M577.366 472.543L574.193 472.543M577.366 494.146L574.193 494.146M574.193 445.27L556.025 444.048C555.454 444.009 554.966 444.458 554.958 445.031L554.294 492.038C554.286 492.574 554.702 493.02 555.236 493.051L574.193 494.146M574.193 445.27L574.193 466.95M574.193 466.95L569.14 466.95L569.14 472.543L574.193 472.543M574.193 472.543L574.193 494.146M580.342 496.053L583.311 496.268C583.834 496.306 584.238 496.741 584.238 497.266L584.238 544.462C584.238 545.029 583.766 545.483 583.199 545.461L580.342 545.348M580.342 496.053L580.342 518.441M580.342 496.053L577.366 495.838M580.342 518.441L592.652 518.441C593.204 518.441 593.652 518.888 593.652 519.441L593.652 522.375C593.652 522.928 593.204 523.375 592.652 523.375L580.342 523.375M580.342 518.441L577.366 518.441M580.342 523.375L580.342 545.348M580.342 523.375L576.962 523.375M580.342 545.348L576.962 545.215M577.366 495.838L577.366 518.441M577.366 518.441L573.582 518.441L573.582 523.375L576.962 523.375M576.962 523.375L576.962 545.215M582.777 547.357L586.177 547.357C586.741 547.357 587.193 547.823 587.176 548.387L585.751 596.296C585.735 596.836 585.293 597.266 584.752 597.266L582.777 597.266M582.777 547.357L582.777 570.095M582.777 547.357L579.309 547.357M582.777 570.095L591.829 570.095C592.382 570.095 592.829 570.543 592.829 571.095L592.829 573.701C592.829 574.253 592.382 574.701 591.829 574.701L582.777 574.701M582.777 570.095L579.309 570.095M582.777 574.701L582.777 597.266M582.777 574.701L579.309 574.701M582.777 597.266L579.309 597.266M579.309 547.357L579.309 570.095M579.309 570.095L577.366 570.095L577.366 574.701L579.309 574.701M579.309 574.701L579.309 597.266M754.87 714.851L798.978 680.473C799.154 680.336 799.37 680.262 799.593 680.262L803.96 680.262C804.512 680.262 804.96 680.709 804.96 681.262L804.96 684.657C804.96 684.971 804.812 685.267 804.561 685.456L757.644 720.725M754.87 714.851L752.409 712.993C751.606 712.387 750.478 712.471 749.774 713.19L733.549 729.772L733.549 734.111C733.549 735.577 734.609 736.829 736.055 737.07L738.9 737.544L756.729 726.03C757.299 725.662 757.644 725.029 757.644 724.35L757.644 720.725M754.87 714.851L757.644 720.725M2442.39 546.86C2443.55 546.045 2444.94 545.571 2446.45 545.601C2447.53 545.622 2448.55 545.915 2449.44 546.41M2442.39 546.86C2440.27 548.354 2438.95 550.991 2439.13 553.755C2439.31 556.543 2440.86 558.986 2443.14 560.165M2442.39 546.86C2442.39 546.86 2434.5 548.944 2434.11 552.938C2433.67 557.434 2443.14 560.165 2443.14 560.165M2443.14 560.165C2444.13 560.673 2445.24 560.946 2446.45 560.91C2447.55 560.877 2448.56 560.615 2449.44 560.165M2443.14 560.165L2230.22 560.165L2087.16 560.165M2449.44 560.165C2451.43 559.153 2452.8 557.192 2453.28 554.753C2453.94 551.441 2452.24 547.95 2449.44 546.41M2449.44 560.165C2449.44 560.165 2445.67 564.343 2442.39 565.223C2434.82 567.257 2426.51 560.292 2426.9 552.462C2427.27 544.735 2435.88 538.471 2443.14 541.128C2446.16 542.231 2449.44 546.41 2449.44 546.41M2390.68 531.066C2391.84 530.251 2393.23 529.777 2394.74 529.807C2395.82 529.828 2396.84 530.122 2397.73 530.616M2390.68 531.066C2388.56 532.56 2387.24 535.197 2387.42 537.961C2387.6 540.749 2389.15 543.192 2391.43 544.371M2390.68 531.066C2390.68 531.066 2382.79 533.15 2382.4 537.144C2381.96 541.64 2391.43 544.371 2391.43 544.371M2391.43 544.371C2392.41 544.879 2393.53 545.152 2394.74 545.116C2395.84 545.083 2396.85 544.821 2397.73 544.371M2391.43 544.371L2095.3 544.596M2397.73 544.371C2399.72 543.359 2401.09 541.398 2401.57 538.959C2402.23 535.647 2400.53 532.156 2397.73 530.616M2397.73 544.371C2397.73 544.371 2393.96 548.549 2390.68 549.429C2383.11 551.463 2374.8 544.498 2375.19 536.668C2375.56 528.941 2384.17 522.677 2391.43 525.334C2394.45 526.437 2397.73 530.616 2397.73 530.616M2337.45 515.272C2338.61 514.458 2340 513.983 2341.51 514.013C2342.59 514.034 2343.61 514.328 2344.51 514.823M2337.45 515.272C2335.33 516.766 2334.01 519.403 2334.19 522.167C2334.37 524.955 2335.92 527.398 2338.2 528.577M2337.45 515.272C2337.45 515.272 2329.56 517.357 2329.17 521.35C2328.73 525.846 2338.2 528.577 2338.2 528.577M2338.2 528.577C2339.19 529.085 2340.31 529.358 2341.51 529.322C2342.62 529.29 2343.62 529.027 2344.51 528.577M2338.2 528.577L2095.3 528.577M2344.51 528.577C2346.49 527.565 2347.86 525.604 2348.35 523.165C2349 519.854 2347.3 516.363 2344.51 514.823M2344.51 528.577C2344.51 528.577 2340.73 532.756 2337.45 533.635C2329.88 535.669 2321.58 528.705 2321.96 520.874C2322.33 513.148 2330.94 506.883 2338.2 509.54C2341.22 510.643 2344.51 514.823 2344.51 514.823M2287.43 498.964C2288.58 498.15 2289.97 497.675 2291.48 497.705C2292.57 497.726 2293.58 498.02 2294.48 498.514M2287.43 498.964C2285.31 500.458 2283.98 503.095 2284.16 505.859C2284.34 508.647 2285.9 511.09 2288.18 512.269M2287.43 498.964C2287.43 498.964 2279.54 501.049 2279.14 505.042C2278.7 509.538 2288.18 512.269 2288.18 512.269M2288.18 512.269C2289.16 512.777 2290.28 513.05 2291.48 513.014C2292.59 512.982 2293.6 512.719 2294.48 512.269M2288.18 512.269L2208.15 510.29L2087.16 510.29M2294.48 512.269C2296.47 511.257 2297.84 509.296 2298.32 506.857C2298.98 503.545 2297.28 500.054 2294.48 498.514M2294.48 512.269C2294.48 512.269 2290.7 516.447 2287.43 517.327C2279.86 519.361 2271.55 512.396 2271.93 504.566C2272.31 496.839 2280.91 490.575 2288.18 493.232C2291.19 494.335 2294.48 498.514 2294.48 498.514M2235.59 483.987C2236.74 483.173 2238.13 482.698 2239.64 482.728C2240.73 482.749 2241.74 483.043 2242.64 483.538M2235.59 483.987C2233.47 485.481 2232.14 488.118 2232.32 490.882C2232.5 493.67 2234.05 496.114 2236.34 497.292M2235.59 483.987C2235.59 483.987 2227.7 486.072 2227.3 490.065C2226.86 494.561 2236.34 497.292 2236.34 497.292M2236.34 497.292C2237.32 497.8 2238.44 498.073 2239.64 498.038M2239.64 498.038C2240.75 498.005 2241.76 497.743 2242.64 497.292M2239.64 498.038L2195.12 494.85L2087.16 493.807M2242.64 497.292C2244.63 496.281 2245.99 494.319 2246.48 491.881C2247.14 488.569 2245.44 485.078 2242.64 483.538M2242.64 497.292C2242.64 497.292 2238.86 501.471 2235.59 502.35C2228.02 504.385 2219.71 497.42 2220.09 489.589C2220.47 481.863 2229.07 475.598 2236.34 478.255C2239.35 479.358 2242.64 483.538 2242.64 483.538M2181.24 465.055C2182.4 464.241 2183.79 463.766 2185.3 463.796C2186.39 463.817 2187.4 464.111 2188.3 464.605M2181.24 465.055C2179.13 466.549 2177.8 469.186 2177.98 471.95C2178.16 474.738 2179.71 477.181 2181.99 478.36M2181.24 465.055C2181.24 465.055 2173.35 467.14 2172.96 471.133C2172.52 475.629 2181.99 478.36 2181.99 478.36M2181.99 478.36C2182.98 478.868 2184.1 479.141 2185.3 479.105M2185.3 479.105C2186.41 479.073 2187.41 478.81 2188.3 478.36M2185.3 479.105L2087.16 476.302M2188.3 478.36C2190.28 477.348 2191.65 475.387 2192.14 472.948C2192.79 469.636 2191.1 466.146 2188.3 464.605M2188.3 478.36C2188.3 478.36 2184.52 482.539 2181.24 483.418C2173.67 485.452 2165.37 478.487 2165.75 470.657C2166.12 462.93 2174.73 456.666 2181.99 459.323C2185.01 460.426 2188.3 464.605 2188.3 464.605M2087.16 476.302L1527.66 468.155M2087.16 476.302L2087.16 493.807M1527.66 468.155L984.295 460.415M984.295 460.415C984.102 460.745 983.917 461.075 983.74 461.401C982.098 464.427 981.534 467.88 981.534 471.323L981.534 528.577M984.295 460.415L742.714 457.114M742.714 457.114L526.774 457.114M742.714 457.114L742.59 482.038M2087.16 493.807L1846.16 489.926M2087.16 493.807L2087.16 510.29M1846.16 489.926L1475.02 485.546M1846.16 489.926L1846.16 510.29M1475.02 485.546L1208.3 485.545M1475.02 485.546L1475.02 507.966M1208.3 485.545L742.59 482.038M742.59 482.038L526.774 482.038M742.59 482.038L742.461 507.966M2087.16 510.29L1846.16 510.29M2087.16 510.29L2087.16 528.577M1846.16 510.29L1475.02 507.966M1846.16 510.29L1846.16 565.126M1475.02 507.966L1173.97 507.966M1173.97 507.966L742.461 507.966M742.461 507.966L526.774 507.966M742.461 507.966L742.107 578.838M2095.3 528.577L2087.16 528.577M2095.3 528.577L2095.3 544.596M2087.16 528.577L1774.79 528.577M2087.16 528.577L2087.16 560.165M1774.79 528.577L1380.93 528.577M1380.93 528.577L981.534 528.577M981.534 528.577L742.835 528.577L526.774 531.892M981.534 528.577L981.534 553.971M2095.3 544.596L1851.79 547.443M981.534 553.971L981.534 567.886C981.534 569.746 981.892 571.593 982.72 573.259C983.157 574.139 983.695 575.16 984.295 576.176M981.534 553.971L1252.75 550.326M981.534 553.971L524.227 557.009M1252.75 550.326L1552.79 549.201L1703.65 549.201L1851.79 547.443M1252.75 550.326L1252.75 572.808M2087.16 560.165L1846.16 565.126M1846.16 565.126L1589.36 568.25M984.295 576.176L1252.75 572.808M984.295 576.176L742.107 578.838M1252.75 572.808L1589.36 568.25M742.107 578.838L526.774 581.396M962.07 454.563L962.07 576.587L961.833 577.832C958.36 596.082 931.893 595.052 929.849 576.587V576.587L929.849 454.563V454.563C934.942 440.46 954.446 439.316 961.152 452.728L962.07 454.563ZM956.273 456.151L956.273 576.587L953.487 592.763C952.041 601.161 940.215 601.778 937.903 593.575L933.115 576.587L933.115 456.151L934.262 454.135C939.417 445.071 952.849 446.301 956.273 456.151V456.151ZM634.469 720.006C634.633 702.902 619.278 689.146 602.216 690.37C586.349 691.508 574.163 704.099 574.27 720.006C574.383 736.913 589.384 750.24 606.258 749.18C622.075 748.186 634.317 735.854 634.469 720.006ZM615.925 720.006C616.003 709.43 607.137 699.656 596.397 700.516C586.422 701.314 579.689 710 579.762 720.006C579.834 729.928 586.506 738.419 596.397 739.211C607.059 740.065 615.848 730.503 615.925 720.006ZM634.471 720.01C634.635 702.905 619.279 689.149 602.217 690.373C586.35 691.512 574.165 704.102 574.271 720.01C574.385 736.917 589.386 750.244 606.26 749.183C622.077 748.189 634.318 735.857 634.471 720.01ZM615.927 720.01C616.005 709.433 607.139 699.66 596.398 700.519C586.423 701.317 579.69 710.003 579.763 720.01C579.835 729.932 586.508 738.422 596.398 739.214C607.06 740.068 615.849 730.506 615.927 720.01ZM519.471 768.851C519.635 751.746 504.279 737.99 487.217 739.214C471.35 740.352 459.165 752.943 459.271 768.851C459.385 785.757 474.386 799.084 491.26 798.024C507.077 797.03 519.318 784.698 519.471 768.851ZM500.927 768.851C501.005 758.274 492.139 748.501 481.398 749.36C471.423 750.158 464.69 758.844 464.763 768.851C464.836 778.773 471.508 787.263 481.398 788.055C492.06 788.909 500.849 779.347 500.927 768.851ZM631.076 597.971C634.827 599.88 638.941 600.332 642.818 600.055C653.384 599.3 660.36 589.829 663.668 579.765L699.629 470.387C702.41 461.928 702.91 452.425 697.686 445.215C695.104 441.652 691.724 438.379 687.556 437.147C685.99 436.685 684.358 436.393 682.712 436.233C669.888 434.988 660.252 446.117 656.18 458.341L621.129 563.57C617.784 573.613 617.73 585.136 624.862 592.958C626.741 595.018 628.838 596.831 631.076 597.971ZM2456.27 553.755C2456.64 544.985 2449.56 537.988 2440.8 537.447C2431.21 536.854 2422.3 545.2 2423.32 554.753C2424.24 563.445 2432.08 569.295 2440.8 568.731C2449.19 568.19 2455.91 562.155 2456.27 553.755ZM2404.56 537.961C2404.93 529.191 2397.85 522.195 2389.09 521.653C2379.5 521.06 2370.59 529.406 2371.61 538.959C2372.53 547.651 2380.37 553.501 2389.09 552.938C2397.48 552.396 2404.2 546.361 2404.56 537.961ZM2351.33 522.167C2351.7 513.397 2344.62 506.401 2335.86 505.859C2326.27 505.266 2317.36 513.613 2318.38 523.165C2319.3 531.857 2327.14 537.707 2335.86 537.144C2344.25 536.602 2350.97 530.567 2351.33 522.167ZM2301.3 505.859C2301.68 497.089 2294.6 490.092 2285.83 489.551C2276.25 488.958 2267.34 497.304 2268.35 506.857C2269.28 515.549 2277.11 521.399 2285.83 520.836C2294.23 520.294 2300.94 514.259 2301.3 505.859ZM2249.46 490.882C2249.84 482.112 2242.75 475.116 2233.99 474.574C2224.41 473.981 2215.5 482.328 2216.51 491.881C2217.44 500.573 2225.27 506.422 2233.99 505.859C2242.38 505.317 2249.1 499.283 2249.46 490.882ZM2195.12 471.95C2195.49 463.18 2188.41 456.183 2179.65 455.642C2170.06 455.049 2161.15 463.395 2162.17 472.948C2163.09 481.64 2170.93 487.49 2179.65 486.927C2188.04 486.385 2194.76 480.35 2195.12 471.95Z" stroke="#838C94"/>
<circle cx="621.758" cy="830.043" r="6.16828" transform="rotate(90 621.758 830.043)" stroke="#838C94"/>
<circle cx="705.422" cy="639.129" r="6.16828" transform="rotate(90 705.422 639.129)" stroke="#838C94"/>
<circle cx="695.773" cy="530.528" r="6.16828" transform="rotate(90 695.773 530.528)" stroke="#838C94"/>
<circle cx="642.332" cy="460.207" r="6.16828" transform="rotate(90 642.332 460.207)" stroke="#838C94"/>
<circle cx="612.679" cy="557.77" r="6.16828" transform="rotate(90 612.679 557.77)" stroke="#838C94"/>
<circle cx="530.014" cy="457.369" r="3.40002" transform="rotate(90 530.014 457.369)" stroke="#838C94"/>
<circle cx="530.014" cy="481.689" r="3.40002" transform="rotate(90 530.014 481.689)" stroke="#838C94"/>
<circle cx="530.014" cy="507.056" r="3.40002" transform="rotate(90 530.014 507.056)" stroke="#838C94"/>
<circle cx="530.014" cy="532.423" r="3.40002" transform="rotate(90 530.014 532.423)" stroke="#838C94"/>
<circle cx="530.014" cy="557.767" r="3.40002" transform="rotate(90 530.014 557.767)" stroke="#838C94"/>
<circle cx="530.014" cy="583.127" r="3.40002" transform="rotate(90 530.014 583.127)" stroke="#838C94"/>
<circle cx="781.797" cy="764.91" r="6.16828" transform="rotate(90 781.797 764.91)" stroke="#838C94"/>
<circle cx="916.562" cy="785.684" r="6.16828" transform="rotate(90 916.562 785.684)" stroke="#838C94"/>
<circle cx="813.895" cy="674.746" r="7.83958" transform="rotate(90 813.895 674.746)" stroke="#838C94"/>
<circle cx="946.938" cy="602.276" r="4.19834" transform="rotate(90 946.938 602.276)" stroke="#838C94"/>
<circle cx="946.938" cy="435.901" r="4.19834" transform="rotate(90 946.938 435.901)" stroke="#838C94"/>
<circle cx="1113.66" cy="809.84" r="6.16828" transform="rotate(90 1113.66 809.84)" stroke="#838C94"/>
<circle cx="981.703" cy="620.035" r="6.16828" transform="rotate(90 981.703 620.035)" stroke="#838C94"/>
<circle cx="1037.95" cy="518.734" r="6.76558" transform="rotate(90 1037.95 518.734)" stroke="#838C94"/>
<circle cx="1095.68" cy="518.734" r="6.76558" transform="rotate(90 1095.68 518.734)" stroke="#838C94"/>
<circle cx="1159.4" cy="518.734" r="6.76558" transform="rotate(90 1159.4 518.734)" stroke="#838C94"/>
<circle cx="1231.48" cy="518.734" r="6.76558" transform="rotate(90 1231.48 518.734)" stroke="#838C94"/>
<circle cx="1356.5" cy="550.195" r="6.76558" transform="rotate(90 1356.5 550.195)" stroke="#838C94"/>
<circle cx="1356.5" cy="487.945" r="6.76558" transform="rotate(90 1356.5 487.945)" stroke="#838C94"/>
<circle cx="1504.75" cy="518.93" r="6.76558" transform="rotate(90 1504.75 518.93)" stroke="#838C94"/>
<circle cx="1618.33" cy="518.375" r="6.76558" transform="rotate(90 1618.33 518.375)" stroke="#838C94"/>
<circle cx="1744.93" cy="518.375" r="6.76558" transform="rotate(90 1744.93 518.375)" stroke="#838C94"/>
<circle cx="1887.43" cy="518.375" r="6.76558" transform="rotate(90 1887.43 518.375)" stroke="#838C94"/>
<circle cx="1099.06" cy="398.793" r="6.16828" transform="rotate(90 1099.06 398.793)" stroke="#838C94"/>
<circle cx="900.273" cy="399.762" r="6.16828" transform="rotate(90 900.273 399.762)" stroke="#838C94"/>
<circle cx="731.992" cy="402.973" r="6.16828" transform="rotate(90 731.992 402.973)" stroke="#838C94"/>
<circle cx="687.597" cy="461.075" r="5.29387" transform="rotate(90 687.597 461.075)" stroke="#838C94"/>
<circle cx="679.358" cy="485.099" r="5.29387" transform="rotate(90 679.358 485.099)" stroke="#838C94"/>
<circle cx="672.366" cy="510.208" r="5.29387" transform="rotate(90 672.366 510.208)" stroke="#838C94"/>
<circle cx="664.136" cy="534.63" r="5.29387" transform="rotate(90 664.136 534.63)" stroke="#838C94"/>
<circle cx="656.722" cy="558.638" r="5.29387" transform="rotate(90 656.722 558.638)" stroke="#838C94"/>
<circle cx="649.175" cy="583.888" r="5.29387" transform="rotate(90 649.175 583.888)" stroke="#838C94"/>
<circle cx="627.913" cy="576.755" r="5.29387" transform="rotate(90 627.913 576.755)" stroke="#838C94"/>
<circle cx="635.148" cy="552.481" r="5.29387" transform="rotate(90 635.148 552.481)" stroke="#838C94"/>
<circle cx="642.827" cy="527.802" r="5.29387" transform="rotate(90 642.827 527.802)" stroke="#838C94"/>
<circle cx="651.433" cy="504.903" r="5.29387" transform="rotate(90 651.433 504.903)" stroke="#838C94"/>
<circle cx="658.839" cy="479.794" r="5.29387" transform="rotate(90 658.839 479.794)" stroke="#838C94"/>
<circle cx="667.077" cy="454.911" r="5.29387" transform="rotate(90 667.077 454.911)" stroke="#838C94"/>
<path d="M558.461 443.743C558.461 438.978 554.297 434.469 549.533 434.469C544.769 434.469 540.907 438.331 540.907 443.095C540.907 447.859 544.769 451.722 549.533 451.722C554.297 451.722 554.772 450.7 554.772 450.7" stroke="#838C94"/>
<path d="M554.11 488.761C552.565 487.301 550.48 486.406 548.186 486.406C543.422 486.406 539.56 490.268 539.56 495.033C539.56 499.797 543.422 503.659 548.186 503.659C550.142 503.659 551.945 503.009 553.392 501.912L555.867 499.316" stroke="#838C94"/>
<path d="M556.707 544.743C556.707 549.507 552.962 554.378 548.197 554.378C543.433 554.378 539.571 550.516 539.571 545.751C539.571 540.987 543.433 537.125 548.197 537.125C551.075 537.125 554.289 539.173 555.856 541.339" stroke="#838C94"/>
<path d="M543.811 600.96C541.934 599.377 539.56 596.383 539.56 593.736C539.56 588.972 543.422 585.109 548.186 585.109C552.95 585.109 556.812 588.972 556.812 593.736C556.812 596.154 555.817 598.34 554.214 599.906L552.78 600.96" stroke="#838C94"/>
<path d="M359.287 348.699C359.286 248.251 359.285 191.934 359.285 91.4855M821.116 906.071C822.025 805.616 820.207 795.872 821.116 695.416M506.529 352.695C506.529 250.472 506.529 193.16 506.529 90.9374M1398.38 460.821L1398.38 345.496M90.5688 402.879C172.433 402.879 218.332 402.879 300.196 402.879M147.309 595.189C259.383 594.689 391.472 595.689 503.547 595.189M1794.2 539.365L1794.2 240.822M2250.21 439.03L2250.21 164.895M947.029 617.477L947.029 906.071" stroke="#838C94" stroke-dasharray="10 10"/>
<path d="M951.01 1002C948.872 1004.14 945.406 1004.14 943.268 1002L912.538 971.271C910.4 969.133 910.4 965.667 912.538 963.529L943.268 932.799C945.406 930.661 948.872 930.661 951.01 932.799L981.74 963.529C983.878 965.667 983.878 969.133 981.74 971.271L951.01 1002Z" fill="#20262B" stroke="#838C94"/>
<path d="M2255.3 148.61C2253.16 150.748 2249.7 150.748 2247.56 148.61L2216.83 117.88C2214.69 115.742 2214.69 112.276 2216.83 110.138L2247.56 79.4082C2249.7 77.2702 2253.16 77.2702 2255.3 79.4082L2286.03 110.138C2288.17 112.276 2288.17 115.742 2286.03 117.88L2255.3 148.61Z" fill="#20262B" stroke="#838C94"/>
<path d="M1798.07 224.595C1795.93 226.733 1792.47 226.733 1790.33 224.595L1759.6 193.865C1757.46 191.727 1757.46 188.26 1759.6 186.122L1790.33 155.393C1792.47 153.255 1795.93 153.255 1798.07 155.393L1828.8 186.122C1830.94 188.26 1830.94 191.727 1828.8 193.865L1798.07 224.595Z" fill="#20262B" stroke="#838C94"/>
<path d="M1402.42 328.923C1400.29 331.061 1396.82 331.061 1394.68 328.923L1363.95 298.193C1361.81 296.055 1361.81 292.589 1363.95 290.451L1394.68 259.721C1396.82 257.583 1400.29 257.583 1402.42 259.721L1433.15 290.451C1435.29 292.589 1435.29 296.055 1433.15 298.193L1402.42 328.923Z" fill="#20262B" stroke="#838C94"/>
<path d="M511.276 71.3214C509.138 73.4593 505.672 73.4593 503.534 71.3214L472.804 40.5914C470.666 38.4534 470.666 34.9871 472.804 32.8491L503.534 2.11911C505.672 -0.0188723 509.138 -0.0188701 511.276 2.11911L542.006 32.8491C544.144 34.9871 544.144 38.4534 542.006 40.5914L511.276 71.3214Z" fill="#20262B" stroke="#838C94"/>
<path d="M364.034 71.3214C361.896 73.4593 358.429 73.4593 356.291 71.3214L325.561 40.5914C323.423 38.4534 323.423 34.9871 325.561 32.8491L356.291 2.11911C358.429 -0.0188723 361.896 -0.0188701 364.034 2.11911L394.764 32.8491C396.902 34.9871 396.902 38.4534 394.764 40.5914L364.034 71.3214Z" fill="#20262B" stroke="#838C94"/>
<path d="M41.2368 435.845C39.0989 437.983 35.6325 437.983 33.4945 435.845L2.76475 405.115C0.626768 402.977 0.626768 399.511 2.76475 397.373L33.4945 366.643C35.6325 364.505 39.0989 364.505 41.2368 366.643L71.9668 397.373C74.1048 399.511 74.1048 402.977 71.9668 405.115L41.2368 435.845Z" fill="#20262B" stroke="#838C94"/>
<path d="M93.3697 629.368C91.2317 631.506 87.7655 631.506 85.6275 629.368L54.8976 598.638C52.7596 596.5 52.7596 593.034 54.8976 590.896L85.6275 560.166C87.7655 558.028 91.2317 558.028 93.3697 560.166L124.1 590.896C126.238 593.034 126.238 596.5 124.1 598.638L93.3697 629.368Z" fill="#20262B" stroke="#838C94"/>
<path d="M824.69 990.384C822.552 992.522 819.086 992.522 816.948 990.384L786.218 959.654C784.08 957.516 784.08 954.05 786.218 951.912L816.948 921.182C819.086 919.044 822.552 919.044 824.69 921.182L855.42 951.912C857.558 954.05 857.558 957.516 855.42 959.654L824.69 990.384Z" fill="#20262B" stroke="#838C94"/>
<path d="M943.616 978.498C945.039 978.498 946.124 977.903 946.871 976.713C947.617 975.5 947.991 973.995 947.991 972.198C947.991 970.378 947.501 968.955 946.521 967.928C945.541 966.902 944.467 966.388 943.301 966.388C942.134 966.388 941.131 966.75 940.291 967.473C939.451 968.173 938.809 969.002 938.366 969.958C938.412 975.652 940.162 978.498 943.616 978.498ZM947.151 957.708C947.151 957.312 946.906 957.008 946.416 956.798C945.949 956.565 945.389 956.448 944.736 956.448C942.542 956.448 940.839 957.837 939.626 960.613C939.369 961.22 939.124 962.107 938.891 963.273C938.681 964.417 938.494 965.84 938.331 967.543C939.731 965.747 941.644 964.848 944.071 964.848C945.937 964.848 947.536 965.607 948.866 967.123C950.219 968.64 950.896 970.378 950.896 972.338C950.896 974.765 950.219 976.69 948.866 978.113C947.536 979.537 945.704 980.248 943.371 980.248C941.061 980.248 939.171 979.268 937.701 977.308C936.231 975.325 935.496 973.027 935.496 970.413C935.496 967.777 935.822 965.292 936.476 962.958C937.152 960.625 938.179 958.712 939.556 957.218C940.956 955.702 942.519 954.943 944.246 954.943C945.972 954.943 947.314 955.27 948.271 955.923C949.251 956.553 949.741 957.487 949.741 958.723C949.741 959.26 949.589 959.68 949.286 959.983C948.982 960.287 948.562 960.438 948.026 960.438C946.882 960.438 946.311 960.042 946.311 959.248C946.311 958.922 946.451 958.607 946.731 958.303C947.011 957.977 947.151 957.778 947.151 957.708ZM958.249 978.008C958.249 978.592 958.062 979.058 957.689 979.408C957.315 979.735 956.825 979.898 956.219 979.898C955.635 979.898 955.169 979.712 954.819 979.338C954.469 978.965 954.294 978.498 954.294 977.938C954.294 977.355 954.469 976.877 954.819 976.503C955.169 976.107 955.624 975.908 956.184 975.908C956.744 975.908 957.222 976.107 957.619 976.503C958.039 976.9 958.249 977.402 958.249 978.008Z" fill="white"/>
<path d="M809.71 943.326C812.744 943.63 815.229 943.781 817.165 943.781C819.125 943.781 821.085 943.746 823.045 943.676C823.232 943.886 823.325 944.213 823.325 944.656L823.185 945.671L815.135 968.281C815.042 968.375 814.494 968.421 813.49 968.421C812.487 968.421 811.95 968.375 811.88 968.281L820.875 946.686L820.91 946.126C820.817 945.963 820.479 945.881 819.895 945.881H812.3C811.53 945.881 810.924 946.08 810.48 946.476C810.037 946.873 809.745 947.655 809.605 948.821C809.559 948.868 809.36 948.891 809.01 948.891C808.684 948.891 808.462 948.81 808.345 948.646L809.71 943.326ZM828.088 966.391C828.088 966.975 827.901 967.441 827.528 967.791C827.154 968.118 826.664 968.281 826.058 968.281C825.474 968.281 825.008 968.095 824.658 967.721C824.308 967.348 824.133 966.881 824.133 966.321C824.133 965.738 824.308 965.26 824.658 964.886C825.008 964.49 825.463 964.291 826.023 964.291C826.583 964.291 827.061 964.49 827.457 964.886C827.878 965.283 828.088 965.785 828.088 966.391Z" fill="white"/>
<path d="M80.6161 583.886C81.8294 582.836 83.4044 582.311 85.3411 582.311C87.2778 582.311 88.8411 582.824 90.0311 583.851C91.2211 584.877 91.8161 586.312 91.8161 588.156C91.8161 590.232 90.4161 592.111 87.6161 593.791C89.0628 594.467 90.3461 595.412 91.4661 596.626C92.5861 597.816 93.1461 599.297 93.1461 601.071C93.1461 602.844 92.3644 604.384 90.8011 605.691C89.2611 606.974 87.4878 607.616 85.4811 607.616C83.4978 607.616 81.7128 607.009 80.1261 605.796C78.5628 604.582 77.7811 603.112 77.7811 601.386C77.7811 599.659 78.2828 598.166 79.2861 596.906C80.2894 595.646 81.4444 594.712 82.7511 594.106C81.8178 593.546 80.9311 592.741 80.0911 591.691C79.2511 590.617 78.8311 589.462 78.8311 588.226C78.8311 586.382 79.4261 584.936 80.6161 583.886ZM85.6211 605.796C86.9744 605.796 88.0711 605.376 88.9111 604.536C89.7744 603.696 90.2061 602.576 90.2061 601.176C90.2061 599.752 89.7628 598.597 88.8761 597.711C88.0128 596.801 86.5544 595.996 84.5011 595.296C83.1944 595.949 82.2378 596.731 81.6311 597.641C81.0244 598.551 80.7211 599.717 80.7211 601.141C80.7211 602.541 81.1994 603.672 82.1561 604.536C83.1361 605.376 84.2911 605.796 85.6211 605.796ZM85.2361 584.131C84.2328 584.131 83.4044 584.422 82.7511 585.006C82.0978 585.589 81.7711 586.429 81.7711 587.526C81.7711 588.622 82.1211 589.672 82.8211 590.676C83.5211 591.679 84.5128 592.379 85.7961 592.776C87.8494 591.609 88.8761 589.789 88.8761 587.316C88.8761 586.359 88.5144 585.589 87.7911 585.006C87.0911 584.422 86.2394 584.131 85.2361 584.131ZM100.604 605.376C100.604 605.959 100.417 606.426 100.044 606.776C99.6708 607.102 99.1808 607.266 98.5741 607.266C97.9908 607.266 97.5241 607.079 97.1741 606.706C96.8241 606.332 96.6491 605.866 96.6491 605.306C96.6491 604.722 96.8241 604.244 97.1741 603.871C97.5241 603.474 97.9791 603.276 98.5391 603.276C99.0991 603.276 99.5774 603.474 99.9741 603.871C100.394 604.267 100.604 604.769 100.604 605.376Z" fill="white"/>
<path d="M32.8683 390.537C31.5616 390.537 30.5583 391.109 29.8583 392.252C29.1816 393.372 28.8433 394.831 28.8433 396.627C28.8433 398.424 29.2633 399.847 30.1033 400.897C30.9433 401.947 31.8999 402.472 32.9733 402.472C34.0466 402.472 35.0033 402.134 35.8433 401.457C36.6833 400.781 37.3249 399.987 37.7683 399.077C37.7216 393.384 36.0883 390.537 32.8683 390.537ZM29.5083 411.327C29.5083 411.724 29.7533 412.039 30.2433 412.272C30.7566 412.482 31.3749 412.587 32.0983 412.587C35.9016 412.587 37.8033 408.889 37.8033 401.492C36.4033 403.172 34.4899 404.012 32.0633 404.012C30.3833 404.012 28.9366 403.289 27.7233 401.842C26.5333 400.372 25.9383 398.657 25.9383 396.697C25.9383 394.714 26.5683 392.906 27.8283 391.272C29.1116 389.616 30.8149 388.787 32.9383 388.787C35.9249 388.787 37.9899 389.872 39.1333 392.042C40.1366 394.026 40.6383 396.651 40.6383 399.917C40.6383 403.464 40.0783 406.626 38.9583 409.402C38.3749 410.826 37.5116 411.969 36.3683 412.832C35.2483 413.672 33.9416 414.092 32.4483 414.092C30.9549 414.092 29.6833 413.789 28.6333 413.182C27.6066 412.576 27.0933 411.677 27.0933 410.487C27.0933 409.904 27.2333 409.449 27.5133 409.122C27.7933 408.772 28.1666 408.597 28.6333 408.597C29.7766 408.597 30.3483 408.994 30.3483 409.787C30.3483 410.114 30.2083 410.441 29.9283 410.767C29.6483 411.071 29.5083 411.257 29.5083 411.327ZM48.4244 411.852C48.4244 412.436 48.2377 412.902 47.8644 413.252C47.4911 413.579 47.0011 413.742 46.3944 413.742C45.8111 413.742 45.3444 413.556 44.9944 413.182C44.6444 412.809 44.4694 412.342 44.4694 411.782C44.4694 411.199 44.6444 410.721 44.9944 410.347C45.3444 409.951 45.7994 409.752 46.3594 409.752C46.9194 409.752 47.3977 409.951 47.7944 410.347C48.2144 410.744 48.4244 411.246 48.4244 411.852Z" fill="white"/>
<path d="M357.064 48.9387L350.484 49.2188C350.391 49.1487 350.344 48.9504 350.344 48.6237C350.344 48.2971 350.437 48.0754 350.624 47.9587C352.327 47.9587 353.529 47.7487 354.229 47.3287C354.952 46.9087 355.326 46.0571 355.349 44.7737L355.454 31.3337C355.477 29.9571 355.139 29.1054 354.439 28.7787C353.739 28.4521 352.269 28.2887 350.029 28.2887C349.959 28.2187 349.924 28.0321 349.924 27.7287C349.924 27.4021 350.006 27.1687 350.169 27.0287C353.156 26.8421 355.291 26.0371 356.574 24.6137C356.667 24.5204 356.866 24.4737 357.169 24.4737C357.472 24.4737 357.694 24.5204 357.834 24.6137L358.569 44.7737C358.616 46.0804 358.977 46.9437 359.654 47.3637C360.354 47.7604 361.544 47.9587 363.224 47.9587C363.411 48.0987 363.504 48.3204 363.504 48.6237C363.504 48.9271 363.457 49.1254 363.364 49.2188L357.064 48.9387ZM369.239 47.3287C369.239 47.9121 369.052 48.3787 368.679 48.7287C368.306 49.0554 367.816 49.2188 367.209 49.2188C366.626 49.2188 366.159 49.0321 365.809 48.6587C365.459 48.2854 365.284 47.8187 365.284 47.2587C365.284 46.6754 365.459 46.1971 365.809 45.8237C366.159 45.4271 366.614 45.2287 367.174 45.2287C367.734 45.2287 368.212 45.4271 368.609 45.8237C369.029 46.2204 369.239 46.7221 369.239 47.3287Z" fill="white"/>
<path d="M495.701 49.2188C495.585 49.1954 495.526 49.0787 495.526 48.8687C495.526 48.3787 495.62 47.8304 495.806 47.2237C496.016 46.6171 496.518 45.8121 497.311 44.8087C498.128 43.7821 499.038 42.6971 500.041 41.5537C501.045 40.4104 502.036 39.2204 503.016 37.9837C504.02 36.7237 504.848 35.4054 505.501 34.0287C506.178 32.6521 506.516 31.3337 506.516 30.0737C506.516 28.7904 506.12 27.8104 505.326 27.1337C504.556 26.4337 503.635 26.0837 502.561 26.0837C501.488 26.0837 500.625 26.2354 499.971 26.5387C499.318 26.8421 498.991 27.2387 498.991 27.7287C498.991 27.8687 499.131 28.1021 499.411 28.4287C499.691 28.7321 499.831 29.0704 499.831 29.4438C499.831 30.2371 499.26 30.6337 498.116 30.6337C497.58 30.6337 497.16 30.4821 496.856 30.1787C496.553 29.8754 496.401 29.4554 496.401 28.9187C496.401 27.9154 496.74 27.0521 497.416 26.3287C498.7 24.9521 500.578 24.2637 503.051 24.2637C504.895 24.2637 506.435 24.7421 507.671 25.6987C508.908 26.6554 509.526 28.0904 509.526 30.0037C509.526 31.4504 509.118 32.9554 508.301 34.5187C507.345 36.3621 506.423 37.8787 505.536 39.0687C504.65 40.2587 503.973 41.1454 503.506 41.7287C503.063 42.2887 502.363 43.1521 501.406 44.3187C500.473 45.4854 499.866 46.2321 499.586 46.5587C499.33 46.8854 499.201 47.1421 499.201 47.3287C499.201 47.3521 499.703 47.3637 500.706 47.3637H503.191C504.288 47.3637 505.105 47.3637 505.641 47.3637C506.201 47.3404 506.75 47.2587 507.286 47.1187C507.846 46.9787 508.22 46.8271 508.406 46.6637C508.616 46.5004 508.815 46.2087 509.001 45.7887C509.188 45.3454 509.305 44.8904 509.351 44.4237C509.398 43.9337 509.433 43.2454 509.456 42.3587C509.526 42.2887 509.736 42.2537 510.086 42.2537C510.46 42.2537 510.833 42.4054 511.206 42.7087L510.191 49.5688C508.348 49.3588 505.595 49.2538 501.931 49.2538L495.701 49.2188ZM518.296 47.3287C518.296 47.9121 518.11 48.3787 517.736 48.7287C517.363 49.0554 516.873 49.2188 516.266 49.2188C515.683 49.2188 515.216 49.0321 514.866 48.6587C514.516 48.2854 514.341 47.8187 514.341 47.2587C514.341 46.6754 514.516 46.1971 514.866 45.8237C515.216 45.4271 515.671 45.2287 516.231 45.2287C516.791 45.2287 517.27 45.4271 517.666 45.8237C518.086 46.2204 518.296 46.7221 518.296 47.3287Z" fill="white"/>
<path d="M1391.34 294.85C1391.24 294.85 1391.11 294.687 1390.95 294.36C1390.79 294.034 1390.71 293.8 1390.71 293.66C1390.71 293.52 1390.72 293.439 1390.74 293.415C1392.56 292.902 1394.07 292.167 1395.26 291.21C1396.45 290.254 1397.04 289.122 1397.04 287.815C1397.04 286.485 1396.71 285.47 1396.06 284.77C1395.43 284.047 1394.64 283.685 1393.68 283.685C1392.75 283.685 1391.98 283.86 1391.37 284.21C1390.79 284.537 1390.5 284.922 1390.5 285.365C1390.5 285.575 1390.62 285.832 1390.88 286.135C1391.16 286.439 1391.3 286.824 1391.3 287.29C1391.3 288.084 1390.73 288.48 1389.59 288.48C1389.05 288.48 1388.63 288.329 1388.33 288.025C1388.02 287.722 1387.87 287.302 1387.87 286.765C1387.87 285.365 1388.51 284.199 1389.8 283.265C1391.1 282.332 1392.56 281.865 1394.17 281.865C1395.78 281.865 1397.15 282.402 1398.27 283.475C1399.41 284.525 1399.98 285.96 1399.98 287.78C1399.98 289.087 1399.51 290.195 1398.58 291.105C1397.65 291.992 1396.52 292.657 1395.19 293.1C1396.94 293.31 1398.39 294.022 1399.56 295.235C1400.75 296.425 1401.35 297.977 1401.35 299.89C1401.35 301.78 1400.55 303.472 1398.97 304.965C1397.4 306.435 1395.58 307.17 1393.51 307.17C1392.04 307.17 1390.71 306.809 1389.52 306.085C1388.35 305.339 1387.77 304.265 1387.77 302.865C1387.77 302.329 1387.92 301.909 1388.22 301.605C1388.55 301.302 1388.97 301.15 1389.48 301.15C1390.62 301.15 1391.2 301.547 1391.2 302.34C1391.2 302.714 1391.06 303.064 1390.78 303.39C1390.5 303.694 1390.36 303.915 1390.36 304.055C1390.36 304.429 1390.68 304.755 1391.34 305.035C1392.01 305.292 1392.68 305.42 1393.33 305.42C1394.85 305.42 1396.07 304.907 1397.01 303.88C1397.94 302.854 1398.41 301.524 1398.41 299.89C1398.41 298.234 1397.99 296.869 1397.15 295.795C1396.33 294.699 1395.27 294.15 1393.96 294.15C1393.1 294.15 1392.23 294.384 1391.37 294.85H1391.34ZM1408.85 304.93C1408.85 305.514 1408.66 305.98 1408.29 306.33C1407.91 306.657 1407.42 306.82 1406.82 306.82C1406.23 306.82 1405.77 306.634 1405.42 306.26C1405.07 305.887 1404.89 305.42 1404.89 304.86C1404.89 304.277 1405.07 303.799 1405.42 303.425C1405.77 303.029 1406.22 302.83 1406.78 302.83C1407.34 302.83 1407.82 303.029 1408.22 303.425C1408.64 303.822 1408.85 304.324 1408.85 304.93Z" fill="white"/>
<path d="M1793.35 202.352L1788.9 202.492C1788.83 202.422 1788.8 202.236 1788.8 201.932C1788.8 201.606 1788.87 201.372 1789.01 201.232C1789.94 201.232 1790.62 201.104 1791.04 200.847C1791.46 200.567 1791.68 200.101 1791.7 199.447L1791.63 195.737H1781.87C1781.75 195.667 1781.69 195.364 1781.69 194.827C1781.69 194.267 1781.75 193.929 1781.87 193.812L1792.47 177.887C1792.57 177.794 1792.76 177.747 1793.07 177.747C1793.37 177.747 1793.59 177.794 1793.73 177.887L1794.29 193.812H1797.72C1797.84 194.162 1797.9 194.524 1797.9 194.897C1797.9 195.271 1797.8 195.551 1797.62 195.737H1794.36L1794.5 199.447C1794.53 200.101 1794.74 200.567 1795.13 200.847C1795.55 201.104 1796.23 201.232 1797.16 201.232C1797.28 201.349 1797.34 201.582 1797.34 201.932C1797.34 202.259 1797.31 202.446 1797.27 202.492L1793.35 202.352ZM1791.7 181.772C1786.99 189.729 1784.63 193.731 1784.63 193.777C1784.63 193.801 1784.67 193.812 1784.74 193.812H1791.39C1791.55 193.812 1791.63 193.731 1791.63 193.567L1791.88 181.807C1791.88 181.737 1791.85 181.702 1791.81 181.702C1791.76 181.702 1791.73 181.726 1791.7 181.772ZM1804.68 200.602C1804.68 201.186 1804.5 201.652 1804.12 202.002C1803.75 202.329 1803.26 202.492 1802.65 202.492C1802.07 202.492 1801.6 202.306 1801.25 201.932C1800.9 201.559 1800.73 201.092 1800.73 200.532C1800.73 199.949 1800.9 199.471 1801.25 199.097C1801.6 198.701 1802.06 198.502 1802.62 198.502C1803.18 198.502 1803.66 198.701 1804.05 199.097C1804.47 199.494 1804.68 199.996 1804.68 200.602Z" fill="white"/>
<path d="M2244.54 113.033C2243.73 113.033 2242.98 113.161 2242.3 113.418C2241.65 113.651 2241.31 113.768 2241.29 113.768C2241.17 113.768 2241.04 113.581 2240.9 113.208C2240.76 112.834 2240.69 112.508 2240.69 112.228L2240.97 102.533C2240.97 102.113 2241.18 101.903 2241.6 101.903H2247.1C2248.27 101.903 2249.05 101.809 2249.44 101.623C2249.84 101.413 2250.19 100.888 2250.49 100.048C2250.54 100.001 2250.7 99.9778 2250.98 99.9778C2251.29 99.9778 2251.54 100.059 2251.75 100.223L2250.56 103.828H2243.32C2243.06 103.828 2242.93 104.026 2242.93 104.423L2242.41 111.738C2243.34 111.528 2244.17 111.423 2244.89 111.423C2247.2 111.423 2249.11 112.134 2250.6 113.558C2252.09 114.958 2252.84 116.626 2252.84 118.563C2252.84 120.896 2252.16 122.868 2250.81 124.478C2249.48 126.064 2247.62 126.858 2245.24 126.858C2243.8 126.858 2242.48 126.484 2241.29 125.738C2240.12 124.991 2239.54 123.929 2239.54 122.553C2239.54 122.016 2239.69 121.596 2239.99 121.293C2240.3 120.989 2240.72 120.838 2241.25 120.838C2242.4 120.838 2242.97 121.234 2242.97 122.028C2242.97 122.401 2242.83 122.751 2242.55 123.078C2242.27 123.381 2242.13 123.603 2242.13 123.743C2242.13 124.116 2242.46 124.443 2243.11 124.723C2243.79 124.979 2244.44 125.108 2245.07 125.108C2246.59 125.108 2247.78 124.513 2248.64 123.323C2249.5 122.109 2249.93 120.628 2249.93 118.878C2249.93 117.104 2249.43 115.693 2248.43 114.643C2247.43 113.569 2246.13 113.033 2244.54 113.033ZM2259.97 124.618C2259.97 125.201 2259.79 125.668 2259.41 126.018C2259.04 126.344 2258.55 126.508 2257.94 126.508C2257.36 126.508 2256.89 126.321 2256.54 125.948C2256.19 125.574 2256.02 125.108 2256.02 124.548C2256.02 123.964 2256.19 123.486 2256.54 123.113C2256.89 122.716 2257.35 122.518 2257.91 122.518C2258.47 122.518 2258.95 122.716 2259.34 123.113C2259.76 123.509 2259.97 124.011 2259.97 124.618Z" fill="white"/>
<circle cx="359.457" cy="87.1328" r="5" fill="#838C94"/>
<circle cx="506.531" cy="87.1328" r="5" fill="#838C94"/>
<circle cx="506.277" cy="356.227" r="5" fill="#838C94"/>
<path d="M364.266 352.742C364.266 355.504 362.027 357.742 359.266 357.742C356.504 357.742 354.266 355.504 354.266 352.742C354.266 349.981 356.504 347.742 359.266 347.742C362.027 347.742 364.266 349.981 364.266 352.742Z" fill="#838C94"/>
<path d="M304.211 402.469C304.211 405.23 301.972 407.469 299.211 407.469C296.45 407.469 294.211 405.23 294.211 402.469C294.211 399.707 296.45 397.469 299.211 397.469C301.972 397.469 304.211 399.707 304.211 402.469Z" fill="#838C94"/>
<path d="M97.1836 402.562C97.1836 405.324 94.945 407.562 92.1836 407.562C89.4222 407.562 87.1836 405.324 87.1836 402.562C87.1836 399.801 89.4222 397.562 92.1836 397.562C94.945 397.562 97.1836 399.801 97.1836 402.562Z" fill="#838C94"/>
<path d="M151.617 596.039C151.617 598.8 149.379 601.039 146.617 601.039C143.856 601.039 141.617 598.8 141.617 596.039C141.617 593.278 143.856 591.039 146.617 591.039C149.379 591.039 151.617 593.278 151.617 596.039Z" fill="#838C94"/>
<path d="M508.125 594.57C508.125 597.332 505.886 599.57 503.125 599.57C500.364 599.57 498.125 597.332 498.125 594.57C498.125 591.809 500.364 589.57 503.125 589.57C505.886 589.57 508.125 591.809 508.125 594.57Z" fill="#838C94"/>
<path d="M825.883 906.781C825.883 909.543 823.644 911.781 820.883 911.781C818.121 911.781 815.883 909.543 815.883 906.781C815.883 904.02 818.121 901.781 820.883 901.781C823.644 901.781 825.883 904.02 825.883 906.781Z" fill="#838C94"/>
<path d="M825.883 695.312C825.883 698.074 823.644 700.312 820.883 700.312C818.121 700.312 815.883 698.074 815.883 695.312C815.883 692.551 818.121 690.312 820.883 690.312C823.644 690.312 825.883 692.551 825.883 695.312Z" fill="#838C94"/>
<path d="M952.141 905.781C952.141 908.543 949.902 910.781 947.141 910.781C944.379 910.781 942.141 908.543 942.141 905.781C942.141 903.02 944.379 900.781 947.141 900.781C949.902 900.781 952.141 903.02 952.141 905.781Z" fill="#838C94"/>
<path d="M952.141 617.445C952.141 620.207 949.902 622.445 947.141 622.445C944.379 622.445 942.141 620.207 942.141 617.445C942.141 614.684 944.379 612.445 947.141 612.445C949.902 612.445 952.141 614.684 952.141 617.445Z" fill="#838C94"/>
<path d="M1403.55 345.07C1403.55 347.832 1401.31 350.07 1398.55 350.07C1395.79 350.07 1393.55 347.832 1393.55 345.07C1393.55 342.309 1395.79 340.07 1398.55 340.07C1401.31 340.07 1403.55 342.309 1403.55 345.07Z" fill="#838C94"/>
<path d="M1403.55 459.906C1403.55 462.668 1401.32 464.906 1398.55 464.906C1395.79 464.906 1393.55 462.668 1393.55 459.906C1393.55 457.145 1395.79 454.906 1398.55 454.906C1401.32 454.906 1403.55 457.145 1403.55 459.906Z" fill="#838C94"/>
<path d="M1799.2 240.211C1799.2 242.972 1796.96 245.211 1794.2 245.211C1791.44 245.211 1789.2 242.972 1789.2 240.211C1789.2 237.45 1791.44 235.211 1794.2 235.211C1796.96 235.211 1799.2 237.45 1799.2 240.211Z" fill="#838C94"/>
<path d="M1799.2 538.688C1799.2 541.449 1796.96 543.688 1794.2 543.688C1791.44 543.688 1789.2 541.449 1789.2 538.688C1789.2 535.926 1791.44 533.688 1794.2 533.688C1796.96 533.688 1799.2 535.926 1799.2 538.688Z" fill="#838C94"/>
<path d="M2255.24 438.508C2255.24 441.269 2253 443.508 2250.24 443.508C2247.48 443.508 2245.24 441.269 2245.24 438.508C2245.24 435.746 2247.48 433.508 2250.24 433.508C2253 433.508 2255.24 435.746 2255.24 438.508Z" fill="#838C94"/>
<path d="M2255.24 164.914C2255.24 167.675 2253 169.914 2250.24 169.914C2247.48 169.914 2245.24 167.675 2245.24 164.914C2245.24 162.153 2247.48 159.914 2250.24 159.914C2253 159.914 2255.24 162.153 2255.24 164.914Z" fill="#838C94"/>
</svg>
