<svg width="1108" height="2413" viewBox="0 0 1108 2413" fill="none" xmlns="http://www.w3.org/2000/svg">
<path d="M460.841 25.416L462.765 19.0379M460.841 25.416L456.883 33.9427C455.075 37.8374 454.715 42.2352 455.871 46.3704C458.988 57.5169 465.418 80.5903 468.989 93.9209C469.892 97.2918 470.651 100.175 471.347 102.905M460.841 25.416C460.841 25.416 463.207 45.8735 465.829 56.3135C470.467 74.7751 476.828 88.4807 480.875 107.081C483.873 120.858 484.539 123.456 485.695 134.246M462.765 19.0379C462.765 19.0379 467.322 19.415 470.202 19.0379C475.31 18.3689 477.835 16.4677 482.535 14.3584C490.955 10.5792 494.997 6.03512 503.955 3.81533C511.613 1.91795 516.012 0.0966237 523.149 2.4491C524.722 2.96743 526.481 3.92066 528.057 4.9035C531.144 6.82733 532.853 10.2554 533.09 13.8844L533.994 27.7531C533.994 27.7531 528.693 28.6164 526.552 30.9427C523.008 34.7916 523.149 40.9372 526.552 44.3391C531.913 49.6999 536.124 52.2298 543.563 53.6952C545.781 54.1321 548.183 54.456 550.605 54.5863M462.765 19.0379C462.765 19.0379 463.398 26.3175 464.1 30.9427C465.631 41.0175 466.703 45.2027 469.12 55.1026C471.092 63.1828 473.054 67.6579 475.309 75.7795C478.23 86.3003 480.084 92.1712 482.088 102.905C484.264 114.554 485.695 134.246 485.695 134.246M558.66 29.1635C558.66 29.1635 571.416 38.2647 569.611 45.5082C567.708 53.1474 559.04 55.0404 550.605 54.5863M558.66 29.1635L558.66 12.4431M558.66 29.1635L550.605 54.5863M558.66 12.4431V12.4431C561.937 9.72859 566.193 8.45013 570.381 9.1988C572.86 9.64178 575.603 10.2136 577.783 10.8797C588.756 14.2313 603.315 25.4141 603.315 25.4141C603.315 25.4141 611.059 33.1785 617.136 36.4714C621.031 38.5818 627.222 40.4701 629.469 41.1212C629.956 41.262 630.266 41.7261 630.192 42.2266C629.546 46.5496 626.584 66.113 623.97 78.7243C620.955 93.2757 615.37 106.896 614.044 120.747M558.66 12.4431L550.605 34.2407L549.592 39.9779L550.605 54.5863M615.27 190.126C613.35 169.804 613.627 158.606 613.73 136.938M615.27 190.126C615.27 190.126 619.373 188.637 621.09 190.126C621.846 190.781 622.46 192.291 622.46 192.291M615.27 190.126C616.052 198.408 616.82 205.329 617.709 211.683M613.734 417.735C613.734 417.735 610.085 385.639 615.01 366.064C617.362 356.713 619.376 351.594 623.515 342.886C629.733 329.805 643.39 312.998 647.121 308.513C647.692 307.828 647.742 306.86 647.256 306.113C645.405 303.268 640.902 296.251 638.613 291.852C637.918 290.518 637.285 289.226 636.704 287.967C634.977 284.227 633.71 280.78 632.669 277.385M613.734 417.735L615.489 418.839L615.489 424.838M613.734 417.735L607.162 417.075M477.809 256.295C481.242 239.133 481.156 229.16 482.088 211.683C482.088 211.683 483.435 183.278 482.088 165.16C480.755 147.213 475.309 119.578 475.309 119.578C474.874 117.639 474.471 115.862 474.083 114.186M477.809 256.295C477.809 256.295 480.642 248.715 482.088 243.742C486.461 228.702 486.565 219.662 487.864 204.053C489.947 179.039 488.75 164.693 486.257 139.717C486.052 137.666 485.868 135.864 485.695 134.246M477.809 256.295L468.37 255.206M477.809 256.295C477.552 257.579 477.324 258.783 477.111 259.93M464.934 292.108C464.934 292.108 469.729 284.192 472.362 277.823C475.174 271.019 475.911 266.38 477.111 259.93M464.934 292.108L456.499 302.832C455.899 303.594 455.928 304.673 456.571 305.401C459.243 308.425 466.14 316.316 470.527 322.088C481.425 336.426 487.257 344.947 494.784 361.308C502.467 378.01 508.96 406.199 508.96 406.199L512.533 419.588L512.533 503.338M464.934 292.108L476.228 302.999C476.228 302.999 489.654 317.814 495.994 328.816C504.368 343.345 507.479 352.7 510.718 369.154C512.642 378.933 512.84 396.644 512.737 407.994M464.934 292.108L468.219 302.521C468.318 302.835 468.49 303.116 468.724 303.348C471.03 305.631 484.009 318.648 490.531 328.816C495.471 336.517 497.696 341.218 501.242 349.653C508.294 366.427 512.533 394.858 512.533 394.858M512.533 507.365L512.533 503.338M512.533 507.365L512.533 584.707M512.533 507.365L592.22 511.884M508.507 1542.42L504.976 1542.42M508.507 1542.42L508.507 1514.86M508.507 1542.42L584.115 1537.1M504.976 1542.42L505.87 1434.97M504.976 1542.42L495.076 1542.42C493.419 1542.42 492.076 1543.76 492.076 1545.42L492.076 1619.53C492.076 1620.63 492.29 1621.72 492.814 1622.69C493.195 1623.39 493.684 1624.2 494.186 1624.75V1624.75C496.156 1626.93 499.395 1627.21 502.32 1626.94L585.527 1619.2M506.686 1336.95L508.823 1276.48M506.686 1336.95C506.686 1336.95 504.742 1362.38 497.887 1369.22C489.226 1377.85 487.716 1390.22 487.716 1390.22C487.716 1390.22 476.554 1407.94 466.648 1416.68C450.348 1431.05 436.623 1433.89 415.582 1433.86C392.75 1433.82 379.478 1426.56 360.802 1413.43C350.66 1406.3 334.978 1391.77 334.978 1391.77M506.686 1336.95L506.076 1410.22M508.823 1276.48L508.847 1270.34M508.823 1276.48L508.726 1301.34M618.583 590.235L617.099 513.295M618.583 590.235L512.533 584.707M618.583 590.235L618.583 595.332M615.489 424.838L617.026 509.296M615.489 424.838L558.639 420.008M468.37 255.206L468.37 259.93M468.37 255.206C468.37 255.206 468.622 245.91 464.934 246.341C462.807 246.589 460.54 248.338 460.54 248.338M468.37 259.93L477.111 259.93M468.37 259.93L468.37 266.873C468.37 266.873 466.636 269.36 464.934 269.673C462.18 270.181 459.489 265.007 459.489 265.007M459.489 265.007L459.489 251.007L460.54 248.338M459.489 265.007L452.398 273.949C451.228 275.425 449.431 276.266 447.547 276.219L423.681 275.623C422.779 275.6 422.006 274.977 421.812 274.096C420.902 269.949 418.557 258.036 419.664 249.909C420.457 244.088 423.569 236.185 424.933 232.917C425.301 232.035 426.25 231.562 427.182 231.775L449.419 236.865C450.704 237.159 451.857 237.869 452.699 238.883L460.54 248.338M482.088 180.536L470.078 180.536M470.078 180.536L470.078 187.17M470.078 180.536L470.078 174.933C470.078 174.285 469.766 173.676 469.209 173.346C468.162 172.725 466.363 171.814 464.934 171.895C463.051 172.002 460.54 173.901 460.54 173.901M470.078 187.17L482.088 187.17M470.078 187.17L470.078 190.896C470.078 191.284 469.966 191.664 469.735 191.975C468.942 193.044 466.896 195.499 464.934 195.348C462.657 195.172 460.54 191.49 460.54 191.49M460.54 173.901L460.54 191.49M460.54 173.901L452.701 165.166C451.856 164.225 450.735 163.574 449.497 163.308L427.159 158.503C426.237 158.305 425.306 158.773 424.943 159.644C423.473 163.179 419.935 172.314 419.664 178.993C419.364 186.371 422.805 196.786 424.089 200.389C424.367 201.167 425.106 201.674 425.933 201.674L449.463 201.674C451.279 201.674 452.996 200.852 454.135 199.438L460.54 191.49M470.437 102.905C470.437 102.905 469.999 96.9991 467.332 96.8004C465.791 96.6856 463.756 98.4942 463.756 98.4942M470.437 102.905L471.347 102.905M470.437 102.905L470.437 115.621M463.756 118.632C463.756 118.632 465.196 122.799 467.332 122.772C468.524 122.758 469.905 120.511 470.316 119.795C470.398 119.653 470.437 119.492 470.437 119.329L470.437 115.621M463.756 118.632L463.756 98.4942M463.756 118.632L455.268 125.454C454.243 126.278 452.975 126.742 451.66 126.775L429.025 127.343C428.093 127.367 427.271 126.745 427.062 125.837C426.066 121.522 423.483 109.128 424.561 100.886C425.399 94.486 428.609 86.6349 430.036 83.3726C430.426 82.4793 431.413 82.0304 432.352 82.293L455.505 88.7694C456.882 89.1547 458.077 90.0193 458.873 91.2075L463.756 98.4942M471.347 102.905C472.306 106.663 473.147 110.132 474.083 114.186M470.437 115.621L474.083 114.186M614.044 120.747C613.859 122.685 613.757 124.627 613.757 126.576C613.757 130.301 613.746 133.734 613.73 136.938M614.044 120.747L622.25 113.232C623.357 112.219 624.803 111.657 626.303 111.657L649.732 111.657C650.614 111.657 651.389 112.23 651.615 113.083C652.697 117.169 655.479 129.123 653.325 136.938C651.616 143.139 645.71 150.691 643.571 153.287C643.097 153.862 642.336 154.104 641.611 153.928L623.497 149.531C621.955 149.157 620.625 148.188 619.796 146.836L613.73 136.938M617.709 211.683C619.654 225.581 622.178 236.772 626.705 253.577C627.888 257.968 628.779 261.866 629.624 265.528M617.709 211.683L620.769 209.502M622.46 192.291L623.829 194.455C623.829 194.455 627.257 203.648 623.829 207.321C622.828 208.394 620.769 209.502 620.769 209.502M622.46 192.291L629.958 185.275C631.161 184.149 632.775 183.567 634.42 183.667L658.033 185.1C658.874 185.151 659.59 185.722 659.796 186.539C660.754 190.338 663.135 201.346 660.912 209.502C659.385 215.108 654.866 223.524 653.045 226.795C652.595 227.604 651.646 227.977 650.759 227.712L633.488 222.546C632.413 222.225 631.45 221.608 630.707 220.767L620.769 209.502M629.624 265.528L631.843 265.528M629.624 265.528C630.578 269.659 631.475 273.488 632.669 277.385M631.843 265.528L632.669 277.385M631.843 265.528L633.196 266.91C633.196 266.91 637.637 270.24 641.715 272.361M632.669 277.385C632.669 277.385 637.565 283.432 640.702 287.967M631.843 265.176V265.176C632.669 263.741 634.25 262.913 635.9 263.051L660.89 265.139C661.18 265.163 661.462 265.251 661.715 265.395L668.347 269.179C668.97 269.535 669.355 270.198 669.355 270.917L669.355 274.643M669.355 274.643L669.355 288.022C669.355 289.187 668.364 290.105 667.203 290.016L653.885 288.999C653.885 288.999 645.85 287.967 640.702 287.967M669.355 274.643C669.355 274.643 651.758 273.26 641.715 272.361M641.715 272.361C641.715 278.626 641.462 281.748 640.702 287.967M512.737 407.994L516.816 407.994M512.737 407.994C512.699 412.208 512.581 416.84 512.533 418.568L516.816 416.454M516.816 407.994L516.816 416.454M516.816 407.994L523.976 408.713M516.816 416.454L558.639 420.008M537.302 410.053C537.302 410.053 535.307 368.333 546.526 345.784C548.41 341.998 549.486 338.126 550.67 334.706M537.302 410.053L541.847 410.51M537.302 410.053L523.976 408.713M591.117 415.462C591.117 415.462 589.668 397.986 588.183 388.012C586.123 374.165 580.48 354.914 580.48 354.914C580.48 354.914 575.095 322.849 562.219 323.814C555.026 324.353 552.691 328.872 550.67 334.706M591.117 415.462L575.737 413.916M591.117 415.462L607.162 417.075M512.533 503.338L617.026 509.296M617.026 509.296L617.099 513.295M617.099 513.295L592.22 511.884M512.533 584.707L512.533 590.235M512.533 590.235L512.533 662.318M512.533 590.235L577.913 593.377M618.583 595.332L619.703 665.86M618.583 595.332L577.913 593.377M512.533 662.318L619.703 665.86M512.533 662.318L512.533 667.625M619.703 665.86L619.794 671.593M512.533 667.625L512.533 701.643L512.258 735.068M512.533 667.625L619.794 671.593M619.794 671.593L620.861 738.816M512.258 735.068L512.211 740.816M512.258 735.068L558.639 736.668M620.861 738.816L620.935 743.465M620.861 738.816L558.639 736.668M512.211 740.816L511.692 803.831M512.211 740.816L577.913 742.417M620.935 743.465L621.921 805.61M620.935 743.465L577.913 742.417M511.692 803.831L621.921 805.61M511.692 803.831L511.647 809.358M621.921 805.61L621.981 809.358M511.647 809.358L621.981 809.358M511.647 809.358L511.157 868.838M621.981 809.358L622.351 832.684L623.126 869.932M511.157 868.838L511.116 873.925M511.157 868.838L614.919 869.852M623.126 869.932L623.209 873.925M623.126 869.932L614.919 869.852M511.116 873.925L623.209 873.925M511.116 873.925L510.659 929.422M623.209 873.925L624.365 929.422M510.659 929.422L624.365 929.422M510.659 929.422L510.619 934.294M624.365 929.422L624.466 934.294M510.619 934.294L624.466 934.294M510.619 934.294L510.203 984.923M624.466 934.294L625.52 984.923M510.203 984.923L625.52 984.923M510.203 984.923L510.148 991.556M625.52 984.923L625.635 990.428M510.148 991.556L509.757 1039.1M510.148 991.556L580.25 990.428M625.635 990.428L626.648 1039.1M625.635 990.428L580.25 990.428M509.757 1039.1L509.733 1041.98L509.726 1043.96M509.757 1039.1L616.719 1039.1M626.648 1039.1L626.749 1043.96M626.648 1039.1L616.719 1039.1M509.726 1043.96L626.749 1043.96M509.726 1043.96L509.549 1089.51M626.749 1043.96L627.665 1087.96M509.549 1089.51L509.529 1094.59M509.549 1089.51L561.071 1088.83M627.665 1087.96L627.762 1092.61M627.665 1087.96L561.071 1088.83M509.529 1094.59L627.762 1092.61M509.529 1094.59L509.36 1138.15M627.762 1092.61L628.3 1118.46L628.603 1135.28M509.36 1138.15L628.603 1135.28M509.36 1138.15L509.34 1143.24M628.603 1135.28L628.687 1139.93M509.34 1143.24L509.188 1182.37M509.34 1143.24L522.486 1142.87M628.687 1139.93L629.405 1179.73M628.687 1139.93L522.486 1142.87M509.188 1182.37L629.405 1179.73M509.188 1182.37L509.164 1188.57M629.405 1179.73L629.48 1183.92M509.164 1188.57L509.026 1224.17M509.164 1188.57L541.847 1187.3M629.48 1183.92L630.158 1221.51M629.48 1183.92L541.847 1187.3M509.026 1224.17L630.158 1221.51M509.026 1224.17L509.005 1229.47M630.158 1221.51L630.237 1225.92M509.005 1229.47L630.237 1225.92M509.005 1229.47L508.87 1264.19M630.237 1225.92L630.847 1259.76M508.87 1264.19L630.847 1259.76M508.87 1264.19L508.847 1270.34M630.847 1259.76L630.927 1264.19M508.847 1270.34L582.072 1266.65M630.927 1264.19L631.525 1297.37M630.927 1264.19L582.072 1266.65M508.726 1301.34L631.525 1297.37M508.726 1301.34L508.706 1306.42M631.525 1297.37L631.597 1301.34M508.706 1306.42L572.623 1304.43L631.597 1301.34M508.706 1306.42L508.588 1336.95M631.597 1301.34L632.144 1331.69M508.588 1336.95L575.965 1334.51L623.478 1332.13M508.588 1336.95L508.565 1342.72M632.144 1331.69L632.238 1336.95M632.144 1331.69L623.478 1332.13M508.565 1342.72L508.507 1357.82L508.507 1370.75M508.565 1342.72L632.238 1336.95M632.238 1336.95L632.74 1364.8M508.507 1370.75L632.74 1364.8M508.507 1370.75L508.507 1375.84M632.74 1364.8L632.822 1369.32M508.507 1375.84L632.822 1369.32M508.507 1375.84L508.507 1401.04M632.822 1369.32L633.287 1395.11M508.507 1401.04L633.287 1395.11M508.507 1401.04L508.507 1406.99M633.287 1395.11L633.363 1399.35M508.507 1406.99L508.507 1431.05M508.507 1406.99L584.115 1402.36M633.363 1399.35L633.53 1408.6M633.363 1399.35L584.115 1402.36M508.507 1431.05L633.807 1423.98M508.507 1431.05L508.507 1436.43M633.807 1423.98L633.851 1426.4L633.881 1427.95M633.807 1423.98L633.669 1416.29M508.507 1436.43L633.881 1427.95M508.507 1436.43L508.507 1459.08M633.881 1427.95L634.325 1450.86M633.881 1427.95C633.881 1427.95 639.413 1434.05 643.52 1437.02C656.516 1446.41 665.338 1449.86 681.693 1452.15C698.174 1454.45 710.14 1452.62 726.008 1447.61C738.091 1443.8 744.313 1439.76 754.787 1432.64C767.262 1424.15 782.156 1407.47 786.741 1402.19C787.694 1401.09 788.689 1400.05 789.756 1399.06V1399.06C793.603 1395.5 798.62 1392.41 803.584 1394.09C804.711 1394.47 805.787 1395.04 806.674 1395.88C810.939 1399.9 814.505 1403.97 815.168 1409.8C816.599 1422.38 815.057 1426.82 812.038 1442.07C806.524 1469.92 792.146 1489.25 783.07 1516.15C773.98 1543.09 766.877 1558.45 765.704 1586.86C764.732 1610.39 766.628 1624.08 773.146 1646.71C779.576 1669.04 797.432 1693.87 811.08 1710.58C821.748 1723.63 829.767 1739.02 830.112 1755.88C830.474 1773.54 828.954 1796.45 820.531 1811.92C808.799 1833.46 775.065 1849.11 775.065 1849.11C775.065 1849.11 757.122 1828.3 743.995 1818.83C728.429 1807.59 717.833 1802.83 699.028 1798.98C687.608 1796.64 669.257 1796.81 669.257 1796.81M508.507 1459.08L634.325 1450.86M508.507 1459.08L508.507 1463.9M634.325 1450.86L634.418 1455.67M508.507 1463.9L508.507 1485.41M508.507 1463.9L541.847 1461.72M634.418 1455.67L634.945 1476.92M634.418 1455.67L541.847 1461.72M508.507 1485.41L634.945 1476.92M508.507 1485.41L508.507 1490.79M634.945 1476.92L634.945 1482.88M508.507 1490.79L634.945 1482.88M508.507 1490.79L508.507 1510.33M634.945 1482.88L635.762 1502.97M513.32 87.5465C513.012 83.5048 516.522 80.2611 520.573 80.1213C524.768 79.9766 528.661 83.3612 528.344 87.5465C528.222 89.1429 527.56 90.5198 526.552 91.5816M513.32 87.5465C513.32 87.5465 509.505 89.3328 507.8 91.5816M513.32 87.5465C513.37 88.1926 513.505 88.801 513.714 89.3664M513.32 87.5465L512.358 77.2915M508.507 1510.33L635.762 1502.97M508.507 1510.33L508.507 1514.86M635.762 1502.97L635.762 1506.08M508.507 1514.86L635.762 1506.08M635.762 1506.08L635.762 1525.01L632.827 1525.01L632.827 1530.73M334.978 1391.77L306.102 1391.77L301.443 1391.77C301.443 1391.77 300.838 1389.1 301.022 1386.5M334.978 1391.77C334.978 1391.77 338.602 1383.28 334.946 1382.31C333.892 1382.03 334.036 1382.05 332.977 1382.31C330.729 1382.87 331.615 1386.5 331.615 1386.5L325.158 1386.5M311.931 1386.5L306.102 1386.5C306.102 1386.5 306.308 1384.37 306.102 1383.29C305.767 1381.54 303.375 1381.77 302.697 1382.31C301.578 1383.21 301.14 1384.84 301.022 1386.5M311.931 1386.5L323.734 1386.5L325.158 1386.5M311.931 1386.5L312.619 1379.63M311.931 1371.32C309.833 1371.03 308.268 1370.72 308.268 1370.72C310.708 1367.16 310.163 1366.24 314.48 1366.24C317.066 1366.24 319.612 1366.24 322.746 1366.24C327.246 1366.24 328.259 1366.42 329.568 1370.72C329.568 1370.72 327.306 1371.11 324.535 1371.44M311.931 1371.32C313.784 1371.58 316.053 1371.84 318.03 1371.87C319.967 1371.9 322.402 1371.69 324.535 1371.44M311.931 1371.32L311.931 1373.8M311.931 1373.8L303.449 1373.8C303.449 1378.1 307.888 1379.33 312.619 1379.63M311.931 1373.8L324.535 1373.8M324.535 1371.44L324.535 1373.8M324.535 1373.8L331.615 1373.8C332.373 1378.76 328.282 1379.61 323.734 1379.7M312.619 1379.63C314.34 1379.74 316.1 1379.72 317.698 1379.68C319.533 1379.64 321.68 1379.75 323.734 1379.7M323.734 1379.7L325.158 1386.5M301.022 1386.5C295.538 1392.06 289.172 1400.49 285.517 1411.18C280.452 1426 280.657 1433.9 282.339 1448.07C284.02 1462.24 294.091 1485.65 294.091 1485.65M294.091 1485.65C294.091 1485.65 307.251 1512.22 315.199 1529.03C318.975 1537.01 322.227 1542.95 325.228 1549M294.091 1485.65C294.091 1485.65 281.532 1439.86 296.608 1418.28C302.945 1409.2 307.205 1401.88 317.698 1399.35C323.373 1397.98 327.341 1397.83 332.977 1399.35C338.344 1400.79 342.964 1405.08 345.664 1408.07C347.453 1410.06 349.125 1412.14 351.034 1414.01C357.252 1420.1 372.479 1434.36 384.354 1440.19C398.402 1447.09 408.236 1450.04 423.865 1450.86C439.815 1451.7 449.442 1450.15 464.184 1444.01C473.343 1440.19 478.212 1437.15 486.044 1431.05C494.952 1424.12 506.076 1410.22 506.076 1410.22M802.451 1373.89C802.451 1373.89 805.992 1375.43 812.038 1380.57C826.617 1392.97 830.764 1406.92 827.572 1430.22C826.209 1440.17 825.255 1441.89 818.36 1463.78C815.289 1473.52 799.031 1509.66 799.031 1509.66C799.031 1509.66 771.185 1580.33 781.381 1622.42C788.37 1651.28 799.484 1659.92 817.368 1684.86C838.091 1713.76 850.918 1730.76 869.046 1764.31C892.518 1807.76 906.869 1841.24 909.765 1894.85C910.939 1916.58 910.992 1923.23 907.501 1950.69C904.01 1978.14 895.676 2004.71 882.461 2038.41C868.458 2074.12 851.383 2098.67 830.927 2124.24C818.871 2139.31 805.224 2154.58 787.979 2168.43C732.559 2212.91 701.659 2228.92 631.175 2246.2C566.687 2262.01 533.689 2267.6 467.581 2270.22C424.976 2271.9 404.112 2268.65 359.082 2253.67C325.041 2242.34 297.316 2226.92 270.856 2202.69C258.843 2191.69 252.499 2184.94 242.51 2172.16C228.307 2153.99 212.519 2121.83 212.519 2121.83C212.519 2121.83 201.436 2092.14 196.067 2069.12C189.819 2042.34 184.809 2022.19 185.268 1994.69C185.34 1990.42 185.416 1986.68 185.546 1983.18M802.451 1373.89C802.451 1373.89 784.463 1361.85 774.085 1359.97C770.846 1359.38 768.149 1359.52 766.563 1359.71C765.55 1359.84 764.644 1360.33 763.904 1361.03C761.07 1363.73 753.544 1370.98 749.053 1376.3C738.118 1389.27 730.8 1396.88 716.456 1405.41C706.557 1411.3 700.63 1414.17 689.419 1416.81C675.325 1420.13 666.175 1420.69 652.144 1416.81C646.614 1415.28 639.364 1411.68 635.762 1409.8M802.451 1373.89C802.451 1373.89 794.096 1373.7 789.104 1375.2C782.889 1377.07 776.892 1384.22 774.834 1386.87C774.324 1387.53 773.842 1388.19 773.33 1388.85C770.407 1392.61 759.547 1406.24 750.303 1413.34C738.515 1422.4 730.679 1428.71 716.456 1433.04C702.775 1437.21 694.279 1437.94 680.073 1436.28C668.694 1434.96 662.021 1432.81 652.144 1426.4C645.046 1421.79 635.762 1409.8 635.762 1409.8M633.53 1408.6L633.669 1416.29M633.53 1408.6C633.53 1408.6 634.376 1409.07 635.762 1409.8M506.076 1410.22L505.995 1419.99M505.995 1419.99C505.995 1419.99 495.994 1433.51 487.716 1440.19C479.46 1446.85 474.089 1449.97 464.184 1453.77C449.358 1459.46 439.708 1460.19 423.865 1459.08C407.885 1457.97 398.74 1455.11 384.354 1448.07C372.76 1442.39 359.058 1430.27 352.338 1423.98C349.544 1421.36 347.113 1418.39 344.53 1415.57C341.577 1412.34 337.231 1408.3 332.977 1406.99C327.401 1405.26 323.558 1405.11 318.03 1406.99C310.389 1409.58 302.697 1419.99 302.697 1419.99C302.697 1419.99 295.688 1429.94 294.091 1440.78C292.248 1453.29 293.298 1468.14 296.608 1480.34C299.805 1492.12 304.816 1497.53 310.082 1508.54C320.313 1529.94 328.845 1540.81 336.321 1563.32C340.815 1576.85 342.783 1584.69 345.177 1598.74C346.865 1608.66 347.748 1614.28 348.129 1624.33C348.91 1644.96 348.129 1660.41 339.868 1679.12L324.513 1704.68C324.513 1704.68 300.986 1737.54 286.794 1759.46C265.35 1792.58 252.472 1811.08 234.643 1846.44C221.744 1872.03 213.838 1887.3 205.124 1914.6C198.405 1935.64 194.865 1947.15 192.332 1968.72C191.147 1978.81 190.692 1994.69 190.692 1994.69C190.692 1994.69 189.761 2014.28 190.692 2026.77C192.465 2050.58 196.928 2063.61 203.812 2086.47C208.322 2101.44 210.814 2109.94 217.26 2124.19C225.327 2142.02 230.627 2151.93 242.51 2167.48C258.743 2188.73 270.955 2200.77 293.354 2215.37C293.354 2215.37 309.419 2226.4 320.317 2232.45C336.878 2241.65 346.771 2245.86 364.63 2252.18C382.589 2258.52 392.948 2261.75 411.761 2264.73C435.876 2268.55 449.947 2267.62 474.353 2266.94C505.794 2266.06 523.322 2263.19 554.435 2258.58C582.264 2254.46 597.848 2251.61 625.132 2244.75C651.308 2238.17 666.363 2235.04 691.218 2224.51C706.985 2217.84 715.6 2213.44 730.388 2204.81C746.481 2195.42 755.037 2189.29 769.873 2178.02C779.402 2170.78 784.732 2166.66 793.619 2158.65C802.172 2150.93 806.901 2146.81 814.709 2138.34C825.94 2126.16 831.792 2118.86 841.423 2105.38C849.302 2094.35 853.226 2087.57 860.013 2075.7C865.704 2065.74 868.839 2060.1 873.715 2049.72C879.258 2037.91 881.904 2031.06 886.3 2018.79C891.205 2005.09 893.671 1997.28 897.18 1983.16C900.253 1970.8 901.708 1963.77 903.579 1951.17C905.484 1938.33 906.582 1931.07 906.779 1918.1C907.011 1902.73 905.571 1894.1 903.579 1878.85C900.907 1858.39 899.958 1846.56 893.34 1827.02C889.175 1814.72 885.638 1808.26 880.114 1796.51C871.617 1778.44 866.311 1768.53 856.223 1751.29C844.763 1731.71 837.194 1721.42 824.439 1702.65C814.584 1688.15 800.428 1668.45 792.486 1657.47C788.518 1651.98 785.279 1646.01 783.037 1639.62C780.646 1632.8 777.707 1624.03 776.628 1619.13C773.142 1603.32 776.071 1584.83 776.071 1584.83C777.719 1566.97 780.206 1557.57 785.303 1539.83C791.551 1518.07 798.547 1505.85 807.16 1484.91C812.084 1472.94 814.386 1468.11 819.624 1454.2C824.715 1440.69 827.31 1427.7 825.684 1413.34C824.472 1402.65 823.179 1395.06 815.168 1387.87C810.57 1383.75 807.31 1380.84 801.14 1380.57C796.222 1380.36 793.506 1382.11 789.104 1384.32C779.504 1389.12 778.001 1396.88 770.444 1404.51C759.743 1415.3 753.406 1422.26 740.451 1430.22C729.975 1436.65 711.532 1442.07 711.532 1442.07C711.532 1442.07 687.5 1446.19 671.468 1441.26C663.111 1438.69 658.218 1436.64 651.153 1431.49C643.824 1426.14 633.669 1416.29 633.669 1416.29M505.995 1419.99L505.87 1434.97M505.87 1434.97C505.87 1434.97 495.532 1445.6 487.716 1450.86C477.521 1457.72 470.877 1460.47 459.073 1463.9C447.492 1467.25 440.556 1468.13 428.498 1468.21C412.272 1468.3 402.702 1466.86 387.583 1460.97C372.033 1454.91 364.403 1448.59 351.69 1437.78C345.913 1432.86 338.769 1425.84 334.5 1421.55C332.012 1419.05 329.237 1416.61 325.775 1415.94C325.424 1415.87 325.081 1415.82 324.757 1415.8C319.981 1415.53 317.355 1418.06 313.781 1421.24C311.271 1423.47 309.035 1429.03 307.514 1433.65C305.972 1438.34 305.423 1443.27 305.493 1448.2C305.563 1453.1 305.748 1459.42 306.216 1463.93C308.146 1482.49 321.127 1506.47 324.27 1512.06C324.724 1512.86 325.172 1513.65 325.616 1514.46C328.233 1519.24 337.987 1537.28 343.27 1550.04C348.617 1562.95 351.349 1570.36 354.939 1583.86C358.038 1595.52 359.671 1602.15 360.995 1614.14C362.295 1625.9 361.734 1644.42 361.734 1644.42C361.734 1644.42 360.023 1656.31 358.189 1663.77C355.044 1676.56 352.24 1683.52 346.815 1695.53C341.67 1706.91 333.588 1722.19 333.588 1722.19C333.588 1722.19 350.155 1722.19 360.575 1722.19C375.057 1722.19 378.805 1723.29 390.024 1726.28C402.631 1729.65 410.703 1731.59 421.976 1738.16C433.31 1744.77 439.745 1748.96 448.414 1758.8C455.627 1766.99 462.411 1781.56 462.411 1781.56L509.274 1776.69M669.257 1796.81L669.257 1763.39C669.257 1761.61 667.717 1760.22 665.947 1760.4L630.403 1764.1M669.257 1796.81L669.996 1858.3C670.019 1860.25 669.903 1862.29 668.881 1863.95V1863.95V1863.95C668.058 1865.29 666.511 1865.96 664.951 1866.16L479.322 1890.05C476.2 1890.45 472.612 1890.68 470.386 1888.46V1888.46C468.399 1886.47 468.146 1881.62 468.146 1881.62L467.231 1788.17C467.22 1787.06 467.568 1785.98 468.222 1785.09V1785.09C469.011 1784.01 470.189 1783.28 471.506 1783.06L509.274 1776.69M388.431 1516.44L384.688 1517.86M388.431 1516.44C388.431 1516.44 393.909 1517.65 396.157 1521.25M388.431 1516.44L388.431 1513.9C388.431 1513.26 387.836 1512.78 387.211 1512.92L383.692 1513.72C383.023 1513.87 382.701 1514.64 383.061 1515.22L384.688 1517.86M384.688 1517.86C384.688 1517.86 381.334 1522.13 381.929 1525.81M385.91 1535.68C374.185 1536.64 365.89 1528.93 366.443 1517.01C366.962 1505.81 376.378 1497.27 387.583 1497.59C399.098 1497.91 408.334 1507.8 407.562 1519.29C407.562 1519.29 407.592 1525.39 405.268 1528.06C403.686 1529.88 400 1531.28 400 1531.28M385.91 1535.68C385.91 1535.68 389.789 1538.66 393.879 1537C397.115 1535.68 399.587 1533.49 400 1531.28M385.91 1535.68C384.86 1534.74 383.628 1531.72 382.996 1530.09M381.929 1525.81C382.272 1527.93 382.321 1528.34 382.996 1530.09M381.929 1525.81C381.929 1525.81 379.938 1524.06 379.263 1521.96V1521.96C377.615 1516.85 378.95 1510.91 384.057 1509.24C385.35 1508.82 386.583 1508.54 387.583 1508.54C392.287 1508.58 396.063 1512.3 396.157 1517.01L396.157 1521.25M396.157 1521.25C397.957 1524.14 399.139 1527.02 399.928 1529.71C400.079 1530.23 400.097 1530.75 400 1531.28M382.996 1530.09C382.996 1530.09 378.474 1529.71 376.432 1527.18C373.844 1523.97 373.121 1520.4 373.582 1517.01C374.57 1509.73 380.237 1504.36 387.583 1504.44C394.841 1504.52 400.41 1508.7 401.127 1515.92C401.844 1523.14 397.512 1523.08 397.216 1523.37M632.827 1530.73L632.827 1533.67L584.115 1537.1M632.827 1530.73L642.868 1530.3C645.602 1530.19 647.882 1532.37 647.882 1535.11V1535.11L647.882 1604.15C647.882 1606.93 647.52 1609.94 645.481 1611.83V1611.83C644.854 1612.4 643.902 1612.95 643.12 1613.35C642.244 1613.79 641.28 1614.02 640.301 1614.11L606.788 1617.22M325.228 1549C328.199 1554.98 330.924 1561.08 333.671 1569.38C338.352 1583.53 341.763 1606.67 341.763 1606.67C341.763 1606.67 345.616 1635.82 341.763 1653.82C338.45 1669.3 335.306 1678.28 326.283 1691.29C320.176 1700.09 312.496 1710.4 306.249 1718.63C298.678 1728.6 291.176 1738.61 284.097 1748.94C276.265 1760.36 265.734 1776 258.204 1788.22C244.504 1810.45 236.801 1822.99 225.303 1846.44C214.625 1868.22 208.994 1884.04 201.245 1907.03C194.906 1925.84 191.847 1936.4 188.635 1954.7C186.617 1966.2 185.892 1973.84 185.546 1983.18M325.228 1549C325.228 1549 332.662 1575.8 333.588 1593.43C334.346 1607.85 335.108 1616.37 331.499 1630.35C324.25 1658.42 296.834 1695.88 284.963 1711.19C281.324 1715.89 277.777 1720.61 274.542 1725.59C263.235 1743 235.05 1787.68 219.594 1823.46C201.68 1864.93 186.409 1891.04 183.845 1936.14C182.759 1955.25 185.546 1983.18 185.546 1983.18M840.419 1909.35C840.8 1910.49 841.064 1911.73 841.204 1913.06C842.151 1922 835.514 1929.59 826.844 1931.21C823.592 1931.82 820.331 1931.06 817.534 1929.4M840.419 1909.35C838.493 1903.54 833.596 1900.1 826.844 1899.78C817.076 1899.33 808.336 1908.43 809.774 1918.1C810.077 1920.15 810.828 1922.1 811.91 1923.85M840.419 1909.35C840.419 1909.35 840.162 1907.31 839.264 1904.94M836.327 1900.11C831.896 1895.66 826.592 1895.42 820.531 1897.07C814.18 1898.81 810.251 1902.27 808.148 1908.51C805.906 1915.16 811.91 1923.85 811.91 1923.85M836.327 1900.11C836.327 1900.11 831.924 1891.75 826.844 1889.49C819.158 1886.07 811.716 1888.7 805.98 1894.85C801.357 1899.81 799.518 1904.78 800.832 1911.43C802.209 1918.41 812.799 1925.15 812.799 1925.15M836.327 1900.11C837.703 1901.49 838.639 1903.3 839.264 1904.94M811.91 1923.85C812.186 1924.3 812.483 1924.73 812.799 1925.15M812.799 1925.15C814.094 1926.86 815.716 1928.32 817.534 1929.4M839.264 1904.94C839.264 1904.94 840.561 1895.13 838.428 1889.49C837.422 1886.83 834.974 1884.41 832.2 1882.39C825.268 1877.35 816.023 1877.71 807.913 1880.49V1880.49C802.457 1882.36 797.99 1886.46 795.702 1891.75L794.403 1894.76C791.987 1900.35 791.56 1906.6 793.192 1912.46L793.675 1914.2C795.138 1919.45 798.611 1923.92 803.342 1926.64V1926.64C806.491 1928.45 810.059 1929.4 813.69 1929.4L817.534 1929.4M750.01 1958.88C750.39 1960.03 750.654 1961.27 750.795 1962.6C751.741 1971.54 745.105 1979.96 736.434 1981.59C733.183 1982.2 729.921 1981.44 727.124 1979.78M750.01 1958.88C748.083 1953.07 744.45 1950.06 737.698 1949.75C727.93 1949.29 717.831 1958.8 719.268 1968.48C719.572 1970.52 720.323 1972.48 721.405 1974.23M750.01 1958.88C750.01 1958.88 749.752 1956.84 748.854 1954.48M745.822 1950.48C741.391 1946.03 737.015 1945.48 730.954 1947.13C724.603 1948.86 721.372 1953.69 719.268 1959.93C717.026 1966.58 721.405 1974.23 721.405 1974.23M745.822 1950.48C745.822 1950.48 743.467 1942.51 738.386 1940.25C730.7 1936.83 722.24 1940.15 716.504 1946.3C711.881 1951.27 710.098 1956.72 711.412 1963.37C712.79 1970.34 722.294 1975.53 722.294 1975.53M745.822 1950.48C747.198 1951.87 748.229 1952.83 748.854 1954.48M721.405 1974.23C721.68 1974.68 721.977 1975.11 722.294 1975.53M722.294 1975.53C723.589 1977.24 725.306 1978.7 727.124 1979.78M748.854 1954.48C748.854 1954.48 752.143 1946.86 750.01 1941.21C748.565 1937.39 745.595 1931.77 741.509 1929.4C736.569 1926.55 727.169 1927.55 721.769 1929.4L717.835 1930.75C712.135 1932.7 707.522 1936.97 705.132 1942.5L704.779 1943.31C701.855 1950.08 701.338 1957.64 703.314 1964.75L703.409 1965.09C704.78 1970.01 708.033 1974.2 712.467 1976.75C715.921 1978.73 719.834 1979.78 723.817 1979.78L727.124 1979.78M748.854 2083.93C750.197 2093.68 743.572 2102.68 733.744 2103.19C726.597 2103.56 720.683 2100.16 717.964 2093.91M748.854 2083.93C748.793 2083.48 748.718 2083.04 748.631 2082.6M748.854 2083.93L748.631 2082.6M748.631 2082.6C747.098 2074.95 741.661 2069.25 733.744 2068.65C723.502 2067.87 715.265 2078.31 716.504 2088.51C716.736 2090.42 717.235 2092.23 717.964 2093.91M748.631 2082.6C748.631 2082.6 748.921 2081.35 749.111 2079.64M717.964 2093.91C717.964 2093.91 712.956 2089.95 711.412 2086.37C708.632 2079.92 710.539 2074.45 714.491 2068.65C718.665 2062.51 724.556 2059.67 731.973 2059.76C740.646 2059.87 746.507 2065.02 748.854 2073.37C749.406 2075.33 749.32 2077.77 749.111 2079.64M717.964 2093.91C711.175 2092.07 706.439 2092.01 703.271 2086.37C699.434 2079.55 701.183 2068.49 704.948 2061.63C709.715 2052.94 717.505 2048.94 727.127 2047.09C737.046 2045.18 742.115 2047.89 747.442 2054.92C750.313 2058.7 750.372 2061.25 751.17 2065.54C752.261 2071.4 749.111 2079.64 749.111 2079.64M840.784 2031.21C842.127 2040.96 835.502 2049.96 825.674 2050.47C818.527 2050.85 812.613 2047.45 809.894 2041.19M840.784 2031.21C840.723 2030.76 840.648 2030.32 840.561 2029.88M840.784 2031.21L840.561 2029.88M840.561 2029.88C840.241 2028.29 839.753 2026.78 839.107 2025.38M839.107 2022.89C836.76 2014.54 830.898 2009.39 822.226 2009.29C814.809 2009.2 808.918 2012.04 804.744 2018.17C800.791 2023.98 798.885 2029.44 801.665 2035.89C803.208 2039.47 809.894 2041.19 809.894 2041.19M839.107 2022.89C839.107 2022.89 839.107 2016.37 839.107 2010.11C839.107 2003.85 828.688 1993.79 818.77 1995.7C809.147 1997.55 801.645 2000.22 796.878 2008.91C793.113 2015.78 791.364 2026.83 795.201 2033.66C798.369 2039.29 803.105 2039.35 809.894 2041.19M839.107 2022.89L839.107 2025.38M809.894 2041.19C809.165 2039.52 808.666 2037.7 808.434 2035.79C807.195 2025.6 815.432 2015.15 825.674 2015.93C831.941 2016.41 836.655 2020.08 839.107 2025.38M509.274 1776.69L519.633 1775.62M482.273 1950.03C482.273 1950.03 479.68 1949.7 477.705 1948.42C473.717 1945.85 471.939 1941.54 471.84 1936.96M482.273 1950.03C482.273 1950.03 481.743 1947.5 481.067 1944.27M482.273 1950.03V1950.03C485.393 1955.43 491.593 1958.26 497.721 1957.09L511.793 1954.38L644.403 1929.47C648.026 1928.79 651.572 1927.74 654.987 1926.35L663.217 1923M471.84 1936.96C471.722 1931.51 473.974 1925.66 477.705 1921.83C483.169 1916.24 497.298 1918.87 497.298 1918.87L491.989 1912.4C491.679 1912.02 491.246 1911.77 490.761 1911.72C488.49 1911.44 481.585 1910.83 477.705 1913.06C473.839 1915.29 471.752 1917.59 470.386 1921.83C469.271 1925.3 469.842 1927.56 470.386 1931.16C470.735 1933.47 471.84 1936.96 471.84 1936.96ZM631.393 1894.29C631.393 1894.29 638.848 1883.85 645.367 1883.4C653.573 1882.83 659.47 1885.32 663.217 1892.64C666.548 1899.15 667.525 1907.2 665.82 1914.31C665.14 1917.14 663.217 1923 663.217 1923M631.393 1894.29C631.393 1894.29 585.59 1902.42 541.847 1910.43M631.393 1894.29L630.403 1764.1M631.393 1894.29L630.437 1975.53M481.067 1944.27C480.58 1941.95 479.82 1939.25 480.053 1936.96C480.607 1931.51 480.922 1928.66 485.929 1924.24C492.378 1918.56 500.573 1918.09 509.369 1916.44C519.519 1914.54 530.615 1912.49 541.847 1910.43M481.067 1944.27C481.895 1940.74 482.347 1938.73 484.373 1935.72V1935.72C488.694 1929.29 496.868 1927.01 504.481 1925.61L519.633 1922.81M663.217 1923C663.217 1923 665.671 1911.08 663.217 1905.36C662.732 1904.23 661.937 1903 661.108 1901.87C659.244 1899.35 656.072 1898.29 652.959 1898.68L644.385 1899.74L519.633 1922.81M510.857 1938.28L510.857 1930.42C510.857 1929.9 511.248 1929.47 511.762 1929.42L520.911 1928.55C521.498 1928.49 522.006 1928.95 522.006 1929.54L522.006 1936.91M510.857 1938.28L522.006 1936.91M510.857 1938.28L507.711 1938.86C507.179 1938.96 506.821 1939.46 506.903 1940L507.227 1942.09M522.006 1936.91L526.857 1935.95C527.475 1935.83 528.05 1936.3 528.05 1936.93L528.05 1938.61M511.793 1944.42L508.707 1944.97C508.154 1945.07 507.628 1944.69 507.542 1944.14L507.227 1942.09M511.793 1944.42L511.793 1951.33C511.793 1951.92 512.306 1952.39 512.896 1952.32L523.179 1951.26C523.688 1951.21 524.076 1950.78 524.076 1950.27L524.076 1942.21M511.793 1944.42L524.076 1942.21M524.076 1942.21L527.226 1941.65C527.703 1941.57 528.05 1941.15 528.05 1940.67L528.05 1938.61M534.732 1934.5L534.732 1926.61C534.732 1926.12 535.08 1925.71 535.557 1925.62L544.565 1924.02C545.178 1923.91 545.741 1924.38 545.741 1925L545.741 1932.45M534.732 1934.5L545.741 1932.45M534.732 1934.5L532.179 1934.88C531.689 1934.95 531.326 1935.37 531.326 1935.87L531.326 1938.25M545.741 1932.45L550.198 1931.99C550.788 1931.93 551.301 1932.39 551.301 1932.99L551.301 1935.08M507.227 1942.09L528.05 1938.61M531.326 1938.25L531.326 1940.33C531.326 1940.95 531.877 1941.41 532.485 1941.32L534.732 1940.95M531.326 1938.25L551.301 1935.08M551.301 1935.08L551.301 1937.43C551.301 1937.92 550.945 1938.34 550.46 1938.42L546.628 1939.04M534.732 1940.95L534.732 1946.65C534.732 1947.27 535.289 1947.74 535.899 1947.64L545.918 1945.94C546.407 1945.86 546.762 1945.43 546.751 1944.94L546.628 1939.04M534.732 1940.95L546.628 1939.04M557.329 1931.16L557.329 1920.79C557.329 1920.26 557.729 1919.83 558.248 1919.79L567.734 1919.02C568.316 1918.98 568.814 1919.44 568.814 1920.02L568.814 1929.5M557.329 1931.16L568.814 1929.5M557.329 1931.16L555.46 1931.64C554.947 1931.78 554.626 1932.28 554.728 1932.8L555.104 1934.72M568.814 1929.5L571.863 1929.08C572.424 1929 572.936 1929.41 572.993 1929.97L573.168 1931.72M555.104 1934.72L555.473 1936.6C555.578 1937.13 556.089 1937.48 556.624 1937.39L558.482 1937.07M555.104 1934.72L573.168 1931.72M573.168 1931.72L573.353 1933.57C573.405 1934.09 573.044 1934.57 572.527 1934.66L569.23 1935.22M558.482 1937.07L558.916 1940.58C558.981 1941.1 559.438 1941.48 559.962 1941.45L568.284 1941.01C568.815 1940.98 569.23 1940.54 569.23 1940.01L569.23 1935.22M558.482 1937.07L569.23 1935.22M580.211 1927.05L580.211 1916.87C580.211 1916.33 580.626 1915.9 581.157 1915.87L590.671 1915.35C591.244 1915.32 591.725 1915.78 591.725 1916.35L591.725 1924.94M580.211 1927.05L591.725 1924.94M580.211 1927.05L578.265 1927.57C577.797 1927.7 577.487 1928.14 577.53 1928.63L577.725 1930.8M591.725 1924.94L596.1 1924.37C596.63 1924.3 597.121 1924.66 597.214 1925.19L597.511 1926.87M577.725 1930.8L577.894 1932.68C577.947 1933.28 578.513 1933.7 579.101 1933.57L580.211 1933.33M577.725 1930.8L597.511 1926.87M597.511 1926.87L597.806 1928.55C597.9 1929.08 597.558 1929.59 597.033 1929.7L593.5 1930.46M580.211 1933.33L580.211 1937.88C580.211 1938.49 580.753 1938.96 581.357 1938.87L592.646 1937.2C593.136 1937.12 593.5 1936.7 593.5 1936.21L593.5 1930.46M580.211 1933.33L593.5 1930.46M602.344 1922.24L602.344 1913.07C602.344 1912.59 602.678 1912.18 603.144 1912.09L612.906 1910.09C613.526 1909.97 614.107 1910.44 614.107 1911.07L614.107 1920.6M602.344 1922.24L614.107 1920.6M602.344 1922.24L600.916 1922.72C600.433 1922.88 600.148 1923.38 600.254 1923.87L600.7 1925.97M614.107 1920.6L619.018 1919.25C619.621 1919.09 620.226 1919.51 620.278 1920.13L620.43 1921.94M600.7 1925.97L601.125 1927.97C601.24 1928.51 601.767 1928.85 602.306 1928.74L602.344 1928.73M600.7 1925.97L620.43 1921.94M620.43 1921.94L620.609 1924.05C620.651 1924.56 620.311 1925.01 619.815 1925.12L602.344 1928.73M602.344 1928.73L603.276 1932.5C603.395 1932.98 603.846 1933.3 604.338 1933.25L609.404 1932.79M615.371 1925.97L615.371 1930.88C615.371 1931.37 615.024 1931.78 614.547 1931.87L609.404 1932.79M625.135 1917.56L625.135 1907.22C625.135 1906.7 625.536 1906.27 626.056 1906.23L635.81 1905.44C636.392 1905.4 636.889 1905.86 636.889 1906.44L636.889 1915.92M625.135 1917.56L636.889 1915.92M625.135 1917.56L623.095 1918.14C622.666 1918.26 622.37 1918.66 622.37 1919.1L622.37 1922.52C622.37 1923.13 622.914 1923.6 623.518 1923.51L625.135 1923.27M636.889 1915.92L641.243 1915.41C641.787 1915.35 642.28 1915.73 642.351 1916.27L642.788 1919.62C642.858 1920.16 642.483 1920.66 641.945 1920.74L638.075 1921.32M625.135 1923.27L625.55 1929.31C625.592 1929.92 626.162 1930.35 626.758 1930.22L637.284 1927.96C637.745 1927.86 638.075 1927.45 638.075 1926.98L638.075 1921.32M625.135 1923.27L638.075 1921.32M497.675 2018.31C498.026 2025.91 491.949 2031.89 484.373 2032.53C478.66 2033.02 473.129 2029.99 470.386 2025.34M497.675 2018.31L470.386 2025.34M497.675 2018.31C497.638 2017.51 497.534 2016.73 497.369 2015.98M489.818 2006.78C488.162 2006.01 486.322 2005.51 484.373 2005.35C479.992 2004.98 475.76 2006.54 472.783 2009.35M489.818 2006.78L487.962 2000.26L486.642 1995.75M489.818 2006.78C490.583 2007.14 491.308 2007.55 491.986 2008.02M485.929 1993.31L485.102 1989.82C484.675 1988.02 483.063 1986.74 481.209 1986.74L477.89 1986.74C475.919 1986.74 474.242 1988.18 473.938 1990.13L473.211 1994.79M485.929 1993.31L486.642 1995.75M485.929 1993.31C485.929 1993.31 499.302 1992.17 516.291 1990.62M473.211 1994.79L473.211 1998.35L472.783 2009.35M473.211 1994.79C473.211 1994.79 470.494 1995.46 469.364 1996.7C468.189 1997.98 467.819 2000.89 467.819 2000.89M472.783 2009.35C470.364 2011.63 468.774 2014.74 468.611 2018.31C468.533 2020.02 468.807 2021.66 469.364 2023.18M473.113 2000.89C473.113 2000.89 469.063 2000.68 467.819 2000.89M467.819 2000.89C465.944 2001.2 464.973 2003.16 463.55 2005.35V2005.35C460.877 2009.47 460.593 2014.58 461.342 2019.43L462.014 2023.79C462.268 2025.43 463.099 2026.93 464.359 2028.02L469.358 2032.33C471.535 2034.21 474.416 2035.06 477.265 2034.67L503.378 2031.05M503.378 2031.05L506.755 2029.07M503.378 2031.05L503.378 1996.7M506.755 2029.07C506.755 2029.07 553.823 2025.52 583.672 2020.87C606.96 2017.25 642.915 2009.35 642.915 2009.35M506.755 2029.07L506.755 1996.7M642.915 2009.35L645.103 2010.83M642.915 2009.35L642.915 1977.9M645.103 2010.83L669.072 2008.41C672.219 2008.1 675.144 2006.65 677.304 2004.34V2004.34C679.283 2002.22 680.478 1999.51 680.853 1996.64C681.204 1993.95 681.554 1991.86 681.905 1988.11C682.387 1982.97 680.092 1975.18 675.101 1971.18M645.103 2010.83L645.103 1976.97M491.986 1996.7L491.986 2008.02M491.986 1996.7L503.378 1996.7M491.986 1996.7L486.642 1995.75M491.986 2008.02C494.681 2009.9 496.633 2012.65 497.369 2015.98M503.378 1996.7L506.755 1996.7M506.755 1996.7C506.755 1996.7 553.774 1992.72 583.672 1988.36C605.962 1985.11 642.915 1977.9 642.915 1977.9M642.915 1977.9L645.103 1976.97M645.103 1976.97L646.153 1972.62M645.103 1976.97C645.679 1976.37 645.255 1973.77 646.153 1972.62M645.103 1976.97L648.984 1976.97C650.545 1976.97 651.845 1978.17 651.974 1979.72L653.067 1992.98M673.23 1984.78C670.477 1982.95 667.909 1982.22 664.239 1982.85C658.803 1983.79 654.126 1987.98 653.067 1992.98M673.23 1984.78L657.015 2004.32M673.23 1984.78C673.908 1985.23 674.535 1985.76 675.101 1986.37M673.23 1984.78L670.509 1978.8C670.006 1977.69 670.22 1976.39 671.051 1975.5L675.101 1971.18M657.015 2004.32C654.813 2002.97 654.112 2000.76 653.287 1998.06C652.761 1996.34 652.72 1994.62 653.067 1992.98M657.015 2004.32C657.66 2004.72 658.347 2005.06 659.064 2005.33M675.101 1986.37C676.021 1987.35 676.776 1988.54 677.318 1989.93C679.911 1996.58 674.875 2003.73 668.001 2005.66C664.969 2006.52 661.795 2006.38 659.064 2005.33M675.101 1986.37L659.064 2005.33M646.153 1972.62C648.381 1969.8 653.55 1967.52 655.461 1966.73C657.373 1965.95 668.168 1966.7 673.953 1970.36C674.35 1970.61 674.733 1970.89 675.101 1971.18M646.153 1972.62C646.153 1972.62 639.873 1973.82 630.437 1975.53M563.384 1986.01L564.555 1925.97L564.555 1818.83L564.555 1563.32L561.071 1348.34L561.071 1088.83M563.384 1986.01C556.431 1986.77 548.485 1987.57 540.392 1988.36M563.384 1986.01C570.174 1985.27 578.255 1984.16 586.667 1982.88M470.386 2025.34C469.982 2024.65 469.639 2023.93 469.364 2023.18M497.369 2015.98L469.364 2023.18M507.8 91.5816C503.842 96.8004 504.665 102.508 508.705 107.081C512.09 110.913 515.837 112.059 520.573 111.657C527.044 111.107 531.625 106.766 531.063 100.295C530.703 96.142 526.552 91.5816 526.552 91.5816M507.8 91.5816L513.714 89.3664M526.552 91.5816C525.088 93.1227 522.896 94 520.573 93.9209C517.452 93.8146 514.723 92.0912 513.714 89.3664M526.552 91.5816C526.552 91.5816 524.305 96.7693 520.573 96.8004C516.255 96.8364 513.714 89.3664 513.714 89.3664M526.552 91.5816L526.552 96.2337M513.714 89.3664L513.714 95.1261M513.714 95.1261L513.714 96.6194C513.714 99.3448 514.759 102.089 517.146 103.404C518.247 104.01 519.467 104.469 520.573 104.405C521.489 104.352 522.471 103.931 523.369 103.397C525.609 102.066 526.552 99.4276 526.552 96.8217L526.552 96.2337M513.714 95.1261C513.714 95.1261 517.389 99.9016 520.573 99.8402C523.24 99.7887 526.552 96.2337 526.552 96.2337M526.552 96.2337L536.192 192.824L550.67 334.706M578.628 94.6791C578.32 90.6374 581.83 87.3936 585.881 87.2539C590.076 87.1091 593.969 90.4938 593.651 94.6791C593.53 96.2755 592.868 97.6524 591.86 98.7141M578.628 94.6791C578.628 94.6791 574.474 94.7371 572.769 96.9859C568.811 102.205 568.08 109.316 572.12 113.889C575.506 117.721 581.145 118.551 585.881 118.149C592.352 117.6 594.213 111.369 593.651 104.899C593.291 100.746 591.86 98.7141 591.86 98.7141M578.628 94.6791C578.678 95.3251 578.813 95.9336 579.022 96.4989M578.628 94.6791L577.771 96.2534C576.891 97.8681 576.43 99.6775 576.43 101.516L576.43 245.544L575.737 413.916M591.86 98.7141C590.396 100.255 588.204 101.133 585.881 101.053C582.76 100.947 580.031 99.2237 579.022 96.4989M591.86 98.7141C591.86 98.7141 589.613 103.902 585.881 103.933C581.563 103.969 579.022 96.4989 579.022 96.4989M591.86 98.7141L591.86 103.366M579.022 96.4989L579.022 102.259M579.022 102.259C579.022 102.259 582.697 107.034 585.881 106.973C588.548 106.921 591.86 103.366 591.86 103.366M579.022 102.259C579.022 105.938 580.358 109.885 583.807 111.165C584.506 111.425 585.214 111.576 585.881 111.538C586.625 111.495 587.413 111.209 588.163 110.817C590.807 109.436 591.86 106.349 591.86 103.366M511.281 164.365C510.973 160.324 514.482 157.08 518.533 156.94C522.728 156.795 526.621 160.18 526.304 164.365C526.183 165.962 525.52 167.339 524.512 168.4M511.281 164.365C511.281 164.365 507.465 166.152 505.76 168.4C501.802 173.619 502.625 179.327 506.665 183.9C510.051 187.732 513.797 188.877 518.533 188.475C525.005 187.926 529.585 183.585 529.024 177.114C528.663 172.961 524.512 168.4 524.512 168.4M511.281 164.365C511.33 165.011 511.465 165.62 511.675 166.185M511.281 164.365L511.281 153.705M524.512 168.4C523.048 169.942 520.856 170.819 518.533 170.74C515.412 170.633 512.683 168.91 511.675 166.185M524.512 168.4C524.512 168.4 522.265 173.588 518.533 173.619C514.216 173.655 511.675 166.185 511.675 166.185M524.512 168.4L524.512 173.053M511.675 166.185L511.675 171.945M511.675 171.945C511.675 171.945 515.35 176.72 518.533 176.659C521.2 176.608 524.512 173.053 524.512 173.053M511.675 171.945C511.675 175.624 513.01 179.571 516.46 180.852C517.158 181.111 517.867 181.263 518.533 181.224C519.278 181.181 520.065 180.895 520.816 180.503C523.46 179.123 524.512 176.035 524.512 173.053M524.512 173.053L530.66 256.549L541.847 410.51M510.745 240.079C510.437 236.038 513.947 232.794 517.998 232.654C522.192 232.509 526.085 235.894 525.768 240.079C525.647 241.676 524.985 243.053 523.976 244.114M510.745 240.079C510.745 240.079 506.93 241.865 505.224 244.114C501.266 249.333 502.089 255.04 506.129 259.614C509.515 263.446 513.261 264.591 517.998 264.189C524.469 263.64 529.05 259.298 528.488 252.828C528.127 248.675 523.976 244.114 523.976 244.114M510.745 240.079C510.794 240.725 510.93 241.334 511.139 241.899M523.976 244.114C522.513 245.655 520.32 246.533 517.998 246.454C514.877 246.347 512.147 244.624 511.139 241.899M523.976 244.114C523.976 244.114 521.729 249.302 517.998 249.333C513.68 249.369 511.139 241.899 511.139 241.899M523.976 244.114L523.976 248.766M511.139 241.899L511.139 247.659M511.139 247.659C511.139 247.659 514.814 252.434 517.998 252.373C520.664 252.321 523.976 248.766 523.976 248.766M511.139 247.659C511.139 251.338 512.475 255.285 515.924 256.566C516.623 256.825 517.331 256.977 517.998 256.938C518.742 256.895 519.529 256.609 520.28 256.217C522.924 254.836 523.976 251.749 523.976 248.766M523.976 248.766L523.976 328.816L523.976 408.713M587.454 170.985C587.146 166.943 590.656 163.7 594.707 163.56C598.902 163.415 602.795 166.8 602.477 170.985C602.356 172.582 601.694 173.958 600.685 175.02M587.454 170.985C587.454 170.985 583.3 171.043 581.595 173.292C577.637 178.511 576.906 185.622 580.946 190.195C584.332 194.027 589.971 194.857 594.707 194.455C601.178 193.906 603.039 187.675 602.477 181.205C602.117 177.052 600.685 175.02 600.685 175.02M587.454 170.985C587.504 171.631 587.639 172.24 587.848 172.805M587.454 170.985L585.217 200.79L591.117 416.454L592.22 511.884M600.685 175.02C599.222 176.561 597.029 177.438 594.707 177.359C591.586 177.253 588.857 175.53 587.848 172.805M600.685 175.02C600.685 175.02 598.439 180.208 594.707 180.239C590.389 180.275 587.848 172.805 587.848 172.805M600.685 175.02L600.685 179.672M587.848 172.805L587.848 178.565M587.848 178.565C587.848 178.565 591.523 183.34 594.707 183.279C597.374 183.227 600.685 179.672 600.685 179.672M587.848 178.565C587.848 182.244 589.184 186.191 592.633 187.471C593.332 187.731 594.04 187.883 594.707 187.844C595.451 187.801 596.239 187.515 596.989 187.123C599.633 185.742 600.685 182.655 600.685 179.672M594.947 250.174C594.639 246.133 598.149 242.889 602.2 242.749C606.395 242.604 610.288 245.989 609.97 250.174C609.849 251.771 609.187 253.148 608.179 254.209M594.947 250.174C594.947 250.174 590.793 250.232 589.088 252.481C585.13 257.7 586.273 264.304 590.313 268.877C593.699 272.709 597.464 273.144 602.2 272.742C608.671 272.193 610.532 266.865 609.97 260.394C609.61 256.241 608.179 254.209 608.179 254.209M594.947 250.174C594.997 250.82 595.132 251.429 595.341 251.994M594.947 250.174L594.02 264.092L607.162 417.075M608.179 254.209C606.715 255.751 604.522 256.628 602.2 256.549C599.079 256.443 596.35 254.719 595.341 251.994M608.179 254.209C608.179 254.209 605.932 259.397 602.2 259.428C597.882 259.464 595.341 251.994 595.341 251.994M608.179 254.209L608.179 258.862M595.341 251.994L595.341 257.754M595.341 257.754C595.341 257.754 599.016 262.529 602.2 262.468C604.867 262.417 608.179 258.862 608.179 258.862M595.341 257.754C595.341 261.433 596.677 265.38 600.126 266.661C600.825 266.92 601.533 267.072 602.2 267.033C602.944 266.99 603.732 266.704 604.482 266.312C607.126 264.932 608.179 261.845 608.179 258.862M550.67 334.706L558.639 412.197M558.639 412.197L558.639 420.008M558.639 412.197L541.847 410.51M558.639 412.197L575.737 413.916M558.639 420.008L558.639 620.55L558.639 736.668M558.639 736.668L561.071 1088.83M541.847 410.51L541.847 601.071L541.847 906.524L541.847 1187.3M541.847 1187.3L541.847 1461.72M541.847 1461.72L541.847 1668.31L541.847 1910.43M541.847 1910.43L540.392 1988.36M540.392 1988.36C532.217 1989.15 523.892 1989.93 516.291 1990.62M523.976 408.713L523.976 524.749L523.976 720.24L523.976 897.44L522.486 1142.87M522.486 1142.87L520.94 1369.22L520.94 1545.23M520.94 1545.23L501.063 1546.81C500.215 1546.88 499.408 1547.2 498.749 1547.74V1547.74C497.773 1548.53 497.206 1549.73 497.206 1550.99L497.206 1618.49C497.206 1619.63 497.563 1620.75 498.226 1621.67V1621.67C499.353 1623.25 501.231 1624.12 503.162 1623.95L638.936 1611.96C639.929 1611.87 640.853 1611.42 641.528 1610.69L642.601 1609.52C643.28 1608.78 643.658 1607.82 643.658 1606.81L643.658 1540.35C643.658 1539.35 643.278 1538.38 642.595 1537.64L642.108 1537.11C641.276 1536.21 640.076 1535.74 638.853 1535.84L625.948 1536.86M520.94 1545.23L519.633 1775.62M520.94 1545.23L625.948 1536.86M519.633 1775.62L519.633 1922.81M519.633 1775.62L586.667 1768.65M519.633 1922.81L516.291 1990.62M575.737 413.916L577.913 593.377M577.913 593.377L577.913 742.417M577.913 742.417L580.25 990.428M580.25 990.428L582.072 1266.65M582.072 1266.65L584.115 1402.36M584.115 1402.36L584.115 1537.1M584.115 1537.1L585.527 1619.2M585.527 1619.2L586.667 1768.65M585.527 1619.2L606.788 1617.22M586.667 1768.65L586.667 1982.88M586.667 1768.65L630.403 1764.1M586.667 1982.88C593.749 1981.81 601.065 1980.62 608.041 1979.44M592.22 511.884L595.391 685.588L596.998 842.129L598.783 995.993L601.282 1182.88L602.71 1272.13L604.852 1490.79L606.788 1617.22M606.788 1617.22L609.404 1784.32M609.404 1784.32L503.656 1795.9C501.355 1796.15 499.276 1797.39 497.956 1799.29L497.239 1800.32C496.277 1801.71 495.777 1803.36 495.812 1805.05L497.241 1874.57C497.278 1876.38 497.919 1878.12 499.062 1879.51V1879.51C500.835 1881.68 503.606 1882.77 506.381 1882.4L641.92 1864.15C642.859 1864.02 643.76 1863.69 644.561 1863.18V1863.18C646.466 1861.98 647.621 1859.88 647.621 1857.62L647.621 1785.49C647.621 1784.61 647.385 1783.76 646.938 1783V1783C645.943 1781.33 644.043 1780.41 642.112 1780.67L639.07 1781.08L609.404 1784.32ZM609.404 1784.32L609.404 1932.79M609.404 1932.79L608.041 1979.44M608.041 1979.44C616.301 1978.05 624.084 1976.67 630.437 1975.53M607.162 417.075L614.919 869.852M614.919 869.852L616.719 1039.1M616.719 1039.1L623.478 1332.13M623.478 1332.13L625.948 1536.86M625.948 1536.86L630.403 1764.1M660.959 1770.08L478.564 1790.09C477.032 1790.26 475.593 1790.91 474.457 1791.96V1791.96C472.961 1793.33 472.109 1795.27 472.109 1797.3L472.109 1882.42C472.109 1885.15 473.968 1887.53 476.616 1888.19V1888.19C477.336 1888.36 478.082 1888.41 478.818 1888.31L660.594 1864.46C663.036 1864.14 665.18 1862.68 666.374 1860.53V1860.53C667.023 1859.36 667.358 1858.04 667.347 1856.7L666.664 1775.28C666.638 1772.21 664.012 1769.82 660.959 1770.08V1770.08ZM646.461 1889.23C646.461 1889.23 653.553 1886.97 657.901 1889.23C662.193 1891.47 663.217 1902.18 663.217 1902.18C663.217 1902.18 659.07 1894.61 655.451 1892.64C651.464 1890.47 646.461 1889.23 646.461 1889.23Z" stroke="#838C94"/>
<circle cx="328.506" cy="1449.17" r="7.13073" stroke="#838C94"/>
<circle cx="480.099" cy="1480.53" r="7.13073" stroke="#838C94"/>
<circle cx="514.841" cy="1565.51" r="6.02098" stroke="#838C94"/>
<circle cx="538.384" cy="1563.83" r="6.02098" stroke="#838C94"/>
<circle cx="559.833" cy="1561.94" r="6.02098" stroke="#838C94"/>
<circle cx="583.376" cy="1559.48" r="6.02098" stroke="#838C94"/>
<circle cx="604.818" cy="1557.81" r="6.02098" stroke="#838C94"/>
<circle cx="626.279" cy="1555.92" r="6.02098" stroke="#838C94"/>
<circle cx="655.924" cy="1470.55" r="7.13073" stroke="#838C94"/>
<circle cx="572.986" cy="1470.55" r="7.13073" stroke="#838C94"/>
<circle cx="572.986" cy="1415.97" r="7.13073" stroke="#838C94"/>
<circle cx="572.986" cy="1353.65" r="7.13073" stroke="#838C94"/>
<circle cx="572.986" cy="1283.34" r="7.13073" stroke="#838C94"/>
<circle cx="600.111" cy="1160.51" r="7.13073" stroke="#838C94"/>
<circle cx="569.291" cy="1015.62" r="7.13073" stroke="#838C94"/>
<circle cx="569.291" cy="900.889" r="7.13073" stroke="#838C94"/>
<circle cx="569.291" cy="773.56" r="7.13073" stroke="#838C94"/>
<circle cx="566.717" cy="629.365" r="7.13073" stroke="#838C94"/>
<circle cx="539.908" cy="1160.51" r="7.13073" stroke="#838C94"/>
<circle cx="797.529" cy="1419.23" r="7.13073" stroke="#838C94"/>
<circle cx="747.158" cy="1613.11" r="7.13073" stroke="#838C94"/>
<circle cx="783.271" cy="1825.47" r="7.13073" stroke="#838C94"/>
<circle cx="695.041" cy="1777.39" r="7.13073" stroke="#838C94"/>
<ellipse cx="479.698" cy="1797.37" rx="5.15915" ry="4.8035" stroke="#838C94"/>
<ellipse cx="479.698" cy="1881.66" rx="5.15915" ry="4.8035" stroke="#838C94"/>
<ellipse cx="485.72" cy="1839.02" rx="3.61849" ry="3.53396" stroke="#838C94"/>
<ellipse cx="656.072" cy="1818.33" rx="3.61849" ry="3.53396" stroke="#838C94"/>
<ellipse cx="659.683" cy="1777.39" rx="5.15915" ry="4.8035" stroke="#838C94"/>
<ellipse cx="661.733" cy="1858.26" rx="5.15915" ry="4.8035" stroke="#838C94"/>
<circle cx="476.533" cy="1757.92" r="7.13073" stroke="#838C94"/>
<circle cx="370.432" cy="1703.83" r="7.13073" stroke="#838C94"/>
<circle cx="655.918" cy="1571.53" r="3.56684" stroke="#838C94"/>
<circle cx="483.664" cy="1585.79" r="3.56684" stroke="#838C94"/>
<path d="M486.06 1941.67C485.843 1942.35 485.727 1943.07 485.727 1943.82C485.727 1947.74 488.903 1950.92 492.822 1950.92C495.089 1950.92 497.109 1949.85 498.408 1948.2M486.06 1941.67C486.973 1938.8 489.655 1936.73 492.822 1936.73C496.741 1936.73 499.917 1939.9 499.917 1943.82C499.917 1945.47 499.353 1946.99 498.408 1948.2M486.06 1941.67C486.06 1941.67 490.908 1942.3 493.536 1943.82C495.747 1945.11 498.408 1948.2 498.408 1948.2" stroke="#838C94"/>
<path d="M648.901 1907.22C648.045 1908.39 647.539 1909.84 647.539 1911.4C647.539 1915.32 650.716 1918.5 654.634 1918.5C657.008 1918.5 659.109 1917.33 660.397 1915.54M648.901 1907.22C650.192 1905.45 652.279 1904.3 654.634 1904.3C658.553 1904.3 661.73 1907.48 661.73 1911.4C661.73 1912.95 661.236 1914.38 660.397 1915.54M648.901 1907.22C648.901 1907.22 652.007 1911.16 654.634 1912.89C656.7 1914.26 660.397 1915.54 660.397 1915.54" stroke="#838C94"/>
<path d="M353.113 2053.91C252.665 2053.91 187.487 2053.91 87.039 2053.91M857.784 1150.7C757.329 1149.79 705.748 1151.61 605.293 1150.7M357.09 1907.14C254.867 1907.14 189.743 1907.14 87.5208 1907.14M509.295 1022.45L336.981 1022.45M1016.26 1777.54C935.58 1777.88 868.766 1777.2 788.081 1777.54M895.783 1586.77C840.891 1586.77 706.239 1586.77 651.348 1586.77M898.167 419.633L610.073 419.633M562.955 2321.02C562.955 2239.16 562.955 2106.25 562.955 2024.39M534.223 765.533L234.16 765.533M841.482 297.167L582.389 297.167M536.067 505.167L261.626 505.167M440.051 176.953L168.133 176.953" stroke="#838C94" stroke-dasharray="10 10"/>
<path d="M994.075 415.896C996.213 418.034 996.213 421.5 994.075 423.638L963.345 454.368C961.207 456.506 957.741 456.506 955.603 454.368L924.873 423.638C922.735 421.5 922.735 418.034 924.873 415.896L955.603 385.166C957.741 383.028 961.207 383.028 963.345 385.166L994.075 415.896Z" fill="#20262B" stroke="#838C94"/>
<path d="M926.571 294.044C928.709 296.182 928.709 299.649 926.571 301.787L895.841 332.517C893.703 334.655 890.237 334.655 888.099 332.517L857.369 301.787C855.231 299.649 855.231 296.182 857.369 294.044L888.099 263.314C890.237 261.176 893.703 261.176 895.841 263.314L926.571 294.044Z" fill="#20262B" stroke="#838C94"/>
<path d="M150.911 174.232C153.049 176.37 153.049 179.836 150.911 181.974L120.181 212.704C118.043 214.842 114.577 214.842 112.439 212.704L81.709 181.974C79.571 179.836 79.571 176.37 81.709 174.232L112.439 143.502C114.577 141.364 118.043 141.364 120.181 143.502L150.911 174.232Z" fill="#20262B" stroke="#838C94"/>
<path d="M248.056 502.974C250.194 505.112 250.194 508.578 248.056 510.716L217.326 541.446C215.188 543.584 211.721 543.584 209.583 541.446L178.853 510.716C176.716 508.578 176.716 505.112 178.853 502.974L209.583 472.244C211.721 470.106 215.188 470.106 217.326 472.244L248.056 502.974Z" fill="#20262B" stroke="#838C94"/>
<path d="M217.857 762.56C219.995 764.698 219.995 768.164 217.857 770.302L187.127 801.032C184.989 803.17 181.522 803.17 179.384 801.032L148.654 770.302C146.516 768.164 146.516 764.698 148.654 762.56L179.384 731.83C181.522 729.692 184.989 729.692 187.127 731.83L217.857 762.56Z" fill="#20262B" stroke="#838C94"/>
<path d="M318.896 1018.87C321.034 1021.01 321.034 1024.48 318.896 1026.61L288.166 1057.34C286.028 1059.48 282.561 1059.48 280.423 1057.34L249.693 1026.61C247.555 1024.48 247.555 1021.01 249.693 1018.87L280.423 988.143C282.561 986.005 286.028 986.005 288.166 988.143L318.896 1018.87Z" fill="#20262B" stroke="#838C94"/>
<path d="M71.6573 1902.12C73.7953 1904.26 73.7953 1907.73 71.6573 1909.86L40.9273 1940.59C38.7894 1942.73 35.323 1942.73 33.185 1940.59L2.45504 1909.86C0.317065 1907.73 0.317067 1904.26 2.45505 1902.12L33.185 1871.39C35.323 1869.25 38.7894 1869.25 40.9273 1871.39L71.6573 1902.12Z" fill="#20262B" stroke="#838C94"/>
<path d="M71.6573 2049.36C73.7953 2051.5 73.7953 2054.97 71.6573 2057.11L40.9273 2087.84C38.7894 2089.98 35.323 2089.98 33.185 2087.84L2.45504 2057.11C0.317065 2054.97 0.317067 2051.5 2.45505 2049.36L33.185 2018.63C35.323 2016.5 38.7894 2016.5 40.9273 2018.63L71.6573 2049.36Z" fill="#20262B" stroke="#838C94"/>
<path d="M596.181 2372.15C598.319 2374.28 598.319 2377.75 596.181 2379.89L565.451 2410.62C563.313 2412.76 559.846 2412.76 557.708 2410.62L526.978 2379.89C524.841 2377.75 524.841 2374.28 526.978 2372.15L557.708 2341.42C559.846 2339.28 563.313 2339.28 565.451 2341.42L596.181 2372.15Z" fill="#20262B" stroke="#838C94"/>
<path d="M1105.8 1773.51C1107.94 1775.65 1107.94 1779.12 1105.8 1781.26L1075.07 1811.99C1072.93 1814.12 1069.46 1814.12 1067.33 1811.99L1036.6 1781.26C1034.46 1779.12 1034.46 1775.65 1036.6 1773.51L1067.33 1742.78C1069.46 1740.65 1072.93 1740.65 1075.07 1742.78L1105.8 1773.51Z" fill="#20262B" stroke="#838C94"/>
<path d="M1098.67 2018.58C1100.8 2020.71 1100.8 2024.18 1098.67 2026.32L1067.94 2057.05C1065.8 2059.19 1062.33 2059.19 1060.19 2057.05L1029.46 2026.32C1027.32 2024.18 1027.32 2020.71 1029.46 2018.58L1060.19 1987.85C1062.33 1985.71 1065.8 1985.71 1067.94 1987.85L1098.67 2018.58Z" fill="#20262B" stroke="#838C94"/>
<path d="M992.15 1584.61C994.287 1586.75 994.287 1590.22 992.15 1592.36L961.42 1623.09C959.282 1625.22 955.815 1625.22 953.677 1623.09L922.947 1592.36C920.809 1590.22 920.809 1586.75 922.947 1584.61L953.677 1553.88C955.815 1551.75 959.282 1551.75 961.42 1553.88L992.15 1584.61Z" fill="#20262B" stroke="#838C94"/>
<path d="M946.353 1149.51C948.491 1151.64 948.491 1155.11 946.353 1157.25L915.623 1187.98C913.485 1190.12 910.018 1190.12 907.88 1187.98L877.15 1157.25C875.012 1155.11 875.012 1151.64 877.15 1149.51L907.88 1118.78C910.018 1116.64 913.485 1116.64 915.623 1118.78L946.353 1149.51Z" fill="#20262B" stroke="#838C94"/>
<path d="M907.259 1142.63C905.952 1142.63 904.949 1143.2 904.249 1144.35C903.572 1145.47 903.234 1146.92 903.234 1148.72C903.234 1150.52 903.654 1151.94 904.494 1152.99C905.334 1154.04 906.291 1154.57 907.364 1154.57C908.437 1154.57 909.394 1154.23 910.234 1153.55C911.074 1152.87 911.716 1152.08 912.159 1151.17C912.112 1145.48 910.479 1142.63 907.259 1142.63ZM903.899 1163.42C903.899 1163.82 904.144 1164.13 904.634 1164.37C905.147 1164.58 905.766 1164.68 906.489 1164.68C910.292 1164.68 912.194 1160.98 912.194 1153.59C910.794 1155.27 908.881 1156.11 906.454 1156.11C904.774 1156.11 903.327 1155.38 902.114 1153.94C900.924 1152.47 900.329 1150.75 900.329 1148.79C900.329 1146.81 900.959 1145 902.219 1143.37C903.502 1141.71 905.206 1140.88 907.329 1140.88C910.316 1140.88 912.381 1141.97 913.524 1144.14C914.527 1146.12 915.029 1148.74 915.029 1152.01C915.029 1155.56 914.469 1158.72 913.349 1161.5C912.766 1162.92 911.902 1164.06 910.759 1164.93C909.639 1165.77 908.332 1166.19 906.839 1166.19C905.346 1166.19 904.074 1165.88 903.024 1165.28C901.997 1164.67 901.484 1163.77 901.484 1162.58C901.484 1162 901.624 1161.54 901.904 1161.22C902.184 1160.87 902.557 1160.69 903.024 1160.69C904.167 1160.69 904.739 1161.09 904.739 1161.88C904.739 1162.21 904.599 1162.53 904.319 1162.86C904.039 1163.16 903.899 1163.35 903.899 1163.42ZM922.815 1163.95C922.815 1164.53 922.628 1165 922.255 1165.35C921.882 1165.67 921.392 1165.84 920.785 1165.84C920.202 1165.84 919.735 1165.65 919.385 1165.28C919.035 1164.9 918.86 1164.44 918.86 1163.88C918.86 1163.29 919.035 1162.81 919.385 1162.44C919.735 1162.04 920.19 1161.85 920.75 1161.85C921.31 1161.85 921.788 1162.04 922.185 1162.44C922.605 1162.84 922.815 1163.34 922.815 1163.95Z" fill="white"/>
<path d="M950.581 408.878C951.794 407.828 953.369 407.303 955.306 407.303C957.243 407.303 958.806 407.816 959.996 408.843C961.186 409.869 961.781 411.304 961.781 413.148C961.781 415.224 960.381 417.103 957.581 418.783C959.028 419.459 960.311 420.404 961.431 421.618C962.551 422.808 963.111 424.289 963.111 426.063C963.111 427.836 962.329 429.376 960.766 430.683C959.226 431.966 957.453 432.608 955.446 432.608C953.463 432.608 951.678 432.001 950.091 430.788C948.528 429.574 947.746 428.104 947.746 426.378C947.746 424.651 948.248 423.158 949.251 421.898C950.254 420.638 951.409 419.704 952.716 419.098C951.783 418.538 950.896 417.733 950.056 416.683C949.216 415.609 948.796 414.454 948.796 413.218C948.796 411.374 949.391 409.928 950.581 408.878ZM955.586 430.788C956.939 430.788 958.036 430.368 958.876 429.528C959.739 428.688 960.171 427.568 960.171 426.168C960.171 424.744 959.728 423.589 958.841 422.703C957.978 421.793 956.519 420.988 954.466 420.288C953.159 420.941 952.203 421.723 951.596 422.633C950.989 423.543 950.686 424.709 950.686 426.133C950.686 427.533 951.164 428.664 952.121 429.528C953.101 430.368 954.256 430.788 955.586 430.788ZM955.201 409.123C954.198 409.123 953.369 409.414 952.716 409.998C952.063 410.581 951.736 411.421 951.736 412.518C951.736 413.614 952.086 414.664 952.786 415.668C953.486 416.671 954.478 417.371 955.761 417.768C957.814 416.601 958.841 414.781 958.841 412.308C958.841 411.351 958.479 410.581 957.756 409.998C957.056 409.414 956.204 409.123 955.201 409.123ZM970.569 430.368C970.569 430.951 970.382 431.418 970.009 431.768C969.636 432.094 969.146 432.258 968.539 432.258C967.956 432.258 967.489 432.071 967.139 431.698C966.789 431.324 966.614 430.858 966.614 430.298C966.614 429.714 966.789 429.236 967.139 428.863C967.489 428.466 967.944 428.268 968.504 428.268C969.064 428.268 969.542 428.466 969.939 428.863C970.359 429.259 970.569 429.761 970.569 430.368Z" fill="white"/>
<path d="M944.443 1600.69L937.863 1600.97C937.77 1600.9 937.723 1600.7 937.723 1600.37C937.723 1600.05 937.816 1599.83 938.003 1599.71C939.706 1599.71 940.908 1599.5 941.608 1599.08C942.331 1598.66 942.705 1597.81 942.728 1596.52L942.833 1583.08C942.856 1581.71 942.518 1580.86 941.818 1580.53C941.118 1580.2 939.648 1580.04 937.408 1580.04C937.338 1579.97 937.303 1579.78 937.303 1579.48C937.303 1579.15 937.385 1578.92 937.548 1578.78C940.535 1578.59 942.67 1577.79 943.953 1576.36C944.046 1576.27 944.245 1576.22 944.548 1576.22C944.851 1576.22 945.073 1576.27 945.213 1576.36L945.948 1596.52C945.995 1597.83 946.356 1598.69 947.033 1599.11C947.733 1599.51 948.923 1599.71 950.603 1599.71C950.79 1599.85 950.883 1600.07 950.883 1600.37C950.883 1600.68 950.836 1600.88 950.743 1600.97L944.443 1600.69ZM953.258 1593.51C952.978 1592.04 952.838 1590.43 952.838 1588.68C952.838 1586.93 952.978 1585.32 953.258 1583.85C953.561 1582.38 954.016 1581.04 954.623 1579.83C955.253 1578.62 956.116 1577.67 957.213 1576.99C958.333 1576.32 959.639 1575.98 961.133 1575.98C962.626 1575.98 963.921 1576.32 965.018 1576.99C966.138 1577.67 967.001 1578.62 967.608 1579.83C968.238 1581.04 968.693 1582.38 968.973 1583.85C969.276 1585.32 969.428 1586.93 969.428 1588.68C969.428 1590.43 969.276 1592.04 968.973 1593.51C968.693 1594.98 968.238 1596.31 967.608 1597.5C967.001 1598.69 966.138 1599.63 965.018 1600.3C963.921 1600.98 962.626 1601.32 961.133 1601.32C959.639 1601.32 958.333 1600.98 957.213 1600.3C956.116 1599.63 955.253 1598.69 954.623 1597.5C954.016 1596.31 953.561 1594.98 953.258 1593.51ZM955.778 1588.68C955.778 1591.58 956.244 1594.11 957.178 1596.28C958.111 1598.43 959.429 1599.5 961.133 1599.5C962.276 1599.5 963.268 1598.96 964.108 1597.89C965.694 1595.84 966.488 1592.77 966.488 1588.68C966.488 1584.67 965.694 1581.6 964.108 1579.48C963.268 1578.36 962.276 1577.8 961.133 1577.8C959.989 1577.8 958.998 1578.36 958.158 1579.48C956.571 1581.63 955.778 1584.69 955.778 1588.68ZM977.194 1599.08C977.194 1599.66 977.007 1600.13 976.634 1600.48C976.261 1600.81 975.771 1600.97 975.164 1600.97C974.581 1600.97 974.114 1600.78 973.764 1600.41C973.414 1600.04 973.239 1599.57 973.239 1599.01C973.239 1598.43 973.414 1597.95 973.764 1597.57C974.114 1597.18 974.569 1596.98 975.129 1596.98C975.689 1596.98 976.167 1597.18 976.564 1597.57C976.984 1597.97 977.194 1598.47 977.194 1599.08Z" fill="white"/>
<path d="M1060.59 1789.6L1054.01 1789.88C1053.92 1789.81 1053.87 1789.61 1053.87 1789.29C1053.87 1788.96 1053.96 1788.74 1054.15 1788.62C1055.85 1788.62 1057.06 1788.41 1057.76 1787.99C1058.48 1787.57 1058.85 1786.72 1058.88 1785.44L1058.98 1772C1059 1770.62 1058.67 1769.77 1057.97 1769.44C1057.27 1769.12 1055.8 1768.95 1053.56 1768.95C1053.49 1768.88 1053.45 1768.7 1053.45 1768.39C1053.45 1768.07 1053.53 1767.83 1053.7 1767.69C1056.68 1767.51 1058.82 1766.7 1060.1 1765.28C1060.19 1765.18 1060.39 1765.14 1060.7 1765.14C1061 1765.14 1061.22 1765.18 1061.36 1765.28L1062.1 1785.44C1062.14 1786.74 1062.5 1787.61 1063.18 1788.03C1063.88 1788.42 1065.07 1788.62 1066.75 1788.62C1066.94 1788.76 1067.03 1788.98 1067.03 1789.29C1067.03 1789.59 1066.98 1789.79 1066.89 1789.88L1060.59 1789.6ZM1075.39 1789.6L1068.81 1789.88C1068.72 1789.81 1068.67 1789.61 1068.67 1789.29C1068.67 1788.96 1068.76 1788.74 1068.95 1788.62C1070.65 1788.62 1071.86 1788.41 1072.56 1787.99C1073.28 1787.57 1073.65 1786.72 1073.68 1785.44L1073.78 1772C1073.8 1770.62 1073.47 1769.77 1072.77 1769.44C1072.07 1769.12 1070.6 1768.95 1068.36 1768.95C1068.29 1768.88 1068.25 1768.7 1068.25 1768.39C1068.25 1768.07 1068.33 1767.83 1068.5 1767.69C1071.48 1767.51 1073.62 1766.7 1074.9 1765.28C1074.99 1765.18 1075.19 1765.14 1075.5 1765.14C1075.8 1765.14 1076.02 1765.18 1076.16 1765.28L1076.9 1785.44C1076.94 1786.74 1077.3 1787.61 1077.98 1788.03C1078.68 1788.42 1079.87 1788.62 1081.55 1788.62C1081.74 1788.76 1081.83 1788.98 1081.83 1789.29C1081.83 1789.59 1081.78 1789.79 1081.69 1789.88L1075.39 1789.6ZM1087.57 1787.99C1087.57 1788.58 1087.38 1789.04 1087.01 1789.39C1086.63 1789.72 1086.14 1789.88 1085.54 1789.88C1084.95 1789.88 1084.49 1789.7 1084.14 1789.32C1083.79 1788.95 1083.61 1788.48 1083.61 1787.92C1083.61 1787.34 1083.79 1786.86 1084.14 1786.49C1084.49 1786.09 1084.94 1785.89 1085.5 1785.89C1086.06 1785.89 1086.54 1786.09 1086.94 1786.49C1087.36 1786.88 1087.57 1787.39 1087.57 1787.99Z" fill="white"/>
<path d="M1051.97 2033.17L1045.39 2033.45C1045.3 2033.38 1045.25 2033.18 1045.25 2032.85C1045.25 2032.52 1045.35 2032.3 1045.53 2032.19C1047.24 2032.19 1048.44 2031.98 1049.14 2031.56C1049.86 2031.14 1050.24 2030.28 1050.26 2029L1050.36 2015.56C1050.39 2014.18 1050.05 2013.33 1049.35 2013.01C1048.65 2012.68 1047.18 2012.52 1044.94 2012.52C1044.87 2012.45 1044.83 2012.26 1044.83 2011.96C1044.83 2011.63 1044.92 2011.4 1045.08 2011.26C1048.07 2011.07 1050.2 2010.26 1051.48 2008.84C1051.58 2008.75 1051.78 2008.7 1052.08 2008.7C1052.38 2008.7 1052.6 2008.75 1052.74 2008.84L1053.48 2029C1053.53 2030.31 1053.89 2031.17 1054.56 2031.59C1055.26 2031.99 1056.45 2032.19 1058.13 2032.19C1058.32 2032.33 1058.41 2032.55 1058.41 2032.85C1058.41 2033.15 1058.37 2033.35 1058.27 2033.45L1051.97 2033.17ZM1059.67 2033.45C1059.55 2033.42 1059.49 2033.31 1059.49 2033.1C1059.49 2032.61 1059.59 2032.06 1059.77 2031.45C1059.98 2030.84 1060.49 2030.04 1061.28 2029.04C1062.1 2028.01 1063.01 2026.92 1064.01 2025.78C1065.01 2024.64 1066 2023.45 1066.98 2022.21C1067.99 2020.95 1068.82 2019.63 1069.47 2018.26C1070.15 2016.88 1070.48 2015.56 1070.48 2014.3C1070.48 2013.02 1070.09 2012.04 1069.29 2011.36C1068.52 2010.66 1067.6 2010.31 1066.53 2010.31C1065.46 2010.31 1064.59 2010.46 1063.94 2010.77C1063.29 2011.07 1062.96 2011.47 1062.96 2011.96C1062.96 2012.1 1063.1 2012.33 1063.38 2012.66C1063.66 2012.96 1063.8 2013.3 1063.8 2013.67C1063.8 2014.46 1063.23 2014.86 1062.08 2014.86C1061.55 2014.86 1061.13 2014.71 1060.82 2014.41C1060.52 2014.1 1060.37 2013.68 1060.37 2013.15C1060.37 2012.14 1060.71 2011.28 1061.38 2010.56C1062.67 2009.18 1064.55 2008.49 1067.02 2008.49C1068.86 2008.49 1070.4 2008.97 1071.64 2009.93C1072.88 2010.88 1073.49 2012.32 1073.49 2014.23C1073.49 2015.68 1073.09 2017.18 1072.27 2018.75C1071.31 2020.59 1070.39 2022.11 1069.5 2023.3C1068.62 2024.49 1067.94 2025.37 1067.47 2025.96C1067.03 2026.52 1066.33 2027.38 1065.37 2028.55C1064.44 2029.71 1063.83 2030.46 1063.55 2030.79C1063.3 2031.11 1063.17 2031.37 1063.17 2031.56C1063.17 2031.58 1063.67 2031.59 1064.67 2031.59H1067.16C1068.26 2031.59 1069.07 2031.59 1069.61 2031.59C1070.17 2031.57 1070.72 2031.49 1071.25 2031.35C1071.81 2031.21 1072.19 2031.05 1072.37 2030.89C1072.58 2030.73 1072.78 2030.44 1072.97 2030.02C1073.16 2029.57 1073.27 2029.12 1073.32 2028.65C1073.37 2028.16 1073.4 2027.47 1073.42 2026.59C1073.49 2026.52 1073.7 2026.48 1074.05 2026.48C1074.43 2026.48 1074.8 2026.63 1075.17 2026.94L1074.16 2033.8C1072.32 2033.59 1069.56 2033.48 1065.9 2033.48L1059.67 2033.45ZM1082.26 2031.56C1082.26 2032.14 1082.08 2032.61 1081.7 2032.96C1081.33 2033.28 1080.84 2033.45 1080.23 2033.45C1079.65 2033.45 1079.18 2033.26 1078.83 2032.89C1078.48 2032.51 1078.31 2032.05 1078.31 2031.49C1078.31 2030.9 1078.48 2030.42 1078.83 2030.05C1079.18 2029.65 1079.64 2029.46 1080.2 2029.46C1080.76 2029.46 1081.24 2029.65 1081.63 2030.05C1082.05 2030.45 1082.26 2030.95 1082.26 2031.56Z" fill="white"/>
<path d="M549.978 2388.24L543.398 2388.52C543.305 2388.45 543.258 2388.25 543.258 2387.92C543.258 2387.59 543.351 2387.37 543.538 2387.26C545.241 2387.26 546.443 2387.05 547.143 2386.63C547.866 2386.21 548.24 2385.35 548.263 2384.07L548.368 2370.63C548.391 2369.25 548.053 2368.4 547.353 2368.08C546.653 2367.75 545.183 2367.59 542.943 2367.59C542.873 2367.52 542.838 2367.33 542.838 2367.03C542.838 2366.7 542.92 2366.47 543.083 2366.33C546.07 2366.14 548.205 2365.33 549.488 2363.91C549.581 2363.82 549.78 2363.77 550.083 2363.77C550.386 2363.77 550.608 2363.82 550.748 2363.91L551.483 2384.07C551.53 2385.38 551.891 2386.24 552.568 2386.66C553.268 2387.06 554.458 2387.26 556.138 2387.26C556.325 2387.4 556.418 2387.62 556.418 2387.92C556.418 2388.22 556.371 2388.42 556.278 2388.52L549.978 2388.24ZM561.663 2376.55C561.57 2376.55 561.441 2376.38 561.278 2376.06C561.115 2375.73 561.033 2375.5 561.033 2375.36C561.033 2375.22 561.045 2375.13 561.068 2375.11C562.888 2374.6 564.393 2373.86 565.583 2372.91C566.773 2371.95 567.368 2370.82 567.368 2369.51C567.368 2368.18 567.041 2367.17 566.388 2366.47C565.758 2365.74 564.965 2365.38 564.008 2365.38C563.075 2365.38 562.305 2365.56 561.698 2365.91C561.115 2366.23 560.823 2366.62 560.823 2367.06C560.823 2367.27 560.951 2367.53 561.208 2367.83C561.488 2368.13 561.628 2368.52 561.628 2368.99C561.628 2369.78 561.056 2370.18 559.913 2370.18C559.376 2370.18 558.956 2370.02 558.653 2369.72C558.35 2369.42 558.198 2369 558.198 2368.46C558.198 2367.06 558.84 2365.89 560.123 2364.96C561.43 2364.03 562.888 2363.56 564.498 2363.56C566.108 2363.56 567.473 2364.1 568.593 2365.17C569.736 2366.22 570.308 2367.66 570.308 2369.48C570.308 2370.78 569.841 2371.89 568.908 2372.8C567.975 2373.69 566.843 2374.35 565.513 2374.8C567.263 2375.01 568.721 2375.72 569.888 2376.93C571.078 2378.12 571.673 2379.67 571.673 2381.59C571.673 2383.48 570.88 2385.17 569.293 2386.66C567.73 2388.13 565.91 2388.87 563.833 2388.87C562.363 2388.87 561.033 2388.5 559.843 2387.78C558.676 2387.03 558.093 2385.96 558.093 2384.56C558.093 2384.02 558.245 2383.6 558.548 2383.3C558.875 2383 559.295 2382.85 559.808 2382.85C560.951 2382.85 561.523 2383.24 561.523 2384.04C561.523 2384.41 561.383 2384.76 561.103 2385.09C560.823 2385.39 560.683 2385.61 560.683 2385.75C560.683 2386.12 561.01 2386.45 561.663 2386.73C562.34 2386.99 563.005 2387.12 563.658 2387.12C565.175 2387.12 566.4 2386.6 567.333 2385.58C568.266 2384.55 568.733 2383.22 568.733 2381.59C568.733 2379.93 568.313 2378.56 567.473 2377.49C566.656 2376.39 565.595 2375.85 564.288 2375.85C563.425 2375.85 562.561 2376.08 561.698 2376.55H561.663ZM579.174 2386.63C579.174 2387.21 578.988 2387.68 578.614 2388.03C578.241 2388.35 577.751 2388.52 577.144 2388.52C576.561 2388.52 576.094 2388.33 575.744 2387.96C575.394 2387.58 575.219 2387.12 575.219 2386.56C575.219 2385.97 575.394 2385.49 575.744 2385.12C576.094 2384.72 576.549 2384.53 577.109 2384.53C577.669 2384.53 578.148 2384.72 578.544 2385.12C578.964 2385.52 579.174 2386.02 579.174 2386.63Z" fill="white"/>
<path d="M33.9391 2065.46L27.3591 2065.74C27.2657 2065.67 27.2191 2065.47 27.2191 2065.15C27.2191 2064.82 27.3124 2064.6 27.4991 2064.48C29.2024 2064.48 30.4041 2064.27 31.1041 2063.85C31.8274 2063.43 32.2007 2062.58 32.2241 2061.3L32.3291 2047.86C32.3524 2046.48 32.0141 2045.63 31.3141 2045.3C30.6141 2044.98 29.1441 2044.81 26.9041 2044.81C26.8341 2044.74 26.7991 2044.56 26.7991 2044.25C26.7991 2043.93 26.8807 2043.69 27.0441 2043.55C30.0307 2043.37 32.1657 2042.56 33.4491 2041.14C33.5424 2041.04 33.7407 2041 34.0441 2041C34.3474 2041 34.5691 2041.04 34.7091 2041.14L35.4441 2061.3C35.4907 2062.6 35.8524 2063.47 36.5291 2063.89C37.2291 2064.28 38.4191 2064.48 40.0991 2064.48C40.2857 2064.62 40.3791 2064.84 40.3791 2065.15C40.3791 2065.45 40.3324 2065.65 40.2391 2065.74L33.9391 2065.46ZM46.1139 2063.85C46.1139 2064.44 45.9272 2064.9 45.5539 2065.25C45.1805 2065.58 44.6905 2065.74 44.0839 2065.74C43.5005 2065.74 43.0339 2065.56 42.6839 2065.18C42.3339 2064.81 42.1589 2064.34 42.1589 2063.78C42.1589 2063.2 42.3339 2062.72 42.6839 2062.35C43.0339 2061.95 43.4889 2061.75 44.0489 2061.75C44.6089 2061.75 45.0872 2061.95 45.4839 2062.35C45.9039 2062.74 46.1139 2063.25 46.1139 2063.85Z" fill="white"/>
<path d="M25.3536 1918.49C25.2369 1918.47 25.1786 1918.35 25.1786 1918.14C25.1786 1917.65 25.2719 1917.1 25.4586 1916.5C25.6686 1915.89 26.1703 1915.09 26.9636 1914.08C27.7803 1913.06 28.6903 1911.97 29.6936 1910.83C30.6969 1909.68 31.6886 1908.49 32.6686 1907.26C33.6719 1906 34.5003 1904.68 35.1536 1903.3C35.8303 1901.93 36.1686 1900.61 36.1686 1899.35C36.1686 1898.06 35.7719 1897.08 34.9786 1896.41C34.2086 1895.71 33.2869 1895.36 32.2136 1895.36C31.1403 1895.36 30.2769 1895.51 29.6236 1895.81C28.9703 1896.12 28.6436 1896.51 28.6436 1897C28.6436 1897.14 28.7836 1897.38 29.0636 1897.7C29.3436 1898.01 29.4836 1898.34 29.4836 1898.72C29.4836 1899.51 28.9119 1899.91 27.7686 1899.91C27.2319 1899.91 26.8119 1899.76 26.5086 1899.45C26.2053 1899.15 26.0536 1898.73 26.0536 1898.19C26.0536 1897.19 26.3919 1896.33 27.0686 1895.6C28.3519 1894.23 30.2303 1893.54 32.7036 1893.54C34.5469 1893.54 36.0869 1894.02 37.3236 1894.97C38.5603 1895.93 39.1786 1897.36 39.1786 1899.28C39.1786 1900.72 38.7703 1902.23 37.9536 1903.79C36.9969 1905.64 36.0753 1907.15 35.1886 1908.34C34.3019 1909.53 33.6253 1910.42 33.1586 1911C32.7153 1911.56 32.0153 1912.43 31.0586 1913.59C30.1253 1914.76 29.5186 1915.51 29.2386 1915.83C28.9819 1916.16 28.8536 1916.42 28.8536 1916.6C28.8536 1916.63 29.3553 1916.64 30.3586 1916.64H32.8436C33.9403 1916.64 34.7569 1916.64 35.2936 1916.64C35.8536 1916.61 36.4019 1916.53 36.9386 1916.39C37.4986 1916.25 37.8719 1916.1 38.0586 1915.94C38.2686 1915.77 38.4669 1915.48 38.6536 1915.06C38.8403 1914.62 38.9569 1914.16 39.0036 1913.7C39.0503 1913.21 39.0853 1912.52 39.1086 1911.63C39.1786 1911.56 39.3886 1911.53 39.7386 1911.53C40.1119 1911.53 40.4853 1911.68 40.8586 1911.98L39.8436 1918.84C38.0003 1918.63 35.2469 1918.53 31.5836 1918.53L25.3536 1918.49ZM47.9488 1916.6C47.9488 1917.19 47.7622 1917.65 47.3888 1918C47.0155 1918.33 46.5255 1918.49 45.9188 1918.49C45.3355 1918.49 44.8688 1918.31 44.5188 1917.93C44.1688 1917.56 43.9938 1917.09 43.9938 1916.53C43.9938 1915.95 44.1688 1915.47 44.5188 1915.1C44.8688 1914.7 45.3238 1914.5 45.8838 1914.5C46.4438 1914.5 46.9222 1914.7 47.3188 1915.1C47.7388 1915.49 47.9488 1916 47.9488 1916.6Z" fill="white"/>
<path d="M277.086 1023.28C276.992 1023.28 276.864 1023.12 276.701 1022.79C276.537 1022.46 276.456 1022.23 276.456 1022.09C276.456 1021.95 276.467 1021.87 276.491 1021.85C278.311 1021.33 279.816 1020.6 281.006 1019.64C282.196 1018.68 282.791 1017.55 282.791 1016.25C282.791 1014.92 282.464 1013.9 281.811 1013.2C281.181 1012.48 280.387 1012.12 279.431 1012.12C278.497 1012.12 277.727 1012.29 277.121 1012.64C276.537 1012.97 276.246 1013.35 276.246 1013.8C276.246 1014.01 276.374 1014.26 276.631 1014.57C276.911 1014.87 277.051 1015.25 277.051 1015.72C277.051 1016.51 276.479 1016.91 275.336 1016.91C274.799 1016.91 274.379 1016.76 274.076 1016.46C273.772 1016.15 273.621 1015.73 273.621 1015.2C273.621 1013.8 274.262 1012.63 275.546 1011.7C276.852 1010.76 278.311 1010.29 279.921 1010.29C281.531 1010.29 282.896 1010.83 284.016 1011.9C285.159 1012.95 285.731 1014.39 285.731 1016.21C285.731 1017.52 285.264 1018.63 284.331 1019.54C283.397 1020.42 282.266 1021.09 280.936 1021.53C282.686 1021.74 284.144 1022.45 285.311 1023.67C286.501 1024.86 287.096 1026.41 287.096 1028.32C287.096 1030.21 286.302 1031.9 284.716 1033.4C283.152 1034.87 281.332 1035.6 279.256 1035.6C277.786 1035.6 276.456 1035.24 275.266 1034.52C274.099 1033.77 273.516 1032.7 273.516 1031.3C273.516 1030.76 273.667 1030.34 273.971 1030.04C274.297 1029.73 274.717 1029.58 275.231 1029.58C276.374 1029.58 276.946 1029.98 276.946 1030.77C276.946 1031.14 276.806 1031.49 276.526 1031.82C276.246 1032.12 276.106 1032.35 276.106 1032.49C276.106 1032.86 276.432 1033.19 277.086 1033.47C277.762 1033.72 278.427 1033.85 279.081 1033.85C280.597 1033.85 281.822 1033.34 282.756 1032.31C283.689 1031.28 284.156 1029.95 284.156 1028.32C284.156 1026.66 283.736 1025.3 282.896 1024.23C282.079 1023.13 281.017 1022.58 279.711 1022.58C278.847 1022.58 277.984 1022.81 277.121 1023.28H277.086ZM294.597 1033.36C294.597 1033.94 294.411 1034.41 294.037 1034.76C293.664 1035.09 293.174 1035.25 292.567 1035.25C291.984 1035.25 291.517 1035.06 291.167 1034.69C290.817 1034.32 290.642 1033.85 290.642 1033.29C290.642 1032.71 290.817 1032.23 291.167 1031.86C291.517 1031.46 291.972 1031.26 292.532 1031.26C293.092 1031.26 293.571 1031.46 293.967 1031.86C294.387 1032.25 294.597 1032.75 294.597 1033.36Z" fill="white"/>
<path d="M182.403 778.79L177.958 778.93C177.888 778.86 177.853 778.673 177.853 778.37C177.853 778.043 177.923 777.81 178.063 777.67C178.996 777.67 179.673 777.541 180.093 777.285C180.513 777.005 180.734 776.538 180.758 775.885L180.688 772.175H170.923C170.806 772.105 170.748 771.801 170.748 771.265C170.748 770.705 170.806 770.366 170.923 770.25L181.528 754.325C181.621 754.231 181.819 754.185 182.123 754.185C182.426 754.185 182.648 754.231 182.788 754.325L183.348 770.25H186.778C186.894 770.6 186.953 770.961 186.953 771.335C186.953 771.708 186.859 771.988 186.673 772.175H183.418L183.558 775.885C183.581 776.538 183.791 777.005 184.188 777.285C184.608 777.541 185.284 777.67 186.218 777.67C186.334 777.786 186.393 778.02 186.393 778.37C186.393 778.696 186.369 778.883 186.323 778.93L182.403 778.79ZM180.758 758.21C176.044 766.166 173.688 770.168 173.688 770.215C173.688 770.238 173.723 770.25 173.793 770.25H180.443C180.606 770.25 180.688 770.168 180.688 770.005L180.933 758.245C180.933 758.175 180.909 758.14 180.863 758.14C180.816 758.14 180.781 758.163 180.758 758.21ZM193.738 777.04C193.738 777.623 193.551 778.09 193.178 778.44C192.805 778.766 192.315 778.93 191.708 778.93C191.125 778.93 190.658 778.743 190.308 778.37C189.958 777.996 189.783 777.53 189.783 776.97C189.783 776.386 189.958 775.908 190.308 775.535C190.658 775.138 191.113 774.94 191.673 774.94C192.233 774.94 192.711 775.138 193.108 775.535C193.528 775.931 193.738 776.433 193.738 777.04Z" fill="white"/>
<path d="M208.064 505.877C207.248 505.877 206.501 506.005 205.824 506.262C205.171 506.495 204.833 506.612 204.809 506.612C204.693 506.612 204.564 506.425 204.424 506.052C204.284 505.678 204.214 505.352 204.214 505.072L204.494 495.377C204.494 494.957 204.704 494.747 205.124 494.747H210.619C211.786 494.747 212.568 494.653 212.964 494.467C213.361 494.257 213.711 493.732 214.014 492.892C214.061 492.845 214.224 492.822 214.504 492.822C214.808 492.822 215.064 492.903 215.274 493.067L214.084 496.672H206.839C206.583 496.672 206.454 496.87 206.454 497.267L205.929 504.582C206.863 504.372 207.691 504.267 208.414 504.267C210.724 504.267 212.626 504.978 214.119 506.402C215.613 507.802 216.359 509.47 216.359 511.407C216.359 513.74 215.683 515.712 214.329 517.322C212.999 518.908 211.144 519.702 208.764 519.702C207.318 519.702 205.999 519.328 204.809 518.582C203.643 517.835 203.059 516.773 203.059 515.397C203.059 514.86 203.211 514.44 203.514 514.137C203.818 513.833 204.238 513.682 204.774 513.682C205.918 513.682 206.489 514.078 206.489 514.872C206.489 515.245 206.349 515.595 206.069 515.922C205.789 516.225 205.649 516.447 205.649 516.587C205.649 516.96 205.976 517.287 206.629 517.567C207.306 517.823 207.959 517.952 208.589 517.952C210.106 517.952 211.296 517.357 212.159 516.167C213.023 514.953 213.454 513.472 213.454 511.722C213.454 509.948 212.953 508.537 211.949 507.487C210.946 506.413 209.651 505.877 208.064 505.877ZM223.494 517.462C223.494 518.045 223.307 518.512 222.934 518.862C222.56 519.188 222.07 519.352 221.464 519.352C220.88 519.352 220.414 519.165 220.064 518.792C219.714 518.418 219.539 517.952 219.539 517.392C219.539 516.808 219.714 516.33 220.064 515.957C220.414 515.56 220.869 515.362 221.429 515.362C221.989 515.362 222.467 515.56 222.864 515.957C223.284 516.353 223.494 516.855 223.494 517.462Z" fill="white"/>
<path d="M112.772 189.186C114.195 189.186 115.28 188.591 116.027 187.401C116.774 186.188 117.147 184.683 117.147 182.886C117.147 181.066 116.657 179.643 115.677 178.616C114.697 177.589 113.624 177.076 112.457 177.076C111.29 177.076 110.287 177.438 109.447 178.161C108.607 178.861 107.965 179.689 107.522 180.646C107.569 186.339 109.319 189.186 112.772 189.186ZM116.307 168.396C116.307 167.999 116.062 167.696 115.572 167.486C115.105 167.253 114.545 167.136 113.892 167.136C111.699 167.136 109.995 168.524 108.782 171.301C108.525 171.908 108.28 172.794 108.047 173.961C107.837 175.104 107.65 176.528 107.487 178.231C108.887 176.434 110.8 175.536 113.227 175.536C115.094 175.536 116.692 176.294 118.022 177.811C119.375 179.328 120.052 181.066 120.052 183.026C120.052 185.453 119.375 187.378 118.022 188.801C116.692 190.224 114.86 190.936 112.527 190.936C110.217 190.936 108.327 189.956 106.857 187.996C105.387 186.013 104.652 183.714 104.652 181.101C104.652 178.464 104.979 175.979 105.632 173.646C106.309 171.313 107.335 169.399 108.712 167.906C110.112 166.389 111.675 165.631 113.402 165.631C115.129 165.631 116.47 165.958 117.427 166.611C118.407 167.241 118.897 168.174 118.897 169.411C118.897 169.948 118.745 170.368 118.442 170.671C118.139 170.974 117.719 171.126 117.182 171.126C116.039 171.126 115.467 170.729 115.467 169.936C115.467 169.609 115.607 169.294 115.887 168.991C116.167 168.664 116.307 168.466 116.307 168.396ZM127.405 188.696C127.405 189.279 127.218 189.746 126.845 190.096C126.472 190.423 125.982 190.586 125.375 190.586C124.792 190.586 124.325 190.399 123.975 190.026C123.625 189.653 123.45 189.186 123.45 188.626C123.45 188.043 123.625 187.564 123.975 187.191C124.325 186.794 124.78 186.596 125.34 186.596C125.9 186.596 126.378 186.794 126.775 187.191C127.195 187.588 127.405 188.089 127.405 188.696Z" fill="white"/>
<path d="M882.343 285.42C885.376 285.723 887.861 285.875 889.798 285.875C891.758 285.875 893.718 285.84 895.678 285.77C895.865 285.98 895.958 286.307 895.958 286.75L895.818 287.765L887.768 310.375C887.675 310.468 887.126 310.515 886.123 310.515C885.12 310.515 884.583 310.468 884.513 310.375L893.508 288.78L893.543 288.22C893.45 288.057 893.111 287.975 892.528 287.975H884.933C884.163 287.975 883.556 288.173 883.113 288.57C882.67 288.967 882.378 289.748 882.238 290.915C882.191 290.962 881.993 290.985 881.643 290.985C881.316 290.985 881.095 290.903 880.978 290.74L882.343 285.42ZM900.72 308.485C900.72 309.068 900.534 309.535 900.16 309.885C899.787 310.212 899.297 310.375 898.69 310.375C898.107 310.375 897.64 310.188 897.29 309.815C896.94 309.442 896.765 308.975 896.765 308.415C896.765 307.832 896.94 307.353 897.29 306.98C897.64 306.583 898.095 306.385 898.655 306.385C899.215 306.385 899.694 306.583 900.09 306.98C900.51 307.377 900.72 307.878 900.72 308.485Z" fill="white"/>
<circle cx="87.4297" cy="2053.96" r="5" transform="rotate(-90 87.4297 2053.96)" fill="#838C94"/>
<circle cx="87.4297" cy="1906.89" r="5" transform="rotate(-90 87.4297 1906.89)" fill="#838C94"/>
<circle cx="356.523" cy="1907.15" r="5" transform="rotate(-90 356.523 1907.15)" fill="#838C94"/>
<path d="M353.039 2049.15C355.8 2049.15 358.039 2051.39 358.039 2054.15C358.039 2056.91 355.8 2059.15 353.039 2059.15C350.278 2059.15 348.039 2056.91 348.039 2054.15C348.039 2051.39 350.278 2049.15 353.039 2049.15Z" fill="#838C94"/>
<path d="M562.766 2019.19C565.527 2019.19 567.766 2021.43 567.766 2024.19C567.766 2026.95 565.527 2029.19 562.766 2029.19C560.004 2029.19 557.766 2026.95 557.766 2024.19C557.766 2021.43 560.004 2019.19 562.766 2019.19Z" fill="#838C94"/>
<path d="M562.859 2316.22C565.621 2316.22 567.859 2318.46 567.859 2321.22C567.859 2323.98 565.621 2326.22 562.859 2326.22C560.098 2326.22 557.859 2323.98 557.859 2321.22C557.859 2318.46 560.098 2316.22 562.859 2316.22Z" fill="#838C94"/>
<path d="M788.273 1774.45C791.035 1774.45 793.273 1776.69 793.273 1779.45C793.273 1782.21 791.035 1784.45 788.273 1784.45C785.512 1784.45 783.273 1782.21 783.273 1779.45C783.273 1776.69 785.512 1774.45 788.273 1774.45Z" fill="#838C94"/>
<path d="M851.141 2019.52C853.902 2019.52 856.141 2021.75 856.141 2024.52C856.141 2027.28 853.902 2029.52 851.141 2029.52C848.379 2029.52 846.141 2027.28 846.141 2024.52C846.141 2021.75 848.379 2019.52 851.141 2019.52Z" fill="#838C94"/>
<path d="M1015.62 1774.09C1018.38 1774.09 1020.62 1776.32 1020.62 1779.09C1020.62 1781.85 1018.38 1784.09 1015.62 1784.09C1012.86 1784.09 1010.62 1781.85 1010.62 1779.09C1010.62 1776.32 1012.86 1774.09 1015.62 1774.09Z" fill="#838C94"/>
<path d="M1008.48 2019.15C1011.25 2019.15 1013.48 2021.39 1013.48 2024.15C1013.48 2026.91 1011.25 2029.15 1008.48 2029.15C1005.72 2029.15 1003.48 2026.91 1003.48 2024.15C1003.48 2021.39 1005.72 2019.15 1008.48 2019.15Z" fill="#838C94"/>
<path d="M899.344 1583.48C902.105 1583.48 904.344 1585.72 904.344 1588.48C904.344 1591.25 902.105 1593.48 899.344 1593.48C896.582 1593.48 894.344 1591.25 894.344 1588.48C894.344 1585.72 896.582 1583.48 899.344 1583.48Z" fill="#838C94"/>
<path d="M650.527 1583.48C653.289 1583.48 655.527 1585.72 655.527 1588.48C655.527 1591.25 653.289 1593.48 650.527 1593.48C647.766 1593.48 645.527 1591.25 645.527 1588.48C645.527 1585.72 647.766 1583.48 650.527 1583.48Z" fill="#838C94"/>
<path d="M855.711 1147.65C858.472 1147.65 860.711 1149.89 860.711 1152.65C860.711 1155.41 858.472 1157.65 855.711 1157.65C852.95 1157.65 850.711 1155.41 850.711 1152.65C850.711 1149.89 852.95 1147.65 855.711 1147.65Z" fill="#838C94"/>
<path d="M605.117 1147.65C607.879 1147.65 610.117 1149.89 610.117 1152.65C610.117 1155.41 607.879 1157.65 605.117 1157.65C602.356 1157.65 600.117 1155.41 600.117 1152.65C600.117 1149.89 602.356 1147.65 605.117 1147.65Z" fill="#838C94"/>
<path d="M897.816 416.391C900.578 416.391 902.816 418.629 902.816 421.391C902.816 424.152 900.578 426.391 897.816 426.391C895.055 426.391 892.816 424.152 892.816 421.391C892.816 418.629 895.055 416.391 897.816 416.391Z" fill="#838C94"/>
<path d="M609.48 416.391C612.242 416.391 614.48 418.629 614.48 421.391C614.48 424.152 612.242 426.391 609.48 426.391C606.719 426.391 604.48 424.152 604.48 421.391C604.48 418.629 606.719 416.391 609.48 416.391Z" fill="#838C94"/>
<path d="M335.004 1018.97C337.765 1018.97 340.004 1021.21 340.004 1023.97C340.004 1026.73 337.765 1028.97 335.004 1028.97C332.242 1028.97 330.004 1026.73 330.004 1023.97C330.004 1021.21 332.242 1018.97 335.004 1018.97Z" fill="#838C94"/>
<path d="M509.84 1018.97C512.601 1018.97 514.84 1021.21 514.84 1023.97C514.84 1026.73 512.601 1028.97 509.84 1028.97C507.078 1028.97 504.84 1026.73 504.84 1023.97C504.84 1021.21 507.078 1018.97 509.84 1018.97Z" fill="#838C94"/>
<path d="M233.434 762.141C236.195 762.141 238.434 764.379 238.434 767.141C238.434 769.902 236.195 772.141 233.434 772.141C230.672 772.141 228.434 769.902 228.434 767.141C228.434 764.379 230.672 762.141 233.434 762.141Z" fill="#838C94"/>
<path d="M534.914 762.141C537.675 762.141 539.914 764.379 539.914 767.141C539.914 769.902 537.675 772.141 534.914 772.141C532.153 772.141 529.914 769.902 529.914 767.141C529.914 764.379 532.153 762.141 534.914 762.141Z" fill="#838C94"/>
<path d="M534.914 501.828C537.675 501.828 539.914 504.067 539.914 506.828C539.914 509.59 537.675 511.828 534.914 511.828C532.153 511.828 529.914 509.59 529.914 506.828C529.914 504.067 532.153 501.828 534.914 501.828Z" fill="#838C94"/>
<path d="M261.398 501.828C264.16 501.828 266.398 504.067 266.398 506.828C266.398 509.59 264.16 511.828 261.398 511.828C258.637 511.828 256.398 509.59 256.398 506.828C256.398 504.067 258.637 501.828 261.398 501.828Z" fill="#838C94"/>
<path d="M440.77 174.297C443.531 174.297 445.77 176.535 445.77 179.297C445.77 182.058 443.531 184.297 440.77 184.297C438.008 184.297 435.77 182.058 435.77 179.297C435.77 176.535 438.008 174.297 440.77 174.297Z" fill="#838C94"/>
<path d="M167.176 174.297C169.937 174.297 172.176 176.535 172.176 179.297C172.176 182.058 169.937 184.297 167.176 184.297C164.414 184.297 162.176 182.058 162.176 179.297C162.176 176.535 164.414 174.297 167.176 174.297Z" fill="#838C94"/>
<path d="M839.188 292.875C841.949 292.875 844.188 295.114 844.188 297.875C844.188 300.636 841.949 302.875 839.188 302.875C836.426 302.875 834.188 300.636 834.188 297.875C834.188 295.114 836.426 292.875 839.188 292.875Z" fill="#838C94"/>
<path d="M582.648 292.875C585.41 292.875 587.648 295.114 587.648 297.875C587.648 300.636 585.41 302.875 582.648 302.875C579.887 302.875 577.648 300.636 577.648 297.875C577.648 295.114 579.887 292.875 582.648 292.875Z" fill="#838C94"/>
<path d="M1008.72 2024.77C928.036 2025.12 931.715 2024.44 851.031 2024.78" stroke="#838C94" stroke-dasharray="10 10"/>
</svg>
