<svg width="2413" height="1109" viewBox="0 0 2413 1109" fill="none" xmlns="http://www.w3.org/2000/svg">
<path d="M2387.79 461.466L2394.17 463.39M2387.79 461.466L2379.26 457.508C2375.37 455.7 2370.97 455.34 2366.84 456.496C2355.69 459.613 2332.62 466.043 2319.29 469.613C2315.92 470.516 2313.03 471.275 2310.3 471.972M2387.79 461.466C2387.79 461.466 2367.33 463.831 2356.89 466.454C2338.43 471.092 2324.73 477.453 2306.13 481.5C2292.35 484.498 2289.75 485.164 2278.96 486.32M2394.17 463.39C2394.17 463.39 2393.79 467.947 2394.17 470.827C2394.84 475.935 2396.74 478.46 2398.85 483.16C2402.63 491.58 2407.17 495.622 2409.39 504.58C2411.29 512.238 2413.11 516.637 2410.76 523.774C2410.24 525.347 2409.29 527.106 2408.3 528.682C2406.38 531.769 2402.95 533.478 2399.32 533.714L2385.45 534.619C2385.45 534.619 2384.59 529.318 2382.26 527.177C2378.42 523.633 2372.27 523.774 2368.87 527.177C2363.51 532.538 2360.98 536.749 2359.51 544.188C2359.07 546.405 2358.75 548.808 2358.62 551.23M2394.17 463.39C2394.17 463.39 2386.89 464.023 2382.26 464.725C2372.19 466.256 2368 467.328 2358.1 469.745C2350.02 471.717 2345.55 473.679 2337.43 475.933C2326.91 478.855 2321.04 480.709 2310.3 482.713C2298.65 484.888 2278.96 486.32 2278.96 486.32M2384.04 559.285C2384.04 559.285 2374.94 572.041 2367.7 570.236C2360.06 568.333 2358.17 559.665 2358.62 551.23M2384.04 559.285L2400.76 559.285M2384.04 559.285L2358.62 551.23M2400.76 559.285V559.285C2403.48 562.562 2404.76 566.818 2404.01 571.006C2403.57 573.485 2402.99 576.228 2402.33 578.408C2398.98 589.381 2387.79 603.94 2387.79 603.94C2387.79 603.94 2380.03 611.684 2376.74 617.761C2374.63 621.656 2372.74 627.847 2372.09 630.094C2371.95 630.58 2371.48 630.891 2370.98 630.817C2366.66 630.171 2347.09 627.209 2334.48 624.595C2319.93 621.58 2306.31 615.995 2292.46 614.669M2400.76 559.285L2378.97 551.23L2373.23 550.217L2358.62 551.23M2223.08 615.895C2243.4 613.975 2254.6 614.252 2276.27 614.355M2223.08 615.895C2223.08 615.895 2224.57 619.998 2223.08 621.715C2222.43 622.471 2220.92 623.084 2220.92 623.084M2223.08 615.895C2214.8 616.677 2207.88 617.445 2201.52 618.334M1995.47 614.359C1995.47 614.359 2027.57 610.71 2047.14 615.635C2056.49 617.987 2061.61 620.001 2070.32 624.14C2083.4 630.358 2100.21 644.015 2104.69 647.746C2105.38 648.316 2106.35 648.367 2107.09 647.88C2109.94 646.03 2116.96 641.527 2121.35 639.238C2122.69 638.543 2123.98 637.91 2125.24 637.329C2128.98 635.601 2132.43 634.335 2135.82 633.294M1995.47 614.359L1994.37 616.114L1988.37 616.114M1995.47 614.359L1996.13 607.787M2156.91 478.433C2174.07 481.867 2184.05 481.781 2201.52 482.713C2201.52 482.713 2229.93 484.06 2248.05 482.713C2265.99 481.379 2293.63 475.933 2293.63 475.933C2295.57 475.499 2297.34 475.095 2299.02 474.708M2156.91 478.433C2156.91 478.433 2164.49 481.267 2169.47 482.713C2184.51 487.086 2193.55 487.19 2209.15 488.489C2234.17 490.572 2248.51 489.375 2273.49 486.882C2275.54 486.677 2277.34 486.493 2278.96 486.32M2156.91 478.433L2158 468.995M2156.91 478.433C2155.63 478.177 2154.42 477.949 2153.28 477.736M2121.1 465.559C2121.1 465.559 2129.01 470.354 2135.38 472.987C2142.19 475.799 2146.83 476.536 2153.28 477.736M2121.1 465.559L2110.38 457.124C2109.61 456.524 2108.53 456.553 2107.81 457.196C2104.78 459.868 2096.89 466.765 2091.12 471.152C2076.78 482.05 2068.26 487.882 2051.9 495.409C2035.2 503.092 2007.01 509.585 2007.01 509.585L1993.62 513.158L1909.87 513.158M2121.1 465.559L2110.21 476.853C2110.21 476.853 2095.39 490.279 2084.39 496.619C2069.86 504.993 2060.51 508.104 2044.05 511.342C2034.27 513.267 2016.56 513.465 2005.21 513.362M2121.1 465.559L2110.69 468.844C2110.37 468.943 2110.09 469.115 2109.86 469.349C2107.58 471.655 2094.56 484.634 2084.39 491.156C2076.69 496.096 2071.99 498.321 2063.55 501.867C2046.78 508.919 2018.35 513.158 2018.35 513.158M1905.84 513.158L1909.87 513.158M1905.84 513.158L1828.5 513.158M1905.84 513.158L1901.32 592.845M870.787 509.132L870.787 505.601M870.787 509.132L898.347 509.132M870.787 509.132L876.108 584.74M870.787 505.601L978.234 506.495M870.787 505.601L870.787 495.701C870.787 494.044 869.444 492.701 867.787 492.701L793.68 492.701C792.58 492.701 791.486 492.915 790.519 493.439C789.816 493.82 789.012 494.309 788.458 494.811V494.811C786.278 496.781 785.999 500.02 786.271 502.945L794.008 586.152M1076.26 507.311L1136.72 509.448M1076.26 507.311C1076.26 507.311 1050.83 505.366 1043.99 498.512C1035.35 489.851 1022.99 488.341 1022.99 488.341C1022.99 488.341 1005.26 477.179 996.529 467.273C982.154 450.973 979.316 437.248 979.352 416.207C979.392 393.375 986.646 380.103 999.779 361.427C1006.91 351.284 1021.44 335.603 1021.44 335.603M1076.26 507.311L1002.99 506.701M1136.72 509.448L1142.87 509.471M1136.72 509.448L1111.87 509.351M1822.97 619.208L1899.91 617.724M1822.97 619.208L1828.5 513.158M1822.97 619.208L1817.88 619.208M1988.37 616.114L1903.91 617.651M1988.37 616.114L1993.2 559.264M2158 468.995L2153.28 468.995M2158 468.995C2158 468.995 2167.3 469.247 2166.87 465.559C2166.62 463.432 2164.87 461.165 2164.87 461.165M2153.28 468.995L2153.28 477.736M2153.28 468.995L2146.33 468.995C2146.33 468.995 2143.85 467.261 2143.53 465.559C2143.03 462.805 2148.2 460.114 2148.2 460.114M2148.2 460.114L2162.2 460.114L2164.87 461.165M2148.2 460.114L2139.26 453.023C2137.78 451.852 2136.94 450.056 2136.99 448.172L2137.58 424.306C2137.61 423.404 2138.23 422.63 2139.11 422.437C2143.26 421.527 2155.17 419.182 2163.3 420.289C2169.12 421.081 2177.02 424.194 2180.29 425.558C2181.17 425.926 2181.65 426.875 2181.43 427.807L2176.34 450.044C2176.05 451.329 2175.34 452.482 2174.32 453.323L2164.87 461.165M2232.67 482.713L2232.67 470.703M2232.67 470.703L2226.04 470.703M2232.67 470.703L2238.27 470.703C2238.92 470.703 2239.53 470.391 2239.86 469.834C2240.48 468.787 2241.39 466.988 2241.31 465.559C2241.21 463.676 2239.31 461.165 2239.31 461.165M2226.04 470.703L2226.04 482.713M2226.04 470.703L2222.31 470.703C2221.92 470.703 2221.54 470.591 2221.23 470.36C2220.16 469.567 2217.71 467.521 2217.86 465.559C2218.04 463.282 2221.72 461.165 2221.72 461.165M2239.31 461.165L2221.72 461.165M2239.31 461.165L2248.04 453.326C2248.98 452.481 2249.63 451.359 2249.9 450.122L2254.7 427.784C2254.9 426.862 2254.43 425.931 2253.56 425.568C2250.03 424.098 2240.89 420.56 2234.21 420.289C2226.84 419.989 2216.42 423.43 2212.82 424.714C2212.04 424.992 2211.53 425.731 2211.53 426.558L2211.53 450.088C2211.53 451.904 2212.36 453.621 2213.77 454.76L2221.72 461.165M2310.3 471.062C2310.3 471.062 2316.21 470.624 2316.41 467.957C2316.52 466.416 2314.71 464.381 2314.71 464.381M2310.3 471.062L2310.3 471.972M2310.3 471.062L2297.59 471.062M2294.58 464.381C2294.58 464.381 2290.41 465.82 2290.43 467.957C2290.45 469.148 2292.7 470.53 2293.41 470.941C2293.55 471.022 2293.71 471.062 2293.88 471.062L2297.59 471.062M2294.58 464.381L2314.71 464.381M2294.58 464.381L2287.75 455.893C2286.93 454.868 2286.46 453.6 2286.43 452.285L2285.86 429.65C2285.84 428.718 2286.46 427.896 2287.37 427.687C2291.69 426.691 2304.08 424.108 2312.32 425.186C2318.72 426.024 2326.57 429.233 2329.83 430.66C2330.73 431.051 2331.18 432.038 2330.91 432.977L2324.44 456.13C2324.05 457.507 2323.19 458.702 2322 459.498L2314.71 464.381M2310.3 471.972C2306.54 472.931 2303.08 473.772 2299.02 474.708M2297.59 471.062L2299.02 474.708M2292.46 614.669C2290.52 614.484 2288.58 614.382 2286.63 614.382C2282.91 614.382 2279.47 614.37 2276.27 614.355M2292.46 614.669L2299.98 622.875C2300.99 623.982 2301.55 625.428 2301.55 626.928L2301.55 650.356C2301.55 651.239 2300.98 652.014 2300.12 652.239C2296.04 653.322 2284.08 656.104 2276.27 653.949C2270.07 652.241 2262.52 646.335 2259.92 644.196C2259.34 643.722 2259.1 642.961 2259.28 642.236L2263.68 624.122C2264.05 622.58 2265.02 621.25 2266.37 620.421L2276.27 614.355M2201.52 618.334C2187.63 620.279 2176.44 622.803 2159.63 627.33C2155.24 628.513 2151.34 629.403 2147.68 630.249M2201.52 618.334L2203.71 621.394M2220.92 623.084L2218.75 624.454C2218.75 624.454 2209.56 627.882 2205.89 624.454C2204.81 623.453 2203.71 621.394 2203.71 621.394M2220.92 623.084L2227.93 630.583C2229.06 631.786 2229.64 633.4 2229.54 635.045L2228.11 658.658C2228.06 659.499 2227.48 660.215 2226.67 660.421C2222.87 661.379 2211.86 663.76 2203.71 661.537C2198.1 660.01 2189.68 655.491 2186.41 653.67C2185.6 653.219 2185.23 652.271 2185.5 651.384L2190.66 634.112C2190.98 633.038 2191.6 632.075 2192.44 631.332L2203.71 621.394M2147.68 630.249L2147.68 632.468M2147.68 630.249C2143.55 631.203 2139.72 632.1 2135.82 633.294M2147.68 632.468L2135.82 633.294M2147.68 632.468L2146.3 633.821C2146.3 633.821 2142.97 638.262 2140.85 642.339M2135.82 633.294C2135.82 633.294 2129.78 638.19 2125.24 641.327M2148.03 632.468V632.468C2149.47 633.294 2150.29 634.875 2150.16 636.525L2148.07 661.515C2148.04 661.805 2147.96 662.087 2147.81 662.339L2144.03 668.972C2143.67 669.595 2143.01 669.98 2142.29 669.98L2138.56 669.98M2138.56 669.98L2125.19 669.98C2124.02 669.98 2123.1 668.989 2123.19 667.828L2124.21 654.51C2124.21 654.51 2125.24 646.475 2125.24 641.327M2138.56 669.98C2138.56 669.98 2139.95 652.383 2140.85 642.339M2140.85 642.339C2134.58 642.339 2131.46 642.087 2125.24 641.327M2005.21 513.362L2005.21 517.441M2005.21 513.362C2001 513.324 1996.37 513.205 1994.64 513.158L1996.75 517.441M2005.21 517.441L1996.75 517.441M2005.21 517.441L2004.49 524.601M1996.75 517.441L1993.2 559.264M2003.15 537.927C2003.15 537.927 2044.87 535.932 2067.42 547.151C2071.21 549.035 2075.08 550.111 2078.5 551.295M2003.15 537.927L2002.7 542.472M2003.15 537.927L2004.49 524.601M1997.75 591.742C1997.75 591.742 2015.22 590.293 2025.2 588.808C2039.04 586.747 2058.29 581.104 2058.29 581.104C2058.29 581.104 2090.36 575.72 2089.39 562.844C2088.85 555.65 2084.33 553.316 2078.5 551.295M1997.75 591.742L1999.29 576.362M1997.75 591.742L1996.13 607.787M1909.87 513.158L1903.91 617.651M1903.91 617.651L1899.91 617.724M1899.91 617.724L1901.32 592.845M1828.5 513.158L1822.97 513.158M1822.97 513.158L1750.89 513.158M1822.97 513.158L1819.83 578.538M1817.88 619.208L1747.35 620.328M1817.88 619.208L1819.83 578.538M1750.89 513.158L1747.35 620.328M1750.89 513.158L1745.58 513.158M1747.35 620.328L1741.61 620.419M1745.58 513.158L1711.56 513.158L1678.14 512.883M1745.58 513.158L1741.61 620.419M1741.61 620.419L1674.39 621.486M1678.14 512.883L1672.39 512.835M1678.14 512.883L1676.54 559.263M1674.39 621.486L1669.74 621.56M1674.39 621.486L1676.54 559.263M1672.39 512.835L1609.38 512.317M1672.39 512.835L1670.79 578.538M1669.74 621.56L1607.6 622.546M1669.74 621.56L1670.79 578.538M1609.38 512.317L1607.6 622.546M1609.38 512.317L1603.85 512.272M1607.6 622.546L1603.85 622.605M1603.85 512.272L1603.85 622.605M1603.85 512.272L1544.37 511.782M1603.85 622.605L1580.52 622.976L1543.28 623.751M1544.37 511.782L1539.28 511.741M1544.37 511.782L1543.36 615.544M1543.28 623.751L1539.28 623.834M1543.28 623.751L1543.36 615.544M1539.28 511.741L1539.28 623.834M1539.28 511.741L1483.79 511.284M1539.28 623.834L1483.79 624.99M1483.79 511.284L1483.79 624.99M1483.79 511.284L1478.91 511.244M1483.79 624.99L1478.91 625.091M1478.91 511.244L1478.91 625.091M1478.91 511.244L1428.28 510.828M1478.91 625.091L1428.28 626.145M1428.28 510.828L1428.28 626.145M1428.28 510.828L1421.65 510.773M1428.28 626.145L1422.78 626.26M1421.65 510.773L1374.11 510.382M1421.65 510.773L1422.78 580.875M1422.78 626.26L1374.11 627.273M1422.78 626.26L1422.78 580.875M1374.11 510.382L1371.23 510.358L1369.25 510.351M1374.11 510.382L1374.11 617.344M1374.11 627.273L1369.25 627.374M1374.11 627.273L1374.11 617.344M1369.25 510.351L1369.25 627.374M1369.25 510.351L1323.7 510.174M1369.25 627.374L1325.25 628.29M1323.7 510.174L1318.61 510.154M1323.7 510.174L1324.37 561.696M1325.25 628.29L1320.6 628.387M1325.25 628.29L1324.37 561.696M1318.61 510.154L1320.6 628.387M1318.61 510.154L1275.05 509.985M1320.6 628.387L1294.75 628.925L1277.93 629.228M1275.05 509.985L1277.93 629.228M1275.05 509.985L1269.97 509.965M1277.93 629.228L1273.28 629.312M1269.97 509.965L1230.83 509.813M1269.97 509.965L1270.33 523.111M1273.28 629.312L1233.48 630.029M1273.28 629.312L1270.33 523.111M1230.83 509.813L1233.48 630.029M1230.83 509.813L1224.64 509.789M1233.48 630.029L1229.29 630.105M1224.64 509.789L1189.04 509.651M1224.64 509.789L1225.9 542.472M1229.29 630.105L1191.7 630.783M1229.29 630.105L1225.9 542.472M1189.04 509.651L1191.7 630.783M1189.04 509.651L1183.73 509.63M1191.7 630.783L1187.29 630.862M1183.73 509.63L1187.29 630.862M1183.73 509.63L1149.02 509.495M1187.29 630.862L1153.45 631.472M1149.02 509.495L1153.45 631.472M1149.02 509.495L1142.87 509.471M1153.45 631.472L1149.02 631.552M1142.87 509.471L1146.56 582.697M1149.02 631.552L1115.84 632.15M1149.02 631.552L1146.56 582.697M1111.87 509.351L1115.84 632.15M1111.87 509.351L1106.79 509.331M1115.84 632.15L1111.87 632.221M1106.79 509.331L1108.78 573.248L1111.87 632.221M1106.79 509.331L1076.26 509.213M1111.87 632.221L1081.52 632.769M1076.26 509.213L1078.7 576.59L1081.08 624.103M1076.26 509.213L1070.49 509.19M1081.52 632.769L1076.26 632.863M1081.52 632.769L1081.08 624.103M1070.49 509.19L1055.38 509.132L1042.46 509.132M1070.49 509.19L1076.26 632.863M1076.26 632.863L1048.41 633.365M1042.46 509.132L1048.41 633.365M1042.46 509.132L1037.36 509.132M1048.41 633.365L1043.89 633.447M1037.36 509.132L1043.89 633.447M1037.36 509.132L1012.17 509.132M1043.89 633.447L1018.1 633.912M1012.17 509.132L1018.1 633.912M1012.17 509.132L1006.22 509.132M1018.1 633.912L1013.86 633.988M1006.22 509.132L982.154 509.132M1006.22 509.132L1010.85 584.74M1013.86 633.988L1004.61 634.155M1013.86 633.988L1010.85 584.74M982.154 509.132L989.229 634.432M982.154 509.132L976.775 509.132M989.229 634.432L986.809 634.476L985.261 634.506M989.229 634.432L996.918 634.294M976.775 509.132L985.261 634.506M976.775 509.132L954.124 509.132M985.261 634.506L962.347 634.95M985.261 634.506C985.261 634.506 979.157 640.037 976.189 644.145C966.798 657.14 963.344 665.963 961.061 682.318C958.761 698.799 960.583 710.765 965.593 726.633C969.407 738.716 973.443 744.938 980.572 755.412C989.062 767.887 1005.74 782.781 1011.02 787.366C1012.12 788.319 1013.16 789.313 1014.15 790.381V790.381C1017.7 794.228 1020.8 799.244 1019.12 804.209C1018.74 805.336 1018.17 806.412 1017.33 807.299C1013.31 811.564 1009.24 815.13 1003.41 815.793C990.831 817.224 986.388 815.682 971.14 812.663C943.291 807.149 923.956 792.771 897.057 783.695C870.115 774.605 854.759 767.501 826.35 766.328C802.816 765.357 789.131 767.253 766.497 773.771C744.169 780.201 719.333 798.057 702.632 811.705C689.577 822.373 674.183 830.391 657.327 830.737C639.672 831.099 616.761 829.579 601.291 821.156C579.746 809.424 564.102 775.689 564.102 775.689C564.102 775.689 584.909 757.747 594.381 744.62C605.613 729.054 610.379 718.458 614.229 699.653C616.567 688.233 616.4 669.882 616.4 669.882M954.124 509.132L962.347 634.95M954.124 509.132L949.311 509.132M962.347 634.95L957.535 635.043M949.311 509.132L927.793 509.132M949.311 509.132L951.488 542.472M957.535 635.043L936.287 635.57M957.535 635.043L951.488 542.472M927.793 509.132L936.287 635.57M927.793 509.132L922.413 509.132M936.287 635.57L930.332 635.57M922.413 509.132L930.332 635.57M922.413 509.132L902.877 509.132M930.332 635.57L910.239 636.387M2325.66 513.945C2329.7 513.637 2332.95 517.147 2333.09 521.198C2333.23 525.393 2329.85 529.286 2325.66 528.968C2324.06 528.847 2322.69 528.185 2321.63 527.177M2325.66 513.945C2325.66 513.945 2323.87 510.13 2321.63 508.424M2325.66 513.945C2325.01 513.995 2324.41 514.13 2323.84 514.339M2325.66 513.945L2335.92 512.983M902.877 509.132L910.239 636.387M902.877 509.132L898.347 509.132M910.239 636.387L907.124 636.387M898.347 509.132L907.124 636.387M907.124 636.387L888.194 636.387L888.194 633.452L882.476 633.452M1021.44 335.603L1021.44 306.727L1021.44 302.068C1021.44 302.068 1024.1 301.463 1026.71 301.647M1021.44 335.603C1021.44 335.603 1029.93 339.227 1030.9 335.571C1031.18 334.517 1031.16 334.661 1030.9 333.602C1030.34 331.354 1026.71 332.24 1026.71 332.24L1026.71 325.783M1026.71 312.556L1026.71 306.727C1026.71 306.727 1028.84 306.933 1029.92 306.727C1031.67 306.392 1031.44 304 1030.9 303.322C1030 302.203 1028.37 301.765 1026.71 301.647M1026.71 312.556L1026.71 324.359L1026.71 325.783M1026.71 312.556L1033.58 313.244M1041.89 312.556C1042.18 310.458 1042.48 308.893 1042.48 308.893C1046.05 311.333 1046.97 310.788 1046.97 315.105C1046.97 317.691 1046.97 320.237 1046.97 323.371C1046.97 327.871 1046.79 328.884 1042.48 330.193C1042.48 330.193 1042.09 327.931 1041.77 325.16M1041.89 312.556C1041.63 314.409 1041.37 316.678 1041.34 318.655C1041.31 320.592 1041.52 323.027 1041.77 325.16M1041.89 312.556L1039.4 312.556M1039.4 312.556L1039.4 304.074C1035.11 304.074 1033.87 308.513 1033.58 313.244M1039.4 312.556L1039.4 325.16M1041.77 325.16L1039.4 325.16M1039.4 325.16L1039.4 332.24C1034.45 332.998 1033.6 328.907 1033.5 324.359M1033.58 313.244C1033.47 314.965 1033.48 316.725 1033.52 318.323C1033.57 320.158 1033.46 322.305 1033.5 324.359M1033.5 324.359L1026.71 325.783M1026.71 301.647C1021.15 296.163 1012.72 289.797 1002.03 286.142C987.206 281.077 979.31 281.282 965.138 282.964C950.966 284.645 927.561 294.716 927.561 294.716M927.561 294.716C927.561 294.716 900.988 307.876 884.179 315.824C876.194 319.6 870.258 322.851 864.211 325.853M927.561 294.716C927.561 294.716 973.347 282.157 994.931 297.233C1004 303.57 1011.33 307.83 1013.86 318.323C1015.22 323.998 1015.38 327.966 1013.86 333.602C1012.41 338.969 1008.13 343.589 1005.13 346.289C1003.15 348.078 1001.06 349.75 999.196 351.659C993.108 357.877 978.849 373.104 973.018 384.979C966.119 399.027 963.165 408.861 962.347 424.49C961.511 440.44 963.056 450.067 969.201 464.809C973.019 473.968 976.06 478.837 982.154 486.669C989.085 495.577 1002.99 506.701 1002.99 506.701M1039.32 803.075C1039.32 803.075 1037.78 806.617 1032.64 812.663C1020.24 827.242 1006.29 831.389 982.99 828.197C973.042 826.834 971.321 825.88 949.431 818.984C939.683 815.914 903.549 799.656 903.549 799.656C903.549 799.656 832.88 771.81 790.784 782.006C761.929 788.995 753.288 800.109 728.345 817.992C699.442 838.715 682.45 851.543 648.894 869.671C605.448 893.142 571.97 907.494 518.357 910.39C496.627 911.564 489.974 911.617 462.521 908.126C435.067 904.635 408.494 896.301 374.795 883.086C339.089 869.083 314.536 852.008 288.965 831.552C273.894 819.496 258.624 805.849 244.781 788.604C200.298 733.184 184.29 702.283 167.008 631.8C151.195 567.312 145.607 534.314 142.992 468.206C141.307 425.601 144.555 404.737 159.538 359.707C170.864 325.666 186.291 297.941 210.517 271.481C221.517 259.468 228.268 253.124 241.046 243.135C259.213 228.932 291.381 213.144 291.381 213.144C291.381 213.144 321.07 202.061 344.085 196.692C370.868 190.444 391.02 185.434 418.519 185.893C422.791 185.965 426.531 186.041 430.032 186.171M1039.32 803.075C1039.32 803.075 1051.35 785.088 1053.24 774.71C1053.83 771.471 1053.69 768.773 1053.49 767.188C1053.37 766.175 1052.88 765.269 1052.17 764.529C1049.48 761.694 1042.23 754.169 1036.9 749.678C1023.94 738.743 1016.33 731.425 1007.8 717.081C1001.91 707.182 999.034 701.255 996.396 690.044C993.08 675.949 992.519 666.8 996.396 652.769C997.925 647.239 1001.53 639.989 1003.41 636.387M1039.32 803.075C1039.32 803.075 1039.51 794.72 1038.01 789.728C1036.14 783.513 1028.99 777.516 1026.33 775.459C1025.68 774.949 1025.01 774.466 1024.35 773.955C1020.6 771.032 1006.97 760.172 999.864 750.928C990.803 739.14 984.502 731.304 980.169 717.081C976.001 703.399 975.266 694.904 976.924 680.698C978.252 669.319 980.397 662.646 986.809 652.769C991.417 645.671 1003.41 636.387 1003.41 636.387M1004.61 634.155L996.918 634.294M1004.61 634.155C1004.61 634.155 1004.14 635.001 1003.41 636.387M1002.99 506.701L993.217 506.62M993.217 506.62C993.217 506.62 979.7 496.619 973.018 488.341C966.353 480.085 963.242 474.714 959.437 464.809C953.742 449.983 953.02 440.333 954.124 424.49C955.237 408.51 958.094 399.365 965.138 384.979C970.815 373.385 982.934 359.683 989.231 352.963C991.849 350.169 994.814 347.738 997.64 345.155C1000.87 342.202 1004.9 337.856 1006.22 333.602C1007.95 328.026 1008.1 324.183 1006.22 318.655C1003.63 311.014 993.217 303.322 993.217 303.322C993.217 303.322 983.264 296.312 972.427 294.716C959.922 292.873 945.069 293.923 932.87 297.233C921.088 300.43 915.676 305.441 904.662 310.707C883.264 320.938 872.397 329.47 849.888 336.946C836.355 341.44 828.521 343.408 814.464 345.802C804.55 347.49 798.931 348.373 788.881 348.754C768.251 349.535 752.802 348.754 734.083 340.493L708.523 325.138C708.523 325.138 675.666 301.611 653.748 287.419C620.631 265.975 602.131 253.097 566.764 235.268C541.178 222.369 525.904 214.463 498.607 205.749C477.563 199.03 466.057 195.49 444.489 192.957C434.396 191.772 418.519 191.317 418.519 191.317C418.519 191.317 398.929 190.386 386.434 191.317C362.631 193.09 349.593 197.553 326.739 204.437C311.765 208.947 303.268 211.439 289.02 217.885C271.187 225.952 261.278 231.252 245.725 243.135C224.477 259.368 212.441 271.58 197.838 293.979C197.838 293.979 186.806 310.044 180.755 320.942C171.56 337.503 167.343 347.396 161.031 365.255C154.684 383.214 151.459 393.573 148.48 412.386C144.662 436.501 145.585 450.572 146.266 474.977C147.144 506.419 150.017 523.946 154.628 555.06C158.751 582.888 161.602 598.473 168.459 625.757C175.039 651.933 178.172 666.988 188.695 691.843C195.371 707.61 199.765 716.225 208.396 731.013C217.79 747.106 223.913 755.662 235.187 770.498C242.428 780.027 246.543 785.357 254.559 794.244C262.273 802.797 266.399 807.526 274.868 815.334C287.049 826.565 294.347 832.417 307.83 842.047C318.86 849.927 325.637 853.851 337.512 860.638C347.47 866.329 353.108 869.464 363.489 874.34C375.293 879.883 382.143 882.529 394.42 886.925C408.115 891.829 415.927 894.296 430.044 897.804C442.411 900.878 449.436 902.332 462.041 904.204C474.873 906.109 482.134 907.207 495.105 907.404C510.482 907.636 519.106 906.196 534.355 904.204C554.816 901.531 566.647 900.583 586.191 893.965C598.489 889.8 604.944 886.263 616.695 880.739C634.772 872.242 644.68 866.936 661.918 856.848C681.501 845.387 691.789 837.819 710.554 825.064C725.053 815.209 744.761 801.053 755.74 793.111C761.225 789.143 767.201 785.904 773.59 783.662C780.403 781.27 789.178 778.332 794.075 777.253C809.883 773.767 828.374 776.696 828.374 776.696C846.241 778.344 855.633 780.831 873.382 785.928C895.14 792.176 907.362 799.172 928.296 807.785C940.266 812.709 945.096 815.01 959.005 820.249C972.522 825.34 985.512 827.935 999.864 826.309C1010.56 825.097 1018.15 823.804 1025.34 815.793C1029.46 811.195 1032.37 807.935 1032.64 801.765C1032.84 796.847 1031.09 794.13 1028.89 789.728C1024.08 780.128 1016.33 778.626 1008.7 771.069C997.903 760.368 990.947 754.031 982.99 741.076C976.556 730.6 971.14 712.157 971.14 712.157C971.14 712.157 967.02 688.125 971.947 672.093C974.514 663.736 976.57 658.843 981.721 651.778C987.064 644.449 996.918 634.294 996.918 634.294M993.217 506.62L978.234 506.495M978.234 506.495C978.234 506.495 967.607 496.157 962.347 488.341C955.484 478.145 952.733 471.502 949.311 459.698C945.953 448.117 945.073 441.181 945.002 429.123C944.907 412.897 946.349 403.327 952.239 388.208C958.298 372.658 964.619 365.028 975.43 352.315C980.343 346.538 987.366 339.394 991.655 335.125C994.155 332.637 996.595 329.862 997.27 326.4C997.338 326.049 997.385 325.706 997.404 325.382C997.674 320.606 995.147 317.98 991.968 314.406C989.736 311.896 984.175 309.66 979.554 308.139C974.869 306.597 969.938 306.048 965.007 306.118C960.108 306.188 953.784 306.373 949.275 306.841C930.718 308.771 906.733 321.752 901.149 324.895C900.344 325.349 899.56 325.797 898.749 326.241C893.967 328.858 875.929 338.612 863.172 343.895C850.262 349.242 842.851 351.974 829.347 355.564C817.692 358.663 811.053 360.296 799.067 361.62C787.31 362.919 768.787 362.359 768.787 362.359C768.787 362.359 756.897 360.648 749.437 358.814C736.645 355.669 729.684 352.865 717.68 347.44C706.294 342.295 691.02 334.213 691.02 334.213C691.02 334.213 691.02 350.78 691.02 361.2C691.02 375.682 689.916 379.43 686.923 390.649C683.559 403.256 681.617 411.328 675.047 422.601C668.441 433.935 664.251 440.37 654.405 449.039C646.214 456.252 631.643 463.036 631.643 463.036L636.515 509.899M616.4 669.882L649.819 669.882C651.599 669.882 652.987 668.342 652.803 666.572L649.108 631.028M616.4 669.882L554.908 670.62C552.956 670.644 550.917 670.528 549.254 669.506V669.506V669.506C547.914 668.683 547.246 667.136 547.045 665.575L523.16 479.947C522.759 476.825 522.527 473.237 524.752 471.011V471.011C526.739 469.024 531.59 468.771 531.59 468.771L625.041 467.856C626.148 467.845 627.228 468.193 628.121 468.847V468.847C629.198 469.636 629.925 470.814 630.147 472.131L636.515 509.899M896.772 389.056L895.346 385.313M896.772 389.056C896.772 389.056 895.56 394.534 891.957 396.782M896.772 389.056L899.308 389.056C899.949 389.056 900.425 388.461 900.283 387.835L899.487 384.316C899.335 383.647 898.571 383.326 897.987 383.686L895.346 385.313M895.346 385.313C895.346 385.313 891.074 381.959 887.397 382.553M877.526 386.535C876.566 374.81 884.273 366.515 896.201 367.068C907.399 367.587 915.935 377.003 915.618 388.208C915.293 399.723 905.41 408.959 893.917 408.187C893.917 408.187 887.816 408.217 885.144 405.893C883.326 404.311 881.93 400.625 881.93 400.625M877.526 386.535C877.526 386.535 874.549 390.414 876.212 394.504C877.527 397.74 879.716 400.212 881.93 400.625M877.526 386.535C878.471 385.485 881.485 384.253 883.119 383.621M887.397 382.553C885.274 382.897 884.868 382.946 883.119 383.621M887.397 382.553C887.397 382.553 889.151 380.563 891.247 379.888V379.888C896.361 378.24 902.3 379.575 903.969 384.682C904.392 385.975 904.669 387.208 904.662 388.208C904.631 392.912 900.904 396.688 896.201 396.782L891.957 396.782M891.957 396.782C889.071 398.582 886.192 399.764 883.498 400.553C882.982 400.704 882.455 400.722 881.93 400.625M883.119 383.621C883.119 383.621 883.493 379.099 886.028 377.057C889.242 374.469 892.809 373.746 896.201 374.207C903.481 375.195 908.845 380.862 908.765 388.208C908.686 395.466 904.509 401.035 897.286 401.752C890.063 402.469 890.127 398.137 889.842 397.841M882.476 633.452L879.536 633.452L876.108 584.74M882.476 633.452L882.903 643.493C883.02 646.227 880.835 648.507 878.099 648.507V648.507L809.058 648.507C806.282 648.507 803.265 648.145 801.381 646.106V646.106C800.803 645.479 800.256 644.527 799.86 643.745C799.416 642.869 799.192 641.904 799.101 640.926L795.985 607.412M864.211 325.853C858.224 328.824 852.128 331.549 843.827 334.296C829.678 338.977 806.533 342.388 806.533 342.388C806.533 342.388 777.392 346.241 759.389 342.388C743.907 339.074 734.928 335.931 721.919 326.908C713.116 320.801 702.805 313.121 694.577 306.873C684.606 299.303 674.594 291.801 664.268 284.722C652.845 276.89 637.212 266.359 624.992 258.829C602.755 245.129 590.216 237.426 566.764 225.928C544.985 215.25 529.163 209.619 506.178 201.87C487.371 195.531 476.81 192.472 458.503 189.26C447.003 187.242 439.368 186.517 430.032 186.171M864.211 325.853C864.211 325.853 837.408 333.287 819.774 334.213C805.355 334.97 796.841 335.733 782.861 332.124C754.786 324.875 717.329 297.459 702.015 285.588C697.321 281.949 692.599 278.402 687.617 275.167C670.204 263.86 625.526 235.675 589.748 220.219C548.28 202.305 522.166 187.034 477.066 184.47C457.953 183.384 430.032 186.171 430.032 186.171M503.86 841.044C502.713 841.424 501.473 841.689 500.147 841.829C491.207 842.776 483.619 836.139 481.993 827.469C481.383 824.217 482.144 820.955 483.804 818.159M503.86 841.044C509.672 839.117 513.108 834.221 513.424 827.469C513.881 817.701 504.777 808.961 495.105 810.398C493.062 810.702 491.106 811.453 489.353 812.535M503.86 841.044C503.86 841.044 505.899 840.787 508.264 839.889M513.097 836.952C517.55 832.521 517.785 827.216 516.133 821.156C514.402 814.805 510.935 810.876 504.697 808.773C498.049 806.531 489.353 812.535 489.353 812.535M513.097 836.952C513.097 836.952 521.459 832.549 523.72 827.469C527.141 819.783 524.511 812.341 518.357 806.605C513.396 801.982 508.425 800.143 501.773 801.457C494.798 802.834 488.054 813.424 488.054 813.424M513.097 836.952C511.714 838.328 509.91 839.264 508.264 839.889M489.353 812.535C488.906 812.81 488.473 813.107 488.054 813.424M488.054 813.424C486.344 814.719 484.884 816.34 483.804 818.159M508.264 839.889C508.264 839.889 518.073 841.186 523.72 839.053C526.382 838.047 528.795 835.598 530.813 832.825C535.856 825.893 535.494 816.648 532.718 808.538V808.538C530.849 803.081 526.748 798.615 521.454 796.327L518.447 795.028C512.859 792.612 506.611 792.185 500.746 793.817L499.01 794.3C493.753 795.763 489.283 799.235 486.565 803.967V803.967C484.756 807.116 483.804 810.683 483.804 814.315L483.804 818.159M454.324 750.634C453.177 751.015 451.937 751.279 450.611 751.419C441.671 752.366 433.245 745.729 431.619 737.059C431.009 733.807 431.77 730.546 433.431 727.749M454.324 750.634C460.136 748.708 463.146 745.075 463.462 738.323C463.919 728.555 454.404 718.456 444.731 719.893C442.688 720.197 440.732 720.947 438.979 722.029M454.324 750.634C454.324 750.634 456.363 750.377 458.728 749.479M462.723 746.447C467.176 742.016 467.729 737.64 466.077 731.579C464.346 725.228 459.516 721.997 453.278 719.893C446.63 717.651 438.979 722.029 438.979 722.029M462.723 746.447C462.723 746.447 470.696 744.091 472.958 739.011C476.379 731.325 473.057 722.865 466.903 717.129C461.942 712.506 456.491 710.723 449.838 712.037C442.863 713.415 437.68 722.919 437.68 722.919M462.723 746.447C461.341 747.823 460.374 748.854 458.728 749.479M438.979 722.029C438.532 722.305 438.099 722.602 437.68 722.919M437.68 722.919C435.97 724.213 434.51 725.931 433.431 727.749M458.728 749.479C458.728 749.479 466.348 752.768 471.995 750.634C475.818 749.19 481.441 746.219 483.804 742.134C486.662 737.193 485.653 727.794 483.804 722.394L482.457 718.46C480.506 712.76 476.24 708.147 470.709 705.757L469.893 705.404C463.127 702.48 455.563 701.963 448.462 703.939L448.119 704.034C443.194 705.405 439.005 708.658 436.458 713.092C434.475 716.545 433.431 720.459 433.431 724.442L433.431 727.749M329.281 749.479C319.531 750.822 310.528 744.197 310.017 734.369C309.644 727.222 313.043 721.307 319.298 718.589M329.281 749.479C329.729 749.417 330.172 749.343 330.608 749.256M329.281 749.479L330.608 749.256M330.608 749.256C338.261 747.723 343.96 742.286 344.561 734.369C345.338 724.127 334.894 715.89 324.697 717.129C322.792 717.361 320.975 717.86 319.298 718.589M330.608 749.256C330.608 749.256 331.854 749.546 333.563 749.736M319.298 718.589C319.298 718.589 323.255 713.581 326.837 712.037C333.289 709.257 338.753 711.163 344.561 715.116C350.693 719.29 353.534 725.181 353.443 732.598C353.336 741.27 348.187 747.132 339.837 749.479C337.874 750.031 335.439 749.944 333.563 749.736M319.298 718.589C321.139 711.8 321.2 707.064 326.837 703.896C333.662 700.059 344.714 701.808 351.579 705.573C360.27 710.34 364.265 718.13 366.117 727.752C368.025 737.67 365.316 742.74 358.289 748.067C354.503 750.938 351.955 750.997 347.665 751.795C341.804 752.885 333.563 749.736 333.563 749.736M381.997 841.409C372.247 842.752 363.244 836.127 362.733 826.299C362.361 819.152 365.759 813.237 372.014 810.519M381.997 841.409C382.445 841.348 382.888 841.273 383.324 841.186M381.997 841.409L383.324 841.186M383.324 841.186C384.918 840.866 386.428 840.377 387.825 839.732M390.316 839.732C398.665 837.384 403.815 831.523 403.921 822.85C404.012 815.433 401.171 809.543 395.039 805.369C389.231 801.416 383.767 799.51 377.315 802.29C373.733 803.833 372.014 810.519 372.014 810.519M390.316 839.732C390.316 839.732 396.84 839.732 403.099 839.732C409.358 839.732 419.417 829.313 417.508 819.395C415.657 809.772 412.986 802.27 404.295 797.503C397.43 793.738 386.378 791.989 379.552 795.826C373.915 798.994 373.855 803.73 372.014 810.519M390.316 839.732L387.825 839.732M372.014 810.519C373.691 809.79 375.508 809.291 377.413 809.059C387.61 807.82 398.054 816.057 397.277 826.299C396.801 832.566 393.13 837.279 387.825 839.732M636.515 509.899L637.592 520.257M463.182 482.898C463.182 482.898 463.511 480.305 464.785 478.33C467.358 474.342 471.663 472.564 476.251 472.465M463.182 482.898C463.182 482.898 465.712 482.368 468.935 481.692M463.182 482.898V482.898C457.778 486.018 454.944 492.218 456.121 498.346L458.823 512.418L483.741 645.028C484.422 648.651 485.466 652.197 486.856 655.612L490.207 663.842M476.251 472.465C481.702 472.347 487.552 474.599 491.374 478.33C496.969 483.794 494.34 497.923 494.34 497.923L500.805 492.614C501.183 492.304 501.433 491.871 501.492 491.386C501.77 489.115 502.381 482.209 500.146 478.33C497.919 474.464 495.621 472.377 491.374 471.011C487.905 469.896 485.647 470.467 482.044 471.011C479.738 471.36 476.251 472.465 476.251 472.465ZM518.915 632.018C518.915 632.018 529.362 639.473 529.81 645.992C530.374 654.197 527.887 660.095 520.565 663.842C514.056 667.173 506.012 668.15 498.901 666.445C496.065 665.765 490.207 663.842 490.207 663.842M518.915 632.018C518.915 632.018 510.788 586.215 502.774 542.472M518.915 632.018L649.108 631.028M518.915 632.018L437.68 631.062M468.935 481.692C471.258 481.205 473.959 480.445 476.251 480.678C481.693 481.232 484.551 481.547 488.966 486.554C494.652 493.003 495.114 501.198 496.763 509.994C498.666 520.144 500.717 531.24 502.774 542.472M468.935 481.692C472.469 482.52 474.48 482.972 477.492 484.998V484.998C483.916 489.319 486.194 497.493 487.601 505.106L490.402 520.257M490.207 663.842C490.207 663.842 502.127 666.296 507.85 663.842C508.981 663.357 510.212 662.562 511.334 661.733C513.857 659.869 514.914 656.696 514.529 653.584L513.469 645.009L490.402 520.257M474.924 511.482L482.792 511.482C483.307 511.482 483.738 511.873 483.787 512.387L484.661 521.535C484.717 522.123 484.255 522.631 483.665 522.631L476.301 522.631M474.924 511.482L476.301 522.631M474.924 511.482L474.346 508.336C474.249 507.804 473.745 507.446 473.21 507.528L471.115 507.852M476.301 522.631L477.257 527.481C477.379 528.099 476.906 528.675 476.276 528.675L474.598 528.675M468.792 512.418L468.24 509.332C468.141 508.779 468.516 508.253 469.071 508.167L471.115 507.852M468.792 512.418L461.877 512.418C461.285 512.418 460.822 512.931 460.883 513.521L461.944 523.804C461.997 524.313 462.427 524.701 462.939 524.701L470.993 524.701M468.792 512.418L470.993 524.701M470.993 524.701L471.557 527.851C471.642 528.328 472.057 528.675 472.541 528.675L474.598 528.675M478.709 535.357L486.6 535.357C487.084 535.357 487.499 535.704 487.584 536.181L489.191 545.19C489.3 545.803 488.829 546.365 488.207 546.365L480.753 546.365M478.709 535.357L480.753 546.365M478.709 535.357L478.329 532.804C478.256 532.314 477.836 531.951 477.34 531.951L474.953 531.951M480.753 546.365L481.215 550.823C481.276 551.413 480.813 551.926 480.22 551.926L478.127 551.926M471.115 507.852L474.598 528.675M474.953 531.951L472.878 531.951C472.262 531.951 471.793 532.502 471.891 533.11L472.253 535.357M474.953 531.951L478.127 551.926M478.127 551.926L475.776 551.926C475.285 551.926 474.867 551.57 474.789 551.085L474.171 547.253M472.253 535.357L466.555 535.357C465.936 535.357 465.466 535.914 465.569 536.524L467.265 546.543C467.348 547.032 467.776 547.387 468.272 547.376L474.171 547.253M472.253 535.357L474.171 547.253M482.044 557.953L492.422 557.953C492.943 557.953 493.377 558.354 493.419 558.873L494.184 568.359C494.231 568.941 493.771 569.439 493.187 569.439L483.711 569.439M482.044 557.953L483.711 569.439M482.044 557.953L481.564 556.085C481.432 555.572 480.923 555.251 480.403 555.353L478.491 555.729M483.711 569.439L484.127 572.488C484.204 573.049 483.799 573.561 483.236 573.618L481.488 573.792M478.491 555.729L476.611 556.098C476.078 556.203 475.726 556.713 475.818 557.249L476.138 559.107M478.491 555.729L481.488 573.792M481.488 573.792L479.636 573.978C479.113 574.03 478.64 573.669 478.551 573.152L477.984 569.855M476.138 559.107L472.63 559.541C472.108 559.606 471.726 560.063 471.754 560.587L472.202 568.909C472.231 569.44 472.669 569.855 473.201 569.855L477.984 569.855M476.138 559.107L477.984 569.855M486.16 580.835L496.342 580.835C496.874 580.835 497.312 581.251 497.341 581.781L497.855 591.296C497.886 591.869 497.43 592.35 496.857 592.35L488.27 592.35M486.16 580.835L488.27 592.35M486.16 580.835L485.635 578.89C485.508 578.422 485.063 578.111 484.58 578.155L482.408 578.35M488.27 592.35L488.84 596.725C488.91 597.255 488.549 597.746 488.022 597.839L486.338 598.136M482.408 578.35L480.526 578.519C479.927 578.572 479.511 579.138 479.638 579.726L479.878 580.835M482.408 578.35L486.338 598.136M486.338 598.136L484.659 598.431C484.13 598.525 483.622 598.183 483.508 597.657L482.746 594.124M479.878 580.835L475.33 580.835C474.719 580.835 474.251 581.378 474.341 581.982L476.011 593.271C476.084 593.761 476.505 594.124 477.001 594.124L482.746 594.124M479.878 580.835L482.746 594.124M490.966 602.969L500.141 602.969C500.616 602.969 501.026 603.303 501.121 603.769L503.116 613.531C503.242 614.151 502.769 614.732 502.136 614.732L492.61 614.732M490.966 602.969L492.61 614.732M490.966 602.969L490.49 601.54C490.329 601.058 489.831 600.773 489.333 600.879L487.237 601.325M492.61 614.732L493.954 619.643C494.119 620.246 493.696 620.851 493.073 620.903L491.27 621.055M487.237 601.325L485.24 601.75C484.702 601.865 484.357 602.392 484.469 602.931L484.477 602.969M487.237 601.325L491.27 621.055M491.27 621.055L489.153 621.234C488.649 621.276 488.193 620.935 488.09 620.44L484.477 602.969M484.477 602.969L480.712 603.901C480.232 604.02 479.911 604.471 479.956 604.963L480.421 610.029M487.237 615.996L482.325 615.996C481.841 615.996 481.426 615.649 481.341 615.172L480.421 610.029M495.648 625.76L505.986 625.76C506.507 625.76 506.941 626.161 506.982 626.68L507.763 636.435C507.81 637.016 507.35 637.514 506.767 637.514L497.29 637.514M495.648 625.76L497.29 637.514M495.648 625.76L495.065 623.72C494.943 623.291 494.55 622.995 494.104 622.995L490.686 622.995C490.075 622.995 489.606 623.539 489.697 624.143L489.94 625.76M497.29 637.514L497.798 641.868C497.861 642.412 497.476 642.905 496.934 642.976L493.583 643.413C493.043 643.483 492.545 643.108 492.465 642.57L491.883 638.7M489.94 625.76L483.897 626.175C483.29 626.217 482.86 626.787 482.988 627.383L485.246 637.909C485.345 638.37 485.753 638.7 486.224 638.7L491.883 638.7M489.94 625.76L491.883 638.7M394.893 498.3C387.298 498.651 381.318 492.574 380.675 484.998C380.19 479.285 383.216 473.754 387.867 471.011M394.893 498.3L387.867 471.011M394.893 498.3C395.698 498.263 396.476 498.159 397.225 497.994M406.429 490.443C407.201 488.787 407.693 486.947 407.857 484.998C408.227 480.617 406.667 476.385 403.857 473.408M406.429 490.443L412.952 488.587L417.459 487.267M406.429 490.443C406.072 491.207 405.655 491.933 405.184 492.611M419.893 486.554L423.387 485.727C425.192 485.299 426.466 483.688 426.466 481.834L426.466 478.515C426.466 476.544 425.03 474.867 423.082 474.563L418.421 473.836M419.893 486.554L417.459 487.267M419.893 486.554C419.893 486.554 421.033 499.926 422.585 516.916M418.421 473.836L414.854 473.836L403.857 473.408M418.421 473.836C418.421 473.836 417.751 471.119 416.512 469.989C415.223 468.813 412.321 468.444 412.321 468.444M403.857 473.408C401.573 470.989 398.463 469.399 394.893 469.236C393.183 469.158 391.543 469.432 390.023 469.989M412.321 473.738C412.321 473.738 412.526 469.688 412.321 468.444M412.321 468.444C412.012 466.569 410.051 465.598 407.857 464.175V464.175C403.738 461.502 398.626 461.218 393.774 461.967L389.419 462.639C387.775 462.893 386.275 463.724 385.188 464.984L380.874 469.983C378.995 472.16 378.144 475.041 378.539 477.889L382.159 504.003M382.159 504.003L384.138 507.38M382.159 504.003L416.512 504.003M384.138 507.38C384.138 507.38 387.69 554.448 392.337 584.296C395.962 607.585 403.857 643.539 403.857 643.539M384.138 507.38L416.512 507.38M403.857 643.539L402.373 645.728M403.857 643.539L435.306 643.539M402.373 645.728L404.793 669.697C405.111 672.844 406.558 675.769 408.868 677.929V677.929C410.983 679.908 413.698 681.103 416.57 681.478C419.255 681.829 421.347 682.179 425.095 682.53C430.234 683.012 438.026 680.717 442.026 675.725M402.373 645.728L436.239 645.728M416.512 492.611L405.184 492.611M416.512 492.611L416.512 504.003M416.512 492.611L417.459 487.267M405.184 492.611C403.309 495.306 400.561 497.258 397.225 497.994M416.512 504.003L416.512 507.38M416.512 507.38C416.512 507.38 420.488 554.399 424.85 584.296C428.102 606.587 435.306 643.539 435.306 643.539M435.306 643.539L436.239 645.728M436.239 645.728L440.583 646.778M436.239 645.728C436.841 646.304 439.441 645.88 440.583 646.778M436.239 645.728L436.239 649.609C436.239 651.17 435.041 652.47 433.485 652.599L420.226 653.692M428.426 673.855C430.26 671.102 430.987 668.534 430.354 664.864C429.416 659.428 425.228 654.751 420.226 653.692M428.426 673.855L408.884 657.64M428.426 673.855C427.974 674.533 427.446 675.16 426.842 675.725M428.426 673.855L434.411 671.134C435.517 670.631 436.817 670.845 437.704 671.676L442.026 675.725M408.884 657.64C410.238 655.438 412.444 654.736 415.143 653.912C416.868 653.386 418.59 653.345 420.226 653.692M408.884 657.64C408.486 658.285 408.15 658.972 407.876 659.689M426.842 675.725C425.858 676.645 424.672 677.401 423.28 677.943C416.625 680.535 409.48 675.5 407.544 668.626C406.69 665.594 406.831 662.42 407.876 659.689M426.842 675.725L407.876 659.689M440.583 646.778C443.412 649.006 445.689 654.175 446.473 656.086C447.258 657.998 446.503 668.793 442.846 674.578C442.595 674.975 442.321 675.358 442.026 675.725M440.583 646.778C440.583 646.778 439.384 640.498 437.68 631.062M427.195 564.009L487.237 565.179L594.381 565.179L849.888 565.179L1064.86 561.696L1324.37 561.696M427.195 564.009C426.439 557.056 425.636 549.11 424.85 541.017M427.195 564.009C427.934 570.799 429.047 578.88 430.323 587.291M387.867 471.011C388.553 470.607 389.273 470.264 390.023 469.989M397.225 497.994L390.023 469.989M2321.63 508.424C2316.41 504.467 2310.7 505.29 2306.13 509.33C2302.29 512.715 2301.15 516.462 2301.55 521.198C2302.1 527.669 2306.44 532.25 2312.91 531.688C2317.07 531.328 2321.63 527.177 2321.63 527.177M2321.63 508.424L2323.84 514.339M2321.63 527.177C2320.08 525.713 2319.21 523.521 2319.29 521.198C2319.39 518.077 2321.12 515.348 2323.84 514.339M2321.63 527.177C2321.63 527.177 2316.44 524.93 2316.41 521.198C2316.37 516.88 2323.84 514.339 2323.84 514.339M2321.63 527.177L2316.97 527.177M2323.84 514.339L2318.08 514.339M2318.08 514.339L2316.59 514.339C2313.86 514.339 2311.12 515.384 2309.8 517.771C2309.2 518.872 2308.74 520.092 2308.8 521.198C2308.85 522.114 2309.28 523.096 2309.81 523.993C2311.14 526.233 2313.78 527.177 2316.39 527.177L2316.97 527.177M2318.08 514.339C2318.08 514.339 2313.31 518.014 2313.37 521.198C2313.42 523.865 2316.97 527.177 2316.97 527.177M2316.97 527.177L2220.38 536.817L2078.5 551.295M2318.53 579.253C2322.57 578.945 2325.81 582.455 2325.95 586.506C2326.1 590.701 2322.71 594.594 2318.53 594.276C2316.93 594.155 2315.55 593.493 2314.49 592.485M2318.53 579.253C2318.53 579.253 2318.47 575.099 2316.22 573.394C2311 569.436 2303.89 568.705 2299.32 572.745C2295.49 576.131 2294.66 581.77 2295.06 586.506C2295.61 592.977 2301.84 594.838 2308.31 594.276C2312.46 593.916 2314.49 592.485 2314.49 592.485M2318.53 579.253C2317.88 579.303 2317.27 579.438 2316.71 579.647M2318.53 579.253L2316.95 578.395C2315.34 577.516 2313.53 577.055 2311.69 577.055L2167.66 577.055L1999.29 576.362M2314.49 592.485C2312.95 591.021 2312.07 588.828 2312.15 586.506C2312.26 583.385 2313.98 580.656 2316.71 579.647M2314.49 592.485C2314.49 592.485 2309.31 590.238 2309.27 586.506C2309.24 582.188 2316.71 579.647 2316.71 579.647M2314.49 592.485L2309.84 592.485M2316.71 579.647L2310.95 579.647M2310.95 579.647C2310.95 579.647 2306.17 583.322 2306.23 586.506C2306.29 589.173 2309.84 592.485 2309.84 592.485M2310.95 579.647C2307.27 579.647 2303.32 580.983 2302.04 584.432C2301.78 585.131 2301.63 585.839 2301.67 586.506C2301.71 587.25 2302 588.038 2302.39 588.788C2303.77 591.432 2306.86 592.485 2309.84 592.485M2248.84 511.906C2252.88 511.598 2256.13 515.107 2256.27 519.158C2256.41 523.353 2253.03 527.246 2248.84 526.929C2247.25 526.808 2245.87 526.145 2244.81 525.137M2248.84 511.906C2248.84 511.906 2247.06 508.09 2244.81 506.385C2239.59 502.427 2233.88 503.25 2229.31 507.29C2225.48 510.675 2224.33 514.422 2224.73 519.158C2225.28 525.63 2229.62 530.21 2236.09 529.649C2240.25 529.288 2244.81 525.137 2244.81 525.137M2248.84 511.906C2248.2 511.955 2247.59 512.09 2247.02 512.3M2248.84 511.906L2259.5 511.906M2244.81 525.137C2243.27 523.673 2242.39 521.481 2242.47 519.158C2242.57 516.037 2244.3 513.308 2247.02 512.3M2244.81 525.137C2244.81 525.137 2239.62 522.89 2239.59 519.158C2239.55 514.841 2247.02 512.3 2247.02 512.3M2244.81 525.137L2240.15 525.137M2247.02 512.3L2241.26 512.3M2241.26 512.3C2241.26 512.3 2236.49 515.974 2236.55 519.158C2236.6 521.825 2240.15 525.137 2240.15 525.137M2241.26 512.3C2237.58 512.3 2233.64 513.635 2232.36 517.085C2232.1 517.783 2231.94 518.492 2231.98 519.158C2232.03 519.903 2232.31 520.69 2232.7 521.441C2234.08 524.085 2237.17 525.137 2240.15 525.137M2240.15 525.137L2156.66 531.285L2002.7 542.472M2173.13 511.37C2177.17 511.062 2180.41 514.571 2180.55 518.622C2180.7 522.817 2177.31 526.71 2173.13 526.393C2171.53 526.272 2170.15 525.61 2169.09 524.601M2173.13 511.37C2173.13 511.37 2171.34 507.554 2169.09 505.849C2163.87 501.891 2158.17 502.714 2153.59 506.754C2149.76 510.14 2148.62 513.886 2149.02 518.622C2149.57 525.094 2153.91 529.674 2160.38 529.113C2164.53 528.752 2169.09 524.601 2169.09 524.601M2173.13 511.37C2172.48 511.419 2171.87 511.554 2171.31 511.764M2169.09 524.601C2167.55 523.137 2166.67 520.945 2166.75 518.622C2166.86 515.501 2168.58 512.772 2171.31 511.764M2169.09 524.601C2169.09 524.601 2163.91 522.354 2163.87 518.622C2163.84 514.305 2171.31 511.764 2171.31 511.764M2169.09 524.601L2164.44 524.601M2171.31 511.764L2165.55 511.764M2165.55 511.764C2165.55 511.764 2160.77 515.439 2160.83 518.622C2160.89 521.289 2164.44 524.601 2164.44 524.601M2165.55 511.764C2161.87 511.764 2157.92 513.099 2156.64 516.549C2156.38 517.248 2156.23 517.956 2156.27 518.622C2156.31 519.367 2156.6 520.154 2156.99 520.905C2158.37 523.549 2161.46 524.601 2164.44 524.601M2164.44 524.601L2084.39 524.601L2004.49 524.601M2242.22 588.079C2246.26 587.771 2249.51 591.281 2249.65 595.332C2249.79 599.526 2246.41 603.42 2242.22 603.102C2240.63 602.981 2239.25 602.319 2238.19 601.31M2242.22 588.079C2242.22 588.079 2242.16 583.925 2239.92 582.22C2234.7 578.262 2227.58 577.531 2223.01 581.571C2219.18 584.957 2218.35 590.596 2218.75 595.332C2219.3 601.803 2225.53 603.664 2232 603.102C2236.16 602.742 2238.19 601.31 2238.19 601.31M2242.22 588.079C2241.58 588.128 2240.97 588.264 2240.4 588.473M2242.22 588.079L2212.42 585.842L1996.75 591.742L1901.32 592.845M2238.19 601.31C2236.65 599.847 2235.77 597.654 2235.85 595.332C2235.95 592.211 2237.68 589.482 2240.4 588.473M2238.19 601.31C2238.19 601.31 2233 599.063 2232.97 595.332C2232.93 591.014 2240.4 588.473 2240.4 588.473M2238.19 601.31L2233.53 601.31M2240.4 588.473L2234.64 588.473M2234.64 588.473C2234.64 588.473 2229.87 592.148 2229.93 595.332C2229.98 597.998 2233.53 601.31 2233.53 601.31M2234.64 588.473C2230.96 588.473 2227.02 589.809 2225.74 593.258C2225.48 593.957 2225.32 594.665 2225.36 595.332C2225.41 596.076 2225.69 596.863 2226.08 597.614C2227.46 600.258 2230.55 601.31 2233.53 601.31M2163.03 595.572C2167.07 595.264 2170.32 598.774 2170.46 602.825C2170.6 607.02 2167.22 610.913 2163.03 610.595C2161.44 610.474 2160.06 609.812 2159 608.803M2163.03 595.572C2163.03 595.572 2162.97 591.418 2160.73 589.713C2155.51 585.755 2148.9 586.898 2144.33 590.938C2140.5 594.324 2140.06 598.089 2140.47 602.825C2141.01 609.296 2146.34 611.157 2152.81 610.595C2156.97 610.235 2159 608.803 2159 608.803M2163.03 595.572C2162.39 595.621 2161.78 595.757 2161.21 595.966M2163.03 595.572L2149.12 594.645L1996.13 607.787M2159 608.803C2157.46 607.34 2156.58 605.147 2156.66 602.825C2156.76 599.704 2158.49 596.975 2161.21 595.966M2159 608.803C2159 608.803 2153.81 606.557 2153.78 602.825C2153.74 598.507 2161.21 595.966 2161.21 595.966M2159 608.803L2154.35 608.803M2161.21 595.966L2155.45 595.966M2155.45 595.966C2155.45 595.966 2150.68 599.641 2150.74 602.825C2150.79 605.492 2154.35 608.803 2154.35 608.803M2155.45 595.966C2151.77 595.966 2147.83 597.302 2146.55 600.751C2146.29 601.45 2146.14 602.158 2146.17 602.825C2146.22 603.569 2146.5 604.357 2146.89 605.107C2148.28 607.751 2151.36 608.803 2154.35 608.803M2078.5 551.295L2001.01 559.264M2001.01 559.264L1993.2 559.264M2001.01 559.264L2002.7 542.472M2001.01 559.264L1999.29 576.362M1993.2 559.264L1792.66 559.263L1676.54 559.263M1676.54 559.263L1324.37 561.696M2002.7 542.472L1812.14 542.472L1506.68 542.472L1225.9 542.472M1225.9 542.472L951.488 542.472M951.488 542.472L744.9 542.472L502.774 542.472M502.774 542.472L424.85 541.017M424.85 541.017C424.056 532.842 423.279 524.517 422.585 516.916M2004.49 524.601L1888.46 524.601L1692.97 524.601L1515.77 524.601L1270.33 523.111M1270.33 523.111L1043.99 521.565L867.98 521.565M867.98 521.565L866.397 501.688C866.329 500.84 866.005 500.033 865.468 499.374V499.374C864.673 498.398 863.48 497.831 862.221 497.831L794.714 497.831C793.573 497.831 792.461 498.188 791.532 498.851V498.851C789.954 499.978 789.09 501.856 789.261 503.787L801.245 639.561C801.333 640.554 801.788 641.478 802.521 642.153L803.687 643.226C804.425 643.905 805.392 644.283 806.396 644.283L872.856 644.283C873.862 644.283 874.832 643.903 875.571 643.22L876.098 642.733C876.999 641.901 877.468 640.701 877.371 639.478L876.343 626.572M867.98 521.565L637.592 520.257M867.98 521.565L876.343 626.572M637.592 520.257L490.402 520.257M637.592 520.257L644.561 587.291M490.402 520.257L422.585 516.916M1999.29 576.362L1819.83 578.538M1819.83 578.538L1670.79 578.538M1670.79 578.538L1422.78 580.875M1422.78 580.875L1146.56 582.697M1146.56 582.697L1010.85 584.74M1010.85 584.74L876.108 584.74M876.108 584.74L794.008 586.152M794.008 586.152L644.561 587.291M794.008 586.152L795.985 607.412M644.561 587.291L430.323 587.291M644.561 587.291L649.108 631.028M430.323 587.291C431.398 594.374 432.587 601.69 433.764 608.666M1901.32 592.845L1727.62 596.016L1571.08 597.623L1417.21 599.408L1230.33 601.907L1141.08 603.335L922.413 605.477L795.985 607.412M795.985 607.412L628.885 610.029M628.885 610.029L617.308 504.281C617.056 501.98 615.82 499.901 613.919 498.581L612.887 497.864C611.502 496.902 609.847 496.402 608.16 496.437L538.636 497.865C536.831 497.903 535.091 498.544 533.694 499.687V499.687C531.527 501.46 530.434 504.23 530.808 507.006L549.062 642.545C549.189 643.484 549.517 644.385 550.024 645.186V645.186C551.23 647.091 553.328 648.246 555.583 648.246L627.718 648.246C628.593 648.246 629.451 648.01 630.203 647.563V647.563C631.878 646.568 632.798 644.668 632.539 642.737L632.132 639.695L628.885 610.029ZM628.885 610.029L480.421 610.029M480.421 610.029L433.764 608.666M433.764 608.666C435.157 616.926 436.533 624.709 437.68 631.062M1996.13 607.787L1543.36 615.544M1543.36 615.544L1374.11 617.344M1374.11 617.344L1081.08 624.103M1081.08 624.103L876.343 626.572M876.343 626.572L649.108 631.028M643.13 661.584L623.114 479.189C622.946 477.657 622.294 476.218 621.252 475.082V475.082C619.879 473.586 617.942 472.734 615.912 472.734L530.784 472.734C528.056 472.734 525.679 474.593 525.022 477.241V477.241C524.844 477.961 524.802 478.707 524.898 479.442L548.745 661.219C549.065 663.66 550.525 665.805 552.679 666.999V666.999C553.85 667.648 555.169 667.983 556.507 667.972L637.929 667.289C640.993 667.263 643.387 664.637 643.13 661.584V661.584ZM523.974 647.086C523.974 647.086 526.241 654.178 523.974 658.526C521.737 662.818 511.026 663.842 511.026 663.842C511.026 663.842 518.598 659.694 520.565 656.076C522.733 652.089 523.974 647.086 523.974 647.086Z" stroke="#838C94"/>
<circle cx="964.037" cy="329.131" r="7.13072" transform="rotate(90 964.037 329.131)" stroke="#838C94"/>
<circle cx="932.678" cy="480.724" r="7.13072" transform="rotate(90 932.678 480.724)" stroke="#838C94"/>
<circle cx="847.698" cy="515.466" r="6.02098" transform="rotate(90 847.698 515.466)" stroke="#838C94"/>
<circle cx="849.374" cy="539.005" r="6.02098" transform="rotate(90 849.374 539.005)" stroke="#838C94"/>
<circle cx="851.264" cy="560.458" r="6.02098" transform="rotate(90 851.264 560.458)" stroke="#838C94"/>
<circle cx="853.725" cy="583.998" r="6.02098" transform="rotate(90 853.725 583.998)" stroke="#838C94"/>
<circle cx="855.401" cy="605.443" r="6.02098" transform="rotate(90 855.401 605.443)" stroke="#838C94"/>
<circle cx="857.292" cy="626.904" r="6.02098" transform="rotate(90 857.292 626.904)" stroke="#838C94"/>
<circle cx="942.658" cy="656.545" r="7.13072" transform="rotate(90 942.658 656.545)" stroke="#838C94"/>
<circle cx="942.658" cy="573.615" r="7.13072" transform="rotate(90 942.658 573.615)" stroke="#838C94"/>
<circle cx="997.229" cy="573.615" r="7.13072" transform="rotate(90 997.229 573.615)" stroke="#838C94"/>
<circle cx="1059.56" cy="573.615" r="7.13072" transform="rotate(90 1059.56 573.615)" stroke="#838C94"/>
<circle cx="1129.87" cy="573.615" r="7.13072" transform="rotate(90 1129.87 573.615)" stroke="#838C94"/>
<circle cx="1252.7" cy="600.74" r="7.13072" transform="rotate(90 1252.7 600.74)" stroke="#838C94"/>
<circle cx="1397.59" cy="569.912" r="7.13072" transform="rotate(90 1397.59 569.912)" stroke="#838C94"/>
<circle cx="1512.32" cy="569.912" r="7.13072" transform="rotate(90 1512.32 569.912)" stroke="#838C94"/>
<circle cx="1639.65" cy="569.912" r="7.13072" transform="rotate(90 1639.65 569.912)" stroke="#838C94"/>
<circle cx="1783.85" cy="567.342" r="7.13072" transform="rotate(90 1783.85 567.342)" stroke="#838C94"/>
<circle cx="1252.7" cy="540.537" r="7.13072" transform="rotate(90 1252.7 540.537)" stroke="#838C94"/>
<circle cx="993.975" cy="798.154" r="7.13072" transform="rotate(90 993.975 798.154)" stroke="#838C94"/>
<circle cx="800.096" cy="747.779" r="7.13072" transform="rotate(90 800.096 747.779)" stroke="#838C94"/>
<circle cx="587.74" cy="783.896" r="7.13072" transform="rotate(90 587.74 783.896)" stroke="#838C94"/>
<circle cx="635.815" cy="695.67" r="7.13072" transform="rotate(90 635.815 695.67)" stroke="#838C94"/>
<ellipse cx="615.833" cy="480.323" rx="5.15915" ry="4.8035" transform="rotate(90 615.833 480.323)" stroke="#838C94"/>
<ellipse cx="531.552" cy="480.323" rx="5.15915" ry="4.8035" transform="rotate(90 531.552 480.323)" stroke="#838C94"/>
<ellipse cx="574.189" cy="486.345" rx="3.61849" ry="3.53396" transform="rotate(90 574.189 486.345)" stroke="#838C94"/>
<ellipse cx="594.872" cy="656.697" rx="3.61849" ry="3.53396" transform="rotate(90 594.872 656.697)" stroke="#838C94"/>
<ellipse cx="635.818" cy="660.308" rx="5.15915" ry="4.8035" transform="rotate(90 635.818 660.308)" stroke="#838C94"/>
<ellipse cx="554.946" cy="662.354" rx="5.15915" ry="4.8035" transform="rotate(90 554.946 662.354)" stroke="#838C94"/>
<circle cx="655.287" cy="477.154" r="7.13072" transform="rotate(90 655.287 477.154)" stroke="#838C94"/>
<circle cx="709.369" cy="371.06" r="7.13072" transform="rotate(90 709.369 371.06)" stroke="#838C94"/>
<circle cx="841.675" cy="656.543" r="3.56684" transform="rotate(90 841.675 656.543)" stroke="#838C94"/>
<circle cx="827.418" cy="484.286" r="3.56684" transform="rotate(90 827.418 484.286)" stroke="#838C94"/>
<path d="M471.541 486.685C470.861 486.468 470.137 486.352 469.385 486.352C465.467 486.352 462.29 489.528 462.29 493.447C462.29 495.714 463.354 497.734 465.009 499.033M471.541 486.685C474.406 487.598 476.48 490.28 476.48 493.447C476.48 497.366 473.304 500.542 469.385 500.542C467.734 500.542 466.215 499.978 465.009 499.033M471.541 486.685C471.541 486.685 470.911 491.533 469.385 494.161C468.101 496.372 465.009 499.033 465.009 499.033" stroke="#838C94"/>
<path d="M505.988 649.526C504.816 648.67 503.37 648.164 501.807 648.164C497.888 648.164 494.712 651.341 494.712 655.259C494.712 657.633 495.877 659.734 497.667 661.022M505.988 649.526C507.755 650.817 508.902 652.904 508.902 655.259C508.902 659.178 505.726 662.355 501.807 662.355C500.262 662.355 498.832 661.861 497.667 661.022M505.988 649.526C505.988 649.526 502.052 652.632 500.314 655.259C498.948 657.325 497.667 661.022 497.667 661.022" stroke="#838C94"/>
<path d="M360.711 349.746C360.71 249.298 360.709 192.981 360.708 92.5324M1262.5 858.413C1263.41 757.958 1261.59 706.377 1262.5 605.922M507.953 353.742C507.953 251.519 507.953 194.207 507.953 91.9843M1390.76 509.924L1390.76 337.61M635.663 1016.89C635.321 936.209 636.005 869.394 635.663 788.71M826.434 896.411C826.434 841.52 826.434 706.868 826.434 651.976M1993.57 898.796L1993.57 610.701M92.1789 563.583C174.043 563.583 306.954 563.583 388.818 563.583M1647.67 534.852L1647.67 234.789M2116.04 842.11L2116.04 583.017M1908.04 536.696L1908.04 262.255M2236.25 440.68L2236.25 168.762" stroke="#838C94" stroke-dasharray="10 10"/>
<path d="M1997.31 994.704C1995.17 996.842 1991.71 996.842 1989.57 994.704L1958.84 963.974C1956.7 961.836 1956.7 958.37 1958.84 956.232L1989.57 925.502C1991.71 923.364 1995.17 923.364 1997.31 925.502L2028.04 956.232C2030.18 958.37 2030.18 961.836 2028.04 963.974L1997.31 994.704Z" fill="#20262B" stroke="#838C94"/>
<path d="M2119.17 927.196C2117.03 929.334 2113.56 929.334 2111.42 927.196L2080.69 896.466C2078.56 894.328 2078.56 890.862 2080.69 888.724L2111.42 857.994C2113.56 855.856 2117.03 855.856 2119.17 857.994L2149.9 888.724C2152.03 890.862 2152.03 894.328 2149.9 896.466L2119.17 927.196Z" fill="#20262B" stroke="#838C94"/>
<path d="M2238.97 151.54C2236.83 153.678 2233.37 153.678 2231.23 151.54L2200.5 120.81C2198.36 118.672 2198.36 115.206 2200.5 113.068L2231.23 82.3379C2233.37 80.1999 2236.83 80.1999 2238.97 82.3379L2269.7 113.068C2271.84 115.206 2271.84 118.672 2269.7 120.81L2238.97 151.54Z" fill="#20262B" stroke="#838C94"/>
<path d="M1910.23 248.681C1908.09 250.819 1904.62 250.819 1902.49 248.681L1871.76 217.951C1869.62 215.813 1869.62 212.346 1871.76 210.208L1902.49 179.478C1904.62 177.341 1908.09 177.341 1910.23 179.478L1940.96 210.208C1943.1 212.346 1943.1 215.813 1940.96 217.951L1910.23 248.681Z" fill="#20262B" stroke="#838C94"/>
<path d="M1650.65 218.485C1648.51 220.623 1645.05 220.623 1642.91 218.485L1612.18 187.755C1610.04 185.617 1610.04 182.151 1612.18 180.013L1642.91 149.283C1645.05 147.145 1648.51 147.145 1650.65 149.283L1681.38 180.013C1683.52 182.151 1683.52 185.617 1681.38 187.755L1650.65 218.485Z" fill="#20262B" stroke="#838C94"/>
<path d="M1394.33 319.524C1392.19 321.662 1388.73 321.662 1386.59 319.524L1355.86 288.795C1353.72 286.657 1353.72 283.19 1355.86 281.052L1386.59 250.322C1388.73 248.184 1392.19 248.184 1394.33 250.322L1425.06 281.052C1427.2 283.19 1427.2 286.657 1425.06 288.795L1394.33 319.524Z" fill="#20262B" stroke="#838C94"/>
<path d="M511.081 72.2823C508.943 74.4203 505.476 74.4203 503.338 72.2823L472.608 41.5523C470.47 39.4143 470.47 35.948 472.608 33.81L503.338 3.08004C505.476 0.942065 508.943 0.942067 511.081 3.08005L541.811 33.81C543.949 35.948 543.949 39.4144 541.811 41.5523L511.081 72.2823Z" fill="#20262B" stroke="#838C94"/>
<path d="M363.838 72.2823C361.7 74.4203 358.234 74.4203 356.096 72.2823L325.366 41.5523C323.228 39.4143 323.228 35.948 325.366 33.81L356.096 3.08004C358.234 0.942065 361.7 0.942067 363.838 3.08005L394.568 33.81C396.706 35.948 396.706 39.4143 394.568 41.5523L363.838 72.2823Z" fill="#20262B" stroke="#838C94"/>
<path d="M41.065 596.806C38.927 598.944 35.4606 598.944 33.3226 596.806L2.59288 566.076C0.454893 563.938 0.454893 560.471 2.59288 558.333L33.3226 527.603C35.4606 525.466 38.927 525.466 41.065 527.603L71.795 558.333C73.9329 560.471 73.9329 563.938 71.795 566.076L41.065 596.806Z" fill="#20262B" stroke="#838C94"/>
<path d="M639.69 1106.42C637.552 1108.56 634.086 1108.56 631.948 1106.42L601.218 1075.69C599.08 1073.55 599.08 1070.09 601.218 1067.95L631.948 1037.22C634.086 1035.08 637.552 1035.08 639.69 1037.22L670.42 1067.95C672.558 1070.09 672.558 1073.55 670.42 1075.69L639.69 1106.42Z" fill="#20262B" stroke="#838C94"/>
<path d="M394.631 1099.29C392.494 1101.43 389.027 1101.43 386.889 1099.29L356.159 1068.56C354.021 1066.42 354.021 1062.96 356.159 1060.82L386.889 1030.09C389.027 1027.95 392.494 1027.95 394.632 1030.09L425.361 1060.82C427.499 1062.96 427.499 1066.42 425.361 1068.56L394.631 1099.29Z" fill="#20262B" stroke="#838C94"/>
<path d="M828.589 992.774C826.451 994.912 822.984 994.912 820.846 992.774L790.116 962.045C787.978 959.907 787.978 956.44 790.116 954.302L820.846 923.572C822.984 921.434 826.451 921.434 828.589 923.572L859.318 954.302C861.456 956.44 861.456 959.907 859.318 962.045L828.589 992.774Z" fill="#20262B" stroke="#838C94"/>
<path d="M1263.7 946.978C1261.56 949.116 1258.09 949.116 1255.96 946.978L1225.23 916.248C1223.09 914.11 1223.09 910.643 1225.23 908.505L1255.96 877.775C1258.09 875.637 1261.56 875.637 1263.7 877.775L1294.43 908.505C1296.57 910.643 1296.57 914.11 1294.43 916.248L1263.7 946.978Z" fill="#20262B" stroke="#838C94"/>
<path d="M1255.37 901.67C1254.07 901.67 1253.06 902.242 1252.36 903.385C1251.69 904.505 1251.35 905.963 1251.35 907.76C1251.35 909.557 1251.77 910.98 1252.61 912.03C1253.45 913.08 1254.4 913.605 1255.48 913.605C1256.55 913.605 1257.51 913.267 1258.35 912.59C1259.19 911.913 1259.83 911.12 1260.27 910.21C1260.23 904.517 1258.59 901.67 1255.37 901.67ZM1252.01 922.46C1252.01 922.857 1252.26 923.172 1252.75 923.405C1253.26 923.615 1253.88 923.72 1254.6 923.72C1258.41 923.72 1260.31 920.022 1260.31 912.625C1258.91 914.305 1256.99 915.145 1254.57 915.145C1252.89 915.145 1251.44 914.422 1250.23 912.975C1249.04 911.505 1248.44 909.79 1248.44 907.83C1248.44 905.847 1249.07 904.038 1250.33 902.405C1251.62 900.748 1253.32 899.92 1255.44 899.92C1258.43 899.92 1260.49 901.005 1261.64 903.175C1262.64 905.158 1263.14 907.783 1263.14 911.05C1263.14 914.597 1262.58 917.758 1261.46 920.535C1260.88 921.958 1260.02 923.102 1258.87 923.965C1257.75 924.805 1256.45 925.225 1254.95 925.225C1253.46 925.225 1252.19 924.922 1251.14 924.315C1250.11 923.708 1249.6 922.81 1249.6 921.62C1249.6 921.037 1249.74 920.582 1250.02 920.255C1250.3 919.905 1250.67 919.73 1251.14 919.73C1252.28 919.73 1252.85 920.127 1252.85 920.92C1252.85 921.247 1252.71 921.573 1252.43 921.9C1252.15 922.203 1252.01 922.39 1252.01 922.46ZM1270.93 922.985C1270.93 923.568 1270.74 924.035 1270.37 924.385C1269.99 924.712 1269.5 924.875 1268.9 924.875C1268.31 924.875 1267.85 924.688 1267.5 924.315C1267.15 923.942 1266.97 923.475 1266.97 922.915C1266.97 922.332 1267.15 921.853 1267.5 921.48C1267.85 921.083 1268.3 920.885 1268.86 920.885C1269.42 920.885 1269.9 921.083 1270.3 921.48C1270.72 921.877 1270.93 922.378 1270.93 922.985Z" fill="white"/>
<path d="M1984.56 949.222C1985.77 948.172 1987.35 947.647 1989.29 947.647C1991.22 947.647 1992.79 948.16 1993.98 949.187C1995.17 950.213 1995.76 951.648 1995.76 953.492C1995.76 955.568 1994.36 957.447 1991.56 959.127C1993.01 959.803 1994.29 960.748 1995.41 961.962C1996.53 963.152 1997.09 964.633 1997.09 966.407C1997.09 968.18 1996.31 969.72 1994.75 971.027C1993.21 972.31 1991.43 972.952 1989.43 972.952C1987.44 972.952 1985.66 972.345 1984.07 971.132C1982.51 969.918 1981.73 968.448 1981.73 966.722C1981.73 964.995 1982.23 963.502 1983.23 962.242C1984.23 960.982 1985.39 960.048 1986.7 959.442C1985.76 958.882 1984.88 958.077 1984.04 957.027C1983.2 955.953 1982.78 954.798 1982.78 953.562C1982.78 951.718 1983.37 950.272 1984.56 949.222ZM1989.57 971.132C1990.92 971.132 1992.02 970.712 1992.86 969.872C1993.72 969.032 1994.15 967.912 1994.15 966.512C1994.15 965.088 1993.71 963.933 1992.82 963.047C1991.96 962.137 1990.5 961.332 1988.45 960.632C1987.14 961.285 1986.18 962.067 1985.58 962.977C1984.97 963.887 1984.67 965.053 1984.67 966.477C1984.67 967.877 1985.14 969.008 1986.1 969.872C1987.08 970.712 1988.24 971.132 1989.57 971.132ZM1989.18 949.467C1988.18 949.467 1987.35 949.758 1986.7 950.342C1986.04 950.925 1985.72 951.765 1985.72 952.862C1985.72 953.958 1986.07 955.008 1986.77 956.012C1987.47 957.015 1988.46 957.715 1989.74 958.112C1991.79 956.945 1992.82 955.125 1992.82 952.652C1992.82 951.695 1992.46 950.925 1991.74 950.342C1991.04 949.758 1990.18 949.467 1989.18 949.467ZM2004.55 970.712C2004.55 971.295 2004.36 971.762 2003.99 972.112C2003.62 972.438 2003.13 972.602 2002.52 972.602C2001.94 972.602 2001.47 972.415 2001.12 972.042C2000.77 971.668 2000.59 971.202 2000.59 970.642C2000.59 970.058 2000.77 969.58 2001.12 969.207C2001.47 968.81 2001.92 968.612 2002.48 968.612C2003.04 968.612 2003.52 968.81 2003.92 969.207C2004.34 969.603 2004.55 970.105 2004.55 970.712Z" fill="white"/>
<path d="M811.619 970.392L805.039 970.672C804.945 970.602 804.899 970.404 804.899 970.077C804.899 969.75 804.992 969.529 805.179 969.412C806.882 969.412 808.084 969.202 808.784 968.782C809.507 968.362 809.88 967.51 809.904 966.227L810.009 952.787C810.032 951.41 809.694 950.559 808.994 950.232C808.294 949.905 806.824 949.742 804.584 949.742C804.514 949.672 804.479 949.485 804.479 949.182C804.479 948.855 804.56 948.622 804.724 948.482C807.71 948.295 809.845 947.49 811.129 946.067C811.222 945.974 811.42 945.927 811.724 945.927C812.027 945.927 812.249 945.974 812.389 946.067L813.124 966.227C813.17 967.534 813.532 968.397 814.209 968.817C814.909 969.214 816.099 969.412 817.779 969.412C817.965 969.552 818.059 969.774 818.059 970.077C818.059 970.38 818.012 970.579 817.919 970.672L811.619 970.392ZM820.434 963.217C820.154 961.747 820.014 960.137 820.014 958.387C820.014 956.637 820.154 955.027 820.434 953.557C820.737 952.087 821.192 950.745 821.799 949.532C822.429 948.319 823.292 947.374 824.389 946.697C825.509 946.02 826.815 945.682 828.309 945.682C829.802 945.682 831.097 946.02 832.194 946.697C833.314 947.374 834.177 948.319 834.784 949.532C835.414 950.745 835.869 952.087 836.149 953.557C836.452 955.027 836.604 956.637 836.604 958.387C836.604 960.137 836.452 961.747 836.149 963.217C835.869 964.687 835.414 966.017 834.784 967.207C834.177 968.397 833.314 969.33 832.194 970.007C831.097 970.684 829.802 971.022 828.309 971.022C826.815 971.022 825.509 970.684 824.389 970.007C823.292 969.33 822.429 968.397 821.799 967.207C821.192 966.017 820.737 964.687 820.434 963.217ZM822.954 958.387C822.954 961.28 823.42 963.812 824.354 965.982C825.287 968.129 826.605 969.202 828.309 969.202C829.452 969.202 830.444 968.665 831.284 967.592C832.87 965.539 833.664 962.47 833.664 958.387C833.664 954.374 832.87 951.305 831.284 949.182C830.444 948.062 829.452 947.502 828.309 947.502C827.165 947.502 826.174 948.062 825.334 949.182C823.747 951.329 822.954 954.397 822.954 958.387ZM844.37 968.782C844.37 969.365 844.183 969.832 843.81 970.182C843.436 970.509 842.946 970.672 842.34 970.672C841.756 970.672 841.29 970.485 840.94 970.112C840.59 969.739 840.415 969.272 840.415 968.712C840.415 968.129 840.59 967.65 840.94 967.277C841.29 966.88 841.745 966.682 842.305 966.682C842.865 966.682 843.343 966.88 843.74 967.277C844.16 967.674 844.37 968.175 844.37 968.782Z" fill="white"/>
<path d="M625.22 1084.04L618.64 1084.32C618.547 1084.25 618.5 1084.05 618.5 1083.73C618.5 1083.4 618.594 1083.18 618.78 1083.06C620.484 1083.06 621.685 1082.85 622.385 1082.43C623.109 1082.01 623.482 1081.16 623.505 1079.88L623.61 1066.44C623.634 1065.06 623.295 1064.21 622.595 1063.88C621.895 1063.55 620.425 1063.39 618.185 1063.39C618.115 1063.32 618.08 1063.13 618.08 1062.83C618.08 1062.5 618.162 1062.27 618.325 1062.13C621.312 1061.94 623.447 1061.14 624.73 1059.72C624.824 1059.62 625.022 1059.58 625.325 1059.58C625.629 1059.58 625.85 1059.62 625.99 1059.72L626.725 1079.88C626.772 1081.18 627.134 1082.05 627.81 1082.47C628.51 1082.86 629.7 1083.06 631.38 1083.06C631.567 1083.2 631.66 1083.42 631.66 1083.73C631.66 1084.03 631.614 1084.23 631.52 1084.32L625.22 1084.04ZM640.02 1084.04L633.44 1084.32C633.347 1084.25 633.3 1084.05 633.3 1083.73C633.3 1083.4 633.393 1083.18 633.58 1083.06C635.283 1083.06 636.485 1082.85 637.185 1082.43C637.908 1082.01 638.282 1081.16 638.305 1079.88L638.41 1066.44C638.433 1065.06 638.095 1064.21 637.395 1063.88C636.695 1063.55 635.225 1063.39 632.985 1063.39C632.915 1063.32 632.88 1063.13 632.88 1062.83C632.88 1062.5 632.962 1062.27 633.125 1062.13C636.112 1061.94 638.247 1061.14 639.53 1059.72C639.623 1059.62 639.822 1059.58 640.125 1059.58C640.428 1059.58 640.65 1059.62 640.79 1059.72L641.525 1079.88C641.572 1081.18 641.933 1082.05 642.61 1082.47C643.31 1082.86 644.5 1083.06 646.18 1083.06C646.367 1083.2 646.46 1083.42 646.46 1083.73C646.46 1084.03 646.413 1084.23 646.32 1084.32L640.02 1084.04ZM652.195 1082.43C652.195 1083.01 652.008 1083.48 651.635 1083.83C651.262 1084.16 650.772 1084.32 650.165 1084.32C649.582 1084.32 649.115 1084.13 648.765 1083.76C648.415 1083.39 648.24 1082.92 648.24 1082.36C648.24 1081.78 648.415 1081.3 648.765 1080.93C649.115 1080.53 649.57 1080.33 650.13 1080.33C650.69 1080.33 651.168 1080.53 651.565 1080.93C651.985 1081.32 652.195 1081.82 652.195 1082.43Z" fill="white"/>
<path d="M380.162 1076.91L373.582 1077.19C373.488 1077.12 373.442 1076.92 373.442 1076.59C373.442 1076.27 373.535 1076.04 373.722 1075.93C375.425 1075.93 376.627 1075.72 377.327 1075.3C378.05 1074.88 378.423 1074.03 378.447 1072.74L378.552 1059.3C378.575 1057.93 378.237 1057.07 377.537 1056.75C376.837 1056.42 375.367 1056.26 373.127 1056.26C373.057 1056.19 373.022 1056 373.022 1055.7C373.022 1055.37 373.103 1055.14 373.267 1055C376.253 1054.81 378.388 1054.01 379.672 1052.58C379.765 1052.49 379.963 1052.44 380.267 1052.44C380.57 1052.44 380.792 1052.49 380.932 1052.58L381.667 1072.74C381.713 1074.05 382.075 1074.91 382.752 1075.33C383.452 1075.73 384.642 1075.93 386.322 1075.93C386.508 1076.07 386.602 1076.29 386.602 1076.59C386.602 1076.9 386.555 1077.09 386.462 1077.19L380.162 1076.91ZM387.857 1077.19C387.74 1077.16 387.682 1077.05 387.682 1076.84C387.682 1076.35 387.775 1075.8 387.962 1075.19C388.172 1074.59 388.673 1073.78 389.467 1072.78C390.283 1071.75 391.193 1070.67 392.197 1069.52C393.2 1068.38 394.192 1067.19 395.172 1065.95C396.175 1064.69 397.003 1063.37 397.657 1062C398.333 1060.62 398.672 1059.3 398.672 1058.04C398.672 1056.76 398.275 1055.78 397.482 1055.1C396.712 1054.4 395.79 1054.05 394.717 1054.05C393.643 1054.05 392.78 1054.2 392.127 1054.51C391.473 1054.81 391.147 1055.21 391.147 1055.7C391.147 1055.84 391.287 1056.07 391.567 1056.4C391.847 1056.7 391.987 1057.04 391.987 1057.41C391.987 1058.21 391.415 1058.6 390.272 1058.6C389.735 1058.6 389.315 1058.45 389.012 1058.15C388.708 1057.84 388.557 1057.42 388.557 1056.89C388.557 1055.88 388.895 1055.02 389.572 1054.3C390.855 1052.92 392.733 1052.23 395.207 1052.23C397.05 1052.23 398.59 1052.71 399.827 1053.67C401.063 1054.62 401.682 1056.06 401.682 1057.97C401.682 1059.42 401.273 1060.92 400.457 1062.49C399.5 1064.33 398.578 1065.85 397.692 1067.04C396.805 1068.23 396.128 1069.11 395.662 1069.7C395.218 1070.26 394.518 1071.12 393.562 1072.29C392.628 1073.45 392.022 1074.2 391.742 1074.53C391.485 1074.85 391.357 1075.11 391.357 1075.3C391.357 1075.32 391.858 1075.33 392.862 1075.33H395.347C396.443 1075.33 397.26 1075.33 397.797 1075.33C398.357 1075.31 398.905 1075.23 399.442 1075.09C400.002 1074.95 400.375 1074.8 400.562 1074.63C400.772 1074.47 400.97 1074.18 401.157 1073.76C401.343 1073.31 401.46 1072.86 401.507 1072.39C401.553 1071.9 401.588 1071.21 401.612 1070.33C401.682 1070.26 401.892 1070.22 402.242 1070.22C402.615 1070.22 402.988 1070.37 403.362 1070.68L402.347 1077.54C400.503 1077.33 397.75 1077.22 394.087 1077.22L387.857 1077.19ZM410.452 1075.3C410.452 1075.88 410.265 1076.35 409.892 1076.7C409.518 1077.02 409.028 1077.19 408.422 1077.19C407.838 1077.19 407.372 1077 407.022 1076.63C406.672 1076.25 406.497 1075.79 406.497 1075.23C406.497 1074.64 406.672 1074.17 407.022 1073.79C407.372 1073.4 407.827 1073.2 408.387 1073.2C408.947 1073.2 409.425 1073.4 409.822 1073.79C410.242 1074.19 410.452 1074.69 410.452 1075.3Z" fill="white"/>
<path d="M25.5953 574.423L19.0153 574.703C18.922 574.633 18.8753 574.435 18.8753 574.108C18.8753 573.781 18.9686 573.56 19.1553 573.443C20.8586 573.443 22.0603 573.233 22.7603 572.813C23.4836 572.393 23.857 571.541 23.8803 570.258L23.9853 556.818C24.0086 555.441 23.6703 554.59 22.9703 554.263C22.2703 553.936 20.8003 553.773 18.5603 553.773C18.4903 553.703 18.4553 553.516 18.4553 553.213C18.4553 552.886 18.537 552.653 18.7003 552.513C21.687 552.326 23.822 551.521 25.1053 550.098C25.1986 550.005 25.397 549.958 25.7003 549.958C26.0036 549.958 26.2253 550.005 26.3653 550.098L27.1003 570.258C27.147 571.565 27.5086 572.428 28.1853 572.848C28.8853 573.245 30.0753 573.443 31.7553 573.443C31.942 573.583 32.0353 573.805 32.0353 574.108C32.0353 574.411 31.9886 574.61 31.8953 574.703L25.5953 574.423ZM37.2801 562.733C37.1868 562.733 37.0585 562.57 36.8951 562.243C36.7318 561.916 36.6501 561.683 36.6501 561.543C36.6501 561.403 36.6618 561.321 36.6851 561.298C38.5051 560.785 40.0101 560.05 41.2001 559.093C42.3901 558.136 42.9851 557.005 42.9851 555.698C42.9851 554.368 42.6585 553.353 42.0051 552.653C41.3751 551.93 40.5818 551.568 39.6251 551.568C38.6918 551.568 37.9218 551.743 37.3151 552.093C36.7318 552.42 36.4401 552.805 36.4401 553.248C36.4401 553.458 36.5685 553.715 36.8251 554.018C37.1051 554.321 37.2451 554.706 37.2451 555.173C37.2451 555.966 36.6735 556.363 35.5301 556.363C34.9935 556.363 34.5735 556.211 34.2701 555.908C33.9668 555.605 33.8151 555.185 33.8151 554.648C33.8151 553.248 34.4568 552.081 35.7401 551.148C37.0468 550.215 38.5051 549.748 40.1151 549.748C41.7251 549.748 43.0901 550.285 44.2101 551.358C45.3535 552.408 45.9251 553.843 45.9251 555.663C45.9251 556.97 45.4585 558.078 44.5251 558.988C43.5918 559.875 42.4601 560.54 41.1301 560.983C42.8801 561.193 44.3385 561.905 45.5051 563.118C46.6951 564.308 47.2901 565.86 47.2901 567.773C47.2901 569.663 46.4968 571.355 44.9101 572.848C43.3468 574.318 41.5268 575.053 39.4501 575.053C37.9801 575.053 36.6501 574.691 35.4601 573.968C34.2935 573.221 33.7101 572.148 33.7101 570.748C33.7101 570.211 33.8618 569.791 34.1651 569.488C34.4918 569.185 34.9118 569.033 35.4251 569.033C36.5685 569.033 37.1401 569.43 37.1401 570.223C37.1401 570.596 37.0001 570.946 36.7201 571.273C36.4401 571.576 36.3001 571.798 36.3001 571.938C36.3001 572.311 36.6268 572.638 37.2801 572.918C37.9568 573.175 38.6218 573.303 39.2751 573.303C40.7918 573.303 42.0168 572.79 42.9501 571.763C43.8835 570.736 44.3501 569.406 44.3501 567.773C44.3501 566.116 43.9301 564.751 43.0901 563.678C42.2735 562.581 41.2118 562.033 39.9051 562.033C39.0418 562.033 38.1785 562.266 37.3151 562.733H37.2801ZM54.7916 572.813C54.7916 573.396 54.6049 573.863 54.2316 574.213C53.8583 574.54 53.3683 574.703 52.7616 574.703C52.1783 574.703 51.7116 574.516 51.3616 574.143C51.0116 573.77 50.8366 573.303 50.8366 572.743C50.8366 572.16 51.0116 571.681 51.3616 571.308C51.7116 570.911 52.1666 570.713 52.7266 570.713C53.2866 570.713 53.7649 570.911 54.1616 571.308C54.5816 571.705 54.7916 572.206 54.7916 572.813Z" fill="white"/>
<path d="M356.869 49.8997L350.289 50.1797C350.195 50.1097 350.149 49.9114 350.149 49.5847C350.149 49.258 350.242 49.0364 350.429 48.9197C352.132 48.9197 353.334 48.7097 354.034 48.2897C354.757 47.8697 355.13 47.018 355.154 45.7347L355.259 32.2947C355.282 30.918 354.944 30.0664 354.244 29.7397C353.544 29.413 352.074 29.2497 349.834 29.2497C349.764 29.1797 349.729 28.993 349.729 28.6897C349.729 28.363 349.81 28.1297 349.974 27.9897C352.96 27.803 355.095 26.998 356.379 25.5747C356.472 25.4814 356.67 25.4347 356.974 25.4347C357.277 25.4347 357.499 25.4814 357.639 25.5747L358.374 45.7347C358.42 47.0414 358.782 47.9047 359.459 48.3247C360.159 48.7214 361.349 48.9197 363.029 48.9197C363.215 49.0597 363.309 49.2814 363.309 49.5847C363.309 49.888 363.262 50.0864 363.169 50.1797L356.869 49.8997ZM369.044 48.2897C369.044 48.873 368.857 49.3397 368.484 49.6897C368.11 50.0164 367.62 50.1797 367.014 50.1797C366.43 50.1797 365.964 49.993 365.614 49.6197C365.264 49.2464 365.089 48.7797 365.089 48.2197C365.089 47.6364 365.264 47.158 365.614 46.7847C365.964 46.388 366.419 46.1897 366.979 46.1897C367.539 46.1897 368.017 46.388 368.414 46.7847C368.834 47.1814 369.044 47.683 369.044 48.2897Z" fill="white"/>
<path d="M495.506 50.1797C495.389 50.1564 495.331 50.0397 495.331 49.8297C495.331 49.3397 495.424 48.7914 495.611 48.1847C495.821 47.578 496.323 46.773 497.116 45.7697C497.933 44.743 498.843 43.658 499.846 42.5147C500.849 41.3714 501.841 40.1814 502.821 38.9447C503.824 37.6847 504.653 36.3664 505.306 34.9897C505.983 33.613 506.321 32.2947 506.321 31.0347C506.321 29.7514 505.924 28.7714 505.131 28.0947C504.361 27.3947 503.439 27.0447 502.366 27.0447C501.293 27.0447 500.429 27.1964 499.776 27.4997C499.123 27.803 498.796 28.1997 498.796 28.6897C498.796 28.8297 498.936 29.063 499.216 29.3897C499.496 29.693 499.636 30.0314 499.636 30.4047C499.636 31.198 499.064 31.5947 497.921 31.5947C497.384 31.5947 496.964 31.443 496.661 31.1397C496.358 30.8364 496.206 30.4164 496.206 29.8797C496.206 28.8764 496.544 28.013 497.221 27.2897C498.504 25.913 500.383 25.2247 502.856 25.2247C504.699 25.2247 506.239 25.703 507.476 26.6597C508.713 27.6164 509.331 29.0514 509.331 30.9647C509.331 32.4114 508.923 33.9164 508.106 35.4797C507.149 37.323 506.228 38.8397 505.341 40.0297C504.454 41.2197 503.778 42.1064 503.311 42.6897C502.868 43.2497 502.168 44.113 501.211 45.2797C500.278 46.4464 499.671 47.193 499.391 47.5197C499.134 47.8464 499.006 48.103 499.006 48.2897C499.006 48.313 499.508 48.3247 500.511 48.3247H502.996C504.093 48.3247 504.909 48.3247 505.446 48.3247C506.006 48.3014 506.554 48.2197 507.091 48.0797C507.651 47.9397 508.024 47.788 508.211 47.6247C508.421 47.4614 508.619 47.1697 508.806 46.7497C508.993 46.3064 509.109 45.8514 509.156 45.3847C509.203 44.8947 509.238 44.2064 509.261 43.3197C509.331 43.2497 509.541 43.2147 509.891 43.2147C510.264 43.2147 510.638 43.3664 511.011 43.6697L509.996 50.5297C508.153 50.3197 505.399 50.2147 501.736 50.2147L495.506 50.1797ZM518.101 48.2897C518.101 48.873 517.915 49.3397 517.541 49.6897C517.168 50.0164 516.678 50.1797 516.071 50.1797C515.488 50.1797 515.021 49.993 514.671 49.6197C514.321 49.2464 514.146 48.7797 514.146 48.2197C514.146 47.6364 514.321 47.158 514.671 46.7847C515.021 46.388 515.476 46.1897 516.036 46.1897C516.596 46.1897 517.075 46.388 517.471 46.7847C517.891 47.1814 518.101 47.683 518.101 48.2897Z" fill="white"/>
<path d="M1383.25 285.452C1383.15 285.452 1383.02 285.289 1382.86 284.962C1382.7 284.635 1382.62 284.402 1382.62 284.262C1382.62 284.122 1382.63 284.04 1382.65 284.017C1384.47 283.504 1385.98 282.769 1387.17 281.812C1388.36 280.855 1388.95 279.724 1388.95 278.417C1388.95 277.087 1388.62 276.072 1387.97 275.372C1387.34 274.649 1386.55 274.287 1385.59 274.287C1384.66 274.287 1383.89 274.462 1383.28 274.812C1382.7 275.139 1382.41 275.524 1382.41 275.967C1382.41 276.177 1382.53 276.434 1382.79 276.737C1383.07 277.04 1383.21 277.425 1383.21 277.892C1383.21 278.685 1382.64 279.082 1381.5 279.082C1380.96 279.082 1380.54 278.93 1380.24 278.627C1379.93 278.324 1379.78 277.904 1379.78 277.367C1379.78 275.967 1380.42 274.8 1381.71 273.867C1383.01 272.934 1384.47 272.467 1386.08 272.467C1387.69 272.467 1389.06 273.004 1390.18 274.077C1391.32 275.127 1391.89 276.562 1391.89 278.382C1391.89 279.689 1391.42 280.797 1390.49 281.707C1389.56 282.594 1388.43 283.259 1387.1 283.702C1388.85 283.912 1390.3 284.624 1391.47 285.837C1392.66 287.027 1393.26 288.579 1393.26 290.492C1393.26 292.382 1392.46 294.074 1390.88 295.567C1389.31 297.037 1387.49 297.772 1385.42 297.772C1383.95 297.772 1382.62 297.41 1381.43 296.687C1380.26 295.94 1379.68 294.867 1379.68 293.467C1379.68 292.93 1379.83 292.51 1380.13 292.207C1380.46 291.904 1380.88 291.752 1381.39 291.752C1382.53 291.752 1383.11 292.149 1383.11 292.942C1383.11 293.315 1382.97 293.665 1382.69 293.992C1382.41 294.295 1382.27 294.517 1382.27 294.657C1382.27 295.03 1382.59 295.357 1383.25 295.637C1383.92 295.894 1384.59 296.022 1385.24 296.022C1386.76 296.022 1387.98 295.509 1388.92 294.482C1389.85 293.455 1390.32 292.125 1390.32 290.492C1390.32 288.835 1389.9 287.47 1389.06 286.397C1388.24 285.3 1387.18 284.752 1385.87 284.752C1385.01 284.752 1384.14 284.985 1383.28 285.452H1383.25ZM1400.76 295.532C1400.76 296.115 1400.57 296.582 1400.2 296.932C1399.82 297.259 1399.33 297.422 1398.73 297.422C1398.14 297.422 1397.68 297.235 1397.33 296.862C1396.98 296.489 1396.8 296.022 1396.8 295.462C1396.8 294.879 1396.98 294.4 1397.33 294.027C1397.68 293.63 1398.13 293.432 1398.69 293.432C1399.25 293.432 1399.73 293.63 1400.13 294.027C1400.55 294.424 1400.76 294.925 1400.76 295.532Z" fill="white"/>
<path d="M1645.93 196.243L1641.48 196.383C1641.41 196.313 1641.38 196.126 1641.38 195.823C1641.38 195.496 1641.45 195.263 1641.59 195.123C1642.52 195.123 1643.2 194.994 1643.62 194.738C1644.04 194.458 1644.26 193.991 1644.28 193.338L1644.21 189.628H1634.45C1634.33 189.558 1634.27 189.254 1634.27 188.718C1634.27 188.158 1634.33 187.819 1634.45 187.703L1645.05 171.778C1645.14 171.684 1645.34 171.638 1645.65 171.638C1645.95 171.638 1646.17 171.684 1646.31 171.778L1646.87 187.703H1650.3C1650.42 188.053 1650.48 188.414 1650.48 188.788C1650.48 189.161 1650.38 189.441 1650.2 189.628H1646.94L1647.08 193.338C1647.1 193.991 1647.31 194.458 1647.71 194.738C1648.13 194.994 1648.81 195.123 1649.74 195.123C1649.86 195.239 1649.92 195.473 1649.92 195.823C1649.92 196.149 1649.89 196.336 1649.85 196.383L1645.93 196.243ZM1644.28 175.663C1639.57 183.619 1637.21 187.621 1637.21 187.668C1637.21 187.691 1637.25 187.703 1637.32 187.703H1643.97C1644.13 187.703 1644.21 187.621 1644.21 187.458L1644.46 175.698C1644.46 175.628 1644.43 175.593 1644.39 175.593C1644.34 175.593 1644.3 175.616 1644.28 175.663ZM1657.26 194.493C1657.26 195.076 1657.07 195.543 1656.7 195.893C1656.33 196.219 1655.84 196.383 1655.23 196.383C1654.65 196.383 1654.18 196.196 1653.83 195.823C1653.48 195.449 1653.31 194.983 1653.31 194.423C1653.31 193.839 1653.48 193.361 1653.83 192.988C1654.18 192.591 1654.64 192.393 1655.2 192.393C1655.76 192.393 1656.23 192.591 1656.63 192.988C1657.05 193.384 1657.26 193.886 1657.26 194.493Z" fill="white"/>
<path d="M1900.97 213.103C1900.16 213.103 1899.41 213.231 1898.73 213.488C1898.08 213.721 1897.74 213.838 1897.72 213.838C1897.6 213.838 1897.47 213.651 1897.33 213.278C1897.19 212.905 1897.12 212.578 1897.12 212.298L1897.4 202.603C1897.4 202.183 1897.61 201.973 1898.03 201.973H1903.53C1904.7 201.973 1905.48 201.88 1905.87 201.693C1906.27 201.483 1906.62 200.958 1906.92 200.118C1906.97 200.071 1907.13 200.048 1907.41 200.048C1907.72 200.048 1907.97 200.13 1908.18 200.293L1906.99 203.898H1899.75C1899.49 203.898 1899.36 204.096 1899.36 204.493L1898.84 211.808C1899.77 211.598 1900.6 211.493 1901.32 211.493C1903.63 211.493 1905.54 212.205 1907.03 213.628C1908.52 215.028 1909.27 216.696 1909.27 218.633C1909.27 220.966 1908.59 222.938 1907.24 224.548C1905.91 226.135 1904.05 226.928 1901.67 226.928C1900.23 226.928 1898.91 226.555 1897.72 225.808C1896.55 225.061 1895.97 224 1895.97 222.623C1895.97 222.086 1896.12 221.666 1896.42 221.363C1896.73 221.06 1897.15 220.908 1897.68 220.908C1898.83 220.908 1899.4 221.305 1899.4 222.098C1899.4 222.471 1899.26 222.821 1898.98 223.148C1898.7 223.451 1898.56 223.673 1898.56 223.813C1898.56 224.186 1898.89 224.513 1899.54 224.793C1900.22 225.05 1900.87 225.178 1901.5 225.178C1903.02 225.178 1904.21 224.583 1905.07 223.393C1905.93 222.18 1906.36 220.698 1906.36 218.948C1906.36 217.175 1905.86 215.763 1904.86 214.713C1903.86 213.64 1902.56 213.103 1900.97 213.103ZM1916.4 224.688C1916.4 225.271 1916.22 225.738 1915.84 226.088C1915.47 226.415 1914.98 226.578 1914.37 226.578C1913.79 226.578 1913.32 226.391 1912.97 226.018C1912.62 225.645 1912.45 225.178 1912.45 224.618C1912.45 224.035 1912.62 223.556 1912.97 223.183C1913.32 222.786 1913.78 222.588 1914.34 222.588C1914.9 222.588 1915.38 222.786 1915.77 223.183C1916.19 223.58 1916.4 224.081 1916.4 224.688Z" fill="white"/>
<path d="M2231.58 128.037C2233 128.037 2234.08 127.442 2234.83 126.252C2235.58 125.039 2235.95 123.534 2235.95 121.737C2235.95 119.917 2235.46 118.494 2234.48 117.467C2233.5 116.441 2232.43 115.927 2231.26 115.927C2230.09 115.927 2229.09 116.289 2228.25 117.012C2227.41 117.712 2226.77 118.541 2226.33 119.497C2226.37 125.191 2228.12 128.037 2231.58 128.037ZM2235.11 107.247C2235.11 106.851 2234.87 106.547 2234.38 106.337C2233.91 106.104 2233.35 105.987 2232.7 105.987C2230.5 105.987 2228.8 107.376 2227.59 110.153C2227.33 110.759 2227.08 111.646 2226.85 112.812C2226.64 113.956 2226.45 115.379 2226.29 117.082C2227.69 115.286 2229.6 114.387 2232.03 114.387C2233.9 114.387 2235.5 115.146 2236.83 116.662C2238.18 118.179 2238.86 119.917 2238.86 121.877C2238.86 124.304 2238.18 126.229 2236.83 127.652C2235.5 129.076 2233.66 129.788 2231.33 129.788C2229.02 129.788 2227.13 128.808 2225.66 126.847C2224.19 124.864 2223.46 122.566 2223.46 119.952C2223.46 117.316 2223.78 114.831 2224.44 112.497C2225.11 110.164 2226.14 108.251 2227.52 106.757C2228.92 105.241 2230.48 104.482 2232.21 104.482C2233.93 104.482 2235.27 104.809 2236.23 105.462C2237.21 106.092 2237.7 107.026 2237.7 108.262C2237.7 108.799 2237.55 109.219 2237.25 109.522C2236.94 109.826 2236.52 109.977 2235.99 109.977C2234.84 109.977 2234.27 109.581 2234.27 108.787C2234.27 108.461 2234.41 108.146 2234.69 107.842C2234.97 107.516 2235.11 107.317 2235.11 107.247ZM2246.21 127.547C2246.21 128.131 2246.02 128.597 2245.65 128.947C2245.28 129.274 2244.79 129.438 2244.18 129.438C2243.6 129.438 2243.13 129.251 2242.78 128.877C2242.43 128.504 2242.25 128.037 2242.25 127.477C2242.25 126.894 2242.43 126.416 2242.78 126.042C2243.13 125.646 2243.58 125.447 2244.14 125.447C2244.7 125.447 2245.18 125.646 2245.58 126.042C2246 126.439 2246.21 126.941 2246.21 127.547Z" fill="white"/>
<path d="M2105.72 880.139C2108.76 880.442 2111.24 880.594 2113.18 880.594C2115.14 880.594 2117.1 880.559 2119.06 880.489C2119.24 880.699 2119.34 881.025 2119.34 881.469L2119.2 882.484L2111.15 905.094C2111.05 905.187 2110.51 905.234 2109.5 905.234C2108.5 905.234 2107.96 905.187 2107.89 905.094L2116.89 883.499L2116.92 882.939C2116.83 882.775 2116.49 882.694 2115.91 882.694H2108.31C2107.54 882.694 2106.94 882.892 2106.49 883.289C2106.05 883.685 2105.76 884.467 2105.62 885.634C2105.57 885.68 2105.37 885.704 2105.02 885.704C2104.7 885.704 2104.47 885.622 2104.36 885.459L2105.72 880.139ZM2124.1 903.204C2124.1 903.787 2123.91 904.254 2123.54 904.604C2123.17 904.93 2122.68 905.094 2122.07 905.094C2121.49 905.094 2121.02 904.907 2120.67 904.534C2120.32 904.16 2120.14 903.694 2120.14 903.134C2120.14 902.55 2120.32 902.072 2120.67 901.699C2121.02 901.302 2121.47 901.104 2122.03 901.104C2122.59 901.104 2123.07 901.302 2123.47 901.699C2123.89 902.095 2124.1 902.597 2124.1 903.204Z" fill="white"/>
<circle cx="359.242" cy="88.0547" r="5" fill="#838C94"/>
<circle cx="506.316" cy="88.0547" r="5" fill="#838C94"/>
<circle cx="506.059" cy="357.148" r="5" fill="#838C94"/>
<path d="M364.055 353.664C364.055 356.425 361.816 358.664 359.055 358.664C356.293 358.664 354.055 356.425 354.055 353.664C354.055 350.903 356.293 348.664 359.055 348.664C361.816 348.664 364.055 350.903 364.055 353.664Z" fill="#838C94"/>
<path d="M394.02 563.391C394.02 566.152 391.781 568.391 389.02 568.391C386.258 568.391 384.02 566.152 384.02 563.391C384.02 560.629 386.258 558.391 389.02 558.391C391.781 558.391 394.02 560.629 394.02 563.391Z" fill="#838C94"/>
<path d="M96.9922 563.484C96.9922 566.246 94.7536 568.484 91.9922 568.484C89.2308 568.484 86.9922 566.246 86.9922 563.484C86.9922 560.723 89.2308 558.484 91.9922 558.484C94.7536 558.484 96.9922 560.723 96.9922 563.484Z" fill="#838C94"/>
<path d="M638.75 788.898C638.75 791.66 636.511 793.898 633.75 793.898C630.989 793.898 628.75 791.66 628.75 788.898C628.75 786.137 630.989 783.898 633.75 783.898C636.511 783.898 638.75 786.137 638.75 788.898Z" fill="#838C94"/>
<path d="M393.695 851.766C393.695 854.527 391.457 856.766 388.695 856.766C385.934 856.766 383.695 854.527 383.695 851.766C383.695 849.004 385.934 846.766 388.695 846.766C391.457 846.766 393.695 849.004 393.695 851.766Z" fill="#838C94"/>
<path d="M639.117 1016.24C639.117 1019 636.879 1021.24 634.117 1021.24C631.356 1021.24 629.117 1019 629.117 1016.24C629.117 1013.48 631.356 1011.24 634.117 1011.24C636.879 1011.24 639.117 1013.48 639.117 1016.24Z" fill="#838C94"/>
<path d="M394.059 1009.11C394.059 1011.87 391.82 1014.11 389.059 1014.11C386.297 1014.11 384.059 1011.87 384.059 1009.11C384.059 1006.35 386.297 1004.11 389.059 1004.11C391.82 1004.11 394.059 1006.35 394.059 1009.11Z" fill="#838C94"/>
<path d="M829.719 899.969C829.719 902.73 827.48 904.969 824.719 904.969C821.957 904.969 819.719 902.73 819.719 899.969C819.719 897.207 821.957 894.969 824.719 894.969C827.48 894.969 829.719 897.207 829.719 899.969Z" fill="#838C94"/>
<path d="M829.719 651.156C829.719 653.918 827.48 656.156 824.719 656.156C821.957 656.156 819.719 653.918 819.719 651.156C819.719 648.395 821.957 646.156 824.719 646.156C827.48 646.156 829.719 648.395 829.719 651.156Z" fill="#838C94"/>
<path d="M1265.55 856.336C1265.55 859.097 1263.32 861.336 1260.55 861.336C1257.79 861.336 1255.55 859.097 1255.55 856.336C1255.55 853.575 1257.79 851.336 1260.55 851.336C1263.32 851.336 1265.55 853.575 1265.55 856.336Z" fill="#838C94"/>
<path d="M1265.56 605.742C1265.56 608.504 1263.32 610.742 1260.56 610.742C1257.8 610.742 1255.56 608.504 1255.56 605.742C1255.56 602.981 1257.8 600.742 1260.56 600.742C1263.32 600.742 1265.56 602.981 1265.56 605.742Z" fill="#838C94"/>
<path d="M1996.82 898.445C1996.82 901.207 1994.58 903.445 1991.82 903.445C1989.06 903.445 1986.82 901.207 1986.82 898.445C1986.82 895.684 1989.06 893.445 1991.82 893.445C1994.58 893.445 1996.82 895.684 1996.82 898.445Z" fill="#838C94"/>
<path d="M1996.82 610.109C1996.82 612.871 1994.58 615.109 1991.82 615.109C1989.06 615.109 1986.82 612.871 1986.82 610.109C1986.82 607.348 1989.06 605.109 1991.82 605.109C1994.58 605.109 1996.82 607.348 1996.82 610.109Z" fill="#838C94"/>
<path d="M1394.23 335.633C1394.23 338.394 1392 340.633 1389.23 340.633C1386.47 340.633 1384.23 338.394 1384.23 335.633C1384.23 332.871 1386.47 330.633 1389.23 330.633C1392 330.633 1394.23 332.871 1394.23 335.633Z" fill="#838C94"/>
<path d="M1394.23 510.469C1394.23 513.23 1392 515.469 1389.23 515.469C1386.47 515.469 1384.23 513.23 1384.23 510.469C1384.23 507.707 1386.47 505.469 1389.23 505.469C1392 505.469 1394.23 507.707 1394.23 510.469Z" fill="#838C94"/>
<path d="M1651.07 234.062C1651.07 236.824 1648.83 239.062 1646.07 239.062C1643.31 239.062 1641.07 236.824 1641.07 234.062C1641.07 231.301 1643.31 229.062 1646.07 229.062C1648.83 229.062 1651.07 231.301 1651.07 234.062Z" fill="#838C94"/>
<path d="M1651.07 535.539C1651.07 538.3 1648.83 540.539 1646.07 540.539C1643.31 540.539 1641.07 538.3 1641.07 535.539C1641.07 532.778 1643.31 530.539 1646.07 530.539C1648.83 530.539 1651.07 532.778 1651.07 535.539Z" fill="#838C94"/>
<path d="M1911.38 535.539C1911.38 538.3 1909.14 540.539 1906.38 540.539C1903.62 540.539 1901.38 538.3 1901.38 535.539C1901.38 532.778 1903.62 530.539 1906.38 530.539C1909.14 530.539 1911.38 532.778 1911.38 535.539Z" fill="#838C94"/>
<path d="M1911.38 262.023C1911.38 264.785 1909.14 267.023 1906.38 267.023C1903.62 267.023 1901.38 264.785 1901.38 262.023C1901.38 259.262 1903.62 257.023 1906.38 257.023C1909.14 257.023 1911.38 259.262 1911.38 262.023Z" fill="#838C94"/>
<path d="M2238.91 441.391C2238.91 444.152 2236.67 446.391 2233.91 446.391C2231.15 446.391 2228.91 444.152 2228.91 441.391C2228.91 438.629 2231.15 436.391 2233.91 436.391C2236.67 436.391 2238.91 438.629 2238.91 441.391Z" fill="#838C94"/>
<path d="M2238.91 167.797C2238.91 170.558 2236.67 172.797 2233.91 172.797C2231.15 172.797 2228.91 170.558 2228.91 167.797C2228.91 165.035 2231.15 162.797 2233.91 162.797C2236.67 162.797 2238.91 165.035 2238.91 167.797Z" fill="#838C94"/>
<path d="M2120.33 839.812C2120.33 842.574 2118.09 844.812 2115.33 844.812C2112.57 844.812 2110.33 842.574 2110.33 839.812C2110.33 837.051 2112.57 834.812 2115.33 834.812C2118.09 834.812 2120.33 837.051 2120.33 839.812Z" fill="#838C94"/>
<path d="M2120.33 583.273C2120.33 586.035 2118.09 588.273 2115.33 588.273C2112.57 588.273 2110.33 586.035 2110.33 583.273C2110.33 580.512 2112.57 578.273 2115.33 578.273C2118.09 578.273 2120.33 580.512 2120.33 583.273Z" fill="#838C94"/>
<path d="M388.73 851.22C389.072 931.904 388.712 929.066 389.054 1009.75" stroke="#838C94" stroke-dasharray="10 10"/>
</svg>
