<svg width="846" height="2636" viewBox="0 0 846 2636" fill="none" xmlns="http://www.w3.org/2000/svg">
<path d="M323.204 29.1955L325.437 21.7925M323.204 29.1955L318.16 40.0622C316.352 43.9569 315.992 48.3533 317.149 52.4883C320.643 64.9832 328.403 92.8132 332.661 108.708C333.709 112.621 334.59 115.967 335.399 119.136M323.204 29.1955C323.204 29.1955 325.95 52.9404 328.994 65.058C334.377 86.4862 341.76 102.394 346.457 123.983C349.937 139.975 350.71 142.989 352.052 155.514M325.437 21.7925C325.437 21.7925 330.727 22.2303 334.07 21.7925C339.998 21.0161 342.93 18.8094 348.385 16.3611C358.158 11.9746 362.849 6.70037 373.247 4.12388C382.134 1.92162 387.241 -0.192382 395.525 2.53811C397.612 3.22609 399.982 4.57417 401.995 5.87889C405.047 7.85675 406.766 11.267 407.003 14.896L408.112 31.9083C408.112 31.9083 401.96 32.9103 399.474 35.6104C395.361 40.0777 395.525 47.2109 399.474 51.1594C405.697 57.3816 410.584 60.318 419.219 62.019C421.793 62.5261 424.581 62.902 427.392 63.0533M325.437 21.7925C325.437 21.7925 326.172 30.2419 326.988 35.6104C328.764 47.304 330.009 52.1618 332.813 63.6524C335.102 73.0311 337.379 78.2253 339.997 87.6519C343.387 99.8633 345.539 106.678 347.866 119.136C350.391 132.657 352.052 155.514 352.052 155.514M436.742 33.5453C436.742 33.5453 451.547 44.1089 449.452 52.5164C447.243 61.3831 437.182 63.5803 427.392 63.0533M436.742 33.5453V14.138M436.742 33.5453L427.392 63.0533M436.742 14.138L437.057 13.8772C440.659 10.893 445.337 9.4914 449.944 10.301C452.923 10.8245 456.288 11.514 458.938 12.3234C471.674 16.2136 488.572 29.1933 488.572 29.1933C488.572 29.1933 497.56 38.2054 504.615 42.0274C509.218 44.5216 516.584 46.7486 519.068 47.4643C519.554 47.6044 519.864 48.0647 519.789 48.5652C519.086 53.2798 515.61 76.2888 512.547 91.0699C509.047 107.96 502.564 123.769 501.026 139.846M436.742 14.138L427.392 39.4383L426.217 46.0973L427.392 63.0533M502.449 220.373C500.22 196.785 500.542 183.788 500.661 158.639M502.449 220.373C502.449 220.373 507.211 218.645 509.204 220.373C510.081 221.133 510.793 222.885 510.793 222.885M502.449 220.373C503.357 229.986 504.248 238.018 505.28 245.394M500.666 484.556C500.666 484.556 496.431 447.302 502.147 424.582C504.877 413.729 507.214 407.787 512.019 397.68C519.322 382.316 535.467 362.522 539.568 357.603C540.139 356.918 540.196 355.952 539.709 355.205C537.653 352.05 532.257 343.662 529.542 338.445C528.736 336.896 528.001 335.397 527.327 333.936C525.322 329.594 523.851 325.594 522.644 321.653M500.666 484.556L502.703 485.838V492.801M500.666 484.556L493.038 483.79M342.898 297.175C346.883 277.255 346.783 265.679 347.866 245.394C347.866 245.394 349.429 212.425 347.866 191.395C346.318 170.564 339.997 138.488 339.997 138.488C339.492 136.238 339.024 134.176 338.575 132.23M342.898 297.175C342.898 297.175 346.187 288.377 347.866 282.604C352.941 265.147 353.061 254.655 354.57 236.538C356.987 207.504 355.598 190.853 352.704 161.864C352.467 159.483 352.253 157.391 352.052 155.514M342.898 297.175L331.943 295.91M342.898 297.175C342.6 298.665 342.336 300.062 342.088 301.393M327.955 338.742C327.955 338.742 333.521 329.555 336.576 322.162C339.841 314.264 340.696 308.88 342.088 301.393M327.955 338.742L317.998 351.401C317.398 352.164 317.429 353.245 318.072 353.972C321.036 357.323 329.255 366.709 334.447 373.54C347.096 390.182 353.865 400.072 362.602 419.062C371.52 438.448 379.056 471.167 379.056 471.167L383.202 486.706V583.914M327.955 338.742L341.064 351.384C341.064 351.384 356.647 368.579 364.006 381.348C373.725 398.213 377.336 409.071 381.095 428.169C383.33 439.519 383.559 460.076 383.439 473.249M327.955 338.742L331.792 350.905C331.891 351.219 332.057 351.494 332.291 351.726C334.782 354.189 350.033 369.45 357.665 381.348C363.399 390.287 365.981 395.744 370.097 405.534C378.283 425.003 383.202 458.003 383.202 458.003M383.202 588.589V583.914M383.202 588.589V678.359M383.202 588.589L475.695 593.834M378.53 1789.97H374.432M378.53 1789.97V1757.98M378.53 1789.97L466.288 1783.79M374.432 1789.97L375.469 1665.25M374.432 1789.97H362.459C360.802 1789.97 359.459 1791.31 359.459 1792.97V1879.73C359.459 1880.83 359.675 1881.92 360.188 1882.9C360.646 1883.76 361.268 1884.82 361.907 1885.53V1885.53C364.194 1888.06 367.953 1888.38 371.349 1888.06L467.926 1879.08M376.416 1551.47L378.896 1481.3M376.416 1551.47C376.416 1551.47 374.159 1581 366.203 1588.93C356.15 1598.96 354.398 1613.31 354.398 1613.31C354.398 1613.31 341.442 1633.88 329.945 1644.02C311.025 1660.7 295.094 1664 270.673 1663.96C244.172 1663.91 228.768 1655.49 207.09 1640.25C195.318 1631.97 177.116 1615.11 177.116 1615.11M376.416 1551.47L375.708 1636.52M378.896 1481.3L378.924 1474.16M378.896 1481.3L378.784 1510.14M506.294 684.775L504.571 595.472M506.294 684.775L383.202 678.359M506.294 684.775V690.691M502.703 492.801L504.487 590.831M502.703 492.801L436.717 487.194M331.943 295.91V301.393M331.943 295.91C331.943 295.91 332.235 285.121 327.955 285.62C325.486 285.909 322.855 287.939 322.855 287.939M331.943 301.393H342.088M331.943 301.393V309.453C331.943 309.453 329.931 312.338 327.955 312.703C324.758 313.292 321.636 307.286 321.636 307.286M321.636 307.286V291.037L322.855 287.939M321.636 307.286L313.106 318.042C311.935 319.518 310.139 320.359 308.255 320.311L279.828 319.602C278.925 319.579 278.154 318.965 277.959 318.084C276.946 313.515 274.102 299.363 275.41 289.762C276.351 282.855 280.106 273.422 281.629 269.794C281.999 268.913 282.947 268.442 283.879 268.655L310.265 274.695C311.551 274.989 312.703 275.699 313.545 276.714L322.855 287.939M347.866 209.241H333.925M333.925 209.241V216.942M333.925 209.241V202.572C333.925 201.925 333.613 201.316 333.059 200.981C331.869 200.262 329.68 199.115 327.955 199.212C325.769 199.336 322.855 201.54 322.855 201.54M333.925 216.942H347.866M333.925 216.942V221.362C333.925 221.75 333.815 222.128 333.585 222.441C332.709 223.635 330.281 226.613 327.955 226.433C325.312 226.229 322.855 221.956 322.855 221.956M322.855 201.54V221.956M322.855 201.54L313.547 191.17C312.702 190.228 311.581 189.578 310.344 189.311L283.856 183.614C282.934 183.415 282.002 183.884 281.638 184.754C279.997 188.671 275.731 199.544 275.41 207.45C275.056 216.165 279.199 228.53 280.624 232.498C280.903 233.276 281.64 233.776 282.466 233.776H310.46C312.275 233.776 313.993 232.954 315.132 231.541L322.855 221.956M334.342 119.136C334.342 119.136 333.834 112.281 330.738 112.051C328.95 111.917 326.588 114.017 326.588 114.017M334.342 119.136H335.399M334.342 119.136V133.895M326.588 137.39C326.588 137.39 328.259 142.227 330.738 142.196C332.142 142.179 333.773 139.494 334.222 138.704C334.303 138.562 334.342 138.403 334.342 138.239V133.895M326.588 137.39V114.017M326.588 137.39L316.482 145.513C315.456 146.337 314.189 146.801 312.873 146.834L286.02 147.508C285.088 147.531 284.268 146.918 284.057 146.01C282.949 141.256 279.821 126.529 281.095 116.793C282.089 109.197 285.961 99.841 287.557 96.2178C287.95 95.3256 288.937 94.8764 289.876 95.1391L317.354 102.825C318.731 103.21 319.926 104.075 320.722 105.263L326.588 114.017M335.399 119.136C336.512 123.498 337.488 127.524 338.575 132.23M334.342 133.895L338.575 132.23M501.026 139.846C500.811 142.094 500.692 144.348 500.692 146.611C500.692 150.935 500.679 154.92 500.661 158.639M501.026 139.846L510.827 130.869C511.933 129.856 513.379 129.294 514.879 129.294H542.686C543.569 129.294 544.342 129.864 544.571 130.716C545.778 135.219 549.161 149.412 546.618 158.639C544.599 165.964 537.534 174.914 535.169 177.769C534.693 178.344 533.936 178.58 533.211 178.404L511.61 173.161C510.069 172.787 508.739 171.818 507.91 170.466L500.661 158.639M505.28 245.394C507.536 261.525 510.467 274.514 515.721 294.02C517.094 299.116 518.128 303.641 519.109 307.891M505.28 245.394L508.831 242.862M510.793 222.885L512.383 225.397C512.383 225.397 516.362 236.067 512.383 240.331C511.221 241.576 508.831 242.862 508.831 242.862M510.793 222.885L519.799 214.459C521.003 213.333 522.617 212.751 524.262 212.851L552.308 214.553C553.149 214.604 553.864 215.168 554.073 215.984C555.143 220.166 558.05 233.229 555.425 242.862C553.617 249.499 548.197 259.528 546.171 263.154C545.719 263.962 544.77 264.336 543.883 264.071L523.329 257.923C522.254 257.602 521.291 256.986 520.549 256.144L508.831 242.862M519.109 307.891H521.685M519.109 307.891C520.217 312.685 521.257 317.13 522.644 321.653M521.685 307.891L522.644 321.653M521.685 307.891L523.255 309.496C523.255 309.496 528.409 313.36 533.142 315.822M522.644 321.653C522.644 321.653 528.326 328.672 531.967 333.936M521.685 307.482V307.482C522.643 305.817 524.478 304.856 526.393 305.016L555.47 307.446C555.76 307.47 556.041 307.557 556.294 307.702L564.216 312.222C564.84 312.578 565.225 313.241 565.225 313.959V318.471M565.225 318.471V334.347C565.225 335.511 564.234 336.429 563.073 336.341L547.269 335.134C547.269 335.134 537.943 333.936 531.967 333.936M565.225 318.471C565.225 318.471 544.799 316.866 533.142 315.822M533.142 315.822C533.142 323.094 532.849 326.718 531.967 333.936M383.439 473.249H388.173M383.439 473.249C383.395 478.141 383.258 483.517 383.202 485.523L388.173 483.069M388.173 473.249V483.069M388.173 473.249L396.485 474.085M388.173 483.069L436.717 487.194M411.952 475.639C411.952 475.639 409.636 427.215 422.658 401.043C424.844 396.648 426.094 392.155 427.468 388.185M411.952 475.639L417.227 476.17M411.952 475.639L396.485 474.085M474.414 481.918C474.414 481.918 472.732 461.634 471.009 450.057C468.617 433.985 462.068 411.641 462.068 411.641C462.068 411.641 455.818 374.423 440.872 375.543C432.523 376.168 429.813 381.414 427.468 388.185M474.414 481.918L456.563 480.124M474.414 481.918L493.038 483.79M383.202 583.914L504.487 590.831M504.487 590.831L504.571 595.472M504.571 595.472L475.695 593.834M383.202 678.359V684.775M383.202 684.775V768.441M383.202 684.775L459.089 688.422M506.294 690.691L507.594 772.552M506.294 690.691L459.089 688.422M383.202 768.441L507.594 772.552M383.202 768.441V774.601M507.594 772.552L507.699 779.206M383.202 774.601V814.085L382.883 852.881M383.202 774.601L507.699 779.206M507.699 779.206L508.938 857.231M382.883 852.881L382.828 859.553M382.883 852.881L436.717 854.739M508.938 857.231L509.023 862.627M508.938 857.231L436.717 854.739M382.828 859.553L382.227 932.694M382.828 859.553L459.089 861.411M509.023 862.627L510.168 934.759M509.023 862.627L459.089 861.411M382.227 932.694L510.168 934.759M382.227 932.694L382.174 939.109M510.168 934.759L510.237 939.109M382.174 939.109H510.237M382.174 939.109L381.606 1008.15M510.237 939.109L510.667 966.183L511.567 1009.42M381.606 1008.15L381.558 1014.05M381.606 1008.15L502.041 1009.32M511.567 1009.42L511.664 1014.05M511.567 1009.42L502.041 1009.32M381.558 1014.05H511.664M381.558 1014.05L381.028 1078.47M511.664 1014.05L513.005 1078.47M381.028 1078.47H513.005M381.028 1078.47L380.981 1084.12M513.005 1078.47L513.122 1084.12M380.981 1084.12H513.122M380.981 1084.12L380.498 1142.89M513.122 1084.12L514.346 1142.89M380.498 1142.89H514.346M380.498 1142.89L380.435 1150.58M514.346 1142.89L514.479 1149.27M380.435 1150.58L379.981 1205.77M380.435 1150.58L461.801 1149.27M514.479 1149.27L515.655 1205.77M514.479 1149.27H461.801M379.981 1205.77L379.953 1209.11L379.944 1211.41M379.981 1205.77H504.13M515.655 1205.77L515.772 1211.41M515.655 1205.77H504.13M379.944 1211.41H515.772M379.944 1211.41L379.739 1264.28M515.772 1211.41L516.835 1262.48M379.739 1264.28L379.716 1270.18M379.739 1264.28L439.54 1263.49M516.835 1262.48L516.948 1267.87M516.835 1262.48L439.54 1263.49M379.716 1270.18L516.948 1267.87M379.716 1270.18L379.52 1320.74M516.948 1267.87L517.572 1297.88L517.924 1317.41M379.52 1320.74L517.924 1317.41M379.52 1320.74L379.497 1326.64M517.924 1317.41L518.022 1322.8M379.497 1326.64L379.32 1372.06M379.497 1326.64L394.755 1326.22M518.022 1322.8L518.854 1368.99M518.022 1322.8L394.755 1326.22M379.32 1372.06L518.854 1368.99M379.32 1372.06L379.292 1379.25M518.854 1368.99L518.942 1373.85M379.292 1379.25L379.132 1420.58M379.292 1379.25L417.227 1377.79M518.942 1373.85L519.728 1417.49M518.942 1373.85L417.227 1377.79M379.132 1420.58L519.728 1417.49M379.132 1420.58L379.108 1426.73M519.728 1417.49L519.821 1422.61M379.108 1426.73L519.821 1422.61M379.108 1426.73L378.952 1467.03M519.821 1422.61L520.529 1461.89M378.952 1467.03L520.529 1461.89M378.952 1467.03L378.924 1474.16M520.529 1461.89L520.621 1467.03M378.924 1474.16L463.916 1469.88M520.621 1467.03L521.316 1505.54M520.621 1467.03L463.916 1469.88M378.784 1510.14L521.316 1505.54M378.784 1510.14L378.761 1516.04M521.316 1505.54L521.399 1510.14M378.761 1516.04L452.948 1513.73L521.399 1510.14M378.761 1516.04L378.624 1551.47M521.399 1510.14L522.034 1545.38M378.624 1551.47L456.827 1548.64L511.975 1545.88M378.624 1551.47L378.598 1558.17M522.034 1545.38L522.144 1551.47M522.034 1545.38L511.975 1545.88M378.598 1558.17L378.53 1575.71V1590.71M378.598 1558.17L522.144 1551.47M522.144 1551.47L522.726 1583.8M378.53 1590.71L522.726 1583.8M378.53 1590.71V1596.62M522.726 1583.8L522.821 1589.05M378.53 1596.62L522.821 1589.05M378.53 1596.62V1625.87M522.821 1589.05L523.36 1618.98M378.53 1625.87L523.36 1618.98M378.53 1625.87V1632.77M523.36 1618.98L523.449 1623.91M378.53 1632.77V1660.7M378.53 1632.77L466.288 1627.4M523.449 1623.91L523.643 1634.64M523.449 1623.91L466.288 1627.4M378.53 1660.7L523.964 1652.49M378.53 1660.7V1666.95M523.964 1652.49L524.015 1655.3L524.05 1657.1M523.964 1652.49L523.804 1643.57M378.53 1666.95L524.05 1657.1M378.53 1666.95V1693.24M524.05 1657.1L524.565 1683.69M524.05 1657.1C524.05 1657.1 530.47 1664.18 535.238 1667.63C550.322 1678.53 560.561 1682.54 579.545 1685.19C598.674 1687.86 612.563 1685.74 630.982 1679.93C645.005 1675.5 652.228 1670.82 664.385 1662.54C678.864 1652.69 696.152 1633.33 701.473 1627.2C702.579 1625.93 703.734 1624.72 704.972 1623.57V1623.57C709.438 1619.44 715.261 1615.85 721.023 1617.8C722.331 1618.24 723.58 1618.9 724.609 1619.88C729.559 1624.55 733.698 1629.27 734.468 1636.03C736.129 1650.63 734.339 1655.79 730.835 1673.49C724.435 1705.81 707.747 1728.25 697.212 1759.48C686.662 1790.75 678.417 1808.57 677.055 1841.54C675.927 1868.86 678.129 1884.74 685.694 1911.02C693.581 1938.4 716.282 1969.04 732.374 1988.36C743.168 2001.31 751.099 2016.71 751.697 2033.56C752.44 2054.49 751.147 2083.57 740.693 2102.77C727.076 2127.78 687.92 2145.93 687.92 2145.93C687.92 2145.93 667.095 2121.78 651.859 2110.79C633.791 2097.75 621.493 2092.22 599.666 2087.75C586.41 2085.04 565.11 2085.23 565.11 2085.23M378.53 1693.24L524.565 1683.69M378.53 1693.24V1698.83M524.565 1683.69L524.674 1689.28M378.53 1698.83V1723.8M378.53 1698.83L417.227 1696.3M524.674 1689.28L525.285 1713.94M524.674 1689.28L417.227 1696.3M378.53 1723.8L525.285 1713.94M378.53 1723.8V1730.04M525.285 1713.94V1720.85M378.53 1730.04L525.285 1720.85M378.53 1730.04V1752.72M525.285 1720.85L526.233 1744.18M384.117 101.31C383.759 96.6187 387.833 92.8537 392.535 92.6914C397.403 92.5235 401.922 96.452 401.554 101.31C401.413 103.163 400.644 104.761 399.474 105.993M384.117 101.31C384.117 101.31 379.688 103.383 377.709 105.993M384.117 101.31C384.174 102.06 384.331 102.766 384.574 103.422M384.117 101.31L383 89.4069M378.53 1752.72L526.233 1744.18M378.53 1752.72V1757.98M526.233 1744.18V1747.79M378.53 1757.98L526.233 1747.79M526.233 1747.79V1769.76H522.827V1776.4M177.116 1615.11H143.601H138.193C138.193 1615.11 137.49 1612.01 137.704 1608.99M177.116 1615.11C177.116 1615.11 181.323 1605.25 177.079 1604.13C175.856 1603.8 176.023 1603.82 174.794 1604.13C172.185 1604.78 173.213 1608.99 173.213 1608.99H165.718M150.366 1608.99H143.601C143.601 1608.99 143.84 1606.52 143.601 1605.27C143.211 1603.23 140.435 1603.5 139.648 1604.13C138.349 1605.17 137.841 1607.07 137.704 1608.99M150.366 1608.99H164.065H165.718M150.366 1608.99L151.165 1601.02M150.366 1591.37C147.93 1591.03 146.115 1590.68 146.115 1590.68C148.947 1586.55 148.314 1585.47 153.325 1585.47C156.326 1585.47 159.281 1585.47 162.919 1585.47C168.142 1585.47 169.317 1585.68 170.837 1590.68C170.837 1590.68 168.211 1591.13 164.995 1591.51M150.366 1591.37C152.517 1591.68 155.151 1591.97 157.445 1592.01C159.694 1592.05 162.519 1591.8 164.995 1591.51M150.366 1591.37V1594.25M150.366 1594.25H140.521C140.521 1599.24 145.674 1600.67 151.165 1601.02M150.366 1594.25H164.995M164.995 1591.51V1594.25M164.995 1594.25H173.213C174.093 1600.01 169.344 1600.99 164.065 1601.1M151.165 1601.02C153.163 1601.14 155.205 1601.13 157.06 1601.08C159.19 1601.03 161.682 1601.15 164.065 1601.1M164.065 1601.1L165.718 1608.99M137.704 1608.99C131.339 1615.44 123.95 1625.23 119.708 1637.64C113.829 1654.84 114.067 1664.01 116.019 1680.45C117.97 1696.9 129.659 1724.07 129.659 1724.07M129.659 1724.07C129.659 1724.07 144.934 1754.91 154.16 1774.42C158.542 1783.69 162.316 1790.58 165.799 1797.6M129.659 1724.07C129.659 1724.07 115.082 1670.93 132.581 1645.87C139.936 1635.34 144.881 1626.84 157.06 1623.91C163.647 1622.32 168.252 1622.14 174.794 1623.91C181.317 1625.66 186.889 1631.03 189.948 1634.51C191.712 1636.52 193.382 1638.59 195.287 1640.47C202.182 1647.25 220.337 1664.39 234.426 1671.31C250.732 1679.32 262.146 1682.74 280.287 1683.69C298.799 1684.66 309.974 1682.87 327.085 1675.74C337.716 1671.31 343.367 1667.78 352.457 1660.7C362.797 1652.66 375.708 1636.52 375.708 1636.52M719.707 1594.35C719.707 1594.35 723.817 1596.15 730.835 1602.11C747.756 1616.5 752.57 1632.69 748.865 1659.73C747.284 1671.28 746.176 1673.28 738.172 1698.69C734.608 1710 715.738 1751.94 715.738 1751.94C715.738 1751.94 683.417 1833.97 695.252 1882.83C703.364 1916.32 716.264 1926.35 737.021 1955.3C761.074 1988.84 775.963 2008.57 797.004 2047.52C824.247 2097.94 840.905 2136.8 844.266 2199.03C845.628 2224.25 845.69 2231.97 841.638 2263.84C837.586 2295.7 827.913 2326.55 812.574 2365.66C796.322 2407.1 776.503 2435.6 752.76 2465.28C738.766 2482.77 722.927 2500.5 702.91 2516.57C638.585 2568.2 602.719 2586.78 520.91 2606.84C446.059 2625.19 407.758 2631.68 331.028 2634.71C281.577 2636.67 257.36 2632.9 205.094 2615.51C165.583 2602.36 133.403 2584.45 102.691 2556.34C88.747 2543.57 81.3841 2535.73 69.7895 2520.9C53.3043 2499.81 34.9795 2462.48 34.9795 2462.48C34.9795 2462.48 22.1151 2428.02 15.8839 2401.3C8.63205 2370.22 2.81733 2346.83 3.35006 2314.91C3.43284 2309.95 3.52156 2305.61 3.67213 2301.55M719.707 1594.35C719.707 1594.35 698.829 1580.38 686.784 1578.2C682.849 1577.48 679.603 1577.7 677.804 1577.93C676.793 1578.07 675.884 1578.56 675.144 1579.26C672.001 1582.25 663.038 1590.86 657.729 1597.16C645.036 1612.21 636.543 1621.04 619.894 1630.94C608.404 1637.77 601.525 1641.11 588.513 1644.17C572.153 1648.02 561.533 1648.67 545.248 1644.17C538.829 1642.4 530.414 1638.22 526.233 1636.03M719.707 1594.35C719.707 1594.35 710.01 1594.14 704.215 1595.88C696.87 1598.08 689.787 1606.65 687.527 1609.59C687.019 1610.25 686.539 1610.91 686.028 1611.57C682.826 1615.69 670.042 1631.8 659.18 1640.15C645.498 1650.67 636.402 1657.98 619.894 1663.01C604.014 1667.85 594.154 1668.7 577.664 1666.77C564.457 1665.23 556.712 1662.74 545.248 1655.3C537.009 1649.95 526.233 1636.03 526.233 1636.03M523.643 1634.64L523.804 1643.57M523.643 1634.64C523.643 1634.64 524.625 1635.19 526.233 1636.03M375.708 1636.52L375.614 1647.86M375.614 1647.86C375.614 1647.86 364.006 1663.55 354.398 1671.31C344.815 1679.04 338.581 1682.66 327.085 1687.07C309.877 1693.68 298.676 1694.52 280.287 1693.24C261.739 1691.95 251.125 1688.63 234.426 1680.45C220.568 1673.67 204.115 1658.95 196.59 1651.85C193.805 1649.23 191.369 1646.28 188.823 1643.42C185.403 1639.58 180.038 1634.39 174.794 1632.77C168.322 1630.77 163.861 1630.59 157.445 1632.77C148.576 1635.78 139.648 1647.86 139.648 1647.86C139.648 1647.86 131.512 1659.42 129.659 1671.99C127.52 1686.51 128.739 1703.75 132.581 1717.91C136.291 1731.58 142.107 1737.86 148.219 1750.65C160.095 1775.49 169.998 1788.1 178.675 1814.22C183.892 1829.93 186.176 1839.02 188.954 1855.34C190.914 1866.85 191.938 1873.37 192.38 1885.03C193.288 1908.98 192.38 1926.91 182.792 1948.64L164.97 1978.31C164.97 1978.31 137.663 2016.44 121.19 2041.88C96.2999 2080.32 81.3531 2101.79 60.6589 2142.84C45.6873 2172.54 36.5107 2190.27 26.3961 2221.95C18.5981 2246.38 14.4885 2259.73 11.5489 2284.77C10.1733 2296.48 9.64538 2314.91 9.64538 2314.91C9.64538 2314.91 8.56503 2337.65 9.64538 2352.15C11.7034 2379.78 16.8833 2394.91 24.8733 2421.44C30.1083 2438.82 33.0005 2448.68 40.4819 2465.22C49.8457 2485.92 55.9975 2497.42 69.7895 2515.47C88.6308 2540.13 102.805 2554.1 128.804 2571.05C128.804 2571.05 147.45 2583.86 160.099 2590.88C179.321 2601.55 190.804 2606.45 211.534 2613.77C232.378 2621.14 244.402 2624.88 266.238 2628.34C294.228 2632.77 310.56 2631.7 338.887 2630.91C375.381 2629.89 395.725 2626.56 431.838 2621.21C464.138 2616.42 482.227 2613.11 513.895 2605.15C544.278 2597.51 561.751 2593.88 590.6 2581.66C608.902 2573.92 618.9 2568.82 636.064 2558.8C654.744 2547.89 664.674 2540.79 681.895 2527.7C692.954 2519.3 699.142 2514.52 709.456 2505.22C719.384 2496.26 724.873 2491.47 733.935 2481.64C746.971 2467.51 753.763 2459.03 764.942 2443.39C774.087 2430.58 778.642 2422.72 786.519 2408.93C793.125 2397.38 796.763 2390.83 802.423 2378.78C808.857 2365.08 811.928 2357.13 817.031 2342.88C822.723 2326.99 825.585 2317.92 829.658 2301.53C833.226 2287.18 834.914 2279.02 837.086 2264.39C839.297 2249.5 840.572 2241.07 840.8 2226.02C841.07 2208.17 839.398 2198.16 837.086 2180.46C833.984 2156.71 832.883 2142.98 825.201 2120.29C820.368 2106.02 816.262 2098.53 809.85 2084.89C799.988 2063.91 793.83 2052.41 782.12 2032.4C768.818 2009.67 760.033 1997.73 745.229 1975.95C730.95 1954.94 708.892 1924.51 702.796 1916.13C701.719 1914.65 700.867 1913.06 700.239 1911.34C697.831 1904.75 691.541 1887.2 689.735 1879.01C685.689 1860.66 689.089 1839.2 689.089 1839.2C691.001 1818.46 693.888 1807.56 699.804 1786.95C707.056 1761.7 715.176 1747.52 725.173 1723.22C730.889 1709.32 733.56 1703.72 739.64 1687.57C745.549 1671.88 748.561 1656.81 746.674 1640.15C745.267 1627.74 743.767 1618.92 734.468 1610.58C729.132 1605.8 725.347 1602.42 718.186 1602.11C712.477 1601.87 709.325 1603.9 704.215 1606.46C693.073 1612.04 691.328 1621.04 682.557 1629.89C670.137 1642.42 662.781 1650.5 647.745 1659.73C635.586 1667.2 614.178 1673.49 614.178 1673.49C614.178 1673.49 586.285 1678.27 567.677 1672.55C557.977 1669.57 552.298 1667.19 544.098 1661.21C535.591 1655.01 523.804 1643.57 523.804 1643.57M375.614 1647.86L375.469 1665.25M375.469 1665.25C375.469 1665.25 363.47 1677.59 354.398 1683.69C342.564 1691.66 334.853 1694.85 321.152 1698.83C307.71 1702.72 299.66 1703.74 285.664 1703.83C266.83 1703.94 255.723 1702.26 238.174 1695.43C220.126 1688.39 211.269 1681.06 196.514 1668.51C189.527 1662.57 180.819 1653.97 175.957 1649.07C173.473 1646.56 170.682 1644.24 167.269 1643.35C166.574 1643.17 165.883 1643.04 165.253 1643C159.71 1642.69 156.661 1645.62 152.513 1649.31C149.392 1652.09 146.634 1659.3 144.873 1664.86C143.381 1669.56 142.821 1674.48 142.878 1679.41C142.946 1685.23 143.15 1693.26 143.733 1698.87C145.997 1720.64 161.374 1748.86 164.805 1754.93C165.259 1755.74 165.703 1756.51 166.147 1757.32C169.024 1762.57 180.538 1783.83 186.741 1798.81C192.947 1813.79 196.119 1822.39 200.285 1838.07C203.882 1851.59 205.777 1859.3 207.315 1873.21C208.822 1886.86 208.172 1908.36 208.172 1908.36C208.172 1908.36 206.186 1922.16 204.057 1930.82C200.407 1945.66 197.153 1953.74 190.856 1967.68C184.884 1980.89 175.503 1998.62 175.503 1998.62C175.503 1998.62 194.732 1998.62 206.827 1998.62C223.636 1998.62 227.986 1999.9 241.008 2003.38C255.64 2007.28 265.01 2009.53 278.094 2017.16C291.25 2024.83 298.719 2029.69 308.781 2041.12C317.153 2050.63 325.027 2067.54 325.027 2067.54L379.421 2061.88M565.11 2085.23V2045.91C565.11 2044.13 563.57 2042.74 561.8 2042.92L520.014 2047.27M565.11 2085.23L565.968 2156.6C565.995 2158.87 565.86 2161.24 564.675 2163.17V2163.17V2163.17C563.719 2164.72 561.923 2165.5 560.112 2165.73L344.655 2193.45C341.031 2193.92 336.867 2194.19 334.284 2191.61V2191.61C331.977 2189.3 331.683 2183.67 331.683 2183.67L330.621 2075.2C330.609 2073.92 331.012 2072.66 331.771 2071.63V2071.63C332.687 2070.38 334.055 2069.53 335.583 2069.27L379.421 2061.88M239.159 1759.81L234.815 1761.46M239.159 1759.81C239.159 1759.81 245.517 1761.21 248.126 1765.4M239.159 1759.81V1756.66C239.159 1756.02 238.564 1755.55 237.938 1755.69L233.438 1756.71C232.769 1756.86 232.448 1757.62 232.808 1758.21L234.815 1761.46M234.815 1761.46C234.815 1761.46 230.921 1766.42 231.611 1770.69M236.233 1782.15C222.624 1783.26 212.996 1774.31 213.638 1760.47C214.24 1747.47 225.169 1737.56 238.174 1737.93C251.539 1738.31 262.26 1749.78 261.363 1763.12C261.363 1763.12 261.399 1770.2 258.701 1773.3C256.865 1775.41 252.586 1777.03 252.586 1777.03M236.233 1782.15C236.233 1782.15 240.735 1785.6 245.483 1783.67C249.239 1782.14 252.108 1779.6 252.586 1777.03M236.233 1782.15C235.014 1781.05 233.584 1777.55 232.851 1775.65M231.611 1770.69C232.01 1773.15 232.067 1773.62 232.851 1775.65M231.611 1770.69C231.611 1770.69 229.301 1768.65 228.517 1766.22V1766.22C226.604 1760.28 228.154 1753.39 234.082 1751.45C235.583 1750.96 237.014 1750.64 238.174 1750.65C243.634 1750.68 248.017 1755.01 248.126 1760.47V1765.4M248.126 1765.4C250.216 1768.74 251.587 1772.09 252.503 1775.21C252.679 1775.81 252.7 1776.42 252.586 1777.03M232.851 1775.65C232.851 1775.65 227.602 1775.22 225.232 1772.28C222.228 1768.55 221.389 1764.41 221.923 1760.47C223.07 1752.02 229.648 1745.79 238.174 1745.89C246.599 1745.98 253.062 1750.83 253.895 1759.21C254.727 1767.59 249.699 1767.52 249.355 1767.85M522.827 1776.4V1779.81L466.288 1783.79M522.827 1776.4L534.481 1775.9C537.654 1775.77 540.301 1778.3 540.301 1781.48V1781.48V1861.62C540.301 1864.84 539.88 1868.34 537.514 1870.53V1870.53C536.728 1871.25 535.503 1871.93 534.561 1872.4C533.68 1872.83 532.717 1873.06 531.739 1873.15L492.603 1876.79M165.799 1797.6C169.248 1804.55 172.411 1811.62 175.599 1821.26C181.032 1837.68 184.992 1864.55 184.992 1864.55C184.992 1864.55 189.464 1898.37 184.992 1919.27C181.146 1937.24 177.497 1947.66 167.024 1962.76C159.33 1973.85 149.482 1987 141.948 1996.89C134.358 2006.85 126.858 2016.87 119.765 2027.19C110.548 2040.59 97.3051 2060.17 88.0062 2075.26C72.1039 2101.07 63.163 2115.62 49.8178 2142.84C37.4241 2168.12 30.8876 2186.49 21.8944 2213.16C14.5358 2234.99 10.9854 2247.25 7.25732 2268.5C4.91527 2281.85 4.07372 2290.71 3.67213 2301.55M165.799 1797.6C165.799 1797.6 174.428 1828.71 175.503 1849.18C176.382 1865.91 177.268 1875.8 173.078 1892.02C164.478 1925.33 131.416 1970.02 118.172 1987.01C114.52 1991.69 110.998 1996.38 107.756 2001.36C95.2009 2020.64 61.5008 2073.78 43.1917 2116.17C22.3994 2164.3 4.67357 2194.61 1.69801 2246.95C0.436945 2269.14 3.67213 2301.55 3.67213 2301.55M763.777 2215.86C764.218 2217.19 764.525 2218.63 764.688 2220.17C765.787 2230.54 758.084 2239.35 748.02 2241.24C744.246 2241.94 740.46 2241.06 737.214 2239.13M763.777 2215.86C761.541 2209.11 755.857 2205.12 748.02 2204.75C736.683 2204.22 726.539 2214.79 728.207 2226.02C728.559 2228.39 729.431 2230.66 730.686 2232.69M763.777 2215.86C763.777 2215.86 763.478 2213.49 762.436 2210.74M759.027 2205.13C753.884 2199.97 747.727 2199.69 740.693 2201.61C733.321 2203.62 728.761 2207.64 726.32 2214.88C723.717 2222.6 730.686 2232.69 730.686 2232.69M759.027 2205.13C759.027 2205.13 753.917 2195.43 748.02 2192.8C739.099 2188.83 730.461 2191.89 723.804 2199.03C718.437 2204.79 716.303 2210.56 717.828 2218.28C719.427 2226.37 731.719 2234.2 731.719 2234.2M759.027 2205.13C760.624 2206.74 761.711 2208.83 762.436 2210.74M730.686 2232.69C731.006 2233.21 731.351 2233.72 731.719 2234.2M731.719 2234.2C733.221 2236.19 735.104 2237.88 737.214 2239.13M762.436 2210.74C762.436 2210.74 763.942 2199.36 761.466 2192.8C759.789 2188.37 754.659 2184.53 749.917 2181.78C744.183 2178.47 737.266 2178.52 730.999 2180.67L726.433 2182.23C719.816 2184.49 714.463 2189.45 711.688 2195.87L711.279 2196.81C707.885 2204.67 707.284 2213.44 709.578 2221.69L709.689 2222.09C711.28 2227.8 715.056 2232.66 720.202 2235.62V2235.62C724.21 2237.92 728.753 2239.13 733.375 2239.13H737.214M658.839 2273.35C659.281 2274.68 659.588 2276.12 659.751 2277.66C660.849 2288.04 653.146 2297.82 643.082 2299.7C639.308 2300.41 635.522 2299.53 632.276 2297.6M658.839 2273.35C656.603 2266.6 652.386 2263.11 644.549 2262.74C633.212 2262.21 621.49 2273.26 623.158 2284.49C623.511 2286.86 624.382 2289.13 625.638 2291.16M658.839 2273.35C658.839 2273.35 658.541 2270.98 657.499 2268.24M653.979 2263.6C648.836 2258.43 643.757 2257.79 636.722 2259.71C629.351 2261.72 625.6 2267.33 623.158 2274.56C620.556 2282.28 625.638 2291.16 625.638 2291.16M653.979 2263.6C653.979 2263.6 651.245 2254.35 645.348 2251.72C636.427 2247.75 626.608 2251.61 619.95 2258.75C614.584 2264.51 612.515 2270.84 614.04 2278.56C615.639 2286.65 626.67 2292.67 626.67 2292.67M653.979 2263.6C655.576 2265.21 656.773 2266.33 657.499 2268.24M625.638 2291.16C625.958 2291.68 626.303 2292.18 626.67 2292.67M626.67 2292.67C628.173 2294.65 630.166 2296.35 632.276 2297.6M657.499 2268.24C657.499 2268.24 661.315 2259.39 658.839 2252.84C657.163 2248.4 653.715 2241.88 648.973 2239.13C643.239 2235.82 632.328 2236.99 626.061 2239.13L621.495 2240.7C614.879 2242.96 609.525 2247.91 606.75 2254.33L606.341 2255.28C602.947 2263.13 602.347 2271.91 604.64 2280.16L604.751 2280.55C606.342 2286.27 610.118 2291.13 615.264 2294.09C619.273 2296.39 623.815 2297.6 628.438 2297.6H632.276M657.499 2418.49C659.057 2429.8 651.368 2440.25 639.96 2440.85C631.664 2441.28 624.8 2437.33 621.644 2430.07M657.499 2418.49C657.427 2417.97 657.34 2417.45 657.239 2416.95M657.499 2418.49L657.239 2416.95M657.239 2416.95C655.46 2408.06 649.149 2401.45 639.96 2400.75C628.072 2399.85 618.512 2411.97 619.95 2423.81C620.219 2426.02 620.798 2428.13 621.644 2430.07M657.239 2416.95C657.239 2416.95 657.576 2415.5 657.797 2413.52M621.644 2430.07C621.644 2430.07 615.831 2425.48 614.04 2421.32C610.813 2413.84 613.026 2407.49 617.614 2400.75C622.458 2393.63 629.296 2390.34 637.904 2390.44C647.971 2390.57 654.774 2396.54 657.499 2406.23C658.139 2408.51 658.038 2411.34 657.797 2413.52M621.644 2430.07C613.765 2427.94 608.268 2427.87 604.59 2421.32C600.137 2413.4 602.167 2400.57 606.537 2392.61C612.07 2382.52 621.111 2377.88 632.28 2375.73C643.792 2373.52 649.676 2376.66 655.86 2384.82C659.191 2389.21 659.26 2392.17 660.186 2397.15C661.452 2403.95 657.797 2413.52 657.797 2413.52M764.201 2357.3C765.759 2368.62 758.07 2379.07 746.662 2379.66C738.367 2380.09 731.502 2376.15 728.347 2368.89M764.201 2357.3C764.129 2356.78 764.042 2356.27 763.941 2355.76M764.201 2357.3L763.941 2355.76M763.941 2355.76C763.57 2353.91 763.003 2352.16 762.254 2350.54M762.254 2347.65C759.529 2337.95 752.726 2331.98 742.66 2331.85C734.051 2331.75 727.213 2335.04 722.369 2342.16C717.781 2348.9 715.568 2355.25 718.795 2362.73C720.587 2366.89 728.347 2368.89 728.347 2368.89M762.254 2347.65C762.254 2347.65 762.254 2340.07 762.254 2332.81C762.254 2325.54 750.161 2313.87 738.649 2316.08C727.48 2318.23 718.772 2321.33 713.239 2331.42C708.869 2339.39 706.839 2352.22 711.292 2360.14C714.97 2366.68 720.467 2366.75 728.347 2368.89M762.254 2347.65V2350.54M728.347 2368.89C727.5 2366.94 726.921 2364.83 726.652 2362.62C725.214 2350.79 734.775 2338.66 746.662 2339.57C753.937 2340.12 759.407 2344.38 762.254 2350.54M379.421 2061.88L391.443 2060.63M348.08 2263.07C348.08 2263.07 345.071 2262.69 342.778 2261.21C338.15 2258.22 336.086 2253.23 335.971 2247.9M348.08 2263.07C348.08 2263.07 347.465 2260.13 346.68 2256.39M348.08 2263.07V2263.07C351.701 2269.34 358.898 2272.63 366.011 2271.27L382.344 2268.13L537.138 2239.04C540.762 2238.36 544.308 2237.32 547.723 2235.93L558.1 2231.7M335.971 2247.9C335.834 2241.57 338.447 2234.78 342.778 2230.35C349.12 2223.85 365.519 2226.91 365.519 2226.91L359.28 2219.31C358.97 2218.93 358.535 2218.68 358.05 2218.62C355.544 2218.3 347.35 2217.53 342.778 2220.17C338.291 2222.75 335.869 2225.42 334.284 2230.35C332.989 2234.37 333.652 2237 334.284 2241.18C334.688 2243.85 335.971 2247.9 335.971 2247.9ZM521.163 2198.38C521.163 2198.38 529.815 2186.26 537.382 2185.74C546.906 2185.08 553.751 2187.97 558.1 2196.47C561.966 2204.02 563.101 2213.36 561.122 2221.61C560.333 2224.9 558.1 2231.7 558.1 2231.7M521.163 2198.38C521.163 2198.38 468 2207.81 417.227 2217.12M521.163 2198.38L520.014 2047.27M521.163 2198.38L520.052 2292.67M346.68 2256.39C346.115 2253.7 345.233 2250.56 345.503 2247.9C346.146 2241.58 346.512 2238.27 352.323 2233.14C359.809 2226.54 369.321 2226.01 379.531 2224.09C391.312 2221.88 404.19 2219.5 417.227 2217.12M346.68 2256.39C347.641 2252.29 348.166 2249.96 350.518 2246.46V2246.46C355.533 2239 365.021 2236.36 373.857 2234.73L391.443 2231.48M558.1 2231.7C558.1 2231.7 560.949 2217.87 558.1 2211.22C557.443 2209.69 556.297 2208 555.17 2206.54C553.256 2204.06 550.101 2202.99 546.988 2203.37L536.242 2204.7L391.443 2231.48M381.257 2249.44V2240.16C381.257 2239.65 381.649 2239.22 382.162 2239.17L393.102 2238.12C393.69 2238.07 394.197 2238.53 394.197 2239.12V2247.84M381.257 2249.44L394.197 2247.84M381.257 2249.44L377.452 2250.14C376.92 2250.24 376.562 2250.74 376.645 2251.28L377.044 2253.86M394.197 2247.84L400.02 2246.7C400.638 2246.57 401.213 2247.05 401.213 2247.68V2249.82M382.344 2256.56L378.6 2257.23C378.047 2257.33 377.521 2256.95 377.435 2256.4L377.044 2253.86M382.344 2256.56V2264.76C382.344 2265.35 382.857 2265.82 383.447 2265.76L395.703 2264.49C396.213 2264.44 396.601 2264.01 396.601 2263.5V2254M382.344 2256.56L396.601 2254M396.601 2254L400.389 2253.33C400.866 2253.24 401.213 2252.83 401.213 2252.34V2249.82M408.969 2245.05V2235.75C408.969 2235.27 409.316 2234.86 409.793 2234.77L420.571 2232.85C421.184 2232.74 421.746 2233.21 421.746 2233.83V2242.68M408.969 2245.05L421.746 2242.68M408.969 2245.05L405.869 2245.51C405.379 2245.58 405.016 2246 405.016 2246.5V2249.41M421.746 2242.68L427.098 2242.12C427.687 2242.06 428.201 2242.52 428.201 2243.12V2245.72M377.044 2253.86L401.213 2249.82M405.016 2249.41V2252C405.016 2252.62 405.567 2253.09 406.175 2252.99L408.969 2252.54M405.016 2249.41L428.201 2245.72M428.201 2245.72V2248.59C428.201 2249.08 427.844 2249.5 427.36 2249.58L422.776 2250.32M408.969 2252.54V2259.35C408.969 2259.96 409.526 2260.43 410.136 2260.33L422.09 2258.31C422.578 2258.22 422.933 2257.8 422.922 2257.3L422.776 2250.32M408.969 2252.54L422.776 2250.32M435.197 2241.18V2228.98C435.197 2228.46 435.597 2228.03 436.116 2227.99L447.447 2227.07C448.029 2227.03 448.528 2227.49 448.528 2228.07V2239.24M435.197 2241.18L448.528 2239.24M435.197 2241.18L432.881 2241.77C432.368 2241.9 432.047 2242.41 432.149 2242.93L432.614 2245.3M448.528 2239.24L452.231 2238.74C452.792 2238.66 453.305 2239.06 453.361 2239.63L453.581 2241.82M432.614 2245.3L433.073 2247.64C433.178 2248.17 433.689 2248.52 434.224 2248.43L436.535 2248.03M432.614 2245.3L453.581 2241.82M453.581 2241.82L453.81 2244.12C453.863 2244.64 453.502 2245.12 452.985 2245.21L449.011 2245.89M436.535 2248.03L437.058 2252.25C437.122 2252.77 437.579 2253.16 438.104 2253.13L448.065 2252.59C448.595 2252.56 449.011 2252.12 449.011 2251.59V2245.89M436.535 2248.03L449.011 2245.89M461.755 2236.4V2224.43C461.755 2223.9 462.171 2223.46 462.701 2223.43L474.067 2222.82C474.639 2222.79 475.12 2223.24 475.12 2223.81V2233.95M461.755 2236.4L475.12 2233.95M461.755 2236.4L459.367 2237.04C458.899 2237.17 458.589 2237.62 458.632 2238.1L458.87 2240.76M475.12 2233.95L480.35 2233.27C480.88 2233.2 481.371 2233.56 481.464 2234.09L481.835 2236.19M458.87 2240.76L459.083 2243.12C459.136 2243.72 459.702 2244.13 460.29 2244.01L461.755 2243.69M458.87 2240.76L481.835 2236.19M481.835 2236.19L482.206 2238.29C482.299 2238.82 481.957 2239.33 481.432 2239.44L477.18 2240.36M461.755 2243.69V2249.16C461.755 2249.77 462.298 2250.23 462.902 2250.15L476.326 2248.16C476.817 2248.09 477.18 2247.67 477.18 2247.17V2240.36M461.755 2243.69L477.18 2240.36M487.446 2230.82V2220.04C487.446 2219.57 487.78 2219.16 488.245 2219.06L499.898 2216.68C500.518 2216.55 501.098 2217.03 501.098 2217.66V2228.91M487.446 2230.82L501.098 2228.91M487.446 2230.82L485.651 2231.42C485.168 2231.58 484.883 2232.08 484.989 2232.58L485.537 2235.15M501.098 2228.91L506.985 2227.3C507.588 2227.14 508.193 2227.56 508.246 2228.18L508.438 2230.47M485.537 2235.15L486.064 2237.62C486.179 2238.16 486.706 2238.51 487.245 2238.4L487.446 2238.35M485.537 2235.15L508.438 2230.47M508.438 2230.47L508.657 2233.07C508.7 2233.57 508.359 2234.03 507.863 2234.13L487.446 2238.35M487.446 2238.35L488.56 2242.86C488.679 2243.34 489.13 2243.66 489.622 2243.61L495.64 2243.06M502.566 2235.15V2240.99C502.566 2241.47 502.219 2241.88 501.742 2241.97L495.64 2243.06M513.899 2225.39V2213.24C513.899 2212.72 514.3 2212.28 514.819 2212.24L526.462 2211.31C527.044 2211.26 527.542 2211.72 527.542 2212.31V2223.48M513.899 2225.39L527.542 2223.48M513.899 2225.39L511.414 2226.1C510.985 2226.22 510.689 2226.61 510.689 2227.06V2231.33C510.689 2231.94 511.233 2232.41 511.838 2232.32L513.899 2232.01M527.542 2223.48L532.753 2222.87C533.296 2222.81 533.79 2223.19 533.86 2223.74L534.409 2227.94C534.479 2228.48 534.104 2228.98 533.565 2229.06L528.918 2229.76M513.899 2232.01L514.393 2239.21C514.435 2239.82 515.005 2240.25 515.601 2240.12L528.127 2237.43C528.588 2237.33 528.918 2236.93 528.918 2236.45V2229.76M513.899 2232.01L528.918 2229.76M365.957 2342.33C366.364 2351.15 359.312 2358.09 350.518 2358.84C343.887 2359.4 337.467 2355.89 334.284 2350.49M365.957 2342.33L334.284 2350.49M365.957 2342.33C365.914 2341.4 365.794 2340.49 365.602 2339.63M356.837 2328.94C354.916 2328.05 352.78 2327.48 350.518 2327.29C345.433 2326.86 340.52 2328.67 337.066 2331.93M356.837 2328.94L354.683 2321.37L353.151 2316.14M356.837 2328.94C357.725 2329.36 358.567 2329.84 359.354 2330.39M352.323 2313.32L351.246 2308.76C350.819 2306.96 349.208 2305.69 347.354 2305.69H342.443C340.472 2305.69 338.795 2307.12 338.491 2309.07L337.562 2315.02M352.323 2313.32L353.151 2316.14M352.323 2313.32C352.323 2313.32 367.845 2311.99 387.565 2310.19M337.562 2315.02V2319.16L337.066 2331.93M337.562 2315.02C337.562 2315.02 334.409 2315.8 333.097 2317.24C331.733 2318.74 331.304 2322.1 331.304 2322.1M337.066 2331.93C334.257 2334.58 332.413 2338.19 332.223 2342.33C332.133 2344.32 332.451 2346.22 333.097 2347.98M337.448 2322.1C337.448 2322.1 332.748 2321.87 331.304 2322.1M331.304 2322.1C329.128 2322.46 328 2324.74 326.348 2327.29V2327.29C323.246 2332.07 322.916 2338 323.786 2343.63L324.629 2349.09C324.883 2350.74 325.714 2352.24 326.974 2353.33L333.641 2359.08C335.818 2360.96 338.698 2361.81 341.547 2361.41L372.577 2357.11M372.577 2357.11L376.496 2354.82M372.577 2357.11V2317.24M376.496 2354.82C376.496 2354.82 431.128 2350.69 465.772 2345.3C492.803 2341.09 534.535 2331.93 534.535 2331.93M376.496 2354.82V2317.24M534.535 2331.93L537.075 2333.65M534.535 2331.93V2295.42M537.075 2333.65L564.896 2330.84C568.548 2330.47 571.943 2328.79 574.451 2326.11V2326.11C576.747 2323.66 578.135 2320.5 578.57 2317.17C578.977 2314.06 579.383 2311.63 579.791 2307.28C580.35 2301.31 577.686 2292.27 571.893 2287.63M537.075 2333.65V2294.34M359.354 2317.24V2330.39M359.354 2317.24H372.577M359.354 2317.24L353.151 2316.14M359.354 2330.39C362.482 2332.56 364.748 2335.75 365.602 2339.63M372.577 2317.24H376.496M376.496 2317.24C376.496 2317.24 431.071 2312.62 465.772 2307.56C491.645 2303.79 534.535 2295.42 534.535 2295.42M534.535 2295.42L537.075 2294.34M537.075 2294.34L538.295 2289.3M537.075 2294.34C537.744 2293.64 537.252 2290.63 538.295 2289.3M537.075 2294.34H542.024C543.585 2294.34 544.885 2295.54 545.014 2297.1L546.319 2312.93M569.722 2303.41C566.527 2301.28 563.547 2300.44 559.286 2301.17C552.977 2302.26 547.548 2307.12 546.319 2312.93M569.722 2303.41L550.901 2326.09M569.722 2303.41C570.509 2303.94 571.237 2304.55 571.893 2305.25M569.722 2303.41L566.43 2296.17C565.928 2295.06 566.141 2293.76 566.972 2292.88L571.893 2287.63M550.901 2326.09C548.345 2324.52 547.532 2321.96 546.575 2318.83C545.964 2316.83 545.917 2314.83 546.319 2312.93M550.901 2326.09C551.65 2326.55 552.447 2326.95 553.28 2327.26M571.893 2305.25C572.961 2306.39 573.838 2307.77 574.467 2309.38C577.476 2317.11 571.632 2325.4 563.653 2327.65C560.133 2328.64 556.449 2328.48 553.28 2327.26M571.893 2305.25L553.28 2327.26M538.295 2289.3C540.88 2286.02 546.88 2283.37 549.098 2282.46C551.317 2281.55 563.846 2282.43 570.561 2286.67C571.022 2286.97 571.466 2287.28 571.893 2287.63M538.295 2289.3C538.295 2289.3 531.005 2290.69 520.052 2292.67M442.225 2304.84L443.584 2235.15V2110.79V1814.22L439.54 1564.7V1263.49M442.225 2304.84C434.155 2305.72 424.932 2306.65 415.538 2307.56M442.225 2304.84C450.106 2303.98 459.486 2302.69 469.249 2301.21M334.284 2350.49C333.815 2349.69 333.416 2348.85 333.097 2347.98M365.602 2339.63L333.097 2347.98M377.709 105.993C373.115 112.051 374.07 118.675 378.759 123.983C382.689 128.431 387.037 129.761 392.535 129.294C400.046 128.657 405.362 123.617 404.711 116.107C404.292 111.287 399.474 105.993 399.474 105.993M377.709 105.993L384.574 103.422M399.474 105.993C397.775 107.782 395.23 108.8 392.535 108.708C388.912 108.585 385.744 106.585 384.574 103.422M399.474 105.993C399.474 105.993 396.866 112.015 392.535 112.051C387.523 112.092 384.574 103.422 384.574 103.422M399.474 105.993V111.393M384.574 103.422V110.107M384.574 110.107V112.526C384.574 115.252 385.635 117.955 387.964 119.371C389.385 120.236 391.049 120.964 392.535 120.878C393.79 120.805 395.152 120.137 396.333 119.361C398.512 117.931 399.474 115.334 399.474 112.728V111.393M384.574 110.107C384.574 110.107 388.839 115.65 392.535 115.579C395.63 115.519 399.474 111.393 399.474 111.393M399.474 111.393L410.664 223.504L427.468 388.185M459.919 109.588C459.561 104.897 463.635 101.132 468.337 100.97C473.206 100.802 477.724 104.731 477.356 109.588C477.216 111.441 476.447 113.04 475.276 114.272M459.919 109.588C459.919 109.588 455.097 109.656 453.118 112.266C448.524 118.323 447.676 126.578 452.365 131.886C456.295 136.334 462.84 137.296 468.337 136.83C475.848 136.192 478.008 128.961 477.356 121.451C476.938 116.63 475.276 114.272 475.276 114.272M459.919 109.588C459.976 110.338 460.133 111.045 460.376 111.701M459.919 109.588L458.708 111.811C457.828 113.426 457.367 115.235 457.367 117.074V284.696L456.563 480.124M475.276 114.272C473.577 116.061 471.033 117.079 468.337 116.987C464.714 116.864 461.547 114.863 460.376 111.701M475.276 114.272C475.276 114.272 472.668 120.293 468.337 120.329C463.325 120.371 460.376 111.701 460.376 111.701M475.276 114.272V119.672M460.376 111.701V118.386M460.376 118.386C460.376 118.386 464.641 123.929 468.337 123.858C471.432 123.798 475.276 119.672 475.276 119.672M460.376 118.386C460.376 122.657 461.926 127.238 465.93 128.724C466.741 129.025 467.563 129.201 468.337 129.156C469.201 129.106 470.115 128.774 470.986 128.319C474.055 126.717 475.276 123.134 475.276 119.672M381.749 190.473C381.392 185.781 385.465 182.016 390.167 181.854C395.036 181.686 399.555 185.615 399.186 190.473C399.046 192.326 398.277 193.924 397.107 195.156M381.749 190.473C381.749 190.473 377.321 192.546 375.341 195.156C370.747 201.214 371.703 207.838 376.392 213.146C380.321 217.594 384.67 218.923 390.167 218.457C397.679 217.819 402.995 212.78 402.343 205.27C401.925 200.449 397.107 195.156 397.107 195.156M381.749 190.473C381.806 191.222 381.963 191.929 382.206 192.585M381.749 190.473V178.099M397.107 195.156C395.408 196.945 392.863 197.963 390.167 197.871C386.545 197.748 383.377 195.748 382.206 192.585M397.107 195.156C397.107 195.156 394.499 201.177 390.167 201.214C385.156 201.255 382.206 192.585 382.206 192.585M397.107 195.156V200.556M382.206 192.585V199.27M382.206 199.27C382.206 199.27 386.472 204.813 390.167 204.742C393.263 204.682 397.107 200.556 397.107 200.556M382.206 199.27C382.206 203.541 383.757 208.122 387.76 209.608C388.571 209.909 389.393 210.085 390.167 210.04C391.031 209.99 391.945 209.658 392.816 209.204C395.885 207.601 397.107 204.018 397.107 200.556M397.107 200.556L404.242 297.469L417.227 476.17M381.127 278.353C380.77 273.662 384.843 269.897 389.545 269.735C394.414 269.567 398.933 273.495 398.565 278.353C398.424 280.206 397.655 281.804 396.485 283.036M381.127 278.353C381.127 278.353 376.699 280.426 374.719 283.036C370.125 289.094 371.081 295.718 375.77 301.026C379.699 305.474 384.048 306.804 389.545 306.337C397.057 305.7 402.373 300.66 401.721 293.15C401.303 288.33 396.485 283.036 396.485 283.036M381.127 278.353C381.185 279.103 381.342 279.809 381.584 280.465M396.485 283.036C394.786 284.825 392.241 285.843 389.545 285.752C385.923 285.628 382.755 283.628 381.584 280.465M396.485 283.036C396.485 283.036 393.877 289.058 389.545 289.094C384.534 289.136 381.584 280.465 381.584 280.465M396.485 283.036V288.436M381.584 280.465V287.151M381.584 287.151C381.584 287.151 385.85 292.693 389.545 292.622C392.641 292.562 396.485 288.436 396.485 288.436M381.584 287.151C381.584 291.421 383.135 296.002 387.138 297.489C387.949 297.79 388.772 297.966 389.545 297.921C390.409 297.871 391.323 297.539 392.194 297.084C395.263 295.481 396.485 291.898 396.485 288.436M396.485 288.436V381.348V474.085M470.163 198.156C469.805 193.465 473.879 189.7 478.581 189.538C483.45 189.37 487.968 193.298 487.6 198.156C487.46 200.009 486.691 201.607 485.52 202.839M470.163 198.156C470.163 198.156 465.341 198.223 463.362 200.834C458.768 206.891 457.92 215.145 462.609 220.453C466.539 224.901 473.084 225.864 478.581 225.397C486.092 224.76 488.252 217.528 487.6 210.018C487.182 205.198 485.52 202.839 485.52 202.839M470.163 198.156C470.22 198.906 470.377 199.612 470.62 200.268M470.163 198.156L467.566 232.751L474.414 483.069L475.695 593.834M485.52 202.839C483.821 204.628 481.277 205.647 478.581 205.555C474.958 205.431 471.791 203.431 470.62 200.268M485.52 202.839C485.52 202.839 482.912 208.861 478.581 208.897C473.569 208.939 470.62 200.268 470.62 200.268M485.52 202.839V208.239M470.62 200.268V206.954M470.62 206.954C470.62 206.954 474.885 212.497 478.581 212.425C481.676 212.365 485.52 208.239 485.52 208.239M470.62 206.954C470.62 211.224 472.17 215.805 476.174 217.292C476.985 217.593 477.807 217.769 478.581 217.724C479.445 217.674 480.359 217.342 481.23 216.887C484.299 215.285 485.52 211.701 485.52 208.239M478.86 290.07C478.502 285.379 482.576 281.614 487.278 281.452C492.147 281.284 496.666 285.212 496.297 290.07C496.157 291.923 495.388 293.521 494.217 294.754M478.86 290.07C478.86 290.07 474.038 290.138 472.059 292.748C467.465 298.805 468.792 306.47 473.481 311.778C477.411 316.226 481.781 316.731 487.278 316.264C494.789 315.627 496.949 309.443 496.297 301.932C495.879 297.112 494.217 294.754 494.217 294.754M478.86 290.07C478.917 290.82 479.074 291.526 479.317 292.183M478.86 290.07L477.784 306.224L493.038 483.79M494.217 294.754C492.519 296.543 489.974 297.561 487.278 297.469C483.656 297.346 480.488 295.345 479.317 292.183M494.217 294.754C494.217 294.754 491.61 300.775 487.278 300.811C482.267 300.853 479.317 292.183 479.317 292.183M494.217 294.754V300.153M479.317 292.183V298.868M479.317 298.868C479.317 298.868 483.583 304.411 487.278 304.339C490.373 304.28 494.217 300.153 494.217 300.153M479.317 298.868C479.317 303.138 480.867 307.719 484.871 309.206C485.682 309.507 486.504 309.683 487.278 309.638C488.142 309.588 489.056 309.256 489.927 308.801C492.996 307.199 494.217 303.616 494.217 300.153M427.468 388.185L436.717 478.129M436.717 478.129V487.194M436.717 478.129L417.227 476.17M436.717 478.129L456.563 480.124M436.717 487.194V719.961V854.739M436.717 854.739L439.54 1263.49M417.227 476.17V697.353V1051.89V1377.79M417.227 1377.79V1696.3M417.227 1696.3V1936.08V2217.12M417.227 2217.12L415.538 2307.56M415.538 2307.56C406.049 2308.48 396.387 2309.38 387.565 2310.19M396.485 474.085V608.767V835.671V1041.34L394.755 1326.22M394.755 1326.22L392.961 1588.93V1793.23M392.961 1793.23L369.889 1795.06C368.905 1795.14 367.969 1795.52 367.204 1796.14V1796.14C366.071 1797.06 365.413 1798.45 365.413 1799.91V1878.26C365.413 1879.59 365.827 1880.88 366.597 1881.96V1881.96C367.905 1883.79 370.084 1884.79 372.326 1884.59L530.166 1870.66C531.158 1870.57 532.082 1870.12 532.757 1869.39L534.341 1867.66C535.02 1866.93 535.398 1865.96 535.398 1864.96V1787.31C535.398 1786.31 535.018 1785.34 534.336 1784.6L533.388 1783.57C532.555 1782.67 531.355 1782.2 530.132 1782.3L514.842 1783.52M392.961 1793.23L391.443 2060.63M392.961 1793.23L514.842 1783.52M391.443 2060.63V2231.48M391.443 2060.63L469.249 2052.54M391.443 2231.48L387.565 2310.19M456.563 480.124L459.089 688.422M459.089 688.422V861.411M459.089 861.411L461.801 1149.27M461.801 1149.27L463.916 1469.88M463.916 1469.88L466.288 1627.4M466.288 1627.4V1783.79M466.288 1783.79L467.926 1879.08M467.926 1879.08L469.249 2052.54M467.926 1879.08L492.603 1876.79M469.249 2052.54V2301.21M469.249 2052.54L520.014 2047.27M469.249 2301.21C477.469 2299.96 485.961 2298.58 494.058 2297.22M475.695 593.834L479.376 795.45L481.24 977.146L483.312 1155.73L486.212 1372.65L487.87 1476.24L490.356 1730.04L492.603 1876.79M492.603 1876.79L495.64 2070.74M495.64 2070.74L372.317 2084.24C370.016 2084.49 367.937 2085.73 366.617 2087.63L365.214 2089.65C364.251 2091.04 363.752 2092.69 363.786 2094.38L365.453 2175.49C365.496 2177.59 366.24 2179.61 367.567 2181.23V2181.23C369.625 2183.74 372.841 2185.01 376.062 2184.58L533.381 2163.39C534.471 2163.24 535.517 2162.86 536.447 2162.27V2162.27C538.658 2160.87 539.998 2158.44 539.998 2155.82V2072.09C539.998 2071.08 539.724 2070.08 539.206 2069.21V2069.21C538.05 2067.27 535.846 2066.2 533.604 2066.5L530.073 2066.97L495.64 2070.74ZM495.64 2070.74V2243.06M495.64 2243.06L494.058 2297.22M494.058 2297.22C503.645 2295.6 512.679 2294 520.052 2292.67M493.038 483.79L502.041 1009.32M502.041 1009.32L504.13 1205.77M504.13 1205.77L511.975 1545.88M511.975 1545.88L514.842 1783.52M514.842 1783.52L520.014 2047.27M555.479 2054.21L343.775 2077.44C341.997 2077.63 340.327 2078.39 339.009 2079.6V2079.6C337.272 2081.19 336.283 2083.44 336.283 2085.8V2184.6C336.283 2187.77 338.441 2190.53 341.515 2191.29V2191.29C342.35 2191.5 343.216 2191.55 344.07 2191.44L555.056 2163.76C557.889 2163.39 560.379 2161.69 561.765 2159.19V2159.19C562.518 2157.83 562.907 2156.3 562.894 2154.75L562.1 2060.12C562.071 2056.63 559.077 2053.9 555.597 2054.2L555.479 2054.21ZM538.652 2192.51C538.652 2192.51 546.884 2189.88 551.93 2192.51C556.911 2195.11 558.1 2207.54 558.1 2207.54C558.1 2207.54 553.286 2198.75 549.086 2196.47C544.458 2193.95 538.652 2192.51 538.652 2192.51Z" stroke="white"/>
<circle cx="169.613" cy="1681.73" r="8.27656" stroke="white" stroke-width="0.5"/>
<circle cx="345.558" cy="1718.13" r="8.27656" stroke="white" stroke-width="0.5"/>
<circle cx="385.879" cy="1816.76" r="6.98849" stroke="white" stroke-width="0.5"/>
<circle cx="413.207" cy="1814.82" r="6.98849" stroke="white" stroke-width="0.5"/>
<circle cx="438.106" cy="1812.62" r="6.98849" stroke="white" stroke-width="0.5"/>
<circle cx="465.426" cy="1809.77" r="6.98849" stroke="white" stroke-width="0.5"/>
<circle cx="490.324" cy="1807.83" r="6.98849" stroke="white" stroke-width="0.5"/>
<circle cx="515.223" cy="1805.64" r="6.98849" stroke="white" stroke-width="0.5"/>
<circle cx="549.636" cy="1706.55" r="8.27656" stroke="white" stroke-width="0.5"/>
<circle cx="453.37" cy="1706.55" r="8.27656" stroke="white" stroke-width="0.5"/>
<circle cx="453.37" cy="1643.21" r="8.27656" stroke="white" stroke-width="0.5"/>
<circle cx="453.37" cy="1570.86" r="8.27656" stroke="white" stroke-width="0.5"/>
<circle cx="453.37" cy="1489.26" r="8.27656" stroke="white" stroke-width="0.5"/>
<circle cx="484.862" cy="1346.68" r="8.27656" stroke="white" stroke-width="0.5"/>
<circle cx="449.081" cy="1178.51" r="8.27656" stroke="white" stroke-width="0.5"/>
<circle cx="449.081" cy="1045.34" r="8.27656" stroke="white" stroke-width="0.5"/>
<circle cx="449.081" cy="897.56" r="8.27656" stroke="white" stroke-width="0.5"/>
<circle cx="446.097" cy="730.187" r="8.27656" stroke="white" stroke-width="0.5"/>
<circle cx="414.972" cy="1346.68" r="8.27656" stroke="white" stroke-width="0.5"/>
<circle cx="713.995" cy="1646.98" r="8.27656" stroke="white" stroke-width="0.5"/>
<circle cx="655.527" cy="1872.01" r="8.27656" stroke="white" stroke-width="0.5"/>
<circle cx="697.448" cy="2118.49" r="8.27656" stroke="white" stroke-width="0.5"/>
<circle cx="595.042" cy="2062.69" r="8.27656" stroke="white" stroke-width="0.5"/>
<ellipse cx="345.09" cy="2085.89" rx="5.98817" ry="5.57537" stroke="white" stroke-width="0.5"/>
<ellipse cx="345.09" cy="2183.71" rx="5.98817" ry="5.57537" stroke="white" stroke-width="0.5"/>
<ellipse cx="352.083" cy="2134.22" rx="4.19994" ry="4.10184" stroke="white" stroke-width="0.5"/>
<ellipse cx="549.802" cy="2110.22" rx="4.19994" ry="4.10184" stroke="white" stroke-width="0.5"/>
<ellipse cx="554.004" cy="2062.69" rx="5.98817" ry="5.57537" stroke="white" stroke-width="0.5"/>
<ellipse cx="556.371" cy="2156.56" rx="5.98817" ry="5.57537" stroke="white" stroke-width="0.5"/>
<circle cx="341.417" cy="2040.1" r="8.27656" stroke="white" stroke-width="0.5"/>
<circle cx="218.269" cy="1977.32" r="8.27656" stroke="white" stroke-width="0.5"/>
<circle cx="549.632" cy="1823.75" r="4.13999" stroke="white" stroke-width="0.5"/>
<circle cx="349.695" cy="1840.3" r="4.13999" stroke="white" stroke-width="0.5"/>
<path d="M352.481 2253.37C352.229 2254.16 352.094 2255 352.094 2255.88C352.094 2260.42 355.781 2264.11 360.329 2264.11C362.961 2264.11 365.305 2262.88 366.812 2260.96M352.481 2253.37C353.54 2250.05 356.653 2247.64 360.329 2247.64C364.878 2247.64 368.565 2251.33 368.565 2255.88C368.565 2257.79 367.91 2259.56 366.812 2260.96M352.481 2253.37C352.481 2253.37 358.108 2254.11 361.158 2255.88C363.725 2257.37 366.812 2260.96 366.812 2260.96" stroke="white" stroke-width="0.5"/>
<path d="M541.487 2213.38C540.493 2214.75 539.906 2216.42 539.906 2218.24C539.906 2222.79 543.593 2226.47 548.142 2226.47C550.896 2226.47 553.335 2225.12 554.83 2223.04M541.487 2213.38C542.985 2211.33 545.408 2210 548.142 2210C552.69 2210 556.377 2213.69 556.377 2218.24C556.377 2220.03 555.804 2221.69 554.83 2223.04M541.487 2213.38C541.487 2213.38 545.092 2217.95 548.142 2219.97C550.539 2221.56 554.83 2223.04 554.83 2223.04" stroke="white" stroke-width="0.5"/>
</svg>
