<svg width="2717" height="849" viewBox="0 0 2717 849" fill="none" xmlns="http://www.w3.org/2000/svg">
<path d="M2713.86 453.093C2709.45 447.133 2704.23 444.858 2695.05 440.662C2692.04 439.288 2688.36 438.021 2684.52 436.89M2713.86 453.093C2717.53 458.068 2715.91 469.235 2715.91 469.235C2715.91 469.235 2715.34 484.175 2712.57 493.214C2709.13 504.42 2704.47 510.384 2697.19 519.571C2687.06 532.357 2665.22 545.116 2665.22 545.116L2638.81 557.409C2638.81 557.409 2635.31 558.42 2633.77 557.409C2626.59 552.67 2622.51 548.355 2614.68 543.447C2602.11 535.557 2594.86 530.336 2580.38 527.057C2576.46 526.168 2574.21 525.891 2570.22 525.387C2556.75 523.687 2548.96 524.007 2535.46 525.387C2511.97 527.788 2499.14 534.906 2476.87 542.768C2476.41 542.931 2475.95 543.094 2475.5 543.256M2713.86 453.093L2633.77 434.019L2507.05 406.254C2507.05 406.254 2449.84 392.841 2412.86 385.835C2388.81 381.277 2369.11 373.118 2347.63 376.058C2340 377.102 2335.18 379.584 2328.31 383.058C2304.08 395.308 2293.02 405.41 2269.08 413.057C2257.99 416.6 2247.08 419.156 2247.08 419.156M2352.97 567.389C2352.97 567.389 2374.23 568.824 2388 568.135C2406.14 567.226 2416.23 565.059 2433.63 559.837C2443.35 556.921 2450.28 553.848 2457.54 550.634M2352.97 567.389V568.887M2352.97 567.389C2352.97 567.389 2346.93 566.924 2339.62 566.109M2239.54 534.003H2272.26C2272.26 534.003 2278.27 535.571 2281.26 537.983C2283.99 540.185 2286.73 545.116 2286.73 545.116C2286.73 545.116 2285.48 549.416 2286.73 551.642C2287.54 553.108 2289.91 554.525 2289.91 554.525C2289.91 554.525 2310.01 561.225 2323.3 563.783C2328.16 564.718 2334.23 565.509 2339.62 566.109M2239.54 534.003C2239.54 534.003 2238.32 534.114 2234.99 535.354M2239.54 534.003L2244.7 453.402M2200.09 542.553C2200.09 542.553 2212.18 542.193 2219.72 540.61C2224.13 539.683 2230.88 536.887 2234.99 535.354M2200.09 542.553V544.881H2188.17V542.024M2200.09 542.553L2211.42 425.565M2188.17 542.024L2199.94 430.984V425.565L2198.96 424.139M2188.17 542.024L2086.71 542.524M2081.79 542.524H2086.71M2081.79 542.524L2091.34 429.895L2088.97 422.538M2081.79 542.524L1986.85 543.236M857.085 548.696C857.085 548.696 852.07 561.436 851.677 570.017C851.316 577.886 852.242 584.563 854.096 592.218C859.833 615.913 869.849 626.819 886.821 643.392C906.008 662.127 927.725 675.578 954.429 678.035C967.553 679.242 971.112 678.2 980.132 673.445C985.129 670.811 987.07 667.37 992.569 666.08C1000.71 664.171 1006.47 670.171 1011.92 676.469C1018.14 683.646 1019.18 688.319 1019.18 697.817C1019.18 711.491 1011.64 731.084 1000.08 748.442M857.085 548.696C857.085 548.696 838.023 564.591 832.142 578.623C823.303 599.711 827.722 615.621 835.648 637.069C845.596 663.986 860.252 676.581 884.45 692.007C903.508 704.157 923.257 713.214 945.818 711.879C961.387 710.958 964.052 699.268 974.749 698.292C985.437 697.316 990.045 702.99 995.978 711.934C1004.38 724.605 1000.08 748.442 1000.08 748.442M857.085 548.696H863.674M857.085 548.696H841.011M166.211 24.223C130.244 38.4709 104.487 46.4346 76.9528 73.6105C53.2962 96.9591 44.1461 111.347 30.0307 144.621C9.58257 192.822 5.93616 232.745 3.11833 285.86C0.74773 330.545 1.82742 357.243 6.01603 401.794C6.91422 411.347 7.70352 420.078 8.4716 428.307M166.211 24.223C212.732 5.79454 239.844 2.34204 288.38 1.20311C315.327 0.570771 330.683 1.23411 357.249 5.79937C402.34 13.5482 424.922 28.6939 467.439 45.5905C538.516 73.8365 580.069 102.465 651.442 129.23C676.359 138.574 711.925 142.007 711.925 142.007C711.925 142.007 762.714 145.48 794.951 142.007C831.562 138.064 853.829 132.926 887.596 118.237C918.044 104.991 932.114 99.6135 962.656 90.5916C1003.46 78.5391 1025.32 75.6477 1068.21 74.4259C1097.26 73.5983 1115.28 72.6837 1145.04 76.5816C1180.21 81.1892 1210.29 88.3125 1241.12 105.864C1262.13 117.827 1273.97 127.545 1282.33 145.799C1288.1 158.402 1287.53 164.082 1285.6 175.726C1284.06 185.01 1280.6 189.308 1277.04 197.868M166.211 24.223C166.211 24.223 196.172 15.8212 215.842 13.01C250.561 8.04817 270.794 9.11745 305.649 13.01C336.922 16.5025 353.144 21.2311 384.441 29.8834C430.395 42.588 456.682 55.8301 500.604 74.3778C552.824 96.4295 583.445 113.182 632.968 133.95C657.19 144.108 672.143 146.868 698.178 150.339C724.845 153.895 740.171 154.12 767.03 152.584C787.438 151.417 797.587 150.947 818.964 146.046C841.759 140.819 857.159 133.58 879.288 126.017C909.271 115.768 924.759 108.008 956.351 100.631C989.713 92.8395 1009.57 89.9669 1044.94 88.3237C1080.66 86.6638 1100.39 86.2444 1136.41 92.4147C1168.42 97.896 1188.45 98.3483 1220.85 113.639C1242.03 123.63 1256.83 131.9 1269.24 151.979C1278.82 167.498 1277.04 197.868 1277.04 197.868M1277.04 197.868C1274.72 203.441 1273.92 206.836 1270.86 212.04C1266.84 218.882 1263.5 222.269 1257.31 227.242C1249.27 233.713 1240.77 237.389 1230.61 236.724C1226.33 236.444 1225.39 237.286 1223.12 235.366C1217.81 230.877 1218.68 224.199 1214 218.236C1209.25 212.166 1209.31 210.403 1202.64 206.541C1193.31 201.148 1183.49 200.511 1173.88 198.956C1155.04 195.91 1143.16 195.801 1123.62 197.644C1099.08 199.957 1083.52 203.327 1061.36 214.126C1052.85 218.276 1045.9 221.764 1039.68 226.341M2219.72 419.156L2240.29 416.716C2240.29 416.716 2259.06 405.454 2269.08 398.946C2288.68 386.21 2313.53 372.848 2317.99 370.74C2322.45 368.631 2328.19 366.87 2334.89 365.577C2345.93 363.446 2361.58 365.577 2361.58 365.577L2368.87 367.211M2219.72 419.156H2188.17L1955.71 416.716L1700.26 411.646L1422.27 404.749L1089.33 397.119M2219.72 419.156H2242.51M1089.33 397.119C1089.33 397.119 1089.24 392.873 1089.33 389.218C1089.44 385.134 1089.53 381.648 1086.33 379.104C1077.87 372.375 1071.28 369.112 1061.47 361.107C1050.09 351.813 1043.46 346.472 1034.69 334.683C1026.97 324.307 1022.77 317.968 1018.65 305.708C1015.27 295.637 1013.75 289.542 1013.91 278.92C1014.15 262.735 1015.93 253.049 1026.44 239.41C1030.67 233.917 1034.97 229.816 1039.68 226.341M1089.33 397.119H1074.61M1000.08 748.442C992.512 759.807 983.226 770.213 973.214 777.371C973.214 777.371 961.014 783.45 952.721 786.052C944.795 788.539 940.145 789.33 931.924 790.522C914.492 793.05 904.36 792.145 886.821 790.522C853.96 787.482 837.042 777.296 805.281 768.331C773.519 759.365 755.699 750.144 722.454 746.062C699.235 743.21 685.341 741.148 662.254 744.923C652.383 746.537 645.787 748.095 636.638 751.754C582.558 773.386 560.369 789.949 509.909 810.801C480.185 823.083 462.689 831.365 431.348 838.583C400.936 845.588 384.043 846.692 353.423 847.531C321.997 848.392 303.872 848.875 273.076 842.557C244.423 836.678 228.266 831.522 202.293 818.07C174.482 803.667 160.154 792.392 137.633 770.627C105.769 739.834 93.4038 716.772 72.5895 677.653C42.9815 622.008 35.7635 585.842 22.4682 524.228C16.6888 497.445 13.3118 473.907 10.915 452.514M2368.87 367.211L2375.83 351.144M2368.87 367.211L2387.49 371.382M2375.83 351.144L2391.69 353.995M2375.83 351.144L2376.61 347.728M2391.69 353.995L2387.49 371.382M2391.69 353.995C2391.69 353.995 2393.31 352.257 2394.34 351.144M2387.49 371.382L2442.89 383.794L2468.43 389.28M2394.34 351.144C2387.42 349.81 2376.61 347.728 2376.61 347.728M2394.34 351.144C2394.92 349.81 2395.82 347.728 2395.82 347.728M2376.61 347.728L2377.23 342.945M2395.82 347.728C2395.82 347.728 2386.95 344.501 2381.03 343.489C2379.55 343.236 2377.23 342.945 2377.23 342.945M2395.82 347.728L2414.95 344.576C2414.95 344.576 2423.86 333.706 2422.99 326.206C2421.85 316.384 2402.26 310.948 2402.26 310.948M2377.23 342.945L2364.08 330.228C2364.08 330.228 2366.25 314.466 2370.16 310.948C2373.62 307.844 2392.85 308.827 2392.85 308.827M2402.26 310.948C2402.26 310.948 2403.72 307.479 2402.26 307.103C2399.21 306.314 2395.27 305.38 2393.91 305.38C2392.5 305.38 2392.85 308.827 2392.85 308.827M2402.26 310.948L2392.85 308.827M2468.43 389.28L2474.75 374.135M2468.43 389.28L2488.16 393.518M2474.75 374.135C2474.75 374.135 2480.05 375.377 2483.49 375.902C2486.88 376.417 2492.21 376.808 2492.21 376.808M2474.75 374.135L2476.71 370.035M2492.21 376.808L2488.16 393.518M2492.21 376.808L2493.17 374.135M2488.16 393.518L2547.45 406.254L2566.78 410.573M2493.17 374.135C2493.17 374.135 2488.54 373.405 2485.62 372.709C2482.08 371.866 2476.71 370.035 2476.71 370.035M2493.17 374.135L2497.73 370.035M2476.71 370.035L2479.49 364.522M2479.49 364.522L2485.62 366.889L2497.73 370.035M2479.49 364.522L2472.27 357.447C2472.27 357.447 2472.94 345.872 2475.74 340.165C2478.61 334.309 2480.93 335.064 2488.16 334.577C2489.04 334.518 2490.12 334.448 2491.32 334.382M2497.73 370.035L2504.41 369.393C2504.41 369.393 2509.19 366.413 2511.78 361.878C2515.56 355.274 2516.24 348.098 2516.24 341.278C2516.24 335.741 2509.84 335.633 2504.41 334.577C2504.1 334.516 2503.76 334.464 2503.4 334.418M2503.4 334.418V330.163H2491.32V334.382M2503.4 334.418C2500.18 334.013 2495.16 334.173 2491.32 334.382M2586.11 414.892L2658.85 431.143C2658.85 431.143 2661.65 431.598 2665.84 432.424M2586.11 414.892L2591.08 398.726M2586.11 414.892L2566.78 410.573M2591.08 398.726L2575.32 393.06M2591.08 398.726C2591.08 398.726 2592.05 396.574 2592.67 395.196M2575.32 393.06L2566.78 410.573M2575.32 393.06C2575.32 393.06 2575.32 390.769 2575.32 389.302M2592.67 395.196C2588.98 394.716 2587.15 394.285 2583.64 393.06C2580.36 391.919 2578.35 391.009 2575.32 389.302M2592.67 395.196C2594.13 394.563 2594.51 394.171 2595.09 392.686C2595.92 390.588 2592.67 388.457 2592.67 388.457M2575.32 389.302C2576.36 387.782 2577.98 385.411 2577.98 385.411M2592.67 388.457L2586.11 386.102L2577.98 385.411M2592.67 388.457H2599.69C2599.69 388.457 2609.32 373.48 2609.63 363.78C2609.8 358.718 2608.28 355.582 2604.39 352.333C2600.73 349.269 2597.04 348.755 2592.67 348.755C2591.48 348.755 2589.13 351.388 2589.13 351.388M2577.98 385.411C2577.98 385.411 2575.32 380.571 2575.32 376.808C2575.32 373.045 2589.13 351.388 2589.13 351.388M2589.13 351.388C2589.13 351.388 2595.45 358.627 2594.45 364.556C2593.24 371.688 2586.11 385.411 2586.11 385.411M2684.52 436.89L2689.93 421.494M2684.52 436.89C2677.95 434.958 2670.89 433.421 2665.84 432.424M2689.93 421.494L2680.41 419.227L2672.7 415.826M2689.93 421.494V419.227M2672.7 415.826L2665.84 432.424M2672.7 415.826L2674.47 413.067M2689.93 419.227L2674.47 413.067M2689.93 419.227L2694 415.232M2674.47 413.067V407.755M2674.47 407.755L2684.52 412.004M2674.47 407.755C2674.47 407.755 2672.33 405.706 2671.15 404.23C2669.83 402.583 2668.16 399.73 2668.16 399.73M2684.52 412.004L2694 415.232M2684.52 412.004C2684.52 412.004 2680.4 408.577 2678.54 406.028C2677.23 404.233 2675.87 401.544 2675.87 401.544M2694 415.232C2694 415.232 2699.87 413.91 2701.62 411.411C2708.43 401.658 2710.09 395.507 2713.86 384.916C2714.31 383.652 2713.69 382.466 2712.57 381.729C2709 379.385 2702.55 378.921 2702.55 378.921M2701.21 378.542C2696.8 379.787 2694.25 378.774 2690.96 379.167C2687.67 379.56 2686.18 381.729 2686.18 381.729M2701.21 378.542L2689.93 375.019M2701.21 378.542L2702.55 378.921M2686.18 381.729L2678.54 379.959M2686.18 381.729L2675.87 401.544M2678.54 379.959C2678.54 379.959 2671.8 387.163 2669.75 392.929C2668.84 395.499 2668.16 399.73 2668.16 399.73M2678.54 379.959C2678.54 379.959 2681.97 377.276 2684.52 376.281C2686.54 375.494 2689.93 375.019 2689.93 375.019M2689.93 375.019C2689.93 375.019 2691.82 372.01 2693.59 372.275C2695.73 372.596 2699.79 374.211 2703.52 375.019C2705.06 375.351 2702.55 378.921 2702.55 378.921M2668.16 399.73L2675.87 401.544M2247.08 419.156H2242.51M2247.08 419.156L2244.7 453.402M2690.96 483.02C2690.96 483.02 2692.11 476.549 2690.96 472.675C2688.48 464.264 2680.81 459.845 2672.07 459.173C2663.52 458.515 2655.45 464.507 2650.65 471.613C2650.65 471.613 2647.8 480.933 2649.65 487.919C2651.2 493.784 2660.24 497.968 2660.24 497.968C2665.48 498.694 2672.34 497.994 2677.17 495.815M2690.96 483.02C2690.96 483.02 2693.43 488.523 2692.26 491.775C2690.82 495.768 2687.57 497.93 2683.33 497.968C2680.78 497.99 2679.15 497.42 2677.17 495.815M2690.96 483.02H2687.16M2677.17 495.815C2676.66 494.799 2676.38 494.229 2675.87 493.214M2687.16 483.02C2687.16 483.02 2683.89 483.232 2682.06 484.122C2678.19 485.996 2675.87 489.649 2675.87 493.214M2687.16 483.02C2687.16 483.02 2687.16 482.2 2687.07 480.933M2675.87 493.214C2671.02 495.386 2667.11 495.386 2662.26 493.214C2655.66 490.259 2651.74 485.154 2652.42 477.957C2653.24 469.391 2659.6 465.224 2668.16 464.35C2674.13 463.741 2679.34 464.752 2683.33 469.235C2686.09 472.334 2686.86 477.909 2687.07 480.933M2675.87 493.214C2675.87 493.214 2672.86 493.71 2672.07 492.412C2671.51 491.489 2671.51 490.572 2672.07 489.649M2680.41 480.933C2681.36 477.769 2681.34 476.49 2679.11 474.043M2680.41 480.933C2684.18 477.529 2687.07 480.933 2687.07 480.933M2680.41 480.933C2675.87 483.02 2673.49 484.924 2672.07 489.649M2679.11 474.043C2675.78 470.373 2669.73 469.589 2665.84 472.675C2662.5 475.335 2661.05 478.919 2662.26 483.02C2662.93 485.301 2664.14 487.024 2665.84 488.167M2679.11 474.043C2679.11 474.043 2672.36 474.916 2669.75 477.957C2666.97 481.198 2665.84 488.167 2665.84 488.167M2669.75 489.649C2669.75 489.649 2671.16 489.649 2672.07 489.649M2669.75 489.649C2668.24 489.398 2666.94 488.902 2665.84 488.167M2669.75 489.649L2638.81 491.243L2423.15 493.833L2239.54 496.656M2589.13 456.774C2589.95 452.372 2589.95 450.233 2589.13 445.832C2587.23 435.515 2571.17 435.378 2566.78 436.142C2555.3 438.145 2547.26 445.158 2548.28 456.774C2549.12 466.483 2553.86 473.46 2563.57 474.302C2568.12 474.697 2571.05 474.291 2575.32 472.675M2589.13 456.774C2589.13 456.774 2592.46 461.56 2592.07 464.919C2591.56 469.338 2588.6 471.907 2584.38 473.326C2581.02 474.456 2578.49 474.274 2575.32 472.675M2589.13 456.774C2589.13 456.774 2585.85 455.304 2583.15 455.593C2580.45 455.882 2577.68 456.916 2575.32 458.254C2571.59 460.376 2571.32 464.303 2571.32 468.097M2589.13 456.774C2589.13 456.774 2587.29 454.873 2586.11 453.656M2575.32 472.675C2573.76 471.048 2572.89 469.724 2571.32 468.097M2586.11 453.656C2585.6 447.26 2583.75 444.828 2577.98 442.032C2572.92 439.581 2568.69 439.681 2563.57 442.032C2557.62 444.773 2553.71 449.036 2553.67 455.593C2553.64 461.519 2556.15 466.275 2561.64 468.509M2586.11 453.656C2584.25 452.417 2584.57 452.513 2582.33 452.513M2561.64 468.509C2565.14 469.935 2567.82 469.523 2571.32 468.097M2561.64 468.509L2568.8 465.534M2561.64 468.509L2495.89 469.436L2423.15 470.976L2306.38 473.974M2571.32 468.097C2571.32 468.097 2569.39 466.808 2568.8 465.534M2582.33 452.513C2580.51 450.411 2578.73 451.716 2576.55 449.995M2582.33 452.513C2577.93 452.349 2572.75 455.221 2570.44 458.972C2569.05 461.221 2567.68 463.14 2568.8 465.534M2568.8 465.534C2568.8 465.534 2559.36 460.324 2559.27 455.593C2559.16 449.624 2565.38 446.829 2571.32 447.413C2573.06 447.584 2574.95 448.73 2576.55 449.995M2568.8 465.534C2568.8 465.534 2563.21 457.311 2565.31 453.656C2567.61 449.653 2576.55 449.995 2576.55 449.995M2490 439.604C2490 439.604 2490.25 430.061 2488.16 424.868C2485.6 418.498 2481.54 416.342 2474.75 415.381C2466.18 414.169 2464.36 415.381 2458.31 418.005C2450.98 421.179 2448.62 427.587 2448.41 435.567C2448.22 443.123 2450.3 447.998 2456.29 451.514C2459.3 453.285 2461.3 453.342 2464.79 453.342C2468.98 453.342 2470.28 453.342 2475.31 452.816M2490 439.604C2490 439.604 2490.43 447.377 2487.4 450.564C2484.39 453.718 2479.54 453.823 2475.31 452.816M2490 439.604C2490 439.604 2487.82 436.506 2485.62 435.567M2475.31 452.816C2473.24 450.688 2473.21 450.649 2471.43 448.284M2485.62 435.567C2485.76 428.876 2482.81 423.912 2476.87 420.831C2471.69 418.147 2467.19 418.296 2461.94 420.831C2455.74 423.825 2451.93 428.687 2452.25 435.567C2452.53 441.486 2454.72 447.122 2460.53 448.284M2485.62 435.567C2484.77 435.205 2483.93 434.946 2483.11 434.79M2460.53 448.284C2464.79 449.137 2467.17 448.284 2471.43 448.284M2460.53 448.284H2471.43M2460.53 448.284H2426.59L2361.58 450.346L2291.8 452.383L2244.7 453.402M2471.43 448.284C2470.12 443.951 2471.28 440.087 2474.75 437.181C2477.33 435.019 2480.12 434.222 2483.11 434.79M2471.43 448.284C2471.43 448.284 2467.69 443.113 2468.43 439.604C2468.98 436.998 2470.14 435.563 2472.27 433.969C2475.23 431.755 2481.6 432.327 2481.6 432.327M2471.43 448.284C2471.43 448.284 2469.03 447.46 2466.63 446.163M2483.11 434.79C2482.54 434.054 2482.07 433.206 2481.6 432.327M2481.6 432.327C2480.95 431.12 2480.32 429.852 2479.49 428.728M2479.49 428.728C2478.62 427.546 2477.53 426.523 2475.97 425.893C2471.89 424.248 2465.77 423.743 2463.4 425.893C2461.03 428.042 2459.05 430.395 2458.31 433.969C2457.44 438.106 2460.11 440.68 2463.08 443.68C2464.01 444.61 2465.32 445.457 2466.63 446.163M2479.49 428.728C2479.49 428.728 2473.4 428.515 2470.28 430.427C2467.38 432.201 2465.64 433.892 2464.79 437.181C2463.9 440.648 2466.63 446.163 2466.63 446.163M2387.49 417.217C2389.65 412.716 2389.99 408.972 2388.74 404.136C2385.86 392.968 2372.46 388.721 2361.58 392.536C2350.66 396.361 2343.62 407.817 2347.63 418.666C2351.46 429.013 2376.02 428.992 2376.02 428.992M2387.49 417.217C2388.96 420.827 2388.52 423.678 2386.13 426.756C2383.48 430.168 2375.1 430.99 2374.23 426.756M2387.49 417.217C2386.63 416.661 2385.71 416.234 2384.76 415.947M2384.76 413.634C2383.87 404.495 2375.38 395.956 2366.29 397.237C2357.45 398.482 2350.4 406.689 2352.4 415.386C2353.57 420.439 2362.79 423.792 2368.87 425.477M2384.76 413.634C2384.76 415.262 2384.76 415.947 2384.76 415.947M2384.76 413.634C2383.55 412.102 2381.76 410.571 2379.83 409.797M2374.23 426.756C2373.39 422.69 2373.71 421.379 2375.63 418.666C2377.74 415.677 2381.39 414.921 2384.76 415.947M2374.23 426.756C2374.23 426.756 2371.96 426.331 2368.87 425.477M2379.83 409.797C2378.15 402.148 2367.51 400.65 2361.58 405.765C2356.8 409.882 2357.66 416.456 2361.58 420.852C2363.36 422.854 2364.02 423.944 2364.02 423.944M2379.83 409.797C2375.64 408.404 2371.88 409.364 2368.87 412.597C2366.32 415.34 2365.02 418.311 2366.29 421.837C2366.88 423.478 2367.52 424.38 2368.87 425.477M2368.87 425.477L2352.4 426.756L2269.08 430.242L2234.99 432.052L2199.94 433.138L2090.51 431.69L1894.73 428.899L1810.15 427.609M2475.5 543.256C2468.49 545.789 2462.93 548.25 2457.54 550.634M2475.5 543.256C2475.67 543.643 2475.85 544.375 2476.02 545.258M2457.69 555.814C2457.69 555.814 2463.13 556.157 2465.51 555.814C2469.7 555.21 2475.5 551.627 2475.5 551.627M2457.69 555.814L2457.69 551.054M2457.69 555.814C2457.69 555.814 2459.42 558.267 2461.43 561.374M2457.54 550.634L2457.69 551.054M2476.02 545.258C2476.37 547.111 2476.87 551.054 2476.87 551.054L2475.5 551.627M2476.02 545.258C2476.02 545.258 2471.5 548.106 2468.31 549.234C2464.34 550.636 2457.69 551.054 2457.69 551.054M2475.5 551.627C2475.5 551.627 2478.66 550.293 2479.09 551.627M2479.09 551.627C2480.55 556.195 2484.21 568.597 2483.15 581.993C2482.8 586.337 2471.41 587.741 2471.41 583.267C2471.41 578.266 2469.11 575.097 2465.95 568.974C2464.73 566.612 2463 563.795 2461.43 561.374M2479.09 551.627C2479.09 551.627 2481.55 560.797 2478 564.237C2474.87 567.27 2471.04 567.499 2466.97 565.943C2464.35 564.942 2461.43 561.374 2461.43 561.374M2352.97 568.887L2340.59 568.135M2352.97 568.887C2352.97 568.887 2355.05 568.803 2355.79 569.622C2356.96 570.911 2355.14 575.974 2355.14 575.974M2340.59 568.135L2339.62 566.109M2340.59 568.135C2340.59 568.135 2338.28 567.866 2337.97 568.887C2337.16 571.586 2338.95 575.974 2338.95 575.974M2355.14 575.974H2338.95M2355.14 575.974L2353.47 586.333M2338.95 575.974L2339.62 586.333M2339.62 586.333C2339.62 586.333 2337.36 601.92 2339.62 605.021C2340.59 606.369 2346.73 606.48 2349.73 605.533C2353.97 604.193 2352.97 588.573 2352.97 588.573L2353.47 586.333M2339.62 586.333H2353.47M2476.02 528.019C2478.12 520.648 2476.87 515.695 2472.17 510.67C2463.68 501.59 2447.69 503.874 2440.52 514.031C2434.32 522.826 2434.01 532.945 2442.37 539.73C2448.59 544.787 2462.32 541.899 2462.32 541.899M2476.02 528.019C2476.02 528.019 2477.06 536.474 2473.73 539.73C2470.48 542.899 2462.32 541.899 2462.32 541.899M2476.02 528.019C2476.02 528.019 2474.42 526.591 2473.05 526.935M2462.32 541.899C2462.32 541.899 2462.45 539.173 2463.2 536.307M2473.05 526.935C2470.11 528.644 2467.74 528.74 2465.51 531.312C2464.4 532.583 2463.67 534.473 2463.2 536.307M2473.05 526.935C2473.15 525.34 2472.96 523.767 2472.52 522.264M2458.97 537.357C2458.97 537.357 2447.14 539.414 2443.68 533.445C2438.9 525.195 2445.98 512.033 2455.41 510.67C2462.91 509.586 2470.45 515.139 2472.52 522.264M2458.97 537.357L2463.2 536.307M2458.97 537.357C2458.97 537.357 2458.74 534.334 2459.27 531.312M2472.52 522.264C2472.52 522.264 2470.63 522.427 2468.31 523.001M2459.27 531.312C2459.55 529.7 2460.04 528.089 2460.9 526.935C2462.46 524.845 2465.66 523.655 2468.31 523.001M2459.27 531.312C2459.27 531.312 2456.46 532.17 2453.87 532.045M2468.31 523.001L2465.12 520.469M2468.31 523.001L2438.56 522.172L2372.81 519.823H2313.73L2184.48 518.384L2011.16 517.148H1887.16H1708.35H1434.71H1308.64H1151.17H934.384H794.461M2465.12 520.469L2461.93 517.938C2461.93 517.938 2456.71 513.059 2451.06 517.938C2447.81 520.736 2446.6 528.579 2451.06 531.312C2451.83 531.79 2452.83 531.995 2453.87 532.045M2465.12 520.469C2465.12 520.469 2457.81 520.861 2455.41 524.131C2453.55 526.673 2453.87 532.045 2453.87 532.045M2369.24 542.94C2371.39 537.377 2371.25 532.88 2368.77 527.459C2364.54 518.241 2351.97 517.144 2342.19 519.823C2331.19 522.835 2329.16 535.066 2331.32 544.934C2333.77 556.12 2358.93 554.774 2358.93 554.774M2369.24 542.94C2370.78 546.474 2370.33 549.735 2367.89 552.718C2365.3 555.875 2361.53 557.678 2358.93 554.774M2369.24 542.94C2365.2 541.672 2361.47 542.874 2358.93 546.256C2356.68 549.254 2356.82 552.424 2358.93 554.774M2369.24 542.94L2367.89 540.529M2367.89 540.529C2367.89 527.459 2360.72 521.645 2351 522.172C2341.3 522.697 2334.85 532.518 2336.17 542.144C2336.61 545.381 2341.22 549.67 2346.22 551.359C2348.56 552.147 2350.97 552.43 2352.97 552.496M2367.89 540.529C2365.24 538.355 2358.82 538.047 2355.79 539.648C2353.09 541.078 2352.03 543.23 2351.6 546.256C2351.45 547.294 2351.45 547.903 2351.6 548.941M2367.89 540.529C2367.86 539.224 2367.45 538.001 2366.8 536.876M2357.52 552.289C2357.52 552.289 2355.61 552.584 2352.97 552.496M2351.6 548.941C2352.13 550.329 2352.97 552.496 2352.97 552.496M2351.6 548.941C2350.24 548.852 2348.96 548.422 2347.82 547.74M2363.88 533.446C2362.26 532.032 2360.43 530.907 2358.93 530.132C2353.31 527.225 2345.8 527.727 2343.09 533.446C2340.77 538.347 2343.26 545.029 2347.82 547.74M2363.88 533.446C2363.88 533.446 2354.73 532.063 2351 535.536C2347.39 538.891 2347.82 547.74 2347.82 547.74M2363.88 533.446C2365.03 534.45 2366.07 535.601 2366.8 536.876M1039.68 226.341C1039.68 226.341 1022.06 238.837 1013.91 249.709C1001.66 266.052 996.75 278.372 995.814 298.773C995.042 315.58 1004.63 340.945 1004.63 340.945C1004.63 340.945 1014.15 356.266 1021.73 364.903C1029.47 373.719 1033.87 379.035 1043.77 385.322C1054.66 392.229 1074.61 397.119 1074.61 397.119M1074.61 397.119L790.065 393.596L784.418 398.184M784.418 398.184L785.656 412.845M784.418 398.184L795.08 398.259M2244.23 460.79C2244.23 460.79 2269.08 453.95 2289.91 458.538C2298.84 460.504 2305.18 464.913 2306.38 473.974M2306.38 473.974C2307.59 483.036 2297.78 492.238 2286.73 493.833C2267.15 496.656 2239.54 496.656 2239.54 496.656M2306.38 473.974L2184.48 476.667H2031.13L1838.53 473.888L1564.61 471.748L1278.29 469.608L1000.08 467.04H812.204H790.231M2239.54 496.656H1558.35L1078.6 493.308H778.254L410.44 491.525M2234.99 535.354L2242.51 419.156M2242.51 419.156L2225.42 425.565H2211.42M2211.42 425.565L2208.74 422.713H2197.97L2198.96 424.139M2198.96 424.139L2112.15 423.046L2097.72 422.73M344.353 491.525H369.11M790.231 467.04L787.89 439.31M790.231 467.04L794.461 517.148M790.231 467.04L369.914 462.54M2244.7 453.402H2086.55L1952.47 452.166L1834.43 450.427L1645.96 448.688L1534.23 447.166L1394.45 445.862L1194.9 443.905L1024.69 441.949L924.912 440.862L787.89 439.31M787.89 439.31L785.656 412.845M787.89 439.31L780.152 439.211M1315.06 420.742L1367.87 421.515M1315.06 420.742V408.57L1312.37 405.444M1315.06 420.742L1317.35 546.48M1315.06 420.742L1308.64 420.643M785.656 412.845H795.793M785.656 412.845L767.903 412.554M794.461 517.148L797.124 542.472M794.461 517.148H381.779M2366.8 536.876H2296.67L2216.49 537.983H2083.57L1795.83 540.311H1632.49H1491.06H1263.45L924.912 542.472H797.124M797.124 542.472L797.124 548.696H809.723M797.124 542.472L781.549 542.546M341.009 462.23L364.331 462.48M332.954 434.011L351.313 434.225M322.722 405.485L360.943 406.15M354.177 517.148H381.779M360.418 543.782H507.223M1723.4 414.5L1726.75 414.582M1723.4 414.5L1645.96 412.055M1723.4 414.5L1719.28 416.776V426.223M2097.72 422.73L2096.97 428.769L2086.71 542.524M2097.72 422.73L2088.97 422.538M2088.97 422.538L2048.9 421.659L1996.14 420.447M1996.14 420.447L1995.18 428.621L1986.85 543.236M1996.14 420.447L1988.14 420.264M1986.85 543.236L1981.73 543.274M1988.14 420.264L1977.25 420.013L1900.49 417.935M1988.14 420.264L1989.25 428.621L1981.73 543.274M1981.73 543.274L1948.24 543.525L1893.29 544.072M1900.49 417.935V427.339L1893.29 544.072M1900.49 417.935L1893.29 417.74M1893.29 544.072L1887.16 544.133M1893.29 417.74L1881.26 417.414L1810.86 416.452M1893.29 417.74V427.339L1887.16 544.133M1887.16 544.133L1831.06 544.691L1804.4 544.853M1810.86 416.452L1810.15 427.609M1810.86 416.452L1802.88 416.343M1810.15 427.609L1802.88 427.498M1810.15 427.609L1804.4 544.853M1802.88 416.343L1792.72 416.205L1726.75 414.582M1802.88 416.343V427.498M1802.88 427.498L1798.82 544.887M1802.88 427.498L1725.5 426.318M1804.4 544.853L1798.82 544.887M1798.82 544.887L1720.88 545.362M1726.75 414.582L1725.5 426.318M1725.5 426.318L1720.88 545.362M1725.5 426.318L1719.28 426.223M1645.96 412.055L1647.16 414.673V425.189M1645.96 412.055H1640.05M1647.16 425.189L1700.26 425.933L1719.28 426.223M1647.16 425.189L1640.05 425.089M1647.16 425.189L1642.93 545.837M1640.05 412.055L1631.41 411.646L1569.59 410.463M1640.05 412.055L1640.05 414.673V425.089M1640.05 425.089L1637.8 545.868M1640.05 425.089L1572.61 424.145M1642.93 545.837L1637.8 545.868M1642.93 545.837L1716.38 545.389M1637.8 545.868L1569.59 546.284M1569.59 410.463L1572.61 413.74V424.145M1569.59 410.463L1565.87 410.392M1572.61 424.145L1565.87 424.05M1572.61 424.145L1569.59 546.284M1565.87 410.392L1541.15 409.919L1499.79 408.924M1565.87 410.392V413.74V424.05M1565.87 424.05L1506.14 423.214L1502.33 423.164M1565.87 424.05L1564.61 546.314M1569.59 546.284L1564.61 546.314M1564.61 546.314L1537.38 546.48H1501.24M1499.79 408.924L1502.33 411.654V423.164M1499.79 408.924L1496.78 408.852M1502.33 423.164L1495.37 423.074M1502.33 423.164L1501.24 546.48M1496.78 408.852L1483.66 408.536L1434.71 407.717M1496.78 408.852L1495.37 411.654V423.074M1495.37 423.074V546.48M1495.37 423.074L1436.74 422.316M1501.24 546.48H1495.37M1495.37 546.48H1436.74M1720.88 545.362L1716.38 545.389M1719.28 426.223L1716.38 545.389M1434.71 407.717L1436.74 411.305V422.316M1434.71 407.717L1429.68 407.633M1436.74 422.316L1428.86 422.214M1436.74 422.316V546.48M1429.68 407.633L1424.66 407.549L1372.07 406.563M1429.68 407.633L1428.86 411.305V422.214M1428.86 422.214L1429.68 546.48M1428.86 422.214L1374.8 421.515M1429.68 546.48H1424.66H1374.8M1429.68 546.48H1436.74M1372.07 406.563L1374.8 410.34V421.515M1372.07 406.563L1367.87 406.484M1374.8 421.515H1367.87M1374.8 421.515V546.48M1367.87 406.484L1367.06 410.34L1367.87 421.515M1367.87 406.484L1312.37 405.444M1367.87 421.515L1369.32 546.48M1369.32 546.48H1374.8M1369.32 546.48H1317.35M1312.37 405.444L1309.8 405.396M1317.35 546.48H1311.56M1309.8 405.396L1298.16 405.178L1257.56 404.532M1309.8 405.396L1308.64 408.57V420.643M1308.64 420.643L1311.56 546.48M1308.64 420.643L1260.02 419.897M1311.56 546.48H1287.3L1263.45 546.691M1257.56 404.532L1260.02 406.209V419.897M1257.56 404.532L1254.52 404.484M1260.02 419.897H1254.52M1260.02 419.897L1263.45 546.691M1254.52 404.484L1253.05 406.209L1254.52 419.897M1254.52 404.484L1209.03 403.76M1254.52 419.897L1257.5 546.743M1254.52 419.897L1209.03 419.17M1263.45 546.691L1257.5 546.743M1257.5 546.743L1212.05 547.145M1209.03 403.76V419.17M1209.03 403.76L1201.61 403.642M1209.03 419.17L1201.61 419.052M1209.03 419.17L1212.05 547.145M1201.61 403.642L1198.79 403.598L1157.51 402.828M1201.61 403.642L1201.61 419.052M1201.61 419.052L1207.4 547.186M1201.61 419.052L1160.28 418.391M1212.05 547.145L1207.4 547.186M1207.4 547.186L1164.68 547.564M1157.51 402.828L1160.28 405.471V418.391M1157.51 402.828L1154.11 402.765M1160.28 418.391H1152.89M1160.28 418.391L1164.68 547.564M1154.11 402.765L1151.98 405.471L1152.89 418.391M1154.11 402.765L1113.97 402.017M1152.89 418.391L1121.76 417.775L1113.02 417.631M1152.89 418.391L1155.41 482.348L1158.77 547.616M1164.68 547.564L1158.77 547.616M1158.77 547.616L1120.42 547.955M1113.97 402.017L1113.02 405.749V417.631M1113.97 402.017L1105.7 401.863M1113.02 417.631L1107.4 417.539M1113.02 417.631L1120.42 547.955M1105.7 401.863L1103.38 401.82L1068.4 400.973M1105.7 401.863L1106.92 405.749L1107.4 417.539M1107.4 417.539L1113.97 548.012M1107.4 417.539L1070.63 416.932M1113.97 548.012L1120.42 547.955M1113.97 548.012L1077.37 548.335M1068.4 400.973L1070.63 405.019V416.932M1068.4 400.973L1063.76 400.861M1070.63 416.932L1063.76 416.349M1070.63 416.932L1073.21 482.646L1077.37 548.335M1063.76 400.861L1062.55 405.019L1063.76 416.349M1063.76 400.861L1027.73 399.989M1063.76 416.349L1071.93 548.384M1063.76 416.349L1030.5 415.904M1077.37 548.335L1071.93 548.384M1071.93 548.384L1037.21 548.69M1027.73 399.989L1030.5 402.674V415.904M1027.73 399.989L1022.37 399.86M1030.5 415.904L1037.21 548.69M1030.5 415.904L991.67 415.384M1022.37 399.86L1021.73 399.844L989.009 399.615M1022.37 399.86V402.674L1023.27 415.904L1031.49 548.696M1031.49 548.696H1036.62L1037.21 548.69M1031.49 548.696H1000.08M989.009 399.615L991.67 402.775V415.384M989.009 399.615L984.478 399.584M991.67 415.384L1000.08 548.696M991.67 415.384L954.658 414.888M984.478 399.584L984.055 402.775V415.384L993.948 548.696M984.478 399.584L954.658 399.375M993.948 548.696H1000.08M993.948 548.696H964.625M954.658 399.375L954.199 402.601L954.658 414.888M954.658 399.375L947.155 399.323M954.658 414.888L948.436 414.804M954.658 414.888L964.625 548.696M947.155 399.323L948.436 405.345V414.804M947.155 399.323L920.885 399.139M948.436 414.804L958.925 548.696M948.436 414.804L920.885 414.435M964.625 548.696H958.925M958.925 548.696H930.699M920.885 399.139V414.435M920.885 399.139L914.993 399.098M920.885 414.435L913.906 414.342M920.885 414.435L930.699 548.696M914.993 399.098L913.906 399.584V414.342M914.993 399.098L887.455 398.905M913.906 414.342L911.89 414.315L888.43 414.042M913.906 414.342L926.119 548.696M930.699 548.696H926.119M926.119 548.696H899.548M887.455 398.905L888.43 400.215V414.042M887.455 398.905L881.293 398.862M888.43 414.042L882.4 413.971M888.43 414.042L899.548 548.696M881.293 398.862V400.215L882.4 413.971M881.293 398.862L857.005 398.692M882.4 413.971L894.048 548.696M882.4 413.971L829.329 413.354M899.548 548.696H894.048M894.048 548.696H870.264M857.005 398.692L851.094 398.651M857.005 398.692L862.757 474.012L870.264 548.696M870.264 548.696H863.674M851.094 398.651L863.674 548.696M851.094 398.651L830.702 398.508M830.702 398.508L828.581 401.459L829.329 413.354M830.702 398.508L822.218 398.449M829.329 413.354L823.422 412.845M829.329 413.354L841.011 548.696M822.218 398.449V401.459L823.422 412.845M822.218 398.449L802.685 398.312M823.422 412.845L836.511 548.696M823.422 412.845H802.685M841.011 548.696H836.511M836.511 548.696H815.358M802.685 398.312V412.845M802.685 398.312L795.08 398.259M802.685 412.845H795.793M802.685 412.845L808.152 480.775L815.358 548.696M795.08 398.259L795.793 412.845M795.793 412.845L809.723 548.696M815.358 548.696H809.723M780.152 439.211C780.152 439.211 778.254 399.846 772.435 379.727C771.6 376.84 770.087 375.572 767.903 373.507C767.015 372.667 765.653 371.736 764.651 371.094C763.811 370.556 762.836 370.282 761.839 370.251L742.926 369.667C742.926 369.667 740.521 366.561 736.798 362.824M780.152 439.211C780.152 439.211 787.102 495.828 790.065 530.763C790.492 535.796 790.303 545.558 790.164 550.607C790.109 552.64 789.171 554.584 787.363 555.515C786.001 556.217 784.284 556.868 782.604 556.868M780.152 439.211L367.238 434.41M782.604 556.868V556.868C781.663 559.077 779.59 560.595 777.199 560.823L764.096 562.076M782.604 556.868L781.549 542.546M764.096 562.076C764.096 562.076 756.713 573.185 749.239 575.248C744.722 576.495 739.882 576.279 735.311 575.248C725.859 573.117 719.025 561.201 719.025 561.201M764.096 562.076L719.025 561.201M663.827 379.727C663.827 379.727 664.852 371.709 668.471 371.709C672.671 371.709 688.94 371.709 688.94 371.709C688.94 371.709 690.456 367.105 694.376 362.412M663.827 379.727L665.206 395.081L683.175 553.015C683.248 553.66 683.346 554.304 683.575 554.911C683.881 555.723 684.458 556.901 685.435 557.753C686.643 558.806 689.02 559.758 690.457 560.271C691.24 560.551 692.066 560.678 692.897 560.694L719.025 561.201M663.827 379.727C663.827 379.727 664.918 377.275 666.414 377.275C667.499 377.275 669.66 377.275 669.66 377.275C669.66 377.275 721.183 376.913 754.139 376.913C758.227 376.913 763.198 376.98 764.222 381.785C764.373 382.49 764.531 383.373 764.693 384.388M736.798 362.824L694.376 362.412M736.798 362.824C736.798 362.824 729.433 353.111 722.5 351.06C717.458 349.568 711.001 349.493 705.982 351.06C699.273 353.154 694.376 362.412 694.376 362.412M767.903 412.554L781.549 542.546M767.903 412.554C767.903 412.554 766.123 393.318 764.693 384.388M767.903 412.554L378.055 406.448M781.549 542.546L520.057 543.782H507.223M764.693 384.388C764.693 384.388 764.24 381.2 762.484 380.456C761.377 379.986 759.265 380.106 759.265 380.106L672.671 380.376C672.671 380.376 669.115 380.376 667.818 380.376C664.939 380.376 664.241 384.334 664.475 386.946M342.095 680.585L358.179 662.944C358.179 662.944 365.878 658.148 371.444 657.273C386.243 654.947 399.555 663.209 404.038 677.504C404.038 677.504 407.208 691.221 400.204 697.447L377.894 720.016M342.095 680.585C342.095 680.585 352.627 676.719 359.476 677.504C368.845 678.577 378.056 682.982 383.082 690.961C389.476 701.113 377.894 720.016 377.894 720.016M342.095 680.585C342.095 680.585 332.099 688.758 332.756 697.447C333.317 704.857 336.61 712.926 342.095 717.94C347.525 722.904 352.134 724.738 359.476 725.204C366.934 725.677 377.894 720.016 377.894 720.016M285.543 780.459C297.092 769.721 315.116 752.961 315.116 752.961C315.116 752.961 326.242 752.197 332.756 754.518C341.701 757.704 347.733 761.339 351.434 770.083C355.324 779.273 353.966 784.097 348.3 792.312L323.677 816.156M285.543 780.459C280.274 788.444 279.551 796.004 283.208 804.844C286.838 813.618 292.595 818.45 301.886 820.409C310.228 822.168 318.074 821.738 323.677 816.156M285.543 780.459C292.227 774.365 298.979 772.48 307.852 774.233C315.048 775.655 319.122 778.601 323.677 784.35C330.378 792.81 332.298 802.827 326.79 812.108C325.854 813.685 324.811 815.026 323.677 816.156M459.442 711.777L509.853 684.361C509.853 684.361 513.302 682.853 515.339 683.471C516.123 683.709 516.283 683.827 516.699 684.532C517.434 685.774 515.339 688.033 515.339 688.033L461.568 715.725M459.442 711.777L461.568 715.725M459.442 711.777C459.442 711.777 458.289 711.238 456.701 710.694M461.568 715.725C461.568 715.725 461.842 719.409 460.575 722.565M452.416 709.647C446.326 708.94 443.152 714.008 438.478 717.976C433.964 721.808 428.921 728.027 426.858 730.662M452.416 709.647C453.875 709.817 455.428 710.257 456.701 710.694M452.416 709.647C452.416 709.647 438.478 723.137 430.54 729.564C429.374 730.508 426.858 730.662 426.858 730.662M460.575 722.565C458.333 728.149 452.335 728.665 446.977 731.404C442.842 733.517 437.54 735.759 434.369 737.057M460.575 722.565L434.369 737.057M434.369 737.057C432.695 737.742 431.615 738.163 431.615 738.163C431.615 738.163 427.224 739.403 425.9 737.353C424.639 735.401 425.9 731.904 425.9 731.904C425.9 731.904 426.249 731.439 426.858 730.662M456.701 710.694L432.614 731.404M8.4716 428.307L8.2327 428.351C5.62977 428.825 3.80931 431.194 4.02165 433.831V433.831M8.4716 428.307C9.37195 437.954 9.93102 443.732 10.915 452.514M10.915 452.514H10.2327C7.82221 452.514 5.78743 450.722 5.48234 448.331V448.331M4.02165 433.831L4.68644 442.091L5.48234 448.331M4.02165 433.831L2.2564 435.092C1.46818 435.655 1.00041 436.564 1.00041 437.533V443.594C1.00041 444.565 1.47004 445.476 2.26087 446.039L5.48234 448.331M521.912 555.193C521.912 555.193 528.89 555.668 530.554 553.139C532.018 550.913 531.701 546.448 531.701 546.448L506.813 377.318C506.575 375.702 505.791 374.207 504.499 373.208C503.618 372.526 502.57 371.783 501.652 371.316C500.376 370.666 498.461 370.094 497.417 369.808C496.924 369.673 496.417 369.607 495.906 369.597L485.146 369.368M521.912 555.193L496.708 388.084C496.686 387.936 496.656 387.792 496.614 387.649C496.42 386.983 495.771 384.919 494.895 383.765C493.641 382.113 490.821 381.687 490.12 381.604C490.013 381.592 489.906 381.588 489.798 381.588H478.697M521.912 555.193C521.912 555.193 522.375 557.377 521.912 558.288C521.346 559.401 513.384 560 513.384 560L504.042 560.701C504.042 560.701 503.699 561.364 503.082 562.385M410.44 491.525L421.029 550.526C421.071 550.756 421.115 550.985 421.173 551.213C421.458 552.339 422.527 555.969 424.787 557.683C425.753 558.416 427.564 559.113 429.126 559.626C430.995 560.24 432.963 560.458 434.93 560.458H462.57C462.57 560.458 463.184 561.239 464.178 562.385M410.44 491.525L393.439 390.488C393.439 390.488 393.063 385.781 393.838 383.765C393.838 383.765 397.048 379.881 399.94 376.8C400.585 376.113 401.339 375.363 402.117 374.616M410.44 491.525H375.927M475.035 362.396C473.791 360.428 472.322 358.447 470.78 357.081C465.029 351.986 460.082 350.342 452.408 349.989C446.448 349.715 442.278 349.772 437.36 353.149C434.529 355.093 432.5 358.92 431.15 362.396M475.035 362.396C477.209 365.834 478.697 369.231 478.697 369.231L485.146 369.368M475.035 362.396H431.15M431.15 362.396C429.667 366.217 429.005 369.613 429.005 369.613H407.634C407.634 369.613 404.735 372.102 402.117 374.616M485.146 369.368L481.922 374.258L478.697 381.588M478.697 381.588L429.005 380.368V374.616H402.117M503.082 562.385C501.377 565.208 497.584 570.767 493.172 572.625C488.967 574.397 486.057 574.677 481.558 573.916C477.867 573.291 475.91 572.17 472.709 570.229C469.587 568.335 466.141 564.649 464.178 562.385M503.082 562.385H464.178M507.223 543.782C507.223 543.782 506.327 548.875 504.042 550.872C501.915 552.729 497.483 552.308 497.483 552.308H443.126C440.03 552.308 436.935 551.712 434.261 550.15C432.768 549.278 431.218 548.238 430.258 547.22C428.81 545.685 427.778 543.06 427.251 541.483C426.962 540.615 426.78 539.718 426.638 538.814L405.728 406.456C405.439 404.624 405.191 402.78 405.255 400.926C405.314 399.22 405.549 397.111 406.274 395.755C407.341 393.762 408.335 392.687 410.285 391.544C411.997 390.54 414.427 390.49 414.689 390.488C414.706 390.488 414.721 390.488 414.737 390.488H471.035C472.553 390.488 474.074 390.615 475.525 391.057C476.59 391.382 477.823 391.837 478.697 392.405C479.573 392.973 480.503 393.708 481.353 394.434C483.453 396.231 484.961 398.594 486.035 401.141V401.141C486.754 402.845 487.257 404.632 487.532 406.461L505.235 523.888L507.223 543.782ZM260.587 376.677L264.382 370.353C265.831 367.937 268.442 366.459 271.26 366.459V366.459H348.24V370.804M260.587 376.677C260.587 376.677 307.228 376.677 337.113 376.677M260.587 376.677C260.587 376.677 258.929 377.944 258.048 378.937V378.937C256.444 380.743 256.008 383.261 256.08 385.675L256.44 397.848M337.113 376.677C341.458 374.383 348.24 370.804 348.24 370.804M337.113 376.677C337.681 381.095 338.568 387.989 338.568 387.989M287.131 565.763C287.131 565.763 288.764 574.198 292.117 578.227C293.224 579.557 294.891 580.856 296.483 581.931C299.333 583.856 302.773 584.598 306.213 584.598H354.023M287.131 565.763C287.131 565.763 287.994 577.72 291.009 584.598C292.117 587.124 292.425 588.838 294.333 590.83V590.83C298.233 594.902 304.673 594.708 310.311 594.708H354.023M287.131 565.763L283.655 547.179M354.023 584.598V594.708M354.023 584.598V570.832L360.06 566.939C361.128 566.249 362.556 566.847 362.815 568.092V568.092L371.444 565.508M354.023 594.708L363.748 588.224C364.86 587.482 365.529 586.233 365.529 584.896V581.125L369.204 579.325C370.575 578.653 371.444 577.259 371.444 575.733V565.508M348.24 370.804H352.075M368.656 370.804L372.033 371.884C372.731 372.107 373.378 372.465 373.938 372.937V372.937C375.199 374.002 375.927 375.568 375.927 377.218V377.897C375.927 377.897 382.352 378.98 385.323 381.568C389.066 384.829 390.742 388.246 390.447 393.201C390.168 397.883 388.37 400.877 384.63 403.707C382.636 405.216 378.055 406.448 378.055 406.448M368.656 370.804C368.656 370.804 369.628 371.573 370.057 372.222C371.279 374.071 370.057 377.897 370.057 377.897C370.057 377.897 366.742 377.157 364.847 377.897C362.153 378.948 361.656 381.195 360.331 383.765C359.292 385.78 358.041 390.963 358.041 390.963M368.656 370.804H352.075M378.055 406.448C378.055 406.448 380.698 422.399 381.779 432.694C383.72 451.168 382.675 461.672 383.661 480.221C384.688 499.54 386.988 529.648 386.988 529.648M378.055 406.448L360.943 406.15M387.375 535.394L386.988 529.648M362.627 389.247C362.627 389.247 364.922 385.334 367.238 383.765C370.135 381.802 375.927 382.685 375.927 382.685C375.927 382.685 381.444 383.927 383.661 386.831C385.114 388.734 386.15 389.98 386.292 392.37C386.455 395.107 385.372 397.384 383.661 398.88C381.95 400.375 380.778 400.035 380.778 400.035M362.627 389.247C362.627 389.247 358.022 390.206 356.337 392.37M362.627 389.247C362.627 389.247 364.239 389.382 366.17 389.853M372.269 402.179C370.059 405.566 363.082 406.57 359.03 404.158C354.905 401.702 356.337 392.37 356.337 392.37M372.269 402.179C372.73 401.473 373.088 400.755 373.34 400.035M372.269 402.179C372.269 402.179 375.162 403.077 376.936 402.622C378.688 402.172 380.778 400.035 380.778 400.035M356.337 392.37L354.177 380.368M338.568 387.989L337.113 389.247M338.568 387.989L343.414 385.623M337.113 389.247H283.105M337.113 389.247L333.361 392.814C333.108 393.055 332.999 393.41 333.073 393.751L334.952 402.419C335.092 403.066 334.576 403.668 333.916 403.63L297.862 401.508C296.38 401.508 296.327 403.063 296.301 404.545C296.268 406.495 298.048 407.391 299.998 407.391C307.796 407.391 320.551 407.391 320.551 407.391L334.249 407.645C334.794 407.655 335.231 408.1 335.231 408.645V419.526M270.555 389.247H279.038H283.105M270.555 389.247V389.247C267.367 391.253 264.811 394.263 264.072 397.957C264.008 398.276 263.953 398.586 263.91 398.88C263.413 402.274 263.91 407.663 263.91 407.663L290.306 549.814C290.77 552.316 291.73 554.699 293.129 556.824V556.824C295.922 561.067 300.308 563.969 305.174 565.424C309.972 566.859 315.885 569.033 319.393 571.808C323.647 575.172 326.781 580.116 326.781 580.116M270.555 389.247L268.419 392.348M380.697 549.377C379.381 546.998 379.5 545.193 380.168 542.558C380.897 539.684 382.424 537.507 384.63 536.324M380.697 549.377C382.97 552.524 385.156 553.484 389.196 554.003C390.529 554.174 392.636 554.003 392.636 554.003M380.697 549.377L379.195 550.648L375.996 524.465C375.953 524.115 376.098 523.768 376.377 523.552L381.779 519.379M369.11 559.182H306.267C303.41 559.182 300.666 558.067 298.618 556.075V556.075C296.967 554.469 295.864 552.384 295.464 550.115L295.229 548.782M369.11 559.182V547.031C369.11 546.478 368.663 546.031 368.11 546.031H354.023V546.031C352.751 546.74 351.303 547.075 349.848 546.997L336.707 546.294C333.466 546.12 328.587 545.803 328.582 542.558V542.558V542.558C328.579 540.947 330.504 540.224 332.112 540.311L346.772 541.106C348.593 541.205 350.374 541.686 351.998 542.518L352.075 542.558L366.323 541.334C366.84 541.29 367.238 540.857 367.238 540.338V530.059M369.11 559.182L377.418 552.152L373.893 527.13C373.789 526.388 372.936 526.02 372.325 526.453L367.238 530.059M268.419 392.348L269.033 396.741M268.419 392.348H283.558M283.105 389.247L283.558 392.348M292 418.078L288.751 415.999C287.53 415.217 286.708 413.944 286.499 412.509L285.615 406.448M292 418.078L335.231 419.526M292 418.078L291.076 422.313M335.231 419.526L344.495 414.499C345.189 414.122 345.597 413.372 345.535 412.584L343.414 385.623M335.231 419.526H339.322M291.076 422.313H282.017M291.076 422.313L291.814 426.556M343.414 447.998L300.823 445.017M343.414 447.998H350.603M343.414 447.998L359.03 436.409M343.414 447.998V437.409C343.414 436.856 342.97 436.409 342.418 436.409C339.785 436.409 332.504 436.409 327.49 436.409C324.979 436.409 321.061 436.409 321.061 436.409L307.877 436.173C305.978 436.139 304.849 433.949 304.957 432.053V432.053C305.028 430.798 325.465 432.058 327.49 432.053L342.035 432.069C342.715 432.07 343.197 431.406 342.986 430.759L339.322 419.526M300.823 445.017L297.296 444.77C295.92 444.673 294.787 443.651 294.55 442.291L293.527 436.409M300.823 445.017L300.454 445.882C299.864 447.265 299.676 448.785 299.91 450.27L299.998 450.827M352.075 477.591L349.703 466.426C349.605 465.964 349.197 465.634 348.725 465.634H337.113H329.521L321.061 465.09L316.773 464.448C314.758 464.146 312.518 462.766 312.965 460.778V460.778V460.778C313.135 460.022 314.078 460.268 314.853 460.268H327.49C327.49 460.268 327.49 460.268 327.49 460.268C327.49 460.268 332.954 460.268 336.554 460.268C340.419 460.268 346.364 460.268 348.623 460.268C349.141 460.268 349.57 459.871 349.615 459.354L350.603 447.998M352.075 477.591L347.218 477.171M352.075 477.591L356.941 474.519M303.291 471.676V471.676C303.451 472.687 304.28 473.459 305.3 473.547L347.218 477.171M303.291 471.676L298.349 477.591M303.291 471.676L302.073 463.963M298.349 477.591L299.317 481.843M298.349 477.591H292.838M307.578 502.787V501.403L303.563 500.492L301.522 491.525M307.578 502.787L352.075 504.281M307.578 502.787L306.796 505.716M352.075 504.281L351.378 494.366C351.341 493.842 350.906 493.436 350.381 493.436H335.231H321.505C317.52 493.436 311.854 493.684 310.894 489.817C310.848 489.631 310.828 489.441 310.84 489.246C310.949 487.516 314.382 488.143 314.382 488.143C318.584 488.705 343.644 489.127 349.899 489.224C350.59 489.235 351.08 488.559 350.858 487.904L347.218 477.171M352.075 504.281H355.769M352.075 504.281L359.956 498.168C360.241 497.946 360.385 497.588 360.332 497.23L360.175 496.184M306.796 505.716H297.221M306.796 505.716L308.202 510.414M316.747 530.059L313.532 528.222L310.886 519.379M316.747 530.059L360.418 530.978M316.747 530.059L313.532 532.363M360.418 530.978L367.238 530.059M360.418 530.978L359.538 520.297C359.495 519.778 359.062 519.379 358.542 519.379H352.701H326.383C325.144 519.379 323.939 518.973 322.953 518.224L322.302 517.729C321.801 517.348 321.299 516.479 321.471 515.873V515.873C321.857 514.509 323.268 514.361 324.685 514.405L345.637 515.05H357.682C358.353 515.05 358.834 514.403 358.639 513.761L355.769 504.281M360.418 530.978L368.872 525.504M313.532 532.363L315.481 538.749M313.532 532.363H302.935M321.537 558.6L318.541 548.782M371.444 565.508L376.602 563.452H389.196H391.915C392.48 563.452 392.933 562.984 392.914 562.419L392.636 554.003M392.636 554.003C392.636 554.003 396.284 552.792 397.846 550.648C398.283 550.048 398.636 549.423 398.906 548.782M392.636 535.819C395.343 536.585 397.349 538.284 398.664 541.256C399.781 543.779 399.91 546.399 398.906 548.782M392.636 535.819C392.636 535.819 396.078 534.812 397.846 535.819C399.575 536.804 400.703 538.014 401.416 539.872C402.245 542.035 402.321 543.898 401.416 546.031M392.636 535.819C392.206 535.697 391.759 535.599 391.293 535.523M401.416 546.031C400.847 547.369 398.906 548.782 398.906 548.782M401.416 546.031C401.416 546.031 402.927 546.563 404.307 546.031C404.892 545.805 405.367 545.493 405.745 545.115M398.906 548.782C398.906 548.782 404.624 550.324 407.688 548.782C410.9 547.166 411.989 544.709 412.992 541.256C413.851 538.295 413.872 536.316 412.992 533.361C411.465 528.239 408.22 525.439 403.101 523.9C399.856 522.925 397.645 522.849 394.424 523.9C390.934 525.039 386.988 529.648 386.988 529.648M391.293 535.523C390.63 535.415 389.931 535.352 389.196 535.33C387.456 535.278 385.926 535.63 384.63 536.324M391.293 535.523C391.293 535.523 390.44 532.197 392.636 531.173M392.636 531.173C394.817 530.156 398.305 530.191 400.501 531.173C403.437 532.486 404.952 534.213 406.098 537.218C407.159 540 407.541 543.315 405.745 545.115M392.636 531.173C392.636 531.173 396.117 527.995 398.906 527.627C402.573 527.144 405.193 528.443 407.688 531.173C410.167 533.885 411.611 536.688 410.44 540.171C409.592 542.695 405.745 545.115 405.745 545.115M285.615 406.448L284.36 397.848M285.615 406.448L278.085 407.037M270.555 407.625L271.26 412.668L272.958 422.313M270.555 407.625L269.033 396.741M270.555 407.625L278.085 407.037M284.36 397.848L269.033 396.741M284.36 397.848L283.558 392.348M272.958 422.313H282.017M272.958 422.313L273.705 426.556M293.527 436.409L291.814 426.556M293.527 436.409L284.429 436.096M275.331 435.784L277.98 450.827M275.331 435.784L273.705 426.556M275.331 435.784L284.429 436.096M299.998 450.827H288.989M299.998 450.827L300.538 454.245M277.98 450.827H288.989M277.98 450.827L278.581 454.245M302.073 463.963L300.538 454.245M302.073 463.963H291.183M280.293 463.963L282.693 477.591M280.293 463.963L278.581 454.245M280.293 463.963H291.183M282.693 477.591L283.442 481.843M282.693 477.591H292.838M301.522 491.525L299.317 481.843M301.522 491.525H293.334M285.146 491.525L287.645 505.716M285.146 491.525L283.442 481.843M285.146 491.525H293.334M287.645 505.716H297.221M287.645 505.716L288.473 510.414M310.886 519.379L308.202 510.414M310.886 519.379H300.468M290.052 519.379L292.338 532.363M290.052 519.379L288.473 510.414M290.052 519.379H300.468M292.338 532.363L293.527 539.116M292.338 532.363H302.935M318.541 548.782H295.229M318.541 548.782L315.481 538.749M295.229 548.782L293.527 539.116M381.779 517.148V519.379M381.779 517.148L372.942 522.869M381.779 517.148L375.927 491.525M381.779 519.379L384.63 536.324M369.11 491.525H375.927M369.11 491.525L364.331 462.48M375.927 491.525L373.461 493.436L369.914 496.184M361.807 471.446L356.941 474.519M361.807 471.446L362.531 474.519M361.807 471.446L361.235 467.599L360.943 465.634L358.29 450.243C358.224 449.855 358.39 449.464 358.717 449.244L360.5 448.041C361.267 447.524 361.579 446.549 361.255 445.683L360.138 442.696M361.807 434.347L359.03 436.409M361.807 434.347L351.313 434.225M361.807 434.347L364.331 462.48M361.807 434.347L367.238 434.41M350.603 447.998L360.138 442.696M360.138 442.696L359.03 436.409M352.075 370.804L354.177 380.368M354.177 380.368L347.218 383.765M380.778 400.035C381.204 399.696 381.553 399.312 381.779 398.88C382.807 396.915 382.366 395.34 381.779 393.201C380.952 390.187 379.777 388.132 376.936 386.831C374.429 385.683 371.816 386.145 368.656 386.831C365.496 387.517 366.17 389.853 366.17 389.853M343.414 385.623L347.218 383.765M347.218 383.765L349.303 408.084C349.418 409.426 350.801 410.273 352.049 409.766L360.943 406.15M360.943 406.15L362.627 408.521M362.627 408.521L356.014 412.247C355.271 412.665 354.875 413.508 355.027 414.347L359.03 436.409M362.627 408.521L367.238 434.41M278.085 407.037L282.017 422.313M291.814 426.556H273.705M284.429 436.096L288.989 450.827M300.538 454.245H278.581M299.317 481.843H283.442M291.183 463.963L292.838 477.591M293.334 491.525L297.221 505.716M308.202 510.414H288.473M315.481 538.749L293.527 539.116M300.468 519.379L302.935 532.363M351.313 434.225L349.74 423.954C349.616 423.146 349.997 422.344 350.701 421.928L354.011 419.975C354.446 419.718 354.622 419.178 354.42 418.715L353.126 415.744C352.896 415.215 352.267 414.991 351.754 415.254L343.629 419.416C343.488 419.488 343.332 419.526 343.173 419.526H339.322M355.769 504.281H358.778C359.222 504.281 359.653 504.134 360.003 503.862L366.166 499.088C366.808 498.591 367.743 499.025 367.777 499.836L368.872 525.504M369.11 390.819C370.041 391.229 370.897 391.738 371.536 392.37C373.743 394.556 374.3 397.305 373.34 400.035M369.11 390.819C369.11 390.819 372.959 389.434 374.751 390.38C376.54 391.324 376.936 392.056 376.936 394.225C376.936 396.394 373.34 400.035 373.34 400.035M369.11 390.819C368.156 390.399 367.124 390.085 366.17 389.853M364.331 462.48L369.914 462.54M356.941 474.519L357.337 477.171M368.872 525.504L372.942 522.869M369.914 496.184L372.942 522.869M369.914 496.184H360.175M362.531 474.519L357.337 477.171M362.531 474.519L364.11 485.589C364.24 486.498 363.734 487.379 362.883 487.725L359.14 489.246M357.337 477.171L359.14 489.246M359.14 489.246L359.765 493.436L360.175 496.184M256.44 397.848L256.453 398.283C256.534 401.023 256.828 403.753 257.332 406.448V406.448M256.44 397.848C256.44 397.848 252.508 400.09 252.647 402.4C252.793 404.814 257.332 406.448 257.332 406.448M257.332 406.448L260.683 424.363M260.683 424.363C260.683 424.363 257.164 428.762 258.048 431.659C258.796 434.109 262.878 436.096 262.878 436.096M260.683 424.363L262.878 436.096M262.878 436.096L266.367 454.75M266.367 454.75C266.367 454.75 263.349 458.48 263.91 461.066C264.447 463.539 268.419 465.721 268.419 465.721M266.367 454.75L268.419 465.721M268.419 465.721L271.242 480.811M271.242 480.811C271.242 480.811 267.834 484.932 268.419 487.826C268.991 490.657 273.55 493.152 273.55 493.152M271.242 480.811L273.55 493.152M273.55 493.152L276.509 508.973M276.509 508.973C276.509 508.973 273.599 513.31 274.31 516.155C274.95 518.711 278.795 521.195 278.795 521.195M276.509 508.973L278.795 521.195M278.795 521.195L281.454 535.407M281.454 535.407C281.454 535.407 277.303 540.644 278.795 543.7C279.82 545.797 283.655 547.179 283.655 547.179M281.454 535.407L283.655 547.179M369.914 462.54L373.461 491.525M369.914 462.54L367.238 434.41M751.69 395.081C749.692 393.183 746.18 391.526 744.264 390.708C743.384 390.331 742.436 390.164 741.479 390.164H683.127C682.218 390.164 681.315 390.296 680.468 390.624C678.63 391.335 675.33 392.832 673.977 394.831C673.562 395.444 673.209 396.235 672.911 397.104C671.217 402.027 671.749 407.379 672.394 412.545L688.129 538.534C688.658 542.768 690.264 546.921 693.444 549.765V549.765V549.765C696.951 552.903 702.016 553.288 706.722 553.329L759.941 553.788C761.323 553.8 762.698 553.537 763.92 552.893C765.345 552.142 767.24 551.004 768.359 549.765C769.85 548.115 770.858 545.291 771.429 543.285C771.865 541.753 771.909 540.147 771.732 538.563L756.743 404.403C756.569 402.842 756.124 401.32 755.32 399.972C754.398 398.426 753.043 396.367 751.69 395.081ZM370.057 396.741C369.956 394.398 368.164 393.111 365.939 392.37C363.179 391.453 360.68 392.3 359.463 394.941C358.236 397.599 359.104 400.385 361.807 401.508C363.297 402.127 364.415 402.037 365.939 401.508C368.263 400.701 370.163 399.199 370.057 396.741ZM389.196 539.872C386.833 540.383 385.469 542.737 385.905 545.115C386.365 547.618 388.839 549.458 391.293 548.782C393.325 548.222 394.442 546.494 394.424 544.386C394.401 541.689 391.832 539.303 389.196 539.872ZM341.009 568.643C340.932 564.51 336.932 561.77 332.803 561.957C328.888 562.135 325.392 564.724 325.318 568.643C325.243 572.629 328.82 575.403 332.803 575.585C336.996 575.776 341.087 572.839 341.009 568.643Z" stroke="white" stroke-linecap="round" stroke-linejoin="round"/>
<circle cx="375.291" cy="704.021" r="2.70912" transform="rotate(90 375.291 704.021)" stroke="white"/>
<path d="M531.558 684.896C527.837 684.896 524.921 682.22 524.921 679.036C524.921 675.853 527.837 673.177 531.558 673.177C535.28 673.177 538.195 675.853 538.195 679.036C538.195 682.22 535.28 684.896 531.558 684.896Z" stroke="white"/>
<path d="M421.277 408.477C417.556 408.477 414.64 405.801 414.64 402.617C414.64 399.434 417.556 396.758 421.277 396.758C424.998 396.758 427.914 399.434 427.914 402.617C427.914 405.801 424.998 408.477 421.277 408.477Z" stroke="white"/>
<path d="M744.129 440.103C740.407 440.103 737.492 437.427 737.492 434.243C737.492 431.06 740.407 428.384 744.129 428.384C747.85 428.384 750.766 431.06 750.766 434.243C750.766 437.427 747.85 440.103 744.129 440.103Z" stroke="white"/>
<path d="M746.918 466.217C743.196 466.217 740.281 463.541 740.281 460.358C740.281 457.174 743.196 454.498 746.918 454.498C750.639 454.498 753.555 457.174 753.555 460.358C753.555 463.541 750.639 466.217 746.918 466.217Z" stroke="white"/>
<path d="M749.394 492.725C745.673 492.725 742.757 490.049 742.757 486.865C742.757 483.682 745.673 481.006 749.394 481.006C753.116 481.006 756.031 483.682 756.031 486.865C756.031 490.049 753.116 492.725 749.394 492.725Z" stroke="white"/>
<path d="M752.597 518.604C748.876 518.604 745.96 515.928 745.96 512.744C745.96 509.561 748.876 506.885 752.597 506.885C756.319 506.885 759.234 509.561 759.234 512.744C759.234 515.928 756.319 518.604 752.597 518.604Z" stroke="white"/>
<path d="M755.597 544.508C751.876 544.508 748.96 541.832 748.96 538.649C748.96 535.465 751.876 532.789 755.597 532.789C759.319 532.789 762.234 535.465 762.234 538.649C762.234 541.832 759.319 544.508 755.597 544.508Z" stroke="white"/>
<path d="M425.519 436.743C421.798 436.743 418.882 434.067 418.882 430.884C418.882 427.7 421.798 425.024 425.519 425.024C429.241 425.024 432.156 427.7 432.156 430.884C432.156 434.067 429.241 436.743 425.519 436.743Z" stroke="white"/>
<path d="M429.301 464.564C425.579 464.564 422.664 461.888 422.664 458.704C422.664 455.521 425.579 452.845 429.301 452.845C433.022 452.845 435.938 455.521 435.938 458.704C435.938 461.888 433.022 464.564 429.301 464.564Z" stroke="white"/>
<path d="M433.472 491.675C429.751 491.675 426.835 488.999 426.835 485.816C426.835 482.632 429.751 479.956 433.472 479.956C437.194 479.956 440.109 482.632 440.109 485.816C440.109 488.999 437.194 491.675 433.472 491.675Z" stroke="white"/>
<path d="M438.707 518C434.986 518 432.07 515.324 432.07 512.141C432.07 508.957 434.986 506.281 438.707 506.281C442.428 506.281 445.344 508.957 445.344 512.141C445.344 515.324 442.428 518 438.707 518Z" stroke="white"/>
<path d="M442.113 545.216C438.392 545.216 435.476 542.54 435.476 539.357C435.476 536.173 438.392 533.497 442.113 533.497C445.834 533.497 448.75 536.173 448.75 539.357C448.75 542.54 445.834 545.216 442.113 545.216Z" stroke="white"/>
<circle cx="303.213" cy="782.469" r="2.70912" transform="rotate(90 303.213 782.469)" stroke="white"/>
<circle cx="1260.08" cy="476.636" r="33.8447" transform="rotate(90 1260.08 476.636)" stroke="white"/>
<circle cx="375.603" cy="704.022" r="2.70912" transform="rotate(90 375.603 704.022)" stroke="white"/>
<path d="M531.871 684.922C528.15 684.922 525.234 682.246 525.234 679.063C525.234 675.879 528.15 673.203 531.871 673.203C535.592 673.203 538.508 675.879 538.508 679.063C538.508 682.246 535.592 684.922 531.871 684.922Z" stroke="white"/>
<path d="M421.574 408.478C417.853 408.478 414.937 405.802 414.937 402.618C414.937 399.435 417.853 396.759 421.574 396.759C425.295 396.759 428.211 399.435 428.211 402.618C428.211 405.802 425.295 408.478 421.574 408.478Z" stroke="white"/>
<path d="M741.629 413.564C737.907 413.564 734.992 410.888 734.992 407.704C734.992 404.521 737.907 401.845 741.629 401.845C745.35 401.845 748.266 404.521 748.266 407.704C748.266 410.888 745.35 413.564 741.629 413.564Z" stroke="white"/>
<path d="M744.449 440.104C740.728 440.104 737.812 437.428 737.812 434.244C737.812 431.061 740.728 428.385 744.449 428.385C748.17 428.385 751.086 431.061 751.086 434.244C751.086 437.428 748.17 440.104 744.449 440.104Z" stroke="white"/>
<path d="M747.238 466.192C743.517 466.192 740.601 463.516 740.601 460.332C740.601 457.149 743.517 454.473 747.238 454.473C750.959 454.473 753.875 457.149 753.875 460.332C753.875 463.516 750.959 466.192 747.238 466.192Z" stroke="white"/>
<path d="M749.707 492.726C745.986 492.726 743.07 490.05 743.07 486.866C743.07 483.683 745.986 481.007 749.707 481.007C753.428 481.007 756.344 483.683 756.344 486.866C756.344 490.05 753.428 492.726 749.707 492.726Z" stroke="white"/>
<path d="M752.91 518.604C749.189 518.604 746.273 515.928 746.273 512.744C746.273 509.561 749.189 506.885 752.91 506.885C756.631 506.885 759.547 509.561 759.547 512.744C759.547 515.928 756.631 518.604 752.91 518.604Z" stroke="white"/>
<path d="M755.902 544.509C752.181 544.509 749.265 541.833 749.265 538.65C749.265 535.466 752.181 532.79 755.902 532.79C759.623 532.79 762.539 535.466 762.539 538.65C762.539 541.833 759.623 544.509 755.902 544.509Z" stroke="white"/>
<path d="M425.824 436.744C422.103 436.744 419.187 434.068 419.187 430.885C419.187 427.701 422.103 425.025 425.824 425.025C429.545 425.025 432.461 427.701 432.461 430.885C432.461 434.068 429.545 436.744 425.824 436.744Z" stroke="white"/>
<path d="M429.613 464.565C425.892 464.565 422.976 461.889 422.976 458.705C422.976 455.522 425.892 452.846 429.613 452.846C433.334 452.846 436.25 455.522 436.25 458.705C436.25 461.889 433.334 464.565 429.613 464.565Z" stroke="white"/>
<path d="M433.785 491.702C430.064 491.702 427.148 489.026 427.148 485.843C427.148 482.659 430.064 479.983 433.785 479.983C437.506 479.983 440.422 482.659 440.422 485.843C440.422 489.026 437.506 491.702 433.785 491.702Z" stroke="white"/>
<path d="M439.019 517.974C435.298 517.974 432.382 515.298 432.382 512.114C432.382 508.931 435.298 506.255 439.019 506.255C442.741 506.255 445.656 508.931 445.656 512.114C445.656 515.298 442.741 517.974 439.019 517.974Z" stroke="white"/>
<path d="M442.426 545.217C438.704 545.217 435.789 542.541 435.789 539.358C435.789 536.174 438.704 533.498 442.426 533.498C446.147 533.498 449.063 536.174 449.063 539.358C449.063 542.541 446.147 545.217 442.426 545.217Z" stroke="white"/>
<circle cx="303.517" cy="782.47" r="2.70912" transform="rotate(90 303.517 782.47)" stroke="white"/>
<circle cx="1260.39" cy="476.663" r="33.8447" transform="rotate(90 1260.39 476.663)" stroke="white"/>
<circle cx="1260.38" cy="476.635" r="39.4854" transform="rotate(90 1260.38 476.635)" stroke="white"/>
<circle cx="1260.08" cy="476.66" r="39.4854" transform="rotate(90 1260.08 476.66)" stroke="white"/>
</svg>
