<svg width="849" height="2717" viewBox="0 0 849 2717" fill="none" xmlns="http://www.w3.org/2000/svg">
<path d="M453.093 3.40943C447.133 7.81411 444.858 13.0366 440.662 22.2193C439.288 25.2246 438.021 28.9009 436.89 32.7462M453.093 3.40943C458.068 -0.267832 469.235 1.35807 469.235 1.35807C469.235 1.35807 484.175 1.92514 493.214 4.69674C504.42 8.13278 510.384 12.7994 519.571 20.0777C532.357 30.2065 545.116 52.0464 545.116 52.0464L557.409 78.4529C557.409 78.4529 558.42 81.9592 557.409 83.4929C552.67 90.6775 548.355 94.759 543.447 102.583C535.557 115.158 530.336 122.403 527.057 136.881C526.168 140.806 525.891 143.057 525.387 147.049C523.687 160.514 524.007 168.301 525.387 181.803C527.788 205.297 534.906 218.126 542.768 240.396C542.931 240.858 543.094 241.314 543.256 241.764M453.093 3.40943L434.019 83.4929L406.254 210.211C406.254 210.211 392.841 267.421 385.835 304.401C381.277 328.459 373.118 348.155 376.058 369.635C377.102 377.263 379.584 382.084 383.058 388.955C395.308 413.183 405.41 424.246 413.057 448.188C416.6 459.28 419.156 470.187 419.156 470.187M567.389 364.3C567.389 364.3 568.824 343.032 568.135 329.267C567.226 311.122 565.059 301.036 559.837 283.635C556.921 273.917 553.848 266.982 550.634 259.722M567.389 364.3L568.887 364.3M567.389 364.3C567.389 364.3 566.924 370.339 566.109 377.65M534.003 477.726L534.003 445.007C534.003 445.007 535.571 438.996 537.983 436.003C540.185 433.271 545.116 430.54 545.116 430.54C545.116 430.54 549.416 431.781 551.642 430.54C553.108 429.722 554.525 427.353 554.525 427.353C554.525 427.353 561.225 407.252 563.783 393.965C564.718 389.106 565.509 383.033 566.109 377.65M534.003 477.726C534.003 477.726 534.114 478.942 535.354 482.273M534.003 477.726L453.402 472.562M542.553 517.174C542.553 517.174 542.193 505.085 540.61 497.547C539.683 493.133 536.887 486.391 535.354 482.273M542.553 517.174L544.881 517.174L544.881 529.091L542.024 529.091M542.553 517.174L425.565 505.843M542.024 529.091L430.984 517.325L425.565 517.325L424.139 518.31M542.024 529.091L542.524 630.553M542.524 635.474L542.524 630.553M542.524 635.474L429.895 625.925L422.538 628.298M542.524 635.474L543.236 730.414M548.696 1860.18C548.696 1860.18 561.436 1865.2 570.017 1865.59C577.886 1865.95 584.563 1865.02 592.218 1863.17C615.914 1857.43 626.819 1847.42 643.392 1830.44C662.127 1811.26 675.578 1789.54 678.035 1762.84C679.242 1749.71 678.2 1746.15 673.445 1737.13C670.811 1732.14 667.37 1730.2 666.08 1724.7C664.171 1716.56 670.171 1710.8 676.469 1705.34C683.646 1699.12 688.319 1698.08 697.817 1698.08C711.491 1698.08 731.085 1705.63 748.442 1717.19M548.696 1860.18C548.696 1860.18 564.591 1879.24 578.623 1885.12C599.711 1893.96 615.621 1889.54 637.069 1881.62C663.987 1871.67 676.581 1857.01 692.007 1832.82C704.157 1813.76 713.214 1794.01 711.879 1771.45C710.958 1755.88 699.268 1753.21 698.292 1742.52C697.316 1731.83 702.99 1727.22 711.934 1721.29C724.605 1712.88 748.442 1717.19 748.442 1717.19M548.696 1860.18L548.696 1853.59M548.696 1860.18L548.696 1876.25M24.2231 2551.05C38.471 2587.02 46.4347 2612.78 73.6106 2640.31C96.9593 2663.97 111.347 2673.12 144.621 2687.23C192.822 2707.68 232.745 2711.33 285.86 2714.15C330.545 2716.52 357.243 2715.44 401.794 2711.25C411.348 2710.35 420.079 2709.56 428.308 2708.79M24.2231 2551.05C5.79465 2504.53 2.34215 2477.42 1.20322 2428.89C0.570876 2401.94 1.23421 2386.58 5.79947 2360.02C13.5483 2314.93 28.694 2292.34 45.5906 2249.83C73.8366 2178.75 102.465 2137.2 129.23 2065.82C138.574 2040.91 142.007 2005.34 142.007 2005.34C142.007 2005.34 145.48 1954.55 142.007 1922.31C138.064 1885.7 132.926 1863.44 118.237 1829.67C104.991 1799.22 99.6136 1785.15 90.5917 1754.61C78.5392 1713.81 75.6478 1691.95 74.4259 1649.06C73.5984 1620.01 72.6837 1601.99 76.5817 1572.23C81.1892 1537.05 88.3126 1506.98 105.864 1476.15C117.827 1455.13 127.545 1443.3 145.799 1434.94C158.402 1429.16 164.082 1429.73 175.726 1431.67C185.01 1433.21 189.309 1436.67 197.868 1440.23M24.2231 2551.05C24.2231 2551.05 15.8213 2521.09 13.0101 2501.42C8.04828 2466.7 9.11755 2446.47 13.0101 2411.62C16.5026 2380.34 21.2312 2364.12 29.8835 2332.83C42.5881 2286.87 55.8302 2260.58 74.3778 2216.66C96.4296 2164.44 113.182 2133.82 133.95 2084.3C144.108 2060.08 146.868 2045.12 150.339 2019.09C153.895 1992.42 154.12 1977.09 152.584 1950.24C151.417 1929.83 150.947 1919.68 146.046 1898.3C140.819 1875.51 133.58 1860.11 126.017 1837.98C115.769 1807.99 108.008 1792.51 100.631 1760.92C92.8395 1727.55 89.967 1707.69 88.3237 1672.33C86.6639 1636.61 86.2445 1616.88 92.4148 1580.85C97.896 1548.85 98.3484 1528.82 113.639 1496.41C123.63 1475.24 131.9 1460.43 151.979 1448.03C167.498 1438.45 197.868 1440.23 197.868 1440.23M197.868 1440.23C203.442 1442.55 206.836 1443.35 212.04 1446.41C218.882 1450.43 222.269 1453.77 227.242 1459.95C233.713 1468 237.389 1476.5 236.724 1486.66C236.444 1490.93 237.286 1491.88 235.366 1494.15C230.877 1499.46 224.199 1498.59 218.236 1503.26C212.166 1508.02 210.403 1507.95 206.541 1514.63C201.148 1523.95 200.511 1533.77 198.956 1543.39C195.91 1562.22 195.801 1574.1 197.644 1593.65C199.957 1618.19 203.327 1633.75 214.126 1655.9C218.276 1664.42 221.765 1671.37 226.342 1677.58M419.156 497.547L416.716 476.976C416.716 476.976 405.455 458.206 398.946 448.188C386.21 428.584 372.848 403.738 370.74 399.275C368.631 394.812 366.87 389.076 365.577 382.375C363.446 371.334 365.577 355.687 365.577 355.687L367.211 348.393M419.156 497.547L419.156 529.091L416.716 761.553L411.646 1017L404.749 1295L397.119 1627.93M419.156 497.547L419.156 474.755M397.119 1627.93C397.119 1627.93 392.873 1628.03 389.218 1627.93C385.134 1627.82 381.648 1627.74 379.104 1630.94C372.375 1639.39 369.112 1645.99 361.107 1655.79C351.813 1667.17 346.472 1673.81 334.683 1682.58C324.307 1690.3 317.968 1694.5 305.708 1698.62C295.637 1702 289.542 1703.51 278.92 1703.35C262.735 1703.11 253.049 1701.34 239.41 1690.83C233.917 1686.59 229.816 1682.3 226.342 1677.58M397.119 1627.93L397.119 1642.66M748.442 1717.19C759.807 1724.75 770.213 1734.04 777.371 1744.05C777.371 1744.05 783.45 1756.25 786.052 1764.54C788.54 1772.47 789.33 1777.12 790.523 1785.34C793.05 1802.77 792.145 1812.91 790.523 1830.44C787.482 1863.31 777.296 1880.22 768.331 1911.98C759.366 1943.75 750.144 1961.57 746.062 1994.81C743.21 2018.03 741.148 2031.92 744.923 2055.01C746.537 2064.88 748.095 2071.48 751.754 2080.63C773.386 2134.71 789.949 2156.9 810.801 2207.36C823.083 2237.08 831.365 2254.58 838.584 2285.92C845.588 2316.33 846.692 2333.22 847.531 2363.84C848.392 2395.27 848.875 2413.39 842.557 2444.19C836.678 2472.84 831.522 2489 818.07 2514.97C803.667 2542.78 792.392 2557.11 770.627 2579.63C739.834 2611.5 716.772 2623.86 677.653 2644.68C622.008 2674.28 585.842 2681.5 524.228 2694.8C497.445 2700.58 473.907 2703.95 452.514 2706.35M367.211 348.393L351.144 341.436M367.211 348.393L371.382 329.775M351.144 341.436L353.995 325.574M351.144 341.436L347.728 340.657M353.995 325.574L371.382 329.775M353.995 325.574C353.995 325.574 352.257 323.959 351.144 322.924M371.382 329.775L383.794 274.377L389.28 248.834M351.144 322.924C349.81 329.849 347.728 340.657 347.728 340.657M351.144 322.924C349.81 322.348 347.728 321.45 347.728 321.45M347.728 340.657L342.945 340.038M347.728 321.45C347.728 321.45 344.501 330.313 343.489 336.233C343.236 337.713 342.945 340.038 342.945 340.038M347.728 321.45L344.576 302.319C344.576 302.319 333.706 293.406 326.206 294.276C316.384 295.415 310.948 315.002 310.948 315.002M342.945 340.038L330.228 353.19C330.228 353.19 314.466 351.016 310.948 347.103C307.844 343.65 308.827 324.415 308.827 324.415M310.948 315.002C310.948 315.002 307.479 313.548 307.103 315.002C306.314 318.056 305.38 321.991 305.38 323.355C305.38 324.763 308.827 324.415 308.827 324.415M310.948 315.002L308.827 324.415M389.28 248.834L374.135 242.52M389.28 248.834L393.518 229.106M374.135 242.52C374.135 242.52 375.377 237.219 375.902 233.774C376.417 230.389 376.808 225.054 376.808 225.054M374.135 242.52L370.035 240.56M376.808 225.054L393.518 229.106M376.808 225.054L374.135 224.093M393.518 229.106L406.254 169.812L410.573 150.483M374.135 224.093C374.135 224.093 373.405 228.728 372.709 231.649C371.866 235.183 370.035 240.56 370.035 240.56M374.135 224.093L370.035 219.539M370.035 240.56L364.522 237.772M364.522 237.772L366.889 231.649L370.035 219.539M364.522 237.772L357.447 244.993C357.447 244.993 345.872 244.33 340.165 241.53C334.309 238.657 335.064 236.338 334.577 229.106C334.518 228.227 334.448 227.143 334.382 225.944M370.035 219.539L369.393 212.858C369.393 212.858 366.413 208.075 361.878 205.481C355.274 201.703 348.098 201.027 341.278 201.027C335.741 201.027 335.633 207.422 334.577 212.858C334.516 213.168 334.464 213.506 334.418 213.866M334.418 213.866L330.163 213.866L330.163 225.944L334.382 225.944M334.418 213.866C334.013 217.081 334.173 222.102 334.382 225.944M414.892 131.154L431.143 58.4202C431.143 58.4202 431.598 55.6122 432.424 51.4228M414.892 131.154L398.726 126.184M414.892 131.154L410.573 150.483M398.726 126.184L393.06 141.941M398.726 126.184C398.726 126.184 396.574 125.215 395.196 124.595M393.06 141.941L410.573 150.483M393.06 141.941C393.06 141.941 390.769 141.941 389.302 141.941M395.196 124.595C394.716 128.288 394.285 130.113 393.06 133.63C391.919 136.907 391.009 138.92 389.302 141.941M395.196 124.595C394.563 123.131 394.171 122.752 392.686 122.171C390.588 121.35 388.457 124.595 388.457 124.595M389.302 141.941C387.782 140.904 385.411 139.286 385.411 139.286M388.457 124.595L386.102 131.154L385.411 139.286M388.457 124.595L388.457 117.578C388.457 117.578 373.48 107.946 363.78 107.632C358.718 107.468 355.582 108.99 352.333 112.875C349.269 116.539 348.755 120.229 348.755 124.595C348.755 125.781 351.388 128.133 351.388 128.133M385.411 139.286C385.411 139.286 380.571 141.941 376.808 141.941C373.045 141.941 351.388 128.133 351.388 128.133M351.388 128.133C351.388 128.133 358.627 121.814 364.556 122.82C371.688 124.03 385.411 131.154 385.411 131.154M436.89 32.7462L421.494 27.3376M436.89 32.7462C434.958 39.3127 433.421 46.3718 432.424 51.4228M421.494 27.3376L419.227 36.8593L415.826 44.5673M421.494 27.3376L419.227 27.3376M415.826 44.5673L432.424 51.4228M415.826 44.5673L413.067 42.7947M419.227 27.3376L413.067 42.7947M419.227 27.3376L415.232 23.262M413.067 42.7947L407.755 42.7947M407.755 42.7947L412.004 32.7462M407.755 42.7947C407.755 42.7947 405.706 44.9316 404.23 46.1137C402.583 47.4324 399.73 49.1014 399.73 49.1014M412.004 32.7462L415.232 23.262M412.004 32.7462C412.004 32.7462 408.577 36.8625 406.028 38.7226C404.233 40.0326 401.544 41.3934 401.544 41.3934M415.232 23.262C415.232 23.262 413.91 17.3954 411.411 15.649C401.658 8.83343 395.507 7.17682 384.916 3.40943C383.652 2.9596 382.466 3.57479 381.729 4.69675C379.385 8.26665 378.921 14.7111 378.921 14.7111M378.542 16.0606C379.787 20.4645 378.774 23.0118 379.167 26.3029C379.56 29.5939 381.729 31.0826 381.729 31.0826M378.542 16.0606L375.019 27.3376M378.542 16.0606L378.921 14.7111M381.729 31.0826L379.959 38.7226M381.729 31.0826L401.544 41.3934M379.959 38.7226C379.959 38.7226 387.163 45.465 392.929 47.5145C395.499 48.428 399.73 49.1014 399.73 49.1014M379.959 38.7226C379.959 38.7226 377.276 35.2997 376.281 32.7462C375.494 30.7252 375.019 27.3376 375.019 27.3376M375.019 27.3376C375.019 27.3376 372.01 25.4414 372.275 23.6736C372.596 21.5355 374.211 17.474 375.019 13.7408C375.351 12.2062 378.921 14.7111 378.921 14.7111M399.73 49.1014L401.544 41.3934M419.156 470.187L419.156 474.755M419.156 470.187L453.402 472.562M483.02 26.3029C483.02 26.3029 476.549 25.1582 472.675 26.3029C464.264 28.7878 459.845 36.4531 459.173 45.1974C458.515 53.7457 464.507 61.8149 471.613 66.6119C471.613 66.6119 480.933 69.4697 487.919 67.6206C493.784 66.0681 497.968 57.0298 497.968 57.0298C498.694 51.7894 497.994 44.921 495.815 40.1003M483.02 26.3029C483.02 26.3029 488.523 23.8359 491.775 25.006C495.768 26.4424 497.93 29.6917 497.968 33.935C497.99 36.4852 497.42 38.1186 495.815 40.1003M483.02 26.3029L483.02 30.1083M495.815 40.1003C494.799 40.6053 494.229 40.8884 493.214 41.3934M483.02 30.1083C483.02 30.1083 483.232 33.3765 484.122 35.2106C485.996 39.0737 489.649 41.3934 493.214 41.3934M483.02 30.1083C483.02 30.1083 482.2 30.1007 480.933 30.1909M493.214 41.3934C495.386 46.2442 495.386 50.1523 493.214 55.0031C490.259 61.6017 485.154 65.5243 477.957 64.8421C469.391 64.0304 465.224 57.6607 464.35 49.1014C463.741 43.1308 464.752 37.9247 469.235 33.935C472.334 31.1775 477.909 30.4061 480.933 30.1909M493.214 41.3934C493.214 41.3934 493.71 44.4102 492.412 45.1974C491.489 45.7568 490.572 45.7568 489.649 45.1974M480.933 36.8593C477.769 35.9016 476.49 35.9271 474.043 38.1508M480.933 36.8593C477.529 33.0882 480.933 30.1909 480.933 30.1909M480.933 36.8593C483.02 41.3934 484.924 43.7707 489.649 45.1974M474.043 38.1508C470.373 41.4868 469.589 47.5401 472.675 51.4228C475.335 54.7695 478.919 56.2118 483.02 55.0031C485.301 54.3307 487.024 53.1293 488.167 51.4228M474.043 38.1508C474.043 38.1508 474.916 44.9076 477.957 47.5145C481.198 50.2935 488.167 51.4228 488.167 51.4228M489.649 47.5145C489.649 47.5145 489.649 46.1023 489.649 45.1974M489.649 47.5145C489.398 49.0215 488.902 50.3264 488.167 51.4228M489.649 47.5145L491.243 78.4529L493.833 294.116L496.656 477.726M456.774 128.133C452.372 127.319 450.233 127.319 445.832 128.133C435.515 130.04 435.378 146.1 436.142 150.483C438.145 161.969 445.158 170.001 456.774 168.989C466.483 168.143 473.46 163.401 474.302 153.691C474.697 149.143 474.291 146.211 472.675 141.941M456.774 128.133C456.774 128.133 461.56 124.807 464.919 125.196C469.339 125.707 471.907 128.668 473.326 132.885C474.456 136.246 474.274 138.777 472.675 141.941M456.774 128.133C456.774 128.133 455.304 131.419 455.593 134.115C455.882 136.812 456.916 139.583 458.254 141.941C460.376 145.68 464.303 145.941 468.097 145.941M456.774 128.133C456.774 128.133 454.873 129.974 453.656 131.154M472.675 141.941C471.048 143.503 469.724 144.379 468.097 145.941M453.656 131.154C447.26 131.664 444.828 133.511 442.032 139.286C439.581 144.349 439.681 148.581 442.032 153.691C444.773 159.648 449.036 163.559 455.593 163.593C461.519 163.623 466.275 161.117 468.509 155.628M453.656 131.154C452.417 133.016 452.513 132.699 452.513 134.936M468.509 155.628C469.935 152.124 469.523 149.445 468.097 145.941M468.509 155.628L465.534 148.469M468.509 155.628L469.436 221.378L470.976 294.116L473.975 410.883M468.097 145.941C468.097 145.941 466.808 147.875 465.534 148.469M452.513 134.936C450.411 136.754 451.716 138.531 449.995 140.712M452.513 134.936C452.349 139.337 455.221 144.519 458.972 146.829C461.221 148.213 463.14 149.586 465.534 148.469M465.534 148.469C465.534 148.469 460.324 157.907 455.593 157.996C449.624 158.108 446.829 151.883 447.413 145.941C447.584 144.207 448.73 142.316 449.995 140.712M465.534 148.469C465.534 148.469 457.311 154.055 453.656 151.955C449.653 149.654 449.995 140.712 449.995 140.712M439.604 227.268C439.604 227.268 430.061 227.018 424.868 229.106C418.498 231.666 416.342 235.723 415.381 242.52C414.169 251.088 415.381 252.905 418.005 258.96C421.179 266.285 427.587 268.649 435.567 268.852C443.123 269.044 447.998 266.969 451.514 260.979C453.285 257.962 453.342 255.97 453.342 252.471C453.342 248.288 453.342 246.99 452.816 241.959M439.604 227.268C439.604 227.268 447.377 226.837 450.564 229.87C453.718 232.872 453.823 237.723 452.816 241.959M439.604 227.268C439.604 227.268 436.506 229.441 435.567 231.649M452.816 241.959C450.688 244.021 450.649 244.054 448.284 245.84M435.567 231.649C428.876 231.508 423.912 234.455 420.831 240.396C418.147 245.572 418.296 250.076 420.831 255.327C423.825 261.529 428.687 265.338 435.567 265.016C441.486 264.74 447.122 262.55 448.284 256.74M435.567 231.649C435.205 232.499 434.946 233.335 434.79 234.156M448.284 256.74C449.137 252.471 448.284 250.096 448.284 245.84M448.284 256.74L448.284 245.84M448.284 256.74L448.284 290.674L450.346 355.687L452.383 425.466L453.402 472.562M448.284 245.84C443.951 247.145 440.087 245.99 437.181 242.52C435.019 239.938 434.222 237.147 434.79 234.156M448.284 245.84C448.284 245.84 443.113 249.571 439.604 248.834C436.998 248.287 435.563 247.126 433.969 244.993C431.755 242.031 432.327 235.669 432.327 235.669M448.284 245.84C448.284 245.84 447.46 248.237 446.163 250.64M434.79 234.156C434.054 234.723 433.206 235.199 432.327 235.669M432.327 235.669C431.12 236.312 429.852 236.942 428.728 237.772M428.728 237.772C427.546 238.644 426.523 239.736 425.893 241.298C424.248 245.373 423.743 251.492 425.893 253.864C428.042 256.237 430.395 258.213 433.969 258.96C438.106 259.826 440.68 257.159 443.68 254.181C444.61 253.257 445.457 251.948 446.163 250.64M428.728 237.772C428.728 237.772 428.515 243.868 430.427 246.99C432.201 249.887 433.892 251.622 437.181 252.471C440.648 253.366 446.163 250.64 446.163 250.64M417.217 329.775C412.716 327.612 408.972 327.279 404.136 328.526C392.968 331.407 388.721 344.802 392.536 355.687C396.361 366.603 407.817 373.647 418.666 369.635C429.013 365.809 428.992 341.242 428.992 341.242M417.217 329.775C420.827 328.301 423.678 328.742 426.756 331.136C430.168 333.789 430.99 342.166 426.756 343.036M417.217 329.775C416.661 330.635 416.234 331.557 415.947 332.501M413.634 332.501C404.495 333.394 395.956 341.886 397.237 350.978C398.482 359.815 406.689 366.864 415.386 364.863C420.439 363.7 423.792 354.472 425.477 348.393M413.634 332.501C415.262 332.501 415.947 332.501 415.947 332.501M413.634 332.501C412.102 333.717 410.571 335.509 409.797 337.436M426.756 343.036C422.69 343.872 421.379 343.555 418.666 341.636C415.677 339.522 414.921 335.872 415.947 332.501M426.756 343.036C426.756 343.036 426.331 345.309 425.477 348.393M409.797 337.436C402.148 339.112 400.651 349.757 405.765 355.687C409.882 360.462 416.456 359.61 420.852 355.687C422.854 353.901 423.944 353.246 423.944 353.246M409.797 337.436C408.404 341.627 409.364 345.385 412.597 348.393C415.34 350.945 418.311 352.244 421.837 350.978C423.478 350.389 424.38 349.748 425.477 348.393M425.477 348.393L426.756 364.863L430.242 448.188L432.052 482.273L433.138 517.325L431.69 626.753L428.899 822.531L427.609 907.119M543.256 241.764C545.789 248.774 548.25 254.337 550.634 259.722M543.256 241.764C543.643 241.597 544.375 241.42 545.258 241.25M555.814 259.575C555.814 259.575 556.157 254.139 555.814 251.758C555.21 247.57 551.627 241.764 551.627 241.764M555.814 259.575L551.054 259.575M555.814 259.575C555.814 259.575 558.267 257.845 561.374 255.836M550.634 259.722L551.054 259.575M545.258 241.25C547.111 240.891 551.054 240.396 551.054 240.396L551.627 241.764M545.258 241.25C545.258 241.25 548.106 245.764 549.234 248.958C550.636 252.924 551.054 259.575 551.054 259.575M551.627 241.764C551.627 241.764 550.293 238.604 551.627 238.178M551.627 238.178C556.195 236.718 568.597 233.051 581.993 234.118C586.337 234.464 587.741 245.853 583.267 245.853C578.266 245.853 575.097 248.156 568.974 251.316C566.612 252.534 563.795 254.27 561.374 255.836M551.627 238.178C551.627 238.178 560.797 235.718 564.237 239.267C567.27 242.397 567.499 246.224 565.943 250.295C564.942 252.915 561.374 255.836 561.374 255.836M568.887 364.3L568.135 376.671M568.887 364.3C568.887 364.3 568.803 362.214 569.622 361.474C570.911 360.309 575.974 362.128 575.974 362.128M568.135 376.671L566.109 377.65M568.135 376.671C568.135 376.671 567.866 378.988 568.887 379.295C571.586 380.107 575.974 378.315 575.974 378.315M575.974 362.128L575.974 378.315M575.974 362.128L586.333 363.797M575.974 378.315L586.333 377.65M586.333 377.65C586.333 377.65 601.92 379.902 605.021 377.65C606.369 376.671 606.48 370.538 605.533 367.538C604.193 363.296 588.573 364.3 588.573 364.3L586.333 363.797M586.333 377.65L586.333 363.797M528.019 241.25C520.648 239.143 515.695 240.396 510.67 245.094C501.59 253.582 503.874 269.579 514.031 276.743C522.826 282.945 532.945 283.253 539.73 274.899C544.787 268.673 541.899 254.947 541.899 254.947M528.019 241.25C528.019 241.25 536.474 240.205 539.73 243.539C542.899 246.783 541.899 254.947 541.899 254.947M528.019 241.25C528.019 241.25 526.591 242.842 526.935 244.212M541.899 254.947C541.899 254.947 539.173 254.814 536.307 254.068M526.935 244.212C528.644 247.159 528.74 249.523 531.312 251.758C532.583 252.863 534.473 253.591 536.307 254.068M526.935 244.212C525.34 244.112 523.767 244.307 522.264 244.745M537.357 258.296C537.357 258.296 539.414 270.125 533.445 273.587C525.195 278.37 512.033 271.291 510.67 261.852C509.586 254.353 515.14 246.82 522.264 244.745M537.357 258.296L536.307 254.068M537.357 258.296C537.357 258.296 534.334 258.525 531.312 257.998M522.264 244.745C522.264 244.745 522.427 246.64 523.001 248.958M531.312 257.998C529.7 257.717 528.089 257.221 526.935 256.361C524.845 254.804 523.655 251.605 523.001 248.958M531.312 257.998C531.312 257.998 532.17 260.801 532.045 263.397M523.001 248.958L520.469 252.145M523.001 248.958L522.172 278.704L519.823 344.458L519.823 403.537L518.384 532.784L517.148 706.103L517.148 830.107L517.148 1008.92L517.148 1282.56L517.148 1408.63L517.148 1566.09L517.148 1782.88L517.148 1922.8M520.469 252.145L517.938 255.332C517.938 255.332 513.059 260.554 517.938 266.21C520.736 269.454 528.579 270.661 531.312 266.21C531.79 265.432 531.995 264.431 532.045 263.397M520.469 252.145C520.469 252.145 520.861 259.46 524.131 261.852C526.673 263.711 532.045 263.397 532.045 263.397M542.94 348.025C537.377 345.873 532.88 346.011 527.459 348.499C518.241 352.729 517.144 365.297 519.823 375.079C522.835 386.079 535.066 388.105 544.934 385.946C556.12 383.5 554.774 358.338 554.774 358.338M542.94 348.025C546.474 346.485 549.735 346.937 552.718 349.38C555.875 351.966 557.678 355.732 554.774 358.338M542.94 348.025C541.672 352.061 542.874 355.797 546.256 358.338C549.254 360.59 552.424 360.446 554.774 358.338M542.94 348.025L540.529 349.38M540.529 349.38C527.459 349.38 521.645 356.541 522.172 366.268C522.697 375.969 532.518 382.414 542.144 381.1C545.381 380.658 549.67 376.048 551.359 371.043C552.147 368.706 552.43 366.293 552.496 364.3M540.529 349.38C538.355 352.022 538.047 358.45 539.648 361.474C541.078 364.175 543.23 365.237 546.256 365.669C547.294 365.817 547.903 365.817 548.941 365.669M540.529 349.38C539.224 349.411 538.001 349.817 536.876 350.463M552.289 359.747C552.289 359.747 552.584 361.652 552.496 364.3M548.941 365.669C550.329 365.134 552.496 364.3 552.496 364.3M548.941 365.669C548.852 367.029 548.422 368.304 547.74 369.448M533.446 353.384C532.032 355.003 530.907 356.839 530.132 358.338C527.225 363.96 527.727 371.467 533.446 374.177C538.347 376.5 545.029 374.002 547.74 369.448M533.446 353.384C533.446 353.384 532.063 362.537 535.536 366.268C538.891 369.873 547.74 369.448 547.74 369.448M533.446 353.384C534.45 352.235 535.601 351.195 536.876 350.463M226.342 1677.58C226.342 1677.58 238.837 1695.21 249.71 1703.35C266.052 1715.6 278.372 1720.52 298.773 1721.45C315.581 1722.22 340.945 1712.63 340.945 1712.63C340.945 1712.63 356.266 1703.12 364.903 1695.53C373.72 1687.79 379.036 1683.4 385.322 1673.49C392.229 1662.6 397.119 1642.66 397.119 1642.66M397.119 1642.66L393.596 1927.2L398.184 1932.85M398.184 1932.85L412.846 1931.61M398.184 1932.85L398.259 1922.19M460.79 473.035C460.79 473.035 453.95 448.188 458.538 427.353C460.504 418.425 464.913 412.09 473.975 410.883M473.975 410.883C483.036 409.676 492.238 419.483 493.833 430.54C496.657 450.119 496.656 477.726 496.656 477.726M473.975 410.883L476.667 532.784L476.667 686.14L473.888 878.736L471.748 1152.65L469.608 1438.98L467.04 1717.19L467.04 1905.06L467.04 1927.04M496.656 477.726L496.657 1158.91L493.308 1638.66L493.308 1939.01L491.525 2306.83M535.354 482.273L419.156 474.755M419.156 474.755L425.565 491.845L425.565 505.843M425.565 505.843L422.713 508.529L422.713 519.295L424.139 518.31M424.139 518.31L423.046 605.121L422.73 619.541M491.525 2372.91L491.525 2348.16M467.04 1927.04L439.31 1929.38M467.04 1927.04L517.148 1922.8M467.04 1927.04L462.54 2347.35M453.402 472.562L453.402 630.711L452.166 764.796L450.427 882.833L448.688 1071.3L447.166 1183.04L445.862 1322.81L443.905 1522.37L441.949 1692.58L440.862 1792.35L439.31 1929.38M439.31 1929.38L412.846 1931.61M439.31 1929.38L439.211 1937.11M420.742 1402.2L421.515 1349.39M420.742 1402.2L408.57 1402.2L405.444 1404.9M420.742 1402.2L546.48 1399.91M420.742 1402.2L420.643 1408.63M412.846 1931.61L412.846 1921.47M412.846 1931.61L412.554 1949.36M517.148 1922.8L542.472 1920.14M517.148 1922.8L517.148 2335.49M536.876 350.463L536.876 420.597L537.983 500.778L537.983 633.697L540.311 921.435L540.311 1084.78L540.311 1226.21L540.311 1453.81L542.472 1792.35L542.472 1920.14M542.472 1920.14L548.696 1920.14L548.696 1907.54M542.472 1920.14L542.546 1935.72M462.23 2376.26L462.48 2352.93M434.012 2384.31L434.225 2365.95M405.485 2394.54L406.151 2356.32M517.148 2363.09L517.148 2335.49M543.783 2356.85L543.783 2210.04M414.5 993.865L414.582 990.52M414.5 993.865L412.055 1071.3M414.5 993.865L416.776 997.987L426.223 997.987M422.73 619.541L428.769 620.295L542.524 630.553M422.73 619.541L422.538 628.298M422.538 628.298L421.659 668.365L420.447 721.126M420.447 721.126L428.621 722.083L543.236 730.414M420.447 721.126L420.264 729.121M543.236 730.414L543.274 735.537M420.264 729.121L420.013 740.012L417.935 816.778M420.264 729.121L428.621 728.011L543.274 735.537M543.274 735.537L543.525 769.024L544.072 823.975M417.935 816.778L427.339 816.778L544.072 823.975M417.935 816.778L417.74 823.975M544.072 823.975L544.133 830.107M417.74 823.975L417.414 836.005L416.452 906.408M417.74 823.975L427.339 823.975L544.133 830.107M544.133 830.107L544.691 886.205L544.853 912.862M416.452 906.408L427.609 907.119M416.452 906.408L416.343 914.388M427.609 907.119L427.498 914.388M427.609 907.119L544.853 912.862M416.343 914.388L416.205 924.544L414.582 990.52M416.343 914.388L427.498 914.388M427.498 914.388L544.887 918.448M427.498 914.388L426.318 991.77M544.853 912.862L544.887 918.448M544.887 918.448L545.362 996.39M414.582 990.52L426.318 991.77M426.318 991.77L545.362 996.39M426.318 991.77L426.223 997.987M412.055 1071.3L414.673 1070.11L425.189 1070.11M412.055 1071.3L412.055 1077.22M425.189 1070.11L425.933 1017L426.223 997.987M425.189 1070.11L425.089 1077.22M425.189 1070.11L545.837 1074.33M412.055 1077.22L411.646 1085.86L410.463 1147.67M412.055 1077.22L414.673 1077.22L425.089 1077.22M425.089 1077.22L545.868 1079.47M425.089 1077.22L424.145 1144.66M545.837 1074.33L545.868 1079.47M545.837 1074.33L545.39 1000.88M545.868 1079.47L546.284 1147.67M410.463 1147.67L413.74 1144.66L424.145 1144.66M410.463 1147.67L410.392 1151.4M424.145 1144.66L424.05 1151.4M424.145 1144.66L546.284 1147.67M410.392 1151.4L409.919 1176.12L408.925 1217.47M410.392 1151.4L413.74 1151.4L424.05 1151.4M424.05 1151.4L423.214 1211.12L423.164 1214.93M424.05 1151.4L546.314 1152.65M546.284 1147.67L546.314 1152.65M546.314 1152.65L546.48 1179.88L546.48 1216.02M408.925 1217.47L411.654 1214.93L423.164 1214.93M408.925 1217.47L408.852 1220.48M423.164 1214.93L423.074 1221.9M423.164 1214.93L546.48 1216.02M408.852 1220.48L408.536 1233.61L407.717 1282.56M408.852 1220.48L411.654 1221.9L423.074 1221.9M423.074 1221.9L546.48 1221.9M423.074 1221.9L422.316 1280.52M546.48 1216.02L546.48 1221.9M546.48 1221.9L546.48 1280.52M545.362 996.39L545.39 1000.88M426.223 997.987L545.39 1000.88M407.717 1282.56L411.306 1280.52L422.316 1280.52M407.717 1282.56L407.633 1287.58M422.316 1280.52L422.214 1288.41M422.316 1280.52L546.48 1280.52M407.633 1287.58L407.549 1292.6L406.563 1345.2M407.633 1287.58L411.306 1288.41L422.214 1288.41M422.214 1288.41L546.48 1287.58M422.214 1288.41L421.515 1342.47M546.48 1287.58L546.48 1292.6L546.48 1342.47M546.48 1287.58L546.48 1280.52M406.563 1345.2L410.34 1342.47L421.515 1342.47M406.563 1345.2L406.484 1349.39M421.515 1342.47L421.515 1349.39M421.515 1342.47L546.48 1342.47M406.484 1349.39L410.34 1350.21L421.515 1349.39M406.484 1349.39L405.444 1404.9M421.515 1349.39L546.48 1347.94M546.48 1347.94L546.48 1342.47M546.48 1347.94L546.48 1399.91M405.444 1404.9L405.396 1407.47M546.48 1399.91L546.48 1405.7M405.396 1407.47L405.178 1419.1L404.532 1459.7M405.396 1407.47L408.57 1408.63L420.643 1408.63M420.643 1408.63L546.48 1405.7M420.643 1408.63L419.897 1457.25M546.48 1405.7L546.48 1429.96L546.691 1453.81M404.532 1459.7L406.209 1457.25L419.897 1457.25M404.532 1459.7L404.484 1462.74M419.897 1457.25L419.897 1462.74M419.897 1457.25L546.691 1453.81M404.484 1462.74L406.209 1464.21L419.897 1462.74M404.484 1462.74L403.76 1508.24M419.897 1462.74L546.743 1459.77M419.897 1462.74L419.17 1508.24M546.691 1453.81L546.743 1459.77M546.743 1459.77L547.145 1505.22M403.76 1508.24L419.17 1508.24M403.76 1508.24L403.642 1515.65M419.17 1508.24L419.052 1515.65M419.17 1508.24L547.145 1505.22M403.642 1515.65L403.598 1518.47L402.828 1559.75M403.642 1515.65L419.052 1515.65M419.052 1515.65L547.186 1509.87M419.052 1515.65L418.391 1556.99M547.145 1505.22L547.186 1509.87M547.186 1509.87L547.564 1552.59M402.828 1559.75L405.471 1556.99L418.391 1556.99M402.828 1559.75L402.765 1563.15M418.391 1556.99L418.391 1564.37M418.391 1556.99L547.564 1552.59M402.765 1563.15L405.471 1565.28L418.391 1564.37M402.765 1563.15L402.017 1603.3M418.391 1564.37L417.776 1595.51L417.631 1604.24M418.391 1564.37L482.348 1561.86L547.616 1558.5M547.564 1552.59L547.616 1558.5M547.616 1558.5L547.955 1596.84M402.017 1603.3L405.749 1604.24L417.631 1604.24M402.017 1603.3L401.863 1611.57M417.631 1604.24L417.539 1609.87M417.631 1604.24L547.955 1596.84M401.863 1611.57L401.82 1613.89L400.973 1648.87M401.863 1611.57L405.749 1610.35L417.539 1609.87M417.539 1609.87L548.012 1603.3M417.539 1609.87L416.932 1646.64M548.012 1603.3L547.955 1596.84M548.012 1603.3L548.336 1639.89M400.973 1648.87L405.019 1646.64L416.932 1646.64M400.973 1648.87L400.861 1653.51M416.932 1646.64L416.35 1653.51M416.932 1646.64L482.646 1644.05L548.336 1639.89M400.861 1653.51L405.019 1654.72L416.35 1653.51M400.861 1653.51L399.989 1689.54M416.35 1653.51L548.384 1645.34M416.35 1653.51L415.904 1686.76M548.336 1639.89L548.384 1645.34M548.384 1645.34L548.691 1680.06M399.989 1689.54L402.674 1686.76L415.904 1686.76M399.989 1689.54L399.86 1694.89M415.904 1686.76L548.691 1680.06M415.904 1686.76L415.384 1725.6M399.86 1694.89L399.844 1695.53L399.615 1728.26M399.86 1694.89L402.674 1694.89L415.904 1694L548.696 1685.77M548.696 1685.77L548.696 1680.64L548.691 1680.06M548.696 1685.77L548.696 1717.19M399.615 1728.26L402.775 1725.6L415.384 1725.6M399.615 1728.26L399.584 1732.79M415.384 1725.6L548.696 1717.19M415.384 1725.6L414.888 1762.61M399.584 1732.79L402.775 1733.21L415.384 1733.21L548.696 1723.32M399.584 1732.79L399.375 1762.61M548.696 1723.32L548.696 1717.19M548.696 1723.32L548.696 1752.64M399.375 1762.61L402.601 1763.07L414.888 1762.61M399.375 1762.61L399.323 1770.11M414.888 1762.61L414.804 1768.83M414.888 1762.61L548.696 1752.64M399.323 1770.11L405.345 1768.83L414.804 1768.83M399.323 1770.11L399.139 1796.38M414.804 1768.83L548.696 1758.34M414.804 1768.83L414.435 1796.38M548.696 1752.64L548.696 1758.34M548.696 1758.34L548.696 1786.57M399.139 1796.38L414.435 1796.38M399.139 1796.38L399.098 1802.27M414.435 1796.38L414.342 1803.36M414.435 1796.38L548.696 1786.57M399.098 1802.27L399.584 1803.36L414.342 1803.36M399.098 1802.27L398.905 1829.81M414.342 1803.36L414.315 1805.38L414.042 1828.84M414.342 1803.36L548.696 1791.15M548.696 1786.57L548.696 1791.15M548.696 1791.15L548.696 1817.72M398.905 1829.81L400.215 1828.84L414.042 1828.84M398.905 1829.81L398.862 1835.97M414.042 1828.84L413.972 1834.87M414.042 1828.84L548.696 1817.72M398.862 1835.97L400.215 1835.97L413.972 1834.87M398.862 1835.97L398.692 1860.26M413.972 1834.87L548.696 1823.22M413.972 1834.87L413.354 1887.94M548.696 1817.72L548.696 1823.22M548.696 1823.22L548.696 1847M398.692 1860.26L398.651 1866.17M398.692 1860.26L474.012 1854.51L548.696 1847M548.696 1847L548.696 1853.59M398.651 1866.17L548.696 1853.59M398.651 1866.17L398.508 1886.56M398.508 1886.56L401.459 1888.68L413.354 1887.94M398.508 1886.56L398.449 1895.05M413.354 1887.94L412.846 1893.84M413.354 1887.94L548.696 1876.25M398.449 1895.05L401.459 1895.05L412.846 1893.84M398.449 1895.05L398.312 1914.58M412.846 1893.84L548.696 1880.75M412.846 1893.84L412.846 1914.58M548.696 1876.25L548.696 1880.75M548.696 1880.75L548.696 1901.91M398.312 1914.58L412.846 1914.58M398.312 1914.58L398.259 1922.19M412.846 1914.58L412.846 1921.47M412.846 1914.58L480.775 1909.11L548.696 1901.91M398.259 1922.19L412.846 1921.47M412.846 1921.47L548.696 1907.54M548.696 1901.91L548.696 1907.54M439.211 1937.11C439.211 1937.11 399.846 1939.01 379.727 1944.83C376.84 1945.67 375.572 1947.18 373.507 1949.36C372.667 1950.25 371.736 1951.61 371.094 1952.61C370.556 1953.45 370.282 1954.43 370.251 1955.43L369.667 1974.34C369.667 1974.34 366.561 1976.74 362.824 1980.47M439.211 1937.11C439.211 1937.11 495.828 1930.16 530.763 1927.2C535.796 1926.77 545.558 1926.96 550.607 1927.1C552.64 1927.16 554.584 1928.09 555.515 1929.9C556.217 1931.27 556.868 1932.98 556.868 1934.66M439.211 1937.11L434.41 2350.03M556.868 1934.66V1934.66C559.077 1935.6 560.595 1937.68 560.823 1940.07L562.076 1953.17M556.868 1934.66L542.546 1935.72M562.076 1953.17C562.076 1953.17 573.185 1960.55 575.248 1968.03C576.495 1972.54 576.279 1977.38 575.248 1981.95C573.118 1991.41 561.201 1998.24 561.201 1998.24M562.076 1953.17L561.201 1998.24M379.727 2053.44C379.727 2053.44 371.709 2052.41 371.709 2048.79C371.709 2044.59 371.709 2028.33 371.709 2028.33C371.709 2028.33 367.105 2026.81 362.412 2022.89M379.727 2053.44L395.081 2052.06L553.015 2034.09C553.66 2034.02 554.304 2033.92 554.911 2033.69C555.723 2033.38 556.901 2032.81 557.753 2031.83C558.806 2030.62 559.758 2028.25 560.271 2026.81C560.551 2026.03 560.678 2025.2 560.694 2024.37L561.201 1998.24M379.727 2053.44C379.727 2053.44 377.275 2052.35 377.275 2050.85C377.275 2049.77 377.275 2047.61 377.275 2047.61C377.275 2047.61 376.914 1996.08 376.914 1963.13C376.914 1959.04 376.98 1954.07 381.785 1953.04C382.491 1952.89 383.373 1952.74 384.388 1952.57M362.824 1980.47L362.412 2022.89M362.824 1980.47C362.824 1980.47 353.111 1987.83 351.06 1994.77C349.568 1999.81 349.493 2006.26 351.06 2011.28C353.154 2017.99 362.412 2022.89 362.412 2022.89M412.554 1949.36L542.546 1935.72M412.554 1949.36C412.554 1949.36 393.318 1951.14 384.388 1952.57M412.554 1949.36L406.449 2339.21M542.546 1935.72L543.783 2197.21L543.783 2210.04M384.388 1952.57C384.388 1952.57 381.2 1953.03 380.456 1954.78C379.986 1955.89 380.106 1958 380.106 1958L380.376 2044.59C380.376 2044.59 380.376 2048.15 380.376 2049.45C380.376 2052.33 384.334 2053.02 386.946 2052.79M680.585 2375.17L662.945 2359.09C662.945 2359.09 658.148 2351.39 657.273 2345.82C654.947 2331.02 663.209 2317.71 677.504 2313.23C677.504 2313.23 691.221 2310.06 697.447 2317.06L720.016 2339.37M680.585 2375.17C680.585 2375.17 676.719 2364.64 677.504 2357.79C678.577 2348.42 682.982 2339.21 690.961 2334.18C701.113 2327.79 720.016 2339.37 720.016 2339.37M680.585 2375.17C680.585 2375.17 688.758 2385.17 697.447 2384.51C704.857 2383.95 712.927 2380.66 717.94 2375.17C722.904 2369.74 724.738 2365.13 725.204 2357.79C725.677 2350.33 720.016 2339.37 720.016 2339.37M780.459 2431.72C769.721 2420.17 752.961 2402.15 752.961 2402.15C752.961 2402.15 752.197 2391.02 754.518 2384.51C757.704 2375.57 761.339 2369.53 770.083 2365.83C779.273 2361.94 784.097 2363.3 792.312 2368.97L816.156 2393.59M780.459 2431.72C788.445 2436.99 796.004 2437.71 804.844 2434.06C813.618 2430.43 818.45 2424.67 820.409 2415.38C822.168 2407.04 821.738 2399.19 816.156 2393.59M780.459 2431.72C774.365 2425.04 772.481 2418.29 774.233 2409.41C775.655 2402.22 778.601 2398.14 784.351 2393.59C792.81 2386.89 802.827 2384.97 812.108 2390.48C813.685 2391.41 815.026 2392.45 816.156 2393.59M711.777 2257.82L684.361 2207.41C684.361 2207.41 682.854 2203.96 683.472 2201.93C683.709 2201.14 683.827 2200.98 684.532 2200.57C685.774 2199.83 688.033 2201.93 688.033 2201.93L715.725 2255.7M711.777 2257.82L715.725 2255.7M711.777 2257.82C711.777 2257.82 711.238 2258.98 710.694 2260.56M715.725 2255.7C715.725 2255.7 719.409 2255.42 722.565 2256.69M709.647 2264.85C708.94 2270.94 714.008 2274.11 717.976 2278.79C721.808 2283.3 728.027 2288.34 730.662 2290.41M709.647 2264.85C709.817 2263.39 710.257 2261.84 710.694 2260.56M709.647 2264.85C709.647 2264.85 723.137 2278.79 729.564 2286.73C730.509 2287.89 730.662 2290.41 730.662 2290.41M722.565 2256.69C728.149 2258.93 728.666 2264.93 731.404 2270.29C733.517 2274.42 735.759 2279.73 737.057 2282.9M722.565 2256.69L737.057 2282.9M737.057 2282.9C737.742 2284.57 738.164 2285.65 738.164 2285.65C738.164 2285.65 739.403 2290.04 737.353 2291.37C735.402 2292.63 731.904 2291.37 731.904 2291.37C731.904 2291.37 731.439 2291.02 730.662 2290.41M710.694 2260.56L731.404 2284.65M428.308 2708.79L428.351 2709.03C428.825 2711.64 431.194 2713.46 433.831 2713.24V2713.24M428.308 2708.79C437.954 2707.89 443.732 2707.33 452.514 2706.35M452.514 2706.35L452.514 2707.03C452.514 2709.44 450.723 2711.48 448.331 2711.78V2711.78M433.831 2713.24L442.091 2712.58L448.331 2711.78M433.831 2713.24L435.092 2715.01C435.655 2715.8 436.565 2716.27 437.533 2716.27L443.595 2716.27C444.565 2716.27 445.476 2715.8 446.039 2715L448.331 2711.78M555.193 2195.35C555.193 2195.35 555.669 2188.38 553.139 2186.71C550.913 2185.25 546.448 2185.56 546.448 2185.56L377.318 2210.45C375.703 2210.69 374.207 2211.47 373.208 2212.77C372.526 2213.65 371.783 2214.7 371.316 2215.61C370.666 2216.89 370.095 2218.81 369.808 2219.85C369.673 2220.34 369.608 2220.85 369.597 2221.36L369.368 2232.12M555.193 2195.35L388.084 2220.56C387.937 2220.58 387.792 2220.61 387.649 2220.65C386.983 2220.85 384.919 2221.49 383.765 2222.37C382.113 2223.62 381.687 2226.44 381.604 2227.15C381.592 2227.25 381.588 2227.36 381.588 2227.47L381.588 2238.57M555.193 2195.35C555.193 2195.35 557.378 2194.89 558.288 2195.35C559.402 2195.92 560 2203.88 560 2203.88L560.701 2213.22C560.701 2213.22 561.364 2213.57 562.385 2214.18M491.525 2306.83L550.526 2296.24C550.757 2296.19 550.985 2296.15 551.213 2296.09C552.339 2295.81 555.969 2294.74 557.683 2292.48C558.416 2291.51 559.114 2289.7 559.626 2288.14C560.24 2286.27 560.458 2284.3 560.458 2282.34L560.458 2254.7C560.458 2254.7 561.24 2254.08 562.385 2253.09M491.525 2306.83L390.488 2323.83C390.488 2323.83 385.781 2324.2 383.765 2323.43C383.765 2323.43 379.881 2320.22 376.8 2317.33C376.113 2316.68 375.363 2315.93 374.616 2315.15M491.525 2306.83L491.525 2341.34M362.396 2242.23C360.428 2243.47 358.447 2244.94 357.081 2246.49C351.986 2252.24 350.342 2257.18 349.989 2264.86C349.715 2270.82 349.772 2274.99 353.149 2279.91C355.093 2282.74 358.92 2284.77 362.396 2286.12M362.396 2242.23C365.834 2240.06 369.231 2238.57 369.231 2238.57L369.368 2232.12M362.396 2242.23L362.396 2286.12M362.396 2286.12C366.217 2287.6 369.613 2288.26 369.613 2288.26L369.613 2309.63C369.613 2309.63 372.102 2312.53 374.616 2315.15M369.368 2232.12L374.258 2235.34L381.588 2238.57M381.588 2238.57L380.368 2288.26L374.616 2288.26L374.616 2315.15M562.385 2214.18C565.208 2215.89 570.767 2219.68 572.625 2224.09C574.397 2228.3 574.677 2231.21 573.916 2235.71C573.291 2239.4 572.17 2241.36 570.229 2244.56C568.336 2247.68 564.649 2251.12 562.385 2253.09M562.385 2214.18L562.385 2253.09M543.783 2210.04C543.783 2210.04 548.875 2210.94 550.872 2213.22C552.729 2215.35 552.308 2219.78 552.308 2219.78L552.308 2274.14C552.308 2277.24 551.712 2280.33 550.15 2283C549.278 2284.5 548.238 2286.05 547.22 2287.01C545.685 2288.46 543.06 2289.49 541.483 2290.01C540.615 2290.3 539.718 2290.49 538.814 2290.63L406.456 2311.54C404.624 2311.83 402.78 2312.07 400.926 2312.01C399.22 2311.95 397.111 2311.72 395.755 2310.99C393.762 2309.93 392.687 2308.93 391.544 2306.98C390.54 2305.27 390.491 2302.84 390.488 2302.58C390.488 2302.56 390.488 2302.54 390.488 2302.53L390.488 2246.23C390.488 2244.71 390.615 2243.19 391.057 2241.74C391.382 2240.68 391.837 2239.44 392.405 2238.57C392.973 2237.69 393.708 2236.76 394.435 2235.91C396.231 2233.81 398.594 2232.3 401.141 2231.23V2231.23C402.845 2230.51 404.632 2230.01 406.461 2229.73L523.888 2212.03L543.783 2210.04ZM376.677 2456.68L370.353 2452.88C367.937 2451.43 366.459 2448.82 366.459 2446.01V2446.01L366.459 2369.03L370.804 2369.03M376.677 2456.68C376.677 2456.68 376.677 2410.04 376.677 2380.15M376.677 2456.68C376.677 2456.68 377.944 2458.34 378.937 2459.22V2459.22C380.743 2460.82 383.261 2461.26 385.675 2461.19L397.848 2460.83M376.677 2380.15C374.384 2375.81 370.804 2369.03 370.804 2369.03M376.677 2380.15C381.095 2379.58 387.989 2378.7 387.989 2378.7M565.763 2430.13C565.763 2430.13 574.198 2428.5 578.228 2425.15C579.557 2424.04 580.856 2422.37 581.931 2420.78C583.857 2417.93 584.598 2414.49 584.598 2411.05L584.598 2363.24M565.763 2430.13C565.763 2430.13 577.721 2429.27 584.598 2426.26C587.124 2425.15 588.838 2424.84 590.83 2422.93V2422.93C594.902 2419.03 594.708 2412.59 594.708 2406.95L594.708 2363.24M565.763 2430.13L547.179 2433.61M584.598 2363.24L594.708 2363.24M584.598 2363.24L570.832 2363.24L566.939 2357.21C566.249 2356.14 566.847 2354.71 568.092 2354.45V2354.45L565.508 2345.82M594.708 2363.24L588.224 2353.52C587.482 2352.41 586.233 2351.74 584.896 2351.74L581.125 2351.74L579.325 2348.06C578.653 2346.69 577.26 2345.82 575.733 2345.82L565.508 2345.82M370.804 2369.03L370.804 2365.19M370.804 2348.61L371.884 2345.23C372.108 2344.53 372.465 2343.89 372.937 2343.33V2343.33C374.002 2342.07 375.568 2341.34 377.219 2341.34L377.897 2341.34C377.897 2341.34 378.98 2334.91 381.568 2331.94C384.829 2328.2 388.246 2326.52 393.201 2326.82C397.883 2327.1 400.877 2328.9 403.707 2332.64C405.216 2334.63 406.449 2339.21 406.449 2339.21M370.804 2348.61C370.804 2348.61 371.573 2347.64 372.222 2347.21C374.071 2345.99 377.897 2347.21 377.897 2347.21C377.897 2347.21 377.158 2350.52 377.897 2352.42C378.948 2355.11 381.195 2355.61 383.765 2356.93C385.78 2357.97 390.963 2359.22 390.963 2359.22M370.804 2348.61L370.804 2365.19M406.449 2339.21C406.449 2339.21 422.399 2336.57 432.695 2335.49C451.168 2333.55 461.672 2334.59 480.221 2333.6C499.54 2332.58 529.648 2330.28 529.648 2330.28M406.449 2339.21L406.151 2356.32M535.394 2329.89L529.648 2330.28M389.247 2354.64C389.247 2354.64 385.335 2352.34 383.765 2350.03C381.802 2347.13 382.685 2341.34 382.685 2341.34C382.685 2341.34 383.927 2335.82 386.831 2333.6C388.735 2332.15 389.98 2331.12 392.371 2330.97C395.108 2330.81 397.384 2331.89 398.88 2333.6C400.375 2335.32 400.035 2336.49 400.035 2336.49M389.247 2354.64C389.247 2354.64 390.206 2359.24 392.371 2360.93M389.247 2354.64C389.247 2354.64 389.382 2353.03 389.853 2351.1M402.179 2345C405.566 2347.21 406.57 2354.18 404.158 2358.24C401.702 2362.36 392.371 2360.93 392.371 2360.93M402.179 2345C401.473 2344.54 400.755 2344.18 400.035 2343.93M402.179 2345C402.179 2345 403.077 2342.1 402.622 2340.33C402.172 2338.58 400.035 2336.49 400.035 2336.49M392.371 2360.93L380.368 2363.09M387.989 2378.7L389.247 2380.15M387.989 2378.7L385.623 2373.85M389.247 2380.15L389.247 2434.16M389.247 2380.15L392.814 2383.9C393.055 2384.16 393.41 2384.27 393.751 2384.19L402.42 2382.31C403.066 2382.17 403.669 2382.69 403.63 2383.35L401.508 2419.4C401.508 2420.89 403.063 2420.94 404.545 2420.96C406.495 2421 407.391 2419.22 407.391 2417.27C407.391 2409.47 407.391 2396.71 407.391 2396.71L407.645 2383.02C407.655 2382.47 408.1 2382.03 408.645 2382.03L419.526 2382.03M389.247 2446.71L389.247 2438.23L389.247 2434.16M389.247 2446.71V2446.71C391.253 2449.9 394.263 2452.46 397.957 2453.19C398.276 2453.26 398.586 2453.31 398.88 2453.36C402.274 2453.85 407.663 2453.36 407.663 2453.36L549.814 2426.96C552.316 2426.5 554.699 2425.54 556.825 2424.14V2424.14C561.067 2421.34 563.969 2416.96 565.424 2412.09C566.859 2407.29 569.034 2401.38 571.808 2397.87C575.172 2393.62 580.116 2390.48 580.116 2390.48M389.247 2446.71L392.349 2448.85M549.377 2336.57C546.998 2337.89 545.193 2337.77 542.558 2337.1C539.684 2336.37 537.507 2334.84 536.325 2332.64M549.377 2336.57C552.524 2334.3 553.484 2332.11 554.003 2328.07C554.174 2326.74 554.003 2324.63 554.003 2324.63M549.377 2336.57L550.648 2338.07L524.465 2341.27C524.115 2341.31 523.768 2341.17 523.552 2340.89L519.379 2335.49M559.182 2348.16L559.182 2411C559.182 2413.86 558.068 2416.6 556.075 2418.65V2418.65C554.469 2420.3 552.384 2421.4 550.115 2421.8L548.782 2422.04M559.182 2348.16L547.031 2348.16C546.478 2348.16 546.031 2348.6 546.031 2349.16L546.031 2363.24V2363.24C546.74 2364.51 547.075 2365.96 546.997 2367.42L546.294 2380.56C546.12 2383.8 545.804 2388.68 542.558 2388.68V2388.68V2388.68C540.948 2388.69 540.224 2386.76 540.312 2385.15L541.106 2370.49C541.205 2368.67 541.686 2366.89 542.518 2365.27L542.558 2365.19L541.334 2350.94C541.29 2350.43 540.857 2350.03 540.338 2350.03L530.059 2350.03M559.182 2348.16L552.152 2339.85L527.13 2343.37C526.388 2343.48 526.02 2344.33 526.454 2344.94L530.059 2350.03M392.349 2448.85L396.741 2448.23M392.349 2448.85L392.349 2433.71M389.247 2434.16L392.349 2433.71M418.078 2425.27L415.999 2428.51C415.217 2429.74 413.944 2430.56 412.509 2430.77L406.449 2431.65M418.078 2425.27L419.526 2382.03M418.078 2425.27L422.314 2426.19M419.526 2382.03L414.499 2372.77C414.122 2372.08 413.372 2371.67 412.584 2371.73L385.623 2373.85M419.526 2382.03L419.526 2377.94M422.314 2426.19L422.314 2435.25M422.314 2426.19L426.556 2425.45M447.998 2373.85L445.017 2416.44M447.998 2373.85L447.998 2366.66M447.998 2373.85L436.409 2358.24M447.998 2373.85L437.409 2373.85C436.856 2373.85 436.409 2374.3 436.409 2374.85C436.409 2377.48 436.409 2384.76 436.409 2389.78C436.409 2392.29 436.409 2396.2 436.409 2396.2L436.173 2409.39C436.139 2411.29 433.949 2412.42 432.053 2412.31V2412.31C430.798 2412.24 432.058 2391.8 432.053 2389.78L432.069 2375.23C432.07 2374.55 431.406 2374.07 430.759 2374.28L419.526 2377.94M445.017 2416.44L444.77 2419.97C444.674 2421.35 443.651 2422.48 442.291 2422.72L436.409 2423.74M445.017 2416.44L445.882 2416.81C447.265 2417.4 448.785 2417.59 450.27 2417.36L450.827 2417.27M477.592 2365.19L466.426 2367.56C465.964 2367.66 465.634 2368.07 465.634 2368.54L465.634 2380.15L465.634 2387.74L465.09 2396.2L464.448 2400.49C464.146 2402.51 462.766 2404.75 460.778 2404.3V2404.3V2404.3C460.022 2404.13 460.268 2403.19 460.268 2402.41L460.268 2389.78C460.268 2389.78 460.268 2389.78 460.268 2389.78C460.268 2389.78 460.268 2384.31 460.268 2380.71C460.268 2376.85 460.268 2370.9 460.268 2368.64C460.268 2368.12 459.871 2367.7 459.355 2367.65L447.998 2366.66M477.592 2365.19L477.172 2370.05M477.592 2365.19L474.519 2360.32M471.676 2413.97V2413.97C472.687 2413.81 473.459 2412.99 473.547 2411.97L477.172 2370.05M471.676 2413.97L477.592 2418.92M471.676 2413.97L463.963 2415.19M477.592 2418.92L481.843 2417.95M477.592 2418.92L477.592 2424.43M502.787 2409.69L501.403 2409.69L500.492 2413.7L491.525 2415.74M502.787 2409.69L504.281 2365.19M502.787 2409.69L505.716 2410.47M504.281 2365.19L494.366 2365.89C493.842 2365.92 493.436 2366.36 493.436 2366.88L493.436 2382.03L493.436 2395.76C493.436 2399.75 493.685 2405.41 489.817 2406.37C489.631 2406.42 489.441 2406.44 489.246 2406.43C487.516 2406.32 488.143 2402.88 488.143 2402.88C488.705 2398.68 489.127 2373.62 489.225 2367.37C489.235 2366.68 488.559 2366.19 487.905 2366.41L477.172 2370.05M504.281 2365.19L504.281 2361.5M504.281 2365.19L498.168 2357.31C497.947 2357.02 497.588 2356.88 497.23 2356.93L496.184 2357.09M505.716 2410.47L505.716 2420.04M505.716 2410.47L510.414 2409.06M530.059 2400.52L528.222 2403.73L519.379 2406.38M530.059 2400.52L530.978 2356.85M530.059 2400.52L532.363 2403.73M530.978 2356.85L530.059 2350.03M530.978 2356.85L520.297 2357.73C519.778 2357.77 519.379 2358.2 519.379 2358.72L519.379 2364.56L519.379 2390.88C519.379 2392.12 518.973 2393.33 518.224 2394.31L517.729 2394.96C517.348 2395.46 516.48 2395.97 515.873 2395.79V2395.79C514.509 2395.41 514.362 2394 514.405 2392.58L515.05 2371.63L515.05 2359.58C515.05 2358.91 514.403 2358.43 513.761 2358.63L504.281 2361.5M530.978 2356.85L525.504 2348.39M532.363 2403.73L538.749 2401.78M532.363 2403.73L532.363 2414.33M558.6 2395.73L548.782 2398.72M565.508 2345.82L563.452 2340.66L563.452 2328.07L563.452 2325.35C563.452 2324.79 562.984 2324.33 562.419 2324.35L554.003 2324.63M554.003 2324.63C554.003 2324.63 552.792 2320.98 550.648 2319.42C550.048 2318.98 549.424 2318.63 548.782 2318.36M535.819 2324.63C536.585 2321.92 538.285 2319.92 541.256 2318.6C543.779 2317.48 546.399 2317.36 548.782 2318.36M535.819 2324.63C535.819 2324.63 534.812 2321.19 535.819 2319.42C536.804 2317.69 538.014 2316.56 539.873 2315.85C542.035 2315.02 543.899 2314.95 546.031 2315.85M535.819 2324.63C535.698 2325.06 535.599 2325.51 535.524 2325.97M546.031 2315.85C547.37 2316.42 548.782 2318.36 548.782 2318.36M546.031 2315.85C546.031 2315.85 546.563 2314.34 546.031 2312.96C545.805 2312.37 545.494 2311.9 545.115 2311.52M548.782 2318.36C548.782 2318.36 550.324 2312.64 548.782 2309.58C547.166 2306.37 544.709 2305.28 541.256 2304.27C538.295 2303.41 536.316 2303.39 533.361 2304.27C528.239 2305.8 525.439 2309.05 523.9 2314.16C522.925 2317.41 522.849 2319.62 523.9 2322.84C525.039 2326.33 529.648 2330.28 529.648 2330.28M535.524 2325.97C535.415 2326.64 535.352 2327.33 535.33 2328.07C535.279 2329.81 535.63 2331.34 536.325 2332.64M535.524 2325.97C535.524 2325.97 532.197 2326.83 531.173 2324.63M531.173 2324.63C530.156 2322.45 530.191 2318.96 531.173 2316.76C532.486 2313.83 534.213 2312.31 537.218 2311.17C540 2310.11 543.315 2309.72 545.115 2311.52M531.173 2324.63C531.173 2324.63 527.995 2321.15 527.627 2318.36C527.144 2314.69 528.443 2312.07 531.173 2309.58C533.885 2307.1 536.688 2305.65 540.171 2306.83C542.695 2307.67 545.115 2311.52 545.115 2311.52M406.449 2431.65L397.848 2432.91M406.449 2431.65L407.037 2439.18M407.625 2446.71L412.668 2446.01L422.314 2444.31M407.625 2446.71L396.741 2448.23M407.625 2446.71L407.037 2439.18M397.848 2432.91L396.741 2448.23M397.848 2432.91L392.349 2433.71M422.314 2444.31L422.314 2435.25M422.314 2444.31L426.556 2443.56M436.409 2423.74L426.556 2425.45M436.409 2423.74L436.096 2432.84M435.784 2441.93L450.827 2439.29M435.784 2441.93L426.556 2443.56M435.784 2441.93L436.096 2432.84M450.827 2417.27L450.827 2428.28M450.827 2417.27L454.245 2416.73M450.827 2439.29L450.827 2428.28M450.827 2439.29L454.245 2438.68M463.963 2415.19L454.245 2416.73M463.963 2415.19L463.963 2426.08M463.963 2436.97L477.592 2434.57M463.963 2436.97L454.245 2438.68M463.963 2436.97L463.963 2426.08M477.592 2434.57L481.843 2433.82M477.592 2434.57L477.592 2424.43M491.525 2415.74L481.843 2417.95M491.525 2415.74L491.525 2423.93M491.525 2432.12L505.716 2429.62M491.525 2432.12L481.843 2433.82M491.525 2432.12L491.525 2423.93M505.716 2429.62L505.716 2420.04M505.716 2429.62L510.414 2428.79M519.379 2406.38L510.414 2409.06M519.379 2406.38L519.379 2416.8M519.379 2427.21L532.363 2424.93M519.379 2427.21L510.414 2428.79M519.379 2427.21L519.379 2416.8M532.363 2424.93L539.116 2423.74M532.363 2424.93L532.363 2414.33M548.782 2398.72L548.782 2422.04M548.782 2398.72L538.749 2401.78M548.782 2422.04L539.116 2423.74M517.148 2335.49L519.379 2335.49M517.148 2335.49L522.869 2344.32M517.148 2335.49L491.525 2341.34M519.379 2335.49L536.325 2332.64M491.525 2348.16L491.525 2341.34M491.525 2348.16L462.48 2352.93M491.525 2341.34L493.436 2343.81L496.184 2347.35M471.446 2355.46L474.519 2360.32M471.446 2355.46L474.519 2354.73M471.446 2355.46L467.599 2356.03L465.634 2356.32L450.243 2358.98C449.855 2359.04 449.464 2358.88 449.244 2358.55L448.042 2356.77C447.524 2356 446.549 2355.69 445.683 2356.01L442.696 2357.13M434.347 2355.46L436.409 2358.24M434.347 2355.46L434.225 2365.95M434.347 2355.46L462.48 2352.93M434.347 2355.46L434.41 2350.03M447.998 2366.66L442.696 2357.13M442.696 2357.13L436.409 2358.24M370.804 2365.19L380.368 2363.09M380.368 2363.09L383.765 2370.05M400.035 2336.49C399.696 2336.06 399.313 2335.71 398.88 2335.49C396.915 2334.46 395.34 2334.9 393.201 2335.49C390.188 2336.31 388.132 2337.49 386.831 2340.33C385.683 2342.84 386.145 2345.45 386.831 2348.61C387.517 2351.77 389.853 2351.1 389.853 2351.1M385.623 2373.85L383.765 2370.05M383.765 2370.05L408.084 2367.96C409.426 2367.85 410.273 2366.46 409.766 2365.22L406.151 2356.32M406.151 2356.32L408.521 2354.64M408.521 2354.64L412.247 2361.25C412.665 2361.99 413.508 2362.39 414.347 2362.24L436.409 2358.24M408.521 2354.64L434.41 2350.03M407.037 2439.18L422.314 2435.25M426.556 2425.45L426.556 2443.56M436.096 2432.84L450.827 2428.28M454.245 2416.73L454.245 2438.68M481.843 2417.95L481.843 2433.82M463.963 2426.08L477.592 2424.43M491.525 2423.93L505.716 2420.04M510.414 2409.06L510.414 2428.79M538.749 2401.78L539.116 2423.74M519.379 2416.8L532.363 2414.33M434.225 2365.95L423.954 2367.53C423.146 2367.65 422.344 2367.27 421.929 2366.57L419.975 2363.25C419.719 2362.82 419.178 2362.64 418.715 2362.85L415.744 2364.14C415.215 2364.37 414.991 2365 415.254 2365.51L419.416 2373.64C419.488 2373.78 419.526 2373.93 419.526 2374.09L419.526 2377.94M504.281 2361.5L504.281 2358.49C504.281 2358.04 504.134 2357.61 503.863 2357.26L499.088 2351.1C498.591 2350.46 499.025 2349.52 499.836 2349.49L525.504 2348.39M390.819 2348.16C391.229 2347.22 391.738 2346.37 392.371 2345.73C394.556 2343.52 397.305 2342.97 400.035 2343.93M390.819 2348.16C390.819 2348.16 389.434 2344.31 390.38 2342.51C391.324 2340.73 392.056 2340.33 394.225 2340.33C396.394 2340.33 400.035 2343.93 400.035 2343.93M390.819 2348.16C390.4 2349.11 390.085 2350.14 389.853 2351.1M462.48 2352.93L462.54 2347.35M474.519 2360.32L477.172 2359.93M525.504 2348.39L522.869 2344.32M496.184 2347.35L522.869 2344.32M496.184 2347.35L496.184 2357.09M474.519 2354.73L477.172 2359.93M474.519 2354.73L485.589 2353.16C486.498 2353.03 487.379 2353.53 487.725 2354.38L489.246 2358.13M477.172 2359.93L489.246 2358.13M489.246 2358.13L493.436 2357.5L496.184 2357.09M397.848 2460.83L398.283 2460.81C401.023 2460.73 403.754 2460.44 406.449 2459.93V2459.93M397.848 2460.83C397.848 2460.83 400.09 2464.76 402.4 2464.62C404.814 2464.47 406.449 2459.93 406.449 2459.93M406.449 2459.93L424.363 2456.58M424.363 2456.58C424.363 2456.58 428.762 2460.1 431.659 2459.22C434.109 2458.47 436.096 2454.39 436.096 2454.39M424.363 2456.58L436.096 2454.39M436.096 2454.39L454.75 2450.9M454.75 2450.9C454.75 2450.9 458.48 2453.92 461.066 2453.36C463.539 2452.82 465.721 2448.85 465.721 2448.85M454.75 2450.9L465.721 2448.85M465.721 2448.85L480.811 2446.02M480.811 2446.02C480.811 2446.02 484.932 2449.43 487.826 2448.85C490.657 2448.27 493.152 2443.72 493.152 2443.72M480.811 2446.02L493.152 2443.72M493.152 2443.72L508.973 2440.76M508.973 2440.76C508.973 2440.76 513.31 2443.67 516.155 2442.96C518.711 2442.32 521.196 2438.47 521.196 2438.47M508.973 2440.76L521.196 2438.47M521.196 2438.47L535.407 2435.81M535.407 2435.81C535.407 2435.81 540.644 2439.96 543.7 2438.47C545.797 2437.45 547.179 2433.61 547.179 2433.61M535.407 2435.81L547.179 2433.61M462.54 2347.35L491.525 2343.81M462.54 2347.35L434.41 2350.03M395.081 1965.58C393.183 1967.57 391.526 1971.09 390.708 1973C390.332 1973.88 390.164 1974.83 390.164 1975.79L390.164 2034.14C390.164 2035.05 390.296 2035.95 390.624 2036.8C391.335 2038.64 392.832 2041.94 394.831 2043.29C395.444 2043.7 396.236 2044.06 397.104 2044.36C402.027 2046.05 407.379 2045.52 412.545 2044.87L538.534 2029.14C542.768 2028.61 546.921 2027 549.765 2023.82V2023.82V2023.82C552.903 2020.31 553.288 2015.25 553.329 2010.54L553.788 1957.32C553.8 1955.94 553.537 1954.57 552.893 1953.35C552.143 1951.92 551.004 1950.03 549.765 1948.91C548.115 1947.42 545.292 1946.41 543.285 1945.84C541.753 1945.4 540.147 1945.36 538.563 1945.53L404.403 1960.52C402.843 1960.7 401.32 1961.14 399.972 1961.95C398.426 1962.87 396.367 1964.22 395.081 1965.58ZM396.741 2347.21C394.398 2347.31 393.111 2349.1 392.371 2351.33C391.453 2354.09 392.3 2356.59 394.941 2357.8C397.599 2359.03 400.385 2358.16 401.508 2355.46C402.127 2353.97 402.037 2352.85 401.508 2351.33C400.701 2349 399.199 2347.1 396.741 2347.21ZM539.873 2328.07C540.383 2330.43 542.737 2331.8 545.115 2331.36C547.618 2330.9 549.459 2328.43 548.782 2325.97C548.222 2323.94 546.494 2322.82 544.387 2322.84C541.689 2322.86 539.303 2325.43 539.873 2328.07ZM568.643 2376.26C564.51 2376.33 561.77 2380.33 561.957 2384.46C562.135 2388.38 564.724 2391.87 568.643 2391.95C572.629 2392.02 575.403 2388.45 575.585 2384.46C575.777 2380.27 572.84 2376.18 568.643 2376.26Z" stroke="white" stroke-linecap="round" stroke-linejoin="round"/>
<circle cx="704.022" cy="2341.98" r="2.70912" stroke="white"/>
<path d="M684.899 2185.71C684.899 2189.43 682.223 2192.35 679.039 2192.35C675.856 2192.35 673.18 2189.43 673.18 2185.71C673.18 2181.99 675.856 2179.07 679.039 2179.07C682.223 2179.07 684.899 2181.99 684.899 2185.71Z" stroke="white"/>
<path d="M408.477 2295.99C408.477 2299.71 405.801 2302.63 402.617 2302.63C399.434 2302.63 396.758 2299.71 396.758 2295.99C396.758 2292.27 399.434 2289.35 402.617 2289.35C405.801 2289.35 408.477 2292.27 408.477 2295.99Z" stroke="white"/>
<path d="M440.102 1973.14C440.102 1976.86 437.426 1979.78 434.242 1979.78C431.059 1979.78 428.383 1976.86 428.383 1973.14C428.383 1969.42 431.059 1966.5 434.242 1966.5C437.426 1966.5 440.102 1969.42 440.102 1973.14Z" stroke="white"/>
<path d="M466.219 1970.35C466.219 1974.07 463.543 1976.98 460.36 1976.98C457.176 1976.98 454.5 1974.07 454.5 1970.35C454.5 1966.63 457.176 1963.71 460.36 1963.71C463.543 1963.71 466.219 1966.63 466.219 1970.35Z" stroke="white"/>
<path d="M492.727 1967.87C492.727 1971.59 490.051 1974.51 486.867 1974.51C483.684 1974.51 481.008 1971.59 481.008 1967.87C481.008 1964.15 483.684 1961.23 486.867 1961.23C490.051 1961.23 492.727 1964.15 492.727 1967.87Z" stroke="white"/>
<path d="M518.602 1964.67C518.602 1968.39 515.926 1971.31 512.742 1971.31C509.559 1971.31 506.883 1968.39 506.883 1964.67C506.883 1960.95 509.559 1958.03 512.742 1958.03C515.926 1958.03 518.602 1960.95 518.602 1964.67Z" stroke="white"/>
<path d="M544.508 1961.67C544.508 1965.39 541.832 1968.3 538.649 1968.3C535.465 1968.3 532.789 1965.39 532.789 1961.67C532.789 1957.94 535.465 1955.03 538.649 1955.03C541.832 1955.03 544.508 1957.94 544.508 1961.67Z" stroke="white"/>
<path d="M436.742 2291.74C436.742 2295.46 434.066 2298.38 430.883 2298.38C427.699 2298.38 425.023 2295.46 425.023 2291.74C425.023 2288.02 427.699 2285.11 430.883 2285.11C434.066 2285.11 436.742 2288.02 436.742 2291.74Z" stroke="white"/>
<path d="M464.563 2287.97C464.563 2291.69 461.887 2294.6 458.703 2294.6C455.52 2294.6 452.844 2291.69 452.844 2287.97C452.844 2284.25 455.52 2281.33 458.703 2281.33C461.887 2281.33 464.563 2284.25 464.563 2287.97Z" stroke="white"/>
<path d="M491.672 2283.79C491.672 2287.52 488.996 2290.43 485.813 2290.43C482.629 2290.43 479.953 2287.52 479.953 2283.79C479.953 2280.07 482.629 2277.16 485.813 2277.16C488.996 2277.16 491.672 2280.07 491.672 2283.79Z" stroke="white"/>
<path d="M518 2278.56C518 2282.28 515.324 2285.2 512.141 2285.2C508.957 2285.2 506.281 2282.28 506.281 2278.56C506.281 2274.84 508.957 2271.92 512.141 2271.92C515.324 2271.92 518 2274.84 518 2278.56Z" stroke="white"/>
<path d="M545.219 2275.15C545.219 2278.87 542.543 2281.79 539.36 2281.79C536.176 2281.79 533.5 2278.87 533.5 2275.15C533.5 2271.43 536.176 2268.52 539.36 2268.52C542.543 2268.52 545.219 2271.43 545.219 2275.15Z" stroke="white"/>
<circle cx="782.467" cy="2414.05" r="2.70912" stroke="white"/>
<circle cx="476.634" cy="1457.19" r="33.8447" stroke="white"/>
<circle cx="704.022" cy="2341.66" r="2.70912" stroke="white"/>
<path d="M684.922 2185.39C684.922 2189.12 682.246 2192.03 679.063 2192.03C675.879 2192.03 673.203 2189.12 673.203 2185.39C673.203 2181.67 675.879 2178.76 679.063 2178.76C682.246 2178.76 684.922 2181.67 684.922 2185.39Z" stroke="white"/>
<path d="M408.477 2295.68C408.477 2299.41 405.801 2302.32 402.617 2302.32C399.434 2302.32 396.758 2299.41 396.758 2295.68C396.758 2291.96 399.434 2289.05 402.617 2289.05C405.801 2289.05 408.477 2291.96 408.477 2295.68Z" stroke="white"/>
<path d="M413.563 1975.64C413.563 1979.36 410.887 1982.27 407.703 1982.27C404.52 1982.27 401.844 1979.36 401.844 1975.64C401.844 1971.91 404.52 1969 407.703 1969C410.887 1969 413.563 1971.91 413.563 1975.64Z" stroke="white"/>
<path d="M440.102 1972.81C440.102 1976.54 437.426 1979.45 434.242 1979.45C431.059 1979.45 428.383 1976.54 428.383 1972.81C428.383 1969.09 431.059 1966.18 434.242 1966.18C437.426 1966.18 440.102 1969.09 440.102 1972.81Z" stroke="white"/>
<path d="M466.188 1970.02C466.188 1973.74 463.512 1976.66 460.328 1976.66C457.145 1976.66 454.469 1973.74 454.469 1970.02C454.469 1966.3 457.145 1963.39 460.328 1963.39C463.512 1963.39 466.188 1966.3 466.188 1970.02Z" stroke="white"/>
<path d="M492.727 1967.56C492.727 1971.28 490.051 1974.19 486.867 1974.19C483.684 1974.19 481.008 1971.28 481.008 1967.56C481.008 1963.83 483.684 1960.92 486.867 1960.92C490.051 1960.92 492.727 1963.83 492.727 1967.56Z" stroke="white"/>
<path d="M518.602 1964.35C518.602 1968.07 515.926 1970.99 512.742 1970.99C509.559 1970.99 506.883 1968.07 506.883 1964.35C506.883 1960.63 509.559 1957.71 512.742 1957.71C515.926 1957.71 518.602 1960.63 518.602 1964.35Z" stroke="white"/>
<path d="M544.508 1961.36C544.508 1965.08 541.832 1968 538.649 1968C535.465 1968 532.789 1965.08 532.789 1961.36C532.789 1957.64 535.465 1954.72 538.649 1954.72C541.832 1954.72 544.508 1957.64 544.508 1961.36Z" stroke="white"/>
<path d="M436.742 2291.44C436.742 2295.16 434.066 2298.07 430.883 2298.07C427.699 2298.07 425.023 2295.16 425.023 2291.44C425.023 2287.71 427.699 2284.8 430.883 2284.8C434.066 2284.8 436.742 2287.71 436.742 2291.44Z" stroke="white"/>
<path d="M464.563 2287.65C464.563 2291.37 461.887 2294.29 458.703 2294.29C455.52 2294.29 452.844 2291.37 452.844 2287.65C452.844 2283.93 455.52 2281.01 458.703 2281.01C461.887 2281.01 464.563 2283.93 464.563 2287.65Z" stroke="white"/>
<path d="M491.703 2283.48C491.703 2287.2 489.027 2290.11 485.844 2290.11C482.66 2290.11 479.984 2287.2 479.984 2283.48C479.984 2279.76 482.66 2276.84 485.844 2276.84C489.027 2276.84 491.703 2279.76 491.703 2283.48Z" stroke="white"/>
<path d="M517.977 2278.24C517.977 2281.96 515.301 2284.88 512.117 2284.88C508.934 2284.88 506.258 2281.96 506.258 2278.24C506.258 2274.52 508.934 2271.6 512.117 2271.6C515.301 2271.6 517.977 2274.52 517.977 2278.24Z" stroke="white"/>
<path d="M545.219 2274.84C545.219 2278.56 542.543 2281.47 539.36 2281.47C536.176 2281.47 533.5 2278.56 533.5 2274.84C533.5 2271.11 536.176 2268.2 539.36 2268.2C542.543 2268.2 545.219 2271.11 545.219 2274.84Z" stroke="white"/>
<circle cx="782.467" cy="2413.74" r="2.70912" stroke="white"/>
<circle cx="476.665" cy="1456.87" r="33.8447" stroke="white"/>
<circle cx="476.634" cy="1456.88" r="39.4854" stroke="white"/>
<circle cx="476.657" cy="1457.18" r="39.4854" stroke="white"/>
</svg>
