<svg width="1289" height="906" viewBox="0 0 1289 906" fill="none" xmlns="http://www.w3.org/2000/svg">
<path d="M368.363 64.5154C368.363 64.5154 337.791 50.2831 320.305 39.0623C317.517 37.2735 314.402 35.137 311.299 32.9408C299.385 24.5072 284.801 20.501 270.348 22.5497L247.286 25.8188C244.975 26.1464 242.638 26.2484 240.308 26.1236L238.88 26.0471C232.589 25.7101 226.331 27.0134 220.78 29.9944C208.294 36.7008 184.856 49.8802 169.903 61.93C139.371 86.5354 127.819 106.617 104.695 138.286C87.4275 161.933 77.8526 175.461 63.9893 201.252C54.256 219.359 49.6795 229.997 41.7287 248.955C31.2152 274.023 25.0801 288.167 18.196 314.464C13.2616 333.314 10.0197 344 8.65569 363.437C7.87329 374.586 7.76495 389.237 6.98735 405.759C6.45586 417.052 5.82294 423.369 5.4756 434.669C4.97956 450.807 4.46259 466.221 3.1809 486.404C2.99857 489.275 2.77042 492.552 2.5313 495.845C1.60823 508.56 4.7657 521.25 11.6715 531.966L15.6284 538.106C18.1791 542.064 21.2024 545.696 24.6314 548.923L66.1445 587.992L79.5704 600.627M334.155 99.0604L314.581 92.4879M314.581 92.4879L314.348 92.7204C303.772 103.296 296.961 117.052 294.961 131.875V131.875C294.293 136.824 294.17 141.832 294.595 146.808L295.583 158.394C297.213 177.503 301.991 196.211 309.725 213.761L314.581 224.78L328.605 250.894C331.541 256.36 335.139 261.444 339.318 266.031V266.031M314.581 92.4879C314.581 92.4879 313.159 88.2426 311.202 86.31C309.89 85.0136 308.003 84.4273 305.954 84.2594M347.018 270.573C350.296 271.733 355.922 270.573 355.922 270.573M347.018 270.573C343.69 269.395 339.318 266.031 339.318 266.031M347.018 270.573L346.097 274.193C344.635 279.943 339.458 283.969 333.525 283.969V283.969C329.285 283.969 325.331 281.922 322.965 278.404C313.431 264.226 288.532 225.949 278.689 198.795C273.74 185.142 269.664 167.407 266.711 152.285C262.823 132.372 269.491 112.087 283.457 97.3718L285.52 95.1985C291.073 89.3479 297.915 83.6006 305.954 84.2594V84.2594M355.922 270.573L347.018 325.592L341.162 363.765L344.064 391M355.922 270.573V264.849M355.922 270.573L352.304 277.895C348.849 284.886 343.801 291.919 336.138 293.363V293.363C325.723 295.324 313.524 283.421 308.407 277.773C306.719 275.908 305.253 273.888 303.879 271.781C296.951 261.165 274.608 225.754 266.594 198.795C263.411 188.087 259.848 175.936 256.501 164.459C248.658 137.559 256.596 108.561 276.955 89.3092V89.3092C282.217 84.3334 289.45 82.0089 296.626 82.9873L305.954 84.2594M339.318 266.031L355.922 264.849M355.922 264.849L363.224 260.89M363.224 260.89L379.337 270.573L385.321 274.485C389.568 277.26 393.248 280.818 396.165 284.969L406.05 299.035L410.27 303.332C413.249 306.365 417.076 308.427 421.247 309.246V309.246C423.852 309.758 426.53 309.773 429.14 309.291L432.323 308.702C438.684 307.527 444.407 304.094 448.438 299.035V299.035M363.224 260.89C363.224 260.89 371.342 255 376.828 254.412M448.438 299.035L453.272 291.176M448.438 299.035C448.438 299.035 462.196 306.683 471.682 310.021C479.399 312.735 485.528 316.053 493.593 317.422C502.367 318.912 511.208 318.762 519.824 320.993C523.916 322.052 528.726 325.58 530.515 326.989M453.272 291.176L476.367 281.014L491.648 272.064M453.272 291.176C453.272 291.176 456.342 292.093 460.921 293.363M491.648 272.064C491.648 272.064 476.962 263.649 473.226 254.412C470.934 248.746 470.554 244.972 471.193 238.893V238.893C472.345 227.947 481.128 219.643 489.362 212.34L490.532 211.303C494.434 207.843 499.24 205.585 504.336 204.473C510.066 203.223 517.772 201.263 523.294 198.795C525.226 197.931 527.386 196.784 529.494 195.58C536.506 191.575 541.564 184.977 544.485 177.448L552.826 155.943C553.809 153.41 555.52 151.226 557.745 149.666V149.666C564.858 144.679 574.715 146.84 579.089 154.345L579.687 155.37C581.545 158.559 581.999 162.376 580.938 165.912V165.912M491.648 272.064L502.068 264.756L505.389 261.216H509.518C510.959 261.216 512.284 262.004 512.971 263.27V263.27C513.486 264.219 514.369 264.913 515.412 265.191L515.725 265.275C517.12 265.647 518.609 265.354 519.76 264.481L521.02 263.525C522.49 262.41 523.523 260.821 523.942 259.024C524.921 254.831 526.805 246.762 528.153 240.991M528.153 240.991C530.512 235.048 534.195 225.772 534.195 225.772L537.336 220.784M528.153 240.991C528.441 241.046 528.735 241.1 529.034 241.153C542.624 243.579 556.556 242.1 569.996 238.949L617.881 227.723C622.798 226.571 627.768 225.702 632.788 225.152C641.761 224.171 656.632 222.613 665.31 222.077C675.653 221.439 686.68 221.715 692.105 221.923C694.291 222.007 696.326 223.019 697.744 224.684L703.68 231.654L710.938 240.318C714.729 244.842 719.372 248.576 724.604 251.308L740.373 259.541L744.454 261.73C751.094 265.291 757.315 269.585 763 274.53L765.534 276.734L777.275 289.524L783.891 295.479C786.381 297.719 789.612 298.959 792.962 298.959H794.801C796.885 298.959 798.899 298.206 800.472 296.838V296.838C802.011 295.5 803.027 293.66 803.341 291.645L803.579 290.115C804.058 287.031 803.402 283.877 801.731 281.241L800.115 278.692C799.289 277.39 798.343 276.168 797.288 275.043L791.784 269.175C788.797 265.99 785.41 263.205 781.707 260.891L781.47 260.743C775.642 257.1 770.642 252.278 766.791 246.586L766.455 246.089C765.628 244.866 766.934 243.208 768.259 242.557V242.557C770.539 241.438 770.566 236.477 770.566 236.477V233.668C770.566 233.221 770.86 232.83 771.294 232.72C773.034 232.282 777.52 231.274 780.63 231.654V231.654C786.451 232.366 792.073 234.59 797.937 234.59H799.5L804.894 238.536C807.01 240.085 809.401 241.218 811.939 241.876V241.876M537.336 220.784L538.203 220.681C542.6 220.157 546.583 217.835 549.205 214.266L551.747 210.807M537.336 220.784H535.672C534.7 220.784 533.741 221.005 532.867 221.431L531.889 221.907C531.658 222.019 531.406 222.077 531.15 222.077H530.109C529.751 222.077 529.461 222.367 529.461 222.725V222.725C529.461 223.083 529.171 223.373 528.813 223.373H527.032C526.6 223.373 526.25 223.723 526.25 224.155V224.155C526.25 224.587 525.9 224.937 525.469 224.937H523.294M551.747 210.807L559.876 195.473V195.473C561.581 191.209 564.158 187.348 567.441 184.136L568.198 183.396C570.035 181.598 571.686 179.619 573.124 177.488L580.938 165.912M551.747 210.807L543.689 215.769C541.665 217.015 539.39 217.794 537.028 218.051L532.076 218.59C530.363 218.776 528.728 219.408 527.336 220.424L524.558 222.452C523.764 223.031 523.294 223.954 523.294 224.937V224.937M580.938 165.912L586.754 170.942C587.261 171.381 588.049 171.205 588.321 170.592L592.865 160.369M461.351 185.674L460.962 183.352C460.26 179.149 457.998 175.367 454.629 172.759L454.285 172.493C451.704 170.496 448.563 169.361 445.302 169.246C443.884 169.196 442.282 169.14 440.657 169.083C436.753 168.946 432.925 170.19 429.847 172.596V172.596M461.351 185.674L463.434 209.063M461.351 185.674C461.351 185.674 459.14 187.659 457.444 188.452C456.521 188.883 454.984 189.32 454.984 189.32M432.241 177.739C432.241 177.739 436.479 177.411 439.162 177.739C443.055 178.215 445.437 178.61 448.761 180.692C450.225 181.61 451.879 183.241 452.957 184.386C453.485 184.947 453.171 185.861 452.425 186.052C451.277 186.346 449.789 186.805 448.761 187.41C446.794 188.566 446.732 190.872 444.519 191.428C441.188 192.264 436.26 191.428 436.26 191.428L440.131 189.025C441.666 188.072 442.398 186.194 441.695 184.529C441.461 183.974 441.203 183.425 440.937 182.973V182.973C439.927 181.255 438.191 180.122 436.342 179.381L432.241 177.739ZM432.241 177.739L424.451 185.674C424.451 185.674 412.201 196.237 413.713 204.599C414.177 207.164 416.168 210.807 416.168 210.807M439.162 216.207V216.207C436.419 217.149 433.38 216.309 431.509 214.093L429.384 211.575C428.213 210.188 427.377 208.551 426.94 206.789L425.814 202.251C425.405 200.605 425.631 198.859 426.439 197.369V197.369C428.216 194.093 432.316 192.854 435.598 194.617L436.503 195.104C438.14 195.983 439.162 197.692 439.162 199.55V202.48C439.162 203.65 438.213 204.599 437.043 204.599V204.599C435.975 204.599 435.074 205.393 434.94 206.453L434.853 207.152C434.707 208.311 435.267 209.446 436.276 210.035L437.599 210.807M431.513 226.045L429.152 233.159C428.479 235.185 426.585 236.552 424.451 236.552V236.552V236.552C420.378 236.552 416.673 234.196 414.946 230.508L411.148 222.401V222.401C406.787 215.089 406.061 206.169 409.182 198.248L409.501 197.44C410.593 194.668 412.101 192.08 413.975 189.765L420.142 182.141C423.005 178.602 426.261 175.4 429.847 172.596V172.596M79.5704 600.627C79.5704 600.627 112.103 611.348 133.365 609.849C148.467 608.784 157.449 607.339 171.02 600.627C187.597 592.429 194.489 583.29 206.371 569.119C215.837 557.829 227.12 537.611 227.12 537.611M79.5704 600.627C79.5704 600.627 99.7415 615.783 114.025 623.164C147.001 640.204 208.648 647.957 208.648 647.957C208.648 647.957 245.163 652.591 268.693 653.161C277.843 653.382 282.986 653.589 292.128 653.161C311.909 652.233 322.521 647.011 342.278 645.661C359.078 644.514 379.646 642.106 403.596 643.043C416.106 643.532 435.547 645.661 435.547 645.661M227.12 537.611L242.266 560.962M227.12 537.611L200.171 493.16M435.547 645.661L442.108 573.935M435.547 645.661L433.749 713.851M344.064 391V391C327.418 382.388 307.699 382.076 290.789 390.156L227.12 420.581L191.322 436.482C184.616 439.461 178.489 443.6 173.222 448.71V448.71M344.064 391V391C327.69 379.619 306.516 377.754 288.404 386.097L195.646 428.824C186.059 433.24 177.193 439.076 169.347 446.136L148.916 464.518L159.389 473.993C166.885 480.775 175.794 485.808 185.472 488.727V488.727L200.171 493.16M344.064 391L343.721 394.153M458.948 437.399C458.948 437.399 432.976 424.889 417.777 420.581C402.577 416.272 395.911 415.627 382.365 410.944C366.814 405.569 343.721 394.153 343.721 394.153M375.027 496.726V496.726C381.43 506.32 383.22 518.27 379.91 529.32L379.675 530.104C376.691 540.064 369.988 548.492 360.955 553.639L348.105 560.962L338.568 566.197C323.488 574.474 306.781 579.354 289.617 580.495L288.378 580.577M375.027 496.726C375.027 496.726 401.31 489.22 417.777 483.299C432.701 477.933 440.708 476.522 454.555 468.79M375.027 496.726L373.163 492.784M375.027 496.726L369.926 511.176C365.566 523.527 356.348 533.56 344.409 538.948L293.344 561.995C285.828 565.388 277.565 566.786 269.351 566.057L244.116 563.815M454.555 468.79C472.498 458.77 480.909 448.611 496.566 435.3C505.787 427.461 518.014 416.34 525.408 409.547C529.705 405.6 534.85 402.693 540.461 401.09V401.09M454.555 468.79L476.628 311.891M540.461 401.09C540.461 401.09 553.489 382.496 564.541 373.352C571.486 367.606 576.002 365.162 583.745 360.549C592.619 355.263 597.982 352.983 607.216 348.356C616.051 343.93 620.268 339.081 629.995 337.341C634.821 336.478 641.857 336.929 644.942 337.194C645.969 337.282 646.962 337.573 647.889 338.025L648.02 338.089M540.461 401.09C540.461 401.09 533.91 387.408 531.926 378.002C529.846 368.146 530.515 352.247 530.515 352.247V326.989M750.787 316.35L754.445 311.778L748.349 303.941M750.787 316.35H749.169C748.632 316.35 748.105 316.494 747.643 316.767L736.411 323.405C735.497 323.944 734.937 324.926 734.937 325.987V330.677M750.787 316.35L751.267 316.414C758.371 317.354 765.402 319.055 771.824 322.233V322.233C772.674 322.654 773.591 323.132 774.532 323.637C781.402 327.33 788.898 329.802 796.685 330.244V330.244C801.69 330.527 806.682 329.496 811.164 327.253L811.478 327.096C815.194 325.236 818.484 322.625 821.139 319.429L822.673 317.583C824.273 315.657 825.656 313.56 826.795 311.33L829.903 305.249M734.937 330.677L745.91 343.174L726.826 354.927L704.15 367.255M734.937 330.677C734.937 330.677 742.455 324.121 748.349 322.233C750.668 321.49 754.445 320.922 754.445 320.922M704.15 367.255L705.183 369.336C705.935 370.852 706.199 372.563 705.937 374.234V374.234C705.698 375.756 705.034 377.179 704.021 378.34L701.814 380.868C700.471 382.407 698.898 383.729 697.15 384.787L690.629 388.734M704.15 367.255H702.855M754.445 320.922L787.671 346.527V351.1M754.445 320.922V320.922C756.933 320.922 759.413 321.254 761.787 321.997C763.827 322.636 766.346 323.475 768.259 324.275C768.991 324.582 769.773 324.94 770.572 325.328C777.122 328.507 783.906 331.287 791.09 332.474L792.345 332.681C794.177 332.984 796.03 333.136 797.887 333.136H800.904C805.621 333.136 810.261 331.934 814.385 329.643V329.643C817.706 327.798 820.613 325.291 822.926 322.277L823.017 322.158C825.212 319.298 826.843 316.049 827.826 312.581L829.903 305.249M787.671 351.1L678.24 434.621M787.671 351.1L791.329 358.415L687.994 436.755M288.378 580.577L280.569 581.096C275.18 581.455 269.772 580.753 264.653 579.03L263.004 578.475C255.234 575.86 248.577 570.694 244.116 563.815V563.815M288.378 580.577L308.415 597.94C314.527 603.236 321.406 607.577 328.818 610.814L335.81 613.869C341.314 616.273 347.256 617.514 353.262 617.514V617.514C358.923 617.514 364.529 616.42 369.734 614.194C378.667 610.373 393.306 603.903 403.596 598.31C419.234 589.809 442.108 573.935 442.108 573.935M556.006 473.638L537.717 486.745L531.926 492.32M556.006 473.638L569.419 462.36C569.419 462.36 577.301 457.851 582.831 456.263C586.781 455.129 593.195 454.434 593.195 454.434L599.04 453.721M556.006 473.638L599.04 475.034L637.915 479.99L642.099 481.052M690.629 388.734L689.763 392.096C688.626 396.505 685.861 400.32 682.023 402.771L665.354 413.421C663.346 414.704 661.612 416.373 660.254 418.331L651.922 430.345C648.608 435.125 643.976 438.837 638.589 441.032L630.383 444.375L616.056 448.643L611.889 450.358C607.777 452.052 603.455 453.183 599.04 453.721V453.721M690.629 388.734V388.734C688.288 387.526 685.505 387.537 683.174 388.764L647.249 407.671M702.855 367.255V367.255C697.279 371.041 691.121 373.891 684.626 375.692L666.953 380.593C662.245 381.898 657.442 382.831 652.587 383.382L639.409 384.877M702.855 367.255L703.325 365.056C703.848 362.616 703.258 360.069 701.716 358.106V358.106C700.059 355.999 697.497 354.808 694.817 354.901L667.855 355.837L643.634 358.006L629.466 360.162C627.773 360.42 626.063 360.549 624.351 360.549H613.076L732.614 283.716L743.53 297.747M531.926 492.32L556.84 503.509C559.952 504.907 563.267 505.798 566.66 506.148L577.785 507.298C580.778 507.608 583.213 509.848 583.77 512.805V512.805M531.926 492.32L504.248 518.961M583.77 512.805L596.552 517.299M583.77 512.805C583.77 512.805 578.662 519.279 577.293 524.216C575.789 529.639 577.293 538.626 577.293 538.626M596.552 517.299C596.552 517.299 593.539 522.288 592.685 525.854C591.627 530.269 592.685 537.48 592.685 537.48M596.552 517.299L599.04 520.758M592.685 537.48L595.734 538.185M592.685 537.48L577.293 538.626M599.04 520.758C599.04 520.758 600.388 523.004 601.527 524.216C603.925 526.767 608.843 528.399 610.978 529.015C611.663 529.212 612.358 529.355 613.059 529.479L617.435 530.255C620.544 530.807 623.738 530.65 626.778 529.797L628.577 529.292L736.78 559.421L732.359 578.743L622.159 547.632L618.971 542.727C618.264 541.639 617.37 540.683 616.331 539.904V539.904C615.205 539.06 613.93 538.431 612.56 538.109C611.551 537.873 610.351 537.616 609.387 537.48C604.101 536.732 595.734 538.185 595.734 538.185M599.04 520.758C599.04 520.758 596.724 522.89 595.734 525.854C594.382 529.902 595.734 538.185 595.734 538.185M577.293 538.626V538.626C573.905 539.367 570.364 538.911 567.275 537.335L555.176 531.166C552.737 529.922 550.148 528.996 547.473 528.412L504.248 518.961M504.248 518.961C504.248 518.961 490.143 533.021 480.716 541.613C466.182 554.858 442.108 573.935 442.108 573.935M1071.54 789.509L1065.37 785.481L841.066 823.017V826.291M1071.54 789.509L841.066 826.291M1071.54 789.509L1079.33 859.583L849.506 900.124L841.066 826.291M827.597 274.008L829.349 275.147C830.687 276.017 832.479 275.614 833.316 274.254V274.254C833.415 274.094 833.463 273.908 833.456 273.719L832.047 239.205C831.885 235.231 829.912 231.549 826.693 229.213L822.255 225.993M827.597 274.008C827.597 274.008 829.602 286.615 829.903 294.766C830.054 298.857 829.903 305.249 829.903 305.249M827.597 274.008L826.531 267.88C825.571 262.361 823.676 257.046 820.927 252.165V252.165M827.597 274.008L826.666 285.492C826.448 288.171 825.926 290.817 825.108 293.377L824.697 294.665C823.097 299.677 820.216 304.185 816.338 307.742L815.137 308.844C813.025 310.781 810.555 312.286 807.866 313.275V313.275C802.365 315.297 796.468 316.006 790.645 315.345L789.581 315.225C786.42 314.866 783.309 314.15 780.308 313.091L778.337 312.396C773.18 310.575 768.376 307.908 763.551 305.334C762.557 304.804 761.56 304.317 760.635 303.941C758.824 303.205 756.342 302.532 754.322 302.045C752.136 301.518 749.863 302.28 748.349 303.941V303.941M785.452 198.945L795.395 203.254C797.133 204.007 798.685 205.13 799.943 206.545L807.159 214.664C807.782 215.365 808.48 215.997 809.24 216.549L822.255 225.993M822.255 225.993V225.769C822.255 222.73 820.873 219.856 818.5 217.958L814.387 214.671L802.855 204.397L792.434 195.278C789.346 192.576 785.767 190.493 781.892 189.143L773.92 186.365L751.485 181.962L742.339 180.449M592.865 160.369L592.688 160.766V160.766C596.282 152.681 598.527 144.031 598.625 135.184C598.678 130.449 598.582 125.25 598.12 121.017C596.391 105.164 593.284 96.4125 587.219 81.6638C582.248 69.5739 579.171 62.6985 571.515 52.1031C567.452 46.4798 561.371 40.2689 555.935 35.1573C548.048 27.7413 539.326 21.2697 529.907 15.9322C522.596 11.7886 513.577 7.22451 505.927 4.99154V4.99154C483.396 -1.58537 459.503 5.46789 438.025 14.936L431.371 17.8696C415.985 24.6523 401.454 33.3088 388.859 44.4483C383.096 49.5449 377.067 55.1191 372.35 60.0503C366.733 65.9215 358.493 75.5697 358.493 75.5697L336.138 97.3707L325.702 106.266C323.608 108.05 322.192 110.5 321.689 113.205L321.362 114.961C320.673 118.669 321.103 122.499 322.598 125.962L331.149 145.776L332.94 149.486C338.395 160.784 348.317 169.292 360.315 172.958L361.449 173.305L379.091 177.739L380.665 178.083C387.94 179.676 395.487 179.406 402.714 177.608C409.169 176.002 417.303 174.161 423.739 173.305C426.119 172.988 429.847 172.596 429.847 172.596M592.865 160.369L665.31 168.123H672.434C679.52 168.123 686.559 169.266 693.281 171.506V171.506C696.574 172.604 699.949 173.44 703.374 174.006L730.218 178.445M743.53 297.747H744.636C752.167 297.747 759.588 299.557 766.273 303.024L770.566 305.249L780.77 309.144C785.315 310.879 790.186 311.599 795.039 311.255V311.255C800.18 310.891 805.167 309.341 809.609 306.728L811.695 305.501C815.254 303.408 818.252 300.483 820.434 296.977V296.977C822.119 294.269 823.282 291.269 823.863 288.132L824.266 285.953C824.808 283.028 825.081 280.06 825.081 277.085V277.085C825.081 270.49 823.741 263.963 821.143 257.901L820.954 257.461C819.932 255.077 818.731 252.774 817.359 250.573L811.939 241.876M743.53 297.747L748.349 303.941M811.939 241.876L815.679 242.846L816.774 244.789M747.719 462.36V453.656C747.719 453.161 747.658 452.667 747.537 452.187L745.696 444.899C745.238 443.086 743.961 441.59 742.242 440.853L741.088 440.359C740.471 440.094 739.814 439.935 739.144 439.889L669.259 434.995C666.025 434.769 662.973 436.517 661.533 439.422L654.089 454.434M747.719 462.36L743.89 463.053C743.062 463.203 742.417 463.855 742.275 464.684L740.185 476.89C740.165 477.002 740.156 477.115 740.156 477.228V490.122C740.156 491.227 741.051 492.122 742.156 492.122H745.131M747.719 462.36L748.897 475.42M745.131 492.122L742.511 503.748L740.015 510.338C739.069 512.836 736.585 514.408 733.922 514.193L662.989 508.477C660.571 508.283 658.373 507.002 657.011 504.995L654.323 501.034C653.424 499.708 652.943 498.143 652.943 496.542V491.073M745.131 492.122L748.897 483.771M652.943 491.073L654.089 454.434M652.943 491.073L649.172 486.795C647.627 485.042 645.852 483.505 643.896 482.227L642.099 481.052M654.089 454.434C654.089 454.434 647.479 456.75 643.07 457.39M748.897 483.771V483.771C750.163 483.771 751.19 482.745 751.19 481.479V477.713C751.19 476.447 750.163 475.42 748.897 475.42V475.42M748.897 483.771H748.028C746.348 483.771 744.996 482.392 745.028 480.713L745.074 478.362C745.106 476.728 746.439 475.42 748.073 475.42H748.897M643.07 457.39C641.157 457.668 639.031 457.722 636.849 457.63C624.197 457.095 611.694 454.195 599.04 453.721V453.721M643.07 457.39L642.099 481.052M718.619 48.175V48.175C701.257 35.1786 680.732 26.9026 659.103 25.3008C653.851 24.9118 648.677 24.5898 644.188 24.4197C635.984 24.1087 625.787 24.8278 617.074 25.7095C604.419 26.9902 592.038 30.0477 579.931 33.9496L560.978 40.058M718.619 48.175L725.759 55.2288M718.619 48.175H1147.9M748.383 100.907L746.267 90.5631C745.059 84.6603 743.018 78.9594 740.204 73.6319V73.6319C737.178 67.9037 733.293 62.6722 728.685 58.1192L725.759 55.2288M748.383 100.907L747.173 116.501C746.784 121.512 746.065 126.491 744.914 131.383C744.035 135.122 742.935 139.602 741.936 143.105C741.167 145.802 740.15 148.997 739.153 152.013C736.812 159.091 734.981 166.334 733.933 173.715L733.192 178.937M748.383 100.907L751.174 117.896C752.062 123.298 752.508 128.763 752.508 134.238V134.238C752.508 141.221 751.782 148.186 750.342 155.02L750.08 156.263C748.865 162.027 747.202 167.687 745.104 173.191L742.339 180.449M748.383 100.907L750.04 120.24V120.24C751.001 132.688 751.004 145.298 748.108 157.443C747.995 157.917 747.881 158.38 747.766 158.828C745.56 167.418 740.719 180.103 740.719 180.103M733.192 178.937L730.218 178.445M733.192 178.937L740.719 180.103M730.218 178.445L731.493 170.816C732.852 162.683 735.194 154.756 738.012 147.007C739.011 144.261 739.989 141.419 740.719 138.969C742.131 134.23 743.741 127.184 744.268 124.826C744.389 124.29 744.5 123.762 744.602 123.222C745.163 120.259 747.019 109.748 746.589 102.601C746.017 93.1183 744.401 87.7617 740.783 78.9779C736.602 68.8308 725.759 55.2288 725.759 55.2288M742.339 180.449L740.719 180.103M839.937 369.564L823.132 377.268L831.79 393.775L888.356 367.255M839.937 369.564L943.175 322.233L903.198 257.824L921.183 251.728L968.735 329.571L888.356 367.255M839.937 369.564L791.329 375.623L808.097 428.281L898.745 404.552L888.356 367.255M896.144 642.492L879.427 666.845C873.034 676.159 867.552 686.066 863.058 696.431L858.498 706.945C855.433 714.015 853.127 721.374 851.539 728.914C848.468 743.495 842.897 769.124 837.96 787.465C832.062 809.376 820.138 841.568 815.963 852.637C814.979 855.246 813.782 857.757 812.395 860.176L797.584 886.002C797.024 886.979 795.983 887.582 794.856 887.582V887.582C793.291 887.582 791.963 886.43 791.743 884.88L790.222 874.202C790.061 873.068 790.025 871.92 790.115 870.778L791.377 854.812C791.877 848.495 792.801 842.218 794.311 836.064C795.62 830.729 797.338 824.093 798.953 818.996C802.201 808.746 808.343 794.268 810.429 789.434C810.905 788.331 811.361 787.231 811.798 786.113L823.332 756.585L838.694 721.299C840.781 716.505 842.523 711.569 843.908 706.528L850.962 680.848V680.848C852.892 668.314 852.243 655.518 849.055 643.244L848.596 641.478C847.187 636.054 847.792 630.303 850.298 625.291L850.962 623.964L849.996 622.185M896.144 642.492L903.946 635.991L906.871 629.164L908.496 618.113L920.198 609.986H908.496L915.973 605.11L913.372 601.21L922.149 588.858L915.973 591.133L923.774 578.743L920.198 570.98L922.149 565.048H931.25L923.774 559.421L933.851 554.077H923.774L927.024 544.976L935.476 531.973L937.426 522.872H931.25L937.426 516.371V510.845V505.969L941.977 498.168H937.426L941.977 477.058L937.426 475.42L944.577 470.863L941.977 465.988L948.803 451.36L944.577 452.91L946.853 442.022L948.803 434.457L941.977 437.058L931.25 413.979L915.973 428.281L914.022 418.855L907.196 434.457V430.882L900.37 439.959L891.594 459.487L887.693 455.586L884.768 475.42L879.567 492.122L874.691 486.791L872.741 505.969L869.165 500.118V510.845L864.289 534.249H862.014V547.576L853.887 543.025L862.014 559.421H856.813L853.887 578.743L846.411 576.831L850.962 591.133H844.461L846.411 605.11L838.61 601.21L849.996 622.185M896.144 642.492H877.616L879.567 633.065L866.24 637.941L849.996 622.185M1002.6 510.845L985.596 535.899C985.416 536.165 985.303 536.464 985.273 536.784C985.016 539.543 984.036 553.478 989.777 559.421C994.769 564.589 1002.57 567.269 1005.27 568.081C1005.88 568.262 1006.52 568.118 1007.01 567.721L1035.19 544.842M1002.6 510.845L1010.46 504.763C1014.36 501.752 1019.14 500.118 1024.06 500.118V500.118C1028.81 500.118 1033.43 501.641 1037.26 504.462L1037.9 504.934C1045.1 510.255 1048.51 519.316 1046.59 528.068V528.068C1045.71 532.111 1043.73 535.836 1040.88 538.839L1035.19 544.842M1002.6 510.845V510.845C996.359 521.202 999.217 534.627 1009.14 541.544L1010.38 542.413C1016.31 546.544 1023.75 547.863 1030.73 546.019L1035.19 544.842M993.244 703.982L989.327 705.777C987.679 706.533 986.463 707.996 986.022 709.754V709.754C984.749 714.823 981.809 719.317 977.675 722.514L976.489 723.431C973.853 725.469 970.957 727.148 967.878 728.422L965.154 729.549C961.517 731.054 957.62 731.828 953.684 731.828H937.897L936.066 731.994C920.991 733.358 906.133 736.519 891.808 741.409L882.435 744.609M993.244 703.982L1003.59 762.898M993.244 703.982L998.336 702.698M1030.66 694.545L1076.29 678.315C1077.93 677.731 1079.72 678.664 1080.19 680.343L1094.28 731.358C1094.7 732.874 1093.87 734.456 1092.39 734.983L1042.65 752.689M1030.66 694.545L1042.65 752.689M1030.66 694.545L1019.47 697.367M883.747 765.561L869.815 768.224L863.606 770.339C862.541 770.702 861.424 770.887 860.299 770.887V770.887C856.376 770.887 852.772 768.597 851.054 765.07V765.07C850.364 763.654 849.996 762.079 849.996 760.504V755.315C849.996 753.615 850.573 751.965 851.633 750.636V750.636C853.058 748.848 855.219 747.807 857.505 747.807H866.803C868.805 747.807 870.8 747.583 872.752 747.138L879.567 745.588L882.435 744.609M883.747 765.561L908.785 764.844V764.844C919.498 764.033 930.048 761.745 940.134 758.044L944.111 756.585L956.123 751.513C958.462 750.526 960.916 749.839 963.428 749.47L967.375 748.889C972.238 748.174 977.193 748.392 981.975 749.53V749.53C983.361 749.86 984.724 750.286 986.027 750.864C986.787 751.202 987.633 751.595 988.299 751.953C991.317 753.576 994.39 756.67 996.327 758.835C997.682 760.351 999.374 761.553 1001.31 762.171L1003.59 762.898M883.747 765.561L882.435 744.609M1003.59 762.898L1010 761.222M1042.65 752.689L1032.16 755.43M998.336 702.698L1010 761.222M998.336 702.698L1019.47 697.367M1010 761.222L1032.16 755.43M1019.47 697.367L1032.16 755.43M1286.07 723.127V783.061C1286.07 849.335 1232.34 903.061 1166.07 903.061H428.761L429.048 892.184M1286.07 723.127L1153.86 694.545L1201.59 465.988L1286.07 492.32M1286.07 723.127V492.32M1286.07 492.32V407.671M1147.9 48.175H1286.07V231.006M1147.9 48.175L1175.68 279.29M1286.07 407.671L1186.01 391L1181.56 342.882M1286.07 407.671V292.458M1286.07 231.006L1280.87 233.279M1286.07 231.006V256.965M1076.34 384.267L1076.02 379.572M1076.34 384.267L1085.09 380.436M1076.34 384.267H1079.86L1108.12 372.723M1286.07 292.458L1268.5 300.149M1286.07 292.458V256.965M1286.07 292.458L1227.07 319.355M1073.23 338.306L1072.3 324.513L1080.96 320.725M1073.23 338.306L1052.67 345.874V387.731M1073.23 338.306L1076.02 379.572M1052.67 387.731L1076.02 379.572M1052.67 387.731L1080.96 394.082L1118.77 376.473M1118.77 376.473L1137.6 378.694C1142.21 379.238 1146.75 377.286 1149.53 373.574L1149.95 373.009C1151.64 370.76 1152.55 368.027 1152.55 365.218V357.88M1118.77 376.473L1108.12 372.723M1085.09 380.436L1080.96 320.725M1085.09 380.436L1092.56 377.168M1080.96 320.725L1088.03 317.63M1092.56 377.168L1088.03 317.63M1092.56 377.168L1102.17 372.959M1088.03 317.63L1096.89 313.755M1102.17 372.959L1105.12 371.667L1112.45 368.458M1102.17 372.959L1096.89 313.755M1096.89 313.755L1107.1 309.291M1112.45 368.458L1107.1 309.291M1112.45 368.458L1122.73 363.958M1107.1 309.291L1117 304.959M1122.73 363.958L1117 304.959M1122.73 363.958L1134.44 358.834M1117 304.959L1128 300.149M1134.44 358.834L1128 300.149M1134.44 358.834L1147.01 353.333M1128 300.149L1140.34 294.751M1147.01 353.333L1152.55 350.907L1160.24 347.539M1147.01 353.333L1140.34 294.751M1140.34 294.751L1152.55 289.41M1160.24 347.539L1152.55 289.41M1160.24 347.539L1175.12 341.024M1152.55 289.41L1167.87 282.708M1175.12 341.024L1167.87 282.708M1175.12 341.024L1191.17 333.998M1167.87 282.708L1175.68 279.29M1191.17 333.998L1183.5 275.872M1191.17 333.998L1208.66 326.342M1183.5 275.872L1199.13 269.036M1183.5 275.872L1175.68 279.29M1208.66 326.342L1199.13 269.036M1208.66 326.342L1226 318.753M1199.13 269.036L1217.63 260.941M1226 318.753L1217.63 260.941M1226 318.753L1247.62 309.291M1217.63 260.941L1237.04 252.449M1247.62 309.291L1237.04 252.449M1247.62 309.291L1268.5 300.149M1237.04 252.449L1258.47 243.076M1258.47 243.076L1268.5 300.149M1258.47 243.076L1280.87 233.279M1280.87 233.279L1286.07 256.965M523.294 232.213V224.937M242.266 560.962L269.737 562.941C277.706 563.515 285.692 562.09 292.972 558.796L342.525 536.375C354.825 530.809 364.213 520.32 368.387 507.48L373.163 492.784M242.266 560.962L244.116 563.815M373.163 492.784L341.69 426.214L344.064 424.485L341.69 412.877L343.721 394.153M153.34 467.64L173.222 448.71M173.222 448.71L200.171 493.16M530.515 326.989V326.989C530.515 323.066 529.443 319.218 527.414 315.86L526.43 314.23C524.368 310.817 521.541 307.93 518.172 305.796V305.796C514.036 303.178 509.242 301.814 504.355 301.538C498.953 301.232 491.331 300.551 483.899 299.035C476.054 297.435 467.11 295.078 460.921 293.363M530.515 326.989C530.515 326.989 523.971 310.618 514.423 306.88C508.28 304.475 501.51 305.409 494.982 304.461C481.137 302.451 460.921 293.363 460.921 293.363M381.263 513.999C381.263 513.999 384.817 529.312 385.136 539.304C385.758 558.8 375.027 588.217 375.027 588.217M348.105 610.204V610.204C362.604 608.635 376.729 604.598 389.868 598.268L398.217 594.245C408.371 589.353 418.049 583.526 427.124 576.84L431.066 573.935M816.774 244.789V244.789C818.314 244.789 819.641 245.873 819.949 247.381L820.927 252.165M816.774 244.789L820.927 252.165M608.586 662.088L579.299 675.82C575.939 677.396 572.464 678.716 568.905 679.771L537.506 689.075C535.664 689.62 533.694 688.78 532.814 687.073L530.709 682.99C529.71 681.053 530.446 678.672 532.364 677.637L560.655 662.365C564.237 660.431 567.973 658.796 571.824 657.477L601.522 647.302M608.586 662.088L601.522 647.302M608.586 662.088L611.534 659.827C612.391 659.171 612.621 657.977 612.07 657.049V657.049M601.522 647.302L604.304 646.148C604.898 645.901 605.583 646.129 605.911 646.682V646.682M605.911 646.682L615.661 642.794C616.081 642.627 616.56 642.762 616.831 643.123L617.173 643.578M605.911 646.682L612.07 657.049M612.07 657.049L621.585 651.294C622.091 650.987 622.222 650.311 621.867 649.838L621.175 648.915M617.173 643.578L651.012 630.066L676.129 616.937M617.173 643.578L621.175 648.915M621.175 648.915L653.064 637.892L676.878 630.066M676.129 616.937L679.236 615.312L680.391 628.912L676.878 630.066M676.129 616.937L676.878 630.066M433.749 713.851L414.597 710.996C414.004 710.908 413.467 711.358 413.45 711.957L408.61 885.396C408.597 885.85 408.892 886.255 409.327 886.383L429.048 892.184M433.749 713.851L433.505 723.127M429.048 892.184L429.206 886.166M429.206 886.166L414.19 881.306C413.77 881.17 413.488 880.774 413.498 880.332L417.03 720.991C417.044 720.368 417.618 719.909 418.228 720.033L433.505 723.127M429.206 886.166L433.505 723.127M1152.55 353.333L1108.12 372.723M1152.55 353.333V357.88M1152.55 353.333L1227.07 319.355M1152.55 357.88L1181.56 342.882M1227.07 319.355L1181.56 342.882M518.352 811.736L515.569 810.052L498.095 797.65L494.648 803.802C492.068 808.406 486.584 810.533 481.659 808.636C475.936 806.43 468.585 803.33 463.71 800.287C456.5 795.786 451.086 787.134 448.716 782.848C447.807 781.205 447.467 779.331 447.6 777.457L447.843 774.042C448.219 768.771 452.288 764.512 457.537 763.897L459.499 763.668C462.209 763.35 464.94 764.052 467.162 765.635L472.83 769.675L493.588 786.239L508.619 797.555C510.944 799.304 513.867 800.062 516.749 799.662L519.797 799.238V795.261C519.797 792.431 518.706 789.71 516.752 787.663L509.733 780.314L493.52 765.776C489.098 761.811 484.863 757.599 481.554 752.667C480.143 750.565 478.765 748.282 477.866 746.236C477.065 744.414 476.382 742.183 475.821 739.979C474.377 734.302 477.295 728.569 482.389 725.676V725.676C485.291 724.029 488.687 723.411 491.909 724.279C494.413 724.953 497.419 725.92 499.862 727.173C505.343 729.984 510.527 736.843 513.604 741.519C515.567 744.5 516.075 748.154 515.335 751.646L515.198 752.292C514.509 755.541 512.762 758.47 510.23 760.619L506.02 764.193C505.449 764.677 505.12 765.388 505.12 766.136V766.136C505.12 766.792 505.373 767.423 505.826 767.898L534.264 797.65L544.329 808.883L619.51 859.259C626.508 863.948 632.91 869.47 638.576 875.703L639.229 876.42L558.897 832.26L620.23 897.994V897.994C608.582 891.573 597.887 883.557 588.455 874.18L538.586 824.603M518.352 811.736L536.99 823.017L538.586 824.603M518.352 811.736L517.068 807.462C516.206 804.592 517.566 801.521 520.271 800.231V800.231C522.013 799.4 524.044 799.444 525.736 800.373C528.275 801.767 532.107 803.912 534.979 805.699C538.5 807.889 541.044 808.789 544.329 811.319C545.697 812.373 547.377 813.699 548.853 814.872C550.965 816.549 551.637 819.457 550.493 821.9V821.9C549.434 824.162 547.056 825.504 544.572 825.24L538.586 824.603M1054.34 206.615L1039.16 178.042C1038.94 177.625 1038.45 177.42 1038 177.551L956.4 201.123M1054.34 206.615C1054.34 206.615 1052.52 206.721 1051.36 206.615C1046.81 206.198 1041.65 201.499 1039.64 199.499C1039.1 198.961 1038.31 198.739 1037.58 198.948L949.993 224.005L957.775 240.767M1054.34 206.615L958.917 243.227L957.775 240.767M956.4 201.123L944.501 210.276M956.4 201.123L948.849 213.251L944.501 210.276M944.501 210.276V210.276C944.501 215.284 945.655 220.225 947.873 224.715L949.993 229.006L957.775 240.767M757.875 565.048L814.222 612.592L670.271 780.314L611.71 728.369L757.875 565.048ZM458.477 788.436C456.905 786.977 455.33 785.293 453.784 783.478C447.306 775.87 455.797 766.59 464.803 770.92V770.92C465.4 771.207 465.969 771.551 466.501 771.947L487.116 787.295C489.083 788.759 490.343 790.983 490.589 793.423V793.423C490.995 797.447 488.556 801.232 484.735 802.558V802.558C482.373 803.377 479.763 803.164 477.613 801.889C472.793 799.032 463.945 793.511 458.477 788.436ZM798.874 293.884V293.884C795.62 297.788 789.46 296.94 786.894 292.554L784.193 287.939C783.831 287.319 783.968 286.528 784.518 286.067L791.73 280.017C792.532 279.345 793.716 279.404 794.447 280.152L796.201 281.95C798.355 284.156 799.995 286.946 799.909 290.029C799.868 291.517 799.609 293.003 798.874 293.884ZM1195.04 294.127L1195.18 294.314C1196 295.438 1195.8 297.01 1194.72 297.887C1193.37 298.978 1191.36 298.482 1190.67 296.891L1190.58 296.678C1190.28 295.977 1190.3 295.179 1190.64 294.497C1191.51 292.767 1193.9 292.566 1195.04 294.127ZM1150.15 301.198L1150.29 301.385C1151.11 302.509 1150.91 304.081 1149.83 304.959C1148.48 306.049 1146.47 305.553 1145.78 303.962L1145.69 303.749C1145.39 303.048 1145.41 302.25 1145.75 301.568C1146.62 299.838 1149.01 299.637 1150.15 301.198ZM1125.81 311.929L1125.95 312.117C1126.77 313.24 1126.57 314.813 1125.49 315.69C1124.14 316.781 1122.13 316.285 1121.44 314.694L1121.35 314.481C1121.05 313.78 1121.07 312.982 1121.41 312.299C1122.28 310.57 1124.67 310.369 1125.81 311.929ZM1105 321.748L1105.14 321.936C1105.96 323.059 1105.76 324.632 1104.68 325.509C1103.33 326.6 1101.32 326.103 1100.63 324.513L1100.54 324.3C1100.24 323.599 1100.26 322.801 1100.6 322.118C1101.47 320.389 1103.86 320.188 1105 321.748ZM1252.08 256.224L1252.21 256.411C1253.04 257.535 1252.83 259.107 1251.75 259.984C1250.41 261.075 1248.39 260.579 1247.71 258.988L1247.62 258.775C1247.31 258.074 1247.34 257.276 1247.68 256.594C1248.54 254.864 1250.93 254.663 1252.08 256.224ZM1087.43 330.228L1087.57 330.415C1088.39 331.539 1088.19 333.111 1087.11 333.989C1085.76 335.08 1083.75 334.583 1083.06 332.993L1082.97 332.779C1082.67 332.079 1082.69 331.28 1083.03 330.598C1083.9 328.869 1086.29 328.668 1087.43 330.228ZM1189.21 284.897L1189.31 285.11C1189.99 286.701 1192.01 287.197 1193.35 286.106V286.106C1194.43 285.229 1194.64 283.657 1193.81 282.533L1193.68 282.346C1192.53 280.785 1190.14 280.986 1189.28 282.716V282.716C1188.94 283.398 1188.91 284.196 1189.21 284.897ZM539.23 815.053V815.053C538.09 815.053 537.252 816.121 537.524 817.228L537.559 817.374C537.714 818.004 538.207 818.496 538.837 818.649V818.649C539.931 818.915 540.986 818.086 540.986 816.96V816.81C540.986 815.839 540.2 815.053 539.23 815.053ZM876.396 754.832V754.832C877.36 752.856 880.185 752.88 881.114 754.873L881.254 755.173C881.759 756.256 881.444 757.544 880.495 758.272V758.272C879.514 759.024 878.133 758.963 877.222 758.127L876.978 757.904C876.126 757.122 875.889 755.872 876.396 754.832ZM1016.14 526.427L1016.44 527.133C1017.87 530.517 1021.36 532.555 1025.01 532.14V532.14C1030.25 531.544 1033.62 526.273 1031.95 521.269L1031.71 520.542C1029.71 514.543 1022.01 512.872 1017.71 517.502V517.502C1015.47 519.907 1014.85 523.403 1016.14 526.427ZM503.794 735.986L506.966 740.542C508.737 743.085 509.423 746.228 508.873 749.278L508.555 751.039C507.659 756.004 503.11 759.457 498.087 758.985V758.985C495.234 758.717 492.646 757.203 491.013 754.848L484.684 745.72C483.392 743.856 482.79 741.6 482.983 739.341V739.341C483.514 733.109 489.696 728.985 495.654 730.888L497.824 731.581C500.244 732.353 502.342 733.902 503.794 735.986Z" stroke="#565B62" stroke-width="4" stroke-linecap="round" stroke-linejoin="round"/>
</svg>
