<svg width="1287" height="904" viewBox="0 0 1287 904" fill="none" xmlns="http://www.w3.org/2000/svg">
<path d="M367.965 64.238C367.965 64.238 337.392 50.0058 319.906 38.785C315.232 35.7852 309.634 31.8074 304.724 28.2106C296.874 22.4599 287.121 19.8383 277.486 21.2041L246.888 25.5415C244.577 25.869 242.24 25.9711 239.909 25.8462L238.482 25.7698C232.191 25.4327 225.932 26.7361 220.382 29.7171C207.896 36.4235 184.457 49.6029 169.505 61.6527C138.972 86.258 127.42 106.339 104.296 138.008C87.0291 161.656 77.4541 175.183 63.5909 200.974C53.8575 219.082 49.2811 229.719 41.3302 248.677C30.8168 273.746 24.6817 287.89 17.7975 314.187C12.8632 333.036 9.62121 343.723 8.25725 363.16C7.47485 374.309 7.36651 388.959 6.58891 405.482C6.05742 416.775 5.42451 423.092 5.07716 434.392C4.58112 450.53 4.06416 465.944 2.78246 486.126C2.60013 488.997 2.37198 492.274 2.13286 495.568C1.20979 508.283 4.36727 520.973 11.2731 531.689L15.2299 537.828C17.7807 541.786 20.804 545.419 24.233 548.646L65.7461 587.714L79.172 600.35M333.757 98.7831L314.182 92.2105M314.182 92.2105L313.95 92.443C303.374 103.019 296.563 116.775 294.563 131.597V131.597C293.895 136.547 293.772 141.554 294.196 146.531L295.184 158.116C296.814 177.225 301.593 195.934 309.326 213.484L314.182 224.502L328.206 250.616C331.142 256.083 334.74 261.167 338.92 265.753V265.753M314.182 92.2105C314.182 92.2105 312.76 87.9653 310.804 86.0327C309.492 84.7362 307.605 84.1499 305.556 83.982M346.619 270.296C349.897 271.456 355.523 270.296 355.523 270.296M346.619 270.296C343.291 269.118 338.92 265.753 338.92 265.753M346.619 270.296L345.699 273.916C344.237 279.666 339.059 283.691 333.126 283.691V283.691C328.887 283.691 324.932 281.644 322.567 278.126C313.033 263.948 288.133 225.672 278.29 198.517C273.342 184.864 269.265 167.13 266.313 152.008C262.425 132.095 269.092 111.81 283.059 97.0944L285.122 94.9211C290.675 89.0705 297.517 83.3233 305.556 83.982V83.982M355.523 270.296L346.619 325.315L340.763 363.488L343.665 390.722M355.523 270.296V264.572M355.523 270.296L351.905 277.618C348.451 284.609 343.402 291.642 335.739 293.085V293.085C325.325 295.047 313.125 283.144 308.009 277.495C306.32 275.631 304.855 273.611 303.48 271.504C296.552 260.887 274.21 225.477 266.196 198.517C263.013 187.81 259.449 175.658 256.103 164.182C248.26 137.282 256.198 108.284 276.557 89.0319V89.0319C281.819 84.056 289.051 81.7315 296.227 82.71L305.556 83.982M338.92 265.753L355.523 264.572M355.523 264.572L362.826 260.612M362.826 260.612L378.938 270.296L384.923 274.207C389.17 276.983 392.849 280.541 395.766 284.691L405.652 298.758L409.872 303.055C412.851 306.088 416.677 308.15 420.849 308.969V308.969C423.454 309.481 426.132 309.496 428.742 309.013L431.925 308.425C438.286 307.25 444.008 303.817 448.04 298.758V298.758M362.826 260.612C362.826 260.612 370.944 254.722 376.43 254.135M448.04 298.758L452.874 290.898M448.04 298.758C448.04 298.758 461.798 306.406 471.284 309.743C479.001 312.458 485.129 315.776 493.195 317.145C501.969 318.634 510.809 318.485 519.425 320.715C523.517 321.774 528.327 325.303 530.117 326.711M452.874 290.898L475.968 280.737L491.25 271.786M452.874 290.898C452.874 290.898 455.944 291.816 460.523 293.085M491.25 271.786C491.25 271.786 476.564 263.372 472.827 254.135C470.535 248.469 470.155 244.694 470.795 238.615V238.615C471.947 227.67 480.729 219.366 488.964 212.063L490.134 211.026C494.036 207.565 498.842 205.307 503.937 204.196C509.668 202.946 517.374 200.986 522.896 198.517C524.828 197.654 526.987 196.507 529.095 195.303C536.107 191.297 541.166 184.7 544.086 177.171L552.428 155.665C553.41 153.133 555.122 150.948 557.346 149.389V149.389C564.459 144.402 574.316 146.562 578.691 154.068L579.288 155.093C581.147 158.282 581.6 162.099 580.539 165.635V165.635M491.25 271.786L501.67 264.478L504.99 260.939M504.99 260.939H509.12C510.56 260.939 511.885 261.727 512.573 262.993V262.993C513.088 263.941 513.97 264.636 515.013 264.914L515.326 264.997C516.722 265.369 518.211 265.076 519.362 264.203L520.621 263.248C522.091 262.133 523.124 260.543 523.544 258.746C524.523 254.554 526.407 246.485 527.754 240.714M504.99 260.939C504.99 260.939 511.627 254.445 513.38 249.035C514.917 244.288 514.025 236.275 514.025 236.275M527.754 240.714C530.114 234.771 533.796 225.495 533.796 225.495L536.937 220.507M527.754 240.714C528.043 240.769 528.337 240.822 528.636 240.876C542.226 243.302 556.158 241.823 569.598 238.672L617.483 227.446C622.4 226.293 627.37 225.424 632.39 224.875C641.363 223.893 656.233 222.336 664.912 221.8C675.254 221.161 686.282 221.438 691.707 221.646C693.892 221.73 695.928 222.742 697.346 224.407L703.282 231.377L710.54 240.04C714.331 244.564 718.974 248.299 724.206 251.03L739.974 259.263L744.056 261.453C750.696 265.014 756.916 269.307 762.601 274.253L765.135 276.457L776.877 289.247L783.493 295.201C785.983 297.442 789.214 298.682 792.564 298.682H794.402C796.486 298.682 798.501 297.929 800.073 296.561V296.561C801.613 295.223 802.629 293.383 802.942 291.368L803.18 289.838C803.66 286.753 803.003 283.6 801.332 280.963L799.717 278.415C798.891 277.112 797.944 275.89 796.889 274.766L791.386 268.897C788.399 265.712 785.012 262.928 781.309 260.614L781.071 260.465C775.244 256.823 770.244 252.001 766.393 246.309L766.057 245.811C765.229 244.588 766.535 242.93 767.861 242.28V242.28C770.141 241.161 770.167 236.199 770.167 236.199V233.391C770.167 232.944 770.462 232.552 770.895 232.443C772.636 232.005 777.122 230.997 780.232 231.377V231.377C786.052 232.089 791.675 234.312 797.539 234.312H799.102L804.495 238.259C806.612 239.807 809.002 240.941 811.541 241.599V241.599M536.937 220.507L537.804 220.404C542.201 219.88 546.185 217.558 548.807 213.989L551.348 210.53M536.937 220.507H535.273C534.301 220.507 533.342 220.728 532.468 221.153L531.49 221.63C531.26 221.742 531.007 221.8 530.751 221.8H529.711C529.353 221.8 529.063 222.09 529.063 222.448V222.448C529.063 222.806 528.772 223.096 528.414 223.096H526.634C526.202 223.096 525.852 223.446 525.852 223.878V223.878C525.852 224.31 525.502 224.66 525.07 224.66H522.896M551.348 210.53L559.477 195.195V195.195C561.183 190.931 563.759 187.07 567.042 183.859L567.799 183.118C569.637 181.321 571.287 179.341 572.725 177.211L580.539 165.635M551.348 210.53L543.29 215.492C541.267 216.738 538.992 217.517 536.63 217.774L531.722 218.307C529.979 218.497 528.318 219.14 526.902 220.173V220.173M580.539 165.635L586.355 170.664C586.863 171.104 587.65 170.928 587.923 170.314L592.466 160.092M431.843 177.462C431.843 177.462 436.081 177.134 438.763 177.462C442.656 177.937 445.039 178.332 448.362 180.415C449.827 181.333 451.48 182.964 452.558 184.109C453.086 184.67 452.773 185.584 452.026 185.775C450.879 186.068 449.39 186.528 448.362 187.132C446.396 188.289 446.334 190.595 444.121 191.15C440.789 191.986 435.861 191.15 435.861 191.15L439.732 188.748C441.268 187.794 442 185.917 441.297 184.251C441.063 183.696 440.805 183.148 440.538 182.695V182.695C439.528 180.978 437.793 179.844 435.943 179.104L431.843 177.462ZM431.843 177.462L424.052 185.397C424.052 185.397 411.803 195.96 413.314 204.321C413.778 206.887 415.77 210.53 415.77 210.53M438.763 215.93V215.93C436.021 216.871 432.981 216.032 431.111 213.816L428.985 211.298C427.814 209.911 426.978 208.273 426.541 206.512L425.415 201.973C425.007 200.328 425.232 198.582 426.041 197.091V197.091C427.817 193.816 431.917 192.576 435.2 194.34L436.104 194.826C437.742 195.706 438.763 197.414 438.763 199.273V202.202C438.763 203.373 437.815 204.321 436.644 204.321V204.321C435.576 204.321 434.675 205.116 434.542 206.176L434.454 206.874C434.308 208.034 434.868 209.168 435.877 209.757L437.201 210.53M431.115 225.767L428.753 232.882C428.081 234.907 426.186 236.275 424.052 236.275V236.275V236.275C419.98 236.275 416.275 233.919 414.547 230.231L410.75 222.123V222.123C406.389 214.812 405.663 205.892 408.784 197.971L409.102 197.162C410.194 194.391 411.703 191.803 413.576 189.487L419.744 181.864C422.607 178.325 425.863 175.122 429.449 172.319V172.319M79.172 600.35C79.172 600.35 111.705 611.071 132.966 609.571C148.069 608.507 157.051 607.061 170.622 600.35C187.198 592.152 194.091 583.012 205.972 568.842C215.438 557.552 226.721 537.334 226.721 537.334M79.172 600.35C79.172 600.35 99.3431 615.506 113.627 622.887C146.602 639.927 208.25 647.679 208.25 647.679C208.25 647.679 244.765 652.314 268.295 652.883C277.444 653.105 282.588 653.312 291.73 652.883C311.51 651.955 322.123 646.734 341.879 645.384C358.68 644.236 379.248 641.829 403.197 642.766C415.707 643.255 435.149 645.384 435.149 645.384M226.721 537.334L241.867 560.685M226.721 537.334L199.773 492.883M435.149 645.384L441.709 573.658M435.149 645.384L433.351 713.574M343.665 390.722V390.722C327.02 382.111 307.3 381.799 290.39 389.879L226.721 420.303L190.923 436.205C184.217 439.184 178.09 443.323 172.824 448.432V448.432M343.665 390.722V390.722C327.291 379.342 306.117 377.477 288.006 385.819L195.248 428.547C185.661 432.963 176.795 438.799 168.949 445.858L148.518 464.24L158.99 473.715C166.487 480.498 175.396 485.53 185.074 488.449V488.449L199.773 492.883M343.665 390.722L343.323 393.876M458.55 437.121C458.55 437.121 432.578 424.612 417.378 420.303C402.179 415.994 395.512 415.349 381.967 410.667C366.415 405.291 343.323 393.876 343.323 393.876M374.628 496.449V496.449C381.031 506.043 382.821 517.993 379.511 529.042L379.276 529.827C376.293 539.786 369.589 548.214 360.557 553.362L347.706 560.685L338.169 565.92C323.09 574.197 306.383 579.077 289.219 580.218L287.979 580.3M374.628 496.449C374.628 496.449 400.912 488.943 417.378 483.022C432.303 477.655 440.31 476.245 454.157 468.512M374.628 496.449L372.765 492.507M374.628 496.449L369.528 510.898C365.168 523.25 355.949 533.283 344.011 538.671L292.946 561.718C285.43 565.11 277.167 566.509 268.953 565.779L243.717 563.538M454.157 468.512C472.099 458.493 480.511 448.333 496.168 435.023C505.389 427.184 517.615 416.062 525.009 409.27C529.306 405.323 534.452 402.416 540.062 400.813V400.813M454.157 468.512L476.229 311.613M540.062 400.813C540.062 400.813 553.09 382.219 564.143 373.074C571.088 367.329 575.603 364.885 583.347 360.272C592.221 354.986 597.583 352.706 606.818 348.079C615.652 343.653 619.87 338.803 629.597 337.064C634.423 336.201 641.458 336.652 644.543 336.916C645.571 337.004 646.564 337.295 647.491 337.748L647.621 337.811M540.062 400.813C540.062 400.813 533.512 387.131 531.527 377.725C529.448 367.869 530.117 351.969 530.117 351.969V326.711M750.389 316.073L754.047 311.5L747.95 303.664M750.389 316.073H748.771C748.234 316.073 747.707 316.217 747.244 316.49L736.012 323.127C735.099 323.667 734.538 324.649 734.538 325.71V330.399M750.389 316.073L750.869 316.136C757.972 317.076 765.003 318.778 771.425 321.956V321.956C772.275 322.376 773.193 322.854 774.134 323.36C781.003 327.053 788.5 329.525 796.286 329.966V329.966C801.291 330.25 806.283 329.219 810.766 326.975L811.08 326.818C814.796 324.958 818.086 322.348 820.741 319.151L822.275 317.305C823.875 315.379 825.257 313.282 826.397 311.053L829.505 304.972M734.538 330.399L745.512 342.897L726.427 354.649L703.751 366.978M734.538 330.399C734.538 330.399 742.056 323.844 747.95 321.956C750.27 321.213 754.047 320.645 754.047 320.645M703.751 366.978L704.785 369.059C705.537 370.574 705.8 372.286 705.538 373.957V373.957C705.3 375.479 704.635 376.902 703.623 378.062L701.416 380.591C700.073 382.13 698.499 383.452 696.752 384.51L690.231 388.457M703.751 366.978H702.456M754.047 320.645L787.272 346.25V350.822M754.047 320.645V320.645C756.535 320.645 759.014 320.976 761.389 321.72C763.428 322.358 765.948 323.198 767.861 323.998C768.593 324.304 769.374 324.663 770.173 325.051C776.724 328.23 783.507 331.01 790.691 332.197L791.947 332.404C793.778 332.707 795.632 332.859 797.488 332.859H800.505C805.223 332.859 809.863 331.656 813.987 329.365V329.365C817.307 327.52 820.214 325.013 822.527 322L822.619 321.88C824.813 319.021 826.445 315.771 827.427 312.303L829.505 304.972M787.272 350.822L677.841 434.343M787.272 350.822L790.93 358.138L687.596 436.477M287.979 580.3L280.171 580.819C274.781 581.177 269.374 580.475 264.255 578.753L262.606 578.198C254.836 575.583 248.179 570.416 243.717 563.538V563.538M287.979 580.3L308.016 597.663C314.129 602.959 321.007 607.3 328.419 610.537L335.411 613.591C340.916 615.995 346.857 617.236 352.864 617.236V617.236C358.525 617.236 364.131 616.143 369.335 613.917C378.269 610.095 392.908 603.626 403.197 598.033C418.835 589.532 441.709 573.658 441.709 573.658M555.608 473.361L537.319 486.468L531.527 492.043M555.608 473.361L569.02 462.082C569.02 462.082 576.902 457.573 582.432 455.986C586.383 454.852 592.796 454.157 592.796 454.157L598.641 453.444M555.608 473.361L598.641 474.757L637.517 479.713L641.7 480.774M690.231 388.457L689.364 391.818C688.228 396.228 685.462 400.042 681.625 402.494L664.956 413.143C662.948 414.426 661.214 416.096 659.856 418.054L651.524 430.068C648.21 434.847 643.577 438.56 638.191 440.754L629.984 444.098L615.658 448.365L611.491 450.081C607.378 451.774 603.056 452.906 598.641 453.444V453.444M690.231 388.457V388.457C687.89 387.248 685.107 387.259 682.775 388.486L646.851 407.394M702.456 366.978V366.978C696.88 370.764 690.723 373.613 684.228 375.414L666.555 380.315C661.847 381.621 657.043 382.554 652.189 383.104L639.011 384.6M702.456 366.978L702.927 364.779C703.449 362.338 702.859 359.792 701.317 357.829V357.829C699.661 355.721 697.098 354.53 694.419 354.623L667.456 355.56L643.236 357.729L629.815 360.207C627.226 360.685 624.591 360.861 621.962 360.731L612.677 360.272L732.215 283.439L743.131 297.47M531.527 492.043L556.442 503.232C559.554 504.629 562.869 505.52 566.261 505.871L577.386 507.021C580.38 507.331 582.814 509.571 583.371 512.528V512.528M531.527 492.043L503.85 518.684M583.371 512.528L596.154 517.022M583.371 512.528C583.371 512.528 578.264 519.001 576.894 523.939C575.391 529.362 576.894 538.348 576.894 538.348M596.154 517.022C596.154 517.022 593.141 522.011 592.286 525.576C591.228 529.991 592.286 537.202 592.286 537.202M596.154 517.022L598.641 520.48M592.286 537.202L595.336 537.908M592.286 537.202L576.894 538.348M598.641 520.48C598.641 520.48 599.989 522.727 601.129 523.939C603.527 526.49 608.444 528.122 610.58 528.738C611.264 528.935 611.959 529.077 612.66 529.202L617.037 529.978C620.146 530.53 623.339 530.373 626.38 529.52L628.178 529.015L736.382 559.144L731.961 578.466L621.76 547.354L618.573 542.45C617.865 541.362 616.972 540.406 615.933 539.627V539.627C614.807 538.782 613.532 538.153 612.161 537.832C611.153 537.596 609.953 537.338 608.988 537.202C603.702 536.455 595.336 537.908 595.336 537.908M598.641 520.48C598.641 520.48 596.326 522.613 595.336 525.576C593.983 529.624 595.336 537.908 595.336 537.908M576.894 538.348V538.348C573.506 539.09 569.966 538.634 566.876 537.058L554.777 530.888C552.338 529.645 549.75 528.719 547.075 528.134L503.85 518.684M503.85 518.684C503.85 518.684 489.745 532.744 480.317 541.336C465.784 554.581 441.709 573.658 441.709 573.658M1071.14 789.231L1064.97 785.204L840.667 822.739V826.013M1071.14 789.231L840.667 826.013M1071.14 789.231L1078.93 859.305L849.107 899.846L840.667 826.013M827.198 273.731L828.95 274.87C830.289 275.74 832.081 275.336 832.918 273.977V273.977C833.016 273.817 833.065 273.63 833.057 273.442L831.649 238.928C831.486 234.953 829.514 231.272 826.294 228.936L821.857 225.716M827.198 273.731C827.198 273.731 829.203 286.338 829.505 294.488C829.656 298.58 829.505 304.972 829.505 304.972M827.198 273.731L826.132 267.603C825.173 262.084 823.277 256.769 820.529 251.888V251.888M827.198 273.731L826.267 285.215C826.05 287.894 825.527 290.539 824.71 293.1L824.299 294.388C822.698 299.4 819.817 303.908 815.94 307.465L814.739 308.567C812.627 310.504 810.157 312.009 807.467 312.998V312.998C801.967 315.02 796.07 315.729 790.246 315.068L789.183 314.947C786.021 314.588 782.91 313.873 779.909 312.814L777.939 312.118C772.782 310.298 767.978 307.631 763.152 305.057C762.159 304.526 761.161 304.04 760.237 303.664C758.426 302.927 755.943 302.254 753.924 301.768C751.738 301.241 749.465 302.002 747.95 303.664V303.664M785.054 198.668L794.997 202.976C796.734 203.729 798.286 204.853 799.544 206.268L806.76 214.386C807.384 215.088 808.082 215.72 808.842 216.271L821.857 225.716M821.857 225.716V225.492C821.857 222.453 820.475 219.579 818.101 217.681L813.989 214.393L802.457 204.119L792.036 195.001C788.948 192.299 785.369 190.216 781.494 188.866L773.522 186.088L751.087 181.684L741.94 180.172M592.466 160.092L592.29 160.489V160.489C595.883 152.404 598.129 143.754 598.227 134.906C598.279 130.171 598.183 124.972 597.721 120.739C595.992 104.886 592.886 96.1351 586.821 81.3865C581.85 69.2966 578.773 62.4211 571.117 51.8257C567.054 46.2025 560.972 39.9915 555.536 34.88C547.649 27.464 538.928 20.9924 529.509 15.6548C522.197 11.5113 513.179 6.94717 505.529 4.7142V4.7142C482.997 -1.86272 459.105 5.19055 437.627 14.6586L430.973 17.5922C415.587 24.3749 401.056 33.0314 388.46 44.171C382.698 49.2675 376.668 54.8418 371.951 59.7729C366.335 65.6442 358.095 75.2923 358.095 75.2923L335.739 97.0934L325.304 105.988C323.21 107.773 321.793 110.223 321.29 112.928L320.964 114.684C320.275 118.392 320.705 122.222 322.199 125.685L330.751 145.499L332.542 149.209C337.996 160.507 347.919 169.015 359.917 172.681L361.051 173.028L378.693 177.462L380.266 177.806C387.542 179.399 395.088 179.129 402.316 177.331C408.771 175.724 416.904 173.884 423.34 173.028C425.721 172.711 429.449 172.319 429.449 172.319M592.466 160.092L664.911 167.846H672.036C679.121 167.846 686.161 168.988 692.883 171.229V171.229C696.176 172.327 699.55 173.163 702.975 173.729L729.82 178.168M743.131 297.47H744.238C751.769 297.47 759.189 299.279 765.875 302.746L770.167 304.972L780.371 308.866C784.917 310.601 789.787 311.322 794.641 310.978V310.978C799.782 310.613 804.768 309.064 809.211 306.451L811.297 305.224C814.856 303.13 817.854 300.206 820.035 296.7V296.7C821.72 293.992 822.884 290.992 823.464 287.855L823.868 285.676C824.41 282.751 824.682 279.782 824.682 276.808V276.808C824.682 270.212 823.342 263.686 820.744 257.624L820.556 257.183C819.534 254.799 818.332 252.497 816.96 250.296L811.541 241.599M743.131 297.47L747.95 303.664M811.541 241.599L815.281 242.568L816.375 244.512M747.321 462.082V453.379C747.321 452.883 747.259 452.39 747.138 451.909L745.297 444.621C744.839 442.808 743.562 441.313 741.843 440.576L740.69 440.082C740.073 439.817 739.415 439.658 738.745 439.611L668.861 434.718C665.626 434.491 662.575 436.24 661.134 439.144L653.691 454.157M747.321 462.082L743.491 462.776C742.664 462.926 742.018 463.578 741.876 464.407L739.786 476.613C739.767 476.724 739.757 476.837 739.757 476.95V489.845C739.757 490.95 740.653 491.845 741.757 491.845H744.733M747.321 462.082L748.499 475.143M744.733 491.845L742.113 503.471L739.617 510.06C738.67 512.559 736.187 514.13 733.524 513.916L662.59 508.2C660.173 508.005 657.975 506.725 656.613 504.718L653.925 500.756C653.025 499.431 652.544 497.866 652.544 496.264V490.795M744.733 491.845L748.499 483.494M652.544 490.795L653.691 454.157M652.544 490.795L648.774 486.518C647.228 484.765 645.453 483.228 643.497 481.949L641.7 480.774M653.691 454.157C653.691 454.157 647.08 456.472 642.671 457.113M748.499 483.494V483.494C749.765 483.494 750.791 482.468 750.791 481.202V477.435C750.791 476.169 749.765 475.143 748.499 475.143V475.143M748.499 483.494H747.629C745.95 483.494 744.597 482.115 744.63 480.436L744.676 478.085C744.707 476.451 746.041 475.143 747.675 475.143H748.499M642.671 457.113C640.759 457.391 638.633 457.445 636.451 457.353C623.799 456.818 611.295 453.918 598.641 453.444V453.444M642.671 457.113L641.7 480.774M718.221 47.8977V47.8977C700.858 34.9013 680.334 26.6252 658.705 25.0235C653.453 24.6345 648.278 24.3125 643.789 24.1423C635.585 23.8313 625.389 24.5504 616.676 25.4321C604.02 26.7128 591.64 29.7704 579.533 33.6723L560.58 39.7807M718.221 47.8977L725.361 54.9515M718.221 47.8977H1147.5M747.984 100.63L745.868 90.2857C744.661 84.3829 742.619 78.6821 739.805 73.3546V73.3546C736.779 67.6263 732.895 62.3948 728.286 57.8418L725.361 54.9515M747.984 100.63L746.774 116.224C746.385 121.234 745.667 126.214 744.516 131.106C743.637 134.844 742.537 139.324 741.538 142.828C740.768 145.525 739.752 148.72 738.754 151.736C736.414 158.814 734.582 166.056 733.535 173.437L732.794 178.66M747.984 100.63L750.776 117.619C751.664 123.021 752.11 128.486 752.11 133.96V133.96C752.11 140.944 751.384 147.909 749.944 154.742L749.681 155.986C748.467 161.75 746.803 167.41 744.706 172.914L741.94 180.172M747.984 100.63L749.642 119.963V119.963C750.602 132.411 750.606 145.021 747.71 157.166C747.597 157.64 747.483 158.102 747.368 158.55C745.161 167.141 740.321 179.825 740.321 179.825M732.794 178.66L729.82 178.168M732.794 178.66L740.321 179.825M729.82 178.168L731.095 170.538C732.454 162.406 734.795 154.478 737.613 146.73C738.612 143.983 739.59 141.142 740.321 138.691C741.733 133.953 743.342 126.906 743.87 124.549C743.99 124.013 744.102 123.485 744.204 122.945C744.765 119.981 746.621 109.471 746.19 102.324C745.619 92.841 744.003 87.4843 740.384 78.7006C736.204 68.5534 725.361 54.9515 725.361 54.9515M741.94 180.172L740.321 179.825M839.538 369.287L822.733 376.991L831.392 393.497L887.957 366.978M839.538 369.287L942.777 321.956L902.8 257.547L920.784 251.45L968.336 329.294L887.957 366.978M839.538 369.287L790.93 375.345L807.699 428.004L898.346 404.275L887.957 366.978M895.746 642.214L879.029 666.568C872.636 675.881 867.154 685.789 862.66 696.153L858.1 706.668C855.035 713.737 852.728 721.096 851.14 728.636C848.069 743.217 842.499 768.846 837.561 787.188C831.664 809.098 819.739 841.291 815.565 852.359C814.58 854.969 813.384 857.48 811.997 859.899L797.186 885.724C796.625 886.702 795.585 887.305 794.458 887.305V887.305C792.892 887.305 791.565 886.153 791.344 884.603L789.824 873.924C789.662 872.79 789.626 871.642 789.716 870.501L790.979 854.534C791.478 848.218 792.403 841.941 793.912 835.787C795.221 830.452 796.94 823.815 798.555 818.718C801.803 808.469 807.945 793.991 810.031 789.156C810.506 788.054 810.963 786.954 811.4 785.836L822.934 756.308L838.296 721.021C840.382 716.228 842.125 711.292 843.509 706.251L850.564 680.571V680.571C852.494 668.037 851.845 655.241 848.657 642.967L848.198 641.2C846.789 635.776 847.394 630.026 849.9 625.014L850.564 623.686L849.598 621.907M895.746 642.214L903.547 635.713L906.473 628.887L908.098 617.835L919.8 609.709H908.098L915.574 604.833L912.974 600.932L921.75 588.58L915.574 590.856L923.375 578.466L919.8 570.703L921.75 564.771H930.852L923.375 559.144L933.452 553.8H923.375L926.626 544.698L935.077 531.696L937.028 522.595H930.852L937.028 516.094V510.568V505.692L941.578 497.891H937.028L941.578 476.78L937.028 475.143L944.179 470.586L941.578 465.71L948.405 451.083L944.179 452.633L946.454 441.745L948.405 434.18L941.578 436.78L930.852 413.702L915.574 428.004L913.624 418.578L906.798 434.18V430.604L899.972 439.682L891.195 459.209L887.295 455.309L884.369 475.143L879.168 491.845L874.292 486.514L872.342 505.692L868.767 499.841V510.568L863.891 533.971H861.615V547.299L853.489 542.748L861.615 559.144H856.414L853.489 578.466L846.013 576.553L850.564 590.856H844.062L846.013 604.833L838.211 600.932L849.598 621.907M895.746 642.214H877.218L879.168 632.788L865.841 637.664L849.598 621.907M1002.2 510.568L985.198 535.622C985.017 535.888 984.904 536.186 984.874 536.506C984.617 539.265 983.637 553.201 989.379 559.144C994.37 564.311 1002.17 566.991 1004.87 567.804C1005.48 567.985 1006.12 567.841 1006.61 567.444L1034.79 544.565M1002.2 510.568L1010.06 504.486C1013.96 501.475 1018.74 499.841 1023.66 499.841V499.841C1028.41 499.841 1033.04 501.363 1036.86 504.185L1037.5 504.657C1044.7 509.978 1048.11 519.039 1046.19 527.791V527.791C1045.31 531.834 1043.33 535.559 1040.48 538.562L1034.79 544.565M1002.2 510.568V510.568C995.961 520.925 998.818 534.349 1008.74 541.267L1009.98 542.136C1015.91 546.267 1023.35 547.585 1030.33 545.742L1034.79 544.565M992.845 703.705L988.929 705.5C987.281 706.256 986.065 707.718 985.624 709.477V709.477C984.351 714.546 981.411 719.04 977.276 722.237L976.091 723.153C973.454 725.192 970.558 726.87 967.479 728.144L964.756 729.271C961.119 730.776 957.221 731.551 953.285 731.551H937.498L935.668 731.717C920.592 733.081 905.734 736.241 891.409 741.132L882.036 744.331M992.845 703.705L1003.19 762.621M992.845 703.705L997.938 702.42M1030.26 694.267L1075.89 678.038C1077.53 677.454 1079.32 678.386 1079.79 680.066L1093.88 731.081C1094.3 732.597 1093.47 734.178 1091.99 734.706L1042.25 752.412M1030.26 694.267L1042.25 752.412M1030.26 694.267L1019.07 697.09M883.348 765.284L869.417 767.947L863.207 770.062C862.143 770.425 861.025 770.61 859.901 770.61V770.61C855.978 770.61 852.373 768.319 850.656 764.793V764.793C849.966 763.376 849.598 761.802 849.598 760.226V755.038C849.598 753.338 850.175 751.688 851.235 750.358V750.358C852.659 748.571 854.82 747.53 857.106 747.53H866.405C868.406 747.53 870.402 747.305 872.354 746.861L879.168 745.31L882.036 744.331M883.348 765.284L908.387 764.566V764.566C919.1 763.756 929.65 761.468 939.736 757.767L943.712 756.308L955.725 751.236C958.064 750.249 960.518 749.562 963.029 749.193L966.976 748.612C971.84 747.897 976.794 748.114 981.576 749.253V749.253C982.963 749.583 984.326 750.009 985.628 750.587C986.389 750.924 987.234 751.318 987.901 751.676C990.919 753.298 993.992 756.393 995.928 758.558C997.284 760.074 998.976 761.276 1000.91 761.894L1003.19 762.621M883.348 765.284L882.036 744.331M1003.19 762.621L1009.6 760.944M1042.25 752.412L1031.76 755.153M997.938 702.42L1009.6 760.944M997.938 702.42L1019.07 697.09M1009.6 760.944L1031.76 755.153M1019.07 697.09L1031.76 755.153M1285.67 722.85V902.783H428.362L428.649 891.906M1285.67 722.85L1153.46 694.267L1201.19 465.71L1285.67 492.043M1285.67 722.85V492.043M1285.67 492.043V407.394M1147.5 47.8977H1285.67V230.729M1147.5 47.8977L1175.28 279.013M1285.67 407.394L1185.61 390.722L1181.16 342.604M1285.67 407.394V292.181M1285.67 230.729L1280.47 233.002M1285.67 230.729V256.687M1075.94 383.99L1075.62 379.295M1075.94 383.99L1084.69 380.158M1075.94 383.99H1079.46L1107.72 372.445M1285.67 292.181L1268.1 299.872M1285.67 292.181V256.687M1285.67 292.181L1226.67 319.078M1072.83 338.028L1071.9 324.235L1080.56 320.447M1072.83 338.028L1052.27 345.597V387.454M1072.83 338.028L1075.62 379.295M1052.27 387.454L1075.62 379.295M1052.27 387.454L1080.56 393.804L1118.37 376.196M1118.37 376.196L1137.2 378.417C1141.81 378.96 1146.35 377.009 1149.13 373.296L1149.56 372.731C1151.24 370.483 1152.15 367.75 1152.15 364.941V357.603M1118.37 376.196L1107.72 372.445M1084.69 380.158L1080.56 320.447M1084.69 380.158L1092.16 376.891M1080.56 320.447L1087.63 317.353M1092.16 376.891L1087.63 317.353M1092.16 376.891L1101.77 372.682M1087.63 317.353L1096.49 313.478M1101.77 372.682L1104.72 371.389L1112.05 368.181M1101.77 372.682L1096.49 313.478M1096.49 313.478L1106.7 309.013M1112.05 368.181L1106.7 309.013M1112.05 368.181L1122.33 363.68M1106.7 309.013L1116.6 304.681M1122.33 363.68L1116.6 304.681M1122.33 363.68L1134.04 358.557M1116.6 304.681L1127.6 299.872M1134.04 358.557L1127.6 299.872M1134.04 358.557L1146.61 353.055M1127.6 299.872L1139.94 294.474M1146.61 353.055L1152.15 350.63L1159.84 347.262M1146.61 353.055L1139.94 294.474M1139.94 294.474L1152.15 289.133M1159.84 347.262L1152.15 289.133M1159.84 347.262L1174.72 340.747M1152.15 289.133L1167.47 282.431M1174.72 340.747L1167.47 282.431M1174.72 340.747L1190.78 333.72M1167.47 282.431L1175.28 279.013M1190.78 333.72L1183.1 275.595M1190.78 333.72L1208.26 326.065M1183.1 275.595L1198.73 268.759M1183.1 275.595L1175.28 279.013M1208.26 326.065L1198.73 268.759M1208.26 326.065L1225.6 318.475M1198.73 268.759L1217.23 260.664M1225.6 318.475L1217.23 260.664M1225.6 318.475L1247.22 309.013M1217.23 260.664L1236.65 252.172M1247.22 309.013L1236.65 252.172M1247.22 309.013L1268.1 299.872M1236.65 252.172L1258.07 242.799M1258.07 242.799L1268.1 299.872M1258.07 242.799L1280.47 233.002M1280.47 233.002L1285.67 256.687M522.896 231.936V224.66M522.896 224.66V224.66C522.896 223.677 523.365 222.754 524.159 222.174L526.902 220.173M241.867 560.685L269.338 562.663C277.307 563.237 285.294 561.813 292.573 558.519L342.126 536.098C354.427 530.532 363.815 520.043 367.988 507.203L372.765 492.507M241.867 560.685L243.717 563.538M372.765 492.507L341.291 425.937L343.665 424.208L341.291 412.599L343.323 393.876M152.941 467.363L172.824 448.432M172.824 448.432L199.773 492.883M530.117 326.711V326.711C530.117 322.789 529.044 318.94 527.016 315.583L526.031 313.953C523.969 310.54 521.142 307.652 517.773 305.519V305.519C513.638 302.9 508.844 301.537 503.957 301.26C498.555 300.955 490.933 300.274 483.501 298.758C475.655 297.157 466.711 294.8 460.523 293.085M530.117 326.711C530.117 326.711 523.573 310.34 514.025 306.603C507.882 304.198 501.112 305.132 494.583 304.184C480.739 302.173 460.523 293.085 460.523 293.085M454.586 189.042C454.586 189.042 456.123 188.606 457.046 188.174V188.174C459.757 186.907 460.653 183.609 460.16 180.656L460.144 180.56C459.711 177.974 458.32 175.647 456.246 174.042L453.886 172.216C451.306 170.219 448.164 169.083 444.904 168.969C443.486 168.919 441.884 168.863 440.258 168.806C436.354 168.669 432.526 169.912 429.449 172.319V172.319M380.865 513.722C380.865 513.722 384.419 529.035 384.737 539.027C385.359 558.522 374.628 587.94 374.628 587.94M347.706 609.927V609.927C362.206 608.358 376.331 604.321 389.469 597.99L397.818 593.968C407.973 589.075 417.65 583.248 426.725 576.562L430.668 573.658M816.375 244.512V244.512C817.915 244.512 819.242 245.595 819.551 247.104L820.529 251.888M816.375 244.512L820.529 251.888M608.187 661.81L578.901 675.543C575.54 677.118 572.066 678.439 568.507 679.494L537.107 688.797C535.265 689.343 533.296 688.502 532.416 686.795L530.31 682.712C529.312 680.775 530.048 678.395 531.966 677.359L560.256 662.087C563.839 660.154 567.574 658.519 571.425 657.199L601.123 647.025M608.187 661.81L601.123 647.025M608.187 661.81L611.136 659.55C611.993 658.893 612.223 657.7 611.671 656.772V656.772M601.123 647.025L603.905 645.87C604.499 645.624 605.184 645.851 605.513 646.404V646.404M605.513 646.404L615.263 642.517C615.682 642.35 616.162 642.485 616.433 642.846L616.774 643.301M605.513 646.404L611.671 656.772M611.671 656.772L621.186 651.016C621.693 650.71 621.824 650.034 621.469 649.561L620.777 648.638M616.774 643.301L650.613 629.789L675.73 616.66M616.774 643.301L620.777 648.638M620.777 648.638L652.666 637.615L676.479 629.789M675.73 616.66L678.838 615.035L679.993 628.634L676.479 629.789M675.73 616.66L676.479 629.789M433.351 713.574L414.199 710.719C413.605 710.63 413.068 711.08 413.052 711.68L408.212 885.119C408.199 885.572 408.494 885.978 408.929 886.106L428.649 891.906M433.351 713.574L433.106 722.85M428.649 891.906L428.808 885.888M428.808 885.888L413.791 881.029C413.371 880.893 413.09 880.497 413.1 880.055L416.632 720.714C416.645 720.091 417.219 719.632 417.83 719.756L433.106 722.85M428.808 885.888L433.106 722.85M1152.15 353.055L1107.72 372.445M1152.15 353.055V357.603M1152.15 353.055L1226.67 319.078M1152.15 357.603L1181.16 342.604M1226.67 319.078L1181.16 342.604M517.953 811.458L515.171 809.774L497.696 797.373L494.25 803.525C491.67 808.129 486.185 810.256 481.261 808.358C475.538 806.153 468.186 803.053 463.311 800.01C456.101 795.509 450.688 786.857 448.318 782.571C447.409 780.927 447.069 779.053 447.202 777.18L447.445 773.765C447.82 768.494 451.89 764.234 457.138 763.62L459.101 763.39C461.811 763.073 464.542 763.774 466.763 765.358L472.432 769.397L493.189 785.961L508.221 797.277C510.545 799.027 513.468 799.785 516.35 799.385L519.399 798.961V794.983C519.399 792.153 518.308 789.432 516.353 787.386L509.334 780.037L493.122 765.499C488.7 761.533 484.465 757.322 481.155 752.39C479.745 750.288 478.367 748.005 477.467 745.959C476.666 744.137 475.983 741.906 475.423 739.702C473.978 734.024 476.897 728.292 481.991 725.399V725.399C484.892 723.751 488.289 723.134 491.511 724.001C494.015 724.676 497.021 725.643 499.463 726.896C504.945 729.707 510.128 736.566 513.206 741.241C515.168 744.223 515.676 747.877 514.936 751.369L514.799 752.015C514.111 755.264 512.364 758.193 509.832 760.342L505.621 763.915C505.05 764.4 504.721 765.11 504.721 765.859V765.859C504.721 766.515 504.974 767.146 505.428 767.62L533.866 797.373L543.93 808.606L619.112 858.982C626.11 863.671 632.512 869.192 638.178 875.426L638.83 876.143L558.498 831.983L619.832 897.717V897.717C608.184 891.295 597.489 883.28 588.056 873.902L538.187 824.326M517.953 811.458L536.591 822.739L538.187 824.326M517.953 811.458L516.669 807.185C515.807 804.314 517.167 801.244 519.872 799.954V799.954C521.614 799.123 523.646 799.167 525.338 800.096C527.876 801.49 531.708 803.634 534.581 805.422C538.101 807.612 540.645 808.511 543.93 811.042C545.298 812.095 546.979 813.421 548.455 814.594C550.566 816.272 551.238 819.18 550.095 821.622V821.622C549.036 823.885 546.658 825.226 544.174 824.962L538.187 824.326M1053.94 206.338L1038.76 177.765C1038.54 177.347 1038.05 177.142 1037.6 177.274L956.002 200.846M1053.94 206.338C1053.94 206.338 1052.12 206.444 1050.96 206.338C1046.41 205.92 1041.25 201.221 1039.24 199.221C1038.7 198.684 1037.91 198.461 1037.18 198.671L949.595 223.728L957.377 240.49M1053.94 206.338L958.519 242.949L957.377 240.49M956.002 200.846L944.103 209.999M956.002 200.846L948.451 212.973L944.103 209.999M944.103 209.999V209.999C944.103 215.007 945.257 219.948 947.475 224.438L949.595 228.729L957.377 240.49M526.902 220.173L522.896 219.583L517.503 221.8M757.476 564.771L813.824 612.314L669.873 780.037L611.312 728.091L757.476 564.771ZM458.078 788.159C456.507 786.7 454.931 785.016 453.386 783.201C446.908 775.592 455.398 766.313 464.404 770.643V770.643C465.002 770.93 465.571 771.274 466.103 771.67L486.718 787.018C488.684 788.482 489.945 790.706 490.191 793.145V793.145C490.597 797.169 488.157 800.955 484.336 802.281V802.281C481.975 803.1 479.364 802.886 477.214 801.612C472.394 798.754 463.546 793.234 458.078 788.159ZM798.475 293.607V293.607C795.222 297.511 789.062 296.663 786.495 292.276L783.795 287.662C783.432 287.042 783.569 286.251 784.12 285.789L791.332 279.74C792.133 279.067 793.317 279.126 794.048 279.875L795.802 281.672C797.956 283.879 799.597 286.669 799.511 289.751C799.469 291.239 799.21 292.725 798.475 293.607ZM1194.64 293.849L1194.78 294.036C1195.6 295.16 1195.4 296.732 1194.32 297.61C1192.97 298.701 1190.96 298.204 1190.27 296.614L1190.18 296.4C1189.88 295.7 1189.9 294.901 1190.24 294.219C1191.11 292.49 1193.5 292.289 1194.64 293.849ZM1149.75 300.921L1149.89 301.108C1150.71 302.232 1150.51 303.804 1149.43 304.681C1148.08 305.772 1146.07 305.276 1145.38 303.685L1145.29 303.472C1144.99 302.771 1145.01 301.973 1145.36 301.291C1146.22 299.561 1148.61 299.36 1149.75 300.921ZM1125.41 311.652L1125.55 311.839C1126.37 312.963 1126.17 314.535 1125.09 315.413C1123.74 316.503 1121.73 316.007 1121.04 314.416L1120.95 314.203C1120.65 313.502 1120.67 312.704 1121.01 312.022C1121.88 310.292 1124.27 310.091 1125.41 311.652ZM1104.6 321.471L1104.74 321.658C1105.56 322.782 1105.36 324.354 1104.28 325.232C1102.93 326.322 1100.92 325.826 1100.23 324.235L1100.14 324.022C1099.84 323.321 1099.86 322.523 1100.21 321.841C1101.07 320.111 1103.46 319.91 1104.6 321.471ZM1251.68 255.946L1251.82 256.133C1252.64 257.257 1252.44 258.829 1251.35 259.707C1250.01 260.798 1247.99 260.301 1247.31 258.711L1247.22 258.497C1246.92 257.797 1246.94 256.998 1247.28 256.316C1248.15 254.587 1250.54 254.386 1251.68 255.946ZM1087.03 329.951L1087.17 330.138C1087.99 331.262 1087.79 332.834 1086.71 333.711C1085.36 334.802 1083.35 334.306 1082.66 332.715L1082.57 332.502C1082.27 331.801 1082.29 331.003 1082.63 330.321C1083.5 328.591 1085.89 328.39 1087.03 329.951ZM1192.95 285.829V285.829C1194.03 284.952 1194.24 283.38 1193.41 282.256L1193.28 282.069C1192.13 280.508 1189.75 280.709 1188.88 282.439V282.439C1188.54 283.121 1188.51 283.919 1188.82 284.62L1188.91 284.833C1189.59 286.424 1191.61 286.92 1192.95 285.829ZM540.588 816.683V816.532C540.588 815.562 539.801 814.776 538.831 814.776V814.776C537.691 814.776 536.853 815.844 537.125 816.951L537.161 817.097C537.316 817.727 537.808 818.219 538.438 818.372V818.372C539.533 818.638 540.588 817.809 540.588 816.683ZM876.823 757.85L876.58 757.626C875.727 756.844 875.491 755.595 875.997 754.555V754.555C876.961 752.578 879.787 752.603 880.716 754.596L880.856 754.895C881.361 755.978 881.045 757.267 880.097 757.994V757.994C879.115 758.747 877.735 758.686 876.823 757.85ZM1015.74 526.15L1016.04 526.855C1017.47 530.24 1020.96 532.277 1024.61 531.862V531.862C1029.86 531.267 1033.22 525.996 1031.55 520.992L1031.31 520.265C1029.31 514.265 1021.62 512.595 1017.31 517.225V517.225C1015.07 519.63 1014.46 523.125 1015.74 526.15ZM503.396 735.709L506.568 740.264C508.339 742.807 509.025 745.951 508.475 749L508.157 750.762C507.261 755.727 502.712 759.18 497.688 758.708V758.708C494.836 758.439 492.247 756.926 490.615 754.571L484.286 745.442C482.993 743.579 482.392 741.323 482.585 739.063V739.063C483.116 732.832 489.298 728.708 495.256 730.61L497.426 731.303C499.846 732.076 501.944 733.624 503.396 735.709Z" stroke="white" stroke-width="2"/>
</svg>
