<svg width="797" height="1698" viewBox="0 0 797 1698" fill="none" xmlns="http://www.w3.org/2000/svg">
<path d="M160.72 634.33C160.72 634.33 155.646 612.662 155.844 598.569C156.035 584.956 157.501 577.205 161.345 564.145C172.267 527.036 200.463 497.393 215.75 461.859C217.194 458.501 218.514 455.223 219.645 452.112C230.462 422.359 233.11 404.97 236.768 372.875C242.952 318.61 241.204 286.443 239.493 233.048C238.266 194.802 234.062 142.42 231.385 111.637C229.916 94.7513 225.18 78.3546 217.584 63.2025L212.745 53.5502C205.945 39.9887 195.952 28.2831 183.624 19.4416C173.849 12.4309 162.814 7.37017 151.124 4.5365L144.195 2.85707C135.851 0.83456 127.209 0.345561 118.69 1.41393C106.057 2.99818 94.0851 7.9572 84.0323 15.7694L80.9445 18.169C70.9638 25.9253 62.8365 35.8077 57.1531 47.0981L55.9766 49.4353C50.8621 59.5956 47.5704 70.5721 46.3737 81.884C44.8361 96.4198 42.7488 117.389 41.7168 133.189C40.4944 151.904 40.0453 174.193 39.9869 195.514C39.8405 248.848 39.3866 302.243 41.6453 355.529C42.3837 372.951 43.6834 390.662 45.8889 405.728C48.869 426.087 52.1819 437.22 55.8237 457.471C59.965 480.5 65.4375 515.46 66.3533 521.336C66.4437 521.916 66.5372 522.477 66.64 523.055C70.6156 545.426 64.9118 568.433 50.9468 586.356L32.6362 609.857C13.211 634.788 2.33314 665.313 1.61428 696.911L0.984375 724.598L8.00024 962.558C9.80083 1000.06 25.1087 1035.96 52.7998 1061.32C54.8614 1063.2 56.8696 1065.02 58.7879 1066.72C65.2161 1072.43 70.0578 1074.41 75.4273 1081.12C80.5402 1087.51 83.0088 1091.71 85.4952 1099.5C90.2473 1114.4 84.4313 1123.9 82.8733 1139.47C78.9805 1178.35 71.8701 1200.54 67.1012 1239.99C59.797 1300.42 59.0481 1335.67 56.9808 1394.59C56.8183 1399.22 56.636 1403.85 56.4718 1408.48C55.7831 1427.9 54.1176 1483.91 56.2245 1522.27C57.3047 1541.94 59.8926 1566.37 62.4478 1587.54C66.3329 1619.71 70.9729 1654.75 94.2577 1677.29C102.292 1685.07 107.092 1689.96 117.53 1693.98C130.29 1698.89 138.885 1697.25 152.489 1695.88C170.029 1694.11 180.141 1690.98 195.612 1682.53C207.879 1675.82 214.331 1670.8 223.931 1660.64C232.265 1651.82 236.286 1646.07 242.039 1635.38C246.294 1627.48 249.465 1617.01 251.739 1607.28C255.988 1589.1 257.811 1570.46 260.028 1551.92C261.898 1536.29 264.062 1516.92 265.27 1501.72C269.494 1448.61 267.83 1373.8 266.557 1335.85C266.017 1319.77 264.57 1303.75 262.478 1287.81C258.555 1257.9 253.317 1227.93 241.79 1200.05C240.809 1197.68 239.82 1195.4 238.836 1193.28C230.83 1176.04 202.419 1136.83 192.469 1120.64C189.647 1116.04 187.109 1111.13 184.873 1106.28C175.333 1085.59 169.887 1062.67 173.4 1040.16C174.885 1030.64 179.8 1016.33 179.8 1016.33M160.72 634.33L196.731 627.889M160.72 634.33C160.72 634.33 133.642 635.846 118.739 643.574C110.21 647.997 105.367 650.979 98.8163 658.007C91.3217 666.046 82.4276 683.004 82.4276 683.004M196.731 627.889C196.731 627.889 211.471 628.486 218.963 633.367C224.34 636.87 226.584 640.051 230.22 645.34C236.533 654.523 239.615 672.286 239.615 672.286M196.731 627.889C196.731 627.889 208.236 634.31 214.007 640.278C223.085 649.665 226.563 666.809 227.876 679.818C229.033 691.285 229.335 702.843 230.75 714.28L232.801 730.853C234.203 742.185 237.318 753.237 242.04 763.633C247.511 775.678 250.819 788.593 251.813 801.786L252.787 814.712C254.466 836.982 252.117 859.371 245.853 880.807L244.95 883.897C240.439 899.333 237.773 915.25 237.009 931.313L235.661 959.62L232.619 987.169C231.845 994.181 228.776 1000.74 223.889 1005.83C219.547 1010.35 213.974 1013.49 207.861 1014.88L196.423 1017.46M239.615 672.286C239.615 672.286 244.377 716.628 249.981 744.602C254.92 769.26 263.551 781.995 265.693 807.052C266.564 817.248 265.93 829.921 264.923 841.05C263.305 858.944 258.14 876.274 255.078 893.978C254.464 897.527 254.005 901.539 253.662 905.64C251.98 925.735 252.03 945.948 250.713 966.071M239.615 672.286C279.541 697.234 305.013 739.879 308.052 786.86L310.114 818.746C313.708 874.326 291.854 928.528 250.713 966.071M91.374 985.061L82.4276 683.004M91.374 985.061C80.4176 987.668 69.8101 979.615 69.3773 968.361L59.2582 705.248C58.7638 692.392 69.6022 681.987 82.4276 683.004M91.374 985.061C93.3764 991.04 96.7355 996.515 101.653 1000.46C105.717 1003.72 110.884 1007.4 115.495 1009.27C118.761 1010.6 123.031 1011.54 126.827 1012.17C132.898 1013.19 139.057 1013.54 145.199 1013.96L179.8 1016.33M179.8 1016.33L196.423 1017.46M250.713 966.071C250.713 966.071 251.414 978.253 249.431 985.657C246.619 996.154 243.495 1002.62 235.079 1009.5C227.868 1015.38 222.288 1017.48 213.045 1018.6C206.586 1019.38 196.423 1017.46 196.423 1017.46M146.78 992.647L190.477 993.232C194.128 993.28 197.572 991.541 199.7 988.574C201.069 986.664 201.801 984.371 201.792 982.021L201.736 968.52M146.78 992.647L142.36 971.809M146.78 992.647C140.815 992.609 135.696 988.426 134.55 982.572C129.053 954.494 114.042 873.362 112.411 816.958C111.178 774.345 116.701 715.397 120.249 682.904C121.813 668.581 132.499 657.037 146.604 654.095L161.127 651.066C173.052 648.579 184.501 656.979 185.707 669.101M185.707 669.101L190.374 716.007L197.7 787.639M185.707 669.101C155.955 673.2 133.058 697.447 131.458 727.437C129.704 760.311 128.129 802.802 129.3 835.605C131.207 889.006 142.36 971.809 142.36 971.809M142.36 971.809L201.736 968.52M201.736 968.52L201.665 951.404L199.025 867.74C198.846 862.068 201.477 856.673 206.055 853.32M206.055 853.32C193.041 847.887 177.28 834.497 178.41 818.573C178.852 812.354 180.717 806.308 183.737 801.086M206.055 853.32C219.07 858.754 244.538 841.626 243.439 820.438C242.497 802.289 226.656 783.627 208.517 784.762C204.619 785.006 200.991 786.019 197.7 787.639M206.055 853.32C206.055 853.32 213.119 851.181 216.973 848.583C228.778 840.625 233.656 828.222 230.54 814.33C227.635 801.375 219.966 791.631 206.731 790.58C196.889 789.799 183.737 801.086 183.737 801.086M183.737 801.086C187.09 795.29 191.867 790.51 197.7 787.639M782.433 1078.87C771.413 983.69 743.079 836.69 743.079 836.69M782.433 1078.87C783.644 1089.33 784.754 1100.08 785.769 1111.06M782.433 1078.87C782.433 1078.87 699.399 1105.94 644.694 1104.61C596.292 1103.43 523.418 1078.87 523.418 1078.87M743.079 836.69C743.079 836.69 683.867 855.481 644.694 856.373C606.06 857.254 546.844 841.638 546.844 841.638M743.079 836.69V739.968M546.844 841.638C546.844 841.638 529.754 938.494 525.102 1001.22C521.893 1044.47 521.619 1076.97 522.393 1111.06M546.844 841.638L552.201 739.97M538.709 1411.87C534.225 1327.29 527.613 1280.08 525.102 1195.42C524.83 1186.28 524.543 1177.63 524.257 1169.33M538.709 1411.87C539.116 1419.54 539.511 1427.94 539.893 1436.79M538.709 1411.87C538.709 1411.87 609.494 1437.33 656.516 1436.79C713.045 1436.15 795.772 1397.25 795.772 1397.25M542.169 1498.72C543.325 1534.73 544.362 1576.07 544.662 1588.33C544.721 1590.72 545.116 1593.09 545.836 1595.37V1595.37C546.221 1596.59 546.688 1597.76 547.268 1598.9C550.866 1605.97 565.279 1633.31 579.877 1647.68C581.065 1648.85 581.734 1649.5 582.962 1650.63C607.106 1672.81 630.652 1677.6 662.055 1678.8C690.161 1679.87 719.158 1681.22 746.029 1661.2C748.002 1659.73 749.077 1658.87 750.964 1657.29C768.02 1643.01 782.513 1613.39 787.747 1601.83C789.181 1598.66 790.942 1595.57 791.414 1592.12V1592.12C797.391 1548.46 793.406 1544.78 794.542 1492.34M542.169 1498.72C542.169 1498.72 608.05 1521.44 651.9 1522.79C708.834 1524.55 794.542 1492.34 794.542 1492.34M542.169 1498.72C541.855 1488.94 541.519 1478.99 541.165 1469.18M794.542 1492.34C794.799 1480.46 795.035 1467.82 795.232 1454.54M541.165 1469.18C541.165 1469.18 607.721 1492.08 651.9 1492.34C709.787 1492.68 795.232 1454.54 795.232 1454.54M541.165 1469.18C540.763 1458.06 540.337 1447.12 539.893 1436.79M795.232 1454.54C795.369 1445.27 795.487 1435.69 795.58 1425.85M539.893 1436.79C539.893 1436.79 606.923 1462.77 651.9 1463.71C709.913 1464.92 795.58 1425.85 795.58 1425.85M795.58 1425.85C795.668 1416.54 795.734 1406.99 795.772 1397.25M795.772 1397.25C796.05 1326.2 794.857 1244.93 790.204 1169.33M524.257 1169.33C524.257 1169.33 596.23 1197.69 644.694 1199.69C702.693 1202.09 790.204 1169.33 790.204 1169.33M524.257 1169.33C523.97 1160.99 523.684 1153.02 523.418 1145.3M790.204 1169.33C789.506 1158 788.73 1146.79 787.87 1135.76M523.418 1145.3C523.418 1145.3 596.411 1169.27 644.694 1169.33C702.124 1169.41 787.87 1135.76 787.87 1135.76M523.418 1145.3C523.008 1133.43 522.645 1122.16 522.393 1111.06M787.87 1135.76C787.219 1127.41 786.52 1119.17 785.769 1111.06M522.393 1111.06C522.393 1111.06 595.984 1134.49 644.694 1135.76C700.607 1137.21 785.769 1111.06 785.769 1111.06M552.201 739.97C552.201 739.97 604.764 759.113 639.899 760.28C680.944 761.644 743.079 739.968 743.079 739.968M552.201 739.97L569.903 725.541C570.924 724.708 572.1 724.086 573.363 723.709L599.281 715.98M743.079 739.968C743.079 739.968 724.877 728.897 713.75 724.279C700.099 718.614 683.732 715.98 683.732 715.98M599.281 715.98C599.281 715.98 598.899 561.723 586.337 463.989C581.872 429.246 572.49 375.368 572.49 375.368M599.281 715.98V732.924C599.281 737.149 601.936 740.913 605.987 742.115C614.92 744.764 631.171 748.859 644.694 748.281C655.024 747.84 668.796 744.403 677.056 742.089C681.318 740.895 684.145 737.067 684.055 732.641C683.224 692.059 679.518 491.884 684.21 358.717M684.21 358.717C686.991 279.788 695.106 156.775 695.106 156.775M684.21 358.717C684.21 358.717 649.919 502.783 626.956 499.991C599.281 496.627 572.49 375.368 572.49 375.368M517.102 96.5804L507.33 41.4368C505.958 33.6976 513.64 27.4741 520.927 30.4216L691.437 99.3995C695.397 101.002 697.902 104.943 697.672 109.208L695.106 156.775M517.102 96.5804L695.106 156.775M517.102 96.5804C517.102 96.5804 541.955 187.586 552.181 247.052C560.799 297.158 572.49 375.368 572.49 375.368M190.107 217.474C190.848 233.764 193.077 285.58 193.077 319.137C193.077 348.04 192.476 359.744 184.265 386.29C174.287 418.551 157.392 458.347 138.772 459.825C94.5691 463.334 95.3199 387.892 90.8028 343.781C89.2802 328.912 87.7651 313.258 86.5318 298.777C81.233 236.559 84.9864 143.154 85.9678 121.55C86.1071 118.482 86.4181 115.458 86.8842 112.421C90.6106 88.1488 103.066 62.6897 127.177 58.0345C129.531 57.5801 131.815 57.3589 133.956 57.4511C171.458 59.0663 181.906 111.032 184.847 148.453L189.47 207.29C189.738 210.692 189.952 214.065 190.107 217.474ZM209.609 1305.08L214.385 1353.84C215.399 1364.19 216.246 1374.53 216.676 1384.91C217.922 1415.01 219.501 1482.34 211.522 1528.72C210.006 1537.53 207.77 1547.77 205.4 1557.72C198.574 1586.4 186.883 1622.82 157.5 1625.16C129.247 1627.4 116.586 1591.52 114.82 1563.23C112.646 1528.41 110.052 1479.73 109.835 1442.76C109.502 1386.08 109.711 1353.59 115.255 1297.19C115.876 1290.87 116.734 1283.75 117.687 1276.53C122.017 1243.74 130.933 1197.43 164.01 1197.65C205.715 1197.93 205.542 1263.57 209.609 1305.08ZM204.941 814.524C209.179 814.08 213.16 816.671 213.808 820.882C214.548 825.701 209.668 829.917 204.807 829.534C201.444 829.27 198.898 827.686 197.787 824.5C196.209 819.974 200.173 815.024 204.941 814.524Z" stroke="white"/>
</svg>
