<svg width="1297" height="3665" viewBox="0 0 1297 3665" fill="none" xmlns="http://www.w3.org/2000/svg">
<path d="M733.165 675.296L733.374 662.048M733.165 675.296L734.114 805.712M733.165 675.296L718.659 675.067M837.595 97.6261C837.72 106.506 835.416 120.262 835.416 120.262C835.416 120.262 815.167 140.805 805.511 156.356C796.298 171.193 790.602 181.057 788.267 198.366C786.772 209.444 786.107 218.18 785.993 225.979M837.595 97.6261C837.545 94.0288 837.07 89.3346 836.656 85.8681C836.279 82.6986 835.351 79.6468 833.873 76.8178C828.294 66.1419 812.584 38.3577 794.673 26.8165C775.965 14.7623 743.13 11.4769 734.318 10.794C732.821 10.678 731.34 10.7485 729.854 10.9623L711.453 13.6082C702.505 14.895 695.038 21.1012 692.138 29.664L675.573 78.5649L675.16 79.8277M837.595 97.6261C837.595 97.6261 824.009 110.649 816.404 119.963C807.754 130.556 802.713 136.616 796.627 148.864C789.959 162.284 787.151 170.596 784.965 185.421C782.653 201.096 785.993 225.979 785.993 225.979M517.464 580.676C517.464 580.676 518.156 565.581 520.759 555.081C523.242 545.063 524.942 539.525 527.726 529.587C529.749 522.365 531.972 514.761 534.333 506.927M517.464 580.676L517.246 593.888C517.128 600.989 520.446 607.71 526.155 611.935L570.853 645.017M517.464 580.676C517.464 580.676 522.466 589.866 526.694 595.008C536.096 606.443 547.932 608.473 557.45 619.812C566.175 630.204 570.853 645.017 570.853 645.017M570.853 645.017L570.625 659.481M570.625 659.481L570.174 672.725M570.625 659.481L667.475 661.009M785.993 225.979C785.765 241.481 787.715 253.283 789.657 272.432C792.568 301.124 802.967 342.031 807.967 360.625C809.714 367.125 809.951 373.947 808.542 380.528L808.386 381.26M808.386 381.26L807.257 386.533C806.476 390.178 805.321 393.732 803.808 397.139L781.809 446.694L758.552 505.396C758.552 505.396 756.124 512.511 752.884 522.785M808.386 381.26C808.386 381.26 810.471 387.789 810.348 392.083C810.182 397.837 805.86 406.126 805.86 406.126L752.884 522.785M752.884 522.785C748.28 537.384 742.035 558.359 738.787 574.351C735.432 590.872 734.123 614.615 734.123 614.615L733.374 662.048M520.881 2145.43C520.881 2145.43 519.9 2158.81 511.644 2169.56M520.881 2145.43L522.28 2102.21M520.881 2145.43L520.791 2151.17M1101.59 2198.75C1101.59 2198.75 1075.34 2186.72 1057.85 2201.7C1024.98 2229.84 1036.57 2282.6 1007.04 2323.04C971.928 2371.1 944.504 2403.53 885.65 2412.45C835.071 2420.12 793.419 2413.89 760.103 2375.07C747.932 2360.89 738.39 2342.77 734.582 2335.05M732.785 2331.29C732.785 2331.29 733.414 2332.68 734.582 2335.05M732.785 2331.29L732.803 2319.1M732.785 2331.29L732.39 2356.34M733.546 1899.92L733.649 1834.16M733.546 1899.92L529.08 1896.69M733.546 1899.92L733.532 1907.65M734.582 2335.05C734.582 2335.05 745.219 2369.79 759.917 2386.86C779.686 2409.81 798.111 2417.67 827.539 2424.85C859.592 2432.68 880.554 2430.3 911.882 2419.94C948.139 2407.96 966.333 2391.81 991.325 2362.94C1012.38 2338.61 1020.37 2322.62 1033.16 2293.1C1044.4 2267.16 1046.76 2233.03 1064.2 2210.1C1071.07 2201.06 1084.45 2198.48 1093.12 2198.61C1118.93 2199.02 1127.15 2208.99 1140.05 2223.07C1152.96 2237.14 1163.28 2267.17 1171.38 2305.89C1192.79 2408.35 1152.41 2500.22 1112.19 2591.84C1087.45 2648.2 1067.86 2658.6 1060.44 2716.84C1057.58 2739.39 1066.59 2776.18 1071.3 2793.22C1072.99 2799.36 1075.31 2805.3 1078.01 2811.08L1187.92 3046.55C1187.92 3046.55 1262.16 3226.88 1240.83 3343.14C1233.7 3382 1228.37 3414.48 1208.95 3451.5C1190.53 3486.61 1175.11 3507.15 1132.5 3542C1085.15 3580.73 1057 3589.17 990.294 3613.99C919.455 3640.36 796.056 3650.07 796.056 3650.07C796.056 3650.07 682.54 3656.96 606.81 3654.02C539.355 3651.39 438.592 3639.74 417.948 3637.29C415.384 3636.99 413.031 3636.68 410.482 3636.27C379.727 3631.34 165.139 3593.53 85.1327 3487.42C36.8284 3423.36 13.2186 3390.6 7.28891 3292.99C0.400619 3179.61 26.5472 3071.95 70.3467 2967.14C87.7396 2925.52 120.303 2865.55 126.042 2855.06C126.63 2853.98 127.141 2852.89 127.587 2851.75L174.204 2732.51C174.204 2732.51 197.064 2669.08 195.044 2623.31C193.653 2591.81 178.685 2543.11 172.623 2524.51C170.968 2519.43 168.999 2514.65 166.743 2509.81C149.368 2472.52 70.5071 2299.09 74.3647 2231.3C76.9592 2185.71 78.0116 2151.3 107.502 2116.44C130.666 2089.05 153.184 2075.81 191.758 2070.37C206.065 2068.36 235.406 2066.7 235.406 2066.7M511.644 2169.56C507.87 2174.48 503.037 2178.39 496.969 2179.35C472.925 2183.15 400.811 2137.3 370.175 2116.89C360.786 2110.63 351.044 2104.93 340.865 2100.07L323.965 2091.99L297.436 2079.31C293.665 2077.51 289.767 2076.01 285.718 2074.97C275.558 2072.37 254.322 2067.48 235.406 2066.7M511.644 2169.56C511.644 2169.56 501.257 2169.5 492.833 2169.26C471.593 2168.66 443.142 2151.31 426.59 2139.85C417.403 2133.49 408.132 2127.24 398.303 2121.92L325.128 2082.35C322.069 2080.69 318.953 2079.16 315.73 2077.85C306.491 2074.1 285.81 2066.31 270.488 2064.98C256.823 2063.79 235.406 2066.7 235.406 2066.7M518.518 2295.27L496.573 2282.9L438.512 2245.92C436.328 2244.52 433.801 2243.77 431.211 2243.73L419.041 2243.53C416.367 2243.49 413.73 2244.16 411.404 2245.48L409.191 2246.74C403.822 2249.78 399.896 2254.85 398.288 2260.81V2260.81C396.786 2266.38 397.047 2272.28 399.035 2277.7L408.383 2303.15C408.555 2303.62 408.713 2304.08 408.863 2304.56C410.116 2308.55 416.366 2328.66 419.355 2342.46C428.533 2384.86 424.294 2433.91 422.267 2478.98C420.821 2511.11 416.916 2517.05 412.547 2540.7C400.45 2606.19 376.607 2636.9 356.326 2700.33C349.626 2721.29 343.518 2732.52 339.882 2754.22C335.689 2779.24 336.109 2800.7 342.595 2825.23C351.476 2858.82 371.165 2877.25 397.734 2895.05C419.245 2909.46 454.792 2911.55 454.792 2911.55L452.801 2905.08M518.518 2295.27L518.147 2305.58M518.518 2295.27L518.986 2265.58M731.755 2396.63C731.755 2396.63 748.31 2417.17 763.232 2428.04C792.906 2449.67 812.08 2459.81 853.068 2459.41C881.859 2459.12 907.682 2460.78 938.158 2444.7C993.473 2415.5 1031.5 2372.26 1056.07 2314.58C1064.33 2295.18 1069.33 2267.64 1071.41 2254.25C1072.23 2249.02 1073.91 2243.92 1077.25 2239.82C1080.67 2235.59 1085.59 2230.54 1090.7 2228.74C1107.32 2222.87 1124.49 2247.26 1133.28 2262.39C1137.54 2269.72 1140.31 2277.74 1142.16 2286.01C1144.73 2297.43 1148.28 2314.51 1149.71 2327.44C1153.33 2360.17 1152.08 2379.04 1148.38 2411.77C1145.36 2438.48 1135.92 2473.64 1129.31 2496.13C1124.94 2511 1119.15 2525.38 1112.54 2539.39L1048.17 2675.97C1045.42 2681.8 1043.42 2687.95 1042.41 2694.31C1040.51 2706.19 1037.64 2726.7 1037.69 2741.56C1037.82 2774.88 1054.39 2821.37 1057.95 2830.98C1058.4 2832.19 1058.89 2833.34 1059.44 2834.51L1149.57 3027.31C1151.86 3032.2 1153.39 3037.42 1153.68 3042.81C1154.39 3055.87 1154.28 3081.15 1144.02 3091.77C1134.01 3102.12 1112.6 3100.38 1102 3098.74C1097.86 3098.1 1094.03 3096.42 1090.52 3094.14C1067.47 3079.17 974.196 3019.28 918.331 2993.77C856.677 2965.61 775.613 2949.53 775.613 2949.53L773.703 2944.84M731.755 2396.63L732.243 2365.68M731.755 2396.63L731.66 2402.64M518.147 2305.58L437.939 2253.91C436.036 2252.68 433.863 2251.93 431.607 2251.73L424.338 2251.08C421.076 2250.79 417.815 2251.64 415.115 2253.49L413.645 2254.5C410.862 2256.41 408.72 2259.12 407.5 2262.26V2262.26C405.691 2266.93 405.676 2272.1 407.38 2276.8C412.337 2290.49 422.809 2320.63 427.234 2342.59C437.767 2394.86 429.821 2479.1 429.821 2479.1C429.821 2479.1 425.95 2516.95 421.291 2540.84C408.325 2607.34 382.508 2639.32 362.29 2703.98C356.166 2723.57 350.247 2734.03 347.277 2754.34C343.258 2781.82 341.17 2803.74 350.713 2829.82C360.864 2857.57 373.96 2869.65 397.898 2884.64C417.728 2897.06 452.801 2905.08 452.801 2905.08M518.147 2305.58L518.079 2307.47M452.801 2905.08L455.088 2881.26C455.231 2879.77 455.674 2878.32 456.45 2877.04C458.108 2874.29 461.325 2869.33 464.468 2866.52C467.1 2864.16 471.274 2861.88 474.138 2860.46C476.189 2859.44 478.465 2859.01 480.754 2859.06L516.495 2859.8M731.61 2405.79C731.61 2405.79 749.261 2426.25 763.101 2436.37C793.004 2458.22 816.003 2464.18 852.952 2466.71C886.559 2469.01 906.771 2463.6 938.057 2451.11C1004.17 2424.72 1036.65 2372.92 1062.51 2317.07C1072.35 2295.83 1075.44 2277.46 1076.36 2266.42C1076.96 2259.23 1078.46 2251.99 1082.38 2245.94C1085.17 2241.63 1088.39 2237.16 1090.59 2235.68C1104.45 2226.33 1121.15 2253.76 1128.11 2266.91C1130.42 2271.25 1132.1 2275.86 1133.38 2280.61C1136.27 2291.37 1141.56 2312.15 1143.49 2327.34C1147.57 2359.52 1145.84 2378.16 1142.18 2410.39C1138.65 2441.36 1125.3 2484.74 1118.06 2506.72C1114.98 2516.05 1111.36 2525.18 1107.4 2534.17C1102.88 2544.43 1096.8 2558.11 1093.04 2566.09C1073.87 2606.79 1053.94 2638.58 1038.21 2684.66C1031 2705.8 1031.29 2719.12 1031.44 2741.46C1031.63 2768.25 1042.2 2804.95 1047.78 2822.49C1049.95 2829.3 1052.67 2835.88 1055.69 2842.35L1142.53 3028.23C1144.13 3031.66 1145.26 3035.27 1145.69 3039.03C1146.93 3049.97 1148.63 3073.88 1141.28 3084.2C1133.18 3095.57 1112.47 3092.81 1101.52 3090.37C1096.82 3089.32 1092.54 3087.18 1088.53 3084.5C1065.27 3068.91 978.759 3012.08 915.195 2985.87C861.359 2963.68 773.703 2944.84 773.703 2944.84M731.61 2405.79L731.66 2402.64M731.61 2405.79L731.559 2409.04M773.703 2944.84L776.204 2894.74C776.466 2889.47 775.606 2884.15 772.88 2879.64C771.324 2877.06 769.409 2874.34 767.388 2872.53C763.874 2869.38 757.789 2866.95 754.093 2865.67C752.027 2864.95 749.855 2864.65 747.67 2864.6L714.521 2863.91M733.374 662.048L693.537 661.42M570.174 672.725L565.654 805.365M570.174 672.725L582.217 672.915M565.654 805.365L734.114 805.712M565.654 805.365L565.341 814.536M734.114 805.712L734.184 815.277M565.341 814.536L734.184 815.277M565.341 814.536L561.287 933.517M734.184 815.277L735.064 936.258M561.287 933.517L735.064 936.258M561.287 933.517L560.948 943.481M735.064 936.258L735.125 944.607M560.948 943.481L735.125 944.607M560.948 943.481L557.128 1055.55M735.125 944.607L735.395 981.68L735.24 1058.36M557.128 1055.55L556.816 1064.72M557.128 1055.55L687.288 1057.6L691.92 1057.68M735.24 1058.36L735.222 1067.53M735.24 1058.36L691.92 1057.68M556.816 1064.72L553.205 1170.69M556.816 1064.72L598.197 1065.37M735.222 1067.53L735.008 1173.56M735.222 1067.53L720.546 1067.3M553.205 1170.69L735.008 1173.56M553.205 1170.69L552.861 1180.8M735.008 1173.56L734.988 1183.67M552.861 1180.8L552.516 1190.9L549.549 1280.1M552.861 1180.8L659.25 1182.47M734.988 1183.67L734.788 1283.02M734.988 1183.67L659.25 1182.47M549.549 1280.1L734.788 1283.02M549.549 1280.1L549.167 1291.57M734.788 1283.02L734.765 1294.5M549.167 1291.57L734.765 1294.5M549.167 1291.57L546.093 1383.97M734.765 1294.5L734.579 1386.94M546.093 1383.97L734.579 1386.94M546.093 1383.97L545.783 1393.3M734.579 1386.94L734.56 1396.27M545.783 1393.3L734.56 1396.27M545.783 1393.3L542.819 1482.4M734.56 1396.27L734.38 1485.42M542.819 1482.4L542.541 1490.74M542.819 1482.4L719.039 1485.18M734.38 1485.42L734.364 1493.77M734.38 1485.42L719.039 1485.18M542.541 1490.74L734.364 1493.77M542.541 1490.74L539.828 1572.3M734.364 1493.77L734.199 1575.37M539.828 1572.3L734.199 1575.37M539.828 1572.3L539.48 1582.76M734.199 1575.37L734.178 1585.84M539.48 1582.76L536.876 1661.04M539.48 1582.76L554.602 1583M734.178 1585.84L734.021 1664.15M734.178 1585.84L554.602 1583M536.876 1661.04L734.021 1664.15M536.876 1661.04L536.76 1668.39M734.021 1664.15L733.905 1671.5M536.76 1668.39L534.25 1742.99M536.76 1668.39L581.545 1669.09M733.905 1671.5L733.787 1746.14M733.905 1671.5L618.023 1669.67M534.25 1742.99L733.787 1746.14M534.25 1742.99L533.967 1751.4M733.787 1746.14L733.774 1754.55M533.967 1751.4L733.774 1754.55M533.967 1751.4L531.612 1821.43M733.774 1754.55L733.664 1824.61M531.612 1821.43L531.291 1830.97M531.612 1821.43L649.142 1823.28M733.664 1824.61L733.649 1834.16M733.664 1824.61L649.142 1823.28M531.291 1830.97L733.649 1834.16M531.291 1830.97L529.08 1896.69M529.08 1896.69L528.82 1904.42M528.82 1904.42L733.532 1907.65M528.82 1904.42L526.786 1964.87M733.532 1907.65L733.426 1968.13M526.786 1964.87L733.426 1968.13M526.786 1964.87L526.669 1972.34M733.426 1968.13L733.308 1975.6M526.669 1972.34L525.135 2013.97L524.619 2029.91M526.669 1972.34L733.308 1975.6M733.308 1975.6L733.223 2033.2M524.619 2029.91L524.347 2038.31M524.619 2029.91L681.237 2032.38M733.223 2033.2L733.211 2041.61M733.223 2033.2L717.814 2032.96M524.347 2038.31L733.211 2041.61M524.347 2038.31L522.614 2091.87M733.211 2041.61L733.132 2095.19M522.614 2091.87L733.132 2095.19M522.614 2091.87L522.28 2102.21M733.132 2095.19L733.117 2105.53M522.28 2102.21L574.7 2103.03M733.117 2105.53L733.045 2154.52M733.117 2105.53L574.7 2103.03M520.791 2151.17L733.045 2154.52M520.791 2151.17L520.682 2158.06M733.045 2154.52L733.035 2161.41M520.682 2158.06L519.934 2205.47M520.682 2158.06L610.297 2159.47M733.035 2161.41L732.965 2208.83M733.035 2161.41L610.297 2159.47M519.934 2205.47L732.965 2208.83M519.934 2205.47L519.818 2212.82M732.965 2208.83L732.954 2216.18M519.818 2212.82L732.954 2216.18M519.818 2212.82L519.117 2257.3M732.954 2216.18L732.889 2260.67M519.117 2257.3L732.889 2260.67M519.117 2257.3L518.986 2265.58M732.889 2260.67L732.877 2268.96M518.986 2265.58L732.877 2268.96M732.877 2268.96L732.815 2310.86M518.079 2307.47L732.815 2310.86M518.079 2307.47L517.783 2315.71M732.815 2310.86L732.803 2319.1M517.783 2315.71L732.803 2319.1M517.783 2315.71L516.444 2352.93M516.444 2352.93L732.39 2356.34M516.444 2352.93L516.109 2362.28M732.39 2356.34L732.243 2365.68M516.109 2362.28L732.243 2365.68M516.109 2362.28L514.78 2399.22M514.78 2399.22L731.66 2402.64M514.78 2399.22L514.55 2405.61M514.55 2405.61L513.452 2436.17C513.452 2436.17 513.515 2437.39 513.734 2439.33M514.55 2405.61L731.559 2409.04M731.559 2409.04L731.082 2439.29C731.079 2439.5 731.074 2439.7 731.063 2439.91C731.04 2440.39 730.98 2441.39 730.845 2442.75M513.734 2439.33L730.845 2442.75M513.734 2439.33C513.933 2441.09 514.261 2443.45 514.787 2446.03M730.845 2442.75C730.671 2444.51 730.373 2446.86 729.867 2449.42M514.787 2446.03C515.876 2451.35 517.812 2457.61 521.211 2461.48C522.934 2463.44 525.494 2465.28 528.066 2466.84M514.787 2446.03L729.867 2449.42M729.867 2449.42C728.83 2454.68 726.92 2460.84 723.423 2464.67C721.752 2466.49 719.086 2468.28 716.406 2469.81M908.841 3098.22C909.957 3079.43 922.331 3062.15 941.109 3063.42C958.955 3064.62 971.362 3077.75 971.853 3095.63M908.847 3098.22C909.962 3079.43 922.336 3062.14 941.114 3063.41C958.961 3064.62 971.367 3077.75 971.859 3095.63M985.358 3286.57C986.474 3267.78 998.848 3250.5 1017.63 3251.77C1035.47 3252.98 1047.88 3266.1 1048.37 3283.98M539.17 491.161L534.589 491.088M539.17 491.161C537.509 496.488 535.891 501.758 534.333 506.927M539.17 491.161C545.785 469.946 553.081 447.815 559.96 427.486M534.589 491.088L530.222 506.862M534.589 491.088L531.694 488.644C530.927 487.996 530.009 487.551 529.025 487.35L512.81 484.036M530.222 506.862L534.333 506.927M530.222 506.862L527.525 507.472C525.472 507.937 523.326 507.293 521.869 505.774L512.619 496.128M512.81 484.036L512.918 477.185C512.933 476.185 512.208 475.327 511.219 475.176L488.849 471.774C488.517 471.723 488.182 471.843 487.956 472.092L479.069 481.936C478.507 482.559 478.91 483.57 479.745 483.646C483.502 483.99 491.571 484.942 497.224 487.131C503.738 489.653 512.617 496.242 512.617 496.242L512.81 484.036ZM551.608 405.147L566.425 408.54M551.608 405.147L544.757 378.628C544.494 377.608 543.715 376.801 542.705 376.502L523.975 370.955C522.943 370.649 521.83 370.917 521.07 371.679C517.589 375.169 507.691 385.508 503.663 394.098C498.47 405.172 499.419 422.785 499.861 428.183C499.944 429.201 500.566 430.081 501.482 430.533L522.396 440.846C523.522 441.401 524.874 441.197 525.785 440.334L547.518 419.75M551.608 405.147L547.518 419.75M566.425 408.54C578.316 373.967 587.628 348.353 587.628 348.353L588.881 344.496M566.425 408.54C564.337 414.609 562.17 420.955 559.96 427.486M547.518 419.75L559.96 427.486M576.549 338.454L588.881 344.496M576.549 338.454L577.833 324.355M576.549 338.454L557.03 356.781C556.19 357.57 554.972 357.808 553.897 357.393L529.809 348.1C528.721 347.681 527.976 346.67 527.917 345.506C527.702 341.249 527.33 330.781 528.402 323.575C530.319 310.689 541.209 294.907 544.67 290.155C545.314 289.27 546.397 288.842 547.478 289.011L567.884 292.205C569.074 292.392 570.037 293.271 570.33 294.44L577.833 324.355M588.881 344.496L595.335 324.631M595.335 324.631L577.833 324.355M595.335 324.631L615.353 263.021M620.687 246.601L635.206 201.915L641.934 181.355M620.687 246.601L606.281 243.393M620.687 246.601L615.353 263.021M606.281 243.393L604.609 225.447C604.52 224.491 603.979 223.636 603.154 223.146L583.049 211.21C582.113 210.655 580.95 210.65 580.025 211.226C575.903 213.796 564.416 221.384 559.5 229.048C553.171 238.915 554.858 255.489 555.564 260.561C555.697 261.521 556.318 262.327 557.195 262.741L577.469 272.32C578.577 272.844 579.892 272.641 580.791 271.807L600.286 253.725M606.281 243.393L600.286 253.725M615.353 263.021L600.286 253.725M648.663 160.794L637.254 157.26M648.663 160.794L641.934 181.355M648.663 160.794L668.958 98.779M637.254 157.26L630.164 176.382M637.254 157.26L627.138 153.027M630.164 176.382L641.934 181.355M630.164 176.382L622.102 171.05L611.781 165.457M611.781 165.457L589.908 160.073C589.403 159.949 589.077 159.459 589.159 158.945L590.874 148.187C590.958 147.663 591.437 147.295 591.965 147.35L625.347 150.802C626.379 150.909 627.158 151.786 627.141 152.823L627.138 153.027M611.781 165.457C611.781 165.457 618.628 164.662 622.248 161.775C624.884 159.673 627.138 153.027 627.138 153.027M675.16 79.8277L662.169 78.3534M675.16 79.8277L668.958 98.779M662.169 78.3534L651.092 47.53C650.714 46.4782 649.782 45.7238 648.675 45.5723L630.296 43.058C629.398 42.9351 628.495 43.2229 627.851 43.8608C624.413 47.2653 613.307 58.7687 609.706 68.7051C605.642 79.9209 607.961 97.908 608.838 103.548C609.007 104.634 609.78 105.509 610.826 105.849L634.855 113.664C635.921 114.01 637.09 113.734 637.888 112.948L656.354 94.7673M662.169 78.3534L656.354 94.7673M668.958 98.779L656.354 94.7673M476.658 2898.42L472.133 3185.32C472.004 3193.49 475.291 3201.35 481.202 3207V3207C486.546 3212.1 493.618 3215 501.007 3215.12L673.415 3217.84M750.36 2902.74L755.096 2902.82L760.446 2915.38C761.542 2917.96 762.085 2920.73 762.041 2923.53L757.378 3219.16C757.378 3219.16 756.24 3229.23 752.151 3233.62C746.406 3239.8 731.164 3238.75 731.164 3238.75L704.795 3238.33M750.36 2902.74L472.891 2898.36L469.216 2912.02C468.744 2913.77 468.491 2915.57 468.463 2917.39L463.993 3200.73C463.922 3205.27 464.635 3209.81 466.631 3213.89C469.143 3219.03 473.218 3225.96 478.173 3229.3C484.742 3233.73 497.624 3235.06 497.624 3235.06L520.962 3235.43M750.36 2902.74L745.737 3195.8C745.669 3200.15 744.377 3204.39 742.01 3208.04V3208.04C737.667 3214.74 730.182 3218.73 722.199 3218.61L673.415 3217.84M520.962 3235.43L522.048 3166.54L538.948 3166.81L537.861 3235.7M520.962 3235.43L537.861 3235.7M537.861 3235.7L602.986 3236.72M604.118 3164.98L602.986 3236.72M604.118 3164.98L622.254 3165.26M604.118 3164.98L573.27 3164.49C572.69 3164.48 572.239 3163.98 572.29 3163.4L575.254 3129.81M602.986 3236.72L621.122 3237.01M622.254 3165.26L621.122 3237.01M622.254 3165.26L652.736 3165.74C653.273 3165.75 653.721 3165.34 653.751 3164.8L655.578 3131.74M621.122 3237.01L686.247 3238.04M687.451 3161.73L686.247 3238.04M687.451 3161.73L705.999 3162.02M687.451 3161.73L659.599 3161.29C659.047 3161.28 658.606 3160.83 658.615 3160.27L659.125 3127.97M686.247 3238.04L704.795 3238.33M705.999 3162.02L704.795 3238.33M705.999 3162.02L738.866 3161.11C739.401 3161.09 739.83 3160.66 739.838 3160.12L740.325 3129.25M493.329 3128.52L493.654 3124.61C493.698 3124.09 494.14 3123.69 494.666 3123.7L571.768 3124.91C572.34 3124.92 572.788 3125.41 572.75 3125.98L572.501 3129.77M493.329 3128.52L528.255 3129.07M493.329 3128.52L492.901 3133.68M528.255 3129.07L528.657 3103.57C528.665 3103.02 529.12 3102.58 529.672 3102.59L536.773 3102.7C537.325 3102.71 537.765 3103.17 537.757 3103.72L537.355 3129.22M528.255 3129.07L528.173 3134.23M537.355 3129.22L572.501 3129.77M537.355 3129.22L537.273 3134.38M572.501 3129.77L572.42 3134.93M492.901 3133.68L490.39 3163.86C490.343 3164.43 490.784 3164.93 491.357 3164.95L569.08 3167.27C569.616 3167.29 570.068 3166.88 570.108 3166.34L572.42 3134.93M492.901 3133.68L528.173 3134.23M528.173 3134.23L528.043 3142.45L537.143 3142.6L537.273 3134.38M537.273 3134.38L572.42 3134.93M575.681 3124.98L576.158 3119.57C576.204 3119.05 576.646 3118.65 577.17 3118.66L655.192 3119.89C655.76 3119.9 656.206 3120.38 656.175 3120.94L655.882 3126.24M575.681 3124.98L612.104 3125.55M575.681 3124.98L575.254 3129.81M612.104 3125.55L612.43 3104.9C612.439 3104.34 612.894 3103.9 613.446 3103.91L619.475 3104.01C620.027 3104.02 620.468 3104.47 620.459 3105.02L620.133 3125.68M612.104 3125.55L612.028 3130.39M620.133 3125.68L655.882 3126.24M620.133 3125.68L620.047 3131.18M655.882 3126.24L655.578 3131.74M575.254 3129.81L612.028 3130.39M612.028 3130.39L611.931 3136.55L619.96 3136.68L620.047 3131.18M620.047 3131.18L655.578 3131.74M659.214 3122.33L659.311 3116.15C659.32 3115.59 659.793 3115.14 660.356 3115.17L739.52 3118.78C740.06 3118.8 740.483 3119.25 740.475 3119.79L740.414 3123.61M659.214 3122.33L696.207 3122.91M659.214 3122.33L659.125 3127.97M696.207 3122.91L696.45 3107.56C696.458 3107.01 696.913 3106.57 697.465 3106.58L702.96 3106.66C703.512 3106.67 703.952 3107.13 703.944 3107.68L703.701 3123.03M696.207 3122.91L696.118 3128.56M703.701 3123.03L740.414 3123.61M703.701 3123.03L703.612 3128.68M740.414 3123.61L740.325 3129.25M659.125 3127.97L696.118 3128.56M696.118 3128.56L696.068 3131.72L703.563 3131.84L703.612 3128.68M703.612 3128.68L740.325 3129.25M936.138 2846.64L881.208 2773.82C881.074 2773.64 881.003 2773.43 881.006 2773.2L881.132 2765.26C881.14 2764.7 881.595 2764.26 882.147 2764.27L888.612 2764.37C888.926 2764.38 889.22 2764.53 889.405 2764.79L945.766 2842.28M936.138 2846.64L932.373 2851.46C931.755 2852.26 931.821 2853.39 932.529 2854.1L959.866 2881.71L968.52 2881.85C969.986 2881.87 971.254 2880.83 971.518 2879.39L972.649 2873.2L954.013 2843.32C953.653 2842.75 953.026 2842.39 952.347 2842.38L945.766 2842.28M936.138 2846.64L945.766 2842.28M706.128 96.7717C704.833 94.871 704.096 92.5963 704.183 90.1406C704.246 88.3767 704.749 86.7367 705.577 85.2865M706.128 96.7717C708.504 100.258 712.761 102.485 717.262 102.263C721.802 102.038 725.818 99.5763 727.794 95.8941M706.128 96.7717C706.128 96.7717 709.317 109.664 715.804 110.406C723.107 111.241 727.794 95.8941 727.794 95.8941M727.794 95.8941C728.646 94.3069 729.119 92.4929 729.092 90.5335C729.067 88.7337 728.666 87.0893 727.956 85.6395M727.794 95.8941L722.33 442.311L718.659 675.067M727.956 85.6395C726.361 82.3807 723.205 80.1046 719.25 79.2538C713.878 78.0985 708.155 80.7727 705.577 85.2865M727.956 85.6395C727.956 85.6395 734.657 91.8952 736.004 97.2429C739.119 109.613 727.575 122.95 714.845 122.129C702.283 121.318 692.312 107.158 696.821 95.4056C698.693 90.5266 705.577 85.2865 705.577 85.2865M679.105 180.498C677.809 178.597 677.072 176.323 677.16 173.867C677.223 172.103 677.726 170.463 678.554 169.013M679.105 180.498C681.481 183.984 685.737 186.212 690.238 185.989C694.779 185.764 698.795 183.303 700.771 179.62M679.105 180.498C679.105 180.498 682.293 193.391 688.78 194.132C696.084 194.968 700.771 179.62 700.771 179.62M700.771 179.62C701.623 178.033 702.096 176.219 702.068 174.26C702.043 172.46 701.642 170.816 700.933 169.366M700.771 179.62L693.537 661.42M700.933 169.366C699.337 166.107 696.182 163.831 692.226 162.98C686.855 161.825 681.132 164.499 678.554 169.013M700.933 169.366C700.933 169.366 707.634 175.622 708.981 180.969C712.096 193.339 700.551 206.676 687.821 205.855C675.26 205.045 665.289 190.884 669.798 179.132C671.67 174.253 678.554 169.013 678.554 169.013M652.043 266.693C650.747 264.793 650.011 262.518 650.098 260.062C650.161 258.298 650.664 256.658 651.492 255.208M652.043 266.693C654.419 270.179 658.675 272.407 663.176 272.184C667.717 271.96 671.732 269.498 673.709 265.816M652.043 266.693C652.043 266.693 655.232 279.586 661.718 280.328C669.022 281.163 673.709 265.816 673.709 265.816M673.709 265.816C674.56 264.229 675.033 262.415 675.006 260.455C674.981 258.655 674.58 257.011 673.87 255.561M673.709 265.816L667.475 661.009M673.87 255.561C672.275 252.302 669.12 250.026 665.164 249.175C659.793 248.02 654.07 250.694 651.492 255.208M673.87 255.561C673.87 255.561 680.571 261.817 681.918 267.165C685.034 279.535 673.489 292.871 660.759 292.05C648.198 291.24 638.227 277.08 642.736 265.327C644.608 260.448 651.492 255.208 651.492 255.208M624.226 347.665C622.93 345.764 622.194 343.489 622.281 341.034C622.344 339.27 622.847 337.63 623.675 336.18M624.226 347.665C626.602 351.151 630.858 353.378 635.36 353.156C639.9 352.931 643.916 350.469 645.892 346.787M624.226 347.665C624.226 347.665 627.415 360.557 633.901 361.299C641.205 362.134 645.892 346.787 645.892 346.787M645.892 346.787C646.744 345.2 647.217 343.386 647.189 341.427C647.164 339.627 646.763 337.982 646.054 336.533M645.892 346.787L640.618 476.933L637.513 673.787M646.054 336.533C644.459 333.274 641.303 330.998 637.347 330.147C631.976 328.992 626.253 331.666 623.675 336.18M646.054 336.533C646.054 336.533 652.755 342.788 654.102 348.136C657.217 360.506 645.673 373.843 632.943 373.022C620.381 372.211 610.41 358.051 614.919 346.299C616.791 341.42 623.675 336.18 623.675 336.18M598.529 431.625C597.233 429.724 596.497 427.449 596.584 424.994C596.647 423.23 597.15 421.59 597.978 420.139M598.529 431.625C600.905 435.111 605.161 437.338 609.663 437.115C614.203 436.891 618.219 434.429 620.195 430.747M598.529 431.625C598.529 431.625 601.718 444.517 608.204 445.259C615.508 446.094 620.195 430.747 620.195 430.747M620.195 430.747C621.047 429.16 621.52 427.346 621.492 425.386M621.492 425.386C621.467 423.587 621.066 421.942 620.357 420.492M621.492 425.386L615.163 497.745L610.695 673.364M620.357 420.492C618.761 417.234 615.606 414.957 611.65 414.107C606.279 412.951 600.556 415.626 597.978 420.139M620.357 420.492C620.357 420.492 627.058 426.748 628.405 432.096C631.52 444.466 619.975 457.803 607.245 456.981C594.684 456.171 584.713 442.011 589.222 430.258C591.094 425.38 597.978 420.139 597.978 420.139M566.332 519.553C565.036 517.652 564.3 515.378 564.387 512.922C564.45 511.158 564.953 509.518 565.781 508.068M566.332 519.553C568.708 523.039 572.964 525.267 577.465 525.044C582.006 524.819 586.022 522.358 587.998 518.675M566.332 519.553C566.332 519.553 569.521 532.445 576.007 533.187C583.311 534.023 587.998 518.675 587.998 518.675M587.998 518.675C588.85 517.088 589.323 515.274 589.295 513.315M589.295 513.315C589.27 511.515 588.869 509.871 588.16 508.421M589.295 513.315L582.217 672.915M588.16 508.421C586.564 505.162 583.409 502.886 579.453 502.035C574.082 500.88 568.359 503.554 565.781 508.068M588.16 508.421C588.16 508.421 594.861 514.677 596.208 520.024C599.323 532.394 587.778 545.731 575.048 544.91C562.487 544.1 552.516 529.939 557.025 518.187C558.897 513.308 565.781 508.068 565.781 508.068M582.217 672.915L554.602 1583M582.217 672.915L610.695 673.364M554.602 1583L528.066 2466.84M528.066 2466.84C529.612 2467.78 531.163 2468.61 532.539 2469.3C535.614 2470.85 539.033 2471.51 542.475 2471.56L638.892 2473.08M528.066 2466.84L516.495 2859.8M516.495 2859.8L510.953 3211.13M516.495 2859.8L557.043 2860.64M610.695 673.364L598.197 1065.37M610.695 673.364L637.513 673.787M598.197 1065.37L581.545 1669.09M598.197 1065.37L631.328 1065.89M581.545 1669.09L574.7 2103.03M581.545 1669.09L618.023 1669.67M574.7 2103.03L557.043 2860.64M557.043 2860.64L551.504 3211.77M557.043 2860.64L599.223 2861.52M637.513 673.787L631.328 1065.89M637.513 673.787L667.266 674.256M631.328 1065.89L618.023 1669.67M631.328 1065.89L720.546 1067.3M618.023 1669.67L610.297 2159.47M610.297 2159.47L599.223 2861.52M599.223 2861.52L593.688 3212.44M599.223 2861.52L714.521 2863.91M667.475 661.009L667.266 674.256M667.475 661.009L693.537 661.42M667.266 674.256L659.25 1182.47M667.266 674.256L718.659 675.067M659.25 1182.47L649.142 1823.28M649.142 1823.28L638.892 2473.08M638.892 2473.08L632.766 2861.44L632.615 3213.05M638.892 2473.08L680.208 2473.73M693.537 661.42L691.92 1057.68M680.208 2473.73L704.614 2474.12C706.473 2474.15 708.321 2473.81 710.015 2473.05C711.723 2472.27 714.07 2471.14 716.406 2469.81M680.208 2473.73L681.237 2032.38M680.208 2473.73L673.415 3217.84M681.237 2032.38L687.107 1544.19L690.978 1298.75L691.92 1057.68M681.237 2032.38L717.814 2032.96M718.659 675.067L720.546 1067.3M720.546 1067.3L719.039 1485.18M716.406 2469.81L717.814 2032.96M716.406 2469.81L714.521 2863.91M717.814 2032.96L719.039 1485.18M714.521 2863.91L713.157 3214.32M517.974 2502.85L716.503 2505.98L718.522 2506.4C748.127 2512.52 745.772 2555.55 715.676 2558.4V2558.4L517.147 2555.27L513.313 2553.82C491.942 2545.72 490.669 2515.97 511.268 2506.07L517.974 2502.85ZM520.409 2512.32L716.354 2515.41C716.354 2515.41 732 2521.71 732 2532.5C732 2543.5 715.76 2553.09 715.76 2553.09L519.814 2550L516.564 2548.08C501.949 2539.46 504.295 2517.64 520.409 2512.32V2512.32ZM941.436 3042.66C913.611 3041.95 890.837 3066.58 892.39 3094.37C893.835 3120.22 914.007 3140.37 939.891 3140.6C967.401 3140.85 989.468 3116.79 988.176 3089.31C986.965 3063.55 967.216 3043.31 941.436 3042.66ZM940.96 3072.83C923.754 3072.43 907.626 3086.61 908.748 3104.1C909.791 3120.35 923.749 3131.53 940.032 3131.67C956.177 3131.8 970.161 3121.17 971.704 3105.1C973.367 3087.77 958.035 3073.23 940.96 3072.83ZM941.441 3042.66C913.616 3041.95 890.843 3066.58 892.396 3094.37C893.841 3120.22 914.013 3140.37 939.896 3140.6C967.406 3140.85 989.474 3116.79 988.182 3089.3C986.97 3063.54 967.221 3043.31 941.441 3042.66ZM940.965 3072.83C923.76 3072.43 907.631 3086.6 908.754 3104.1C909.796 3120.35 923.755 3131.53 940.037 3131.67C956.182 3131.8 970.167 3121.16 971.71 3105.09C973.373 3087.77 958.041 3073.22 940.965 3072.83ZM1017.95 3231.01C990.128 3230.31 967.354 3254.94 968.908 3282.73C970.352 3308.57 990.525 3328.72 1016.41 3328.96C1043.92 3329.21 1065.99 3305.14 1064.69 3277.66C1063.48 3251.9 1043.73 3231.67 1017.95 3231.01ZM1017.48 3261.18C1000.27 3260.78 984.143 3274.96 985.265 3292.46C986.308 3308.71 1000.27 3319.88 1016.55 3320.02C1032.69 3320.16 1046.68 3309.52 1048.22 3293.45C1049.88 3276.12 1034.55 3261.58 1017.48 3261.18ZM742.8 3045.05C747.821 3035.56 747.036 3024.52 744.958 3015.79C742.506 3005.48 733.794 2998.4 723.784 2994.94L528.863 2927.43C520.45 2924.51 511.206 2924.15 503.329 2928.3C495.193 2932.59 485.584 2939.47 482.594 2949.03C480.523 2955.65 480.341 2963.03 480.92 2969.67C482.039 2982.5 492.035 2992.12 504.193 2996.39L696.321 3063.77C706.31 3067.27 717.425 3067.1 726.256 3061.26C732.62 3057.06 739.417 3051.44 742.8 3045.05ZM717.702 74.376C703.443 73.5433 691.878 84.8831 690.772 99.1231C689.561 114.708 702.912 129.415 718.48 128.009C732.646 126.729 742.364 114.132 741.672 99.9259C741.006 86.2607 731.36 75.1737 717.702 74.376ZM690.678 158.102C676.42 157.27 664.855 168.609 663.749 182.849C662.538 198.434 675.889 213.142 691.457 211.735C705.623 210.455 715.341 197.859 714.648 183.652C713.982 169.987 704.336 158.9 690.678 158.102ZM663.616 244.298C649.357 243.465 637.793 254.805 636.687 269.045C635.476 284.629 648.827 299.337 664.395 297.93C678.561 296.651 688.278 284.054 687.586 269.848C686.92 256.182 677.274 245.095 663.616 244.298ZM635.799 325.269C621.541 324.436 609.976 335.776 608.87 350.016C607.659 365.601 621.01 380.308 636.578 378.902C650.744 377.622 660.462 365.025 659.769 350.819C659.103 337.154 649.458 326.067 635.799 325.269ZM610.102 409.229C595.844 408.396 584.279 419.736 583.173 433.976C581.962 449.561 595.313 464.268 610.881 462.862C625.047 461.582 634.765 448.985 634.072 434.779C633.406 421.114 623.761 410.027 610.102 409.229ZM577.905 497.157C563.647 496.325 552.082 507.664 550.976 521.904C549.765 537.489 563.116 552.196 578.684 550.79C592.85 549.51 602.568 536.914 601.875 522.707C601.209 509.042 591.564 497.955 577.905 497.157Z" stroke="white"/>
<circle cx="1120.14" cy="3066.17" r="10.0369" transform="rotate(0.903685 1120.14 3066.17)" stroke="white"/>
<circle cx="811.672" cy="2925.15" r="10.0369" transform="rotate(0.903685 811.672 2925.15)" stroke="white"/>
<circle cx="634.745" cy="2938.06" r="10.0369" transform="rotate(0.903685 634.745 2938.06)" stroke="white"/>
<circle cx="518.944" cy="3023.2" r="10.0369" transform="rotate(0.903685 518.944 3023.2)" stroke="white"/>
<circle cx="676.92" cy="3073.95" r="10.0369" transform="rotate(0.903685 676.92 3073.95)" stroke="white"/>
<circle cx="511.446" cy="3205.87" r="5.53244" transform="rotate(0.903685 511.446 3205.87)" stroke="white"/>
<circle cx="551.027" cy="3206.49" r="5.53244" transform="rotate(0.903685 551.027 3206.49)" stroke="white"/>
<circle cx="592.292" cy="3207.14" r="5.53244" transform="rotate(0.903685 592.292 3207.14)" stroke="white"/>
<circle cx="633.556" cy="3207.79" r="5.53244" transform="rotate(0.903685 633.556 3207.79)" stroke="white"/>
<circle cx="674.802" cy="3208.45" r="5.53244" transform="rotate(0.903685 674.802 3208.45)" stroke="white"/>
<circle cx="716.044" cy="3209.09" r="5.53244" transform="rotate(0.903685 716.044 3209.09)" stroke="white"/>
<circle cx="1018.27" cy="2804.12" r="10.0369" transform="rotate(0.903685 1018.27 2804.12)" stroke="white"/>
<circle cx="1055.54" cy="2585.4" r="10.0369" transform="rotate(0.903685 1055.54 2585.4)" stroke="white"/>
<circle cx="872.397" cy="2749.58" r="12.7564" transform="rotate(0.903685 872.397 2749.58)" stroke="white"/>
<circle cx="757.926" cy="2531.27" r="6.83144" transform="rotate(0.903685 757.926 2531.27)" stroke="white"/>
<circle cx="487.227" cy="2526.99" r="6.83144" transform="rotate(0.903685 487.227 2526.99)" stroke="white"/>
<circle cx="1099.88" cy="2265.34" r="10.0369" transform="rotate(0.903685 1099.88 2265.34)" stroke="white"/>
<circle cx="787.702" cy="2475.17" r="10.0369" transform="rotate(0.903685 787.702 2475.17)" stroke="white"/>
<circle cx="624.334" cy="2381.04" r="11.0088" transform="rotate(0.903685 624.334 2381.04)" stroke="white"/>
<circle cx="625.814" cy="2287.13" r="11.0088" transform="rotate(0.903685 625.814 2287.13)" stroke="white"/>
<circle cx="627.449" cy="2183.46" r="11.0088" transform="rotate(0.903685 627.449 2183.46)" stroke="white"/>
<circle cx="629.299" cy="2066.19" r="11.0088" transform="rotate(0.903685 629.299 2066.19)" stroke="white"/>
<circle cx="683.678" cy="1863.57" r="11.0088" transform="rotate(0.903685 683.678 1863.57)" stroke="white"/>
<circle cx="582.404" cy="1861.98" r="11.0088" transform="rotate(0.903685 582.404 1861.98)" stroke="white"/>
<circle cx="636.631" cy="1621.57" r="11.0088" transform="rotate(0.903685 636.631 1621.57)" stroke="white"/>
<circle cx="638.631" cy="1436.78" r="11.0088" transform="rotate(0.903685 638.631 1436.78)" stroke="white"/>
<circle cx="641.879" cy="1230.81" r="11.0088" transform="rotate(0.903685 641.879 1230.81)" stroke="white"/>
<circle cx="645.535" cy="998.947" r="11.0088" transform="rotate(0.903685 645.535 998.947)" stroke="white"/>
<circle cx="430.758" cy="2278.55" r="10.0369" transform="rotate(0.903685 430.758 2278.55)" stroke="white"/>
<circle cx="427.227" cy="2601.99" r="10.0369" transform="rotate(0.903685 427.227 2601.99)" stroke="white"/>
<circle cx="428.141" cy="2875.86" r="10.0369" transform="rotate(0.903685 428.141 2875.86)" stroke="white"/>
<circle cx="521.524" cy="2949.58" r="8.61406" transform="rotate(0.903685 521.524 2949.58)" stroke="white"/>
<circle cx="560.389" cy="2963.6" r="8.61406" transform="rotate(0.903685 560.389 2963.6)" stroke="white"/>
<circle cx="601.063" cy="2975.62" r="8.61406" transform="rotate(0.903685 601.063 2975.62)" stroke="white"/>
<circle cx="640.583" cy="2989.65" r="8.61406" transform="rotate(0.903685 640.583 2989.65)" stroke="white"/>
<circle cx="679.471" cy="3002.32" r="8.61406" transform="rotate(0.903685 679.471 3002.32)" stroke="white"/>
<circle cx="720.354" cy="3015.24" r="8.61406" transform="rotate(0.903685 720.354 3015.24)" stroke="white"/>
<circle cx="708.202" cy="3049.66" r="8.61406" transform="rotate(0.903685 708.202 3049.66)" stroke="white"/>
<circle cx="668.881" cy="3037.26" r="8.61406" transform="rotate(0.903685 668.881 3037.26)" stroke="white"/>
<circle cx="628.934" cy="3024.13" r="8.61406" transform="rotate(0.903685 628.934 3024.13)" stroke="white"/>
<circle cx="591.909" cy="3009.54" r="8.61406" transform="rotate(0.903685 591.909 3009.54)" stroke="white"/>
<circle cx="551.247" cy="2996.85" r="8.61406" transform="rotate(0.903685 551.247 2996.85)" stroke="white"/>
<circle cx="510.962" cy="2982.82" r="8.61406" transform="rotate(0.903685 510.962 2982.82)" stroke="white"/>
<path d="M489.999 3159.24C482.247 3159.12 474.803 3165.78 474.681 3173.53C474.559 3181.28 480.743 3187.66 488.495 3187.78C496.246 3187.91 502.629 3181.72 502.751 3173.97C502.873 3166.22 501.224 3165.42 501.224 3165.42" stroke="white"/>
<path d="M563.14 3167.48C560.725 3169.95 559.215 3173.32 559.156 3177.05C559.034 3184.8 565.219 3191.19 572.97 3191.31C580.721 3191.43 587.104 3185.25 587.226 3177.5C587.276 3174.31 586.264 3171.36 584.518 3168.98L580.357 3164.89" stroke="white"/>
<path d="M654.279 3164.68C662.03 3164.81 669.859 3171.02 669.736 3178.78C669.614 3186.53 663.231 3192.71 655.48 3192.59C647.729 3192.47 641.544 3186.08 641.666 3178.33C641.74 3173.65 645.154 3168.47 648.718 3165.98" stroke="white"/>
<path d="M745.439 3187.11C742.816 3190.13 737.883 3193.91 733.577 3193.85C725.825 3193.72 719.641 3187.34 719.763 3179.59C719.885 3171.84 726.268 3165.65 734.019 3165.78C737.954 3165.84 741.485 3167.51 743.992 3170.16L745.669 3172.52" stroke="white"/>
</svg>
